<?xml version="1.0" encoding="UTF-8" standalone="no"?>
<svg width="60px" height="40px" viewBox="0 0 60 40" version="1.1" xmlns="http://www.w3.org/2000/svg" xmlns:xlink="http://www.w3.org/1999/xlink">
    <!-- Generator: Sketch 3.8.3 (29802) - http://www.bohemiancoding.com/sketch -->
    <title>US-AR-3</title>
    <desc>Created with Sketch.</desc>
    <defs></defs>
    <g id="Icons-{3}" stroke="none" stroke-width="1" fill="none" fill-rule="evenodd">
        <g id="US-AR-3">
            <g>
                <path d="M3.75,0 L56.25,0 C58.3275,0 60,1.115 60,2.5 L60,37.5 C60,38.885 58.3275,40 56.25,40 L3.75,40 C1.6725,40 0,38.885 0,37.5 L0,2.5 C0,1.115 1.6725,0 3.75,0 L3.75,0 Z" id="rect1872" fill="#000000"></path>
                <path d="M9.72075125,32.6388685 L6.9671825,32.6388685 L4.21361278,32.6388685 L4.21361278,23.1733613 L4.21361278,13.7078542 L3.14343918,8.50851094 C2.55484317,5.64887161 2.05678008,3.23960489 2.03663182,3.15458384 L2,3 L27.1223047,3 L52.2446113,3 L52.567606,3.09801329 C53.0825838,3.25428474 53.3174393,3.45262823 53.4711185,3.86107222 C53.5854349,4.16489908 53.5928937,4.2399417 53.5325964,4.47940696 C53.4948546,4.62930581 53.4279187,4.92817536 53.383855,5.14356172 C53.3204191,5.45364429 53.2421437,5.62528681 53.0078824,5.96800888 C52.7267061,6.37935675 52.7109684,6.42130621 52.690782,6.81306684 L52.6695425,7.09892519 L52.9122298,7.33865139 L53.1549172,7.452013 L55.5774586,7.452013 L58,7.452013 L58,8.45259496 L58,9.45317691 C57.8575815,9.79038694 57.8276404,9.90155737 57.8276404,10.203272 L57.4380751,10.9428751 L56.7960239,11.9889093 C56.0526334,13.0303989 55.9541413,13.1935275 55.9139262,13.4498638 C55.852461,13.8417097 55.4116995,15.1351077 55.1796601,15.6045324 C55.0757822,15.8146923 54.8843856,16.2578475 54.7543373,16.5893225 C54.5089702,17.2147229 54.5411128,17.2971446 53.8239063,17.9877938 C53.6524993,18.152852 53.2792367,18.5166638 53.2778535,18.7038044 C53.2774561,18.7579519 53.1167838,19.1324416 52.6827417,19.6904451 C52.2474518,20.2500535 51.8566581,20.8066607 51.8112549,20.9317181 C51.7147637,21.1974831 50.1738543,23.0303285 49.0040889,24.2707296 C48.3377493,24.977307 48.1550778,25.2135658 47.4943374,26.2233945 C47.0221307,26.9450853 46.7087865,27.4815119 46.6515615,27.6661758 C46.6014651,27.8278474 46.5190478,28.0807042 46.4684185,28.2280777 C46.3986558,28.4311466 46.3760633,28.7682637 46.375097,29.6204645 L46.373818,30.6185413 L46.5851205,31.1663029 C46.7013404,31.3980694 46.8546338,31.7440637 46.9257739,31.9351784 C46.9969208,32.1262932 47.0958278,32.4620393 47.1455697,32.5268394 C47.2224375,32.6269838 47.2332988,32.8138464 47.2179518,34.4873579 L47.1998889,36.3300535 L46.9964435,36.7263601 C46.884538,36.8748266 46.671143,37.090134 46.5222107,37.2048231 C46.3732861,37.3195122 46.2514369,37.4255895 46.2514369,37.4405574 C46.2514369,37.4787387 46.0869578,37.5853593 46.0263478,37.586465 C45.9987026,37.5869642 45.9072417,37.6236543 45.8231041,37.6679895 C45.672092,37.747568 45.4398627,37.7486169 27.6954387,37.7495204 L9.72075125,37.7504365 L9.72075125,35.1946493 L9.72075125,32.6388685 Z" id="path3797" fill="#FFFFFF"></path>
            </g>
        </g>
    </g>
</svg>