<?xml version="1.0" encoding="UTF-8" standalone="no"?>
<svg width="60px" height="40px" viewBox="0 0 60 40" version="1.1" xmlns="http://www.w3.org/2000/svg" xmlns:xlink="http://www.w3.org/1999/xlink">
    <!-- Generator: Sketch 3.8.3 (29802) - http://www.bohemiancoding.com/sketch -->
    <title>US-AZ-3</title>
    <desc>Created with Sketch.</desc>
    <defs></defs>
    <g id="Icons-{3}" stroke="none" stroke-width="1" fill="none" fill-rule="evenodd">
        <g id="US-AZ-3">
            <g>
                <rect id="Rectangle-41" fill="#000000" x="0" y="0" width="60" height="40" rx="2"></rect>
                <path d="M24.9732013,38.7030733 C24.970024,38.6955967 19.6404573,37.4728813 13.1297253,35.98593 L1.29203093,33.282382 L1.2876748,19.9701947 L1.28331867,6.65800607 L4.40854267,6.66243407 L7.53377333,6.666862 L7.53377333,3.97509367 L7.53377333,1.28332587 L23.1208747,1.28332587 L38.7079827,1.28332587 L38.712332,19.9999993 L38.7166813,38.716674 L31.847832,38.716674 C28.0699633,38.716674 24.976378,38.71055 24.9732013,38.7030733 L24.9732013,38.7030733 Z" id="path3281" stroke="#000000"></path>
                <path d="M19.5259428,36.0143933 L1.26344081,33.306032 L1.25672046,19.9701413 L1.25,6.63425013 L6.0714126,6.638686 L10.8928353,6.64312193 L10.8928353,3.9465606 L10.8928353,1.25 L34.9397022,1.25 L58.9865794,1.25 L58.9932897,19.9999993 L59,38.75 L48.4031409,38.75 C42.5748672,38.75 37.8022645,38.7438653 37.7973632,38.7363753 C37.7924619,38.7288853 29.5703187,37.5039927 19.5259428,36.0143933 Z" id="path4166" fill="#FFFFFF"></path>
                <path d="M21.9192328,7.25113312 L21.4948509,6.07926653 L20.1509748,6.07926653 L19.7265928,7.25113312 L19,7.25113312 L20.4853365,3.07479998 L21.1604891,3.07479998 L22.6458257,7.25113312 L21.9192328,7.25113312 M20.8325578,4.23419995 L20.3888859,5.40606655 L21.25051,5.40606655 L20.8325578,4.23419995 M25.4903097,7.25113312 L24.7958664,5.43099987 L23.9792527,5.43099987 L23.9792527,7.25113312 L23.2976697,7.25113312 L23.2976697,3.07479998 L24.7187064,3.07479998 C24.8858846,3.07480418 25.0294887,3.08519308 25.1495182,3.10596666 C25.2695428,3.12259303 25.3831398,3.15583745 25.4903097,3.20569997 C25.5846139,3.25141509 25.6703474,3.31167057 25.7475108,3.38646668 C25.8289548,3.45711486 25.8975413,3.54022593 25.9532716,3.63579995 C26.0132819,3.72722572 26.0582924,3.82695897 26.0883023,3.93499995 C26.1225922,4.03889209 26.1397391,4.14278081 26.1397425,4.24666665 C26.1397391,4.35886948 26.1225922,4.46899161 26.0883023,4.57703325 C26.0582924,4.68092473 26.0132819,4.78065798 25.9532716,4.87623325 C25.8975413,4.96765777 25.8268111,5.05076878 25.741081,5.12556659 C25.6596309,5.20036861 25.5696107,5.25854635 25.4710197,5.30009989 L26.2297627,7.25113312 L25.4903097,7.25113312 M25.4581595,4.24666665 C25.4581567,4.15940305 25.43458,4.07629205 25.3874292,3.9973333 C25.3402731,3.91838106 25.2738296,3.85604777 25.1880981,3.81033331 C25.1323692,3.78124786 25.0809289,3.76254788 25.0337775,3.75423331 C24.986622,3.74177016 24.9073183,3.73553681 24.7958664,3.73553333 L23.9792527,3.73553333 L23.9792527,4.7577999 L24.7958664,4.7577999 C24.9030315,4.75780239 24.9801915,4.75364685 25.0273477,4.74533327 C25.0787852,4.73702467 25.1323692,4.71832469 25.1880981,4.68923326 C25.2738296,4.64352478 25.3402731,4.58119149 25.3874292,4.50223327 C25.43458,4.41912502 25.4581567,4.33393621 25.4581595,4.24666665 M26.9522367,7.25113312 L26.9522367,3.07479998 L27.64668,3.07479998 L27.64668,7.25113312 L26.9522367,7.25113312 M28.3705603,7.25113312 L28.3705603,6.69636683 L30.3381488,3.73553333 L28.5377412,3.73553333 L28.5377412,3.07479998 L31.3026534,3.07479998 L31.3026534,3.46750001 L29.3093445,6.57793295 L31.3026534,6.57793295 L31.3026534,7.25113312 L28.3705603,7.25113312 M34.9901744,5.1691999 C34.990171,5.50164609 34.9494473,5.81954573 34.868004,6.1228999 C34.7865538,6.42625616 34.6708132,6.67143383 34.5207827,6.85843297 C34.2807252,7.17009973 33.9335039,7.32593278 33.4791174,7.32593343 C33.1747615,7.32593278 32.9239909,7.26567743 32.7268042,7.14516673 C32.5296161,7.02465537 32.366722,6.8355781 32.2381224,6.57793295 C32.1481015,6.39924503 32.0752276,6.1831565 32.0195013,5.92966656 C31.9637737,5.6720237 31.9359102,5.41853508 31.9359109,5.1691999 C31.9359102,4.82429122 31.9766339,4.50431377 32.0580813,4.20926662 C32.1438148,3.91422552 32.2595548,3.66697024 32.4053033,3.46750001 C32.5339028,3.30959283 32.6860798,3.19323741 32.8618348,3.11843336 C33.0418746,3.03948196 33.2562082,3.00000427 33.5048379,3 C33.7791832,3.00000427 34.0128076,3.06025975 34.2057109,3.18076664 C34.3986088,3.30128174 34.563646,3.49035927 34.7008231,3.74799996 C34.7908399,3.9350033 34.8615708,4.1531697 34.9130137,4.40249996 C34.9644506,4.65183586 34.990171,4.90740229 34.9901744,5.1691999 M34.3085913,5.1691999 C34.3085886,4.93233555 34.2871549,4.71416915 34.2442909,4.51469997 C34.2014215,4.31108069 34.137121,4.13862527 34.0513903,3.9973333 C33.982801,3.88929219 33.9034973,3.81033673 33.8134792,3.76046666 C33.727743,3.71060348 33.6205765,3.68151468 33.4919776,3.67319998 C33.3247954,3.66489244 33.185478,3.70229239 33.0740261,3.78539999 C32.9625709,3.86851447 32.8704069,4.00356987 32.797535,4.19056664 C32.7418067,4.31523623 32.69894,4.46691381 32.6689342,4.64559995 C32.643213,4.82013568 32.6303528,4.99466884 32.6303542,5.1691999 C32.6303528,5.39360175 32.6517865,5.60969042 32.6946546,5.81746655 C32.73752,6.02524557 32.8018204,6.19562313 32.8875553,6.32859987 C32.9561404,6.43664486 33.0375878,6.51767825 33.1318961,6.57169986 C33.2262017,6.62572278 33.3419417,6.65273391 33.4791174,6.65273326 C33.6377228,6.65273391 33.7684667,6.61117848 33.8713492,6.52806629 C33.9785143,6.44495607 34.0685345,6.30990081 34.1414105,6.1228999 C34.1628415,6.06887881 34.1842752,6.00446779 34.2057109,5.92966656 C34.2271419,5.85071241 34.2442882,5.76967915 34.2571511,5.68656657 C34.2742954,5.59930153 34.2871549,5.51203498 34.2957311,5.42476659 C34.3043019,5.33750182 34.3085886,5.25231301 34.3085913,5.1691999 M38.2718999,7.25113312 L36.625813,4.42119994 L36.625813,7.25113312 L35.9442299,7.25113312 L35.9442299,3.07479998 L36.625813,3.07479998 L38.1947399,5.74266657 L38.1947399,3.07479998 L38.876323,3.07479998 L38.876323,7.25113312 L38.2718999,7.25113312 M42.4400654,7.25113312 L42.0156835,6.07926653 L40.6718074,6.07926653 L40.2474254,7.25113312 L39.5208326,7.25113312 L41.0061691,3.07479998 L41.6813217,3.07479998 L43.1666589,7.25113312 L42.4400654,7.25113312 M41.3533904,4.23419995 L40.9097185,5.40606655 L41.7713426,5.40606655 L41.3533904,4.23419995" id="text5049" fill="#000000"></path>
            </g>
        </g>
    </g>
</svg>