<?xml version="1.0" encoding="UTF-8" standalone="no"?>
<svg width="40px" height="40px" viewBox="0 0 40 40" version="1.1" xmlns="http://www.w3.org/2000/svg" xmlns:xlink="http://www.w3.org/1999/xlink">
    <!-- Generator: Sketch 3.8.3 (29802) - http://www.bohemiancoding.com/sketch -->
    <title>US-AR-2</title>
    <desc>Created with Sketch.</desc>
    <defs></defs>
    <g id="Icons-{2}" stroke="none" stroke-width="1" fill="none" fill-rule="evenodd">
        <g id="US-AR-2">
            <g>
                <path d="M2.5,0 L37.5,0 C38.885,0 40,1.115 40,2.5 L40,37.5 C40,38.885 38.885,40 37.5,40 L2.5,40 C1.115,40 0,38.885 0,37.5 L0,2.5 C0,1.115 1.115,0 2.5,0 L2.5,0 Z" id="rect1872" fill="#000000"></path>
                <path d="M7.00783499,32.6388685 L5.22181476,32.6388685 L3.4357939,32.6388685 L3.4357939,23.1733613 L3.4357939,13.7078542 L2.74165772,8.50851094 C2.35988247,5.64887161 2.0368287,3.23960489 2.02376014,3.15458384 L2,3 L18.2948335,3 L34.5896683,3 L34.7991692,3.09801329 C35.1331942,3.25428474 35.2855262,3.45262823 35.3852056,3.86107222 C35.4593536,4.16489908 35.4641915,4.2399417 35.4250814,4.47940696 C35.4006013,4.62930581 35.3571854,4.92817536 35.3286047,5.14356172 C35.287459,5.45364429 35.2366879,5.62528681 35.0847413,5.96800888 C34.9023647,6.37935675 34.8921569,6.42130621 34.8790636,6.81306684 L34.8652873,7.09892519 L35.0226992,7.33865139 L35.1801111,7.452013 L36.7514203,7.452013 L38.3227295,7.452013 L38.3227295,8.45259496 L38.3227295,9.45317691 C38.230354,9.79038694 38.2109336,9.90155737 38.2109336,10.203272 L37.9582537,10.9428751 L37.5418063,11.9889093 C37.0596282,13.0303989 36.9957443,13.1935275 36.96966,13.4498638 C36.9297924,13.8417097 36.6439056,15.1351077 36.4934002,15.6045324 C36.4260229,15.8146923 36.3018792,16.2578475 36.2175272,16.5893225 C36.0583772,17.2147229 36.0792255,17.2971446 35.6140309,17.9877938 C35.5028529,18.152852 35.2607472,18.5166638 35.25985,18.7038044 C35.2595923,18.7579519 35.155377,19.1324416 34.8738485,19.6904451 C34.5915107,20.2500535 34.3380341,20.8066607 34.3085846,20.9317181 C34.2459985,21.1974831 33.2465336,23.0303285 32.4878001,24.2707296 C32.0555989,24.977307 31.9371144,25.2135658 31.5085448,26.2233945 C31.2022621,26.9450853 30.9990207,27.4815119 30.9619034,27.6661758 C30.9294099,27.8278474 30.8759523,28.0807042 30.8431132,28.2280777 C30.7978637,28.4311466 30.7832097,28.7682637 30.782583,29.6204645 L30.7817534,30.6185413 L30.9188085,31.1663029 C30.994191,31.3980694 31.0936202,31.7440637 31.1397631,31.9351784 C31.1859104,32.1262932 31.2500635,32.4620393 31.2823271,32.5268394 C31.3321851,32.6269838 31.33923,32.8138464 31.3292756,34.4873579 L31.3175596,36.3300535 L31.1856008,36.7263601 C31.1130166,36.8748266 30.9746044,37.090134 30.8780039,37.2048231 C30.7814084,37.3195122 30.7023745,37.4255895 30.7023745,37.4405574 C30.7023745,37.4787387 30.5956901,37.5853593 30.5563772,37.586465 C30.538446,37.5869642 30.4791226,37.6236543 30.4245492,37.6679895 C30.3265997,37.747568 30.1759711,37.7486169 18.6665798,37.7495204 L7.00783499,37.7504365 L7.00783499,35.1946493 L7.00783499,32.6388685 Z" id="path3797" fill="#FFFFFF"></path>
            </g>
        </g>
    </g>
</svg>