<?xml version="1.0" encoding="UTF-8" standalone="no"?>
<svg width="60px" height="40px" viewBox="0 0 60 40" version="1.1" xmlns="http://www.w3.org/2000/svg" xmlns:xlink="http://www.w3.org/1999/xlink">
    <!-- Generator: Sketch 3.8.3 (29802) - http://www.bohemiancoding.com/sketch -->
    <title>US-AK-3</title>
    <desc>Created with Sketch.</desc>
    <defs></defs>
    <g id="Icons-{3}" stroke="none" stroke-width="1" fill="none" fill-rule="evenodd">
        <g id="US-AK-3">
            <g id="Shape">
                <path d="M0,2.5 C0,1.11928304 1.67892456,0 3.75,0 L56.25,0 C58.3210754,0 60,1.11928304 60,2.5 L60,37.5 C60,38.880717 58.3210754,40 56.25,40 L3.75,40 C1.67892456,40 0,38.880717 0,37.5 L0,2.5 L0,2.5 L0,2.5 Z" fill="#000000"></path>
                <path d="M3.175,1.25 L57.075,1.25 C58.1380737,1.25 59,1.80964152 59,2.5 L59,37.5 C59,38.1903076 58.1380737,38.75 57.075,38.75 L3.175,38.75 C2.11184794,38.75 1.25,38.1903076 1.25,37.5 L1.25,2.5 C1.25,1.80964152 2.11184794,1.25 3.175,1.25 Z" fill="#FFFFFF"></path>
                <polygon fill="#000000" points="24.230957 31.0182699 23.31014 30.3491211 24.4483439 30.3491211 24.8000081 29.2666626 25.1516724 30.3492228 26.2897746 30.3492228 25.3690592 31.0182699 25.7207235 32.1007284 24.8000081 31.4316813 23.8792928 32.1007284"></polygon>
                <polygon fill="#000000" points="22.5642904 35.1849365 21.6434733 34.5157878 22.7816773 34.5157878 23.1333415 33.4333293 23.4850057 34.5158895 24.6231079 34.5158895 23.7023926 35.1849365 24.0540568 36.267395 23.1333415 35.598348 22.2126261 36.267395"></polygon>
                <polygon fill="#000000" points="16.2976074 34.2681885 15.3767904 33.5991414 16.5149943 33.5992432 16.8666585 32.5166829 17.2183227 33.5992432 18.3564758 33.5992432 17.4357096 34.2681885 17.7874247 35.3507487 16.8666585 34.6817017 15.9459432 35.3507487"></polygon>
                <polygon fill="#000000" points="16.2976074 29.7849528 15.3767904 29.115804 16.5149943 29.115804 16.8666585 28.0333455 17.2183227 29.115804 18.3564758 29.115804 17.4357096 29.7849528 17.7874247 30.8674113 16.8666585 30.1983643 15.9459432 30.8674113"></polygon>
                <polygon fill="#000000" points="13.3809408 27.068278 12.4601237 26.3991292 13.5983276 26.3991292 13.9499919 25.3166707 14.3017069 26.3991292 15.4398092 26.399231 14.519043 27.068278 14.8707581 28.1507365 13.9499919 27.4816895 13.0292765 28.1507365"></polygon>
                <polygon fill="#000000" points="9.11427816 24.8849487 8.1934611 24.2158 9.33166504 24.2159017 9.68332926 23.1333415 10.0349935 24.2159017 11.1731466 24.2159017 10.2523804 24.884847 10.6040955 25.9674072 9.68332926 25.2983602 8.76261394 25.9674072"></polygon>
                <polygon fill="#000000" points="4.31427002 23.7349447 3.39345296 23.0657959 4.53165691 23.0657959 4.88332113 21.9833374 5.23503622 23.0657959 6.37313843 23.0658976 5.45237223 23.7349447 5.80413819 24.8174032 4.88332113 24.1483561 3.96260579 24.8174032"></polygon>
                <polygon fill="#000000" points="51.1586711 6.96172078 49.6892497 5.89411418 51.5054525 5.89411418 52.0666707 4.16681925 52.627889 5.89411418 54.4438883 5.89416504 52.9746704 6.96172078 53.5358887 8.68906657 52.0666707 7.62151082 50.5974528 8.68906657"></polygon>
                <path d="M28.2143555,9.11326091 L27.4064534,9.11326091 L27.2967936,7.71087647 L25.7724406,7.71087647 L24.936971,9.11326091 L24.1289673,9.11326091 L27.068217,4.23533122 L27.7999268,4.23533122 L28.2143555,9.11326091 L28.2143555,9.11326091 Z M27.2273153,6.94864909 L27.1006673,5.52342733 L26.2440898,6.94864909 L27.2273153,6.94864909 L27.2273153,6.94864909 Z M31.5633545,9.11326091 L28.5908407,9.11326091 L29.8532003,4.23533122 L30.6154276,4.23533122 L29.5502624,8.35113525 L31.7605998,8.35113525 L31.5633545,9.11326091 L31.5633545,9.11326091 Z M36.0252279,9.11326091 L35.217275,9.11326091 L35.107666,7.71087647 L33.583313,7.71087647 L32.7477417,9.11326091 L31.9398905,9.11326091 L34.8790893,4.23533122 L35.6107991,4.23533122 L36.0252279,9.11326091 L36.0252279,9.11326091 Z M35.0381368,6.94864909 L34.9116414,5.52342733 L34.0549113,6.94864909 L35.0381368,6.94864909 L35.0381368,6.94864909 Z M40.0538534,7.66515096 C39.9512634,8.06152344 39.7100728,8.40443929 39.3187358,8.7093099 C38.9273478,9.01423136 38.5143433,9.16666667 38.0646667,9.16666667 C37.4778137,9.16666667 37.0833232,8.95324707 36.866038,8.52640787 C36.796814,8.38165283 36.7529704,8.16823323 36.7288106,7.87857055 L37.5120951,7.64989217 C37.5092977,7.74902344 37.5124512,7.82516479 37.5215047,7.87857055 C37.6060384,8.22916667 37.8523153,8.39686075 38.2639465,8.39686075 C38.4773153,8.39686075 38.6856486,8.32824706 38.898407,8.18344116 C39.1111654,8.03858439 39.2404582,7.86331176 39.2955933,7.64989217 C39.3784994,7.32976277 39.2491048,7.09350585 38.8941854,6.93339029 C38.5542196,6.80389403 38.221934,6.67434692 37.8915812,6.53711954 C37.5523783,6.31607055 37.4410401,5.98068236 37.5593974,5.52342732 C37.6382853,5.21850585 37.8255615,4.93647257 38.1328736,4.66206868 C38.509257,4.32678223 38.9242452,4.16666667 39.3967082,4.16666667 C39.8540649,4.16666667 40.176534,4.33436076 40.3793742,4.66974894 C40.4488525,4.78403727 40.504598,4.95173136 40.5521037,5.18035889 L39.7688192,5.40903727 C39.7430827,5.30232747 39.717041,5.22613525 39.685201,5.17278035 C39.5817464,5.01271566 39.4185791,4.93647257 39.1975301,4.93647257 C38.9993693,4.93647257 38.8158569,4.99745686 38.6470947,5.11942546 C38.4783325,5.24139405 38.3742676,5.37857056 38.3328654,5.53863526 C38.2736613,5.76726278 38.4188741,5.94258627 38.7837117,6.06455485 C39.3497111,6.26271567 39.6801147,6.39994304 39.780365,6.48376466 C40.1096496,6.7428589 40.2052205,7.13923137 40.0632121,7.68803916 L40.0538534,7.66515096 L40.0538534,7.66515096 Z M43.4091593,9.11326091 L42.5478516,9.11326091 L41.9127808,6.79631551 L41.263265,7.42121378 L40.8253377,9.1132609 L40.0632121,9.1132609 L41.3255208,4.23533122 L42.0877482,4.23533122 L41.5867513,6.17126465 L43.5815837,4.23533122 L44.5496012,4.23533122 L42.5970866,6.12553915 L43.4167887,9.11326091 L43.4091593,9.11326091 L43.4091593,9.11326091 Z M47.8710327,9.11326091 L47.0631307,9.11326091 L46.9534709,7.71087647 L45.4292196,7.71087647 L44.5936483,9.11326091 L43.7856445,9.11326091 L46.7248942,4.23533122 L47.456604,4.23533122 L47.8710327,9.11326091 L47.8710327,9.11326091 Z M46.8838908,6.94864909 L46.7574463,5.52342733 L45.9007161,6.94864909 L46.8838908,6.94864909 L46.8838908,6.94864909 Z" fill="#000000"></path>
            </g>
        </g>
    </g>
</svg>