<?xml version="1.0" encoding="UTF-8" standalone="no"?>
<svg width="40px" height="40px" viewBox="0 0 40 40" version="1.1" xmlns="http://www.w3.org/2000/svg" xmlns:xlink="http://www.w3.org/1999/xlink">
    <!-- Generator: Sketch 3.8.3 (29802) - http://www.bohemiancoding.com/sketch -->
    <title>US-AL-2</title>
    <desc>Created with Sketch.</desc>
    <defs></defs>
    <g id="Icons-{2}" stroke="none" stroke-width="1" fill="none" fill-rule="evenodd">
        <g id="US-AL-2">
            <g>
                <path d="M2.56148034,0.0665319395 L37.4907486,0.0665319395 C38.8729496,0.0665319395 39.9856963,1.17927863 39.9856963,2.56147967 L39.9856963,37.4907479 C39.9856963,38.8729489 38.8729496,39.9856956 37.4907486,39.9856956 L2.56148034,39.9856956 C1.17927929,39.9856956 0.0665326048,38.8729489 0.0665326048,37.4907479 L0.0665326048,2.56147967 C0.0665326048,1.17927863 1.17927929,0.0665319395 2.56148034,0.0665319395 L2.56148034,0.0665319395 Z" id="rect1877" fill="#000000"></path>
                <path d="M9.2457948,36.3047963 C9.37376025,36.0643911 9.62115921,35.9689772 10.4340631,35.84651 C11.2411592,35.7249268 11.4766149,35.6586752 11.4766149,35.5531772 C11.4766149,35.4493847 10.7184322,34.422605 10.4471521,34.1590166 C10.2199331,33.9382369 10.1816706,33.8612914 10.0990022,33.4588908 C9.861581,32.3032068 9.3858581,31.6360248 8.80855874,31.6491001 C8.10320917,31.665081 7.56853729,32.7364103 7.46872337,34.3337529 C7.4234312,35.0585726 7.38942714,35.2577969 7.26130192,35.5490195 C7.12560047,35.8574694 7.06785786,35.9042305 6.82118308,35.9054537 C6.6920538,35.9060949 6.57481496,35.8451929 6.41691119,35.6954636 C6.12023815,35.4141418 6.00081844,35.3764474 5.39103293,35.3716676 C4.97152336,35.3683813 4.84486133,35.3459268 4.72905612,35.2543401 C4.65029206,35.1920456 4.46526655,35.1244659 4.31788684,35.1041517 C4.17050713,35.0838433 4.0477309,35.0377471 4.04505148,35.0017227 C4.0423709,34.9656926 4.03251582,34.8700723 4.02315235,34.7892282 C4.01378771,34.7083836 3.9874451,34.3289314 3.9646109,33.9460045 C3.94177785,33.5630711 3.91498945,33.1794265 3.90507988,33.0934613 C3.8951709,33.0074903 3.86963408,32.6196532 3.84833322,32.2315993 C3.82703061,31.8435448 3.79881611,31.3937552 3.78563466,31.2320665 C3.77245321,31.0703767 3.74758133,30.7198056 3.73036336,30.453019 C3.71314481,30.1862312 3.68496858,29.7496712 3.66775003,29.4828833 C3.65053263,29.2160961 3.62550655,28.8655251 3.61213611,28.7038358 C3.59876742,28.5421465 3.5723935,28.1585019 3.55352916,27.8512932 C3.53466423,27.5440834 3.50795118,27.1604387 3.4941651,26.99875 C3.48038017,26.8370602 3.45266539,26.4162631 3.43257669,26.0636457 C3.412488,25.7110335 3.37739756,25.1686399 3.35459988,24.8583257 C3.30970365,24.2472648 3.26856278,24.5434498 3.98422539,20.325397 C4.1460822,19.3714301 4.41253032,17.7971663 4.5763309,16.8270307 C4.74013322,15.8568962 5.1765251,13.2772183 5.54609264,11.0944143 C5.91565844,8.91161051 6.34919699,6.34516218 6.50950946,5.39119546 C6.66982308,4.43722932 6.81565033,3.58395153 6.83357091,3.49502255 L6.86615525,3.33333333 L19.8972307,3.33333333 L32.9283066,3.33333333 L32.9943165,3.64201264 C33.0306185,3.8117862 33.3895038,5.52495651 33.7918307,7.44905823 C34.1941646,9.37315943 34.9579333,13.0243952 35.4891049,15.5629153 C36.0202719,18.1014353 36.4904684,20.3636144 36.5339826,20.5899791 C36.7283745,21.6011419 36.7090174,22.2351106 36.4769014,22.4598874 C36.3265901,22.6054428 36.1743896,23.0325785 36.1166139,23.470986 C36.0953043,23.6326753 36.0292777,23.8571761 35.9698806,23.9698822 C35.8237797,24.2471234 35.8349206,24.5012927 36.0176052,25.0584799 C36.1508754,25.4649547 36.1754898,25.6566358 36.198793,26.4695848 C36.2209327,27.2416364 36.2062661,27.4999332 36.1169994,27.9100886 C36.0295461,28.3119187 36.0117513,28.6027007 36.0262012,29.3939251 C36.0441594,30.3773888 36.0440777,30.3780822 35.8972104,30.5257488 C35.8161072,30.6072874 35.6769948,30.6762607 35.5867809,30.6796596 C35.4968707,30.6830462 30.6010794,30.6809291 24.7072405,30.67495 L13.991164,30.6640839 L13.9838758,30.8010845 C13.9398529,31.6286282 14.0651072,31.9869552 14.6366098,32.668419 C15.2154135,33.3585906 15.2692993,34.1524845 14.7728142,34.6751047 C14.6590468,34.7948549 14.5026115,35.071296 14.4070515,35.3214445 L14.2400779,35.7585349 L13.0776385,36.1870989 L11.915199,36.6156572 L10.6865886,36.6493413 C9.51863665,36.6813621 9.45085631,36.677223 9.31373445,36.5655865 C9.18385109,36.4598415 9.17708773,36.4338775 9.2457948,36.3047963 Z" id="path1483" fill="#FFFFFF"></path>
            </g>
        </g>
    </g>
</svg>