<?xml version="1.0" encoding="UTF-8" standalone="no"?>
<svg width="60px" height="40px" viewBox="0 0 60 40" version="1.1" xmlns="http://www.w3.org/2000/svg" xmlns:xlink="http://www.w3.org/1999/xlink">
    <!-- Generator: Sketch 3.8.3 (29802) - http://www.bohemiancoding.com/sketch -->
    <title>US-AL-3</title>
    <desc>Created with Sketch.</desc>
    <defs></defs>
    <g id="Icons-{3}" stroke="none" stroke-width="1" fill="none" fill-rule="evenodd">
        <g id="US-AL-3">
            <g>
                <path d="M3.81237432,0.0665319395 L56.2541583,0.0665319395 C58.3293546,0.0665319395 60,1.17927863 60,2.56147967 L60,37.4907479 C60,38.8729489 58.3293546,39.9856956 56.2541583,39.9856956 L3.81237432,39.9856956 C1.73717801,39.9856956 0.0665326048,38.8729489 0.0665326048,37.4907479 L0.0665326048,2.56147967 C0.0665326048,1.17927863 1.73717801,0.0665319395 3.81237432,0.0665319395 L3.81237432,0.0665319395 Z" id="rect1877" fill="#000000"></path>
                <path d="M12.6750224,36.3047963 C12.8772079,36.0643911 13.2680982,35.9689772 14.5524864,35.84651 C15.8276981,35.7249268 16.1997182,35.6586752 16.1997182,35.5531772 C16.1997182,35.4493847 15.0017895,34.422605 14.573167,34.1590166 C14.2141609,33.9382369 14.1537063,33.8612914 14.0230901,33.4588908 C13.6479647,32.3032068 12.8963225,31.6360248 11.9841895,31.6491001 C10.8697372,31.665081 10.0249556,32.7364103 9.86724959,34.3337529 C9.79568796,35.0585726 9.74196155,35.2577969 9.5395237,35.5490195 C9.32511541,35.8574694 9.23388209,35.9042305 8.84413593,35.9054537 C8.64011168,35.9060949 8.45487431,35.8451929 8.20538635,35.6954636 C7.73664294,35.4141418 7.5479598,35.3764474 6.5844987,35.3716676 C5.92167358,35.3683813 5.72154758,35.3459268 5.53857533,35.2543401 C5.41412812,35.1920456 5.12178782,35.1244659 4.88892787,35.1041517 C4.65606793,35.0838433 4.46208148,35.0377471 4.457848,35.0017227 C4.45361268,34.9656926 4.43804167,34.8700723 4.42324737,34.7892282 C4.40845125,34.7083836 4.36682992,34.3289314 4.33075188,33.9460045 C4.29467567,33.5630711 4.25234999,33.1794265 4.23669288,33.0934613 C4.22103668,33.0074903 4.18068852,32.6196532 4.14703315,32.2315993 C4.11337502,31.8435448 4.06879613,31.3937552 4.04796944,31.2320665 C4.02714275,31.0703767 3.98784517,30.7198056 3.96064077,30.453019 C3.93343546,30.1862312 3.88891702,29.7496712 3.86171171,29.4828833 C3.83450823,29.2160961 3.79496701,28.8655251 3.77384172,28.7038358 C3.75271919,28.5421465 3.7110484,28.1585019 3.68124273,27.8512932 C3.65143615,27.5440834 3.60922954,27.1604387 3.58744752,26.99875 C3.56566734,26.8370602 3.52187798,26.4162631 3.49013784,26.0636457 C3.4583977,25.7110335 3.40295481,25.1686399 3.36693448,24.8583257 C3.29599843,24.2472648 3.23099586,24.5434498 4.36174278,20.325397 C4.61747655,19.3714301 5.03846457,17.7971663 5.29726949,16.8270307 C5.55607715,15.8568962 6.24557633,13.2772183 6.82949304,11.0944143 C7.413407,8.91161051 8.09839791,6.34516218 8.35169161,5.39119546 C8.60498713,4.43722932 8.83539418,3.58395153 8.8637087,3.49502255 L8.91519197,3.33333333 L29.5042912,3.33333333 L50.0933912,3.33333333 L50.1976867,3.64201264 C50.2550439,3.8117862 50.8220826,5.52495651 51.4577592,7.44905823 C52.0934468,9.37315943 53.3002013,13.0243952 54.1394524,15.5629153 C54.9786962,18.1014353 55.7216067,20.3636144 55.7903592,20.5899791 C56.0974984,21.6011419 56.0669141,22.2351106 55.7001709,22.4598874 C55.4626791,22.6054428 55.2222022,23.0325785 55.1309166,23.470986 C55.0972475,23.6326753 54.9929254,23.8571761 54.899078,23.9698822 C54.6682386,24.2471234 54.6858412,24.5012927 54.9744829,25.0584799 C55.1850497,25.4649547 55.2239406,25.6566358 55.2607597,26.4695848 C55.2957404,27.2416364 55.2725671,27.4999332 55.1315257,27.9100886 C54.9933495,28.3119187 54.9652337,28.6027007 54.9880645,29.3939251 C55.0164385,30.3773888 55.0163094,30.3780822 54.7842591,30.5257488 C54.6561161,30.6072874 54.4363184,30.6762607 54.2937804,30.6796596 C54.1517224,30.6830462 46.4163721,30.6809291 37.1041067,30.67495 L20.1727058,30.6640839 L20.1611904,30.8010845 C20.0916343,31.6286282 20.289536,31.9869552 21.1925101,32.668419 C22.1070201,33.3585906 22.1921595,34.1524845 21.4077132,34.6751047 C21.2279606,34.7948549 20.9807929,35.071296 20.829808,35.3214445 L20.5659897,35.7585349 L18.7293355,36.1870989 L16.8926811,36.6156572 L14.9514767,36.6493413 C13.1061126,36.6813621 12.9990196,36.677223 12.7823671,36.5655865 C12.5771514,36.4598415 12.5664653,36.4338775 12.6750224,36.3047963 Z" id="path1483" fill="#FFFFFF"></path>
            </g>
        </g>
    </g>
</svg>