<?xml version="1.0" encoding="UTF-8" standalone="no"?>
<svg width="40px" height="40px" viewBox="0 0 40 40" version="1.1" xmlns="http://www.w3.org/2000/svg" xmlns:xlink="http://www.w3.org/1999/xlink">
    <!-- Generator: Sketch 3.8.3 (29802) - http://www.bohemiancoding.com/sketch -->
    <title>US-AZ-2</title>
    <desc>Created with Sketch.</desc>
    <defs></defs>
    <g id="Icons-{2}" stroke="none" stroke-width="1" fill="none" fill-rule="evenodd">
        <g id="US-AZ-2">
            <g>
                <rect id="Rectangle-41" fill="#000000" x="0" y="0" width="40" height="40" rx="2"></rect>
                <path d="M24.9732013,38.7030733 C24.970024,38.6955967 19.6404573,37.4728813 13.1297253,35.98593 L1.29203093,33.282382 L1.2876748,19.9701947 L1.28331867,6.65800607 L4.40854267,6.66243407 L7.53377333,6.666862 L7.53377333,3.97509367 L7.53377333,1.28332587 L23.1208747,1.28332587 L38.7079827,1.28332587 L38.712332,19.9999993 L38.7166813,38.716674 L31.847832,38.716674 C28.0699633,38.716674 24.976378,38.71055 24.9732013,38.7030733 L24.9732013,38.7030733 Z" id="path3281" stroke="#000000"></path>
                <path d="M24.982054,38.7363753 C24.9788713,38.7288853 19.6398173,37.5039927 13.1174953,36.0143933 L1.2587278,33.306032 L1.25436393,19.9701413 L1.25,6.63425013 L4.3807874,6.638686 L7.51158133,6.64312193 L7.51158133,3.9465606 L7.51158133,1.25 L23.12643,1.25 L38.7412853,1.25 L38.7456427,19.9999993 L38.75,38.75 L31.8689227,38.75 C28.0843293,38.75 24.9852367,38.7438653 24.982054,38.7363753 L24.982054,38.7363753 Z" id="path4166" fill="#FFFFFF"></path>
                <path d="M13.9608971,7.42519953 L13.5365151,6.25333293 L12.192639,6.25333293 L11.768257,7.42519953 L11.0416642,7.42519953 L12.5270007,3.24886639 L13.2021533,3.24886639 L14.6874899,7.42519953 L13.9608971,7.42519953 M12.874222,4.40826635 L12.4305501,5.58013295 L13.2921742,5.58013295 L12.874222,4.40826635 M17.5319739,7.42519953 L16.8375306,5.60506628 L16.0209169,5.60506628 L16.0209169,7.42519953 L15.3393339,7.42519953 L15.3393339,3.24886639 L16.7603706,3.24886639 C16.9275488,3.24887059 17.0711529,3.25925948 17.1911824,3.28003306 C17.3112071,3.29665944 17.424804,3.32990385 17.5319739,3.37976637 C17.6262781,3.42548149 17.7120116,3.48573697 17.789175,3.56053308 C17.870619,3.63118126 17.9392055,3.71429233 17.9949358,3.80986636 C18.0549462,3.90129213 18.0999566,4.00102537 18.1299665,4.10906636 C18.1642564,4.21295849 18.1814033,4.31684721 18.1814067,4.42073305 C18.1814033,4.53293588 18.1642564,4.64305802 18.1299665,4.75109966 C18.0999566,4.85499114 18.0549462,4.95472438 17.9949358,5.05029966 C17.9392055,5.14172418 17.8684753,5.22483518 17.7827452,5.299633 C17.7012951,5.37443502 17.6112749,5.43261276 17.5126839,5.47416629 L18.2714269,7.42519953 L17.5319739,7.42519953 M17.4998237,4.42073305 C17.499821,4.33346945 17.4762442,4.25035845 17.4290935,4.17139971 C17.3819373,4.09244746 17.3154938,4.03011418 17.2297624,3.98439972 C17.1740334,3.95531426 17.1225932,3.93661428 17.0754417,3.92829971 C17.0282862,3.91583656 16.9489825,3.90960321 16.8375306,3.90959973 L16.0209169,3.90959973 L16.0209169,4.9318663 L16.8375306,4.9318663 C16.9446958,4.93186879 17.0218558,4.92771325 17.0690119,4.91939967 C17.1204494,4.91109108 17.1740334,4.8923911 17.2297624,4.86329966 C17.3154938,4.81759118 17.3819373,4.75525789 17.4290935,4.67629967 C17.4762442,4.59319143 17.499821,4.50800262 17.4998237,4.42073305 M18.9939009,7.42519953 L18.9939009,3.24886639 L19.6883442,3.24886639 L19.6883442,7.42519953 L18.9939009,7.42519953 M20.4122245,7.42519953 L20.4122245,6.87043323 L22.379813,3.90959973 L20.5794054,3.90959973 L20.5794054,3.24886639 L23.3443176,3.24886639 L23.3443176,3.64156641 L21.3510087,6.75199935 L23.3443176,6.75199935 L23.3443176,7.42519953 L20.4122245,7.42519953 M27.0318386,5.3432663 C27.0318352,5.67571249 26.9911115,5.99361214 26.9096682,6.2969663 C26.8282181,6.60032256 26.7124774,6.84550023 26.5624469,7.03249937 C26.3223894,7.34416613 25.9751681,7.49999918 25.5207816,7.49999984 C25.2164257,7.49999918 24.9656551,7.43974383 24.7684684,7.31923313 C24.5712803,7.19872177 24.4083862,7.0096445 24.2797866,6.75199935 C24.1897658,6.57331143 24.1168918,6.3572229 24.0611656,6.10373296 C24.0054379,5.84609011 23.9775744,5.59260148 23.9775751,5.3432663 C23.9775744,4.99835762 24.0182981,4.67838017 24.0997455,4.38333303 C24.185479,4.08829192 24.301219,3.84103664 24.4469675,3.64156641 C24.575567,3.48365923 24.727744,3.36730381 24.903499,3.29249976 C25.0835388,3.21354837 25.2978724,3.17407067 25.5465021,3.1740664 C25.8208474,3.17407067 26.0544718,3.23432615 26.2473751,3.35483305 C26.4402731,3.47534814 26.6053102,3.66442568 26.7424873,3.92206636 C26.8325041,4.1090697 26.903235,4.32723611 26.9546779,4.57656636 C27.0061148,4.82590227 27.0318352,5.08146869 27.0318386,5.3432663 M26.3502556,5.3432663 C26.3502529,5.10640196 26.3288191,4.88823555 26.2859551,4.68876637 C26.2430857,4.48514709 26.1787852,4.31269167 26.0930545,4.17139971 C26.0244653,4.06335859 25.9451616,3.98440313 25.8551434,3.93453306 C25.7694072,3.88466988 25.6622407,3.85558108 25.5336419,3.84726638 C25.3664596,3.83895884 25.2271422,3.8763588 25.1156903,3.95946639 C25.0042351,4.04258087 24.9120712,4.17763627 24.8391993,4.36463305 C24.783471,4.48930264 24.7406042,4.64098021 24.7105984,4.81966636 C24.6848773,4.99420208 24.672017,5.16873524 24.6720184,5.3432663 C24.672017,5.56766816 24.6934507,5.78375682 24.7363188,5.99153296 C24.7791842,6.19931198 24.8434846,6.36968953 24.9292195,6.50266627 C24.9978046,6.61071126 25.079252,6.69174466 25.1735603,6.74576626 C25.2678659,6.79978919 25.3836059,6.82680032 25.5207816,6.82679966 C25.679387,6.82680032 25.8101309,6.78524488 25.9130134,6.7021327 C26.0201785,6.61902248 26.1101987,6.48396721 26.1830747,6.2969663 C26.2045057,6.24294522 26.2259394,6.17853419 26.2473751,6.10373296 C26.2688061,6.02477881 26.2859524,5.94374555 26.2988153,5.86063297 C26.3159596,5.77336793 26.3288191,5.68610138 26.3373953,5.598833 C26.3459661,5.51156822 26.3502529,5.42637941 26.3502556,5.3432663 M30.3135641,7.42519953 L28.6674772,4.59526634 L28.6674772,7.42519953 L27.9858941,7.42519953 L27.9858941,3.24886639 L28.6674772,3.24886639 L30.2364042,5.91673297 L30.2364042,3.24886639 L30.9179872,3.24886639 L30.9179872,7.42519953 L30.3135641,7.42519953 M34.4817297,7.42519953 L34.0573477,6.25333293 L32.7134716,6.25333293 L32.2890896,7.42519953 L31.5624968,7.42519953 L33.0478333,3.24886639 L33.7229859,3.24886639 L35.2083231,7.42519953 L34.4817297,7.42519953 M33.3950546,4.40826635 L32.9513827,5.58013295 L33.8130068,5.58013295 L33.3950546,4.40826635" id="text5049" fill="#000000"></path>
            </g>
        </g>
    </g>
</svg>