<?xml version="1.0" encoding="UTF-8" standalone="no"?>
<svg width="40px" height="40px" viewBox="0 0 40 40" version="1.1" xmlns="http://www.w3.org/2000/svg" xmlns:xlink="http://www.w3.org/1999/xlink">
    <!-- Generator: Sketch 3.8.3 (29802) - http://www.bohemiancoding.com/sketch -->
    <title>US-AK-2</title>
    <desc>Created with Sketch.</desc>
    <defs></defs>
    <g id="Icons-{2}" stroke="none" stroke-width="1" fill="none" fill-rule="evenodd">
        <g id="US-AK-2">
            <g id="Layer_1">
                <g>
                    <g id="Group">
                        <g id="Shape" fill="#000000">
                            <path d="M0,2.5 C0,1.11928304 1.11928304,0 2.5,0 L37.5,0 C38.880717,0 40,1.11928304 40,2.5 L40,37.5 C40,38.880717 38.880717,40 37.5,40 L2.5,40 C1.11928304,40 0,38.880717 0,37.5 L0,2.5 L0,2.5 L0,2.5 Z"></path>
                        </g>
                        <g transform="translate(1.250000, 1.250000)" id="Shape" fill="#FFFFFF">
                            <path d="M1.25,0 L36.25,0 C36.9403076,0 37.5,0.559641521 37.5,1.25 L37.5,36.25 C37.5,36.9403076 36.9403076,37.5 36.25,37.5 L1.25,37.5 C0.559641521,37.5 0,36.9403076 0,36.25 L0,1.25 C0,0.559641521 0.559641521,0 1.25,0 Z"></path>
                        </g>
                        <polygon id="Shape" fill="#000000" points="24.230957 31.0182699 23.31014 30.3491211 24.4483439 30.3491211 24.8000081 29.2666626 25.1516724 30.3492228 26.2897746 30.3492228 25.3690592 31.0182699 25.7207235 32.1007284 24.8000081 31.4316813 23.8792928 32.1007284"></polygon>
                        <polygon id="Shape" fill="#000000" points="22.5642904 35.1849365 21.6434733 34.5157878 22.7816773 34.5157878 23.1333415 33.4333293 23.4850057 34.5158895 24.6231079 34.5158895 23.7023926 35.1849365 24.0540568 36.267395 23.1333415 35.598348 22.2126261 36.267395"></polygon>
                        <polygon id="Shape" fill="#000000" points="16.2976074 34.2681885 15.3767904 33.5991414 16.5149943 33.5992432 16.8666585 32.5166829 17.2183227 33.5992432 18.3564758 33.5992432 17.4357096 34.2681885 17.7874247 35.3507487 16.8666585 34.6817017 15.9459432 35.3507487"></polygon>
                        <polygon id="Shape" fill="#000000" points="16.2976074 29.7849528 15.3767904 29.115804 16.5149943 29.115804 16.8666585 28.0333455 17.2183227 29.115804 18.3564758 29.115804 17.4357096 29.7849528 17.7874247 30.8674113 16.8666585 30.1983643 15.9459432 30.8674113"></polygon>
                        <polygon id="Shape" fill="#000000" points="13.3809408 27.068278 12.4601237 26.3991292 13.5983276 26.3991292 13.9499919 25.3166707 14.3017069 26.3991292 15.4398092 26.399231 14.519043 27.068278 14.8707581 28.1507365 13.9499919 27.4816895 13.0292765 28.1507365"></polygon>
                        <polygon id="Shape" fill="#000000" points="9.11427816 24.8849487 8.1934611 24.2158 9.33166504 24.2159017 9.68332926 23.1333415 10.0349935 24.2159017 11.1731466 24.2159017 10.2523804 24.884847 10.6040955 25.9674072 9.68332926 25.2983602 8.76261394 25.9674072"></polygon>
                        <polygon id="Shape" fill="#000000" points="4.31427002 23.7349447 3.39345296 23.0657959 4.53165691 23.0657959 4.88332113 21.9833374 5.23503622 23.0657959 6.37313843 23.0658976 5.45237223 23.7349447 5.80413819 24.8174032 4.88332113 24.1483561 3.96260579 24.8174032"></polygon>
                        <polygon id="Shape" fill="#000000" points="33.1586711 6.96172078 31.6892497 5.89411418 33.5054525 5.89411418 34.0666707 4.16681925 34.627889 5.89411418 36.4438883 5.89416504 34.9746704 6.96172078 35.5358887 8.68906657 34.0666707 7.62151082 32.5974528 8.68906657"></polygon>
                        <path d="M7.21435547,9.11326091 L6.40645345,9.11326091 L6.29679361,7.71087647 L4.77244059,7.71087647 L3.93697103,9.11326091 L3.12896729,9.11326091 L6.06821697,4.23533122 L6.79992677,4.23533122 L7.21435547,9.11326091 L7.21435547,9.11326091 Z M6.22731527,6.94864909 L6.10066732,5.52342733 L5.24408977,6.94864909 L6.22731527,6.94864909 L6.22731527,6.94864909 Z M10.5633545,9.11326091 L7.59084066,9.11326091 L8.85320027,4.23533122 L9.61542765,4.23533122 L8.55026245,8.35113525 L10.7605998,8.35113525 L10.5633545,9.11326091 L10.5633545,9.11326091 Z M15.0252279,9.11326091 L14.217275,9.11326091 L14.107666,7.71087647 L12.583313,7.71087647 L11.7477417,9.11326091 L10.9398905,9.11326091 L13.8790893,4.23533122 L14.6107991,4.23533122 L15.0252279,9.11326091 L15.0252279,9.11326091 Z M14.0381368,6.94864909 L13.9116414,5.52342733 L13.0549113,6.94864909 L14.0381368,6.94864909 L14.0381368,6.94864909 Z M19.0538534,7.66515096 C18.9512634,8.06152344 18.7100728,8.40443929 18.3187358,8.7093099 C17.9273478,9.01423136 17.5143433,9.16666667 17.0646667,9.16666667 C16.4778137,9.16666667 16.0833232,8.95324707 15.866038,8.52640787 C15.796814,8.38165283 15.7529704,8.16823323 15.7288106,7.87857055 L16.5120951,7.64989217 C16.5092977,7.74902344 16.5124512,7.82516479 16.5215047,7.87857055 C16.6060384,8.22916667 16.8523153,8.39686075 17.2639465,8.39686075 C17.4773153,8.39686075 17.6856486,8.32824706 17.898407,8.18344116 C18.1111654,8.03858439 18.2404582,7.86331176 18.2955933,7.64989217 C18.3784994,7.32976277 18.2491048,7.09350585 17.8941854,6.93339029 C17.5542196,6.80389403 17.221934,6.67434692 16.8915812,6.53711954 C16.5523783,6.31607055 16.4410401,5.98068236 16.5593974,5.52342732 C16.6382853,5.21850585 16.8255615,4.93647257 17.1328736,4.66206868 C17.509257,4.32678223 17.9242452,4.16666667 18.3967082,4.16666667 C18.8540649,4.16666667 19.176534,4.33436076 19.3793742,4.66974894 C19.4488525,4.78403727 19.504598,4.95173136 19.5521037,5.18035889 L18.7688192,5.40903727 C18.7430827,5.30232747 18.717041,5.22613525 18.685201,5.17278035 C18.5817464,5.01271566 18.4185791,4.93647257 18.1975301,4.93647257 C17.9993693,4.93647257 17.8158569,4.99745686 17.6470947,5.11942546 C17.4783325,5.24139405 17.3742676,5.37857056 17.3328654,5.53863526 C17.2736613,5.76726278 17.4188741,5.94258627 17.7837117,6.06455485 C18.3497111,6.26271567 18.6801147,6.39994304 18.780365,6.48376466 C19.1096496,6.7428589 19.2052205,7.13923137 19.0632121,7.68803916 L19.0538534,7.66515096 L19.0538534,7.66515096 Z M22.4091593,9.11326091 L21.5478516,9.11326091 L20.9127808,6.79631551 L20.263265,7.42121378 L19.8253377,9.1132609 L19.0632121,9.1132609 L20.3255208,4.23533122 L21.0877482,4.23533122 L20.5867513,6.17126465 L22.5815837,4.23533122 L23.5496012,4.23533122 L21.5970866,6.12553915 L22.4167887,9.11326091 L22.4091593,9.11326091 L22.4091593,9.11326091 Z M26.8710327,9.11326091 L26.0631307,9.11326091 L25.9534709,7.71087647 L24.4292196,7.71087647 L23.5936483,9.11326091 L22.7856445,9.11326091 L25.7248942,4.23533122 L26.456604,4.23533122 L26.8710327,9.11326091 L26.8710327,9.11326091 Z M25.8838908,6.94864909 L25.7574463,5.52342733 L24.9007161,6.94864909 L25.8838908,6.94864909 L25.8838908,6.94864909 Z" id="Shape" fill="#000000"></path>
                    </g>
                </g>
            </g>
        </g>
    </g>
</svg>