<?xml version="1.0" encoding="UTF-8" standalone="no"?>
<svg width="60px" height="40px" viewBox="0 0 60 40" version="1.1" xmlns="http://www.w3.org/2000/svg" xmlns:xlink="http://www.w3.org/1999/xlink">
    <!-- Generator: Sketch 3.8.3 (29802) - http://www.bohemiancoding.com/sketch -->
    <title>US-CA-3</title>
    <desc>Created with Sketch.</desc>
    <defs></defs>
    <g id="Icons-{3}" stroke="none" stroke-width="1" fill="none" fill-rule="evenodd">
        <g id="US-CA-3">
            <g id="Layer_1">
                <g>
                    <g id="Group">
                        <g id="Shape" fill="#FFFFFF">
                            <path d="M0.0779301746,26.1366116 C0.0779301746,13.8909562 12.6606853,3.52643782 30.0031172,0.0498753117 C47.345473,3.52643782 59.9283042,13.8909562 59.9283042,26.1366116 L59.9283042,32.4849984 C59.9283042,35.4768353 56.6079004,37.9726465 52.1973874,38.5458229 L52.1678592,38.549622 L52.1387876,38.5533237 L52.1095637,38.5570254 C44.9518599,39.471536 37.5650839,39.9502221 30.0031172,39.9502221 C22.4409983,39.9502221 15.0543746,39.471536 7.89667068,38.5570254 L7.86744687,38.5533237 L7.83837526,38.549622 L7.80877093,38.5458229 C3.39833399,37.9726465 0.0779301746,35.4768353 0.0779301746,32.4849984 C0.0779301746,29.0693189 0.0779301746,38.382267 0.0779301746,26.1366116 L0.0779301746,26.1366116 Z"></path>
                        </g>
                        <path d="M30.0031172,1.30708385 C46.2982863,4.74049252 58.05798,14.5610096 58.05798,26.1366116 L58.05798,32.4849984 C58.05798,34.8962555 55.3824789,36.9104582 51.8263058,37.3725842 C44.7871715,38.2718984 37.4399694,38.7532146 30.0031172,38.7532146 C22.566265,38.7532146 15.3009505,38.282419 8.26196838,37.3831047 C4.70564313,36.9208814 1.94825436,34.8962555 1.94825436,32.4849984 L1.94825436,26.1366116 C1.94825436,14.5610096 13.7079481,4.74049252 30.0031172,1.30708385 L30.0031172,1.30708385 Z" id="Shape" fill="#006B54"></path>
                    </g>
                </g>
            </g>
        </g>
    </g>
</svg>