<?xml version="1.0" encoding="UTF-8" standalone="no"?>
<svg width="40px" height="40px" viewBox="0 0 40 40" version="1.1" xmlns="http://www.w3.org/2000/svg" xmlns:xlink="http://www.w3.org/1999/xlink">
    <!-- Generator: Sketch 3.8.3 (29802) - http://www.bohemiancoding.com/sketch -->
    <title>US-CO-2</title>
    <desc>Created with Sketch.</desc>
    <defs></defs>
    <g id="Icons-{2}" stroke="none" stroke-width="1" fill="none" fill-rule="evenodd">
        <g id="US-CO-2">
            <g>
                <rect id="Rectangle-29" x="0" y="0" width="40" height="60"></rect>
                <g id="Group">
                    <rect id="rect3771" fill="#000000" x="0.0587055762" y="0.0578304535" width="39.9412944" height="39.6774606" rx="1"></rect>
                    <path d="M37.1818182,2 C37.6350909,2 38,2.33816165 38,2.75820997 L38,18.2067381 C38,18.2061316 2,18.2067381 2,18.2067381 L2,2.75820997 C2,2.33816165 2.36490909,2 2.81818182,2 L37.1818182,2 Z" id="rect4" fill="#002482"></path>
                    <polygon id="rect6" fill="#FFFFFF" points="2 7.19999981 38 7.19999981 38 13.2796107 2 13.2796107"></polygon>
                    <path d="M18.3154039,12.5237002 C17.2241839,15.221267 14.3744806,16.7673552 11.518143,16.2115102 C8.66180542,15.6556652 6.59984319,13.1537641 6.59984319,10.2438452 C6.59984319,7.3339263 8.66180542,4.8320252 11.518143,4.27618023 C14.3744806,3.72033527 17.2241839,5.26642341 18.3154039,7.96399027 L12.6765647,10.2438486" id="path8" fill="#BF0A30"></path>
                    <path d="M15.7163702,10.2438452 C15.7163702,11.9226834 14.3554029,13.2836507 12.6765647,13.2836507 C10.9977265,13.2836507 9.63675925,11.9226834 9.63675925,10.2438452 C9.63675925,8.56500704 10.9977265,7.20403976 12.6765647,7.20403976 C14.3554029,7.20403976 15.7163702,8.56500704 15.7163702,10.2438452 L15.7163702,10.2438452 Z" id="circle10" fill="#FFD700"></path>
                    <path d="M2.81818182,38 L37.1818182,38 C37.6350909,38 38,37.6333933 38,37.1780118 L38,20.4300003 C38,20.4306579 38,20.4300003 38,20.4300003 L2,20.4300003 L2,20.4300003 L2,37.1780118 C2,37.6333933 2.36490909,38 2.81818182,38 L2.81818182,38 Z" id="path3817" fill="#FFFFFF"></path>
                </g>
            </g>
        </g>
    </g>
</svg>