<?xml version="1.0" encoding="UTF-8" standalone="no"?>
<svg width="60px" height="45px" viewBox="0 0 60 45" version="1.1" xmlns="http://www.w3.org/2000/svg" xmlns:xlink="http://www.w3.org/1999/xlink">
    <!-- Generator: Sketch 3.8.3 (29802) - http://www.bohemiancoding.com/sketch -->
    <title>US-CO-3</title>
    <desc>Created with Sketch.</desc>
    <defs></defs>
    <g id="Icons-{3}" stroke="none" stroke-width="1" fill="none" fill-rule="evenodd">
        <g id="US-CO-3">
            <g>
                <rect id="Rectangle-76" fill-opacity="0" fill="#D8D8D8" x="0" y="0" width="60" height="60"></rect>
                <g id="Group">
                    <rect id="rect3771" fill="#000000" x="0" y="-3.55271368e-15" width="60" height="45" rx="1"></rect>
                    <path d="M2.31818182,1 L57.6818182,1 C58.4120909,1 59,1.37557895 59,1.84210526 L59,19 C59,18.9993263 59,19 59,19 L1,19 L1,19 L1,1.84210526 C1,1.37557895 1.58790909,1 2.31818182,1 L2.31818182,1 Z" id="rect4" fill="#002868"></path>
                    <polygon id="rect6" fill="#FFFFFF" points="1 7.20403976 59 7.20403976 59 13.2040398 1 13.2040398"></polygon>
                    <path d="M18.3154039,12.5237002 C17.2241839,15.221267 14.3744806,16.7673552 11.518143,16.2115102 C8.66180542,15.6556652 6.59984319,13.1537641 6.59984319,10.2438452 C6.59984319,7.3339263 8.66180542,4.8320252 11.518143,4.27618023 C14.3744806,3.72033527 17.2241839,5.26642341 18.3154039,7.96399027 L12.6765647,10.2438486" id="path8" fill="#BF0A30"></path>
                    <path d="M15.7163702,10.2438452 C15.7163702,11.9226834 14.3554029,13.2836507 12.6765647,13.2836507 C10.9977265,13.2836507 9.63675925,11.9226834 9.63675925,10.2438452 C9.63675925,8.56500704 10.9977265,7.20403976 12.6765647,7.20403976 C14.3554029,7.20403976 15.7163702,8.56500704 15.7163702,10.2438452 L15.7163702,10.2438452 Z" id="circle10" fill="#FFD700"></path>
                    <path d="M2.31818182,44 L57.6818182,44 C58.4120909,44 59,43.5082003 59,42.89731 L59,20.4300003 C59,20.4308825 59,20.4300003 59,20.4300003 L1,20.4300003 L1,20.4300003 L1,42.89731 C1,43.5082003 1.58790909,44 2.31818182,44 L2.31818182,44 Z" id="path3817" fill="#FFFFFF"></path>
                </g>
            </g>
        </g>
    </g>
</svg>