<?xml version="1.0" encoding="UTF-8" standalone="no"?>
<svg width="39px" height="40px" viewBox="0 0 39 40" version="1.1" xmlns="http://www.w3.org/2000/svg" xmlns:xlink="http://www.w3.org/1999/xlink">
    <!-- Generator: Sketch 3.8.3 (29802) - http://www.bohemiancoding.com/sketch -->
    <title>US-CA-2</title>
    <desc>Created with Sketch.</desc>
    <defs></defs>
    <g id="Icons-{2}" stroke="none" stroke-width="1" fill="none" fill-rule="evenodd">
        <g id="US-CA-2" transform="translate(-1.000000, 0.000000)">
            <g transform="translate(1.000000, 0.000000)" id="Layer_1">
                <g>
                    <g id="Group">
                        <g id="Shape" fill="#FFFFFF">
                            <path d="M0.0498753117,26.1366116 C0.0498753117,13.8909562 8.1028386,3.52643782 19.201995,0.0498753117 C30.3011027,3.52643782 38.3541147,13.8909562 38.3541147,26.1366116 L38.3541147,32.4849984 C38.3541147,35.4768353 36.2290563,37.9726465 33.4063279,38.5458229 L33.3874299,38.549622 L33.368824,38.5533237 L33.3501208,38.5570254 C28.7691903,39.471536 24.0416537,39.9502221 19.201995,39.9502221 C14.3622389,39.9502221 9.63479972,39.471536 5.05386924,38.5570254 L5.035166,38.5533237 L5.01656017,38.549622 L4.9976134,38.5458229 C2.17493376,37.9726465 0.0498753117,35.4768353 0.0498753117,32.4849984 C0.0498753117,29.0693189 0.0498753117,38.382267 0.0498753117,26.1366116 L0.0498753117,26.1366116 Z"></path>
                        </g>
                        <path d="M19.201995,1.30708385 C29.6309032,4.74049252 37.1571072,14.5610096 37.1571072,26.1366116 L37.1571072,32.4849984 C37.1571072,34.8962555 35.4447865,36.9104582 33.1688357,37.3725842 C28.6637897,38.2718984 23.9615804,38.7532146 19.201995,38.7532146 C14.4424096,38.7532146 9.79260832,38.282419 5.28765976,37.3831047 C3.0116116,36.9208814 1.24688279,34.8962555 1.24688279,32.4849984 L1.24688279,26.1366116 C1.24688279,14.5610096 8.77308681,4.74049252 19.201995,1.30708385 L19.201995,1.30708385 Z" id="Shape" fill="#006B54"></path>
                    </g>
                </g>
            </g>
        </g>
    </g>
</svg>