<?xml version="1.0" encoding="UTF-8" standalone="no"?>
<svg width="60px" height="65px" viewBox="0 0 60 65" version="1.1" xmlns="http://www.w3.org/2000/svg" xmlns:xlink="http://www.w3.org/1999/xlink">
    <!-- Generator: Sketch 3.8.3 (29802) - http://www.bohemiancoding.com/sketch -->
    <title>US-CO-3</title>
    <desc>Created with Sketch.</desc>
    <defs></defs>
    <g id="Icons-{3}" stroke="none" stroke-width="1" fill="none" fill-rule="evenodd">
        <g id="US-CO-3">
            <g>
                <rect id="Rectangle-76" fill-opacity="0.01" fill="#D8D8D8" x="0" y="0" width="60" height="65"></rect>
                <g id="Group">
                    <rect id="rect3771" fill="#000000" x="0" y="-3.55271368e-15" width="60" height="45" rx="1"></rect>
                    <path d="M3.27272727,2 L56.7272727,2 C57.4323636,2 58,2.35471345 58,2.79532164 L58,19 C58,18.9993637 58,19 58,19 L2,19 L2,19 L2,2.79532164 C2,2.35471345 2.56763636,2 3.27272727,2 L3.27272727,2 Z" id="rect4" fill="#002482"></path>
                    <polygon id="rect6" fill="#FFFFFF" points="2 7.20403976 58 7.20403976 58 13.2040398 2 13.2040398"></polygon>
                    <path d="M18.3154039,12.5237002 C17.2241839,15.221267 14.3744806,16.7673552 11.518143,16.2115102 C8.66180542,15.6556652 6.59984319,13.1537641 6.59984319,10.2438452 C6.59984319,7.3339263 8.66180542,4.8320252 11.518143,4.27618023 C14.3744806,3.72033527 17.2241839,5.26642341 18.3154039,7.96399027 L12.6765647,10.2438486" id="path8" fill="#BF0A30"></path>
                    <path d="M15.7163702,10.2438452 C15.7163702,11.9226834 14.3554029,13.2836507 12.6765647,13.2836507 C10.9977265,13.2836507 9.63675925,11.9226834 9.63675925,10.2438452 C9.63675925,8.56500704 10.9977265,7.20403976 12.6765647,7.20403976 C14.3554029,7.20403976 15.7163702,8.56500704 15.7163702,10.2438452 L15.7163702,10.2438452 Z" id="circle10" fill="#FFD700"></path>
                    <path d="M3.27272727,43 L56.7272727,43 C57.4323636,43 58,42.5290658 58,41.9440937 L58,20.4300003 C58,20.430845 58,20.4300003 58,20.4300003 L2,20.4300003 L2,20.4300003 L2,41.9440937 C2,42.5290658 2.56763636,43 3.27272727,43 L3.27272727,43 Z" id="path3817" fill="#FFFFFF"></path>
                </g>
            </g>
        </g>
    </g>
</svg>