<?xml version="1.0" encoding="UTF-8" standalone="no"?>
<svg width="40px" height="40px" viewBox="0 0 40 40" version="1.1" xmlns="http://www.w3.org/2000/svg" xmlns:xlink="http://www.w3.org/1999/xlink">
    <!-- Generator: Sketch 3.8.3 (29802) - http://www.bohemiancoding.com/sketch -->
    <title>US-CO-2</title>
    <desc>Created with Sketch.</desc>
    <defs></defs>
    <g id="Icons-{2}" stroke="none" stroke-width="1" fill="none" fill-rule="evenodd">
        <g id="US-CO-2">
            <g>
                <rect id="rect3771" fill="#000000" x="0.0587055762" y="0.0578304535" width="39.6774606" height="39.6774606" rx="1"></rect>
                <path d="M1.9785827,1.12442886 L37.8162891,1.12442886 C38.2890055,1.12442886 38.6695678,1.50499117 38.6695678,1.97770758 L38.6695678,19.3632616 C38.6695678,19.3625789 38.6695678,19.3632616 38.6695678,19.3632616 L1.12530398,19.3632616 L1.12530398,19.3632616 L1.12530398,1.97770758 C1.12530398,1.50499117 1.50586629,1.12442886 1.9785827,1.12442886 L1.9785827,1.12442886 Z" id="rect4" fill="#002868"></path>
                <polygon id="rect6" fill="#FFFFFF" points="1.12530398 7.20403976 38.6695678 7.20403976 38.6695678 13.2836507 1.12530398 13.2836507"></polygon>
                <path d="M18.3154039,12.5237002 C17.2241839,15.221267 14.3744806,16.7673552 11.518143,16.2115102 C8.66180542,15.6556652 6.59984319,13.1537641 6.59984319,10.2438452 C6.59984319,7.3339263 8.66180542,4.8320252 11.518143,4.27618023 C14.3744806,3.72033527 17.2241839,5.26642341 18.3154039,7.96399027 L12.6765647,10.2438486" id="path8" fill="#BF0A30"></path>
                <path d="M15.7163702,10.2438452 C15.7163702,11.9226834 14.3554029,13.2836507 12.6765647,13.2836507 C10.9977265,13.2836507 9.63675925,11.9226834 9.63675925,10.2438452 C9.63675925,8.56500704 10.9977265,7.20403976 12.6765647,7.20403976 C14.3554029,7.20403976 15.7163702,8.56500704 15.7163702,10.2438452 L15.7163702,10.2438452 Z" id="circle10" fill="#FFD700"></path>
                <path d="M1.9785827,38.6695678 L37.8162891,38.6695678 C38.2890055,38.6695678 38.6695678,38.2890055 38.6695678,37.8162891 L38.6695678,20.4307337 C38.6695678,20.4314164 38.6695678,20.4307337 38.6695678,20.4307337 L1.12530398,20.4307337 L1.12530398,20.4307337 L1.12530398,37.8162891 C1.12530398,38.2890055 1.50586629,38.6695678 1.9785827,38.6695678 L1.9785827,38.6695678 Z" id="path3817" fill="#FFFFFF"></path>
            </g>
        </g>
    </g>
</svg>