<?xml version="1.0" encoding="UTF-8" standalone="no"?>
<svg width="40px" height="40px" viewBox="0 0 40 40" version="1.1" xmlns="http://www.w3.org/2000/svg" xmlns:xlink="http://www.w3.org/1999/xlink">
    <!-- Generator: Sketch 3.8.3 (29802) - http://www.bohemiancoding.com/sketch -->
    <title>US-FL-2</title>
    <desc>Created with Sketch.</desc>
    <defs></defs>
    <g id="Icons-{2}" stroke="none" stroke-width="1" fill="none" fill-rule="evenodd">
        <g id="US-FL-2">
            <g id="Shape">
                <path d="M0.00895656068,2.37348858 C0.00895656068,1.06758005 1.06758005,0.00895656068 2.37348858,0.00895656068 L37.6265114,0.00895656068 C38.9324199,0.00895656068 39.9910434,1.06758005 39.9910434,2.37348858 L39.9910434,37.6265114 C39.9910434,38.9324199 38.9324199,39.9910434 37.6265114,39.9910434 L2.37348858,39.9910434 C1.06758005,39.9910434 0.00895656068,38.9324199 0.00895656068,37.6265114 L0.00895656068,2.37348858 L0.00895656068,2.37348858 L0.00895656068,2.37348858 Z" fill="#000000"></path>
                <path d="M0.868786386,2.37348858 C0.868786386,1.54247019 1.54241771,0.868786386 2.37348858,0.868786386 L37.6265114,0.868786386 C38.4575823,0.868786386 39.1312136,1.54247019 39.1312136,2.37348858 L39.1312136,37.6265114 C39.1312136,38.4575823 38.4575823,39.1312136 37.6265114,39.1312136 L2.37348858,39.1312136 C1.54241771,39.1312136 0.868786386,38.4575823 0.868786386,37.6265114 L0.868786386,2.37348858 L0.868786386,2.37348858 L0.868786386,2.37348858 Z" fill="#FFFFFF"></path>
                <polygon fill="#000000" points="21.1619038 11.8985285 19.515506 11.0146629 14.4795399 12.095118 9.83066502 8.55970807 7.31283937 7.97072674 6.92548562 8.36343344 3.34216161 8.0690215 2.37348858 2.37348858 14.5764701 2.37348858 14.7699633 2.66800549 14.9638764 3.45352384 27.5542642 3.55187108 27.9416704 2.66800549 31.8154179 2.76630025 35.2053012 14.451778 34.5270516 18.5761168 35.4957246 24.0753751 37.0452446 27.1194161 37.6265114 30.2616995 37.6265114 34.0914689 33.8492219 37.6265114 31.5249944 37.6265114 29.0068014 36.4482339 29.7356415 34.890632 31.9074675 35.9068518 33.1701327 35.9068518 35.9068518 33.3456253 35.9068518 30.419349 35.3996865 27.6773819 33.8467029 24.6266234 32.7827264 18.5860355 33.445232 14.5569476 30.5143375 4.45347487 29.0529837 4.41642409 28.6742891 5.28034734 13.6614315 5.16305488 13.3586753 4.09314823 4.41028395 4.09314823 4.81359158 6.46450264 6.26544657 6.58378932 6.765632 6.07667655 10.5795524 6.96878149 14.8915067 10.2478798 19.7723424 9.20069694 21.9753415 10.3833828"></polygon>
            </g>
        </g>
    </g>
</svg>