<?xml version="1.0" encoding="UTF-8" standalone="no"?>
<svg width="60px" height="40px" viewBox="0 0 60 40" version="1.1" xmlns="http://www.w3.org/2000/svg" xmlns:xlink="http://www.w3.org/1999/xlink">
    <!-- Generator: Sketch 3.8.3 (29802) - http://www.bohemiancoding.com/sketch -->
    <title>US-FL-3</title>
    <desc>Created with Sketch.</desc>
    <defs></defs>
    <g id="Icons-{3}" stroke="none" stroke-width="1" fill="none" fill-rule="evenodd">
        <g id="US-FL-3">
            <g>
                <rect id="Rectangle-42" fill="#000000" x="0" y="0" width="60" height="40" rx="2"></rect>
                <rect id="Rectangle-42" fill="#FFFFFF" x="1" y="1" width="58" height="38" rx="1"></rect>
                <polygon id="Shape" fill="#000000" points="41.1619038 11.8985285 39.515506 11.0146629 34.4795399 12.095118 29.830665 8.55970807 27.3128394 7.97072674 26.9254856 8.36343344 23.3421616 8.0690215 22.3734886 2.37348858 34.5764701 2.37348858 34.7699633 2.66800549 34.9638764 3.45352384 47.5542642 3.55187108 47.9416704 2.66800549 51.8154179 2.76630025 55.2053012 14.451778 54.5270516 18.5761168 55.4957246 24.0753751 57.0452446 27.1194161 57.6265114 30.2616995 57.6265114 34.0914689 53.8492219 37.6265114 51.5249944 37.6265114 49.0068014 36.4482339 49.7356415 34.890632 51.9074675 35.9068518 53.1701327 35.9068518 55.9068518 33.3456253 55.9068518 30.419349 55.3996865 27.6773819 53.8467029 24.6266234 52.7827264 18.5860355 53.445232 14.5569476 50.5143375 4.45347487 49.0529837 4.41642409 48.6742891 5.28034734 33.6614315 5.16305488 33.3586753 4.09314823 24.410284 4.09314823 24.8135916 6.46450264 26.2654466 6.58378932 26.765632 6.07667655 30.5795524 6.96878149 34.8915067 10.2478798 39.7723424 9.20069694 41.9753415 10.3833828"></polygon>
            </g>
        </g>
    </g>
</svg>