<?xml version="1.0" encoding="UTF-8" standalone="no"?>
<svg width="40px" height="40px" viewBox="0 0 40 40" version="1.1" xmlns="http://www.w3.org/2000/svg" xmlns:xlink="http://www.w3.org/1999/xlink">
    <!-- Generator: Sketch 3.8.3 (29802) - http://www.bohemiancoding.com/sketch -->
    <title>US-GA-2</title>
    <desc>Created with Sketch.</desc>
    <defs></defs>
    <g id="Icons-{2}" stroke="none" stroke-width="1" fill="none" fill-rule="evenodd">
        <g id="US-GA-2" stroke="#000000">
            <g>
                <rect id="rect3990" stroke-width="1.20006335" fill="#000000" x="0.0400021113" y="0.0400021353" width="39.9199993" height="39.9199953" rx="3"></rect>
                <path d="M6.01425613,34.6258473 C6.01425613,34.6258473 5.026375,31.71193 5.71119633,28.3170173 C5.50847827,27.4036827 4.74729367,24.285724 5.56037053,21.25768 C5.79587453,20.8107 4.92186613,19.2881367 4.8656822,18.7243573 C4.65961693,16.656586 3.63617353,4.55529287 3.38911553,3.4492714 C11.4566327,3.37490393 25.1700733,3.39047093 25.1700733,3.39047093 C25.1700733,3.39047093 25.0093353,4.83802307 24.9573287,5.10106087 C24.5743,7.03835133 25.5176733,6.99661667 25.8395087,7.013722 C26.6685527,7.05778467 26.3192827,7.00620867 26.8605567,7.152214 C27.412934,7.35145667 27.3078,7.70962467 28.5787813,9.41009133 C29.7635447,11.2165493 30.5165027,11.2869167 31.7182153,12.7957333 C33.7732213,14.6530113 37.0539647,17.6664007 36.561118,19.4947793 C35.165236,23.4103773 34.2967013,26.0154387 33.8638727,29.9558787 C33.6238967,32.4649447 32.4750867,35.1715967 31.196842,35.143192 C30.209626,35.11945 30.6003453,35.4221547 30.227866,35.9769587 C30.0106253,36.3005347 29.6829533,36.6079673 29.1769727,36.6108127 C28.6924627,36.6135393 28.321126,36.5410767 28.0196407,36.0482927 C27.5625547,35.3011767 28.157564,35.0471427 26.8283033,35.0997273 C25.62114,35.1474847 6.35264787,35.2532653 6.35264787,35.2532653" id="path1356" stroke-width="1.67345679" fill="#FFFFFF"></path>
            </g>
        </g>
    </g>
</svg>