<?xml version="1.0" encoding="UTF-8" standalone="no"?>
<svg width="60px" height="40px" viewBox="0 0 60 40" version="1.1" xmlns="http://www.w3.org/2000/svg" xmlns:xlink="http://www.w3.org/1999/xlink">
    <!-- Generator: Sketch 3.8.3 (29802) - http://www.bohemiancoding.com/sketch -->
    <title>US-GA-3</title>
    <desc>Created with Sketch.</desc>
    <defs></defs>
    <g id="Icons-{3}" stroke="none" stroke-width="1" fill="none" fill-rule="evenodd">
        <g id="US-GA-3">
            <g>
                <rect id="Rectangle-57" fill="#000000" x="0" y="0" width="60" height="40" rx="2"></rect>
                <path d="M6.42504646,35.8489601 C6.42504646,35.8489601 4.75983283,32.6913612 5.91419622,29.0125428 C5.57248619,28.0228289 4.28940169,24.6441253 5.65995796,21.3628557 C6.05693332,20.8784962 4.58366832,19.2286057 4.48896234,18.6176793 C4.14161014,16.3769869 2.41645127,3.26370132 2,2.06518681 C15.5989433,1.98460023 38.7148907,2.00146905 38.7148907,2.00146905 C38.7148907,2.00146905 38.443944,3.57007534 38.3562794,3.85511015 C37.7106303,5.95441003 39.3008197,5.90918522 39.8433188,5.92772102 C41.2407899,5.97546851 40.6520458,5.91957937 41.5644399,6.07779466 C42.4955501,6.29369936 42.3183319,6.6818198 44.460751,8.52449106 C46.4578375,10.4820174 47.7270549,10.5582693 49.7527119,12.1932635 C53.2167157,14.2058597 58.7468734,17.4712491 57.9161105,19.4525293 C55.5631536,23.6955762 54.0991154,26.5184905 53.3695213,30.7884569 C52.9650078,33.5073481 51.0285257,36.4403487 48.8738632,36.4095686 C47.2097708,36.3838412 47.8683836,36.7118601 47.2405169,37.3130606 C46.874327,37.6636962 46.3219894,37.9968385 45.4690873,37.9999217 C44.652377,38.0028764 44.0264364,37.9243539 43.5182402,37.39036 C42.747757,36.5807651 43.7507295,36.305487 41.5100723,36.3624692 C39.4752274,36.4142203 6.99545367,36.5288471 6.99545367,36.5288471" id="path1356" stroke="#000000" stroke-width="1.67345679" fill="#FFFFFF"></path>
            </g>
        </g>
    </g>
</svg>