<?xml version="1.0" encoding="UTF-8" standalone="no"?>
<svg width="40px" height="40px" viewBox="0 0 40 40" version="1.1" xmlns="http://www.w3.org/2000/svg" xmlns:xlink="http://www.w3.org/1999/xlink">
    <!-- Generator: Sketch 3.8.3 (29802) - http://www.bohemiancoding.com/sketch -->
    <title>US-HI-2</title>
    <desc>Created with Sketch.</desc>
    <defs></defs>
    <g id="Icons-{2}" stroke="none" stroke-width="1" fill="none" fill-rule="evenodd">
        <g id="US-HI-2">
            <g>
                <rect id="rect1935" fill="#000000" x="0" y="0" width="40" height="40" rx="2"></rect>
                <path d="M20.113596,2.50022 C18.2033793,2.45496667 16.3516907,3.30602 15.125808,4.78008667 C13.8226513,5.76411333 12.8636967,7.13765333 11.6830853,8.22216 C10.4957087,9.80902 9.17935,11.2913533 8.17606533,13.0124533 C7.192226,14.19458 6.70939467,15.6402733 5.8785602,16.8805333 C5.14447167,18.1711267 4.6042072,19.6020067 3.92046207,20.9036067 C3.2994152,22.7584933 2.33547793,24.5677933 2.5000004,26.5924467 C2.46467593,28.2302733 2.7716596,29.8454533 3.4998222,31.29592 C4.8536346,33.6868533 7.12202667,35.6221333 9.857424,36.1818867 C11.9536693,36.7835067 14.1052713,37.23478 16.3073653,37.2804267 C18.156492,37.6143067 20.0784293,37.5379667 21.9431687,37.3757667 C23.6091293,37.1987867 25.270476,37.0102267 26.9114,36.65238 C28.4810647,36.29406 30.074724,35.8425733 31.582004,35.19914 C33.676176,34.23802 35.3549167,32.46098 36.465472,30.4729667 C37.0831093,28.97702 37.6256053,27.3976933 37.4900407,25.7468267 C37.5812333,23.9663467 36.9675707,22.2804467 36.3109293,20.67386 C35.613124,19.11988 35.0646687,17.4776267 34.0781053,16.0641533 C33.137822,13.91922 31.5987687,12.1262533 30.306478,10.19806 C29.3996313,9.32684667 28.6675553,8.20061333 27.7200387,7.32127333 C26.6938853,6.09234 25.4380373,5.07463333 24.2167853,4.01528667 C23.0406353,3.10046667 21.655446,2.44572 20.113596,2.50022 L20.113596,2.50022 L20.113596,2.50022 Z" id="rect1955" fill="#FFFFFF"></path>
            </g>
        </g>
    </g>
</svg>