<?xml version="1.0" encoding="UTF-8" standalone="no"?>
<svg width="60px" height="40px" viewBox="0 0 60 40" version="1.1" xmlns="http://www.w3.org/2000/svg" xmlns:xlink="http://www.w3.org/1999/xlink">
    <!-- Generator: Sketch 3.8.3 (29802) - http://www.bohemiancoding.com/sketch -->
    <title>US-HI-3</title>
    <desc>Created with Sketch.</desc>
    <defs></defs>
    <g id="Icons-{3}" stroke="none" stroke-width="1" fill="none" fill-rule="evenodd">
        <g id="US-HI-3">
            <g>
                <rect id="rect1935" fill="#000000" x="0" y="0" width="60" height="40" rx="2"></rect>
                <path d="M30.170394,2.50022 C27.305069,2.45496667 24.527536,3.30602 22.688712,4.78008667 C20.733977,5.76411333 19.295545,7.13765333 17.524628,8.22216 C15.743563,9.80902 13.769025,11.2913533 12.264098,13.0124533 C10.788339,14.19458 10.064092,15.6402733 8.8178403,16.8805333 C7.7167075,18.1711267 6.9063108,19.6020067 5.8806931,20.9036067 C4.9491228,22.7584933 3.5032169,24.5677933 3.7500006,26.5924467 C3.6970139,28.2302733 4.1574894,29.8454533 5.2497333,31.29592 C7.2804519,33.6868533 10.68304,35.6221333 14.786136,36.1818867 C17.930504,36.7835067 21.157907,37.23478 24.461048,37.2804267 C27.234738,37.6143067 30.117644,37.5379667 32.914753,37.3757667 C35.413694,37.1987867 37.905714,37.0102267 40.3671,36.65238 C42.721597,36.29406 45.112086,35.8425733 47.373006,35.19914 C50.514264,34.23802 53.032375,32.46098 54.698208,30.4729667 C55.624664,28.97702 56.438408,27.3976933 56.235061,25.7468267 C56.37185,23.9663467 55.451356,22.2804467 54.466394,20.67386 C53.419686,19.11988 52.597003,17.4776267 51.117158,16.0641533 C49.706733,13.91922 47.398153,12.1262533 45.459717,10.19806 C44.099447,9.32684667 43.001333,8.20061333 41.580058,7.32127333 C40.040828,6.09234 38.157056,5.07463333 36.325178,4.01528667 C34.560953,3.10046667 32.483169,2.44572 30.170394,2.50022 L30.170394,2.50022 L30.170394,2.50022 Z" id="rect1955" fill="#FFFFFF"></path>
            </g>
        </g>
    </g>
</svg>