<?xml version="1.0" encoding="UTF-8" standalone="no"?>
<svg width="40px" height="40px" viewBox="0 0 40 40" version="1.1" xmlns="http://www.w3.org/2000/svg" xmlns:xlink="http://www.w3.org/1999/xlink">
    <!-- Generator: Sketch 3.8.3 (29802) - http://www.bohemiancoding.com/sketch -->
    <title>US-IL-2</title>
    <desc>Created with Sketch.</desc>
    <defs></defs>
    <g id="Icons-{2}" stroke="none" stroke-width="1" fill="none" fill-rule="evenodd">
        <g id="US-IL-2">
            <g>
                <path d="M0.0515083153,1.93239798 C0.0515083153,0.893616728 0.893616717,0.0515083153 1.93239798,0.0515083153 L37.8400923,0.0515083153 C38.8789258,0.0515083153 39.7209298,0.893616717 39.7209298,1.93239798 L39.7209298,37.8400923 C39.7209298,38.8789258 38.8789258,39.7209298 37.8400923,39.7209298 L1.93239798,39.7209298 C0.893616728,39.7209298 0.0515083153,38.8789258 0.0515083153,37.8400923 L0.0515083153,1.93239798 L0.0515083153,1.93239798 L0.0515083153,1.93239798 Z" id="Shape" fill="#000000"></path>
                <path d="M1.65289256,3.30578512 C1.65289256,2.3929171 2.39288481,1.65289256 3.30578512,1.65289256 L36.3636364,1.65289256 C37.2765367,1.65289256 38.0165289,2.3929171 38.0165289,3.30578512 L38.0165289,36.3636364 C38.0165289,37.2765367 37.2765367,38.0165289 36.3636364,38.0165289 L3.30578512,38.0165289 C2.39288481,38.0165289 1.65289256,37.2765367 1.65289256,36.3636364 L1.65289256,3.30578512 L1.65289256,3.30578512 L1.65289256,3.30578512 Z" id="Shape" fill="#FFFFFF"></path>
                <g id="Group-2" transform="translate(7.000000, 3.000000)" fill="#000000">
                    <rect id="Rectangle-path" x="0.110396785" y="0.329195239" width="0.796201701" height="4.93938593"></rect>
                    <polygon id="Shape" points="2.085079 5.26858117 2.085079 0.329195239 2.86655164 0.329195239 2.86655164 4.53873828 5.15194925 4.53873828 5.15194925 5.26858117"></polygon>
                    <polygon id="Shape" points="5.88403012 5.26858117 5.88403012 0.329195239 6.66550276 0.329195239 6.66550276 4.53873828 8.95090037 4.53873828 8.95090037 5.26858117"></polygon>
                    <rect id="Rectangle-path" x="9.68298124" y="0.329195239" width="0.796201701" height="4.93938593"></rect>
                    <polygon id="Shape" points="14.3264329 5.26858117 12.4391361 1.92159864 12.4391361 5.26858117 11.6576635 5.26858117 11.6576635 0.329195239 12.4391361 0.329195239 14.2379544 3.48454392 14.2379544 0.329195239 15.019375 0.329195239 15.019375 5.26858117"></polygon>
                    <path d="M19.588713,2.80627875 C19.588713,3.19943522 19.5419756,3.5754685 19.4486048,3.93422248 C19.355234,4.2930285 19.2225164,4.5829775 19.0504519,4.80417355 C18.775232,5.17276424 18.3771832,5.35705958 17.8562014,5.35705958 C17.50718,5.35705958 17.2196772,5.28580843 16.9935888,5.14330613 C16.7675005,5.00075178 16.5807589,4.77710955 16.4333643,4.47237946 C16.3301048,4.26107217 16.2466228,4.00427657 16.1827101,3.70199264 C16.1187975,3.39976077 16.0868412,3.10117211 16.0868412,2.80627875 C16.0868412,2.39834119 16.1348277,2.01991377 16.2305926,1.67094447 C16.3264615,1.32197516 16.4579301,1.02958001 16.6249981,0.793654895 C16.7724969,0.606913384 16.9482046,0.468054306 17.1521213,0.377129722 C17.3561422,0.286205137 17.6006549,0.240716821 17.8856595,0.240716821 C18.2002263,0.240716821 18.4681598,0.312020018 18.6892518,0.454522326 C18.9104478,0.597024634 19.0996875,0.820666851 19.2569709,1.12539694 C19.3601264,1.34659299 19.4412142,1.60458566 19.5002346,1.89942699 C19.5591508,2.1943724 19.588713,2.49665633 19.588713,2.80627875 L19.588713,2.80627875 Z M18.8071883,2.80627875 C18.8071883,2.52611443 18.7826225,2.26687265 18.733491,2.02850138 C18.6843594,1.79007806 18.6106621,1.58735838 18.5122949,1.42029031 C18.4337053,1.29251705 18.3439777,1.1991463 18.2432164,1.14012598 C18.1424551,1.08115771 18.0183771,1.04670319 17.8708784,1.03691851 C17.6792445,1.02708179 17.519567,1.071321 17.3917417,1.16963614 C17.2640205,1.26795129 17.1582628,1.42768085 17.0747808,1.64882487 C17.0108681,1.79627155 16.9629857,1.97442545 16.9309253,2.18333862 C16.8990731,2.39219974 16.8830428,2.59986379 16.8830428,2.80627875 C16.8830428,3.07166197 16.9076086,3.32726051 16.9567402,3.57297029 C17.0058717,3.81873212 17.0796731,4.02025474 17.1779362,4.17748609 C17.2565259,4.30531139 17.3500007,4.40112831 17.4580485,4.46504096 C17.5662003,4.52895361 17.698918,4.56085788 17.8562014,4.56085788 C18.0380506,4.56085788 18.1891925,4.51172634 18.3096273,4.41341119 C18.430062,4.3151481 18.5319683,4.15541852 18.6155544,3.93422247 C18.6401202,3.87036187 18.664686,3.79291723 18.6892518,3.70199264 C18.7138175,3.61106806 18.7347401,3.51525113 18.7519153,3.41448982 C18.7691946,3.31372852 18.7826225,3.21177015 18.7925113,3.10851062 C18.802296,3.00530315 18.8071883,2.90459389 18.8071883,2.80627875 L18.8071883,2.80627875 Z" id="Shape"></path>
                    <rect id="Rectangle-path" x="20.6848045" y="0.329195239" width="0.796201701" height="4.93938593"></rect>
                    <path d="M25.6746751,3.84574406 C25.6746751,4.07183246 25.6329341,4.28069357 25.5493481,4.47237948 C25.4658661,4.66406537 25.3454313,4.83118549 25.1881479,4.97373985 C25.0505379,5.09656872 24.8896113,5.19118858 24.7052639,5.2575474 C24.5209165,5.32390622 24.3231412,5.35705958 24.111834,5.35705958 C23.6842229,5.35705958 23.3192755,5.24276628 23.0169916,5.01428377 C22.7147076,4.78574921 22.4800837,4.48221619 22.3129115,4.10378877 L23.0575875,3.83096296 C23.160743,4.06694012 23.3032453,4.24754018 23.4851985,4.37286727 C23.6669436,4.49819436 23.8758568,4.56085789 24.111834,4.56085789 C24.3428147,4.56085789 24.5283071,4.49085585 24.6684153,4.35074767 C24.8084194,4.21063949 24.8785775,4.03742997 24.8785775,3.83096297 C24.8785775,3.66883928 24.8354833,3.53612164 24.7495031,3.43291417 C24.6635229,3.3297067 24.5517278,3.24247738 24.4141179,3.17122623 C24.2765079,3.09992303 24.1253659,3.0372595 23.960692,2.98318356 C23.796018,2.92915968 23.6325932,2.87019141 23.4704174,2.80627876 C23.3967201,2.7767686 23.3057435,2.73502761 23.1976957,2.68095167 C23.0894398,2.62687575 22.9850352,2.55187727 22.884378,2.45611239 C22.7836167,2.36024342 22.6975324,2.24105778 22.6262292,2.09855548 C22.5550301,1.95600113 22.5194305,1.7815425 22.5194305,1.57512755 C22.5194305,1.33431011 22.5586733,1.12909222 22.6373671,0.959525928 C22.7159567,0.789959638 22.8228595,0.652349673 22.9580753,0.546696022 C23.0931871,0.440990334 23.2553628,0.363597741 23.4446026,0.314466194 C23.6338423,0.265334648 23.8390081,0.240716821 24.0602042,0.240716821 C24.4091214,0.240716821 24.7003716,0.331641405 24.9337464,0.513490585 C25.1672254,0.695339764 25.3454313,0.941101594 25.4682602,1.25072402 L24.775318,1.45713896 C24.7359711,1.37849726 24.6843414,1.30724611 24.6204287,1.24338551 C24.5664048,1.18930958 24.4914584,1.14012598 24.3955894,1.09593882 C24.2998246,1.0516996 24.1830331,1.02708179 24.0454231,1.02218946 C23.9569447,1.01729712 23.864823,1.02338652 23.768954,1.04061379 C23.6731892,1.05784106 23.588354,1.08854827 23.5146566,1.13278749 C23.4409593,1.1770267 23.381939,1.23719202 23.3376998,1.31338755 C23.2934606,1.38958308 23.2762854,1.48420296 23.28607,1.59724714 C23.2959588,1.74958616 23.3622656,1.86632564 23.4851985,1.94741351 C23.6080274,2.02850138 23.7579203,2.09855548 23.9348771,2.15752374 C24.1118339,2.21643996 24.3022187,2.27670938 24.5062395,2.3381238 C24.7101562,2.39959029 24.8981469,2.48801666 25.0702114,2.60355907 C25.2421718,2.71904943 25.3859232,2.87383462 25.5014656,3.06796669 C25.617008,3.26209876 25.6746751,3.52139258 25.6746751,3.84574406 L25.6746751,3.84574406 Z" id="Shape"></path>
                </g>
            </g>
        </g>
    </g>
</svg>