<?xml version="1.0" encoding="UTF-8" standalone="no"?>
<svg width="60px" height="40px" viewBox="0 0 60 40" version="1.1" xmlns="http://www.w3.org/2000/svg" xmlns:xlink="http://www.w3.org/1999/xlink">
    <!-- Generator: Sketch 3.8.3 (29802) - http://www.bohemiancoding.com/sketch -->
    <title>US-ID-3</title>
    <desc>Created with Sketch.</desc>
    <defs></defs>
    <g id="Icons-{3}" stroke="none" stroke-width="1" fill="none" fill-rule="evenodd">
        <g id="US-ID-3" transform="translate(0.000000, -10.000000)">
            <g>
                <rect id="Rectangle-69" fill-opacity="0" fill="#D8D8D8" x="0" y="0" width="75" height="50"></rect>
                <g id="Group" transform="translate(0.000000, 10.000000)">
                    <rect id="Rectangle-46" fill="#000000" x="0" y="0" width="60" height="40" rx="2"></rect>
                    <polygon id="State_Outline_1_" fill="#FFFFFF" points="1.25893624 3 4.81923095 3 4.81923095 8.00882747 5.33694612 8.54667864 5.85481861 9.35321942 6.11375485 9.62238097 6.11375485 10.6641038 6.3726911 11.2024269 6.59906367 11.7396488 7.37587241 12.0088104 7.89390221 12.5133113 8.41177469 13.0510052 8.92964718 13.5888563 8.92964718 13.8580179 9.67389224 14.6645587 9.93282849 14.6645587 10.1917647 14.8997407 10.7094799 14.8997407 10.9684162 15.1690596 10.9684162 15.4375919 10.7094799 15.9754431 10.7094799 16.5132942 10.450701 17.555489 10.7094799 18.0933402 10.7094799 18.9003529 10.450701 19.4375748 10.450701 20.7484592 11.2273524 21.0176208 11.4538823 21.0176208 11.9715975 20.2112373 12.2305337 19.9419184 12.7488781 20.2112373 13.0074997 20.4797696 13.2661214 21.2867823 13.2661214 21.5554719 13.7844658 22.5976667 14.2696173 23.1355179 14.2696173 23.9425306 14.7874898 24.4465596 15.0467407 24.4465596 15.5639839 24.7150919 15.8230775 25.2535723 16.0823283 25.7907942 16.3088582 26.5642994 16.5674798 26.5642994 17.0853523 26.0599558 18.3800335 26.0599558 18.6392844 25.7907942 19.1244359 25.5221046 19.1244359 25.7907942 19.6423084 25.7907942 19.901402 25.5221046 20.4186452 25.7907942 21.1635195 25.5221046 21.4222984 25.5221046 21.6807627 25.2535723 21.6807627 24.7150919 22.1991072 24.7150919 22.9757586 25.7907942 23.2348521 26.0599558 23.7204756 38.76608 3.29817715 38.76608 2.1589206 38.7657654 1.26176787 37.8906364 1.25893624 29.7574269 1.51787249 28.7157041 1.51787249 27.908534 1 27.6400017 1 25.2535723 1.51787249 24.9842535 2.00333862 23.9425306 2.00333862 23.6733691 2.52105379 22.5976667 2.52105379 22.0593436 2.77999004 21.2867823 3.03924091 20.7484592 3.29817715 20.7484592 3.29817715 20.2112373 3.03924091 19.9419184 2.52105379 19.4375748 2.00333862 19.1690425 1.51787249 17.8241786 1.77680873 17.2863275 1.25893624 16.5132942"></polygon>
                </g>
            </g>
        </g>
    </g>
</svg>