<?xml version="1.0" encoding="UTF-8" standalone="no"?>
<svg width="40px" height="40px" viewBox="0 0 40 40" version="1.1" xmlns="http://www.w3.org/2000/svg" xmlns:xlink="http://www.w3.org/1999/xlink">
    <!-- Generator: Sketch 3.8.3 (29802) - http://www.bohemiancoding.com/sketch -->
    <title>US-IN-3</title>
    <desc>Created with Sketch.</desc>
    <defs></defs>
    <g id="Icons-{3}" stroke="none" stroke-width="1" fill="none" fill-rule="evenodd">
        <g id="US-IN-3">
            <g>
                <path d="M0,16.8426983 C0,15.7410804 0,13.952669 0,12.8455696 L0,2.00247311 C0,0.89653775 0.891539827,0 1.99729162,0 L38.0027084,0 C39.1057821,0 40,0.891539827 40,1.99729162 L40,38.0027084 C40,39.1057821 39.1084602,40 38.0027084,40 L1.99729162,40 C0.894217919,40 0,39.1048285 0,38.0053445 L0,16.8426983 Z" id="rect4130" fill="#000000"></path>
                <path d="M1.66666667,3.33333333 C1.66666667,2.41285807 2.41282552,1.66666667 3.33333333,1.66666667 L36.6666667,1.66666667 C37.5871745,1.66666667 38.3333333,2.41285807 38.3333333,3.33333333 L38.3333333,36.6666667 C38.3333333,37.5871745 37.5871745,38.3333333 36.6666667,38.3333333 L3.33333333,38.3333333 C2.41282552,38.3333333 1.66666667,37.5871745 1.66666667,36.6666667 L1.66666667,3.33333333 L1.66666667,3.33333333 L1.66666667,3.33333333 Z" id="Shape" fill="#FFFFFF"></path>
                <g id="text2994" transform="translate(9.000000, 3.000000)" fill="#000000">
                    <polyline id="path3767" points="0.00076672213 4.96535308 0.00076672213 0.0263275874 0.693704493 0.0263275874 0.693704493 4.96535308 0.00076672213 4.96535308"></polyline>
                    <polyline id="path3769" points="4.01971448 4.96535308 2.49377704 1.65546889 2.49377704 4.96535308 1.78609584 4.96535308 1.78609584 0.0263275874 2.49377704 0.0263275874 3.85016572 2.98974309 3.85016572 0.0263275874 4.55784692 0.0263275874 4.55784692 4.96535308 4.01971448 4.96535308"></polyline>
                    <path d="M8.40206323,2.48846855 C8.4020599,3.61879401 8.16616639,4.36824759 7.69438203,4.73683128 C7.60591947,4.82037671 7.50271547,4.87935042 7.38477138,4.91375108 C7.26682196,4.94815241 7.13904626,4.96535308 7.00144426,4.96535308 L5.63031148,4.96535308 L5.63031148,0.0263275874 L6.89086855,0.0263275874 C7.10218835,0.0263325125 7.26682196,0.0410758735 7.38477138,0.0705576705 C7.50271547,0.100049251 7.60591947,0.149193744 7.69438203,0.217991281 C7.84181298,0.321199468 7.96467421,0.466175641 8.06296572,0.652920399 C8.16616639,0.839673744 8.23988286,1.05836672 8.28411647,1.30899993 C8.31851448,1.49083814 8.34554343,1.68495907 8.36520466,1.8913624 C8.38977371,2.09777238 8.4020599,2.29680799 8.40206323,2.48846855 M7.70912546,2.52532712 C7.7091228,2.24520599 7.69683661,1.9847401 7.67226689,1.74392879 C7.64769185,1.49820985 7.61329052,1.32374689 7.56906356,1.22053977 C7.45602862,0.886360998 7.24225025,0.71926975 6.92772712,0.719265491 L6.33799268,0.719265491 L6.33799268,4.27241531 L6.92772712,4.27241531 C7.03092845,4.27241597 7.12184626,4.25275807 7.2004792,4.2134416 C7.28402263,4.17412712 7.35528253,4.12252512 7.41425824,4.05863627 C7.47322928,3.99474942 7.51991614,3.92103295 7.55432013,3.83748619 C7.59363328,3.74902696 7.62311947,3.65810982 7.64278003,3.56473411 C7.6575208,3.40747288 7.67226423,3.24283927 7.68701032,3.07083128 C7.70175108,2.89391348 7.7091228,2.71207854 7.70912546,2.52532712" id="path3771"></path>
                    <polyline id="path3773" points="9.37374309 4.96535308 9.37374309 0.0263275874 10.0666809 0.0263275874 10.0666809 4.96535308 9.37374309 4.96535308"></polyline>
                    <path d="M13.2231414,4.96535308 L12.8766722,3.61633544 L11.8151507,3.61633544 L11.4907967,4.96535308 L10.7757438,4.96535308 L12.006814,0.0263275874 L12.6997517,0.0263275874 L13.9308226,4.96535308 L13.2231414,4.96535308 M12.3385398,1.50066356 L11.9920705,2.92339767 L12.6997517,2.92339767 L12.3385398,1.50066356" id="path3775"></path>
                    <polyline id="path3777" points="16.8481651 4.96535308 15.3222276 1.65546889 15.3222276 4.96535308 14.6145464 4.96535308 14.6145464 0.0263275874 15.3222276 0.0263275874 16.678617 2.98974309 16.678617 0.0263275874 17.3862982 0.0263275874 17.3862982 4.96535308 16.8481651 4.96535308"></polyline>
                    <path d="M20.5228313,4.96535308 L20.1763621,3.61633544 L19.1148406,3.61633544 L18.7904865,4.96535308 L18.0754336,4.96535308 L19.3065038,0.0263275874 L19.9994423,0.0263275874 L21.2305125,4.96535308 L20.5228313,4.96535308 M19.6382296,1.50066356 L19.2917604,2.92339767 L19.9994423,2.92339767 L19.6382296,1.50066356" id="path3779"></path>
                </g>
            </g>
        </g>
    </g>
</svg>