<?xml version="1.0" encoding="UTF-8" standalone="no"?>
<svg width="40px" height="40px" viewBox="0 0 40 40" version="1.1" xmlns="http://www.w3.org/2000/svg" xmlns:xlink="http://www.w3.org/1999/xlink">
    <!-- Generator: Sketch 3.8.3 (29802) - http://www.bohemiancoding.com/sketch -->
    <title>US-ID-2</title>
    <desc>Created with Sketch.</desc>
    <defs></defs>
    <g id="Icons-{2}" stroke="none" stroke-width="1" fill="none" fill-rule="evenodd">
        <g id="US-ID-2">
            <g id="Layer_1">
                <g>
                    <g id="Shield_47_">
                        <path d="M39.70704,37.94336 C39.70704,39.00368 38.84736,39.86336 37.78704,39.86336 L2.16,39.86336 C1.09968,39.86336 0.24,39.00368 0.24,37.94336 L0.24,2 C0.24,0.93968 1.09968,0.08 2.16,0.08 L37.78704,0.08 C38.84736,0.08 39.70704,0.93968 39.70704,2 L39.70704,37.94336 L39.70704,37.94336 Z" id="White_1_" fill="#FFFFFF"></path>
                        <path d="M38.69536,37.72208 C38.69536,38.34576 38.19216,38.85152 37.57168,38.85152 L2.24928,38.85152 C1.62864,38.85152 1.1256,38.34592 1.1256,37.72208 L1.1256,2.15808 C1.1256,1.53424 1.6288,1.02864 2.24928,1.02864 L37.57168,1.02864 C38.19232,1.02864 38.69536,1.53424 38.69536,2.15808 L38.69536,37.72208 L38.69536,37.72208 Z" id="Background_1_" fill="#000000"></path>
                        <polygon id="State_Mask_1_" fill="#000000" points="0.15264 2.22896 24.31264 2.22896 24.31264 39.90992 2.32784 39.90992 0.69376 39.33648 0.15264 37.70256"></polygon>
                        <polygon id="State_Outline_1_" fill="#FFFFFF" points="0.47456 3.23392 4.09568 3.23392 4.09568 8.32832 4.62224 8.87536 5.14896 9.69568 5.41232 9.96944 5.41232 11.02896 5.67568 11.57648 5.90592 12.12288 6.696 12.39664 7.22288 12.90976 7.7496 13.45664 8.27632 14.00368 8.27632 14.27744 9.03328 15.09776 9.29664 15.09776 9.56 15.33696 10.08656 15.33696 10.34992 15.61088 10.34992 15.884 10.08656 16.43104 10.08656 16.97808 9.82336 18.03808 10.08656 18.58512 10.08656 19.40592 9.82336 19.95232 9.82336 21.2856 10.61328 21.55936 10.84368 21.55936 11.37024 20.7392 11.6336 20.46528 12.1608 20.7392 12.42384 21.01232 12.68688 21.83312 12.68688 22.1064 13.21408 23.1664 13.70752 23.71344 13.70752 24.53424 14.23424 25.04688 14.49792 25.04688 15.024 25.32 15.28752 25.86768 15.5512 26.41408 15.7816 27.2008 16.04464 27.2008 16.57136 26.68784 17.88816 26.68784 18.15184 26.41408 18.64528 26.1408 18.64528 26.41408 19.172 26.41408 19.43552 26.1408 19.9616 26.41408 20.7192 26.1408 20.9824 26.1408 21.24528 25.86768 21.24528 25.32 21.77248 25.32 22.5624 26.41408 22.82592 26.68784 23.31984 39.61104 2.54864 39.61104 1.38992 39.61072 0.47744 38.72064 0.47456 30.44848 0.73792 29.38896 0.73792 28.568 0.2112 28.29488 0.2112 25.86768 0.73792 25.59376 1.23168 24.53424 1.23168 24.26048 1.75824 23.1664 1.75824 22.61888 2.0216 21.83312 2.28528 21.2856 2.54864 21.2856 2.54864 20.7392 2.28528 20.46528 1.75824 19.95232 1.23168 19.6792 0.73792 18.31136 1.00128 17.76432 0.47456 16.97808"></polygon>
                        <path d="M39.70704,37.94336 C39.70704,39.00368 38.84736,39.86336 37.78704,39.86336 L2.16,39.86336 C1.09968,39.86336 0.24,39.00368 0.24,37.94336 L0.24,2 C0.24,0.93968 1.09968,0.08 2.16,0.08 L37.78704,0.08 C38.84736,0.08 39.70704,0.93968 39.70704,2 L39.70704,37.94336 L39.70704,37.94336 Z" id="Border_2_" stroke="#000000" stroke-width="3"></path>
                        <g id="Group" transform="translate(3.520000, 30.080000)" fill="#000000">
                            <polygon id="Shape" points="0.09856 5.30048 0.09856 0.15488 0.81856 0.15488 0.81856 5.30048"></polygon>
                            <path d="M4.84704,2.7272 C4.84704,3.90368 4.60032,4.68368 4.10704,5.06704 C4.01488,5.15408 3.90736,5.21552 3.78448,5.2512 C3.6616,5.28688 3.52848,5.3048 3.38528,5.3048 L1.95696,5.3048 L1.95696,0.1648 L3.26992,0.1648 C3.49008,0.1648 3.6616,0.18032 3.78448,0.21088 C3.90736,0.24144 4.01472,0.2928 4.10704,0.36432 C4.26112,0.47184 4.39088,0.62256 4.49632,0.81696 C4.60176,1.01136 4.6776,1.23888 4.72384,1.49968 C4.75984,1.68912 4.78928,1.89104 4.81248,2.10576 C4.83552,2.32064 4.84704,2.52784 4.84704,2.7272 L4.84704,2.7272 Z M4.12704,2.7656 C4.12704,2.47392 4.11424,2.20144 4.08864,1.948 C4.06304,1.69472 4.02704,1.5144 3.98096,1.40688 C3.86304,1.05888 3.64,0.8848 3.312,0.8848 L2.69696,0.8848 L2.69696,4.5848 L3.312,4.5848 C3.41968,4.5848 3.51568,4.56432 3.60032,4.52336 C3.68496,4.4824 3.75776,4.4288 3.81936,4.36224 C3.88096,4.29568 3.93088,4.21776 3.96944,4.128 C4.00784,4.0384 4.03728,3.94496 4.05792,3.84784 C4.07328,3.68416 4.08864,3.51136 4.104,3.32976 C4.11936,3.14816 4.12704,2.96 4.12704,2.7656 L4.12704,2.7656 Z" id="Shape"></path>
                            <path d="M8.0096,5.30032 L7.64864,3.89488 L6.54272,3.89488 L6.2048,5.30032 L5.45984,5.30032 L6.74256,0.15488 L7.46448,0.15488 L8.74704,5.30032 L8.0096,5.30032 L8.0096,5.30032 Z M7.08784,1.69264 L6.72688,3.17488 L7.46416,3.17488 L7.08784,1.69264 L7.08784,1.69264 Z" id="Shape"></path>
                            <polygon id="Shape" points="11.60256 5.30192 11.60256 2.97488 10.19248 2.97488 10.19248 5.30192 9.45248 5.30192 9.45248 0.15488 10.19248 0.15488 10.19248 2.25488 11.60256 2.25488 11.60256 0.15488 12.34256 0.15488 12.34256 5.30192"></polygon>
                            <path d="M16.39152,2.72224 C16.39152,3.11664 16.3696,3.452 16.32624,3.72832 C16.28272,4.00496 16.20704,4.26592 16.09952,4.51168 C15.97136,4.81904 15.81136,5.04304 15.6192,5.18384 C15.42704,5.32448 15.18496,5.39488 14.89312,5.39488 C14.5856,5.39488 14.336,5.32448 14.14368,5.18384 C13.95152,5.04304 13.79152,4.81904 13.66352,4.51168 C13.55584,4.26096 13.48016,3.99856 13.4368,3.72464 C13.39328,3.45072 13.37152,3.11664 13.37152,2.72224 C13.37152,2.33312 13.39328,1.99904 13.4368,1.72 C13.48016,1.44096 13.55584,1.17856 13.66352,0.93264 C13.79664,0.62544 13.95936,0.404 14.15152,0.26848 C14.34352,0.1328 14.59072,0.06496 14.89312,0.06496 C15.19008,0.06496 15.43344,0.13296 15.6232,0.26848 C15.8128,0.40416 15.97152,0.63072 16.09968,0.94816 C16.15088,1.07616 16.19584,1.20416 16.23424,1.332 C16.27264,1.46016 16.30336,1.59456 16.3264,1.73536 C16.34944,1.87616 16.36592,2.0272 16.37632,2.18848 C16.38672,2.34976 16.39152,2.52768 16.39152,2.72224 L16.39152,2.72224 Z M15.68144,2.72224 C15.68144,2.57888 15.6776,2.448 15.66992,2.33024 C15.66224,2.21248 15.65216,2.10352 15.63936,2.00352 C15.62656,1.90352 15.60992,1.80736 15.5896,1.7152 C15.56912,1.62304 15.54624,1.53072 15.52064,1.4384 C15.45424,1.20784 15.3712,1.04128 15.27168,0.93872 C15.17216,0.83616 15.04592,0.78496 14.8928,0.78496 C14.57632,0.78496 14.35952,0.99776 14.24224,1.42304 C14.18096,1.61776 14.13888,1.81376 14.11584,2.0112 C14.0928,2.20864 14.08144,2.45072 14.08144,2.7376 C14.08144,2.876 14.08512,3.00288 14.0928,3.11824 C14.10048,3.2336 14.11056,3.34128 14.12336,3.44128 C14.13616,3.54128 14.1528,3.63984 14.17328,3.73728 C14.1936,3.83456 14.21664,3.9344 14.24224,4.03696 C14.35952,4.4624 14.57648,4.67504 14.8928,4.67504 C15.04592,4.67504 15.17216,4.62384 15.27168,4.52128 C15.3712,4.41872 15.45424,4.25744 15.52064,4.03696 C15.5512,3.9344 15.5768,3.83584 15.59728,3.74096 C15.6176,3.64624 15.63408,3.54752 15.64704,3.44496 C15.66,3.3424 15.6688,3.2336 15.67392,3.11824 C15.67888,3.00288 15.68144,2.87088 15.68144,2.72224 L15.68144,2.72224 Z" id="Shape"></path>
                        </g>
                    </g>
                </g>
            </g>
        </g>
    </g>
</svg>