<?xml version="1.0" encoding="UTF-8" standalone="no"?>
<svg width="40px" height="40px" viewBox="0 0 40 40" version="1.1" xmlns="http://www.w3.org/2000/svg" xmlns:xlink="http://www.w3.org/1999/xlink">
    <!-- Generator: Sketch 3.8.3 (29802) - http://www.bohemiancoding.com/sketch -->
    <title>US-IA-2</title>
    <desc>Created with Sketch.</desc>
    <defs></defs>
    <g id="Icons-{2}" stroke="none" stroke-width="1" fill="none" fill-rule="evenodd">
        <g id="US-IA-2">
            <g>
                <path d="M0,2.5 C0,1.11928304 1.11928304,0 2.5,0 L37.5,0 C38.8806152,0 40,1.11928304 40,2.5 L40,37.5 C40,38.8806152 38.8806152,40 37.5,40 L2.5,40 C1.11928304,40 0,38.8806152 0,37.5 L0,2.5 L0,2.5 L0,2.5 Z" id="Shape" fill="#000000"></path>
                <path d="M20,38.3333333 C30.1252204,38.3333333 38.3333333,30.1252204 38.3333333,20 C38.3333333,9.87477959 30.1252204,1.66666667 20,1.66666667 C9.87477959,1.66666667 1.66666667,9.87477959 1.66666667,20 C1.66666667,30.1252204 9.87477959,38.3333333 20,38.3333333 Z" id="Oval" fill="#FFFFFF"></path>
            </g>
        </g>
    </g>
</svg>