<?xml version="1.0" encoding="UTF-8" standalone="no"?>
<svg width="60px" height="40px" viewBox="0 0 60 40" version="1.1" xmlns="http://www.w3.org/2000/svg" xmlns:xlink="http://www.w3.org/1999/xlink">
    <!-- Generator: Sketch 3.8.3 (29802) - http://www.bohemiancoding.com/sketch -->
    <title>US-KS-3</title>
    <desc>Created with Sketch.</desc>
    <defs></defs>
    <g id="Icons-{3}" stroke="none" stroke-width="1" fill="none" fill-rule="evenodd">
        <g id="US-KS-3">
            <g>
                <rect id="rect2987" fill="#000000" x="0" y="0" width="60" height="40" rx="3"></rect>
                <polygon id="path2018" fill="#F7D117" points="32.069156 1.935476 31.889293 1.90739847 31.717228 1.8716416 31.545164 1.82572573 31.380538 1.7746902 31.219872 1.7185352 31.066766 1.65478087 30.917619 1.58334713 30.776031 1.50679387 30.642244 1.42512107 30.515893 1.33840873 30.393384 1.24657693 30.282394 1.14962547 30.179204 1.0501142 30.087291 0.943083733 30.003059 0.8333334 29.918827 0.945643533 29.823074 1.052754 29.719764 1.15218527 29.608774 1.24913667 29.490104 1.34352827 29.360036 1.43024067 29.226128 1.51183347 29.080822 1.58582693 28.931554 1.6572606 28.778447 1.721015 28.617782 1.77717 28.449436 1.82820547 28.280971 1.87156167 28.105068 1.90723847 27.925323 1.9377958 27.74162 1.958194 27.473803 1.9938708 27.217506 2.04746607 26.968768 2.1137802 26.735269 2.19289327 26.509449 2.28472513 26.302827 2.39183567 26.107724 2.50662553 25.927981 2.63413427 25.767315 2.77188207 25.625727 2.91730927 25.499498 3.07041573 25.396188 3.23112147 25.311955 3.3994266 25.254599 3.57285133 25.216443 3.75139547 25.204924 3.93505927 25.113012 3.79747127 25.005862 3.66740273 24.887192 3.54493353 24.753285 3.42766393 24.604138 3.3179936 24.447311 3.2184824 24.279087 3.1240908 24.103182 3.03993813 23.915637 2.96346493 23.724375 2.89459107 23.521592 2.8358762 23.314972 2.78740053 23.10067 2.75164367 22.88265 2.7235662 22.660669 2.70572773 22.434849 2.70060773 22.20135 2.7057264 21.967971 2.726125 21.730752 2.75676227 21.504931 2.79755867 21.286911 2.851074 21.099368 2.89443013 20.915784 2.9021094 20.743599 2.87155167 20.594333 2.8129168 20.448905 2.69556713 20.39155 2.58589687 20.380031 2.46598747 20.425987 2.35119767 20.552217 2.22616867 20.743599 2.1393764 20.915784 2.11137833 20.732201 2.10113967 20.395509 2.10370033 20.162131 2.1138594 19.928751 2.1342576 19.699211 2.16233513 19.477231 2.1955322 19.255372 2.2388884 19.041069 2.28736407 18.830608 2.34351907 18.623987 2.40471367 18.425404 2.47358767 18.230302 2.54758107 18.042758 2.62925393 17.859174 2.71596627 17.683151 2.80779807 17.514804 2.90474953 17.354138 3.00674053 17.201152 3.113851 17.055846 3.22608113 16.914258 3.3434308 16.788029 3.46589987 16.665639 3.59092887 16.554649 3.7209974 16.451339 3.85362567 16.355707 3.99137353 16.275314 4.13168113 16.202721 4.27454847 16.137687 4.4225354 16.087891 4.57300207 16.045775 4.7234688 16.015178 4.879055 15.995979 5.03464127 15.992139 5.19534707 15.999819 5.34589373 16.018897 5.49644047 16.049615 5.64954693 16.091611 5.80001367 16.141286 5.95048033 16.20248 6.09590747 16.271355 6.2413346 16.347908 6.3790824 16.12976 6.2490144 15.892422 6.1316648 15.639964 6.0321536 15.372147 5.948001 15.092812 5.88168687 14.809637 5.83321113 14.518903 5.80265387 14.224209 5.7924146 13.98699 5.80001393 13.753611 5.82049207 13.520112 5.8536092 13.290452 5.89696533 13.068471 5.95312033 12.85417 6.01951447 12.647549 6.09598773 12.452446 6.18014027 12.257343 6.26429293 12.050722 6.34076613 11.83642 6.40716027 11.614561 6.46331533 11.384901 6.50667147 11.151522 6.53978853 10.918022 6.5601068 10.680802 6.5652268 10.424505 6.5575474 10.168208 6.53458947 9.9157506 6.49891253 9.6708525 6.45043693 9.744046 6.61354247 9.7975613 6.78184733 9.831998 6.95271267 9.8435171 7.12357733 9.8358341 7.28172333 9.8051173 7.43738933 9.7592807 7.592976 9.6942465 7.74608267 9.6100145 7.89398933 9.5105429 8.03685667 9.395833 8.17460467 9.2657646 8.30467333 9.1356961 8.43474133 9.0209863 8.57248933 8.9215151 8.71535733 8.8372826 8.863344 8.7722483 9.01645 8.7264123 9.172036 8.6956951 9.32770267 8.6881361 9.48576867 8.703494 9.68223133 8.7454902 9.87605467 8.8182039 10.0648373 8.917675 10.2510607 9.0439039 10.4270453 9.1968903 10.5954307 9.369075 10.7536567 9.5641779 10.896524 9.2925219 10.8352493 9.0056273 10.786774 8.7109333 10.758776 8.420199 10.7485367 8.1905394 10.7536567 7.9647194 10.7714953 7.7427391 10.7995727 7.5245984 10.8403693 7.314137 10.8914047 7.1075153 10.9500393 6.9124126 11.0214727 6.7211494 11.1005867 6.5414053 11.1898587 6.3729404 11.28681 6.2161141 11.3913607 6.0668473 11.50615 5.9329393 11.62598 5.8143897 11.7534887 5.7110788 11.8861167 5.619167 12.026424 5.5313349 12.1310547 5.4012663 12.2126473 5.2404805 12.263604 5.0606164 12.2814433 4.8845921 12.263604 4.7278858 12.212328 4.5672202 12.1051373 4.4906669 12.0005067 4.4640303 11.8831573 4.4984666 11.7556487 4.5902585 11.6408593 4.3988754 11.7479693 4.2266907 11.8677987 4.0661449 11.9978673 3.9130384 12.1304953 3.7715709 12.2682433 3.6415025 12.4136707 3.5228329 12.5616567 3.419522 12.7146833 3.3238905 12.87035 3.2434976 13.028496 3.1746238 13.1917613 3.1172689 13.3551067 3.0752726 13.5208527 3.048515 13.6891573 3.033155 13.8575427 3.036994 14.0590447 3.044553 14.1763947 3.0637514 14.291184 3.0828297 14.405974 3.1478639 14.6304353 3.2359361 14.8497753 3.2894514 14.9594453 3.4156802 15.171186 3.5611073 15.3752487 3.7257328 15.5716307 3.9131562 15.760414 4.1236175 15.9389587 4.3494376 16.104784 4.5943359 16.26301 4.8544729 16.4084373 5.1338081 16.538506 5.4283821 16.6583347 5.5813685 16.7118507 5.8950208 16.806242 5.6233648 16.813922 5.3555484 16.83936 5.0915719 16.880156 4.8428339 16.9337507 4.5979356 17.002626 4.3682759 17.086778 4.1501351 17.18109 3.9435135 17.2882 3.7522504 17.4081093 3.5800657 17.538178 3.4232395 17.675926 3.2817721 17.8238327 3.1632226 17.9819787 3.0636314 18.1478047 2.9870782 18.3186693 2.9374025 18.4972133 2.9029656 18.6196027 2.8608493 18.739512 2.8034943 18.854222 2.7384602 18.969012 2.6619069 19.078682 2.5776743 19.1857927 2.4820428 19.2878627 2.3748924 19.3873747 2.2600626 19.4817667 2.1376733 19.5710387 2.0076049 19.6551913 1.8698569 19.734224 1.7244299 19.8107773 1.5751631 19.8771713 1.4146173 19.941006 1.2499919 19.9971607 1.418457 20.053316 1.5752831 20.1170707 1.7283895 20.1833847 1.8738166 20.2600173 2.0154042 20.33913 2.1454726 20.4258427 2.2640222 20.5151153 2.378732 20.6094273 2.4821628 20.7114973 2.5777943 20.8135687 2.6658666 20.9206793 2.7424198 21.0329087 2.807454 21.14514 2.8610893 21.2624093 2.9032056 21.382318 2.9376425 21.5047873 2.9873182 21.6832513 3.0638714 21.8541967 3.1634626 22.020102 3.282012 22.175608 3.4234794 22.3261553 3.5803058 22.4638227 3.7524904 22.5938913 3.9437535 22.7138 4.1503751 22.8209107 4.3685159 22.9153033 4.5981755 22.999456 4.8392342 23.0683293 5.0916919 23.1244047 5.3518288 23.1627213 5.6196452 23.1881587 5.8951407 23.195838 5.6923587 23.2571127 5.497256 23.328546 5.3136722 23.4076593 5.1376477 23.4969313 4.9731424 23.5964433 4.8238755 23.7009933 4.6822881 23.8132233 4.5560593 23.9304933 4.4409895 24.055442 4.3376787 24.1830307 4.2535661 24.3181387 4.1808524 24.4558867 4.1234976 24.5987533 4.0815012 24.7441813 4.0547436 24.892168 4.0470656 25.0427147 4.0585846 25.1983013 4.0853425 25.353968 4.1311785 25.5121933 4.1960928 25.66266 4.272526 25.8080073 4.3375603 25.9330367 4.3490793 26.0555853 4.3070833 26.1703747 4.2152914 26.269806 4.0391469 26.3667573 3.8746415 26.404994 3.6948974 26.412674 3.5227126 26.3820367 3.3351693 26.297884 3.2051007 26.1703747 3.1631048 26.0555853 3.1478678 26.1753347 3.1517088 26.3998747 3.1669475 26.5553813 3.1975447 26.7109673 3.239661 26.8639933 3.2894566 27.0119807 3.3544908 27.159968 3.4272044 27.3028353 3.511317 27.4430627 3.6032289 27.5808907 3.7065398 27.7134387 3.8175299 27.843588 3.940039 27.968616 4.0701075 28.0910047 4.2078554 28.2083547 4.3531625 28.3205853 4.5062689 28.427696 4.6669347 28.5296867 4.8352797 28.629198 5.0113042 28.7209493 5.194888 28.8051827 5.3824313 28.8868553 5.5775341 28.9607693 5.7764765 29.0296427 5.9830981 29.0933973 6.1935596 29.146992 6.4078606 29.1954673 6.629841 29.2388233 6.8555409 29.2719407 7.0812409 29.3000187 7.3146203 29.3204167 7.5479997 29.3332153 7.7890583 29.3356953 8.0148783 29.3306553 8.2406984 29.317936 8.4703581 29.297538 8.6961781 29.26946 8.9219982 29.2363433 9.1401387 29.1955473 9.3582794 29.1496313 9.5649012 29.098676 9.3697984 29.2441027 9.1976137 29.4021693 9.0446273 29.570554 8.9183984 29.7490987 8.8189273 29.9353213 8.7462136 30.1241053 8.7042174 30.317928 8.6888594 30.5143907 8.6964184 30.6724567 8.7270156 30.8280427 8.7768113 30.9836293 8.8418455 31.136656 8.9260781 31.2846433 9.0256692 31.42751 9.140499 31.5651773 9.2667278 31.695326 9.3929566 31.8253953 9.5077866 31.9630627 9.6072579 32.10601 9.69149 32.2539967 9.7565242 32.407024 9.8062001 32.5625293 9.8367975 32.718116 9.8444805 32.8762613 9.8329625 33.0471273 9.7985247 33.218072 9.7411701 33.3864567 9.6684572 33.5497227 9.9095148 33.503806 10.165812 33.4680493 10.42595 33.4450913 10.682246 33.437412 10.919465 33.442532 11.152966 33.46293 11.386345 33.4935673 11.616005 33.5369233 11.837865 33.5929993 12.052166 33.6567527 12.258787 33.7359467 12.45389 33.822658 12.648993 33.90937 12.855615 33.985924 13.069916 34.049758 13.291896 34.1058333 13.521556 34.14919 13.755056 34.1798273 13.988434 34.2002253 14.225654 34.2078253 14.520347 34.197666 14.811081 34.1670287 15.094257 34.1185527 15.373592 34.0522387 15.637568 33.968086 15.890145 33.8685753 16.127365 33.7512253 16.341547 33.6211573 16.249635 33.8048207 16.176921 33.9961633 16.134803 34.1925467 16.119444 34.3864493 16.127124 34.5394753 16.153882 34.690022 16.195878 34.8379293 16.257073 34.9834367 16.333626 35.123664 16.425538 35.2614113 16.528969 35.3914807 16.647518 35.5189893 16.781426 35.6388987 16.926733 35.7511287 17.083679 35.8557593 17.255744 35.9551907 17.435608 36.0444633 17.626873 36.1235753 17.825815 36.19245 18.036276 36.253644 18.193222 36.3122787 18.31561 36.3990713 18.392044 36.5061827 18.418802 36.6261713 18.392044 36.7436007 18.315491 36.8480713 18.154705 36.955262 17.997759 37.0062973 17.821615 37.0240567 17.630352 37.0010987 17.458286 36.939984 17.618833 37.0674927 17.798697 37.1822827 17.993799 37.2893933 18.192742 37.391384 18.399363 37.4856953 18.617505 37.572488 18.839485 37.6516013 19.069145 37.7203953 19.302523 37.78423 19.539743 37.8377447 19.78476 37.8836613 20.02966 37.921978 20.278397 37.9499753 20.530854 37.9678933 20.787152 37.9779733 21.089406 37.9754933 21.433775 37.9576553 21.60596 37.944936 21.942649 37.90158 22.27166 37.8428653 22.436166 37.8071887 22.753658 37.722956 23.059751 37.626004 23.354323 37.5163333 23.637499 37.3888253 23.905316 37.2509973 24.157774 37.1005313 24.391153 36.9372653 24.609173 36.7638407 24.808116 36.5776167 24.984021 36.381234 25.064293 36.2792433 25.137007 36.1746127 25.205881 36.067502 25.221239 36.251086 25.255557 36.42955 25.316752 36.6030547 25.397144 36.77144 25.500455 36.9321453 25.626684 37.085172 25.768271 37.2305993 25.928937 37.3683467 26.108681 37.495936 26.303784 37.6106453 26.510406 37.7178367 26.736225 37.809588 26.969724 37.8887013 27.218463 37.9550153 27.47476 38.0060507 27.742577 38.0418073 27.92628 38.0646853 28.106024 38.0927627 28.278208 38.1285193 28.450394 38.1744353 28.614899 38.2254707 28.775565 38.2816267 28.928671 38.3453813 29.077938 38.4168147 29.219405 38.493368 29.353313 38.57504 29.479542 38.661752 29.601931 38.7535847 29.712921 38.850376 29.816233 38.9498873 29.908144 39.056998 29.992376 39.166668 30.076609 39.054518 30.172241 38.9498873 30.275551 38.847896 30.386541 38.7509447 30.505211 38.6566333 30.635281 38.5699207 30.769189 38.488248 30.914496 38.4142547 31.063643 38.3429013 31.216749 38.2816267 31.377534 38.2229113 31.54588 38.171956 31.714104 38.1286 31.890009 38.0928427 32.069874 38.0647653 32.253578 38.0418873 32.521393 38.0061307 32.77781 37.9550947 33.026548 37.8887807 33.263648 37.8096687 33.485628 37.7179167 33.69225 37.6107253 33.887472 37.4960153 34.067216 37.3684267 34.228002 37.2306793 34.369469 37.085252 34.495699 36.932226 34.599009 36.77152 34.679403 36.6031347 34.740597 36.4296293 34.778874 36.2511653 34.790274 36.070062 34.882066 36.2052493 34.989337 36.335318 35.111726 36.4578667 35.245633 36.5751373 35.39106 36.684808 35.548006 36.7842387 35.716232 36.8785507 35.892257 36.9627827 36.07968 37.039256 36.274903 37.10813 36.473845 37.1642053 36.680346 37.2126813 36.894648 37.2509173 37.112909 37.2789953 37.334769 37.2968333 37.56059 37.3018733 37.794089 37.2942733 38.031308 37.276514 38.264807 37.2458767 38.490507 37.2026007 38.708648 37.1490047 38.896191 37.1056487 39.083734 37.0979693 39.25208 37.1286073 39.401347 37.187242 39.546654 37.3045913 39.604009 37.4142613 39.615528 37.5342507 39.569572 37.64904 39.48162 37.7485527 39.305596 37.842944 39.141089 37.88374 39.359111 37.9040593 39.596329 37.8990193 39.833548 37.88878 40.063208 37.868382 40.292747 37.8403047 40.514608 37.807188 40.736588 37.7638313 40.95089 37.7153553 41.161351 37.65928 41.367971 37.5980053 41.566914 37.529212 41.762018 37.4552187 41.94956 37.373546 42.133144 37.286834 42.309168 37.1950013 42.477514 37.0980507 42.638179 36.9960587 42.791285 36.888948 42.940433 36.7767187 43.078181 36.6593693 43.208249 36.53698 43.326799 36.4119507 43.437789 36.281882 43.540979 36.149254 43.636731 36.0114267 43.717004 35.871198 43.793678 35.7283313 43.854872 35.5803447 43.908387 35.432358 43.946664 35.2793307 43.977262 35.123744 43.99634 34.9682387 44.00018 34.8075327 43.99634 34.6569853 43.977261 34.5065193 43.942824 34.3534127 43.900827 34.202946 43.851031 34.0523993 43.789837 33.9044927 43.720963 33.7615453 43.64453 33.6238773 43.862671 33.7539453 44.09989 33.8686553 44.352468 33.9681667 44.620164 34.0523187 44.899498 34.1186327 45.182673 34.1671093 45.473528 34.1977467 45.768102 34.207906 46.005201 34.200306 46.23858 34.1799087 46.471959 34.1467913 46.7015 34.103354 46.92348 34.0472793 47.137901 33.9809653 47.344402 33.906972 47.539505 33.82282 47.734608 33.7361073 47.94123 33.662114 48.15553 33.5958 48.38135 33.5395647 48.60705 33.4962087 48.840429 33.4630913 49.073809 33.4426927 49.310908 33.4375727 49.567325 33.445252 49.823742 33.4682093 50.07632 33.5039667 50.321099 33.5498827 50.252346 33.3866173 50.198591 33.218232 50.164274 33.0472873 50.152752 32.8764227 50.160312 32.718276 50.190911 32.5626907 50.236867 32.407184 50.301901 32.2541573 50.386014 32.1061707 50.485485 31.9632233 50.600314 31.825556 50.730383 31.6954867 50.860451 31.565338 50.975401 31.4276707 51.074872 31.2848033 51.155145 31.136816 51.220299 30.98379 51.269975 30.8282033 51.296852 30.6726173 51.308252 30.5145507 51.292893 30.318088 51.246938 30.124266 51.174344 29.935482 51.074873 29.7492587 50.948525 29.5732747 50.799378 29.40489 50.623353 29.2493027 50.428251 29.103876 50.703746 29.1676307 50.990641 29.216106 51.285334 29.2441033 51.576069 29.2542627 51.809448 29.2492227 52.035269 29.231384 52.257128 29.2033073 52.475389 29.1625107 52.685731 29.1114753 52.888513 29.0502007 53.087455 28.9814067 53.274998 28.902214 53.450903 28.8130213 53.619247 28.71615 53.779913 28.6115193 53.925221 28.49681 54.05913 28.3769 54.177798 28.249392 54.284829 28.1142027 54.37674 27.9738953 54.464692 27.8693453 54.594761 27.790232 54.755427 27.7366367 54.935411 27.7188773 55.111556 27.7366367 55.268382 27.7876727 55.429048 27.8948627 55.505601 27.9994933 55.532359 28.1169233 55.497921 28.244432 55.40613 28.356742 55.597513 28.247152 55.769577 28.124762 55.930362 27.997174 56.083349 27.864546 56.224817 27.7268773 56.354885 27.58393 56.473555 27.4359427 56.580585 27.2854767 56.672497 27.1298907 56.752891 26.971824 56.821645 26.811118 56.87912 26.6452133 56.921236 26.479388 56.947993 26.3134827 56.963233 26.1426173 56.959393 25.941036 56.936473 25.7113753 56.913556 25.5965853 56.848521 25.372206 56.760449 25.1528647 56.706934 25.0431947 56.580584 24.831374 56.435278 24.6273913 56.270773 24.4310087 56.083228 24.242226 55.872767 24.0636813 55.646947 23.895296 55.402169 23.73971 55.141912 23.5942827 54.862696 23.461654 54.568003 23.3443847 54.415017 23.29079 54.25819 23.242394 54.097405 23.196478 54.37278 23.186312 54.640596 23.1633547 54.900733 23.1224773 55.153312 23.0689627 55.394369 23.0000887 55.623909 22.9159367 55.84217 22.821544 56.048792 22.7144333 56.240055 22.5945247 56.41596 22.464456 56.572906 22.3267887 56.710654 22.1762413 56.829324 22.0207353 56.928795 21.85483 57.009067 21.6838847 57.062823 21.5054207 57.093419 21.3829513 57.139256 21.2630427 57.192891 21.1483327 57.261765 21.033542 57.338318 20.923872 57.42255 20.8167613 57.518183 20.7146907 57.625333 20.6151793 57.740042 20.520868 57.862552 20.4315953 57.99262 20.3474427 58.130368 20.26577 58.275555 20.1917767 58.424821 20.1229033 58.585487 20.061708 58.749994 20.0055533 58.581767 19.949398 58.420982 19.8855633 58.271835 19.81669 58.126408 19.7426967 57.984941 19.663664 57.854873 19.5769513 57.732364 19.4876787 57.621374 19.390728 57.514343 19.291216 57.41859 19.1891453 57.334358 19.0820347 57.257925 18.9698047 57.192891 18.8575753 57.139376 18.7403053 57.09354 18.6203953 57.062942 18.4980067 57.009187 18.3194627 56.928914 18.148598 56.829443 17.9827713 56.710774 17.824626 56.573025 17.6767187 56.416079 17.5389713 56.240175 17.4089027 56.048911 17.2889927 55.842289 17.1818027 55.624029 17.084932 55.39449 17.0033387 55.153431 16.9344647 54.900853 16.8783093 54.640716 16.8375133 54.3729 16.8146347 54.097525 16.8043953 54.300307 16.7406407 54.495409 16.6691273 54.679112 16.5875353 54.855017 16.5008227 55.015802 16.4013113 55.16891 16.29676 55.310377 16.18709 55.436606 16.06982 55.551436 15.9447913 55.654747 15.8172833 55.742818 15.682094 55.815412 15.5443473 55.872887 15.40404 55.914883 15.2586127 55.941641 15.1106253 55.949321 14.960078 55.941641 14.804492 55.911043 14.6464267 55.865087 14.4907593 55.800173 14.3402133 55.72362 14.194786 55.654865 14.0698373 55.643346 13.944888 55.689062 13.832658 55.777014 13.7331473 55.953039 13.636196 56.117544 13.5980393 56.297529 13.59036 56.469714 13.6209167 56.661097 13.7050693 56.787446 13.832658 56.833283 13.944888 56.848523 13.8249787 56.844683 13.6005193 56.829444 13.4449327 56.798846 13.289346 56.756611 13.1362393 56.706935 12.9883327 56.6419 12.840346 56.569306 12.6974787 56.485074 12.5571707 56.393283 12.4194233 56.289971 12.2867953 56.17898 12.156726 56.056471 12.0316973 55.926403 11.909308 55.788656 11.7919587 55.643348 11.6797287 55.490362 11.572618 55.329577 11.4706267 55.161231 11.3736753 54.985206 11.279284 54.801622 11.1951313 54.61408 11.1134587 54.418977 11.0394653 54.220034 10.9705913 54.013414 10.9068367 53.802952 10.8533213 53.58865 10.804846 53.36679 10.76149 53.14097 10.7282927 52.915271 10.7002153 52.681891 10.6798167 52.448511 10.667018 52.207453 10.664458 51.981633 10.669578 51.755933 10.6822973 51.526394 10.702776 51.300573 10.7307733 51.074873 10.76389 50.852893 10.8046867 50.638472 10.8506027 50.431971 10.901638 50.627074 10.7562107 50.799257 10.5979853 50.948404 10.4296793 51.074753 10.2511353 51.174225 10.064912 51.246818 9.87612933 51.292774 9.682306 51.308133 9.48584333 51.296733 9.32777733 51.266015 9.17211067 51.216339 9.01652467 51.151305 8.86341867 51.067192 8.71543133 50.967721 8.572564 50.856731 8.434816 50.730383 8.304748 50.600314 8.17467933 50.489324 8.03693067 50.389853 7.894064 50.305621 7.74615733 50.240587 7.59305067 50.190791 7.437464 50.160192 7.281798 50.152632 7.123572 50.164152 6.95270733 50.19847 6.781842 50.255945 6.613537 50.328657 6.4501914 50.083758 6.49866713 49.83118 6.534344 49.570924 6.55730193 49.310787 6.56498133 49.073688 6.55986133 48.840308 6.53946307 48.606929 6.5088258 48.381229 6.46546967 48.155409 6.4093146 47.941109 6.3430004 47.734487 6.2665272 47.539383 6.1798148 47.34428 6.09310253 47.137779 6.01654927 46.923358 5.95023513 46.701378 5.89416007 46.471838 5.85080393 46.238459 5.8201666 46.00508 5.79968847 45.767981 5.79208913 45.473408 5.80232847 45.182552 5.83288573 44.899378 5.8813614 44.620042 5.9476756 44.356066 6.03182813 44.103489 6.13381913 43.870229 6.24860893 43.651968 6.37867747 43.74772 6.19757347 43.820314 6.0062304 43.86231 5.8098478 43.877669 5.61602493 43.870109 5.4629184 43.843231 5.31237167 43.801235 5.1644648 43.73992 5.0190376 43.663368 4.87873 43.571574 4.7409822 43.468264 4.61091373 43.349594 4.483405 43.215686 4.3635756 43.070379 4.25134553 42.913433 4.1467148 42.741368 4.04720353 42.561504 3.9604912 42.370241 3.8788184 42.167459 3.80994453 41.956998 3.74866993 41.800292 3.69003507 41.681503 3.6033228 41.601229 3.49613233 41.57447 3.37622287 41.601229 3.2588732 41.677783 3.15432247 41.838449 3.04713193 41.995395 2.99617647 42.171538 2.97833867 42.362922 3.00129627 42.535106 3.0624908 42.37828 2.93498213 42.194576 2.8202722 42.003194 2.7131618 41.804252 2.61117073 41.59379 2.51677907 41.378169 2.43022673 41.156189 2.35119373 40.926649 2.27976007 40.69327 2.21856547 40.456171 2.16497013 40.211153 2.11905427 39.966134 2.0808176 39.717396 2.05274007 39.464819 2.03490167 39.21224 2.02474233 38.909867 2.02730167 38.733843 2.03242167 38.561659 2.04258073 38.389354 2.05785947 38.052784 2.1012156 37.723772 2.1599304 37.559267 2.19560727 37.241655 2.27975987 36.935682 2.37671127 36.640987 2.48638153 36.357813 2.61133053 36.089997 2.75163807 35.841259 2.9021848 35.60404 3.06537047 35.385779 3.238795 35.190676 3.42501867 35.010813 3.62140127 34.930539 3.72347227 34.857827 3.82802293 34.789072 3.93513353 34.777672 3.75146973 34.739395 3.57292553 34.678201 3.3995008 34.597807 3.23119573 34.494497 3.07049 34.368267 2.91738353 34.2268 2.77195633 34.066014 2.63420853 33.88627 2.5066998 33.691048 2.39190987 33.484426 2.28735913 33.262446 2.19296747 33.025346 2.11385447 32.776608 2.04754033 32.520191 1.99650487 32.252855 1.960908"></polygon>
            </g>
        </g>
    </g>
</svg>