<?xml version="1.0" encoding="UTF-8" standalone="no"?>
<svg width="40px" height="40px" viewBox="0 0 40 40" version="1.1" xmlns="http://www.w3.org/2000/svg" xmlns:xlink="http://www.w3.org/1999/xlink">
    <!-- Generator: Sketch 3.8.3 (29802) - http://www.bohemiancoding.com/sketch -->
    <title>US-KS-2</title>
    <desc>Created with Sketch.</desc>
    <defs></defs>
    <g id="Icons-{2}" stroke="none" stroke-width="1" fill="none" fill-rule="evenodd">
        <g id="US-KS-2">
            <g>
                <rect id="rect2987" fill="#000000" x="0" y="0" width="40" height="40" rx="3"></rect>
                <polygon id="path2018" fill="#F7D117" points="21.3794373 1.935476 21.2595287 1.90739847 21.1448187 1.8716416 21.0301093 1.82572573 20.9203587 1.7746902 20.813248 1.7185352 20.7111773 1.65478087 20.611746 1.58334713 20.517354 1.50679387 20.4281627 1.42512107 20.3439287 1.33840873 20.262256 1.24657693 20.1882627 1.14962547 20.1194693 1.0501142 20.058194 0.943083733 20.0020393 0.8333334 19.9458847 0.945643533 19.8820493 1.052754 19.813176 1.15218527 19.7391827 1.24913667 19.6600693 1.34352827 19.5733573 1.43024067 19.4840853 1.51183347 19.3872147 1.58582693 19.2877027 1.6572606 19.1856313 1.721015 19.0785213 1.77717 18.9662907 1.82820547 18.8539807 1.87156167 18.736712 1.90723847 18.616882 1.9377958 18.4944133 1.958194 18.3158687 1.9938708 18.145004 2.04746607 17.9791787 2.1137802 17.8235127 2.19289327 17.672966 2.28472513 17.535218 2.39183567 17.4051493 2.50662553 17.2853207 2.63413427 17.17821 2.77188207 17.083818 2.91730927 16.9996653 3.07041573 16.930792 3.23112147 16.8746367 3.3994266 16.8363993 3.57285133 16.810962 3.75139547 16.8032827 3.93505927 16.742008 3.79747127 16.6705747 3.66740273 16.5914613 3.54493353 16.50219 3.42766393 16.4027587 3.3179936 16.2982073 3.2184824 16.186058 3.1240908 16.068788 3.03993813 15.943758 2.96346493 15.81625 2.89459107 15.6810613 2.8358762 15.5433147 2.78740053 15.4004467 2.75164367 15.2551 2.7235662 15.1071127 2.70572773 14.956566 2.70060773 14.8009 2.7057264 14.645314 2.726125 14.487168 2.75676227 14.3366207 2.79755867 14.191274 2.851074 14.0662453 2.89443013 13.943856 2.9021094 13.829066 2.87155167 13.7295553 2.8129168 13.6326033 2.69556713 13.5943667 2.58589687 13.5866873 2.46598747 13.6173247 2.35119767 13.701478 2.22616867 13.829066 2.1393764 13.943856 2.11137833 13.8214673 2.10113967 13.597006 2.10370033 13.4414207 2.1138594 13.285834 2.1342576 13.1328073 2.16233513 12.9848207 2.1955322 12.8369147 2.2388884 12.694046 2.28736407 12.5537387 2.34351907 12.4159913 2.40471367 12.2836027 2.47358767 12.1535347 2.54758107 12.0285053 2.62925393 11.906116 2.71596627 11.7887673 2.80779807 11.676536 2.90474953 11.5694253 3.00674053 11.4674347 3.113851 11.370564 3.22608113 11.276172 3.3434308 11.1920193 3.46589987 11.110426 3.59092887 11.0364327 3.7209974 10.9675593 3.85362567 10.9038047 3.99137353 10.8502093 4.13168113 10.801814 4.27454847 10.758458 4.4225354 10.7252607 4.57300207 10.6971833 4.7234688 10.6767853 4.879055 10.663986 5.03464127 10.661426 5.19534707 10.666546 5.34589373 10.6792647 5.49644047 10.6997433 5.64954693 10.7277407 5.80001367 10.7608573 5.95048033 10.8016533 6.09590747 10.84757 6.2413346 10.8986053 6.3790824 10.7531733 6.2490144 10.594948 6.1316648 10.4266427 6.0321536 10.248098 5.948001 10.0618747 5.88168687 9.87309133 5.83321113 9.67926867 5.80265387 9.482806 5.7924146 9.32466 5.80001393 9.169074 5.82049207 9.013408 5.8536092 8.86030133 5.89696533 8.712314 5.95312033 8.56944667 6.01951447 8.43169933 6.09598773 8.30163067 6.18014027 8.171562 6.26429293 8.03381467 6.34076613 7.89094667 6.40716027 7.74304067 6.46331533 7.589934 6.50667147 7.434348 6.53978853 7.27868133 6.5601068 7.12053467 6.5652268 6.94967 6.5575474 6.77880533 6.53458947 6.6105004 6.49891253 6.447235 6.45043693 6.49603067 6.61354247 6.53170753 6.78184733 6.55466533 6.95271267 6.56234473 7.12357733 6.55722273 7.28172333 6.53674487 7.43738933 6.50618713 7.592976 6.462831 7.74608267 6.40667633 7.89398933 6.34036193 8.03685667 6.26388867 8.17460467 6.1771764 8.30467333 6.09046407 8.43474133 6.01399087 8.57248933 5.94767673 8.71535733 5.89152173 8.863344 5.84816553 9.01645 5.8176082 9.172036 5.79713007 9.32770267 5.79209073 9.48576867 5.80232933 9.68223133 5.8303268 9.87605467 5.8788026 10.0648373 5.94511667 10.2510607 6.02926927 10.4270453 6.1312602 10.5954307 6.24605 10.7536567 6.3761186 10.896524 6.1950146 10.8352493 6.00375153 10.786774 5.80728887 10.758776 5.613466 10.7485367 5.4603596 10.7536567 5.30981293 10.7714953 5.16182607 10.7995727 5.01639893 10.8403693 4.87609133 10.8914047 4.73834353 10.9500393 4.60827507 11.0214727 4.48076627 11.1005867 4.36093687 11.1898587 4.24862693 11.28681 4.14407607 11.3913607 4.04456487 11.50615 3.95529287 11.62598 3.8762598 11.7534887 3.80738587 11.8861167 3.74611133 12.026424 3.6875566 12.1310547 3.6008442 12.2126473 3.49365367 12.263604 3.37374427 12.2814433 3.25639473 12.263604 3.15192387 12.212328 3.04481347 12.1051373 2.99377793 12.0005067 2.9760202 11.8831573 2.99897773 11.7556487 3.06017233 11.6408593 2.9325836 11.7479693 2.8177938 11.8677987 2.71076327 11.9978673 2.60869227 12.1304953 2.5143806 12.2682433 2.42766833 12.4136707 2.34855527 12.5616567 2.27968133 12.7146833 2.215927 12.87035 2.16233173 13.028496 2.11641587 13.1917613 2.07817927 13.3551067 2.05018173 13.5208527 2.03234333 13.6891573 2.02210333 13.8575427 2.02466267 14.0590447 2.029702 14.1763947 2.04250093 14.291184 2.0552198 14.405974 2.09857593 14.6304353 2.15729073 14.8497753 2.1929676 14.9594453 2.27712013 15.171186 2.37407153 15.3752487 2.48382187 15.5716307 2.6087708 15.760414 2.74907833 15.9389587 2.89962507 16.104784 3.0628906 16.26301 3.23631527 16.4084373 3.42253873 16.538506 3.6189214 16.6583347 3.72091233 16.7118507 3.93001387 16.806242 3.74890987 16.813922 3.5703656 16.83936 3.39438127 16.880156 3.22855593 16.9337507 3.0652904 17.002626 2.91218393 17.086778 2.76675673 17.18109 2.629009 17.2882 2.50150027 17.4081093 2.38671047 17.538178 2.28215967 17.675926 2.18784807 17.8238327 2.10881507 17.9819787 2.04242093 18.1478047 1.99138547 18.3186693 1.95826833 18.4972133 1.9353104 18.6196027 1.90723287 18.739512 1.8689962 18.854222 1.82564013 18.969012 1.7746046 19.078682 1.71844953 19.1857927 1.6546952 19.2878627 1.5832616 19.3873747 1.5067084 19.4817667 1.42511553 19.5710387 1.33840327 19.6551913 1.24657127 19.734224 1.14961993 19.8107773 1.05010873 19.8771713 0.9430782 19.941006 0.833327933 19.9971607 0.945638 20.053316 1.05018873 20.1170707 1.15225967 20.1833847 1.24921107 20.2600173 1.3436028 20.33913 1.43031507 20.4258427 1.50934813 20.5151153 1.58582133 20.6094273 1.6547752 20.7114973 1.71852953 20.8135687 1.7772444 20.9206793 1.82827987 21.0329087 1.871636 21.14514 1.90739287 21.2624093 1.9354704 21.382318 1.95842833 21.5047873 1.99154547 21.6832513 2.04258093 21.8541967 2.10897507 22.020102 2.188008 22.175608 2.2823196 22.3261553 2.38687053 22.4638227 2.50166027 22.5938913 2.629169 22.7138 2.76691673 22.8209107 2.91234393 22.9153033 3.06545033 22.999456 3.22615613 23.0683293 3.39446127 23.1244047 3.56788587 23.1627213 3.74643013 23.1881587 3.9300938 23.195838 3.7949058 23.2571127 3.66483733 23.328546 3.54244813 23.4076593 3.42509847 23.4969313 3.31542827 23.5964433 3.215917 23.7009933 3.1215254 23.8132233 3.03737287 23.9304933 2.96065967 24.055442 2.8917858 24.1830307 2.83571073 24.3181387 2.78723493 24.4558867 2.7489984 24.5987533 2.7210008 24.7441813 2.7031624 24.892168 2.69804373 25.0427147 2.70572307 25.1983013 2.72356167 25.353968 2.754119 25.5121933 2.7973952 25.66266 2.84835067 25.8080073 2.89170687 25.9330367 2.8993862 26.0555853 2.87138887 26.1703747 2.81019427 26.269806 2.6927646 26.3667573 2.58309433 26.404994 2.46326493 26.412674 2.34847507 26.3820367 2.2234462 26.297884 2.1367338 26.1703747 2.10873653 26.0555853 2.09857853 26.1753347 2.1011392 26.3998747 2.11129833 26.5553813 2.13169647 26.7109673 2.159774 26.8639933 2.19297107 27.0119807 2.2363272 27.159968 2.28480293 27.3028353 2.340878 27.4430627 2.4021526 27.5808907 2.47102653 27.7134387 2.54501993 27.843588 2.62669267 27.968616 2.713405 28.0910047 2.80523693 28.2083547 2.90210833 28.3205853 3.00417927 28.427696 3.1112898 28.5296867 3.2235198 28.629198 3.34086947 28.7209493 3.46325867 28.8051827 3.58828753 28.8868553 3.71835607 28.9607693 3.85098433 29.0296427 3.98873207 29.0933973 4.12903973 29.146992 4.27190707 29.1954673 4.419894 29.2388233 4.5703606 29.2719407 4.72082727 29.3000187 4.87641353 29.3204167 5.0319998 29.3332153 5.19270553 29.3356953 5.3432522 29.3306553 5.49379893 29.317936 5.6469054 29.297538 5.79745207 29.26946 5.9479988 29.2363433 6.0934258 29.1955473 6.23885293 29.1496313 6.3766008 29.098676 6.24653227 29.2441027 6.13174247 29.4021693 6.02975153 29.570554 5.94559893 29.7490987 5.87928487 29.9353213 5.83080907 30.1241053 5.8028116 30.317928 5.79257293 30.5143907 5.79761227 30.6724567 5.8180104 30.8280427 5.85120753 30.9836293 5.89456367 31.136656 5.95071873 31.2846433 6.0171128 31.42751 6.093666 31.5651773 6.17781853 31.695326 6.26197107 31.8253953 6.3385244 31.9630627 6.4048386 32.10601 6.46099333 32.2539967 6.50434947 32.407024 6.53746673 32.5625293 6.557865 32.718116 6.562987 32.8762613 6.55530833 33.0471273 6.5323498 33.218072 6.4941134 33.3864567 6.44563813 33.5497227 6.6063432 33.503806 6.777208 33.4680493 6.95063333 33.4450913 7.12149733 33.437412 7.27964333 33.442532 7.43531067 33.46293 7.59089667 33.4935673 7.74400333 33.5369233 7.89191 33.5929993 8.03477733 33.6567527 8.17252467 33.7359467 8.30259333 33.822658 8.432662 33.90937 8.57041 33.985924 8.71327733 34.049758 8.861264 34.1058333 9.01437067 34.14919 9.17003733 34.1798273 9.32562267 34.2002253 9.48376933 34.2078253 9.68023133 34.197666 9.874054 34.1670287 10.062838 34.1185527 10.2490613 34.0522387 10.4250453 33.968086 10.59343 33.8685753 10.7515767 33.7512253 10.8943647 33.6211573 10.83309 33.8048207 10.784614 33.9961633 10.7565353 34.1925467 10.746296 34.3864493 10.751416 34.5394753 10.7692547 34.690022 10.797252 34.8379293 10.8380487 34.9834367 10.889084 35.123664 10.9503587 35.2614113 11.0193127 35.3914807 11.0983453 35.5189893 11.1876173 35.6388987 11.2844887 35.7511287 11.3891193 35.8557593 11.5038293 35.9551907 11.6237387 36.0444633 11.7512487 36.1235753 11.8838767 36.19245 12.024184 36.253644 12.1288147 36.3122787 12.2104067 36.3990713 12.2613627 36.5061827 12.2792013 36.6261713 12.2613627 36.7436007 12.2103273 36.8480713 12.1031367 36.955262 11.998506 37.0062973 11.8810767 37.0240567 11.753568 37.0010987 11.6388573 36.939984 11.7458887 37.0674927 11.865798 37.1822827 11.995866 37.2893933 12.1284947 37.391384 12.266242 37.4856953 12.41167 37.572488 12.5596567 37.6516013 12.7127633 37.7203953 12.8683487 37.78423 13.0264953 37.8377447 13.18984 37.8836613 13.3531067 37.921978 13.5189313 37.9499753 13.687236 37.9678933 13.8581013 37.9779733 14.059604 37.9754933 14.2891833 37.9576553 14.4039733 37.944936 14.6284327 37.90158 14.8477733 37.8428653 14.957444 37.8071887 15.1691053 37.722956 15.3731673 37.626004 15.5695487 37.5163333 15.7583327 37.3888253 15.9368773 37.2509973 16.1051827 37.1005313 16.2607687 36.9372653 16.4061153 36.7638407 16.538744 36.5776167 16.656014 36.381234 16.7095287 36.2792433 16.7580047 36.1746127 16.8039207 36.067502 16.8141593 36.251086 16.837038 36.42955 16.8778347 36.6030547 16.9314293 36.77144 17.0003033 36.9321453 17.084456 37.085172 17.1788473 37.2305993 17.285958 37.3683467 17.4057873 37.495936 17.535856 37.6106453 17.673604 37.7178367 17.82415 37.809588 17.979816 37.8887013 18.145642 37.9550153 18.3165067 38.0060507 18.4950513 38.0418073 18.61752 38.0646853 18.7373493 38.0927627 18.8521387 38.1285193 18.9669293 38.1744353 19.0765993 38.2254707 19.18371 38.2816267 19.2857807 38.3453813 19.385292 38.4168147 19.4796033 38.493368 19.5688753 38.57504 19.653028 38.661752 19.7346207 38.7535847 19.808614 38.850376 19.8774887 38.9498873 19.9387627 39.056998 19.9949173 39.166668 20.0510727 39.054518 20.1148273 38.9498873 20.1837007 38.847896 20.257694 38.7509447 20.3368073 38.6566333 20.4235207 38.5699207 20.5127927 38.488248 20.609664 38.4142547 20.7090953 38.3429013 20.811166 38.2816267 20.918356 38.2229113 21.0305867 38.171956 21.142736 38.1286 21.260006 38.0928427 21.379916 38.0647653 21.5023853 38.0418873 21.6809287 38.0061307 21.8518733 37.9550947 22.0176987 37.8887807 22.1757653 37.8096687 22.323752 37.7179167 22.4615 37.6107253 22.591648 37.4960153 22.7114773 37.3684267 22.818668 37.2306793 22.9129793 37.085252 22.9971327 36.932226 23.066006 36.77152 23.119602 36.6031347 23.160398 36.4296293 23.185916 36.2511653 23.193516 36.070062 23.2547107 36.2052493 23.3262247 36.335318 23.4078173 36.4578667 23.4970887 36.5751373 23.59404 36.684808 23.6986707 36.7842387 23.8108213 36.8785507 23.9281713 36.9627827 24.05312 37.039256 24.1832687 37.10813 24.3158967 37.1642053 24.453564 37.2126813 24.596432 37.2509173 24.7419393 37.2789953 24.889846 37.2968333 25.0403933 37.3018733 25.1960593 37.2942733 25.3542053 37.276514 25.5098713 37.2458767 25.660338 37.2026007 25.8057653 37.1490047 25.930794 37.1056487 26.0558227 37.0979693 26.1680533 37.1286073 26.2675647 37.187242 26.364436 37.3045913 26.4026727 37.4142613 26.410352 37.5342507 26.3797147 37.64904 26.32108 37.7485527 26.2037307 37.842944 26.0940593 37.88374 26.2394073 37.9040593 26.3975527 37.8990193 26.5556987 37.88878 26.7088053 37.868382 26.8618313 37.8403047 27.0097387 37.807188 27.1577253 37.7638313 27.3005933 37.7153553 27.4409007 37.65928 27.5786473 37.5980053 27.711276 37.529212 27.8413453 37.4552187 27.9663733 37.373546 28.0887627 37.286834 28.206112 37.1950013 28.3183427 37.0980507 28.4254527 36.9960587 28.5275233 36.888948 28.6269553 36.7767187 28.7187873 36.6593693 28.8054993 36.53698 28.8845327 36.4119507 28.958526 36.281882 29.0273193 36.149254 29.091154 36.0114267 29.1446693 35.871198 29.1957853 35.7283313 29.2365813 35.5803447 29.272258 35.432358 29.297776 35.2793307 29.3181747 35.123744 29.3308933 34.9682387 29.3334533 34.8075327 29.3308933 34.6569853 29.318174 34.5065193 29.295216 34.3534127 29.267218 34.202946 29.2340207 34.0523993 29.1932247 33.9044927 29.1473087 33.7615453 29.0963533 33.6238773 29.2417807 33.7539453 29.3999267 33.8686553 29.568312 33.9681667 29.746776 34.0523187 29.9329987 34.1186327 30.121782 34.1671093 30.3156853 34.1977467 30.512068 34.207906 30.670134 34.200306 30.82572 34.1799087 30.981306 34.1467913 31.1343333 34.103354 31.28232 34.0472793 31.4252673 33.9809653 31.5629347 33.906972 31.6930033 33.82282 31.823072 33.7361073 31.96082 33.662114 32.1036867 33.5958 32.2542333 33.5395647 32.4047 33.4962087 32.560286 33.4630913 32.7158727 33.4426927 32.8739387 33.4375727 33.0448833 33.445252 33.215828 33.4682093 33.3842133 33.5039667 33.5473993 33.5498827 33.501564 33.3866173 33.4657273 33.218232 33.4428493 33.0472873 33.435168 32.8764227 33.440208 32.718276 33.4606073 32.5626907 33.4912447 32.407184 33.5346007 32.2541573 33.590676 32.1061707 33.65699 31.9632233 33.7335427 31.825556 33.8202553 31.6954867 33.9069673 31.565338 33.9836007 31.4276707 34.0499147 31.2848033 34.10343 31.136816 34.146866 30.98379 34.1799833 30.8282033 34.1979013 30.6726173 34.2055013 30.5145507 34.195262 30.318088 34.1646253 30.124266 34.1162293 29.935482 34.0499153 29.7492587 33.9656833 29.5732747 33.866252 29.40489 33.748902 29.2493027 33.618834 29.103876 33.8024973 29.1676307 33.9937607 29.216106 34.1902227 29.2441033 34.384046 29.2542627 34.539632 29.2492227 34.6901793 29.231384 34.8380853 29.2033073 34.9835927 29.1625107 35.1238207 29.1114753 35.2590087 29.0502007 35.3916367 28.9814067 35.5166653 28.902214 35.6339353 28.8130213 35.7461647 28.71615 35.8532753 28.6115193 35.9501473 28.49681 36.03942 28.3769 36.118532 28.249392 36.189886 28.1142027 36.25116 27.9738953 36.3097947 27.8693453 36.3965073 27.790232 36.503618 27.7366367 36.6236073 27.7188773 36.7410373 27.7366367 36.845588 27.7876727 36.9526987 27.8948627 37.003734 27.9994933 37.0215727 28.1169233 36.998614 28.244432 36.93742 28.356742 37.0650087 28.247152 37.179718 28.124762 37.286908 27.997174 37.3888993 27.864546 37.4832113 27.7268773 37.5699233 27.58393 37.6490367 27.4359427 37.72039 27.2854767 37.7816647 27.1298907 37.8352607 26.971824 37.8810967 26.811118 37.9194133 26.6452133 37.9474907 26.479388 37.9653287 26.3134827 37.9754887 26.1426173 37.9729287 25.941036 37.9576487 25.7113753 37.9423707 25.5965853 37.899014 25.372206 37.8402993 25.1528647 37.8046227 25.0431947 37.7203893 24.831374 37.6235187 24.6273913 37.5138487 24.4310087 37.3888187 24.242226 37.2485113 24.0636813 37.0979647 23.895296 36.9347793 23.73971 36.7612747 23.5942827 36.5751307 23.461654 36.3786687 23.3443847 36.276678 23.29079 36.1721267 23.242394 36.0649367 23.196478 36.24852 23.186312 36.427064 23.1633547 36.6004887 23.1224773 36.7688747 23.0689627 36.9295793 23.0000887 37.082606 22.9159367 37.2281133 22.821544 37.3658613 22.7144333 37.49337 22.5945247 37.61064 22.464456 37.7152707 22.3267887 37.8071027 22.1762413 37.886216 22.0207353 37.95253 21.85483 38.0060447 21.6838847 38.041882 21.5054207 38.0622793 21.3829513 38.0928373 21.2630427 38.128594 21.1483327 38.17451 21.033542 38.2255453 20.923872 38.2817 20.8167613 38.3454553 20.7146907 38.4168887 20.6151793 38.4933613 20.520868 38.5750347 20.4315953 38.6617467 20.3474427 38.7535787 20.26577 38.85037 20.1917767 38.9498807 20.1229033 39.0569913 20.061708 39.1666627 20.0055533 39.0545113 19.949398 38.9473213 19.8855633 38.84789 19.81669 38.7509387 19.7426967 38.6566273 19.663664 38.5699153 19.5769513 38.4882427 19.4876787 38.4142493 19.390728 38.3428953 19.291216 38.27906 19.1891453 38.2229053 19.0820347 38.17195 18.9698047 38.128594 18.8575753 38.0929173 18.7403053 38.06236 18.6203953 38.0419613 18.4980067 38.0061247 18.3194627 37.9526093 18.148598 37.8862953 17.9827713 37.8071827 17.824626 37.71535 17.6767187 37.6107193 17.5389713 37.49345 17.4089027 37.3659407 17.2889927 37.2281927 17.1818027 37.082686 17.084932 36.92966 17.0033387 36.768954 16.9344647 36.6005687 16.8783093 36.427144 16.8375133 36.2486 16.8146347 36.0650167 16.8043953 36.2002047 16.7406407 36.3302727 16.6691273 36.4527413 16.5875353 36.5700113 16.5008227 36.6772013 16.4013113 36.7792733 16.29676 36.8735847 16.18709 36.9577373 16.06982 37.0342907 15.9447913 37.1031647 15.8172833 37.1618787 15.682094 37.2102747 15.5443473 37.2485913 15.40404 37.2765887 15.2586127 37.2944273 15.1106253 37.2995473 14.960078 37.2944273 14.804492 37.2740287 14.6464267 37.2433913 14.4907593 37.2001153 14.3402133 37.14908 14.194786 37.1032433 14.0698373 37.095564 13.944888 37.1260413 13.832658 37.184676 13.7331473 37.302026 13.636196 37.411696 13.5980393 37.531686 13.59036 37.646476 13.6209167 37.7740647 13.7050693 37.8582973 13.832658 37.8888553 13.944888 37.8990153 13.8249787 37.8964553 13.6005193 37.886296 13.4449327 37.8658973 13.289346 37.8377407 13.1362393 37.8046233 12.9883327 37.7612667 12.840346 37.7128707 12.6974787 37.656716 12.5571707 37.595522 12.4194233 37.5266473 12.2867953 37.4526533 12.156726 37.3709807 12.0316973 37.2842687 11.909308 37.1924373 11.7919587 37.0955653 11.6797287 36.9935747 11.572618 36.8863847 11.4706267 36.774154 11.3736753 36.656804 11.279284 36.5344147 11.1951313 36.4093867 11.1134587 36.279318 11.0394653 36.1466893 10.9705913 36.0089427 10.9068367 35.8686347 10.8533213 35.7257667 10.804846 35.57786 10.76149 35.4273133 10.7282927 35.2768473 10.7002153 35.1212607 10.6798167 34.965674 10.667018 34.8049687 10.664458 34.654422 10.669578 34.5039553 10.6822973 34.3509293 10.702776 34.200382 10.7307733 34.0499153 10.76389 33.9019287 10.8046867 33.7589813 10.8506027 33.621314 10.901638 33.7513827 10.7562107 33.8661713 10.5979853 33.9656027 10.4296793 34.0498353 10.2511353 34.11615 10.064912 34.1645453 9.87612933 34.1951827 9.682306 34.205422 9.48584333 34.197822 9.32777733 34.1773433 9.17211067 34.144226 9.01652467 34.10087 8.86341867 34.0447947 8.71543133 33.9784807 8.572564 33.9044873 8.434816 33.8202553 8.304748 33.7335427 8.17467933 33.6595493 8.03693067 33.5932353 7.894064 33.5370807 7.74615733 33.4937247 7.59305067 33.4605273 7.437464 33.440128 7.281798 33.435088 7.123572 33.442768 6.95270733 33.4656467 6.781842 33.5039633 6.613537 33.552438 6.4501914 33.389172 6.49866713 33.2207867 6.534344 33.0472827 6.55730193 32.873858 6.56498133 32.715792 6.55986133 32.5602053 6.53946307 32.4046193 6.5088258 32.2541527 6.46546967 32.103606 6.4093146 31.9607393 6.3430004 31.8229913 6.2665272 31.692922 6.1798148 31.5628533 6.09310253 31.425186 6.01654927 31.2822387 5.95023513 31.134252 5.89416007 30.9812253 5.85080393 30.8256393 5.8201666 30.6700533 5.79968847 30.5119873 5.79208913 30.3156053 5.80232847 30.1217013 5.83288573 29.9329187 5.8813614 29.7466947 5.9476756 29.5707107 6.03182813 29.402326 6.13381913 29.2468193 6.24860893 29.101312 6.37867747 29.1651467 6.19757347 29.2135427 6.0062304 29.24154 5.8098478 29.2517793 5.61602493 29.2467393 5.4629184 29.2288207 5.31237167 29.2008233 5.1644648 29.1599467 5.0190376 29.108912 4.87873 29.047716 4.7409822 28.9788427 4.61091373 28.8997293 4.483405 28.8104573 4.3635756 28.713586 4.25134553 28.6089553 4.1467148 28.4942453 4.04720353 28.374336 3.9604912 28.2468273 3.8788184 28.1116393 3.80994453 27.971332 3.74866993 27.8668613 3.69003507 27.7876687 3.6033228 27.7341527 3.49613233 27.7163133 3.37622287 27.7341527 3.2588732 27.7851887 3.15432247 27.8922993 3.04713193 27.99693 2.99617647 28.1143587 2.97833867 28.241948 3.00129627 28.3567373 3.0624908 28.2521867 2.93498213 28.1297173 2.8202722 28.0021293 2.7131618 27.8695013 2.61117073 27.7291933 2.51677907 27.585446 2.43022673 27.4374593 2.35119373 27.2844327 2.27976007 27.1288467 2.21856547 26.9707807 2.16497013 26.8074353 2.11905427 26.6440893 2.0808176 26.478264 2.05274007 26.3098793 2.03490167 26.1414933 2.02474233 25.9399113 2.02730167 25.822562 2.03242167 25.7077727 2.04258073 25.5929027 2.05785947 25.3685227 2.1012156 25.1491813 2.1599304 25.0395113 2.19560727 24.82777 2.27975987 24.623788 2.37671127 24.4273247 2.48638153 24.238542 2.61133053 24.059998 2.75163807 23.8941727 2.9021848 23.7360267 3.06537047 23.5905193 3.238795 23.4604507 3.42501867 23.340542 3.62140127 23.287026 3.72347227 23.2385513 3.82802293 23.1927147 3.93513353 23.1851147 3.75146973 23.1595967 3.57292553 23.1188007 3.3995008 23.0652047 3.23119573 22.9963313 3.07049 22.912178 2.91738353 22.8178667 2.77195633 22.710676 2.63420853 22.5908467 2.5066998 22.4606987 2.39190987 22.3229507 2.28735913 22.174964 2.19296747 22.0168973 2.11385447 21.851072 2.04754033 21.6801273 1.99650487 21.5019033 1.960908"></polygon>
            </g>
        </g>
    </g>
</svg>