<?xml version="1.0" encoding="UTF-8" standalone="no"?>
<svg width="40px" height="40px" viewBox="0 0 40 40" version="1.1" xmlns="http://www.w3.org/2000/svg" xmlns:xlink="http://www.w3.org/1999/xlink">
    <!-- Generator: Sketch 3.8.3 (29802) - http://www.bohemiancoding.com/sketch -->
    <title>US-LA-2</title>
    <desc>Created with Sketch.</desc>
    <defs></defs>
    <g id="Icons-{2}" stroke="none" stroke-width="1" fill="none" fill-rule="evenodd">
        <g id="US-LA-2">
            <g id="Layer_1">
                <g>
                    <g id="g5" transform="translate(0.014535, 0.014535)" fill="#000000">
                        <g id="g7">
                            <path d="M0.0519102326,2.5436014 C0.0519102326,1.16747328 1.16747328,0.0519102326 2.5436014,0.0519102326 L37.4273285,0.0519102326 C38.8033546,0.0519102326 39.9190197,1.16747328 39.9190197,2.5436014 L39.9190197,37.4272777 C39.9190197,38.8034055 38.8033546,39.9189688 37.4273285,39.9189688 L2.5436014,39.9189688 C1.16747328,39.9189688 0.0519102326,38.8034055 0.0519102326,37.4272777 L0.0519102326,2.5436014 L0.0519102326,2.5436014 L0.0519102326,2.5436014 Z" id="path9"></path>
                        </g>
                        <g id="g13">
                            <path d="M0.0519102326,2.5436014 C0.0519102326,1.16747328 1.16747328,0.0519102326 2.5436014,0.0519102326 L37.4273285,0.0519102326 C38.8033546,0.0519102326 39.9190197,1.16747328 39.9190197,2.5436014 L39.9190197,37.4272777 C39.9190197,38.8034055 38.8033546,39.9189688 37.4273285,39.9189688 L2.5436014,39.9189688 C1.16747328,39.9189688 0.0519102326,38.8034055 0.0519102326,37.4272777 L0.0519102326,2.5436014 L0.0519102326,2.5436014 L0.0519102326,2.5436014 Z" id="path15"></path>
                        </g>
                    </g>
                    <g id="g35" transform="translate(1.641211, 1.705742)" fill="#FFFFFF">
                        <path d="M34.5717648,36.5116489 C34.5405256,36.4310755 34.5404214,36.2653084 34.5712334,36.1432668 C34.6103605,35.988351 34.5531747,35.8250547 34.3818226,35.6022419 C34.246693,35.4265915 34.136056,35.2161328 34.136056,35.134378 C34.136056,34.901144 33.6902935,34.6123683 33.2230458,34.5429675 C32.8930045,34.4937645 32.7774905,34.4293054 32.7112744,34.2565559 C32.6574098,34.1161427 32.546047,34.03095 32.4103977,34.0264374 C32.2918728,34.0224661 32.0458991,33.9662764 31.8635461,33.9012804 C31.5577913,33.7924521 31.5285236,33.7477606 31.4848287,33.325125 C31.4406162,32.8973332 31.4172638,32.8629551 31.1303977,32.8052638 C30.9614336,32.7713159 30.7696358,32.7035267 30.7042508,32.6545383 C30.6388646,32.6057643 30.3936178,32.5082165 30.1591634,32.4379565 C29.9248132,32.3676966 29.6788394,32.2697185 29.6125202,32.2199776 C29.5460968,32.1703445 29.4608878,32.1625019 29.4231094,32.2027886 C29.3853309,32.2430753 29.4129386,32.2965763 29.4845515,32.3217158 C29.8110634,32.4366672 29.9499297,32.7128732 30.0178059,33.382494 C30.0782098,33.9800276 30.0655479,34.0823015 29.9178595,34.1893036 C29.7737005,34.2939416 29.7653971,34.3485175 29.8621265,34.5590828 C30.0271467,34.9180107 29.9318711,35.0966699 29.2935838,35.6253396 C28.5287806,36.2588629 28.4018503,36.2490863 28.3221422,35.5506748 C28.287685,35.2493294 28.286958,34.9320843 28.3204843,34.8454944 C28.4119201,34.6093606 27.719664,34.0077446 27.4372605,34.0780045 C27.3137544,34.1086224 27.2238756,34.0879934 27.2238756,34.0289082 C27.2238756,33.972614 27.1280803,33.9401699 27.0108021,33.9566076 C26.8719358,33.9761597 26.7648284,34.0846656 26.7030748,34.2681586 C26.5834085,34.6241855 26.1586103,35.0429543 25.877245,35.0825964 C25.7434641,35.101397 25.6507827,35.1874489 25.6332427,35.3089536 C25.601588,35.5287587 25.0348094,35.8426738 24.8184148,35.760381 C24.7434807,35.7319116 24.590811,35.7570477 24.4793441,35.8161384 C24.3232491,35.898968 24.242711,35.8959593 24.1304141,35.8035686 C24.0500832,35.7374979 23.9072729,35.6395209 23.8128274,35.5859121 C22.5812963,34.8853521 22.5347999,34.8662291 22.1911625,34.9186554 L21.8454495,34.971404 L21.7296241,34.4929054 C21.6309221,34.0849879 21.5669899,33.9948525 21.2975607,33.8832311 C21.1236143,33.8113595 20.9386661,33.6734182 20.8866688,33.5768373 C20.8344643,33.4802564 20.663736,33.3758329 20.5070182,33.3448926 C20.2933219,33.3025642 20.2075943,33.2230656 20.164315,33.027433 C20.132453,32.8839043 20.0889664,32.7106169 20.0673783,32.6422909 C19.9889158,32.3930494 19.6904261,32.5904015 19.4531692,33.0481665 C19.2261882,33.4864874 18.9948478,33.6426925 19.0641779,33.3108369 C19.1424331,32.9361161 18.9869599,32.7224352 18.5583218,32.6154331 C18.2523597,32.5391567 18.1338349,32.4624502 18.1338349,32.3406231 C18.1338349,32.0498068 18.0254818,31.874801 17.8452566,31.874801 C17.7497206,31.874801 17.6452074,31.9171283 17.6130341,31.9686954 C17.5808607,32.0202625 17.3948231,32.062591 17.199549,32.062591 C17.0042217,32.062591 16.7617253,32.1245782 16.6606364,32.2003177 C16.2559734,32.5037039 16.1168988,32.2893784 16.3849793,31.7754269 C16.4938,31.5669023 16.5048018,31.4510905 16.4289856,31.3107852 C16.3013794,31.0744368 16.1397845,31.0744368 15.8364677,31.310893 C15.704503,31.4139193 15.4366297,31.5510025 15.2411484,31.6158907 C14.7339436,31.784451 14.6508102,31.9624645 14.862483,32.4278576 C15.0035811,32.7379048 15.0137519,32.8356672 14.9168673,32.9513711 C14.7596829,33.1390533 14.1289201,33.3028865 13.8400814,33.2310149 C13.693899,33.1945962 13.4610536,33.2499234 13.1973836,33.3837822 C12.9289917,33.5197906 12.634549,33.5886546 12.3579057,33.5799528 C12.1235565,33.5726481 11.7187363,33.5608298 11.4583364,33.5539542 C11.0012606,33.5418146 10.3767245,33.6580553 9.18961419,33.9761597 C8.41365403,34.1841464 8.30685787,34.1736184 7.32213113,33.7922365 C6.84611414,33.6078843 6.32515762,33.4542578 6.1642366,33.4509278 C6.00341931,33.4475945 5.72272863,33.3721795 5.5403756,33.2833345 C4.90328188,32.9727504 4.53364614,32.9785512 3.8459565,33.3098699 C3.32058905,33.5629783 3.10694444,33.6125047 2.5103793,33.6191647 C2.058337,33.6243241 1.66742505,33.6859868 1.43504692,33.7889065 C1.0872582,33.9428553 1.06084454,33.9425341 0.881812783,33.7819209 C0.404861713,33.3541291 0.471233239,33.0229182 1.08253597,32.7804456 C1.63680801,32.5606405 1.69902802,32.3810154 1.72123831,30.9362777 C1.74080207,29.6653632 1.81288186,29.2872045 2.27545848,28.0278938 C2.39465732,27.7034507 2.42304296,27.3479596 2.39927582,26.4791616 C2.37120158,25.4546954 2.34712315,25.3236297 2.13659215,25.045382 C1.91557869,24.753383 1.91012984,24.7138487 2.01822355,24.1950624 C2.08054739,23.8956509 2.13186982,23.421018 2.13212924,23.1403005 C2.13259686,22.597664 2.1496173,22.5621045 2.9089716,21.511962 C3.58041865,20.5833242 3.58047051,20.5828952 3.60703986,19.2519263 C3.63366108,17.9125251 3.51103734,17.254507 3.12391355,16.6588007 C3.00258703,16.4720844 2.85702639,16.1553233 2.80041081,15.9548557 C2.74374337,15.7542815 2.57016046,15.4243588 2.41458434,15.2215822 C2.2589046,15.0187516 2.1316104,14.8036208 2.1316104,14.7434048 C2.1316104,14.683082 1.95247481,14.3633121 1.73364088,14.032692 C1.30796038,13.3898762 1.26213855,13.1140464 1.42015362,12.1471637 C1.49830483,11.669147 1.35544268,11.3441132 0.782852349,10.6978595 C0.635112173,10.5309109 0.187181322,10.1274411 0.0531409428,9.80111798 L0.0531409428,0.055004677 C7.72455484,0.0553677093 11.8158271,0.054454628 21.7364832,0.055004677 C21.8525169,0.116562857 21.9214304,0.349044685 21.9214304,0.514596554 C21.9214304,0.798108184 22.12423,1.0279577 22.4652722,1.1309844 C23.0045472,1.29385049 23.1140416,1.78819633 22.7261917,2.309185 C22.4387028,2.6954548 22.4299849,2.91515206 22.6855077,3.33064321 C22.853019,3.60325045 22.8647467,3.68672467 22.7672913,3.91974346 C22.6711847,4.14975414 22.6792798,4.21888627 22.8197031,4.37267446 C22.9450775,4.51002554 22.9697785,4.63722437 22.9211024,4.89430779 C22.8778241,5.12302927 22.9003454,5.30093578 22.9902242,5.43780348 C23.0634982,5.54958586 23.1791164,5.8101071 23.2469926,6.01659031 C23.3148688,6.22312721 23.4331853,6.48762342 23.5096763,6.60434767 C23.7105035,6.9103662 23.6195863,7.69305794 23.3109248,8.31616024 C22.6859222,9.57756598 21.7827724,10.9255083 21.4363324,11.1135139 C20.7982523,11.4599799 20.7802978,11.4928002 20.6494225,12.55331 C20.5178213,13.6191905 20.5147074,13.6278395 20.0941644,14.1522661 C19.8214141,14.492555 19.8191301,14.5048023 19.9428445,14.9834627 C20.0603299,15.4373609 20.0546218,15.4945682 19.8571158,15.8520461 C19.7407718,16.0624508 19.6783955,16.2666235 19.7182495,16.3055681 C19.7188872,16.3106395 33.0004372,16.3340749 33.0004372,16.3340749 C33.0008623,16.4994119 32.9506196,17.8902349 32.8888661,18.2923515 C32.7995059,18.8736631 32.8015815,19.1202181 32.8987286,19.4956904 C33.0592862,20.1167518 32.9042231,20.7205163 32.5132646,20.9964011 C32.2003488,21.2172798 32.1674485,21.4540583 32.4186118,21.6793419 C32.5155485,21.7663618 32.6690482,22.0158178 32.759654,22.2336889 C33.1920288,23.2728723 33.4445418,23.7595369 33.6497274,23.9493687 C33.7727148,24.0631386 33.9083641,24.3195769 33.9511238,24.5193998 C33.9938834,24.7190071 34.0786769,25.051185 34.1394962,25.2577757 C34.2004187,25.4642596 34.2717202,25.7928919 34.2979782,25.9878799 C34.3422948,26.3157608 34.312924,26.3713025 33.9096086,26.723248 C33.6174499,26.9781836 33.4732909,27.1787579 33.4732909,27.330666 C33.4732909,27.6055827 33.6679943,27.6268542 33.8301089,27.3695556 C33.9779004,27.1348178 34.1547524,27.1308431 34.3617032,27.3573082 C34.4976639,27.5062086 34.5040979,27.5718493 34.4044629,27.7884311 C34.3008838,28.0141448 34.3102256,28.062274 34.4845865,28.1995707 C34.5932509,28.2850868 34.7296261,28.4473083 34.7878512,28.5601113 C34.8491882,28.6791452 35.0022734,28.7774444 35.1531799,28.7947413 C35.4981659,28.8342766 35.5533802,29.128423 35.2586262,29.3574667 C35.0527137,29.517433 35.0483553,29.5381665 35.2013363,29.6280874 C35.4489712,29.7736568 35.4014365,29.9763796 35.1066835,30.0308476 C34.9634577,30.0572753 34.6757615,30.1097026 34.4675651,30.1475185 C34.2592656,30.1851187 33.9008907,30.2197124 33.6714186,30.2242239 C33.173866,30.2338938 33.031264,30.4403756 33.463016,30.5258917 C33.8469219,30.6019524 34.010282,30.7940406 33.8520073,30.9831199 C33.7871409,31.0606856 33.6359241,31.1239621 33.5158433,31.1239621 C33.2714255,31.1239621 32.9051626,31.5241448 32.9051626,31.7912188 C32.9051626,31.8873707 33.0286687,32.0271381 33.1835181,32.10653 C33.5229002,32.2804621 33.7573545,32.5956654 33.7573545,32.8779957 C33.7573545,33.1121955 34.0065453,33.2826898 34.3488341,33.2826898 C34.5615962,33.2826898 34.8570761,33.5760848 35.1442536,34.0726327 C35.205903,34.1794203 35.3551484,34.2621422 35.4896552,34.2642907 C35.6345411,34.2667659 35.8956679,34.4251151 36.1621926,34.6723148 C36.5310496,35.0141626 36.5979917,35.1308323 36.5979917,35.4303516 C36.5979917,35.7956182 36.4068166,36.0487266 35.9574215,36.2784149 C35.7818151,36.3683358 35.7328275,36.3618892 35.686954,36.2432855 C35.6077645,36.0386288 35.3334572,36.0636604 35.1223552,36.2949593 C34.84182,36.6023212 34.6379831,36.6825722 34.5717669,36.5116489 L34.5717648,36.5116489 Z" id="path37"></path>
                    </g>
                    <g id="g39" transform="translate(6.659345, 4.693913)" fill="#000000">
                        <g id="g41">
                            <polygon id="polygon43" points="0.0516188704 9.99041942 0.0516188704 0.0236418556 1.47970737 0.0236418556 1.47970737 8.66647592 5.12423108 8.66647592 5.12423108 9.99041942"></polygon>
                        </g>
                        <g id="g45" transform="translate(5.678076, 0.000000)">
                            <path d="M5.00970222,9.99041942 L4.31052875,7.26812898 L2.16839622,7.26812898 L1.51388443,9.99041942 L0.0709253604,9.99041942 L2.55518467,0.0236418556 L3.95348103,0.0236418556 L6.43774034,9.99041942 L5.00970222,9.99041942 L5.00970222,9.99041942 Z M3.2245658,2.99878413 L2.52544291,5.8698318 L3.95348103,5.8698318 L3.2245658,2.99878413 L3.2245658,2.99878413 Z" id="path47"></path>
                        </g>
                    </g>
                </g>
            </g>
        </g>
    </g>
</svg>