<?xml version="1.0" encoding="UTF-8" standalone="no"?>
<svg width="60px" height="40px" viewBox="0 0 60 40" version="1.1" xmlns="http://www.w3.org/2000/svg" xmlns:xlink="http://www.w3.org/1999/xlink">
    <!-- Generator: Sketch 3.8.3 (29802) - http://www.bohemiancoding.com/sketch -->
    <title>US-LA-3</title>
    <desc>Created with Sketch.</desc>
    <defs></defs>
    <g id="Icons-{3}" stroke="none" stroke-width="1" fill="none" fill-rule="evenodd">
        <g id="US-LA-3">
            <g>
                <rect id="Rectangle-77" x="0" y="0" width="60" height="50"></rect>
                <rect id="Rectangle-76" fill="#000000" x="0" y="0" width="60" height="40" rx="2"></rect>
                <path d="M0.0664451827,2.55813634 C0.0664451827,1.18200823 1.18200823,0.0664451821 2.55813635,0.0664451821 L37.4418635,0.0664451821 C38.8178896,0.0664451821 39.9335547,1.18200823 39.9335547,2.55813634 L39.9335547,37.4418126 C39.9335547,38.8179404 38.8178896,39.9335038 37.4418635,39.9335038 L2.55813635,39.9335038 C1.18200823,39.9335038 0.0664451827,38.8179404 0.0664451827,37.4418126 L0.0664451827,2.55813634 L0.0664451827,2.55813634 L0.0664451827,2.55813634 Z" id="path15" fill="#000000"></path>
                <path d="M53.9335819,38.2173905 C53.8863057,38.1368171 53.8861481,37.97105 53.9327778,37.8490084 C53.9919913,37.6940926 53.9054484,37.5307963 53.6461303,37.3079835 C53.4416301,37.1323331 53.2741962,36.9218745 53.2741962,36.8401196 C53.2741962,36.6068856 52.5995953,36.3181099 51.8924798,36.2487091 C51.3930072,36.1995061 51.2181925,36.135047 51.1179834,35.9622975 C51.0364667,35.8218843 50.8679343,35.7366916 50.6626476,35.732179 C50.4832764,35.7282077 50.1110286,35.672018 49.8350623,35.607022 C49.3723441,35.4981937 49.3280514,35.4535022 49.2619251,35.0308666 C49.1950156,34.6030748 49.159675,34.5686968 48.7255422,34.5110054 C48.4698381,34.4770575 48.1795783,34.4092684 48.0806269,34.3602799 C47.9816739,34.311506 47.6105263,34.2139581 47.2557115,34.1436981 C46.9010545,34.0734382 46.5288067,33.9754601 46.4284416,33.9257192 C46.3279188,33.8760861 46.1989666,33.8682435 46.1417941,33.9085302 C46.0846216,33.9488169 46.1264021,34.0023179 46.2347785,34.0274574 C46.7289097,34.1424088 46.9390649,34.4186148 47.0417863,35.0882356 C47.1331993,35.6857692 47.1140372,35.7880431 46.8905309,35.8950452 C46.672366,35.9996833 46.6597999,36.0542591 46.8061867,36.2648245 C47.0559222,36.6237523 46.9117356,36.8024115 45.9457748,37.3310812 C44.7883495,37.9646045 44.5962578,37.9548279 44.4756305,37.2564164 C44.4234841,36.955071 44.422384,36.6378259 44.4731215,36.5512361 C44.611497,36.3151022 43.5638619,35.7134862 43.1364826,35.7837461 C42.9495731,35.8143641 42.8135537,35.793735 42.8135537,35.7346499 C42.8135537,35.6783556 42.6685807,35.6459116 42.4910961,35.6623492 C42.2809408,35.6819013 42.1188483,35.7904072 42.0253927,35.9739003 C41.8442942,36.3299272 41.2014199,36.7486959 40.775612,36.788338 C40.5731528,36.8071386 40.4328922,36.8931905 40.4063477,37.0146952 C40.3584426,37.2345003 39.5007006,37.5484154 39.1732168,37.4661226 C39.0598143,37.4376532 38.8287696,37.4627893 38.6600796,37.52188 C38.4238511,37.6047096 38.3019677,37.6017009 38.1320215,37.5093103 C38.0104518,37.4432395 37.7943279,37.3452625 37.6513974,37.2916537 C35.7876431,36.5910937 35.7172771,36.5719707 35.1972288,36.624397 L34.6740393,36.6771456 L34.4987533,36.198647 C34.3493814,35.7907295 34.2526286,35.7005941 33.8448843,35.5889727 C33.5816402,35.5171011 33.3017462,35.3791598 33.2230554,35.2825789 C33.144051,35.185998 32.885677,35.0815745 32.6485061,35.0506343 C32.3251059,35.0083058 32.1953688,34.9288072 32.1298714,34.7331746 C32.0816527,34.5896459 32.0158417,34.4163585 31.983171,34.3480325 C31.8644287,34.098791 31.4127052,34.2961431 31.0536492,34.7539081 C30.7101445,35.192229 30.3600423,35.3484341 30.4649639,35.0165785 C30.5833926,34.6418577 30.3481051,34.4281768 29.6994198,34.3211747 C29.2363879,34.2448983 29.0570167,34.1681918 29.0570167,34.0463647 C29.0570167,33.7555484 28.8930392,33.5805426 28.6202929,33.5805426 C28.4757122,33.5805426 28.3175457,33.6228699 28.2688557,33.674437 C28.2201657,33.7260041 27.9386232,33.7683326 27.6431024,33.7683326 C27.3475013,33.7683326 26.9805161,33.8303198 26.8275317,33.9060594 C26.2151295,34.2094455 26.004659,33.99512 26.4103623,33.4811685 C26.5750475,33.2726439 26.5916973,33.1568322 26.4769598,33.0165268 C26.2838452,32.7801784 26.0392935,32.7801784 25.5802648,33.0166346 C25.3805543,33.1196609 24.9751646,33.2567442 24.6793302,33.3216323 C23.911745,33.4901926 23.7859339,33.6682061 24.1062717,34.1335992 C24.3198046,34.4436464 24.3351966,34.5414088 24.1885749,34.6571127 C23.9506979,34.8447949 22.9961243,35.0086281 22.5590064,34.9367565 C22.3377792,34.9003378 21.9853995,34.955665 21.5863709,35.0895238 C21.1801963,35.2255322 20.7345975,35.2943962 20.3159356,35.2856944 C19.9612801,35.2783897 19.3486398,35.2665714 18.9545601,35.2596958 C18.2628382,35.2475562 17.317688,35.3637969 15.5211585,35.6819013 C14.3468486,35.889888 14.1852272,35.87936 12.6949775,35.4979781 C11.9745907,35.3136259 11.1861941,35.1599994 10.9426621,35.1566694 C10.699287,35.1533361 10.2745,35.0779211 9.99853351,34.9890761 C9.03437905,34.678492 8.47498576,34.6842928 7.43426129,35.0156115 C6.6391893,35.2687199 6.31586731,35.3182463 5.41304733,35.3249063 C4.72894295,35.3300657 4.13735103,35.3917284 3.78567841,35.4946481 C3.25934761,35.6485969 3.21937414,35.6482757 2.94843399,35.4876625 C2.22663359,35.0598707 2.32707785,34.7286598 3.25220117,34.4861872 C4.09101632,34.2663821 4.18517782,34.086757 4.21879005,32.6420193 C4.24839713,31.3711048 4.35748007,30.9929461 5.0575267,29.7336354 C5.2379179,29.4091923 5.28087569,29.0537012 5.24490736,28.1849032 C5.20242082,27.160437 5.16598141,27.0293713 4.84737145,26.7511236 C4.51289771,26.4591246 4.50465163,26.4195903 4.66823671,25.900804 C4.76255535,25.6013925 4.84022484,25.1267596 4.84061745,24.8460422 C4.84132513,24.3034056 4.86708323,24.2678461 6.01626242,23.2177036 C7.03240595,22.2890658 7.03248444,22.2886368 7.07269354,20.9576679 C7.11298112,19.6182667 6.92740681,18.9602487 6.34154774,18.3645423 C6.1579366,18.177826 5.93765042,17.8610649 5.85197047,17.6605973 C5.76621202,17.4600231 5.50351796,17.1301004 5.26807472,16.9273238 C5.03247467,16.7244932 4.83983224,16.5093625 4.83983224,16.4491464 C4.83983224,16.3888236 4.56873496,16.0690538 4.23755965,15.7384336 C3.59335026,15.0956178 3.52400517,14.819788 3.76313944,13.8529054 C3.88141064,13.3748886 3.66520826,13.0498548 2.79867087,12.4036011 C2.57508626,12.2366525 1.89720401,11.8331827 1.69435217,11.5068596 L1.69435217,1.76074628 C13.3039909,1.76110932 19.4955735,1.76019624 34.5091337,1.76074628 C34.6847349,1.82230447 34.789026,2.05478629 34.789026,2.22033816 C34.789026,2.50384979 35.0959356,2.73369931 35.6120564,2.83672601 C36.4281756,2.9995921 36.5938805,3.49393794 36.0069226,4.01492661 C35.5718473,4.40119641 35.5586539,4.62089367 35.9453528,5.03638482 C36.1988583,5.30899206 36.2166066,5.39246628 36.0691212,5.62548507 C35.9236769,5.85549574 35.9359278,5.92462788 36.1484393,6.07841607 C36.3381764,6.21576715 36.3755579,6.34296597 36.3018933,6.6000494 C36.2363975,6.82877087 36.2704803,7.00667739 36.4064996,7.14354509 C36.5173899,7.25532747 36.6923622,7.5158487 36.7950836,7.72233192 C36.8978049,7.92886881 37.0768609,8.19336503 37.1926196,8.31008927 C37.4965441,8.61610781 37.3589534,9.39879955 36.8918363,10.0219018 C35.94598,11.2833076 34.579186,12.6312499 34.0548964,12.8192555 C33.0892492,13.1657215 33.0620775,13.1985418 32.8640155,14.2590516 C32.6648551,15.3249321 32.6601426,15.3335811 32.0237082,15.8580077 C31.6109377,16.1982966 31.6074813,16.210544 31.7947061,16.6892043 C31.9725043,17.1431025 31.9638658,17.2003098 31.6649674,17.5577877 C31.4888966,17.7681924 31.3944985,17.9723651 31.4548122,18.0113097 C31.4557772,18.0163811 51.5555919,18.0398165 51.5555919,18.0398165 C51.5562352,18.2051535 51.4801998,19.5959766 51.3867442,19.9980932 C51.2515098,20.5794047 51.2546509,20.8259598 51.4016698,21.201432 C51.6446518,21.8224934 51.4099851,22.4262579 50.8183227,22.7021427 C50.3447673,22.9230215 50.2949772,23.1597999 50.6750786,23.3850835 C50.8217791,23.4721034 51.0540799,23.7215594 51.1911994,23.9394305 C51.8455397,24.9786139 52.2276837,25.4652785 52.5382041,25.6551103 C52.7243288,25.7688802 52.9296155,26.0253185 52.9943264,26.2251414 C53.0590373,26.4247487 53.1873606,26.7569266 53.2794025,26.9635173 C53.3716003,27.1700013 53.4795055,27.4986335 53.5192433,27.6936215 C53.5863105,28.0215024 53.5418617,28.0770441 52.9314989,28.4289896 C52.4893565,28.6839252 52.2711916,28.8844995 52.2711916,29.0364076 C52.2711916,29.3113243 52.5658486,29.3325958 52.8111868,29.0752972 C53.0348491,28.8405594 53.3024905,28.8365847 53.6156824,29.0630498 C53.8214404,29.2119502 53.8311774,29.2775909 53.6803933,29.4941727 C53.5236406,29.7198864 53.5377781,29.7680157 53.8016495,29.9053123 C53.9660982,29.9908284 54.1724835,30.1530499 54.2605993,30.2658529 C54.3534244,30.3848868 54.585098,30.483186 54.8134744,30.5004829 C55.3355638,30.5400182 55.4191231,30.8341646 54.973053,31.0632083 C54.6614325,31.2231746 54.6548366,31.2439082 54.8863526,31.3338291 C55.2611142,31.4793984 55.1891769,31.6821212 54.7431085,31.7365892 C54.5263557,31.7630169 54.0909668,31.8154442 53.7758899,31.8532601 C53.460657,31.8908603 52.9183055,31.925454 52.5710308,31.9299655 C51.8180527,31.9396354 51.6022441,32.1461172 52.2556419,32.2316333 C52.8366312,32.3076941 53.0838544,32.4997822 52.8443272,32.6888615 C52.7461607,32.7664272 52.5173146,32.8297037 52.3355888,32.8297037 C51.9656957,32.8297037 51.4114069,33.2298864 51.4114069,33.4969604 C51.4114069,33.5931123 51.5983165,33.7328797 51.8326599,33.8122716 C52.3462684,33.9862037 52.7010831,34.3014071 52.7010831,34.5837373 C52.7010831,34.8179371 53.0781994,34.9884314 53.5962067,34.9884314 C53.9181931,34.9884314 54.3653617,35.2818264 54.7999657,35.7783743 C54.8932637,35.885162 55.1191262,35.9678838 55.322684,35.9700323 C55.541949,35.9725075 55.9371288,36.1308567 56.3404775,36.3780564 C56.8986924,36.7199042 57,36.836574 57,37.1360932 C57,37.5013598 56.7106827,37.7544682 56.0305844,37.9841565 C55.764828,38.0740774 55.6906921,38.0676309 55.6212687,37.9490271 C55.5014263,37.7443704 55.0862995,37.769402 54.7668254,38.0007009 C54.3422736,38.3080628 54.0337943,38.3883138 53.9335852,38.2173905 L53.9335819,38.2173905 Z" id="path37" fill="#FFFFFF"></path>
                <g id="Group" transform="translate(12.000000, 4.000000)" fill="#000000">
                    <polygon id="polygon43" points="0.710963375 10.6843327 0.710963375 0.717555178 2.13905187 0.717555178 2.13905187 9.36038924 5.78357558 9.36038924 5.78357558 10.6843327"></polygon>
                    <path d="M11.3471225,10.6843327 L10.647949,7.9620423 L8.50581647,7.9620423 L7.85130468,10.6843327 L6.40834561,10.6843327 L8.89260493,0.717555178 L10.2909013,0.717555178 L12.7751606,10.6843327 L11.3471225,10.6843327 L11.3471225,10.6843327 Z M9.56198605,3.69269746 L8.86286316,6.56374512 L10.2909013,6.56374512 L9.56198605,3.69269746 L9.56198605,3.69269746 Z" id="path47"></path>
                </g>
            </g>
        </g>
    </g>
</svg>