<?xml version="1.0" encoding="UTF-8" standalone="no"?>
<svg width="60px" height="40px" viewBox="0 0 60 40" version="1.1" xmlns="http://www.w3.org/2000/svg" xmlns:xlink="http://www.w3.org/1999/xlink">
    <!-- Generator: Sketch 3.8.3 (29802) - http://www.bohemiancoding.com/sketch -->
    <title>US-MD-3</title>
    <desc>Created with Sketch.</desc>
    <defs></defs>
    <g id="Icons-{3}" stroke="none" stroke-width="1" fill="none" fill-rule="evenodd">
        <g id="US-MD-3">
            <g>
                <rect id="Rectangle-72" fill-opacity="0" fill="#D8D8D8" x="0" y="0" width="60" height="50"></rect>
                <g id="Group">
                    <rect id="Rectangle-42" fill="#000000" x="0" y="0" width="60" height="40" rx="2"></rect>
                    <rect id="Rectangle-42" fill="#FFFFFF" x="2" y="2" width="56" height="36" rx="1"></rect>
                    <path d="M1.5,13.5 L58.5,13.5" id="Line" stroke="#000000" stroke-width="3" stroke-linecap="square"></path>
                    <path d="M15.2275862,9.69827586 L15.2275862,6.68793103 L14.025,9.69827586 L12.8224138,6.68793103 L12.8224138,9.69827586 L12,9.69827586 L12,4.5 L12.8224138,4.5 L14.025,7.41724138 L15.2275862,4.5 L16.05,4.5 L16.05,9.69827586 L15.2275862,9.69827586 M20.3532462,9.69827586 L19.8411772,8.23965517 L18.2196255,8.23965517 L17.7075566,9.69827586 L16.8308324,9.69827586 L18.6230738,4.5 L19.437729,4.5 L21.2299703,9.69827586 L20.3532462,9.69827586 M19.0420393,5.94310345 L18.5066945,7.40172414 L19.5463497,7.40172414 L19.0420393,5.94310345 M24.6621902,9.69827586 L23.8242591,7.43275862 L22.8389143,7.43275862 L22.8389143,9.69827586 L22.0165005,9.69827586 L22.0165005,4.5 L23.7311557,4.5 C23.9328772,4.50000517 24.1061529,4.51293621 24.2509833,4.5387931 C24.3958079,4.55948793 24.5328767,4.60086724 24.6621902,4.66293103 C24.77598,4.71983259 24.8794281,4.79483241 24.972535,4.88793103 C25.0708072,4.97586672 25.1535657,5.079315 25.2208109,5.19827586 C25.2932209,5.31207328 25.347531,5.43621121 25.3837419,5.57068966 C25.4251172,5.70000397 25.4458069,5.82931414 25.4458109,5.95862069 C25.4458069,6.09827948 25.4251172,6.23534828 25.3837419,6.36982759 C25.347531,6.49914121 25.2932209,6.62327897 25.2208109,6.74224138 C25.1535657,6.85603724 25.068221,6.95948552 24.9647764,7.05258621 C24.8664971,7.14569224 24.7578766,7.21810586 24.6389143,7.26982759 L25.5544316,9.69827586 L24.6621902,9.69827586 M24.6233971,5.95862069 C24.6233938,5.85000379 24.5949457,5.74655569 24.5380522,5.64827586 C24.4811526,5.55000414 24.4009803,5.4724181 24.297535,5.41551724 C24.2302909,5.37931466 24.1682219,5.35603879 24.1113281,5.34568966 C24.054429,5.33017672 23.9587393,5.3224181 23.8242591,5.32241379 L22.8389143,5.32241379 L22.8389143,6.59482759 L23.8242591,6.59482759 C23.9535669,6.59483069 24.0466703,6.58965828 24.1035695,6.57931034 C24.1656357,6.56896862 24.2302909,6.54569276 24.297535,6.50948276 C24.4009803,6.45258948 24.4811526,6.37500328 24.5380522,6.27672414 C24.5949457,6.17327931 24.6233938,6.067245 24.6233971,5.95862069 M28.7072198,7.43275862 L28.7072198,9.69827586 L27.884806,9.69827586 L27.884806,7.43275862 L26.0615302,4.5 L27.046875,4.5 L28.2882543,6.50948276 L29.5451509,4.5 L30.5149784,4.5 L28.7072198,7.43275862 M31.411706,9.69827586 L31.411706,4.5 L32.2341198,4.5 L32.2341198,8.93017241 L34.6392922,8.93017241 L34.6392922,9.69827586 L31.411706,9.69827586 M38.4768991,9.69827586 L37.9648302,8.23965517 L36.3432784,8.23965517 L35.8312095,9.69827586 L34.9544853,9.69827586 L36.7467267,4.5 L37.5613819,4.5 L39.3536233,9.69827586 L38.4768991,9.69827586 M37.1656922,5.94310345 L36.6303474,7.40172414 L37.6700026,7.40172414 L37.1656922,5.94310345 M42.948775,9.69827586 L40.9625681,6.17586207 L40.9625681,9.69827586 L40.1401543,9.69827586 L40.1401543,4.5 L40.9625681,4.5 L42.8556716,7.82068966 L42.8556716,4.5 L43.6780853,4.5 L43.6780853,9.69827586 L42.948775,9.69827586 M48.4514543,7.09137931 C48.4514509,7.61379517 48.3712784,8.07413948 48.2109371,8.47241379 C48.0557612,8.8655181 47.8307612,9.17586259 47.5359371,9.40344828 C47.4376578,9.4965519 47.3212784,9.56637948 47.1867991,9.61293103 C47.0574871,9.65948276 46.9255905,9.68793103 46.7911095,9.69827586 L46.4962819,9.69827586 L44.9135233,9.69827586 L44.9135233,4.5 L46.5893853,4.5 C46.718694,4.50000517 46.8299009,4.50517759 46.923006,4.51551724 C47.0212802,4.52069483 47.1092112,4.53362586 47.1867991,4.55431034 C47.2643836,4.57500517 47.3342095,4.60345345 47.3962819,4.63965517 C47.4583474,4.67586707 47.5255888,4.71983259 47.598006,4.77155172 C47.8721405,5.00948741 48.0816233,5.32759052 48.2264543,5.72586207 C48.3764509,6.11896914 48.4514509,6.57414103 48.4514543,7.09137931 M47.6135233,7.09137931 C47.6135198,6.7396581 47.5747267,6.42672741 47.497144,6.15258621 C47.4247267,5.87845207 47.3238647,5.6741419 47.1945578,5.53965517 C47.1273147,5.47759034 47.0497284,5.42586638 46.9617991,5.38448276 C46.8738664,5.34310776 46.7755905,5.3224181 46.6669716,5.32241379 L45.7359371,5.32241379 L45.7359371,8.86034483 L46.5583509,8.86034483 C46.6928319,8.86034569 46.8040388,8.84482845 46.8919716,8.8137931 C46.9850733,8.78275948 47.0678319,8.73103552 47.1402474,8.65862069 C47.2954181,8.50344948 47.4117957,8.29138069 47.4893853,8.02241379 C47.5721405,7.74827776 47.6135198,7.43793328 47.6135233,7.09137931" id="text2947" fill="#000000"></path>
                </g>
            </g>
        </g>
    </g>
</svg>