<?xml version="1.0" encoding="UTF-8" standalone="no"?>
<svg width="40px" height="40px" viewBox="0 0 40 40" version="1.1" xmlns="http://www.w3.org/2000/svg" xmlns:xlink="http://www.w3.org/1999/xlink">
    <!-- Generator: Sketch 3.8.3 (29802) - http://www.bohemiancoding.com/sketch -->
    <title>US-MD-2</title>
    <desc>Created with Sketch.</desc>
    <defs></defs>
    <g id="Icons-{2}" stroke="none" stroke-width="1" fill="none" fill-rule="evenodd">
        <g id="US-MD-2">
            <g id="svg2">
                <g>
                    <path d="M0.172413793,2.75862069 C0.172413793,1.3302981 1.3302981,0.172413793 2.75862069,0.172413793 L37.2413793,0.172413793 C38.6697017,0.172413793 39.8275862,1.3302981 39.8275862,2.75862069 L39.8275862,37.2413793 C39.8275862,38.6697017 38.6697017,39.8275862 37.2413793,39.8275862 L2.75862069,39.8275862 C1.3302981,39.8275862 0.172413793,38.6697017 0.172413793,37.2413793 L0.172413793,2.75862069 L0.172413793,2.75862069 Z" id="path1341" stroke="#000000" fill="#000000"></path>
                    <path d="M2.75862069,1.03448276 L37.2413793,1.03448276 C38.1935948,1.03448276 38.9655172,1.80640569 38.9655172,2.75862069 L38.9655172,11.8103448 L1.03448276,11.8103448 L1.03448276,2.75862069 C1.03448276,1.80640569 1.80640569,1.03448276 2.75862069,1.03448276 L2.75862069,1.03448276 Z" id="path10350" stroke="#000000" fill="#FFFFFF"></path>
                    <path d="M38.9655172,13.9655172 L38.9655172,37.2413793 C38.9655172,38.1935948 38.1935948,38.9655172 37.2413793,38.9655172 L2.75862069,38.9655172 C1.80640569,38.9655172 1.03448276,38.1935948 1.03448276,37.2413793 L1.03448276,13.9655172 L38.9655172,13.9655172 Z" id="path1343" stroke="#000000" fill="#FFFFFF"></path>
                    <path d="M5.05786638,9.00862069 L5.05786638,5.99827586 L3.85528017,9.00862069 L2.65269397,5.99827586 L2.65269397,9.00862069 L1.83028017,9.00862069 L1.83028017,3.81034483 L2.65269397,3.81034483 L3.85528017,6.72758621 L5.05786638,3.81034483 L5.88028017,3.81034483 L5.88028017,9.00862069 L5.05786638,9.00862069 M10.1835264,9.00862069 L9.67145741,7.55 L8.04990569,7.55 L7.53783672,9.00862069 L6.66111259,9.00862069 L8.45335397,3.81034483 L9.26800914,3.81034483 L11.0602505,9.00862069 L10.1835264,9.00862069 M8.87231948,5.25344828 L8.33697466,6.71206897 L9.37662983,6.71206897 L8.87231948,5.25344828 M14.4924703,9.00862069 L13.6545393,6.74310345 L12.6691945,6.74310345 L12.6691945,9.00862069 L11.8467807,9.00862069 L11.8467807,3.81034483 L13.5614359,3.81034483 C13.7631574,3.81035 13.9364331,3.82328103 14.0812634,3.84913793 C14.2260881,3.86983276 14.3631569,3.91121207 14.4924703,3.97327586 C14.6062602,4.03017741 14.7097083,4.10517724 14.8028152,4.19827586 C14.9010874,4.28621155 14.9838459,4.38965983 15.051091,4.50862069 C15.123501,4.6224181 15.1778112,4.74655603 15.2140221,4.88103448 C15.2553974,5.01034879 15.2760871,5.13965897 15.276091,5.26896552 C15.2760871,5.40862431 15.2553974,5.5456931 15.2140221,5.68017241 C15.1778112,5.80948603 15.123501,5.93362379 15.051091,6.05258621 C14.9838459,6.16638207 14.8985012,6.26983034 14.7950566,6.36293103 C14.6967772,6.45603707 14.5881567,6.52845069 14.4691945,6.58017241 L15.3847117,9.00862069 L14.4924703,9.00862069 M14.4536772,5.26896552 C14.453674,5.16034862 14.4252259,5.05690052 14.3683324,4.95862069 C14.3114328,4.86034897 14.2312605,4.78276293 14.1278152,4.72586207 C14.060571,4.68965948 13.9985021,4.66638362 13.9416083,4.65603448 C13.8847091,4.64052155 13.7890195,4.63276293 13.6545393,4.63275862 L12.6691945,4.63275862 L12.6691945,5.90517241 L13.6545393,5.90517241 C13.7838471,5.90517552 13.8769505,5.9000031 13.9338497,5.88965517 C13.9959159,5.87931345 14.060571,5.85603759 14.1278152,5.81982759 C14.2312605,5.76293431 14.3114328,5.6853481 14.3683324,5.58706897 C14.4252259,5.48362414 14.453674,5.37758983 14.4536772,5.26896552 M18.5375,6.74310345 L18.5375,9.00862069 L17.7150862,9.00862069 L17.7150862,6.74310345 L15.8918103,3.81034483 L16.8771552,3.81034483 L18.1185345,5.81982759 L19.375431,3.81034483 L20.3452586,3.81034483 L18.5375,6.74310345 M21.2419862,9.00862069 L21.2419862,3.81034483 L22.0644,3.81034483 L22.0644,8.24051724 L24.4695724,8.24051724 L24.4695724,9.00862069 L21.2419862,9.00862069 M28.3071793,9.00862069 L27.7951103,7.55 L26.1735586,7.55 L25.6614897,9.00862069 L24.7847655,9.00862069 L26.5770069,3.81034483 L27.3916621,3.81034483 L29.1839034,9.00862069 L28.3071793,9.00862069 M26.9959724,5.25344828 L26.4606276,6.71206897 L27.5002828,6.71206897 L26.9959724,5.25344828 M32.7790552,9.00862069 L30.7928483,5.4862069 L30.7928483,9.00862069 L29.9704345,9.00862069 L29.9704345,3.81034483 L30.7928483,3.81034483 L32.6859517,7.13103448 L32.6859517,3.81034483 L33.5083655,3.81034483 L33.5083655,9.00862069 L32.7790552,9.00862069 M38.2817345,6.40172414 C38.281731,6.92414 38.2015586,7.38448431 38.0412172,7.78275862 C37.8860414,8.17586293 37.6610414,8.48620741 37.3662172,8.7137931 C37.2679379,8.80689672 37.1515586,8.87672431 37.0170793,8.92327586 C36.8877672,8.96982759 36.7558707,8.99827586 36.6213897,9.00862069 L36.3265621,9.00862069 L34.7438034,9.00862069 L34.7438034,3.81034483 L36.4196655,3.81034483 C36.5489741,3.81035 36.660181,3.81552241 36.7532862,3.82586207 C36.8515603,3.83103966 36.9394914,3.84397069 37.0170793,3.86465517 C37.0946638,3.88535 37.1644897,3.91379828 37.2265621,3.95 C37.2886276,3.9862119 37.355869,4.03017741 37.4282862,4.08189655 C37.7024207,4.31983224 37.9119034,4.63793534 38.0567345,5.0362069 C38.206731,5.42931397 38.281731,5.88448586 38.2817345,6.40172414 M37.4438034,6.40172414 C37.4438,6.05000293 37.4050069,5.73707224 37.3274241,5.46293103 C37.2550069,5.1887969 37.1541448,4.98448672 37.0248379,4.85 C36.9575948,4.78793517 36.8800086,4.73621121 36.7920793,4.69482759 C36.7041466,4.65345259 36.6058707,4.63276293 36.4972517,4.63275862 L35.5662172,4.63275862 L35.5662172,8.17068966 L36.388631,8.17068966 C36.5231121,8.17069052 36.634319,8.15517328 36.7222517,8.12413793 C36.8153534,8.09310431 36.8981121,8.04138034 36.9705276,7.96896552 C37.1256983,7.81379431 37.2420759,7.60172552 37.3196655,7.33275862 C37.4024207,7.05862259 37.4438,6.7482781 37.4438034,6.40172414" id="text2947" fill="#000000"></path>
                </g>
            </g>
        </g>
    </g>
</svg>