<?xml version="1.0" encoding="UTF-8" standalone="no"?>
<svg width="60px" height="40px" viewBox="0 0 60 40" version="1.1" xmlns="http://www.w3.org/2000/svg" xmlns:xlink="http://www.w3.org/1999/xlink">
    <!-- Generator: Sketch 3.8.3 (29802) - http://www.bohemiancoding.com/sketch -->
    <title>US-MI-3</title>
    <desc>Created with Sketch.</desc>
    <defs></defs>
    <g id="Icons-{3}" stroke="none" stroke-width="1" fill="none" fill-rule="evenodd">
        <g id="US-MI-3">
            <g>
                <rect id="blank" fill="#000000" x="0" y="0" width="60" height="40" rx="4"></rect>
                <polygon id="diamond" fill="#FFFFFF" points="0.4 20.0000008 30.3999988 0.4 60.4 19.9999992 30.4000012 39.6"></polygon>
                <path d="M26,9.71539112 C26.0375568,9.72212072 26.5715296,9.71539112 26.5715296,9.71539112 L26.5715296,6.42999992 L26,6.42999992 L26,5 L28.0768536,5 L30.2058424,7.15999992 L32.3825152,5 L34.4515296,5 L34.4515296,6.42999992 L33.9004064,6.42999992 L33.9004064,9.71539112 L34.4515296,9.71539112 L34.4515296,11.0799999 L31.8497792,11.0799999 L31.8497792,9.71539112 L32.3825152,9.71539112 L32.3825152,7.37286072 L30.2058424,9.43210152 L28.0768536,7.32111112 L28.0768536,9.71539112 L28.6582624,9.71539112 C28.6582624,9.71539112 28.654272,11.0799999 28.6208744,11.0799999 L26,11.0799999 L26,9.71539112 L26,9.71539112 Z" id="M" fill="#000000"></path>
            </g>
        </g>
    </g>
</svg>