<?xml version="1.0" encoding="UTF-8" standalone="no"?>
<svg width="60px" height="40px" viewBox="0 0 60 40" version="1.1" xmlns="http://www.w3.org/2000/svg" xmlns:xlink="http://www.w3.org/1999/xlink">
    <!-- Generator: Sketch 3.8.3 (29802) - http://www.bohemiancoding.com/sketch -->
    <title>US-MI-3</title>
    <desc>Created with Sketch.</desc>
    <defs></defs>
    <g id="Icons-{3}" stroke="none" stroke-width="1" fill="none" fill-rule="evenodd">
        <g id="US-MI-3">
            <g>
                <rect id="blank" fill="#000000" x="0" y="0" width="60" height="40" rx="4"></rect>
                <polygon id="diamond" fill="#FFFFFF" points="0.4 20.0000008 30.3999988 0.4 60.4 19.9999992 30.4000012 39.6"></polygon>
                <path d="M26,10.7153911 C26.0375568,10.7221207 26.5715296,10.7153911 26.5715296,10.7153911 L26.5715296,7.42999992 L26,7.42999992 L26,6 L28.0768536,6 L30.2058424,8.15999992 L32.3825152,6 L34.4515296,6 L34.4515296,7.42999992 L33.9004064,7.42999992 L33.9004064,10.7153911 L34.4515296,10.7153911 L34.4515296,12.0799999 L31.8497792,12.0799999 L31.8497792,10.7153911 L32.3825152,10.7153911 L32.3825152,8.37286072 L30.2058424,10.4321015 L28.0768536,8.32111112 L28.0768536,10.7153911 L28.6582624,10.7153911 C28.6582624,10.7153911 28.654272,12.0799999 28.6208744,12.0799999 L26,12.0799999 L26,10.7153911 L26,10.7153911 Z" id="M" fill="#000000"></path>
            </g>
        </g>
    </g>
</svg>