<?xml version="1.0" encoding="UTF-8" standalone="no"?>
<svg width="40px" height="40px" viewBox="0 0 40 40" version="1.1" xmlns="http://www.w3.org/2000/svg" xmlns:xlink="http://www.w3.org/1999/xlink">
    <!-- Generator: Sketch 3.8.3 (29802) - http://www.bohemiancoding.com/sketch -->
    <title>US-MT-2</title>
    <desc>Created with Sketch.</desc>
    <defs></defs>
    <g id="Icons-{2}" stroke="none" stroke-width="1" fill="none" fill-rule="evenodd">
        <g id="US-MT-2">
            <g>
                <rect id="rect2985" fill="#000000" x="0" y="3.55271368e-15" width="40" height="40" rx="2"></rect>
                <rect id="rect3755" fill="#FFFFFF" x="2" y="2" width="36" height="36"></rect>
                <g id="text3761" transform="translate(9.973333, 2.620684)" fill="#000000">
                    <polyline id="path3800" points="2.06217067 4.09931627 2.06217067 1.86122133 1.3240752 4.09931627 0.580027733 1.86122133 0.580027733 4.09931627 0.00859893333 4.09931627 0.00859893333 0.111221333 0.580027733 0.111221333 1.3240752 2.34931627 2.06217067 0.111221333 2.63955147 0.111221333 2.63955147 4.09931627 2.06217067 4.09931627"></polyline>
                    <path d="M5.77580533,2.09931627 C5.77580267,2.4048736 5.7579456,2.66479413 5.7222336,2.8790784 C5.69048533,3.0933648 5.6329456,3.2957456 5.54961493,3.48622133 C5.45040587,3.7243168 5.32540587,3.89892 5.17461493,4.01003093 C5.0277872,4.11717333 4.84127947,4.17074507 4.6150912,4.17074507 C4.37699467,4.17074507 4.1825504,4.11717333 4.03175787,4.01003093 C3.8849312,3.89892 3.76191573,3.7243168 3.66270987,3.48622133 C3.579376,3.2917776 3.51985227,3.0893968 3.48413867,2.8790784 C3.452392,2.66479413 3.43651893,2.4048736 3.43651947,2.09931627 C3.43651893,1.79773173 3.452392,1.5397952 3.48413867,1.3255072 C3.51985227,1.107256 3.579376,0.9028912 3.66270987,0.712411733 C3.76588373,0.47432 3.89088373,0.303685333 4.03770987,0.2005072 C4.1885024,0.093368 4.38096267,0.0397968 4.6150912,0.0397925333 C4.845248,0.0397968 5.03373973,0.093368 5.18056693,0.2005072 C5.3273904,0.303685333 5.45040587,0.478288533 5.54961493,0.724316267 C5.58929493,0.823525867 5.62302507,0.922732267 5.65080533,1.02193547 C5.6825488,1.12114507 5.70635787,1.22630347 5.7222336,1.33741173 C5.74207253,1.44455733 5.75596107,1.5616208 5.76390027,1.68860213 C5.77183413,1.81162027 5.77580267,1.9485248 5.77580533,2.09931627 M5.22818613,2.09931627 C5.228184,1.98820747 5.22421813,1.88701707 5.2162816,1.79574507 C5.21230827,1.70447787 5.2043744,1.62114453 5.192472,1.54574507 C5.18453333,1.4663824 5.17262827,1.3909856 5.15675733,1.31955467 C5.14088267,1.24812907 5.1230256,1.17670027 5.10318613,1.1052688 C5.0515968,0.9267008 4.98612053,0.797732267 4.90675733,0.718364267 C4.83135893,0.639002667 4.73413707,0.59932 4.6150912,0.599316267 C4.36905813,0.59932 4.20040747,0.764002133 4.10913867,1.09336427 C4.0615184,1.24416053 4.02778827,1.39693813 4.00794827,1.5516976 C3.99207413,1.70249333 3.9841376,1.88900107 3.98413867,2.11122133 C3.9841376,2.21836587 3.98612267,2.31757227 3.9900912,2.40884 C3.99802667,2.49614347 4.0059632,2.5794768 4.01390027,2.65884 C4.02580427,2.7342384 4.03969333,2.8096352 4.05556693,2.88503093 C4.07143893,2.9604288 4.08929653,3.0378096 4.10913867,3.11717333 C4.20040747,3.4465392 4.36905813,3.61122187 4.6150912,3.61122133 C4.73413707,3.61122187 4.83135893,3.5715392 4.90675733,3.49217333 C4.98612053,3.41280907 5.0515968,3.28780907 5.10318613,3.11717333 C5.1269936,3.0378096 5.14683467,2.9624128 5.16270987,2.89098293 C5.1785808,2.81558773 5.19048587,2.73820693 5.198424,2.65884 C5.21032693,2.5794768 5.21826347,2.49614347 5.2222336,2.40884 C5.2262016,2.31757227 5.228184,2.21439787 5.22818613,2.09931627" id="path3802"></path>
                    <polyline id="path3804" points="8.38071573 4.09931627 7.1485728 1.4266976 7.1485728 4.09931627 6.57714453 4.09931627 6.57714453 0.111221333 7.1485728 0.111221333 8.2438112 2.5040784 8.2438112 0.111221333 8.81523947 0.111221333 8.81523947 4.09931627 8.38071573 4.09931627"></polyline>
                    <polyline id="path3806" points="10.6752656 0.640982933 10.6752656 4.09931627 10.0978848 4.09931627 10.0978848 0.640982933 9.3716944 0.640982933 9.3716944 0.111221333 11.401456 0.111221333 11.401456 0.640982933 10.6752656 0.640982933"></polyline>
                    <path d="M13.6149045,4.09931627 L13.3351424,3.01003093 L12.4779995,3.01003093 L12.2160949,4.09931627 L11.6387141,4.09931627 L12.6327616,0.111221333 L13.1922853,0.111221333 L14.1863328,4.09931627 L13.6149045,4.09931627 M12.9006187,1.3016976 L12.6208571,2.45050667 L13.1922853,2.45050667 L12.9006187,1.3016976" id="path3808"></path>
                    <polyline id="path3810" points="16.5419883 4.09931627 15.3098453 1.4266976 15.3098453 4.09931627 14.7384171 4.09931627 14.7384171 0.111221333 15.3098453 0.111221333 16.4050837 2.5040784 16.4050837 0.111221333 16.976512 0.111221333 16.976512 4.09931627 16.5419883 4.09931627"></polyline>
                    <path d="M19.5091557,4.09931627 L19.2293936,3.01003093 L18.3722512,3.01003093 L18.1103461,4.09931627 L17.5329653,4.09931627 L18.5270128,0.111221333 L19.0865365,0.111221333 L20.0805845,4.09931627 L19.5091557,4.09931627 M18.7948699,1.3016976 L18.5151083,2.45050667 L19.0865365,2.45050667 L18.7948699,1.3016976" id="path3812"></path>
                </g>
            </g>
        </g>
    </g>
</svg>