<?xml version="1.0" encoding="UTF-8" standalone="no"?>
<svg width="60px" height="40px" viewBox="0 0 60 40" version="1.1" xmlns="http://www.w3.org/2000/svg" xmlns:xlink="http://www.w3.org/1999/xlink">
    <!-- Generator: Sketch 3.8.3 (29802) - http://www.bohemiancoding.com/sketch -->
    <title>US-MT-3</title>
    <desc>Created with Sketch.</desc>
    <defs>
        <rect id="path-1" x="0" y="0" width="60" height="40" rx="2"></rect>
        <mask id="mask-2" maskContentUnits="userSpaceOnUse" maskUnits="objectBoundingBox" x="0" y="0" width="60" height="40" fill="white">
            <use xlink:href="#path-1"></use>
        </mask>
    </defs>
    <g id="Icons-{3}" stroke="none" stroke-width="1" fill="none" fill-rule="evenodd">
        <g id="US-MT-3">
            <g>
                <use id="Rectangle-67" stroke="#000000" mask="url(#mask-2)" stroke-width="2" fill="#FFFFFF" xlink:href="#path-1"></use>
                <g id="text3761" transform="translate(18.000000, 2.000000)" fill="#000000">
                    <polyline id="path3800" points="2.4746048 4.9688682 2.4746048 2.25602586 1.58889024 4.9688682 0.69603328 2.25602586 0.69603328 4.9688682 0.01031872 4.9688682 0.01031872 0.134813737 0.69603328 0.134813737 1.58889024 2.84765608 2.4746048 0.134813737 3.16746176 0.134813737 3.16746176 4.9688682 2.4746048 4.9688682"></polyline>
                    <path d="M6.9309664,2.54462578 C6.9309632,2.9149983 6.90953472,3.23005349 6.86668032,3.489792 C6.8285824,3.74953309 6.75953472,3.99484315 6.65953792,4.22572283 C6.54048704,4.51432339 6.39048704,4.72596364 6.20953792,4.86064356 C6.03334464,4.99051313 5.80953536,5.05544857 5.53810944,5.05544857 C5.2523936,5.05544857 5.01906048,4.99051313 4.83810944,4.86064356 C4.66191744,4.72596364 4.51429888,4.51432339 4.39525184,4.22572283 C4.2952512,3.99003345 4.22382272,3.74472339 4.1809664,3.489792 C4.1428704,3.23005349 4.12382272,2.9149983 4.12382336,2.54462578 C4.12382272,2.17906877 4.1428704,1.86641842 4.1809664,1.60667539 C4.22382272,1.34212848 4.2952512,1.09441358 4.39525184,0.863529374 C4.51906048,0.574933333 4.66906048,0.368103434 4.84525184,0.24303903 C5.02620288,0.113173333 5.2571552,0.0482385455 5.53810944,0.0482333737 C5.8142976,0.0482385455 6.04048768,0.113173333 6.21668032,0.24303903 C6.39286848,0.368103434 6.54048704,0.579743677 6.65953792,0.877959111 C6.70715392,0.998213172 6.74763008,1.11846335 6.7809664,1.23870966 C6.81905856,1.35896372 6.84762944,1.48642844 6.86668032,1.62110513 C6.89048704,1.75097859 6.90715328,1.8928737 6.91668032,2.04679046 C6.92620096,2.19590335 6.9309632,2.36184824 6.9309664,2.54462578 M6.27382336,2.54462578 C6.2738208,2.40994844 6.26906176,2.28729341 6.25953792,2.17666069 C6.25476992,2.06603378 6.24524928,1.96502368 6.2309664,1.87363038 C6.22144,1.77743321 6.20715392,1.68604315 6.1881088,1.5994602 C6.1690592,1.51288372 6.14763072,1.42630335 6.12382336,1.33971976 C6.06191616,1.1232737 5.98334464,0.966948202 5.8881088,0.870744566 C5.79763072,0.774548687 5.68096448,0.726448485 5.53810944,0.72644396 C5.24286976,0.726448485 5.04048896,0.926063192 4.9309664,1.32529002 C4.87382208,1.50807337 4.83334592,1.69325834 4.80953792,1.88084558 C4.79048896,2.06362828 4.78096512,2.28969826 4.7809664,2.55905616 C4.78096512,2.68892832 4.7833472,2.80917851 4.78810944,2.91980606 C4.797632,3.02562844 4.80715584,3.12663855 4.81668032,3.22283636 C4.83096512,3.31422836 4.847632,3.40561842 4.86668032,3.49700719 C4.88572672,3.58839855 4.90715584,3.68219345 4.9309664,3.77839192 C5.04048896,4.17762327 5.24286976,4.37723863 5.53810944,4.37723798 C5.68096448,4.37723863 5.79763072,4.32913842 5.8881088,4.23293737 C5.98334464,4.13673826 6.06191616,3.98522311 6.12382336,3.77839192 C6.15239232,3.68219345 6.1762016,3.59080339 6.19525184,3.50422174 C6.21429696,3.41283362 6.22858304,3.31903871 6.2381088,3.22283636 C6.25239232,3.12663855 6.26191616,3.02562844 6.26668032,2.91980606 C6.27144192,2.80917851 6.2738208,2.68411863 6.27382336,2.54462578" id="path3802"></path>
                    <polyline id="path3804" points="10.0568589 4.9688682 8.57828736 1.72933042 8.57828736 4.9688682 7.89257344 4.9688682 7.89257344 0.134813737 8.57828736 0.134813737 9.89257344 3.03524655 9.89257344 0.134813737 10.5782874 0.134813737 10.5782874 4.9688682 10.0568589 4.9688682"></polyline>
                    <polyline id="path3806" points="12.8103187 0.77694901 12.8103187 4.9688682 12.1174618 4.9688682 12.1174618 0.77694901 11.2460333 0.77694901 11.2460333 0.134813737 13.6817472 0.134813737 13.6817472 0.77694901 12.8103187 0.77694901"></polyline>
                    <path d="M16.3378854,4.9688682 L16.0021709,3.64852234 L14.9735994,3.64852234 L14.6593139,4.9688682 L13.966457,4.9688682 L15.1593139,0.134813737 L15.8307424,0.134813737 L17.0235994,4.9688682 L16.3378854,4.9688682 M15.4807424,1.57781527 L15.1450285,2.97031111 L15.8307424,2.97031111 L15.4807424,1.57781527" id="path3808"></path>
                    <polyline id="path3810" points="19.8503859 4.9688682 18.3718144 1.72933042 18.3718144 4.9688682 17.6861005 4.9688682 17.6861005 0.134813737 18.3718144 0.134813737 19.6861005 3.03524655 19.6861005 0.134813737 20.3718144 0.134813737 20.3718144 4.9688682 19.8503859 4.9688682"></polyline>
                    <path d="M23.4109869,4.9688682 L23.0752723,3.64852234 L22.0467014,3.64852234 L21.7324154,4.9688682 L21.0395584,4.9688682 L22.2324154,0.134813737 L22.9038438,0.134813737 L24.0967014,4.9688682 L23.4109869,4.9688682 M22.5538438,1.57781527 L22.2181299,2.97031111 L22.9038438,2.97031111 L22.5538438,1.57781527" id="path3812"></path>
                </g>
            </g>
        </g>
    </g>
</svg>