<?xml version="1.0" encoding="UTF-8" standalone="no"?>
<svg width="40px" height="40px" viewBox="0 0 40 40" version="1.1" xmlns="http://www.w3.org/2000/svg" xmlns:xlink="http://www.w3.org/1999/xlink">
    <!-- Generator: Sketch 3.8.3 (29802) - http://www.bohemiancoding.com/sketch -->
    <title>US-MI-2</title>
    <desc>Created with Sketch.</desc>
    <defs></defs>
    <g id="Icons-{2}" stroke="none" stroke-width="1" fill="none" fill-rule="evenodd">
        <g id="US-MI-2">
            <g>
                <rect id="blank" fill="#000000" x="0" y="0" width="40" height="40" rx="4"></rect>
                <polygon id="diamond" fill="#FFFFFF" points="0.4 20.0000008 19.9999992 0.4 39.6 19.9999992 20.0000008 39.6"></polygon>
                <path d="M15.7742352,10.9553912 C15.811792,10.9621208 16.3457648,10.9553912 16.3457648,10.9553912 L16.3457648,7.67 L15.7742352,7.67 L15.7742352,6.24000008 L17.8510888,6.24000008 L19.9800776,8.4 L22.1567504,6.24000008 L24.2257648,6.24000008 L24.2257648,7.67 L23.6746416,7.67 L23.6746416,10.9553912 L24.2257648,10.9553912 L24.2257648,12.32 L21.6240144,12.32 L21.6240144,10.9553912 L22.1567504,10.9553912 L22.1567504,8.6128608 L19.9800776,10.6721016 L17.8510888,8.5611112 L17.8510888,10.9553912 L18.4324976,10.9553912 C18.4324976,10.9553912 18.4285072,12.32 18.3951096,12.32 L15.7742352,12.32 L15.7742352,10.9553912 L15.7742352,10.9553912 Z" id="M" fill="#000000"></path>
            </g>
        </g>
    </g>
</svg>