<?xml version="1.0" encoding="UTF-8" standalone="no"?>
<svg width="40px" height="40px" viewBox="0 0 40 40" version="1.1" xmlns="http://www.w3.org/2000/svg" xmlns:xlink="http://www.w3.org/1999/xlink">
    <!-- Generator: Sketch 3.8.3 (29802) - http://www.bohemiancoding.com/sketch -->
    <title>US-MO-2</title>
    <desc>Created with Sketch.</desc>
    <defs></defs>
    <g id="Icons-{2}" stroke="none" stroke-width="1" fill="none" fill-rule="evenodd">
        <g id="US-MO-2">
            <g>
                <rect id="rect1872" fill="#000000" x="0" y="0" width="40" height="40" rx="3"></rect>
                <path d="M2.41772531,3 L28.68257,3 C28.68257,3 29.7018035,4.25008285 29.780205,4.91679371 C29.8586065,5.58350457 29.3881923,6.41689289 29.9370098,6.91692594 C30.4858273,7.416959 32.4458894,9.91712464 32.4458894,10.7505129 C32.4458894,11.5839014 32.8379021,12.7506452 33.0731101,13.0840006 C33.3083182,13.4173559 34.3275517,14.4174223 34.7195627,15.3341495 C35.1115755,16.2508769 35.425185,22.5012901 35.425185,22.5012901 C35.425185,22.5012901 38.4828821,29.6684315 37.9340663,31.0018526 C37.3852488,32.3352753 36.758028,32.1685977 36.3660135,33.2520014 C35.9740025,34.3354069 34.7195627,34.9187777 34.6411594,35.4188123 C34.562758,35.9188434 33.9355372,37.7523009 33.9355372,37.7523009 L27.5849349,37.7523009 C27.5849349,37.7523009 29.1529843,35.3354744 29.309789,34.7521018 C29.4665938,34.1687275 28.9177762,33.3353393 28.9177762,33.3353393 L6.25944825,33.3353393 C5.78851416,33.3352866 5.78626835,33.2572066 5.78903328,32.8353082 L5.78903328,19.5844307 C5.78903328,19.5844307 5.24021576,13.8340501 4.92660572,11.6672403 C4.61299569,9.50043039 3.59376303,8.58370274 3.35855554,7.50029799 C3.12334788,6.41689289 2.16965064,4.06553796 2.02571265,3.66671098 C1.91495209,3.35981292 2.18374461,3.08433067 2.41772531,3 L2.41772531,3 Z" id="path2821" stroke="#000000" stroke-width="1.13876617" fill="#FFFFFF"></path>
            </g>
        </g>
    </g>
</svg>