<?xml version="1.0" encoding="UTF-8" standalone="no"?>
<svg width="40px" height="40px" viewBox="0 0 40 40" version="1.1" xmlns="http://www.w3.org/2000/svg" xmlns:xlink="http://www.w3.org/1999/xlink">
    <!-- Generator: Sketch 3.8.3 (29802) - http://www.bohemiancoding.com/sketch -->
    <title>US-MA-2</title>
    <desc>Created with Sketch.</desc>
    <defs></defs>
    <g id="Icons-{2}" stroke="none" stroke-width="1" fill="none" fill-rule="evenodd">
        <g id="US-MA-2">
            <g id="Shape">
                <path d="M0.0390137858,2.79225326 C0.0390137858,1.27168669 1.27165308,0.0390137858 2.79225326,0.0390137858 L37.2077467,0.0390137858 C38.7283469,0.0390137858 39.9609862,1.27168669 39.9609862,2.79225326 L39.9609862,37.2077467 C39.9609862,38.7283469 38.7283469,39.9609862 37.2077467,39.9609862 L2.79225326,39.9609862 C1.27165308,39.9609862 0.0390137858,38.7283469 0.0390137858,37.2077467 L0.0390137858,2.79225326 L0.0390137858,2.79225326 L0.0390137858,2.79225326 Z" fill="#000000"></path>
                <path d="M1.66666667,3.33333333 C1.66666667,2.41285807 2.41282552,1.66666667 3.33333333,1.66666667 L36.6666667,1.66666667 C37.5871745,1.66666667 38.3333333,2.41285807 38.3333333,3.33333333 L38.3333333,36.6666667 C38.3333333,37.5871745 37.5871745,38.3333333 36.6666667,38.3333333 L3.33333333,38.3333333 C2.41282552,38.3333333 1.66666667,37.5871745 1.66666667,36.6666667 L1.66666667,3.33333333 L1.66666667,3.33333333 L1.66666667,3.33333333 Z" fill="#FFFFFF"></path>
            </g>
        </g>
    </g>
</svg>