<?xml version="1.0" encoding="UTF-8" standalone="no"?>
<svg width="40px" height="40px" viewBox="0 0 40 40" version="1.1" xmlns="http://www.w3.org/2000/svg" xmlns:xlink="http://www.w3.org/1999/xlink">
    <!-- Generator: Sketch 3.8.3 (29802) - http://www.bohemiancoding.com/sketch -->
    <title>US-ME-2</title>
    <desc>Created with Sketch.</desc>
    <defs></defs>
    <g id="Icons-{2}" stroke="none" stroke-width="1" fill="none" fill-rule="evenodd">
        <g id="US-ME-2">
            <g id="Shape">
                <path d="M0.0332778702,2.78730851 C0.0332778702,1.26630499 1.26627137,0.0332778702 2.78730851,0.0332778702 L37.2126915,0.0332778702 C38.7337286,0.0332778702 39.9667221,1.26630499 39.9667221,2.78730851 L39.9667221,37.2126915 C39.9667221,38.7337286 38.7337286,39.9667221 37.2126915,39.9667221 L2.78730851,39.9667221 C1.26627137,39.9667221 0.0332778702,38.7337286 0.0332778702,37.2126915 L0.0332778702,2.78730851 L0.0332778702,2.78730851 L0.0332778702,2.78730851 Z" fill="#000000"></path>
                <path d="M1.66666667,3.33333333 C1.66666667,2.41285807 2.41282552,1.66666667 3.33333333,1.66666667 L36.6666667,1.66666667 C37.5871745,1.66666667 38.3333333,2.41285807 38.3333333,3.33333333 L38.3333333,36.6666667 C38.3333333,37.5871745 37.5871745,38.3333333 36.6666667,38.3333333 L3.33333333,38.3333333 C2.41282552,38.3333333 1.66666667,37.5871745 1.66666667,36.6666667 L1.66666667,3.33333333 L1.66666667,3.33333333 L1.66666667,3.33333333 Z" fill="#FFFFFF"></path>
            </g>
        </g>
    </g>
</svg>