<?xml version="1.0" encoding="UTF-8" standalone="no"?>
<svg width="60px" height="40px" viewBox="0 0 60 40" version="1.1" xmlns="http://www.w3.org/2000/svg" xmlns:xlink="http://www.w3.org/1999/xlink">
    <!-- Generator: Sketch 3.8.3 (29802) - http://www.bohemiancoding.com/sketch -->
    <title>US-MO-3</title>
    <desc>Created with Sketch.</desc>
    <defs></defs>
    <g id="Icons-{3}" stroke="none" stroke-width="1" fill="none" fill-rule="evenodd">
        <g id="US-MO-3">
            <g>
                <rect id="rect1872" fill="#000000" x="0" y="0" width="60" height="40" rx="3"></rect>
                <path d="M3.62658796,3 L43.023855,3 C43.023855,3 44.5527053,4.25008285 44.6703075,4.91679371 C44.7879098,5.58350457 44.0822884,6.41689289 44.9055147,6.91692594 C45.728741,7.416959 48.6688341,9.91712464 48.6688341,10.7505129 C48.6688341,11.5839014 49.2568532,12.7506452 49.6096652,13.0840006 C49.9624772,13.4173559 51.4913275,14.4174223 52.0793441,15.3341495 C52.6673632,16.2508769 53.1377775,22.5012901 53.1377775,22.5012901 C53.1377775,22.5012901 57.7243231,29.6684315 56.9010995,31.0018526 C56.0778732,32.3352753 55.137042,32.1685977 54.5490203,33.2520014 C53.9610038,34.3354069 52.0793441,34.9187777 51.9617392,35.4188123 C51.8441369,35.9188434 50.9033058,37.7523009 50.9033058,37.7523009 L41.3774024,37.7523009 C41.3774024,37.7523009 43.7294764,35.3354744 43.9646835,34.7521018 C44.1998906,34.1687275 43.3766644,33.3353393 43.3766644,33.3353393 L9.38917237,33.3353393 C8.68277125,33.3352866 8.67940252,33.2572066 8.68354992,32.8353082 L8.68354992,19.5844307 C8.68354992,19.5844307 7.86032364,13.8340501 7.38990859,11.6672403 C6.91949353,9.50043039 5.39064454,8.58370274 5.03783331,7.50029799 C4.68502182,6.41689289 3.25447597,4.06553796 3.03856897,3.66671098 C2.87242814,3.35981292 3.27561691,3.08433067 3.62658796,3 L3.62658796,3 Z" id="path2821" stroke="#000000" stroke-width="1.13876617" fill="#FFFFFF"></path>
            </g>
        </g>
    </g>
</svg>