<?xml version="1.0" encoding="UTF-8" standalone="no"?>
<svg width="60px" height="40px" viewBox="0 0 60 40" version="1.1" xmlns="http://www.w3.org/2000/svg" xmlns:xlink="http://www.w3.org/1999/xlink">
    <!-- Generator: Sketch 3.8.3 (29802) - http://www.bohemiancoding.com/sketch -->
    <title>US-NH-3</title>
    <desc>Created with Sketch.</desc>
    <defs></defs>
    <g id="Icons-{3}" stroke="none" stroke-width="1" fill="none" fill-rule="evenodd">
        <g id="US-NH-3">
            <g>
                <rect id="Rectangle-49" fill="#000000" x="0" y="0" width="60" height="40" rx="2"></rect>
                <path d="M7.59009554,37.000029 L6.85838313,36.9895011 L6.4094519,36.9057413 L6.01026921,36.7068697 L5.62771531,36.4660024 L5.34493411,36.2356629 L5.06238259,35.900508 L4.8129049,35.5235889 L4.67987463,35.1046743 L4.66319991,34.6544075 L4.74629789,34.3089562 L4.92930638,33.9215671 L5.07905731,33.6177643 L6.52585337,31.4817158 L7.87287673,29.8691083 L8.08905093,29.6178868 L8.27205942,29.3874895 L8.38846091,29.0523924 L8.52153711,28.6650034 L8.53821183,28.4659003 L8.53821183,28.2147366 L8.52153711,28.0157492 L8.53821183,27.8481139 L8.52153711,27.6177745 L8.58796038,27.3769072 L8.6046351,27.1360978 L8.72103659,26.9371683 L8.95383956,26.7068288 L9.21994604,26.4450216 L9.36965103,26.2146821 L9.66910695,25.910995 L9.90190992,25.565428 L10.06806,25.2617409 L10.1678327,25.0418714 L10.2178109,24.8534697 L10.6003188,22.8428874 L5.66106478,22.8534153 L5.36156292,22.7488312 L5.11213116,22.6545436 L4.92930641,22.6020202 L4.74629791,22.4764962 L4.61317576,22.3193887 L4.48014549,22.0995192 L4.44679605,21.8587098 L5.21185791,18.9896185 L6.74198163,18.3613333 L5.49468504,17.6702571 L5.54466326,17.4397441 L5.56106237,17.2723402 L5.7441168,17.1257605 L5.84384356,16.9267153 L5.92717123,16.685877 L6.09332126,16.5078295 L6.25970097,16.2146702 L6.25970097,16.0785895 L5.51131383,15.963333 L4.5799182,15.9320098 L4.04788899,15.8482211 L3.53230482,15.7539335 L3.31590095,15.7434635 L3.24952362,15.6701737 L3.18282474,15.5758861 L3.18282474,15.4712731 L3.19949946,15.3246934 L3.28278119,15.1884681 L3.28278119,14.811549 L3.46560594,14.486893 L3.84815984,14.0785061 L4.01453955,13.8481378 L4.31376579,13.4607198 L4.49677429,13.1990282 L4.86265347,12.7487904 L5.14520499,12.2671137 L5.52798857,11.7853792 L5.66078916,11.0418663 L4.0476134,10.8744624 L3.74838716,10.3822579 L3.61535689,10.0261631 L3.46560596,9.62824616 L3.43230246,9.36655463 L3.66510543,9.02095869 L3.66510543,8.97913663 L3.43230246,8.71730049 L3.26615242,8.53925307 L3.18282476,8.36135026 L3.03311977,8.14130725 L3.03311977,7.98425762 L3.01672067,7.68059943 L3,7.50269664 L3,7.36647127 L3.06642326,7.11527864 L3.23280297,6.96855437 L3.28259746,6.88491026 L3.49895539,6.82197472 L3.68178014,6.72786064 L3.8979084,6.4450267 L4.14738608,6.23565613 L4.4801455,6.00531668 L4.77937174,5.79577257 L5.2782812,5.58640199 L5.5943659,5.40835457 L6.14306982,5.38753031 L6.57555601,5.31424048 L7.30731437,5.20948289 L7.75624559,5.11519526 L8.23852626,5.06290324 L8.85383719,4.93714784 L8.95383957,4.86385802 L9.31967281,4.92679356 L9.70222672,5.00008338 L10.1344832,5.05237541 L10.467013,5.07337321 L11.3817798,5.05237541 L12.0471149,4.93714784 L12.4627426,4.84303376 L12.8619253,4.71727837 L13.3775095,4.48690999 L13.7766922,4.29853721 L14.8576091,4.46594112 L15.17351,4.4764111 L15.5229442,4.46594112 L15.9385719,4.45558684 L16.3210799,4.3926513 L16.6538393,4.36129921 L16.919762,4.29853721 L17.1194452,4.17278182 L17.4686497,3.98438011 L17.8512036,3.81680267 L18.5329378,3.79583379 L18.815719,3.77486492 L19.1482487,3.7853349 L19.4144011,3.79583379 L19.8966359,3.67022302 L20.1129938,3.57596432 L20.4288948,3.49217559 L20.7780992,3.3036582 L21.1439325,3.20951519 L21.4934126,3 L54.6480836,3.00002895 C55.9470581,3.00002895 57,3.66299239 57,4.48086519 L57,35.5191927 C57,36.3370077 55.9470581,37.000029 54.6480836,37.000029 L7.59009554,37.000029 L7.59009554,37.000029 Z" id="Shape" fill="#FFFFFF"></path>
            </g>
        </g>
    </g>
</svg>