<?xml version="1.0" encoding="UTF-8" standalone="no"?>
<svg width="40px" height="40px" viewBox="0 0 40 40" version="1.1" xmlns="http://www.w3.org/2000/svg" xmlns:xlink="http://www.w3.org/1999/xlink">
    <!-- Generator: Sketch 3.8.3 (29802) - http://www.bohemiancoding.com/sketch -->
    <title>US-NV-2</title>
    <desc>Created with Sketch.</desc>
    <defs></defs>
    <g id="Icons-{2}" stroke="none" stroke-width="1" fill="none" fill-rule="evenodd">
        <g id="US-NV-2">
            <g>
                <g id="layer1" transform="translate(-0.000013, 0.000060)" stroke="#000000" stroke-width="0.19601439" fill="#000000">
                    <path d="M0.00654722445,3.53467388 C0.00654722445,0.00647255903 3.53474722,0.00647255903 3.53474722,0.00647255903 L36.4646136,0.00647255903 C39.9928149,0.00647255903 39.9928149,3.53467388 39.9928149,3.53467388 L39.9928149,36.4645469 C39.9928149,39.9927416 36.4646136,39.9927416 36.4646136,39.9927416 L3.53474722,39.9927416 C0.00654722445,39.9927416 0.00654722445,36.4645469 0.00654722445,36.4645469 L0.00654722445,3.53467388 L0.00654722445,3.53467388 Z" id="path1888"></path>
                </g>
                <g id="layer2" transform="translate(6.599877, 3.333338)" fill="#FFFFFF">
                    <path d="M26.5614583,34.4447005 C26.6617233,34.1809849 26.520219,33.8389639 26.1659449,33.4887497 C25.4620832,32.7929347 25.357825,32.6381172 25.357825,32.2887364 C25.357825,32.0457804 25.3184123,31.9173692 25.2005076,31.7761316 C25.0940494,31.6486137 25.032337,31.4722633 25.0096241,31.230694 C24.9795313,30.9106193 24.9464251,30.8481737 24.6894761,30.6268773 C24.4196206,30.3944612 24.4053275,30.364715 24.4445802,30.1172191 C24.4722197,29.9429754 24.5455851,29.8094376 24.6622365,29.7210524 C24.7590149,29.6477203 24.9505051,29.4727832 25.0877561,29.3323055 C25.2810462,29.1344822 25.3794846,29.0818697 25.5243355,29.0989761 C25.6836395,29.1177891 25.7248455,29.1675483 25.8024042,29.4347438 C25.8883361,29.7308189 26.0885995,29.9543819 26.2678832,29.9543819 C26.4072675,29.9543819 26.557805,29.7519186 26.557805,29.564455 C26.557805,29.4652367 26.6052376,29.3163391 26.6632033,29.2335805 C26.739342,29.1248757 26.796021,28.8758531 26.7945877,28.3354288 L26.719569,0.0146064238 L0.0640122688,0.0146064238 L0.0640122688,14.453033 L6.43457299,19.4716162 L0.0640122688,19.4509499 L0.0640122688,26.6701631 L16.1684111,26.6701631 L26.015954,34.3685951 C26.3887478,34.6600303 26.4731064,34.67707 26.5614583,34.4447005 L26.5614583,34.4447005 Z" id="path2226"></path>
                </g>
                <g id="layer3" transform="translate(8.266516, 23.866330)" fill="#000000">
                    <polygon id="path3274" points="2.69512318 5.03985619 0.885331944 1.98924025 0.885331944 5.03985619 0.0533457795 5.03985619 0.0533457795 0.0479392028 0.885331944 0.0479392028 2.54930427 2.82122642 2.54930427 0.0479392028 3.38129044 0.0479392028 3.38129044 5.03985619"></polygon>
                    <polygon id="path3272" points="4.32236145 5.03985619 4.32236145 0.0479392028 7.26389253 0.0479392028 7.26389253 0.879925367 5.32259148 0.879925367 5.32259148 1.98924025 6.70923509 1.98924025 6.70923509 2.82122642 5.32259148 2.82122642 5.32259148 4.20787002 7.54122126 4.23519757 7.54122126 5.03985619"></polygon>
                    <polygon id="path3270" points="10.1747175 5.03985619 9.59491377 5.03985619 8.0958787 0.0479392028 8.88068565 0.0479392028 9.89182216 3.37845915 10.8887389 0.0479392028 11.6877656 0.0479392028"></polygon>
                    <path d="M14.7847141,5.03985619 L14.3179819,3.63925348 L12.8403065,3.63925348 L12.3735742,5.03985619 L11.5745408,5.03985619 L13.2080004,0.0479392028 L13.9502947,0.0479392028 L15.5837542,5.03985619 L14.7847141,5.03985619 L14.7847141,5.03985619 Z M13.589714,1.43376416 L13.1018288,2.83459553 L14.0493397,2.83459553 L13.589714,1.43376416 L13.589714,1.43376416 Z" id="path3268"></path>
                    <path d="M19.4663563,2.53651115 C19.4663563,3.03824614 19.3944508,3.47907348 19.2506799,3.85900716 C19.1068889,4.23894751 18.900639,4.53819853 18.6319168,4.75677889 C18.542305,4.84621341 18.4374001,4.91324496 18.3172087,4.95788488 C18.1970107,5.00253014 18.0756461,5.02985235 17.9530814,5.03985619 L17.6844326,5.03985619 L16.2419366,5.03985619 L16.2419366,0.0479392028 L17.7692378,0.0479392028 C17.8871959,0.0479458693 17.9897542,0.051695807 18.0769327,0.0591950156 C18.1641113,0.066706224 18.24305,0.0803893298 18.3137621,0.100241 C18.3844609,0.120098669 18.4480732,0.147420882 18.5046189,0.182205637 C18.5611513,0.216997058 18.6224303,0.259175023 18.6884625,0.308733532 C18.9383384,0.537323064 19.1304419,0.841581338 19.264813,1.22151035 C19.3991707,1.6014507 19.4663563,2.03977875 19.4663563,2.53651115 L19.4663563,2.53651115 L19.4663563,2.53651115 Z M18.702709,2.53651115 C18.7027023,2.19879143 18.6685029,1.8982871 18.600104,1.63498348 C18.5316918,1.37169252 18.4385867,1.17547445 18.3207687,1.04632393 C18.259483,0.986756923 18.1887775,0.937108416 18.1086589,0.897393076 C18.0285269,0.85768307 17.9389817,0.8378254 17.84001,0.8378194 L16.9915508,0.8378194 L16.9915508,4.23519757 L17.7409716,4.23519757 C17.8635229,4.23519757 17.9660546,4.22030582 18.0485665,4.19051631 C18.1310651,4.16073214 18.2053239,4.11104897 18.2713561,4.04147746 C18.4127605,3.89246927 18.520012,3.68757068 18.5930841,3.42677101 C18.6661629,3.16598935 18.7027023,2.86923028 18.702709,2.53651115 L18.702709,2.53651115 L18.702709,2.53651115 Z" id="path3264"></path>
                    <path d="M23.1045758,5.03985619 L22.6378435,3.63925348 L21.1601748,3.63925348 L20.6934292,5.03985619 L19.8943958,5.03985619 L21.527862,0.0479392028 L22.270143,0.0479392028 L23.9036158,5.03985619 L23.1045758,5.03985619 L23.1045758,5.03985619 Z M21.9095823,1.43376416 L21.4216971,2.83459553 L22.3691947,2.83459553 L21.9095823,1.43376416 L21.9095823,1.43376416 Z" id="path3260"></path>
                </g>
            </g>
        </g>
    </g>
</svg>