<?xml version="1.0" encoding="UTF-8" standalone="no"?>
<svg width="40px" height="40px" viewBox="0 0 40 40" version="1.1" xmlns="http://www.w3.org/2000/svg" xmlns:xlink="http://www.w3.org/1999/xlink">
    <!-- Generator: Sketch 3.8.3 (29802) - http://www.bohemiancoding.com/sketch -->
    <title>US-NH-2</title>
    <desc>Created with Sketch.</desc>
    <defs></defs>
    <g id="Icons-{2}" stroke="none" stroke-width="1" fill="none" fill-rule="evenodd">
        <g id="US-NH-2">
            <g id="Shape">
                <path d="M0,2.53333333 C0,1.13417969 1.13421224,0 2.53333333,0 L37.4666667,0 C38.8658203,0 40,1.13417969 40,2.53333333 L40,37.4666667 C40,38.8657552 38.8658203,40 37.4666667,40 L2.53333333,40 C1.13421224,40 0,38.8657552 0,37.4666667 L0,2.53333333 L0,2.53333333 L0,2.53333333 Z" fill="#000000"></path>
                <path d="M5.89006016,37.000029 L5.42935234,36.9895011 L5.14669193,36.9057413 L4.89535469,36.7068697 L4.65448742,36.4660024 L4.47644,36.2356629 L4.29853719,35.900508 L4.14145864,35.5235889 L4.05769884,35.1046743 L4.04719994,34.6544075 L4.09952089,34.3089562 L4.21474846,33.9215671 L4.30903609,33.6177643 L5.21998175,31.4817158 L6.06810757,29.8691083 L6.20421725,29.6178868 L6.31944482,29.3874895 L6.39273464,29.0523924 L6.47652337,28.6650034 L6.48702227,28.4659003 L6.48702227,28.2147366 L6.47652337,28.0157492 L6.48702227,27.8481139 L6.47652337,27.6177745 L6.51834542,27.3769072 L6.52884432,27.1360978 L6.60213415,26.9371683 L6.7487138,26.7068288 L6.91626232,26.4450216 L7.01052102,26.2146821 L7.19906734,25.910995 L7.34564699,25.565428 L7.45025997,25.2617409 L7.51307982,25.0418714 L7.54454759,24.8534697 L7.78538594,22.8428874 L4.67548523,22.8534153 L4.48690999,22.7488312 L4.32986036,22.6545436 L4.21474848,22.6020202 L4.09952091,22.4764962 L4.01570326,22.3193887 L3.93194346,22.0995192 L3.91094566,21.8587098 L4.39265128,18.9896185 L5.35606251,18.3613333 L4.57072762,17.6702571 L4.60219539,17.4397441 L4.61252075,17.2723402 L4.72777724,17.1257605 L4.79056817,16.9267153 L4.84303374,16.685877 L4.94764672,16.5078295 L5.05240431,16.2146702 L5.05240431,16.0785895 L4.5811976,15.963333 L3.99476331,15.9320098 L3.65978196,15.8482211 L3.33515489,15.7539335 L3.1989006,15.7434635 L3.15710747,15.6701737 L3.11511187,15.5758861 L3.11511187,15.4712731 L3.12561077,15.3246934 L3.17804741,15.1884681 L3.17804741,14.811549 L3.2931593,14.486893 L3.53402657,14.0785061 L3.63878416,13.8481378 L3.82718587,13.4607198 L3.94241344,13.1990282 L4.17278181,12.7487904 L4.35068462,12.2671137 L4.59169651,11.7853792 L4.67531169,11.0418663 L3.65960843,10.8744624 L3.47120673,10.3822579 L3.38744693,10.0261631 L3.29315931,9.62824616 L3.27219044,9.36655463 L3.41877009,9.02095869 L3.41877009,8.97913663 L3.27219044,8.71730049 L3.16757745,8.53925307 L3.11511189,8.36135026 L3.02085319,8.14130725 L3.02085319,7.98425762 L3.01052783,7.68059943 L3,7.50269664 L3,7.36647127 L3.04182206,7.11527864 L3.14657965,6.96855437 L3.17793173,6.88491026 L3.3141571,6.82197472 L3.42926898,6.72786064 L3.56534973,6.4450267 L3.72242827,6.23565613 L3.93194347,6.00531668 L4.12034517,5.79577257 L4.43447335,5.58640199 L4.63348964,5.40835457 L4.97896989,5.38753031 L5.25127601,5.31424048 L5.71201275,5.20948289 L5.99467315,5.11519526 L6.29833135,5.06290324 L6.68574934,4.93714784 L6.7487138,4.86385802 L6.97905325,4.92679356 L7.21992053,5.00008338 L7.49208203,5.05237541 L7.70145261,5.07337321 L8.27741692,5.05237541 L8.69633161,4.93714784 L8.95802314,4.84303376 L9.20936039,4.71727837 L9.53398746,4.48690999 L9.78532471,4.29853721 L10.465902,4.46594112 L10.6648026,4.4764111 L10.8848167,4.46594112 L11.1465082,4.45558684 L11.3873466,4.3926513 L11.5968618,4.36129921 L11.7642946,4.29853721 L11.8900211,4.17278182 L12.1098905,3.98438011 L12.3507578,3.81680267 L12.7799979,3.79583379 L12.9580453,3.77486492 L13.1674159,3.7853349 L13.3349933,3.79583379 L13.6386226,3.67022302 L13.774848,3.57596432 L13.9737486,3.49217559 L14.193618,3.3036582 L14.4239575,3.20951519 L14.6440005,3 L35.5191638,3.00002895 C36.3370366,3.00002895 37,3.66299239 37,4.48086519 L37,35.5191927 C37,36.3370077 36.3370366,37.000029 35.5191638,37.000029 L5.89006016,37.000029 L5.89006016,37.000029 Z" fill="#FFFFFF"></path>
            </g>
        </g>
    </g>
</svg>