<?xml version="1.0" encoding="UTF-8" standalone="no"?>
<svg width="60px" height="40px" viewBox="0 0 60 40" version="1.1" xmlns="http://www.w3.org/2000/svg" xmlns:xlink="http://www.w3.org/1999/xlink">
    <!-- Generator: Sketch 3.8.3 (29802) - http://www.bohemiancoding.com/sketch -->
    <title>US-NY-3</title>
    <desc>Created with Sketch.</desc>
    <defs></defs>
    <g id="Icons-{3}" stroke="none" stroke-width="1" fill="none" fill-rule="evenodd">
        <g id="US-NY-3">
            <g>
                <rect id="Rectangle-63" fill="#000000" x="0" y="0" width="60" height="40"></rect>
                <path d="M30.0000026,2.08331694 C24.0407895,2.08331694 20.924937,2.89351222 17.2058562,4.71896387 C13.1997614,6.68529136 8.58475213,7.93959644 3.12498109,7.94594737 L3.12498109,29.0755113 C3.12498109,30.9524406 3.12897832,30.9527758 4.57363781,31.9020525 C7.09787316,33.5607168 30.0000026,37.9166795 30.0000026,37.9166795 C30.0000026,37.9166795 52.902132,33.5607168 55.4263674,31.9020525 C56.8710269,30.9527758 56.8750241,30.9524406 56.8750241,29.0755113 L56.8750241,7.94594774 C51.4152531,7.93959681 46.7601299,6.72538343 42.7941489,4.71896424 C39.2552294,2.92859854 35.9592157,2.08331694 30.0000026,2.08331694 L30.0000026,2.08331694 Z" id="path2452" fill="#FFFFFF"></path>
            </g>
        </g>
    </g>
</svg>