<?xml version="1.0" encoding="UTF-8" standalone="no"?>
<svg width="60px" height="40px" viewBox="0 0 60 40" version="1.1" xmlns="http://www.w3.org/2000/svg" xmlns:xlink="http://www.w3.org/1999/xlink">
    <!-- Generator: Sketch 3.8.3 (29802) - http://www.bohemiancoding.com/sketch -->
    <title>US-NC-3</title>
    <desc>Created with Sketch.</desc>
    <defs></defs>
    <g id="Icons-{3}" stroke="none" stroke-width="1" fill="none" fill-rule="evenodd">
        <g id="US-NC-3">
            <g>
                <path d="M3.750003,-3.2e-05 L56.250045,-3.2e-05 C58.327547,-3.2e-05 60.000048,1.11496887 60.000048,2.49997 L60.000048,37.499998 C60.000048,38.8849993 58.327547,40 56.250045,40 L3.750003,40 C1.6725013,40 0,38.8849993 0,37.499998 L0,2.49997 C0,1.11496887 1.6725013,-3.2e-05 3.750003,-3.2e-05 L3.750003,-3.2e-05 Z" id="rect1899" fill="#000000"></path>
                <path d="M32.651728,1.6151954 L57.577298,18.2322427 C59.046316,19.211588 59.046316,20.7884393 57.577298,21.7677847 L32.651727,38.384832 C31.18271,39.3641773 28.817432,39.3641773 27.348414,38.384832 L2.4228435,21.7677847 C0.95382579,20.78844 0.95382579,19.211588 2.4228435,18.2322427 L27.348415,1.6151954 C28.817432,0.635850287 31.18271,0.635850287 32.651728,1.6151954 L32.651728,1.6151954 Z" id="rect2789" fill="#FFFFFF"></path>
            </g>
        </g>
    </g>
</svg>