<?xml version="1.0" encoding="UTF-8" standalone="no"?>
<svg width="60px" height="40px" viewBox="0 0 60 40" version="1.1" xmlns="http://www.w3.org/2000/svg" xmlns:xlink="http://www.w3.org/1999/xlink">
    <!-- Generator: Sketch 3.8.3 (29802) - http://www.bohemiancoding.com/sketch -->
    <title>US-NV-3</title>
    <desc>Created with Sketch.</desc>
    <defs></defs>
    <g id="Icons-{3}" stroke="none" stroke-width="1" fill="none" fill-rule="evenodd">
        <g id="US-NV-3">
            <g>
                <rect id="rect2138" fill="#000000" x="0" y="0" width="60" height="40" rx="2"></rect>
                <path d="M52.8867154,36.8220876 C51.6402761,36.1262726 51.4556495,35.9714551 51.4556495,35.6220743 C51.4556495,35.3791183 51.3858552,35.2507071 51.1770627,35.1094695 C50.9885403,34.9819516 50.8792565,34.8056012 50.8390351,34.5640319 C50.7857449,34.2439572 50.7271187,34.1815116 50.2720983,33.9602152 C49.7942224,33.7277991 49.7689113,33.6980529 49.8384223,33.450557 C49.887368,33.2763133 50.0172878,33.1427755 50.2238609,33.0543903 C50.3952417,32.9810582 50.7343437,32.8061211 50.9773958,32.6656434 C51.3196853,32.4678201 51.4940057,32.4152076 51.7505161,32.432314 C52.032621,32.451127 52.105591,32.5008862 52.2429364,32.7680817 C52.3951097,33.0641568 52.7497477,33.2877198 53.0672337,33.2877198 C53.3140636,33.2877198 53.5806442,33.0852565 53.5806442,32.8977929 C53.5806442,32.7985746 53.6646406,32.649677 53.7672896,32.5669184 C53.9021205,32.4582136 54.0024911,32.209191 53.9999529,31.6687667 L53.8671053,3.34794432 L6.66388918,3.34794432 L6.66388918,17.7863709 L6.66388918,22.7842878 L6.66388918,30.003501 L35.1824989,30.003501 L52.6211029,37.701933 C53.2812679,37.9933682 53.430655,38.0104079 53.5871137,37.7780384 C53.7646688,37.5143228 53.5140847,37.1723018 52.8867154,36.8220876 Z" id="path2226" fill="#FFFFFF"></path>
            </g>
        </g>
    </g>
</svg>