<?xml version="1.0" encoding="UTF-8" standalone="no"?>
<svg width="40px" height="40px" viewBox="0 0 40 40" version="1.1" xmlns="http://www.w3.org/2000/svg" xmlns:xlink="http://www.w3.org/1999/xlink">
    <!-- Generator: Sketch 3.8.3 (29802) - http://www.bohemiancoding.com/sketch -->
    <title>US-NY-2</title>
    <desc>Created with Sketch.</desc>
    <defs></defs>
    <g id="Icons-{2}" stroke="none" stroke-width="1" fill="none" fill-rule="evenodd">
        <g id="US-NY-2">
            <g id="svg3882">
                <g>
                    <g id="g2480">
                        <path d="M2.49999833,-1.36424205e-13 L37.4999993,-1.36424205e-13 C38.8850047,-1.36424205e-13 40.0000033,1.11499913 40.0000033,2.49999813 L40.0000033,37.499998 C40.0000033,38.884998 38.8850047,39.9999967 37.4999993,39.9999967 L2.49999833,39.9999967 C1.11499827,39.9999967 0,38.884998 0,37.499998 L0,2.49999813 C0,1.11499913 1.11499827,-1.36424205e-13 2.49999833,-1.36424205e-13 L2.49999833,-1.36424205e-13 Z" id="rect1873" fill="#000000"></path>
                        <g id="g2448" transform="translate(2.081711, 2.067899)" fill="#FFFFFF">
                            <path d="M17.9182903,0.0154179753 C13.9454815,0.0154179753 11.8682465,0.825613253 9.38885936,2.6510649 C6.71812945,4.6173924 3.64145662,5.87169748 0.00160926055,5.87804841 L0.00160926055,27.0076123 C0.00160926055,28.8845416 0.00427407749,28.8848768 0.967380404,29.8341535 C2.65020397,31.4928178 17.9182903,35.8487805 17.9182903,35.8487805 C17.9182903,35.8487805 33.1863765,31.4928178 34.8692001,29.8341535 C35.8323064,28.8848768 35.8349713,28.8845416 35.8349713,27.0076123 L35.8349713,5.87804878 C32.1951239,5.87169785 29.0917085,4.65748447 26.4477212,2.65106527 C24.0884415,0.860699577 21.891099,0.0154179753 17.9182903,0.0154179753 L17.9182903,0.0154179753 Z" id="path2452"></path>
                        </g>
                    </g>
                </g>
            </g>
        </g>
    </g>
</svg>