<?xml version="1.0" encoding="UTF-8" standalone="no"?>
<svg width="60px" height="40px" viewBox="0 0 60 40" version="1.1" xmlns="http://www.w3.org/2000/svg" xmlns:xlink="http://www.w3.org/1999/xlink">
    <!-- Generator: Sketch 3.8.3 (29802) - http://www.bohemiancoding.com/sketch -->
    <title>US-NM-3</title>
    <desc>Created with Sketch.</desc>
    <defs></defs>
    <g id="Icons-{3}" stroke="none" stroke-width="1" fill="none" fill-rule="evenodd">
        <g id="US-NM-3">
            <g>
                <rect id="rect2138" fill="#000000" x="0" y="0" width="60" height="40" rx="2"></rect>
                <g id="Group" transform="translate(1.000000, 1.000000)">
                    <path d="M29,38 C45.0162577,38 58,29.4934102 58,19 C58,8.50658975 45.0162577,0 29,0 C12.9837423,0 0,8.50658975 0,19 C0,29.4934102 12.9837423,38 29,38 Z" id="Oval-7" fill="#FFFFFF"></path>
                    <path d="M53.4000438,22.5 C51.1906124,28.8367399 43.1086881,33.7559293 33,34.7963014 L33,37.8207376 C31.6924759,37.9389237 30.3571245,38 29,38 C27.9870304,38 26.9861913,37.9659728 26,37.8995679 L26,34.885984 C15.427211,34.0767538 6.88177779,29.0443579 4.59995624,22.5 L0.491005046,22.5 C0.16857571,21.3655598 0,20.1956779 0,19 C0,17.8043221 0.16857571,16.6344402 0.491005046,15.5 L4.59995624,15.5 C6.88177779,8.95564207 15.427211,3.92324617 26,3.11401598 L26,0.100432144 C26.9861913,0.0340271969 27.9870304,0 29,0 C30.3571245,0 31.6924759,0.0610763057 33,0.179262411 L33,3.20369856 C43.1086881,4.24407069 51.1906124,9.16326006 53.4000438,15.5 L57.508995,15.5 C57.8314243,16.6344402 58,17.8043221 58,19 C58,20.1956779 57.8314243,21.3655598 57.508995,22.5 L53.4000438,22.5 Z" id="Oval" fill="#FF0000"></path>
                    <ellipse id="Oval-7" fill="#FFFFFF" cx="29" cy="19" rx="24" ry="15"></ellipse>
                </g>
            </g>
        </g>
    </g>
</svg>