<?xml version="1.0" encoding="UTF-8" standalone="no"?>
<svg width="40px" height="40px" viewBox="0 0 40 40" version="1.1" xmlns="http://www.w3.org/2000/svg" xmlns:xlink="http://www.w3.org/1999/xlink">
    <!-- Generator: Sketch 3.8.3 (29802) - http://www.bohemiancoding.com/sketch -->
    <title>US-NM-2</title>
    <desc>Created with Sketch.</desc>
    <defs></defs>
    <g id="Icons-{2}" stroke="none" stroke-width="1" fill="none" fill-rule="evenodd">
        <g id="US-NM-2">
            <g>
                <rect id="rect2138" fill="#000000" x="0" y="0" width="40" height="40" rx="2"></rect>
                <circle id="Oval-8" fill="#FFFFFF" cx="20" cy="20" r="19"></circle>
                <path d="M1.42179378,16 L5.02105084,16 C6.44491039,10.6543257 10.6543257,6.44491039 16,5.02105084 L16,1.42179378 C17.2896412,1.14545731 18.6278339,1 20,1 C21.3721661,1 22.7103588,1.14545731 24,1.42179378 L24,5.02105084 C29.3456743,6.44491039 33.5550896,10.6543257 34.9789492,16 L38.5782062,16 C38.8545427,17.2896412 39,18.6278339 39,20 C39,21.3721661 38.8545427,22.7103588 38.5782062,24 L34.9789492,24 C33.5550896,29.3456743 29.3456743,33.5550896 24,34.9789492 L24,38.5782062 C22.7103588,38.8545427 21.3721661,39 20,39 C18.6278339,39 17.2896412,38.8545427 16,38.5782062 L16,34.9789492 C10.6543257,33.5550896 6.44491039,29.3456743 5.02105084,24 L1.42179378,24 C1.14545731,22.7103588 1,21.3721661 1,20 C1,18.6278339 1.14545731,17.2896412 1.42179378,16 L1.42179378,16 Z" id="Combined-Shape" fill="#FF0000"></path>
                <ellipse id="Oval-7" fill="#FFFFFF" cx="20" cy="20" rx="14" ry="14"></ellipse>
            </g>
        </g>
    </g>
</svg>