<?xml version="1.0" encoding="UTF-8" standalone="no"?>
<svg width="40px" height="40px" viewBox="0 0 40 40" version="1.1" xmlns="http://www.w3.org/2000/svg" xmlns:xlink="http://www.w3.org/1999/xlink">
    <!-- Generator: Sketch 3.8.3 (29802) - http://www.bohemiancoding.com/sketch -->
    <title>US-ND-2</title>
    <desc>Created with Sketch.</desc>
    <defs></defs>
    <g id="Icons-{2}" stroke="none" stroke-width="1" fill="none" fill-rule="evenodd">
        <g id="US-ND-2">
            <g>
                <path d="M2.5,0 L37.5,0 C38.885,0 40,1.115 40,2.5 L40,37.5 C40,38.885 38.885,40 37.5,40 L2.5,40 C1.115,40 0,38.885 0,37.5 L0,2.5 C0,1.115 1.115,0 2.5,0 L2.5,0 Z" id="rect3751" fill="#000000"></path>
                <path d="M23.4257207,37.662094 C24.1220407,37.6288673 24.751614,37.5111073 26.0183273,37.1771673 C26.3650873,37.0857473 26.579534,37.040694 26.7648073,37.0203273 C26.8595407,37.0099207 26.9889673,36.994674 27.0524207,36.9864473 C27.115874,36.9782273 27.4162473,36.9751807 27.719914,36.9796807 L28.272034,36.9878607 L28.3718807,36.9403407 C28.4857807,36.886134 28.586114,36.7808607 28.5974473,36.7036673 C28.607054,36.6382073 28.581894,36.208914 28.5590207,36.0478873 C28.5179473,35.7588273 28.5120807,35.705454 28.511914,35.619374 C28.511914,35.507414 28.5502073,35.419294 28.6392673,35.3280207 C28.7196607,35.2456207 28.7805807,35.232214 29.0218607,35.243834 C29.1570073,35.2503673 29.194914,35.2584873 29.2550407,35.2939607 C29.3305807,35.3385207 29.5855073,35.5385207 29.8470207,35.758394 C30.146634,36.0103007 30.5999407,36.270394 30.892554,36.3583073 C31.3663807,36.500654 31.8894207,36.5339873 32.1411807,36.4378807 C32.4423807,36.322894 32.5759807,36.1366607 32.5697073,35.840494 C32.564374,35.5885473 32.4905807,35.340654 32.292934,34.9106807 C32.245014,34.8064407 32.174674,34.643894 32.136614,34.5494673 C32.0685407,34.3805407 32.0675273,34.3751073 32.0736207,34.2104073 C32.085014,33.902614 32.0710873,33.9074607 32.9695073,33.8989807 C33.816034,33.8909873 33.9602607,33.873934 34.284474,33.7434607 C34.583414,33.6231607 34.799674,33.4563807 34.8736873,33.2890673 C34.953954,33.1076007 34.940614,32.8254207 34.8365807,32.5044207 C34.799854,32.391114 34.747534,32.2539073 34.7203007,32.199514 C34.664554,32.0881807 34.4023073,31.683154 34.272274,31.5075807 C33.9148073,31.0249007 33.759294,30.798014 33.6554473,30.6076673 C33.5775007,30.4648007 33.5690407,30.379834 33.6186873,30.2382473 C33.6540007,30.137534 33.7375073,30.0681673 33.8758273,30.0246607 C33.963254,29.9971607 34.004254,29.9956007 34.311314,30.008074 C34.4977473,30.0156473 34.6858873,30.020514 34.7294007,30.0188807 C34.8092673,30.0158807 34.9786407,29.956654 35.326014,29.810214 C35.4257207,29.7681807 35.604494,29.6974873 35.7232873,29.6531273 C36.0439073,29.5333807 36.1117207,29.4999807 36.1707407,29.4327673 C36.235574,29.3589273 36.2684007,29.284054 36.2981207,29.1422473 C36.327494,29.0020807 36.3127407,28.930714 36.2248673,28.7879007 C36.185834,28.7244473 36.1277273,28.6280273 36.095754,28.5736407 C35.9819407,28.380054 35.8280873,28.1746407 35.6143073,27.930874 C35.4950607,27.7949007 35.3884007,27.6762407 35.377274,27.667174 C35.3193807,27.6200007 35.2024007,27.455054 35.2024007,27.420594 C35.2024007,27.3698807 35.2915273,27.2534073 35.3790807,27.189694 C35.416814,27.162234 35.5278473,27.0881473 35.6258207,27.025054 C35.7238007,26.9619607 35.959714,26.8013207 36.150074,26.6680873 C36.5262473,26.4047873 36.6600607,26.3215473 36.949414,26.1708273 C37.3727673,25.950314 37.4750473,25.866554 37.543094,25.6846873 C37.606354,25.5156073 37.6052807,25.4503207 37.5369607,25.312054 C37.437694,25.111194 37.2569873,24.9430407 36.8347473,24.6586073 C36.640234,24.527574 36.4477273,24.389654 36.4069607,24.352114 L36.3328407,24.2838607 L36.3338407,24.1708207 C36.335174,24.0128807 36.3855407,23.889934 36.493574,23.780714 C36.540354,23.7334207 36.6972407,23.5910007 36.842214,23.4642207 C37.2178407,23.1357273 37.5905607,22.766974 37.655054,22.6600207 C37.7808207,22.4514407 37.8216207,22.2172207 37.765254,22.0274073 C37.745214,21.9599273 37.7176807,21.9224007 37.620434,21.8300273 C37.4842873,21.700694 37.4215007,21.663314 36.9210073,21.4136273 C36.5517407,21.2294007 36.480494,21.1821673 36.462254,21.1094873 C36.427774,20.9721007 36.6335473,20.6538807 37.0492007,20.2018007 C37.1415073,20.1014073 37.409414,19.7811207 37.5065673,19.6550073 C37.581754,19.5574207 37.6518007,19.4088673 37.6923807,19.2609473 C37.7255473,19.140054 37.726114,19.1272407 37.7025007,19.032494 C37.6619673,18.869854 37.6496273,18.8499607 37.526434,18.748614 C37.4415473,18.6787807 37.3348473,18.616814 37.1421073,18.5254207 C36.727434,18.3287807 36.270834,18.0840607 36.1348207,17.9855473 C35.989214,17.8800873 35.9605807,17.826014 35.9605807,17.6564607 C35.9605807,17.5486873 35.9660473,17.5327273 36.0779673,17.3148073 C36.142534,17.1890807 36.284174,16.9391073 36.3927207,16.759314 C36.6132873,16.393994 36.759414,16.103994 36.8337607,15.8840607 C36.9103873,15.657354 36.9038273,15.621254 36.7571007,15.4623207 C36.6266607,15.3210207 36.461394,15.216314 36.2672007,15.1519207 C36.1165073,15.1019473 36.0883607,15.0982873 35.7417407,15.0835873 C35.5403073,15.0750407 35.3393607,15.0637873 35.2951873,15.0585807 C35.170174,15.0438273 35.0610673,14.9947407 34.929794,14.894194 C34.7050207,14.7220273 34.6584807,14.645554 34.6590207,14.4492073 C34.6590207,14.339874 34.685674,14.270034 34.7803207,14.1278207 C34.875694,13.9845207 34.904814,13.9125007 34.962554,13.677114 C35.0215073,13.4368007 35.053934,13.368954 35.216654,13.145514 C35.2743207,13.0663273 35.3360207,12.9601407 35.353754,12.9095473 C35.398654,12.7815007 35.3749073,12.669954 35.2810807,12.5681673 C35.1327607,12.407254 34.8599273,12.329754 34.0652407,12.222814 C33.6354807,12.1649807 33.290154,12.076194 33.0763673,11.968574 C32.9355273,11.897674 32.9212073,11.874894 32.9341407,11.7423473 C32.9496673,11.583294 32.9875207,11.4545807 33.157574,10.982614 C33.4113207,10.2783673 33.4866873,9.89806733 33.4936673,9.28676733 C33.4966007,9.028294 33.496334,9.02634067 33.447194,8.92798733 C33.356434,8.746474 33.1848407,8.68542067 32.8645007,8.72066733 C32.5775607,8.752234 32.3188273,8.800674 31.9666473,8.88874733 C31.690114,8.95790733 31.6004007,8.97340733 31.432794,8.98098067 L31.231334,8.99008733 L31.1845273,8.93998067 C31.0856607,8.83414733 31.072594,8.66924733 31.149474,8.497634 C31.3156207,8.126774 31.3573673,8.04128733 31.4326273,7.917834 C31.4784473,7.842674 31.6316673,7.64614067 31.7731273,7.48108067 C32.0576473,7.14908733 32.2141273,6.949394 32.266914,6.85090733 C32.2919673,6.804154 32.3017473,6.756314 32.3017473,6.680454 C32.3017473,6.4535742 32.229654,6.35312753 32.0050807,6.26712753 C31.7538273,6.17090753 31.5836007,6.1806542 31.1107473,6.31832087 C30.3918673,6.5276142 30.274234,6.4978342 30.2956007,6.1119742 C30.3080673,5.88696753 30.4026473,5.68608753 30.684674,5.2856342 C30.9295873,4.9378742 31.0476207,4.7502942 31.0587007,4.69122753 C31.067474,4.64446087 31.0609007,4.62132087 31.0236673,4.56756753 C30.902994,4.39344087 30.805834,4.34822087 30.4726407,4.31112087 C30.124574,4.2723542 29.857634,4.2924942 29.5741007,4.37890087 C29.3956073,4.4332942 28.945374,4.6096342 28.733554,4.7081142 C28.688234,4.72918753 28.5658607,4.78514753 28.461614,4.83246753 C28.0326073,5.02720753 27.6247407,5.21958087 27.3244073,5.36884753 C26.906394,5.5765942 26.2521007,5.88726753 26.1460007,5.9283742 C26.0916073,5.94944753 25.932154,6.02012753 25.791654,6.08544087 C25.481214,6.2297542 25.263514,6.32850753 24.9593473,6.4630142 C24.422354,6.70048067 24.2656473,6.773974 23.934174,6.943794 C23.6649007,7.08174067 23.5643407,7.125214 23.4958873,7.13326067 C23.399214,7.14462067 23.3359473,7.123374 23.3359473,7.07954733 C23.3359473,6.98010733 23.6295207,6.64868753 23.8748473,6.47116087 C24.0259807,6.36180753 24.2978473,6.18386087 24.3138007,6.18386087 C24.3411673,6.18386087 24.876834,5.8272342 25.058234,5.68824753 C25.645914,5.23796753 26.2059673,4.7208742 26.291354,4.5497142 C26.334714,4.4627942 26.336434,4.4519142 26.3170007,4.38706087 C26.3007207,4.3327142 26.2798073,4.3072742 26.2210873,4.27038087 C26.1797873,4.2444342 26.1200407,4.2188542 26.088314,4.21354087 C26.0565873,4.20820753 25.9675873,4.1898142 25.8905407,4.1726142 C25.672994,4.12406753 25.4437673,4.1084342 25.185994,4.1245742 C24.7587007,4.15132087 24.610634,4.1984942 23.9375073,4.5223142 C23.3372207,4.8110942 23.1663473,4.9137542 22.516134,5.3762542 C22.155534,5.6327542 21.9569273,5.75562087 21.663094,5.90398087 C21.3111227,6.0816942 21.0873473,6.16738087 20.975182,6.16738087 C20.8060367,6.16738087 20.7323627,6.1123142 20.7879687,6.02744753 C20.8021767,6.00576087 20.8676867,5.9300742 20.933546,5.8592542 C20.9994047,5.78844087 21.105068,5.66748087 21.1683527,5.59046753 C21.512914,5.17116087 21.7867207,4.8871142 22.3141073,4.40186753 C22.836214,3.9214742 23.0698873,3.65876087 23.3759207,3.20806087 C23.5177073,2.99926753 23.5900473,2.85264753 23.587974,2.77828753 C23.584174,2.64124753 23.4582273,2.51004087 23.2889073,2.46666087 C23.0595607,2.40790753 22.6053207,2.4111542 22.077074,2.4753342 C21.7313007,2.51734753 21.4486033,2.57928753 21.1027327,2.68882087 C20.420748,2.90480087 19.848672,3.1851742 19.0013727,3.71868087 C18.4568533,4.06154087 18.1381207,4.30560753 17.5943053,4.79612087 C17.041562,5.2946942 17.0869447,5.27292087 15.9276193,5.59582087 C15.1249567,5.81938087 14.8991633,5.96062087 13.8808713,6.876074 C13.545048,7.17798067 13.493456,7.21994733 13.2964267,7.351494 C13.1323833,7.46102067 12.7271413,7.671994 12.2935027,7.87362067 C11.8522007,8.078814 11.6719447,8.19316067 11.2953653,8.506794 C11.2143453,8.574274 10.7877587,8.98960067 10.3473953,9.42974067 C9.459642,10.3170607 9.22065333,10.5867673 8.82467267,11.148214 C8.487446,11.626354 7.853408,12.4822807 7.655228,12.726914 C7.49995,12.918594 7.174758,13.275614 6.780524,13.687234 C6.31264353,14.1757473 6.16963087,14.3347673 6.00697087,14.547354 C5.80782553,14.8076207 5.78508287,14.8419007 5.5446882,15.2441873 C5.43220953,15.432414 5.30455487,15.645454 5.26101153,15.7176207 C5.21746887,15.7897807 5.0527242,16.0419473 4.89491287,16.2779807 C4.59215153,16.7308207 4.5395822,16.822774 4.48467553,16.9955607 C4.41561687,17.2128873 4.42219753,17.4201673 4.51603887,17.9834273 C4.5682122,18.2965873 4.5354602,18.5807073 4.39864953,19.0017807 C4.29754887,19.3129407 4.22087753,19.4722607 3.85713487,20.1270007 C3.5014122,20.7673007 3.30874687,21.1866673 2.7932822,22.442614 C2.6965542,22.6783007 2.6063202,22.8961673 2.5927622,22.926774 C2.46437887,23.2165873 2.13744753,24.1399207 2.00847553,24.5769407 C1.92095687,24.873494 1.89816287,25.0844473 1.9258502,25.3416073 C1.9547782,25.6102873 1.9860122,25.6783673 2.15931287,25.8504873 C2.31026887,26.0004207 2.3741602,26.0386073 2.5505362,26.084314 C2.74299287,26.1341807 2.89650753,26.1458073 3.34027687,26.1441073 C3.87667753,26.1420407 3.8770062,26.1421073 3.94899953,26.2862073 L3.9977682,26.3838073 L3.9677042,26.6217007 C3.95116887,26.7525407 3.92224753,26.933754 3.9034342,27.0244007 C3.83036753,27.3764607 3.8297222,27.383614 3.86308353,27.471514 C3.87984287,27.515674 3.94926087,27.655634 4.01734553,27.7825407 C4.13282753,27.997794 4.14108487,28.019914 4.14036487,28.1121673 C4.13983153,28.183154 4.1227122,28.257554 4.0797582,28.3758673 C4.04684953,28.466514 4.01992153,28.567034 4.01991887,28.5992473 C4.0199162,28.6314607 4.0456362,28.7341873 4.0770742,28.8275407 C4.18787153,29.1565473 4.18599087,29.2218073 4.0535182,29.6449207 C4.00810953,29.7899607 3.9583482,29.9856273 3.9429382,30.079754 C3.9103962,30.2785073 3.9214082,30.4142407 3.99463353,30.716954 C4.05338687,30.9598407 4.14469087,31.095554 4.3578842,31.2568873 C4.7435682,31.5487407 5.24010353,31.6854273 5.9152582,31.6855873 C6.33533887,31.6855873 6.76074667,31.6172007 7.596346,31.4149473 C7.782172,31.3699673 7.963878,31.326114 8.00013667,31.3174873 C8.38306667,31.2264007 8.819162,31.1944807 9.028874,31.242174 C9.17900733,31.2763207 9.243282,31.302834 9.35385333,31.3762273 C9.47929733,31.459494 9.69669733,31.6881073 9.75568933,31.7987807 C9.82133933,31.921954 9.83486933,32.0094607 9.85460067,32.438494 C9.881588,33.025314 9.864574,32.960734 10.1715567,33.6416273 C10.4078053,34.165634 10.492026,34.4591207 10.5215387,34.8612407 C10.5651873,35.4559473 10.582114,35.5943273 10.629168,35.741114 C10.6775273,35.891974 10.784064,36.0851273 10.8794827,36.1949473 C10.96464,36.292954 11.122122,36.423214 11.3015993,36.544094 C11.4764307,36.6618473 11.6866527,36.747394 12.0264967,36.839094 L12.15815,36.8746207 L12.382612,36.8325207 C12.6905313,36.774774 12.8496433,36.7167073 13.2932007,36.5002407 C13.5031087,36.3978007 13.703356,36.306074 13.7381947,36.2964007 C14.02318,36.2172673 14.6366673,36.404874 15.565346,36.855154 C15.9088927,37.0217273 16.2988633,37.1963407 16.5127033,37.2793473 C16.7218787,37.360534 16.7200773,37.3602607 17.4026913,37.4162473 C17.624776,37.4344673 17.8991887,37.457114 18.0124973,37.4665873 C18.125806,37.4760607 18.574508,37.4900273 19.0096133,37.4976273 C19.7889787,37.5112407 19.970942,37.5222273 20.649498,37.596614 C20.907998,37.624954 21.1548213,37.6497207 21.5394873,37.6859073 C21.665294,37.6977407 23.0433007,37.680374 23.4257607,37.662094 L23.4257207,37.662094 Z" id="path3108" fill="#FFFFFF"></path>
                <polyline id="path3763" fill="#FFFFFF" points="4.3660338 6.6402954 2.47573847 3.2879748 2.47573847 6.6402954 1.69303807 6.6402954 1.69303807 1.69303813 2.47573847 1.69303813 4.2774262 4.8533756 4.2774262 1.69303813 5.0601266 1.69303813 5.0601266 6.6402954 4.3660338 6.6402954"></polyline>
                <path d="M38.3069927,4.1592828 C38.3069887,4.65647187 38.230688,5.09458673 38.07809,5.4736288 C37.9304073,5.84775053 37.716272,6.14310887 37.4356847,6.35970467 C37.342152,6.44831247 37.231392,6.51476813 37.1034067,6.5590718 C36.980338,6.6033756 36.8548107,6.63045013 36.726824,6.6402954 L36.4462333,6.6402954 L34.9399047,6.6402954 L34.9399047,1.69303813 L36.5348413,1.69303813 C36.6579047,1.69304307 36.7637413,1.69796547 36.8523513,1.70780607 C36.9458793,1.7127334 37.029564,1.72504027 37.1034067,1.74472593 C37.1772433,1.76442133 37.2436987,1.79149587 37.3027733,1.82594953 C37.361842,1.8604128 37.4258367,1.90225527 37.4947567,1.95147693 C37.7556533,2.17792307 37.95502,2.48066533 38.092858,2.8597048 C38.2356107,3.23382913 38.3069887,3.6670214 38.3069927,4.1592828 M37.5095247,4.1592828 C37.5095213,3.8245458 37.4726013,3.52672613 37.3987653,3.26582293 C37.3298453,3.0049264 37.2338533,2.8104822 37.1107907,2.6824896 C37.0467933,2.62342187 36.972954,2.57419547 36.8892713,2.53481027 C36.805584,2.49543327 36.712054,2.47574273 36.6086807,2.47573853 L35.7226047,2.47573853 L35.7226047,5.84282707 L36.5053053,5.84282707 C36.633292,5.84282787 36.7391287,5.82805993 36.822816,5.79852327 C36.9114207,5.76898827 36.9901833,5.71976187 37.0591027,5.65084393 C37.2067793,5.5031658 37.3175387,5.3013376 37.3913813,5.04535873 C37.47014,4.78446047 37.5095213,4.48910213 37.5095247,4.1592828" id="path3766" fill="#FFFFFF"></path>
            </g>
        </g>
    </g>
</svg>