<?xml version="1.0" encoding="UTF-8" standalone="no"?>
<svg width="60px" height="40px" viewBox="0 0 60 40" version="1.1" xmlns="http://www.w3.org/2000/svg" xmlns:xlink="http://www.w3.org/1999/xlink">
    <!-- Generator: Sketch 3.8.3 (29802) - http://www.bohemiancoding.com/sketch -->
    <title>US-NM-3</title>
    <desc>Created with Sketch.</desc>
    <defs>
        <ellipse id="path-1" cx="29" cy="19" rx="25" ry="16"></ellipse>
        <mask id="mask-2" maskContentUnits="userSpaceOnUse" maskUnits="objectBoundingBox" x="0" y="0" width="50" height="32" fill="white">
            <use xlink:href="#path-1"></use>
        </mask>
    </defs>
    <g id="Icons-{3}" stroke="none" stroke-width="1" fill="none" fill-rule="evenodd">
        <g id="US-NM-3">
            <g>
                <rect id="rect2138" fill="#000000" x="0" y="0" width="60" height="40" rx="2"></rect>
                <g id="Group" transform="translate(1.000000, 1.000000)">
                    <path d="M29,38 C45.0162577,38 58,29.4934102 58,19 C58,8.50658975 45.0162577,0 29,0 C12.9837423,0 0,8.50658975 0,19 C0,29.4934102 12.9837423,38 29,38 Z" id="Oval-7" fill="#FFFFFF"></path>
                    <use id="Oval-7" stroke="#FF0000" mask="url(#mask-2)" stroke-width="2" fill="#FFFFFF" xlink:href="#path-1"></use>
                    <rect id="rect2010" fill="#FF0000" x="26" y="1" width="1.03999996" height="2.97000003"></rect>
                    <rect id="rect2012" fill="#FF0000" transform="translate(28.520833, 1.975260) rotate(-90.000000) translate(-28.520833, -1.975260) " x="26.8541667" y="1.45442709" width="3.33333333" height="1.04166667"></rect>
                    <rect id="rect2014" fill="#FF0000" transform="translate(30.520833, 1.975260) rotate(-90.000000) translate(-30.520833, -1.975260) " x="28.8541667" y="1.45442709" width="3.33333333" height="1.04166667"></rect>
                    <rect id="rect2016" fill="#FF0000" x="32" y="1" width="1" height="2.97000003"></rect>
                    <rect id="rect2022" fill="#FF0000" x="52.6914064" y="15.0416667" width="2.83333333" height="1.04166667"></rect>
                    <rect id="rect2024" fill="#FF0000" x="53.3580731" y="17.3333333" width="3.33333333" height="1.04166667"></rect>
                    <rect id="rect2026" fill="#FF0000" x="53.3580731" y="19.625" width="3.33333333" height="1.04166667"></rect>
                    <rect id="rect2028" fill="#FF0000" x="52.6914064" y="21.9166667" width="2.83333333" height="1.04166667"></rect>
                    <rect id="rect2034" fill="#FF0000" transform="translate(32.520833, 35.846003) rotate(90.000000) translate(-32.520833, -35.846003) " x="31.366836" y="35.3251693" width="2.30799467" height="1.04166667"></rect>
                    <rect id="rect2036" fill="#FF0000" transform="translate(30.520833, 36.025339) rotate(90.000000) translate(-30.520833, -36.025339) " x="28.8541667" y="35.5045053" width="3.33333333" height="1.04166667"></rect>
                    <rect id="rect2038" fill="#FF0000" transform="translate(28.520833, 36.025339) rotate(90.000000) translate(-28.520833, -36.025339) " x="26.8541667" y="35.5045053" width="3.33333333" height="1.04166667"></rect>
                    <rect id="rect2040" fill="#FF0000" transform="translate(26.520833, 35.500000) rotate(90.000000) translate(-26.520833, -35.500000) " x="25.0208333" y="34.9791667" width="3" height="1.04166667"></rect>
                    <rect id="rect2046" fill="#FF0000" transform="translate(3.891333, 22.437500) scale(-1, -1) translate(-3.891333, -22.437500) " x="2.47466677" y="21.9166667" width="2.83333333" height="1.04166667"></rect>
                    <rect id="rect2048" fill="#FF0000" transform="translate(2.974667, 20.145833) scale(-1, -1) translate(-2.974667, -20.145833) " x="1.30800011" y="19.625" width="3.33333333" height="1.04166667"></rect>
                    <rect id="rect2050" fill="#FF0000" transform="translate(2.974667, 17.854167) scale(-1, -1) translate(-2.974667, -17.854167) " x="1.30800011" y="17.3333333" width="3.33333333" height="1.04166667"></rect>
                    <rect id="rect2052" fill="#FF0000" transform="translate(3.891333, 15.562500) scale(-1, -1) translate(-3.891333, -15.562500) " x="2.47466677" y="15.0416667" width="2.83333333" height="1.04166667"></rect>
                </g>
            </g>
        </g>
    </g>
</svg>