<?xml version="1.0" encoding="UTF-8" standalone="no"?>
<svg width="40px" height="40px" viewBox="0 0 40 40" version="1.1" xmlns="http://www.w3.org/2000/svg" xmlns:xlink="http://www.w3.org/1999/xlink">
    <!-- Generator: Sketch 3.8.3 (29802) - http://www.bohemiancoding.com/sketch -->
    <title>US-NE-2</title>
    <desc>Created with Sketch.</desc>
    <defs></defs>
    <g id="Icons-{2}" stroke="none" stroke-width="1" fill="none" fill-rule="evenodd">
        <g id="US-NE-2">
            <g>
                <rect id="rect15560" fill="#000000" x="0" y="0" width="40" height="40" rx="3"></rect>
                <polygon id="rect14769" fill="#FFFFFF" points="1.06708042 1.5240352 38.5374055 1.5240352 31.7229029 38.1455013 7.87069172 38.1455013"></polygon>
                <g id="text15643" transform="translate(5.544647, 3.904549)" fill="#000000">
                    <polyline id="path15665" points="1.9051049 2.53850023 0.512314776 0.823442054 0.512314776 2.53850023 0.041877923 2.53850023 0.041877923 0.0566662873 0.504906732 0.0566662873 1.89769685 1.79024622 1.89769685 0.0566662873 2.37554241 0.0566662873 2.37554241 2.53850023 1.9051049 2.53850023"></polyline>
                    <polyline id="path15667" points="3.918337 2.53850023 3.918337 0.0566662873 5.89639558 0.0566662873 5.89639558 0.5271038 4.38877385 0.5271038 4.38877385 0.979019554 5.25926751 0.979019554 5.25926751 1.45686511 4.38877385 1.45686511 4.38877385 2.06806338 5.92973343 2.06806338 5.92973343 2.53850023 3.918337 2.53850023"></polyline>
                    <path d="M9.70160595,1.77913317 C9.70160331,1.90260848 9.68184721,2.01126573 9.6423383,2.10510558 C9.60529346,2.19894608 9.55343451,2.27796983 9.4867608,2.34217618 C9.4200818,2.40638318 9.34105871,2.45577278 9.2496902,2.49034563 C9.15831706,2.52244848 9.0595372,2.53850023 8.95335128,2.53850023 L7.36794146,2.53850023 L7.36794146,0.0566662873 L8.89037994,0.0566662873 C8.98915716,0.0566689276 9.08052831,0.0739556833 9.16449274,0.108525894 C9.24845321,0.140631378 9.32130261,0.186317285 9.38304224,0.245582295 C9.44477726,0.302382578 9.49293186,0.37152828 9.52750735,0.453019402 C9.56207756,0.534514485 9.57936366,0.62341563 9.5793663,0.7197235 C9.57936366,0.769115079 9.57442232,0.819739682 9.56454955,0.871597308 C9.5571382,0.920988227 9.54355646,0.969143482 9.523803,1.01606175 C9.50404425,1.06051398 9.47934945,1.10126053 9.4497186,1.13830141 C9.4200818,1.17287558 9.38550961,1.20127473 9.34600005,1.22349886 C9.45959401,1.27288978 9.54726081,1.34820918 9.60900045,1.44945707 C9.67073481,1.54823758 9.70160331,1.65812918 9.70160595,1.77913317 M9.10892944,0.7197235 C9.10892746,0.662927177 9.08793636,0.617241931 9.04595744,0.582667099 C9.00397391,0.54562688 8.93235886,0.527105781 8.83111229,0.5271038 L7.83837832,0.5271038 L7.83837832,0.99013261 L8.83111229,0.99013261 C8.93976756,0.99013393 9.01261761,0.964204126 9.04966179,0.91234386 C9.08917136,0.858016885 9.10892746,0.793809878 9.10892944,0.7197235 M9.22376039,1.77913317 C9.22375841,1.67047658 9.19288991,1.59021848 9.13115489,1.53835821 C9.0718846,1.48403058 8.97434041,1.45686643 8.83852033,1.45686511 L7.83837832,1.45686511 L7.83837832,2.06806338 L8.83111229,2.06806338 C8.97927911,2.06806338 9.08299766,2.04213423 9.14226729,1.99027463 C9.20153296,1.93594633 9.22869711,1.86556629 9.22376039,1.77913317" id="path15669"></path>
                    <path d="M12.9213168,2.53850023 L12.3730912,1.60503457 L11.6063155,1.60503457 L11.6063155,2.53850023 L11.1358786,2.53850023 L11.1358786,0.0566662873 L12.6509084,0.0566662873 C12.7595636,0.0566689276 12.8620472,0.0776593751 12.958359,0.11963829 C13.0546669,0.159152477 13.137395,0.214715776 13.2065427,0.286328846 C13.2781551,0.355476529 13.3337184,0.436969631 13.3732332,0.530808152 C13.4152115,0.624650634 13.4362019,0.724664176 13.4362046,0.830850757 C13.4362019,0.998776978 13.3880473,1.14941578 13.2917401,1.28276651 C13.1954276,1.41365053 13.06578,1.50749103 12.9027957,1.56428802 L13.4695431,2.53850023 L12.9213168,2.53850023 M12.9657677,0.830850757 C12.9657658,0.79134053 12.9571227,0.753063327 12.9398379,0.716019148 C12.9250192,0.678978929 12.9027937,0.646875426 12.8731622,0.619709298 C12.8459954,0.590077783 12.8126576,0.567852332 12.773148,0.553033604 C12.7361039,0.535748828 12.6953573,0.527105781 12.6509084,0.5271038 L11.6063155,0.5271038 L11.6063155,1.13830141 L12.6509084,1.13830141 C12.6953573,1.13830273 12.7361039,1.13089468 12.773148,1.11607595 C12.8126576,1.09879118 12.8459954,1.07656573 12.8731622,1.04940026 C12.9027937,1.01976809 12.9250192,0.986429578 12.9398379,0.949386059 C12.9571227,0.91234518 12.9657658,0.872833633 12.9657677,0.830850757" id="path15671"></path>
                    <path d="M16.94855,2.53850023 L16.6966627,1.99768267 L15.4335203,1.99768267 L15.1742242,2.53850023 L14.6519277,2.53850023 L15.8261684,0.0566662873 L16.2966059,0.0566662873 L17.4745508,2.53850023 L16.94855,2.53850023 M16.063239,0.656751497 L15.6520698,1.51983711 L16.4707045,1.51983711 L16.063239,0.656751497" id="path15673"></path>
                    <path d="M20.9811087,1.83469647 C20.9811061,2.07176773 20.8860306,2.25574438 20.6958829,2.38662708 C20.5057305,2.51750978 20.2377914,2.58295113 19.8920649,2.58295113 C19.7661196,2.58295113 19.6475849,2.57554243 19.536459,2.56072568 C19.4278004,2.54837828 19.3228475,2.52738783 19.2215996,2.49775368 C19.1228191,2.46812018 19.0265093,2.42984298 18.9326694,2.38292273 C18.8412983,2.33353313 18.7486928,2.27550048 18.6548523,2.20882413 L18.9252614,1.82358407 C18.9993451,1.87297433 19.0721952,1.91619023 19.1438109,1.95323177 C19.2154246,1.98780528 19.2882747,2.01620443 19.3623604,2.03842922 C19.4389135,2.06065533 19.5179366,2.07670708 19.599431,2.08658448 C19.6833921,2.09646253 19.7747633,2.10140188 19.8735438,2.10140122 C20.0834483,2.10140188 20.2427301,2.07794143 20.3513894,2.03102118 C20.462514,1.98410093 20.5180779,1.91248588 20.5180799,1.81617537 C20.5180779,1.76431708 20.4958525,1.71492748 20.4514036,1.66800657 C20.4094207,1.61861763 20.3526224,1.58034043 20.2810093,1.55317562 C20.2217397,1.53342018 20.1488896,1.51366473 20.0624598,1.49390731 C19.976026,1.47168318 19.852552,1.44575404 19.6920365,1.41611856 C19.5981947,1.39636378 19.5154672,1.37784268 19.4438535,1.36055526 C19.3722371,1.34080048 19.3092651,1.31981003 19.2549375,1.29758326 C19.2006079,1.27535913 19.1524533,1.25189933 19.1104724,1.22720321 C19.0709602,1.20004038 19.0351523,1.17040623 19.0030501,1.13830141 C18.8746361,1.00742003 18.8104298,0.861720577 18.8104298,0.7012024 C18.8104298,0.439438979 18.9499555,0.250523631 19.2290077,0.134455698 C19.3154388,0.0949461307 19.4105143,0.0653119754 19.5142335,0.0455538916 C19.6204201,0.0233310804 19.7253737,0.0122180246 19.8290929,0.0122160444 C20.0044252,0.0122180246 20.1723501,0.0369134841 20.3328683,0.0863004427 C20.4933831,0.133223334 20.6563687,0.207307732 20.8218269,0.308554298 L20.5699389,0.7012024 C20.4439929,0.622180626 20.3217539,0.567852332 20.2032206,0.538216196 C20.0846833,0.508584681 19.9488619,0.493767933 19.795755,0.493765953 C19.6204201,0.493767933 19.4907724,0.509819025 19.4068106,0.541920548 C19.3228475,0.571556684 19.280866,0.622180626 19.2808673,0.693794357 C19.280866,0.748124632 19.3043264,0.792575534 19.3512473,0.827146405 C19.4006363,0.859251229 19.4586689,0.885181032 19.5253466,0.904935156 C19.592021,0.924692579 19.6599323,0.939509327 19.7290787,0.949386059 C19.7982231,0.956796083 19.852552,0.964204126 19.8920649,0.97161151 C20.0352937,0.998776978 20.1711151,1.03211548 20.2995304,1.07162571 C20.4304111,1.10866923 20.535364,1.14818078 20.6143898,1.19016101 C20.7279837,1.25189933 20.8168855,1.34080048 20.8810945,1.45686511 C20.9477676,1.57293238 20.9811061,1.69887573 20.9811087,1.83469647" id="path15675"></path>
                    <polyline id="path15677" points="24.2034236 2.53850023 23.4440565 1.26794976 22.8884222 1.84210517 22.8884222 2.53850023 22.4179854 2.53850023 22.4179854 0.0566662873 22.8884222 0.0566662873 22.8884222 1.15311881 23.9256065 0.0566662873 24.5590302 0.0566662873 23.7774377 0.908639508 24.7442412 2.53850023 24.2034236 2.53850023"></polyline>
                    <path d="M28.0787242,2.53850023 L27.8268369,1.99768267 L26.5636945,1.99768267 L26.3043984,2.53850023 L25.782102,2.53850023 L26.9563426,0.0566662873 L27.4267801,0.0566662873 L28.6047251,2.53850023 L28.0787242,2.53850023 M27.1934132,0.656751497 L26.782244,1.51983711 L27.6008787,1.51983711 L27.1934132,0.656751497" id="path15679"></path>
                </g>
            </g>
        </g>
    </g>
</svg>