<?xml version="1.0" encoding="UTF-8" standalone="no"?>
<svg width="60px" height="40px" viewBox="0 0 60 40" version="1.1" xmlns="http://www.w3.org/2000/svg" xmlns:xlink="http://www.w3.org/1999/xlink">
    <!-- Generator: Sketch 3.8.3 (29802) - http://www.bohemiancoding.com/sketch -->
    <title>US-ND-3</title>
    <desc>Created with Sketch.</desc>
    <defs></defs>
    <g id="Icons-{3}" stroke="none" stroke-width="1" fill="none" fill-rule="evenodd">
        <g id="US-ND-3">
            <g>
                <path d="M3.75,0 L56.25,0 C58.3275,0 60,1.115 60,2.5 L60,37.5 C60,38.885 58.3275,40 56.25,40 L3.75,40 C1.6725,40 0,38.885 0,37.5 L0,2.5 C0,1.115 1.6725,0 3.75,0 L3.75,0 Z" id="rect3751" fill="#000000"></path>
                <path d="M33.3670773,37.662094 C34.3542129,37.6288673 35.2467254,37.5111073 37.0424771,37.1771673 C37.5340603,37.0857473 37.8380698,37.040694 38.1007219,37.0203273 C38.2350203,37.0099207 38.4185016,36.994674 38.508456,36.9864473 C38.5984104,36.9782273 39.0242336,36.9751807 39.4547256,36.9796807 L40.2374366,36.9878607 L40.3789839,36.9403407 C40.5404538,36.886134 40.682691,36.7808607 40.6987577,36.7036673 C40.7123765,36.6382073 40.6767086,36.208914 40.6442823,36.0478873 C40.5860548,35.7588273 40.5777379,35.705454 40.5775017,35.619374 C40.5775017,35.507414 40.6317881,35.419294 40.7580437,35.3280207 C40.872013,35.2456207 40.958376,35.232214 41.3004258,35.243834 C41.492016,35.2503673 41.5457542,35.2584873 41.6309926,35.2939607 C41.7380816,35.3385207 42.0994775,35.5385207 42.470211,35.758394 C42.8949568,36.0103007 43.5375854,36.270394 43.9524077,36.3583073 C44.6241264,36.500654 45.3656123,36.5339873 45.722519,36.4378807 C46.1495141,36.322894 46.3389117,36.1366607 46.3300183,35.840494 C46.3224576,35.5885473 46.2178447,35.340654 45.9376516,34.9106807 C45.869718,34.8064407 45.7700007,34.643894 45.7160451,34.5494673 C45.6195411,34.3805407 45.6181046,34.3751073 45.6267428,34.2104073 C45.6428945,33.902614 45.6231514,33.9074607 46.8967934,33.8989807 C48.096869,33.8909873 48.3013315,33.873934 48.7609514,33.7434607 C49.1847426,33.6231607 49.4913229,33.4563807 49.5962476,33.2890673 C49.7100374,33.1076007 49.691126,32.8254207 49.5436435,32.5044207 C49.491578,32.391114 49.4174068,32.2539073 49.3787995,32.199514 C49.2997705,32.0881807 48.9279974,31.683154 48.7436561,31.5075807 C48.2368947,31.0249007 48.0164318,30.798014 47.8692139,30.6076673 C47.7587131,30.4648007 47.7467198,30.379834 47.8171012,30.2382473 C47.867163,30.137534 47.985546,30.0681673 48.1816348,30.0246607 C48.3055749,29.9971607 48.3636985,29.9956007 48.799001,30.008074 C49.0632976,30.0156473 49.3300136,30.020514 49.3917001,30.0188807 C49.5049228,30.0158807 49.7450343,29.956654 50.237487,29.810214 C50.3788358,29.7681807 50.6322732,29.6974873 50.8006801,29.6531273 C51.255206,29.5333807 51.3513413,29.4999807 51.4350108,29.4327673 C51.5269215,29.3589273 51.5734581,29.284054 51.6155906,29.1422473 C51.6572316,29.0020807 51.6363166,28.930714 51.5117433,28.7879007 C51.4564078,28.7244473 51.3740331,28.6280273 51.3287062,28.5736407 C51.1673591,28.380054 50.9492495,28.1746407 50.646185,27.930874 C50.4771354,27.7949007 50.3259292,27.6762407 50.3101555,27.667174 C50.2280832,27.6200007 50.0622469,27.455054 50.0622469,27.420594 C50.0622469,27.3698807 50.188597,27.2534073 50.3127167,27.189694 C50.3662093,27.162234 50.5236153,27.0881473 50.6625068,27.025054 C50.8014078,26.9619607 51.1358496,26.8013207 51.4057128,26.6680873 C51.9389936,26.4047873 52.1286936,26.3215473 52.5388943,26.1708273 C53.1390597,25.950314 53.2840566,25.866554 53.3805227,25.6846873 C53.4702031,25.5156073 53.4686815,25.4503207 53.3718278,25.312054 C53.2311028,25.111194 52.9749246,24.9430407 52.3763375,24.6586073 C52.1005864,24.527574 51.82768,24.389654 51.7698873,24.352114 L51.6648113,24.2838607 L51.6662289,24.1708207 C51.6681191,24.0128807 51.7395213,23.889934 51.8926743,23.780714 C51.9589919,23.7334207 52.1814017,23.5910007 52.3869226,23.4642207 C52.9194285,23.1357273 53.4478137,22.766974 53.5392425,22.6600207 C53.7175351,22.4514407 53.7753751,22.2172207 53.6954671,22.0274073 C53.6670575,21.9599273 53.6280249,21.9224007 53.4901635,21.8300273 C53.2971557,21.700694 53.2081464,21.663314 52.4986237,21.4136273 C51.9751341,21.2294007 51.8741315,21.1821673 51.8482737,21.1094873 C51.7993932,20.9721007 52.0911071,20.6538807 52.6803566,20.2018007 C52.8112148,20.1014073 53.1910118,19.7811207 53.3287408,19.6550073 C53.435329,19.5574207 53.5346304,19.4088673 53.5921585,19.2609473 C53.6391771,19.140054 53.6399804,19.1272407 53.6065051,19.032494 C53.5490431,18.869854 53.5315494,18.8499607 53.3569048,18.748614 C53.2365655,18.6787807 53.0853026,18.616814 52.8120654,18.5254207 C52.2242052,18.3287807 51.5769078,18.0840607 51.3840889,17.9855473 C51.1776701,17.8800873 51.1370782,17.826014 51.1370782,17.6564607 C51.1370782,17.5486873 51.144828,17.5327273 51.303491,17.3148073 C51.3950237,17.1890807 51.5958192,16.9391073 51.7497,16.759314 C52.0623855,16.393994 52.2695415,16.103994 52.3749388,15.8840607 C52.4835683,15.657354 52.4742686,15.621254 52.266262,15.4623207 C52.0813442,15.3210207 51.8470545,15.216314 51.571757,15.1519207 C51.3581271,15.1019473 51.3182251,15.0982873 50.8268404,15.0835873 C50.5412792,15.0750407 50.2564078,15.0637873 50.1937856,15.0585807 C50.0165609,15.0438273 49.8618862,14.9947407 49.675787,14.894194 C49.3571379,14.7220273 49.2911606,14.645554 49.2919262,14.4492073 C49.2919262,14.339874 49.3297112,14.270034 49.4638867,14.1278207 C49.5990924,13.9845207 49.6403742,13.9125007 49.7222291,13.677114 C49.8058041,13.4368007 49.8517737,13.368954 50.0824531,13.145514 C50.1642041,13.0663273 50.2516729,12.9601407 50.2768125,12.9095473 C50.3404648,12.7815007 50.3068004,12.669954 50.1737874,12.5681673 C49.963522,12.407254 49.5767408,12.329754 48.450156,12.222814 C47.8409082,12.1649807 47.3513571,12.076194 47.0482831,11.968574 C46.8486218,11.897674 46.8283211,11.874894 46.846656,11.7423473 C46.8686673,11.583294 46.92233,11.4545807 47.1634055,10.982614 C47.5231286,10.2783673 47.6299719,9.89806733 47.639867,9.28676733 C47.6440255,9.028294 47.6436474,9.02634067 47.5739843,8.92798733 C47.4453187,8.746474 47.20206,8.68542067 46.7479311,8.72066733 C46.3411516,8.752234 45.9743592,8.800674 45.4750924,8.88874733 C45.0830659,8.95790733 44.9558841,8.97340733 44.7182771,8.98098067 L44.432678,8.99008733 L44.3663227,8.93998067 C44.2261647,8.83414733 44.2076408,8.66924733 44.3166295,8.497634 C44.5521667,8.126774 44.6113487,8.04128733 44.7180408,7.917834 C44.7829974,7.842674 45.0002092,7.64614067 45.2007495,7.48108067 C45.6040982,7.14908733 45.8259316,6.949394 45.9007644,6.85090733 C45.9362812,6.804154 45.9501458,6.756314 45.9501458,6.680454 C45.9501458,6.4535742 45.8479429,6.35312753 45.5295773,6.26712753 C45.1733889,6.17090753 44.9320676,6.1806542 44.2617287,6.31832087 C43.242611,6.5276142 43.0758485,6.4978342 43.1061389,6.1119742 C43.1238122,5.88696753 43.2578932,5.68608753 43.6577074,5.2856342 C44.0049079,4.9378742 44.1722374,4.7502942 44.187945,4.69122753 C44.2003824,4.64446087 44.1910638,4.62132087 44.1382801,4.56756753 C43.9672079,4.39344087 43.8294694,4.34822087 43.357119,4.31112087 C42.8636835,4.2723542 42.485257,4.2924942 42.0833069,4.37890087 C41.8302664,4.4332942 41.1919947,4.6096342 40.8917088,4.7081142 C40.8274611,4.72918753 40.653979,4.78514753 40.506194,4.83246753 C39.8980142,5.02720753 39.3198034,5.21958087 38.8940369,5.36884753 C38.3014418,5.5765942 37.3738851,5.88726753 37.2234728,5.9283742 C37.1463623,5.94944753 36.9203138,6.02012753 36.7211345,6.08544087 C36.2810403,6.2297542 35.9724186,6.32850753 35.5412178,6.4630142 C34.7799511,6.70048067 34.5577964,6.773974 34.0878844,6.943794 C33.70615,7.08174067 33.5635914,7.125214 33.4665488,7.13326067 C33.3295002,7.14462067 33.2398104,7.123374 33.2398104,7.07954733 C33.2398104,6.98010733 33.6559936,6.64868753 34.0037801,6.47116087 C34.2180338,6.36180753 34.6034446,6.18386087 34.6260608,6.18386087 C34.6648571,6.18386087 35.4242431,5.8272342 35.6814041,5.68824753 C36.5145267,5.23796753 37.3084843,4.7208742 37.4295324,4.5497142 C37.4910016,4.4627942 37.49344,4.4519142 37.4658904,4.38706087 C37.4428111,4.3327142 37.4131634,4.3072742 37.3299191,4.27038087 C37.2713703,4.2444342 37.1866707,4.2188542 37.1416935,4.21354087 C37.0967163,4.20820753 36.9705458,4.1898142 36.8613208,4.1726142 C36.5529165,4.12406753 36.2279541,4.1084342 35.8625227,4.1245742 C35.2567717,4.15132087 35.0468656,4.1984942 34.0926099,4.5223142 C33.2416155,4.8110942 32.9993776,4.9137542 32.0776049,5.3762542 C31.5664015,5.6327542 31.2848475,5.75562087 30.8682957,5.90398087 C30.3693247,6.0816942 30.0520904,6.16738087 29.8930796,6.16738087 C29.6532913,6.16738087 29.5488476,6.1123142 29.6276773,6.02744753 C29.6478192,6.00576087 29.7406892,5.9300742 29.8340545,5.8592542 C29.9274188,5.78844087 30.077212,5.66748087 30.1669273,5.59046753 C30.6553935,5.17116087 31.0435546,4.8871142 31.7912025,4.40186753 C32.5313652,3.9214742 32.8626314,3.65876087 33.2964785,3.20806087 C33.4974818,2.99926753 33.6000344,2.85264753 33.5970951,2.77828753 C33.5917081,2.64124753 33.4131602,2.51004087 33.1731243,2.46666087 C32.8479918,2.40790753 32.20404,2.4111542 31.455173,2.4753342 C30.9649886,2.51734753 30.5642237,2.57928753 30.0739014,2.68882087 C29.1070882,2.90480087 28.2960866,3.1851742 27.0949156,3.71868087 C26.3229797,4.06154087 25.8711294,4.30560753 25.1001915,4.79612087 C24.3165968,5.2946942 24.3809334,5.27292087 22.7374198,5.59582087 C21.5995279,5.81938087 21.2794327,5.96062087 19.8358546,6.876074 C19.3597758,7.17798067 19.2866366,7.21994733 19.0073187,7.351494 C18.7747632,7.46102067 18.2002733,7.671994 17.5855269,7.87362067 C16.9599167,8.078814 16.7043774,8.19316067 16.170521,8.506794 C16.0556633,8.574274 15.4509141,8.98960067 14.8266346,9.42974067 C13.5681141,10.3170607 13.2293127,10.5867673 12.6679521,11.148214 C12.1898838,11.626354 11.2910421,12.4822807 11.0100929,12.726914 C10.7899636,12.918594 10.3289562,13.275614 9.77007177,13.687234 C9.10678265,14.1757473 8.90404123,14.3347673 8.67344685,14.547354 C8.39112915,14.8076207 8.35888809,14.8419007 8.01809342,15.2441873 C7.85863843,15.432414 7.67766923,15.645454 7.61594018,15.7176207 C7.55421207,15.7897807 7.32066236,16.0419473 7.09694167,16.2779807 C6.66773311,16.7308207 6.59320838,16.822774 6.51537013,16.9955607 C6.41746935,17.2128873 6.42679841,17.4201673 6.55983225,17.9834273 C6.6337956,18.2965873 6.58736484,18.5807073 6.39341567,19.0017807 C6.25009066,19.3129407 6.14139781,19.4722607 5.62573928,20.1270007 C5.12145027,20.7673007 4.84831893,21.1866673 4.11757222,22.442614 C3.98044611,22.6783007 3.85252619,22.8961673 3.83330574,22.926774 C3.65130355,23.2165873 3.18783048,24.1399207 3.00499377,24.5769407 C2.88092323,24.873494 2.8486094,25.0844473 2.88786025,25.3416073 C2.92886993,25.6102873 2.9731487,25.6783673 3.21882779,25.8504873 C3.43283004,26.0004207 3.52340537,26.0386073 3.7734442,26.084314 C4.04627972,26.1341807 4.26390926,26.1458073 4.89301732,26.1441073 C5.65344387,26.1420407 5.6539098,26.1421073 5.7559709,26.2862073 L5.82510764,26.3838073 L5.78248751,26.6217007 C5.75904625,26.7525407 5.71804602,26.933754 5.69137537,27.0244007 C5.58779266,27.3764607 5.5868778,27.383614 5.63417238,27.471514 C5.65793119,27.515674 5.75634138,27.655634 5.85286137,27.7825407 C6.01657403,27.997794 6.02828001,28.019914 6.02725931,28.1121673 C6.02650323,28.183154 6.00223406,28.257554 5.94134048,28.3758673 C5.89468762,28.466514 5.85651323,28.567034 5.85650945,28.5992473 C5.85650567,28.6314607 5.89296754,28.7341873 5.93753551,28.8275407 C6.09460697,29.1565473 6.09194085,29.2218073 5.90414143,29.6449207 C5.83976799,29.7899607 5.76922401,29.9856273 5.74737808,30.079754 C5.70124502,30.2785073 5.71685615,30.4142407 5.82066379,30.716954 C5.90395525,30.9598407 6.03339205,31.095554 6.33562484,31.2568873 C6.88238843,31.5487407 7.58630002,31.6854273 8.5434307,31.6855873 C9.13895661,31.6855873 9.7420345,31.6172007 10.926619,31.4149473 C11.1900546,31.3699673 11.4476495,31.326114 11.4990515,31.3174873 C12.0419108,31.2264007 12.6601399,31.1944807 12.9574374,31.242174 C13.1702734,31.2763207 13.2613921,31.302834 13.4181432,31.3762273 C13.5959785,31.459494 13.9041748,31.6881073 13.9878046,31.7987807 C14.0808731,31.921954 14.1000539,32.0094607 14.1280259,32.438494 C14.1662844,33.025314 14.1421646,32.960734 14.5773575,33.6416273 C14.9122746,34.165634 15.0316697,34.4591207 15.0735083,34.8612407 C15.1353867,35.4559473 15.1593827,35.5943273 15.2260886,35.741114 C15.2946451,35.891974 15.4456764,36.0851273 15.5809463,36.1949473 C15.7016693,36.292954 15.9249232,36.423214 16.1793586,36.544094 C16.4272076,36.6618473 16.7252281,36.747394 17.2070068,36.839094 L17.3936447,36.8746207 L17.7118525,36.8325207 C18.1483732,36.774774 18.3739378,36.7167073 19.0027453,36.5002407 C19.3003207,36.3978007 19.5842006,36.306074 19.6335895,36.2964007 C20.037598,36.2172673 20.9073062,36.404874 22.2238443,36.855154 C22.710872,37.0217273 23.2637126,37.1963407 23.5668621,37.2793473 C23.8633988,37.360534 23.8608452,37.3602607 24.8285506,37.4162473 C25.1433881,37.4344673 25.5324083,37.457114 25.6930399,37.4665873 C25.8536716,37.4760607 26.4897724,37.4900273 27.106598,37.4976273 C28.2114625,37.5112407 28.4694222,37.5222273 29.4313748,37.596614 C29.7978364,37.624954 30.1477447,37.6497207 30.6930651,37.6859073 C30.8714145,37.6977407 32.8249409,37.680374 33.367134,37.662094 L33.3670773,37.662094 Z" id="path3108" fill="#FFFFFF"></path>
                <polyline id="path3763" fill="#FFFFFF" points="8.46146802 9 4.2735973 4.04871539 4.2735973 9 2.5395571 9 2.5395571 1.69303813 4.2735973 1.69303813 8.26516157 6.36076898 8.26516157 1.69303813 9.99920176 1.69303813 9.99920176 9 8.46146802 9"></polyline>
                <path d="M57.460489,5.33561315 C57.4604801,6.06994762 57.2914392,6.71703114 56.9533647,7.27686577 C56.6261798,7.8294332 56.1517719,8.26566927 55.5301423,8.58557526 C55.3229246,8.71644653 55.0775404,8.81459971 54.7939943,8.88003499 C54.5213407,8.94547048 54.2432402,8.98545881 53.959691,9 L53.3380541,9 L50.0008455,9 L50.0008455,1.69303813 L53.5343614,1.69303813 C53.8070031,1.69304542 54.0414798,1.70031567 54.2377916,1.71484996 C54.444999,1.7221275 54.6303989,1.7403044 54.7939943,1.76937958 C54.9575763,1.79846914 55.1048053,1.83845748 55.2356828,1.88934459 C55.366547,1.94024588 55.5083245,2.00204604 55.6610139,2.07474508 C56.2390196,2.40919974 56.6807082,2.85634168 56.9860825,3.41617247 C57.3023451,3.96874374 57.4604801,4.60855671 57.460489,5.33561315 M55.6937318,5.33561315 C55.6937244,4.84121588 55.6119297,4.40134449 55.4483491,4.01599769 C55.2956597,3.63066074 55.0829934,3.34347205 54.8103532,3.15443053 C54.6685698,3.06718912 54.5049818,2.99448309 54.3195863,2.93631224 C54.1341805,2.87815351 53.9269687,2.84907113 53.6979494,2.84906493 L51.7348848,2.84906493 L51.7348848,7.82216137 L53.4689256,7.82216137 C53.7524748,7.82216256 53.9869515,7.80035073 54.1723573,7.75672589 C54.3686573,7.71310351 54.5431527,7.64039748 54.6958406,7.53860761 C55.0230121,7.3204911 55.2683948,7.02239644 55.4319902,6.64432275 C55.6064767,6.25898324 55.6937244,5.82274717 55.6937318,5.33561315" id="path3766" fill="#FFFFFF"></path>
            </g>
        </g>
    </g>
</svg>