<?xml version="1.0" encoding="UTF-8" standalone="no"?>
<svg width="60px" height="40px" viewBox="0 0 60 40" version="1.1" xmlns="http://www.w3.org/2000/svg" xmlns:xlink="http://www.w3.org/1999/xlink">
    <!-- Generator: Sketch 3.8.3 (29802) - http://www.bohemiancoding.com/sketch -->
    <title>US-ND-3</title>
    <desc>Created with Sketch.</desc>
    <defs></defs>
    <g id="Icons-{3}" stroke="none" stroke-width="1" fill="none" fill-rule="evenodd">
        <g id="US-ND-3">
            <g>
                <path d="M3.75,0 L56.25,0 C58.3275,0 60,1.115 60,2.5 L60,37.5 C60,38.885 58.3275,40 56.25,40 L3.75,40 C1.6725,40 0,38.885 0,37.5 L0,2.5 C0,1.115 1.6725,0 3.75,0 L3.75,0 Z" id="rect3751" fill="#000000"></path>
                <path d="M35.138581,37.662094 C36.183061,37.6288673 37.127421,37.5111073 39.027491,37.1771673 C39.547631,37.0857473 39.869301,37.040694 40.147211,37.0203273 C40.289311,37.0099207 40.483451,36.994674 40.578631,36.9864473 C40.673811,36.9782273 41.124371,36.9751807 41.579871,36.9796807 L42.408051,36.9878607 L42.557821,36.9403407 C42.728671,36.886134 42.879171,36.7808607 42.896171,36.7036673 C42.910581,36.6382073 42.872841,36.208914 42.838531,36.0478873 C42.776921,35.7588273 42.768121,35.705454 42.767871,35.619374 C42.767871,35.507414 42.825311,35.419294 42.958901,35.3280207 C43.079491,35.2456207 43.170871,35.232214 43.532791,35.243834 C43.735511,35.2503673 43.792371,35.2584873 43.882561,35.2939607 C43.995871,35.3385207 44.378261,35.5385207 44.770531,35.758394 C45.219951,36.0103007 45.899911,36.270394 46.338831,36.3583073 C47.049571,36.500654 47.834131,36.5339873 48.211771,36.4378807 C48.663571,36.322894 48.863971,36.1366607 48.854561,35.840494 C48.846561,35.5885473 48.735871,35.340654 48.439401,34.9106807 C48.367521,34.8064407 48.262011,34.643894 48.204921,34.5494673 C48.102811,34.3805407 48.101291,34.3751073 48.110431,34.2104073 C48.127521,33.902614 48.106631,33.9074607 49.454261,33.8989807 C50.724051,33.8909873 50.940391,33.873934 51.426711,33.7434607 C51.875121,33.6231607 52.199511,33.4563807 52.310531,33.2890673 C52.430931,33.1076007 52.410921,32.8254207 52.254871,32.5044207 C52.199781,32.391114 52.121301,32.2539073 52.080451,32.199514 C51.996831,32.0881807 51.603461,31.683154 51.408411,31.5075807 C50.872211,31.0249007 50.638941,30.798014 50.483171,30.6076673 C50.366251,30.4648007 50.353561,30.379834 50.428031,30.2382473 C50.481001,30.137534 50.606261,30.0681673 50.813741,30.0246607 C50.944881,29.9971607 51.006381,29.9956007 51.466971,30.008074 C51.746621,30.0156473 52.028831,30.020514 52.094101,30.0188807 C52.213901,30.0158807 52.467961,29.956654 52.989021,29.810214 C53.138581,29.7681807 53.406741,29.6974873 53.584931,29.6531273 C54.065861,29.5333807 54.167581,29.4999807 54.256111,29.4327673 C54.353361,29.3589273 54.402601,29.284054 54.447181,29.1422473 C54.491241,29.0020807 54.469111,28.930714 54.337301,28.7879007 C54.278751,28.7244473 54.191591,28.6280273 54.143631,28.5736407 C53.972911,28.380054 53.742131,28.1746407 53.421461,27.930874 C53.242591,27.7949007 53.082601,27.6762407 53.065911,27.667174 C52.979071,27.6200007 52.803601,27.455054 52.803601,27.420594 C52.803601,27.3698807 52.937291,27.2534073 53.068621,27.189694 C53.125221,27.162234 53.291771,27.0881473 53.438731,27.025054 C53.585701,26.9619607 53.939571,26.8013207 54.225111,26.6680873 C54.789371,26.4047873 54.990091,26.3215473 55.424121,26.1708273 C56.059151,25.950314 56.212571,25.866554 56.314641,25.6846873 C56.409531,25.5156073 56.407921,25.4503207 56.305441,25.312054 C56.156541,25.111194 55.885481,24.9430407 55.252121,24.6586073 C54.960351,24.527574 54.671591,24.389654 54.610441,24.352114 L54.499261,24.2838607 L54.500761,24.1708207 C54.502761,24.0128807 54.578311,23.889934 54.740361,23.780714 C54.810531,23.7334207 55.045861,23.5910007 55.263321,23.4642207 C55.826761,23.1357273 56.385841,22.766974 56.482581,22.6600207 C56.671231,22.4514407 56.732431,22.2172207 56.647881,22.0274073 C56.617821,21.9599273 56.576521,21.9224007 56.430651,21.8300273 C56.226431,21.700694 56.132251,21.663314 55.381511,21.4136273 C54.827611,21.2294007 54.720741,21.1821673 54.693381,21.1094873 C54.641661,20.9721007 54.950321,20.6538807 55.573801,20.2018007 C55.712261,20.1014073 56.114121,19.7811207 56.259851,19.6550073 C56.372631,19.5574207 56.477701,19.4088673 56.538571,19.2609473 C56.588321,19.140054 56.589171,19.1272407 56.553751,19.032494 C56.492951,18.869854 56.474441,18.8499607 56.289651,18.748614 C56.162321,18.6787807 56.002271,18.616814 55.713161,18.5254207 C55.091151,18.3287807 54.406251,18.0840607 54.202231,17.9855473 C53.983821,17.8800873 53.940871,17.826014 53.940871,17.6564607 C53.940871,17.5486873 53.949071,17.5327273 54.116951,17.3148073 C54.213801,17.1890807 54.426261,16.9391073 54.589081,16.759314 C54.919931,16.393994 55.139121,16.103994 55.250641,15.8840607 C55.365581,15.657354 55.355741,15.621254 55.135651,15.4623207 C54.939991,15.3210207 54.692091,15.216314 54.400801,15.1519207 C54.174761,15.1019473 54.132541,15.0982873 53.612611,15.0835873 C53.310461,15.0750407 53.009041,15.0637873 52.942781,15.0585807 C52.755261,15.0438273 52.591601,14.9947407 52.394691,14.894194 C52.057531,14.7220273 51.987721,14.645554 51.988531,14.4492073 C51.988531,14.339874 52.028511,14.270034 52.170481,14.1278207 C52.313541,13.9845207 52.357221,13.9125007 52.443831,13.677114 C52.532261,13.4368007 52.580901,13.368954 52.824981,13.145514 C52.911481,13.0663273 53.004031,12.9601407 53.030631,12.9095473 C53.097981,12.7815007 53.062361,12.669954 52.921621,12.5681673 C52.699141,12.407254 52.289891,12.329754 51.097861,12.222814 C50.453221,12.1649807 49.935231,12.076194 49.614551,11.968574 C49.403291,11.897674 49.381811,11.874894 49.401211,11.7423473 C49.424501,11.583294 49.481281,11.4545807 49.736361,10.982614 C50.116981,10.2783673 50.230031,9.89806733 50.240501,9.28676733 C50.244901,9.028294 50.244501,9.02634067 50.170791,8.92798733 C50.034651,8.746474 49.777261,8.68542067 49.296751,8.72066733 C48.866341,8.752234 48.478241,8.800674 47.949971,8.88874733 C47.535171,8.95790733 47.400601,8.97340733 47.149191,8.98098067 L46.847001,8.99008733 L46.776791,8.93998067 C46.628491,8.83414733 46.608891,8.66924733 46.724211,8.497634 C46.973431,8.126774 47.036051,8.04128733 47.148941,7.917834 C47.217671,7.842674 47.447501,7.64614067 47.659691,7.48108067 C48.086471,7.14908733 48.321191,6.949394 48.400371,6.85090733 C48.437951,6.804154 48.452621,6.756314 48.452621,6.680454 C48.452621,6.4535742 48.344481,6.35312753 48.007621,6.26712753 C47.630741,6.17090753 47.375401,6.1806542 46.666121,6.31832087 C45.587801,6.5276142 45.411351,6.4978342 45.443401,6.1119742 C45.462101,5.88696753 45.603971,5.68608753 46.027011,5.2856342 C46.394381,4.9378742 46.571431,4.7502942 46.588051,4.69122753 C46.601211,4.64446087 46.591351,4.62132087 46.535501,4.56756753 C46.354491,4.39344087 46.208751,4.34822087 45.708961,4.31112087 C45.186861,4.2723542 44.786451,4.2924942 44.361151,4.37890087 C44.093411,4.4332942 43.418061,4.6096342 43.100331,4.7081142 C43.032351,4.72918753 42.848791,4.78514753 42.692421,4.83246753 C42.048911,5.02720753 41.437111,5.21958087 40.986611,5.36884753 C40.359591,5.5765942 39.378151,5.88726753 39.219001,5.9283742 C39.137411,5.94944753 38.898231,6.02012753 38.687481,6.08544087 C38.221821,6.2297542 37.895271,6.32850753 37.439021,6.4630142 C36.633531,6.70048067 36.398471,6.773974 35.901261,6.943794 C35.497351,7.08174067 35.346511,7.125214 35.243831,7.13326067 C35.098821,7.14462067 35.003921,7.123374 35.003921,7.07954733 C35.003921,6.98010733 35.444281,6.64868753 35.812271,6.47116087 C36.038971,6.36180753 36.446771,6.18386087 36.470701,6.18386087 C36.511751,6.18386087 37.315251,5.8272342 37.587351,5.68824753 C38.468871,5.23796753 39.308951,4.7208742 39.437031,4.5497142 C39.502071,4.4627942 39.504651,4.4519142 39.475501,4.38706087 C39.451081,4.3327142 39.419711,4.3072742 39.331631,4.27038087 C39.269681,4.2444342 39.180061,4.2188542 39.132471,4.21354087 C39.084881,4.20820753 38.951381,4.1898142 38.835811,4.1726142 C38.509491,4.12406753 38.165651,4.1084342 37.778991,4.1245742 C37.138051,4.15132087 36.915951,4.1984942 35.906261,4.5223142 C35.005831,4.8110942 34.749521,4.9137542 33.774201,5.3762542 C33.233301,5.6327542 32.935391,5.75562087 32.494641,5.90398087 C31.966684,6.0816942 31.631021,6.16738087 31.462773,6.16738087 C31.209055,6.16738087 31.098544,6.1123142 31.181953,6.02744753 C31.203265,6.00576087 31.30153,5.9300742 31.400319,5.8592542 C31.499107,5.78844087 31.657602,5.66748087 31.752529,5.59046753 C32.269371,5.17116087 32.680081,4.8871142 33.471161,4.40186753 C34.254321,3.9214742 34.604831,3.65876087 35.063881,3.20806087 C35.276561,2.99926753 35.385071,2.85264753 35.381961,2.77828753 C35.376261,2.64124753 35.187341,2.51004087 34.933361,2.46666087 C34.589341,2.40790753 33.907981,2.4111542 33.115611,2.4753342 C32.596951,2.51734753 32.172905,2.57928753 31.654099,2.68882087 C30.631122,2.90480087 29.773008,3.1851742 28.502059,3.71868087 C27.68528,4.06154087 27.207181,4.30560753 26.391458,4.79612087 C25.562343,5.2946942 25.630417,5.27292087 23.891429,5.59582087 C22.687435,5.81938087 22.348745,5.96062087 20.821307,6.876074 C20.317572,7.17798067 20.240184,7.21994733 19.94464,7.351494 C19.698575,7.46102067 19.090712,7.671994 18.440254,7.87362067 C17.778301,8.078814 17.507917,8.19316067 16.943048,8.506794 C16.821518,8.574274 16.181638,8.98960067 15.521093,9.42974067 C14.189463,10.3170607 13.83098,10.5867673 13.237009,11.148214 C12.731169,11.626354 11.780112,12.4822807 11.482842,12.726914 C11.249925,12.918594 10.762137,13.275614 10.170786,13.687234 C9.4689653,14.1757473 9.2544463,14.3347673 9.0104563,14.547354 C8.7117383,14.8076207 8.6776243,14.8419007 8.3170323,15.2441873 C8.1483143,15.432414 7.9568323,15.645454 7.8915173,15.7176207 C7.8262033,15.7897807 7.5790863,16.0419473 7.3423693,16.2779807 C6.8882273,16.7308207 6.8093733,16.822774 6.7270133,16.9955607 C6.6234253,17.2128873 6.6332963,17.4201673 6.7740583,17.9834273 C6.8523183,18.2965873 6.8031903,18.5807073 6.5979743,19.0017807 C6.4463233,19.3129407 6.3313163,19.4722607 5.7857023,20.1270007 C5.2521183,20.7673007 4.9631203,21.1866673 4.1899233,22.442614 C4.0448313,22.6783007 3.9094803,22.8961673 3.8891433,22.926774 C3.6965683,23.2165873 3.2061713,24.1399207 3.0127133,24.5769407 C2.8814353,24.873494 2.8472443,25.0844473 2.8887753,25.3416073 C2.9321673,25.6102873 2.9790183,25.6783673 3.2389693,25.8504873 C3.4654033,26.0004207 3.5612403,26.0386073 3.8258043,26.084314 C4.1144893,26.1341807 4.3447613,26.1458073 5.0104153,26.1441073 C5.8150163,26.1420407 5.8155093,26.1421073 5.9234993,26.2862073 L5.9966523,26.3838073 L5.9515563,26.6217007 C5.9267533,26.7525407 5.8833713,26.933754 5.8551513,27.0244007 C5.7455513,27.3764607 5.7445833,27.383614 5.7946253,27.471514 C5.8197643,27.515674 5.9238913,27.655634 6.0260183,27.7825407 C6.1992413,27.997794 6.2116273,28.019914 6.2105473,28.1121673 C6.2097473,28.183154 6.1840683,28.257554 6.1196373,28.3758673 C6.0702743,28.466514 6.0298823,28.567034 6.0298783,28.5992473 C6.0298743,28.6314607 6.0684543,28.7341873 6.1156113,28.8275407 C6.2818073,29.1565473 6.2789863,29.2218073 6.0802773,29.6449207 C6.0121643,29.7899607 5.9375223,29.9856273 5.9144073,30.079754 C5.8655943,30.2785073 5.8821123,30.4142407 5.9919503,30.716954 C6.0800803,30.9598407 6.2170363,31.095554 6.5368263,31.2568873 C7.1153523,31.5487407 7.8601553,31.6854273 8.8728873,31.6855873 C9.5030083,31.6855873 10.14112,31.6172007 11.394519,31.4149473 C11.673258,31.3699673 11.945817,31.326114 12.000205,31.3174873 C12.5746,31.2264007 13.228743,31.1944807 13.543311,31.242174 C13.768511,31.2763207 13.864923,31.302834 14.03078,31.3762273 C14.218946,31.459494 14.545046,31.6881073 14.633534,31.7987807 C14.732009,31.921954 14.752304,32.0094607 14.781901,32.438494 C14.822382,33.025314 14.796861,32.960734 15.257335,33.6416273 C15.611708,34.165634 15.738039,34.4591207 15.782308,34.8612407 C15.847781,35.4559473 15.873171,35.5943273 15.943752,35.741114 C16.016291,35.891974 16.176096,36.0851273 16.319224,36.1949473 C16.44696,36.292954 16.683183,36.423214 16.952399,36.544094 C17.214646,36.6618473 17.529979,36.747394 18.039745,36.839094 L18.237225,36.8746207 L18.573918,36.8325207 C19.035797,36.774774 19.274465,36.7167073 19.939801,36.5002407 C20.254663,36.3978007 20.555034,36.306074 20.607292,36.2964007 C21.03477,36.2172673 21.955001,36.404874 23.348019,36.855154 C23.863339,37.0217273 24.448295,37.1963407 24.769055,37.2793473 C25.082818,37.360534 25.080116,37.3602607 26.104037,37.4162473 C26.437164,37.4344673 26.848783,37.457114 27.018746,37.4665873 C27.188709,37.4760607 27.861762,37.4900273 28.51442,37.4976273 C29.683468,37.5112407 29.956413,37.5222273 30.974247,37.596614 C31.361997,37.624954 31.732232,37.6497207 32.309231,37.6859073 C32.497941,37.6977407 34.564951,37.680374 35.138641,37.662094 L35.138581,37.662094 Z" id="path3108" fill="#FFFFFF"></path>
                <polyline id="path3763" fill="#FFFFFF" points="6.5490507 6.6402954 3.7136077 3.2879748 3.7136077 6.6402954 2.5395571 6.6402954 2.5395571 1.69303813 3.7136077 1.69303813 6.4161393 4.8533756 6.4161393 1.69303813 7.5901899 1.69303813 7.5901899 6.6402954 6.5490507 6.6402954"></polyline>
                <path d="M57.460489,4.1592828 C57.460483,4.65647187 57.346032,5.09458673 57.117135,5.4736288 C56.895611,5.84775053 56.574408,6.14310887 56.153527,6.35970467 C56.013228,6.44831247 55.847088,6.51476813 55.65511,6.5590718 C55.470507,6.6033756 55.282216,6.63045013 55.090236,6.6402954 L54.66935,6.6402954 L52.409857,6.6402954 L52.409857,1.69303813 L54.802262,1.69303813 C54.986857,1.69304307 55.145612,1.69796547 55.278527,1.70780607 C55.418819,1.7127334 55.544346,1.72504027 55.65511,1.74472593 C55.765865,1.76442133 55.865548,1.79149587 55.95416,1.82594953 C56.042763,1.8604128 56.138755,1.90225527 56.242135,1.95147693 C56.63348,2.17792307 56.93253,2.48066533 57.139287,2.8597048 C57.353416,3.23382913 57.460483,3.6670214 57.460489,4.1592828 M56.264287,4.1592828 C56.264282,3.8245458 56.208902,3.52672613 56.098148,3.26582293 C55.994768,3.0049264 55.85078,2.8104822 55.666186,2.6824896 C55.57019,2.62342187 55.459431,2.57419547 55.333907,2.53481027 C55.208376,2.49543327 55.068081,2.47574273 54.913021,2.47573853 L53.583907,2.47573853 L53.583907,5.84282707 L54.757958,5.84282707 C54.949938,5.84282787 55.108693,5.82805993 55.234224,5.79852327 C55.367131,5.76898827 55.485275,5.71976187 55.588654,5.65084393 C55.810169,5.5031658 55.976308,5.3013376 56.087072,5.04535873 C56.20521,4.78446047 56.264282,4.48910213 56.264287,4.1592828" id="path3766" fill="#FFFFFF"></path>
            </g>
        </g>
    </g>
</svg>