<?xml version="1.0" encoding="UTF-8" standalone="no"?>
<svg width="60px" height="40px" viewBox="0 0 60 40" version="1.1" xmlns="http://www.w3.org/2000/svg" xmlns:xlink="http://www.w3.org/1999/xlink">
    <!-- Generator: Sketch 3.8.3 (29802) - http://www.bohemiancoding.com/sketch -->
    <title>US-NE-3</title>
    <desc>Created with Sketch.</desc>
    <defs></defs>
    <g id="Icons-{3}" stroke="none" stroke-width="1" fill="none" fill-rule="evenodd">
        <g id="US-NE-3">
            <g>
                <rect id="rect15560" fill="#000000" x="0" y="0" width="60" height="40" rx="3"></rect>
                <polygon id="rect14769" fill="#FFFFFF" points="1.60062063 1.5240352 57.8061082 1.5240352 47.5843543 38.1455013 11.8060376 38.1455013"></polygon>
                <g id="text15643" transform="translate(16.000000, 3.000000)" fill="#000000">
                    <polyline id="path15665" points="1.86080013 2.53850023 0.500400479 0.823442054 0.500400479 2.53850023 0.0409040178 2.53850023 0.0409040178 0.0566662873 0.493164715 0.0566662873 1.85356437 1.79024622 1.85356437 0.0566662873 2.32029724 0.0566662873 2.32029724 2.53850023 1.86080013 2.53850023"></polyline>
                    <polyline id="path15667" points="3.82721288 2.53850023 3.82721288 0.0566662873 5.7592701 0.0566662873 5.7592701 0.5271038 4.28670934 0.5271038 4.28670934 0.979019554 5.13695897 0.979019554 5.13695897 1.45686511 4.28670934 1.45686511 4.28670934 2.06806338 5.79183265 2.06806338 5.79183265 2.53850023 3.82721288 2.53850023"></polyline>
                    <path d="M9.47598721,1.77913317 C9.47598463,1.90260848 9.45668797,2.01126573 9.41809787,2.10510558 C9.38191454,2.19894608 9.33126162,2.27796983 9.26613845,2.34217618 C9.20101013,2.40638318 9.12382479,2.45577278 9.03458112,2.49034563 C8.94533294,2.52244848 8.84885029,2.53850023 8.74513381,2.53850023 L7.19659399,2.53850023 L7.19659399,0.0566662873 L8.68362692,0.0566662873 C8.78010699,0.0566689276 8.86935323,0.0739556833 8.951365,0.108525894 C9.0333729,0.140631378 9.10452813,0.186317285 9.16483196,0.245582295 C9.22513128,0.302382578 9.272166,0.37152828 9.30593741,0.453019402 C9.33970366,0.534514485 9.35658776,0.62341563 9.35659034,0.7197235 C9.35658776,0.769115079 9.35176134,0.819739682 9.34211816,0.871597308 C9.33487918,0.920988227 9.32161329,0.969143482 9.30231921,1.01606175 C9.28301997,1.06051398 9.25889947,1.10126053 9.2299577,1.13830141 C9.20101013,1.17287558 9.16724195,1.20127473 9.12865121,1.22349886 C9.23960345,1.27288978 9.32523149,1.34820918 9.38553532,1.44945707 C9.445834,1.54823758 9.47598463,1.65812918 9.47598721,1.77913317 M8.89709387,0.7197235 C8.89709194,0.662927177 8.876589,0.617241931 8.83558634,0.582667099 C8.79457916,0.54562688 8.72462958,0.527105781 8.62573759,0.5271038 L7.65609045,0.5271038 L7.65609045,0.99013261 L8.62573759,0.99013261 C8.73186599,0.99013393 8.80302185,0.964204126 8.83920454,0.91234386 C8.87779528,0.858016885 8.89709194,0.793809878 8.89709387,0.7197235 M9.00925434,1.77913317 C9.0092524,1.67047658 8.97910178,1.59021848 8.91880246,1.53835821 C8.86091054,1.48403058 8.76563482,1.45686643 8.63297335,1.45686511 L7.65609045,1.45686511 L7.65609045,2.06806338 L8.62573759,2.06806338 C8.77045866,2.06806338 8.87176516,2.04213423 8.92965642,1.99027463 C8.98754382,1.93594633 9.01407625,1.86556629 9.00925434,1.77913317" id="path15669"></path>
                    <path d="M12.6208211,2.53850023 L12.0853449,1.60503457 L11.3364011,1.60503457 L11.3364011,2.53850023 L10.8769047,2.53850023 L10.8769047,0.0566662873 L12.3567012,0.0566662873 C12.4628296,0.0566689276 12.5629298,0.0776593751 12.6570018,0.11963829 C12.75107,0.159152477 12.8318742,0.214715776 12.8994138,0.286328846 C12.9693608,0.355476529 13.0236319,0.436969631 13.0622278,0.530808152 C13.1032298,0.624650634 13.1237321,0.724664176 13.1237347,0.830850757 C13.1237321,0.998776978 13.0766974,1.14941578 12.9826299,1.28276651 C12.8885572,1.41365053 12.7619246,1.50749103 12.6027307,1.56428802 L13.1562979,2.53850023 L12.6208211,2.53850023 M12.6642382,0.830850757 C12.6642363,0.79134053 12.6557943,0.753063327 12.6389115,0.716019148 C12.6244374,0.678978929 12.6027288,0.646875426 12.5737864,0.619709298 C12.5472514,0.590077783 12.5146888,0.567852332 12.4760981,0.553033604 C12.4399154,0.535748828 12.4001164,0.527105781 12.3567012,0.5271038 L11.3364011,0.5271038 L11.3364011,1.13830141 L12.3567012,1.13830141 C12.4001164,1.13830273 12.4399154,1.13089468 12.4760981,1.11607595 C12.5146888,1.09879118 12.5472514,1.07656573 12.5737864,1.04940026 C12.6027288,1.01976809 12.6244374,0.986429578 12.6389115,0.949386059 C12.6557943,0.91234518 12.6642363,0.872833633 12.6642382,0.830850757" id="path15671"></path>
                    <path d="M16.5543977,2.53850023 L16.3083682,1.99768267 L15.0746012,1.99768267 L14.8213353,2.53850023 L14.3111852,2.53850023 L15.4581179,0.0566662873 L15.917615,0.0566662873 L17.0681659,2.53850023 L16.5543977,2.53850023 M15.6896753,0.656751497 L15.2880681,1.51983711 L16.0876648,1.51983711 L15.6896753,0.656751497" id="path15673"></path>
                    <path d="M20.493176,1.83469647 C20.4931734,2.07176773 20.4003089,2.25574438 20.2145833,2.38662708 C20.0288531,2.51750978 19.7671451,2.58295113 19.4294587,2.58295113 C19.3064424,2.58295113 19.1906644,2.57554243 19.0821227,2.56072568 C18.9759911,2.54837828 18.873479,2.52738783 18.7745857,2.49775368 C18.6781024,2.46812018 18.5840323,2.42984298 18.4923748,2.38292273 C18.4031286,2.33353313 18.3126767,2.27550048 18.2210185,2.20882413 L18.485139,1.82358407 C18.5574999,1.87297433 18.6286558,1.91619023 18.698606,1.95323177 C18.7685543,1.98780528 18.8397101,2.01620443 18.9120729,2.03842922 C18.9868457,2.06065533 19.0640311,2.07670708 19.1436303,2.08658448 C19.2256388,2.09646253 19.3148851,2.10140188 19.4113684,2.10140122 C19.6163913,2.10140188 19.771969,2.07794143 19.8781012,2.03102118 C19.9866416,1.98410093 20.0409133,1.91248588 20.0409153,1.81617537 C20.0409133,1.76431708 20.0192047,1.71492748 19.9757895,1.66800657 C19.934783,1.61861763 19.8793056,1.58034043 19.8093579,1.55317562 C19.7514667,1.53342018 19.6803108,1.51366473 19.595891,1.49390731 C19.5114673,1.47168318 19.3908648,1.44575404 19.2340822,1.41611856 C19.1424227,1.39636378 19.0616192,1.37784268 18.9916709,1.36055526 C18.92172,1.34080048 18.8602124,1.31981003 18.8071482,1.29758326 C18.7540821,1.27535913 18.7070474,1.25189933 18.6660428,1.22720321 C18.6274495,1.20004038 18.5924744,1.17040623 18.5611187,1.13830141 C18.4356911,1.00742003 18.3729779,0.861720577 18.3729779,0.7012024 C18.3729779,0.439438979 18.5092589,0.250523631 18.7818215,0.134455698 C18.8662426,0.0949461307 18.959107,0.0653119754 19.0604142,0.0455538916 C19.1641313,0.0233310804 19.2666441,0.0122180246 19.3679512,0.0122160444 C19.539206,0.0122180246 19.7032257,0.0369134841 19.8600109,0.0863004427 C20.0167928,0.133223334 20.175988,0.207307732 20.3375983,0.308554298 L20.0915682,0.7012024 C19.9685512,0.622180626 19.849155,0.567852332 19.7333782,0.538216196 C19.6175976,0.508584681 19.4849349,0.493767933 19.3353887,0.493765953 C19.1641313,0.493767933 19.0374987,0.509819025 18.9554895,0.541920548 C18.873479,0.571556684 18.8324737,0.622180626 18.832475,0.693794357 C18.8324737,0.748124632 18.8553886,0.792575534 18.9012183,0.827146405 C18.9494587,0.859251229 19.0061417,0.885181032 19.0712688,0.904935156 C19.1363926,0.924692579 19.2027246,0.939509327 19.2702629,0.949386059 C19.3377993,0.956796083 19.3908648,0.964204126 19.4294587,0.97161151 C19.5693566,0.998776978 19.7020194,1.03211548 19.8274483,1.07162571 C19.9552853,1.10866923 20.0577974,1.14818078 20.1349853,1.19016101 C20.2459376,1.25189933 20.3327719,1.34080048 20.3954877,1.45686511 C20.4606102,1.57293238 20.4931734,1.69887573 20.493176,1.83469647" id="path15675"></path>
                    <polyline id="path15677" points="23.6405533 2.53850023 22.8988459 1.26794976 22.3561333 1.84210517 22.3561333 2.53850023 21.8966369 2.53850023 21.8966369 0.0566662873 22.3561333 0.0566662873 22.3561333 1.15311881 23.369197 0.0566662873 23.9878899 0.0566662873 23.224474 0.908639508 24.1687937 2.53850023 23.6405533 2.53850023"></polyline>
                    <path d="M27.4257307,2.53850023 L27.1797012,1.99768267 L25.9459341,1.99768267 L25.6926682,2.53850023 L25.1825182,2.53850023 L26.3294509,0.0566662873 L26.788948,0.0566662873 L27.9394989,2.53850023 L27.4257307,2.53850023 M26.5610082,0.656751497 L26.1594011,1.51983711 L26.9589978,1.51983711 L26.5610082,0.656751497" id="path15679"></path>
                </g>
            </g>
        </g>
    </g>
</svg>