<?xml version="1.0" encoding="UTF-8" standalone="no"?>
<svg width="40px" height="40px" viewBox="0 0 40 40" version="1.1" xmlns="http://www.w3.org/2000/svg" xmlns:xlink="http://www.w3.org/1999/xlink">
    <!-- Generator: Sketch 3.8.3 (29802) - http://www.bohemiancoding.com/sketch -->
    <title>US-NC-2</title>
    <desc>Created with Sketch.</desc>
    <defs></defs>
    <g id="Icons-{2}" stroke="none" stroke-width="1" fill="none" fill-rule="evenodd">
        <g id="US-NC-2">
            <g>
                <path d="M2.500002,-3.2e-05 L37.50003,-3.2e-05 C38.8850313,-3.2e-05 40.000032,1.11496887 40.000032,2.49997 L40.000032,37.499998 C40.000032,38.8849993 38.8850313,40 37.50003,40 L2.500002,40 C1.11500087,40 0,38.8849993 0,37.499998 L0,2.49997 C0,1.11496887 1.11500087,-3.2e-05 2.500002,-3.2e-05 L2.500002,-3.2e-05 Z" id="rect1899" fill="#000000"></path>
                <path d="M21.7678187,1.6151954 L38.3848653,18.2322427 C39.3642107,19.211588 39.3642107,20.7884393 38.3848653,21.7677847 L21.767818,38.384832 C20.7884733,39.3641773 19.2116213,39.3641773 18.232276,38.384832 L1.615229,21.7677847 C0.63588386,20.78844 0.63588386,19.211588 1.615229,18.2322427 L18.2322767,1.6151954 C19.2116213,0.635850287 20.7884733,0.635850287 21.7678187,1.6151954 L21.7678187,1.6151954 Z" id="rect2789" fill="#FFFFFF"></path>
            </g>
        </g>
    </g>
</svg>