<?xml version="1.0" encoding="UTF-8" standalone="no"?>
<svg width="40px" height="40px" viewBox="0 0 40 40" version="1.1" xmlns="http://www.w3.org/2000/svg" xmlns:xlink="http://www.w3.org/1999/xlink">
    <!-- Generator: Sketch 3.8.3 (29802) - http://www.bohemiancoding.com/sketch -->
    <title>US-OH-2</title>
    <desc>Created with Sketch.</desc>
    <defs></defs>
    <g id="Icons-{2}" stroke="none" stroke-width="1" fill="none" fill-rule="evenodd">
        <g id="US-OH-2">
            <g>
                <path d="M0,1.99729162 C0,0.894217919 0.891539827,0 1.99729162,0 L38.0027084,0 C39.1057821,0 40,0.891539827 40,1.99729162 L40,38.0027084 C40,39.1057821 39.1018755,40 38.0077527,40 L11.982754,40 C10.8824662,40 9.10391594,40 7.99279007,40 L1.9977167,40 C0.894408233,40 0,39.1084602 0,38.0027084 L0,1.99729162 Z" id="rect3760" fill="#000000"></path>
                <path d="M2.37893333,2.36833333 L12.5656,2.36833333 C13.3574667,2.86588667 14.2872667,3.25513333 15.3032,3.55633333 C16.3191333,3.85753333 17.5,3.16467333 18.6366,3.31015333 C19.2048867,3.38289333 19.6636,3.80308667 20.2426667,3.81496667 C20.8217267,3.82684533 21.5211333,3.43040667 22.098,3.44559333 C23.2518,3.47596667 23.6005333,4.60132667 25.3772,4.43906 C26.4413333,4.34186667 27.2129333,3.75226 28.2687333,3.36026 C29.3244667,2.96824667 30.6678667,2.82689333 31.783,2.83997333 C33.9182667,2.86502067 36.0535333,1.77230667 38.1888,1.30984 L38.30022,16.4045067 C37.1748867,17.15924 38.0184467,18.4279067 37.9432,19.6053067 C37.902078,20.2488 37.81488,20.91444 37.3229467,21.2573733 C36.8329133,21.5990267 36.8797867,22.4085733 37.1106067,23.33724 C37.41616,24.5665733 36.9106067,25.8003733 36.6684733,27.0055067 C36.4263467,28.21064 35.9340733,29.34544 34.9616733,30.3303733 C34.0104733,31.2939067 32.5898733,32.9191733 30.91094,33.1729733 C28.7436067,33.50056 28.0200067,34.4951067 26.85594,35.7629733 C26.31908,36.3476667 26.06894,36.5131733 24.8148067,36.6245733 C24.11574,36.6866693 24.2964933,37.22656 22.7376733,37.3189733 C21.19934,37.4101733 19.7720733,38.3019733 18.8562733,38.30044 C16.2892067,38.2962133 14.1828067,34.8811067 10.79894,34.4081733 C9.10987333,34.1721267 7.54654,33.42364 6.01547333,32.60764 C5.24660667,32.19764 4.50914,31.38564 3.65960667,31.2383067 C2.63647333,31.06164 2.41480667,30.22964 1.69994,29.8789733 L1.69994,3.09497333 C1.67561333,2.60215333 1.98554667,2.36004 2.37907333,2.36864 L2.37893333,2.36833333 Z" id="path8" fill="#FFFFFF"></path>
            </g>
        </g>
    </g>
</svg>