<?xml version="1.0" encoding="UTF-8" standalone="no"?>
<svg width="60px" height="40px" viewBox="0 0 60 40" version="1.1" xmlns="http://www.w3.org/2000/svg" xmlns:xlink="http://www.w3.org/1999/xlink">
    <!-- Generator: Sketch 3.8.3 (29802) - http://www.bohemiancoding.com/sketch -->
    <title>US-OH-3</title>
    <desc>Created with Sketch.</desc>
    <defs></defs>
    <g id="Icons-{3}" stroke="none" stroke-width="1" fill="none" fill-rule="evenodd">
        <g id="US-OH-3">
            <g>
                <path d="M0,1.99729162 C0,0.894217919 0.894730389,0 1.99630737,0 L58.0036926,0 C59.1062227,0 60,0.891539827 60,1.99729162 L60,38.0027084 C60,39.1057821 59.1008235,40 58.0077122,40 L16.9780479,40 C15.8777378,40 14.0932109,40 12.9802636,40 L2.00549657,40 C0.8978914,40 0,39.1084602 0,38.0027084 L0,1.99729162 Z" id="rect3760" fill="#000000"></path>
                <path d="M3.04090135,3.03014706 L18.6263681,3.03014706 C19.8379137,3.514376 21.2604956,3.89319871 22.8148603,4.18633263 C24.369225,4.47946654 26.1759355,3.80516121 27.9149187,3.94674529 C28.7843898,4.01753732 29.4862152,4.42647795 30.3721796,4.4380398 C31.2581339,4.44960036 32.3282169,4.06377826 33.2108154,4.07855823 C34.9761143,4.10811817 35.5096717,5.20334122 38.2279485,5.04542003 C39.8560585,4.95082951 41.0365965,4.37701241 42.6519566,3.9955101 C44.2672148,3.61399482 46.3225993,3.47642691 48.0287387,3.48915663 C51.2956687,3.5135332 54.5625988,2.45008189 57.8295289,2 L58,16.6904341 C56.2782547,17.4249558 57.5688905,18.6596478 57.4537641,19.8055172 C57.3908479,20.4317779 57.2574361,21.0795922 56.5047846,21.4133418 C55.75504,21.7458457 55.8267556,22.5337129 56.1799072,23.43751 C56.6473998,24.633922 55.8739098,25.8346811 55.5034489,27.0075411 C55.1329983,28.1804012 54.3798266,29.2848114 52.8920673,30.2433684 C51.4367437,31.1810985 49.2632443,32.7628408 46.6944983,33.0098441 C43.3785066,33.328658 42.2714081,34.2965709 40.4904013,35.5304843 C39.6690125,36.0995197 39.2863016,36.2605941 37.367494,36.3690108 C36.2979312,36.4294439 36.5744814,36.9548764 34.1895072,37.0448149 C31.8358773,37.1335726 29.652178,38.0014903 28.251016,37.9999981 C24.3234376,37.9958846 21.1006731,34.6722339 15.9234014,34.2119656 C13.3391515,33.9822403 10.9472719,33.2537979 8.60475997,32.4596503 C7.42840403,32.06063 6.30008968,31.2703752 5.00031479,31.1269875 C3.43493418,30.9550519 3.09578708,30.1453327 2.00205043,29.8040568 L2.00205043,3.73732777 C1.96483095,3.2577054 2.43902489,3.02207582 3.04111554,3.03044552 L3.04090135,3.03014706 Z" id="path8" fill="#FFFFFF"></path>
            </g>
        </g>
    </g>
</svg>