<?xml version="1.0" encoding="UTF-8" standalone="no"?>
<svg width="40px" height="40px" viewBox="0 0 40 40" version="1.1" xmlns="http://www.w3.org/2000/svg" xmlns:xlink="http://www.w3.org/1999/xlink">
    <!-- Generator: Sketch 3.8.3 (29802) - http://www.bohemiancoding.com/sketch -->
    <title>US-OR-2</title>
    <desc>Created with Sketch.</desc>
    <defs></defs>
    <g id="Icons-{2}" stroke="none" stroke-width="1" fill="none" fill-rule="evenodd">
        <g id="US-OR-2">
            <g>
                <rect id="rect16822" fill="#000000" x="0" y="3.55271368e-15" width="40" height="40" rx="3"></rect>
                <polyline id="path8752" fill="#FFFFFF" points="37.7529466 10.0327455 37.7529466 10.0327455 37.7529466 10.0327455 37.582247 9.42107281 37.3432626 8.77541362 37.0701405 8.16373391 36.7628783 7.58603623 36.3873326 7.04232504 36.0117919 6.49861194 35.5679678 5.98888023 35.1241468 5.51313183 34.6120403 5.07136481 34.0999365 4.66357983 33.5536911 4.28977687 32.9733043 3.98393606 32.9733043 3.98393606 32.9733043 3.98393606 32.9733043 3.98393606 32.3929214 3.74606377 31.8466773 3.50818893 31.3004333 3.30429675 30.7200478 3.10040394 30.1396635 2.93049635 29.5592761 2.7266029 28.9788938 2.55669084 28.3985064 2.42076272 27.8181241 2.25085258 27.2377411 2.11492383 26.6573543 2.0129771 26.0769694 1.87705345 25.462445 1.775108 24.8820621 1.67315681 24.2675351 1.60519275 23.6871496 1.53722551 23.0726271 1.46926464 22.4922403 1.43528006 21.8777128 1.40129994 21.2973304 1.36731791 20.6828048 1.33333333 20.0682778 1.33333333 19.4878955 1.36731791 18.8733698 1.36731791 18.2588428 1.40129994 17.6784605 1.43528006 17.0639348 1.50324667 16.4835506 1.57121009 15.8690249 1.63917223 15.2886432 1.70713884 14.6741157 1.80908557 14.0937289 1.91103038 13.5133459 2.04695913 12.8988202 2.14890586 12.318436 2.28483142 11.7380511 2.45474475 11.1576663 2.62465936 10.5772788 2.79456568 10.0310367 2.96447583 9.45065246 3.168368 8.87026504 3.37226017 8.3240229 3.57615809 7.74363803 3.81402719 7.19739346 4.01792 7.19739346 4.01792 7.19739346 4.01792 7.19739346 4.01792 6.61700891 4.35774093 6.07076466 4.73154133 5.55865752 5.13932887 5.0465581 5.58109397 4.56859191 6.05684429 4.15890829 6.53259142 3.74922142 7.07631154 3.37368187 7.62002081 3.03227885 8.1977153 2.72501869 8.77541554 2.45189494 9.38708887 2.24705058 9.99876603 2.24705058 9.99876603 2.24705058 9.99876603 2.24705058 9.99876603 2.11049192 10.5424798 2.00806968 11.0861929 1.93979035 11.6638874 1.83737461 12.2076017 1.8032317 12.7513142 1.73495237 13.2950279 1.70080952 13.8727256 1.66666667 14.4164368 1.66666667 14.9941313 1.66666667 15.537845 1.66666667 16.0815556 1.70080952 16.6592533 1.73495237 17.202967 1.8032317 17.7466801 1.87151103 18.3243727 1.97393327 18.8680934 2.04220616 19.4118014 2.1446284 19.9555152 2.28119343 20.4992283 2.41775209 21.042942 2.55431712 21.5866545 2.72501869 22.1303682 2.89571382 22.6400987 3.0664217 23.1838124 3.27125969 23.6935441 3.47610411 24.2032746 3.71508494 24.7130082 3.95406578 25.2227354 4.19305114 25.7324684 4.466171 26.2082174 4.70515056 26.7179504 5.01241589 27.1936976 5.28553766 27.6694447 5.59280044 28.1451963 5.90006507 28.5869627 6.24146559 29.0287297 6.58286861 29.5044794 6.92427169 29.9122663 7.29981449 30.3540314 7.64121751 30.7618183 8.01675814 31.1695988 8.42644406 31.5773857 8.80198725 31.9851707 9.21167252 32.3589762 9.65549414 32.7327766 10.0651794 33.1065789 10.509001 33.4464005 10.9528246 33.7862208 11.3966481 34.1260417 11.8404723 34.4658607 12.318436 34.7716996 12.7964003 35.0435577 13.2743641 35.3493966 13.7523284 35.621258 14.2302915 35.8931078 14.7423934 36.1309884 15.2545005 36.3688562 15.766605 36.6067368 16.2787089 36.8446174 16.7908128 37.0485032 17.3029148 37.2184133 17.8491639 37.4223055 18.3954061 37.5922157 18.9075125 37.7281374 19.4537572 37.8640655 19.9999994 38 19.9999994 38 19.9999994 38 19.9999994 38 20.5462441 37.8640655 21.0924888 37.7281374 21.6387334 37.5922157 22.1508373 37.4223055 22.6970814 37.2184133 23.2091859 37.0485032 23.7212923 36.8446174 24.2675351 36.6067368 24.7454982 36.4028446 25.2576034 36.1649641 25.7697072 35.8931078 26.247671 35.621258 26.7256347 35.3493966 27.2377411 35.0775398 27.6815627 34.7716996 28.1595271 34.4658607 28.6033487 34.1260417 29.0813143 33.8202009 29.4909977 33.4803825 29.9348219 33.1065789 30.3786454 32.7667561 30.7883288 32.3929557 31.1980121 31.9851707 31.5735547 31.6113703 31.9832387 31.2035827 32.3587838 30.7957984 32.7343244 30.3880134 33.0757274 29.9462457 33.417133 29.5044794 33.7585334 29.0627143 34.0999365 28.6209421 34.407198 28.1451963 34.7144609 27.7034293 34.9875835 27.2276796 35.2948457 26.7179504 35.5679678 26.2421995 35.8069503 25.7664523 36.0459321 25.2567187 36.2849121 24.7469883 36.5238984 24.2372566 36.7287401 23.7275236 36.9335773 23.1838124 37.1042813 22.6740788 37.2749822 22.1303682 37.4456837 21.6206391 37.582247 21.0769215 37.7188057 20.5332103 37.8553671 19.9894972 37.9577882 19.4457835 38.0602088 18.902071 38.1284897 18.3583573 38.1967694 17.7806596 38.2650504 17.236949 38.2991906 16.6932359 38.3333333 16.1155402 38.3333333 15.5718296 38.3333333 15.0281114 38.3333333 14.4504182 38.2991906 13.9067051 38.2650504 13.3290074 38.1967694 12.7852962 38.1626299 12.2415838 38.0602088 11.6978694 37.9919259 11.1201768 37.8895047 10.5764637 37.7529466 10.0327455"></polyline>
            </g>
        </g>
    </g>
</svg>