<?xml version="1.0" encoding="UTF-8" standalone="no"?>
<svg width="40px" height="40px" viewBox="0 0 40 40" version="1.1" xmlns="http://www.w3.org/2000/svg" xmlns:xlink="http://www.w3.org/1999/xlink">
    <!-- Generator: Sketch 3.8.3 (29802) - http://www.bohemiancoding.com/sketch -->
    <title>US-OK-2</title>
    <desc>Created with Sketch.</desc>
    <defs></defs>
    <g id="Icons-{2}" stroke="none" stroke-width="1" fill="none" fill-rule="evenodd">
        <g id="US-OK-2">
            <g>
                <path d="M2.34755511,0.238236712 L37.7842476,0.238236712 C38.9492253,0.238236712 39.8935871,1.18259876 39.8935871,2.3475762 L39.8935871,37.7842223 C39.8935871,38.9492516 38.9492253,39.8936135 37.7842476,39.8936135 L2.34755511,39.8936135 C1.18259855,39.8936135 0.238236712,38.9492516 0.238236712,37.7842223 L0.238236712,2.3475762 C0.238236712,1.18259876 1.18259855,0.238236712 2.34755511,0.238236712 Z" id="path11330" fill="#000000"></path>
                <path d="M0.87103856,2.3475762 C0.87103856,1.53211252 1.53208446,0.87103856 2.34752347,0.87103856 L37.7842687,0.87103856 C38.5997394,0.87103856 39.2607853,1.53211252 39.2607853,2.3475762 L39.2607853,37.784274 C39.2607853,38.5997373 38.5997394,39.2608116 37.7842687,39.2608116 L2.34752347,39.2608116 C1.53208446,39.2608116 0.87103856,38.5997373 0.87103856,37.784274 L0.87103856,2.3475762 L0.87103856,2.3475762 L0.87103856,2.3475762 Z" id="path11338" fill="#FFFFFF"></path>
                <polygon id="polygon11344" stroke="#000000" points="19.5596493 19.7284102 19.053429 20.0659246 17.8722305 19.7284102 17.5347151 19.3909465 17.0284947 19.8971679 15.3410231 18.8846744 15.1722654 18.2096963 15.1722654 7.91621189 2.68503888 7.91621189 2.68503888 5.04748951 35.421819 5.04748951 35.421819 7.24123349 37.2780483 13.8223113 37.2780483 22.9345957 34.4093255 21.9221539 32.5531279 22.4283753 31.5406555 23.1033534 29.1782058 21.9221539 27.6594919 22.7658897 27.2741641 22.5346906 25.9720203 21.7533962 24.9595268 22.0908599 24.1158226 21.5846395 23.1033502 22.0908599 20.0659225 20.7409037"></polygon>
            </g>
        </g>
    </g>
</svg>