<?xml version="1.0" encoding="UTF-8" standalone="no"?>
<svg width="60px" height="40px" viewBox="0 0 60 40" version="1.1" xmlns="http://www.w3.org/2000/svg" xmlns:xlink="http://www.w3.org/1999/xlink">
    <!-- Generator: Sketch 3.8.3 (29802) - http://www.bohemiancoding.com/sketch -->
    <title>US-OK-3</title>
    <desc>Created with Sketch.</desc>
    <defs></defs>
    <g id="Icons-{3}" stroke="none" stroke-width="1" fill="none" fill-rule="evenodd">
        <g id="US-OK-3">
            <g>
                <rect id="Rectangle-66" fill="#000000" x="0" y="0" width="60" height="40" rx="2"></rect>
                <rect id="Rectangle-66" fill="#FFFFFF" x="1" y="1" width="58" height="38" rx="1"></rect>
                <polygon id="polygon11344" stroke="#000000" points="39.5596493 17.7284102 39.053429 18.0659246 37.8722305 17.7284102 37.5347151 17.3909465 37.0284947 17.8971679 35.3410231 16.8846744 35.1722654 16.2096963 35.1722654 5.91621189 22.6850389 5.91621189 22.6850389 3.04748951 55.421819 3.04748951 55.421819 5.24123349 57.2780483 11.8223113 57.2780483 20.9345957 54.4093255 19.9221539 52.5531279 20.4283753 51.5406555 21.1033534 49.1782058 19.9221539 47.6594919 20.7658897 47.2741641 20.5346906 45.9720203 19.7533962 44.9595268 20.0908599 44.1158226 19.5846395 43.1033502 20.0908599 40.0659225 18.7409037"></polygon>
            </g>
        </g>
    </g>
</svg>