<?xml version="1.0" encoding="UTF-8" standalone="no"?>
<svg width="60px" height="40px" viewBox="0 0 60 40" version="1.1" xmlns="http://www.w3.org/2000/svg" xmlns:xlink="http://www.w3.org/1999/xlink">
    <!-- Generator: Sketch 3.8.3 (29802) - http://www.bohemiancoding.com/sketch -->
    <title>US-OR-3</title>
    <desc>Created with Sketch.</desc>
    <defs></defs>
    <g id="Icons-{3}" stroke="none" stroke-width="1" fill="none" fill-rule="evenodd">
        <g id="US-OR-3">
            <g>
                <rect id="rect16822" fill="#000000" x="0" y="-3.55271368e-15" width="60" height="40" rx="3"></rect>
                <polyline id="path8752" fill="#FFFFFF" points="56.6294198 10.0327455 56.6294198 10.0327455 56.6294198 10.0327455 56.3733704 9.42107281 56.0148938 8.77541362 55.6052108 8.16373391 55.1443175 7.58603623 54.5809989 7.04232504 54.0176879 6.49861194 53.3519517 5.98888023 52.6862202 5.51313183 51.9180605 5.07136481 51.1499047 4.66357983 50.3305367 4.28977687 49.4599565 3.98393606 49.4599565 3.98393606 49.4599565 3.98393606 49.4599565 3.98393606 48.5893821 3.74606377 47.770016 3.50818893 46.9506499 3.30429675 46.0800717 3.10040394 45.2094953 2.93049635 44.3389142 2.7266029 43.4683407 2.55669084 42.5977596 2.42076272 41.7271861 2.25085258 40.8566117 2.11492383 39.9860315 2.0129771 39.1154542 1.87705345 38.1936676 1.775108 37.3230931 1.67315681 36.4013027 1.60519275 35.5307244 1.53722551 34.6089407 1.46926464 33.7383605 1.43528006 32.8165691 1.40129994 31.9459957 1.36731791 31.0242071 1.33333333 30.1024167 1.33333333 29.2318432 1.36731791 28.3100547 1.36731791 27.3882643 1.40129994 26.5176908 1.43528006 25.5959023 1.50324667 24.7253259 1.57121009 23.8035374 1.63917223 22.9329649 1.70713884 22.0111735 1.80908557 21.1405933 1.91103038 20.2700189 2.04695913 19.3482303 2.14890586 18.477654 2.28483142 17.6070767 2.45474475 16.7364994 2.62465936 15.8659183 2.79456568 15.046555 2.96447583 14.1759787 3.168368 13.3053976 3.37226017 12.4860343 3.57615809 11.615457 3.81402719 10.7960902 4.01792 10.7960902 4.01792 10.7960902 4.01792 10.7960902 4.01792 9.92551337 4.35774093 9.10614699 4.73154133 8.33798629 5.13932887 7.56983716 5.58109397 6.85288786 6.05684429 6.23836243 6.53259142 5.62383213 7.07631154 5.0605228 7.62002081 4.54841828 8.1977153 4.08752803 8.77541554 3.67784241 9.38708887 3.37057587 9.99876603 3.37057587 9.99876603 3.37057587 9.99876603 3.37057587 9.99876603 3.16573789 10.5424798 3.01210452 11.0861929 2.90968553 11.6638874 2.75606192 12.2076017 2.70484755 12.7513142 2.60242856 13.2950279 2.55121428 13.8727256 2.5 14.4164368 2.5 14.9941313 2.5 15.537845 2.5 16.0815556 2.55121428 16.6592533 2.60242856 17.202967 2.70484755 17.7466801 2.80726654 18.3243727 2.9608999 18.8680934 3.06330923 19.4118014 3.2169426 19.9555152 3.42179015 20.4992283 3.62662813 21.042942 3.83147568 21.5866545 4.08752803 22.1303682 4.34357073 22.6400987 4.59963256 23.1838124 4.90688953 23.6935441 5.21415617 24.2032746 5.57262742 24.7130082 5.93109867 25.2227354 6.28957671 25.7324684 6.6992565 26.2082174 7.05772584 26.7179504 7.51862383 27.1936976 7.9283065 27.6694447 8.38920066 28.1451963 8.8500976 28.5869627 9.36219839 29.0287297 9.87430291 29.5044794 10.3864075 29.9122663 10.9497217 30.3540314 11.4618263 30.7618183 12.0251372 31.1695988 12.6396661 31.5773857 13.2029809 31.9851707 13.8175088 32.3589762 14.4832412 32.7327766 15.0977691 33.1065789 15.7635016 33.4464005 16.4292369 33.7862208 17.0949722 34.1260417 17.7607084 34.4658607 18.477654 34.7716996 19.1946005 35.0435577 19.9115461 35.3493966 20.6284926 35.621258 21.3454372 35.8931078 22.1135902 36.1309884 22.8817508 36.3688562 23.6499076 36.6067368 24.4180634 36.8446174 25.1862192 37.0485032 25.9543722 37.2184133 26.7737459 37.4223055 27.5931091 37.5922157 28.3612688 37.7281374 29.1806358 37.8640655 29.999999 38 29.999999 38 29.999999 38 29.999999 38 30.8193661 37.8640655 31.6387331 37.7281374 32.4581002 37.5922157 33.226256 37.4223055 34.0456221 37.2184133 34.8137789 37.0485032 35.5819385 36.8446174 36.4013027 36.6067368 37.1182473 36.4028446 37.886405 36.1649641 38.6545609 35.8931078 39.3715064 35.621258 40.088452 35.3493966 40.8566117 35.0775398 41.5223441 34.7716996 42.2392906 34.4658607 42.905023 34.1260417 43.6219715 33.8202009 44.2364965 33.4803825 44.9022328 33.1065789 45.5679681 32.7667561 46.1824931 32.3929557 46.7970182 31.9851707 47.360332 31.6113703 47.974858 31.2035827 48.5381757 30.7957984 49.1014866 30.3880134 49.6135911 29.9462457 50.1256995 29.5044794 50.6378002 29.0627143 51.1499047 28.6209421 51.610797 28.1451963 52.0716913 27.7034293 52.4813753 27.2276796 52.9422686 26.7179504 53.3519517 26.2421995 53.7104254 25.7664523 54.0688982 25.2567187 54.4273681 24.7469883 54.7858476 24.2372566 55.0931101 23.7275236 55.4003659 23.1838124 55.656422 22.6740788 55.9124733 22.1303682 56.1685256 21.6206391 56.3733704 21.0769215 56.5782086 20.5332103 56.7830506 19.9894972 56.9366823 19.4457835 57.0903131 18.902071 57.1927346 18.3583573 57.2951542 17.7806596 57.3975757 17.236949 57.4487859 16.6932359 57.5 16.1155402 57.5 15.5718296 57.5 15.0281114 57.5 14.4504182 57.4487859 13.9067051 57.3975757 13.3290074 57.2951542 12.7852962 57.2439449 12.2415838 57.0903131 11.6978694 56.9878888 11.1201768 56.834257 10.5764637 56.6294198 10.0327455"></polyline>
            </g>
        </g>
    </g>
</svg>