<?xml version="1.0" encoding="UTF-8" standalone="no"?>
<svg width="40px" height="40px" viewBox="0 0 40 40" version="1.1" xmlns="http://www.w3.org/2000/svg" xmlns:xlink="http://www.w3.org/1999/xlink">
    <!-- Generator: Sketch 3.8.3 (29802) - http://www.bohemiancoding.com/sketch -->
    <title>US-RI-2</title>
    <desc>Created with Sketch.</desc>
    <defs></defs>
    <g id="Icons-{2}" stroke="none" stroke-width="1" fill="none" fill-rule="evenodd">
        <g id="US-RI-2">
            <g>
                <path d="M0.399574566,2.40229204 C0.399574566,1.29622172 1.28812083,0.399574566 2.40229204,0.399574566 L37.4276229,0.399574566 C38.5336932,0.399574566 39.4303403,1.28812083 39.4303403,2.40229204 L39.4303403,37.4276229 C39.4303403,38.5336932 38.539128,39.4303403 37.4213258,39.4303403 L31.9661903,39.4303403 C30.8566422,39.4303403 29.0564364,39.4303403 27.9487995,39.4303403 L2.40795072,39.4303403 C1.2987552,39.4303403 0.399574566,38.5417941 0.399574566,37.4276229 L0.399574566,2.40229204 Z" id="rect3755" stroke="#000000" fill="#FFFFFF"></path>
                <g id="text3946" transform="translate(14.934719, 2.000000)" fill="#000000">
                    <path d="M3.6041597,7.0342598 L2.47941705,3.99329024 L1.15680387,3.99329024 L1.15680387,7.0342598 L0.0528899584,7.0342598 L0.0528899584,0.0566927324 L2.35444604,0.0566927324 C2.62521402,0.05669971 2.85779935,0.074056408 3.05220274,0.108763524 C3.24659846,0.136541917 3.43058365,0.192084746 3.6041597,0.275392012 C3.75689794,0.351770555 3.89575432,0.452441497 4.02073092,0.577406234 C4.15263973,0.69544155 4.26372539,0.834297925 4.35398789,0.993977454 C4.45118261,1.14672617 4.52408214,1.31335465 4.57268717,1.49386292 C4.62822512,1.66743967 4.65599653,1.84101084 4.65600142,2.01457712 C4.65599653,2.20203853 4.62822512,2.38602441 4.57268717,2.56653407 C4.52408214,2.74010943 4.45118261,2.90673791 4.35398789,3.06641954 C4.26372539,3.21916615 4.14916839,3.35802253 4.0103162,3.48299076 C3.87839762,3.60796526 3.73259787,3.70516486 3.57291694,3.77459026 L4.80180187,7.0342598 L3.6041597,7.0342598 M3.55208821,2.01457712 C3.55208402,1.86878225 3.51389789,1.72992518 3.43753121,1.5980059 C3.36115546,1.46609709 3.25354114,1.3619548 3.11468825,1.28557766 C3.02442714,1.23698309 2.9411136,1.20574034 2.86474552,1.1918487 C2.78837047,1.17102624 2.65992811,1.16061222 2.47941705,1.16060594 L1.15680387,1.16060594 L1.15680387,2.8685476 L2.47941705,2.8685476 C2.65298543,2.86855178 2.77795645,2.86161189 2.8543315,2.84771956 C2.93764156,2.83383769 3.02442714,2.80259493 3.11468825,2.7539906 C3.25354114,2.67762392 3.36115546,2.57348094 3.43753121,2.44156236 C3.51389789,2.30271017 3.55208402,2.16038176 3.55208821,2.01457712" id="path4024"></path>
                    <path d="M6.65928604,6.47188882 C6.65928465,6.64546069 6.60026978,6.79473178 6.48224284,6.9197028 C6.3642131,7.04467382 6.21841335,7.10716002 6.04484358,7.10716002 C5.87127102,7.10716002 5.72199992,7.04467382 5.5970296,6.9197028 C5.47205789,6.79473178 5.40957168,6.64546069 5.40957238,6.47188882 C5.40957168,6.29831836 5.47205789,6.1525186 5.5970296,6.03448887 C5.72199992,5.91646123 5.87127102,5.85744706 6.04484358,5.85744636 C6.21841335,5.85744706 6.3642131,5.91646123 6.48224284,6.03448887 C6.60026978,6.1525186 6.65928465,6.29831836 6.65928604,6.47188882" id="path4026"></path>
                    <polyline id="path4028" points="7.78223824 7.0342598 7.78223824 0.0566927324 8.90698019 0.0566927324 8.90698019 7.0342598 7.78223824 7.0342598"></polyline>
                    <path d="M11.256214,6.47188882 C11.2562126,6.64546069 11.1971984,6.79473178 11.0791708,6.9197028 C10.961141,7.04467382 10.8153413,7.10716002 10.6417715,7.10716002 C10.468199,7.10716002 10.3189279,7.04467382 10.1939575,6.9197028 C10.0689858,6.79473178 10.0065003,6.64546069 10.0065003,6.47188882 C10.0065003,6.29831836 10.0689858,6.1525186 10.1939575,6.03448887 C10.3189279,5.91646123 10.468199,5.85744706 10.6417715,5.85744636 C10.8153413,5.85744706 10.961141,5.91646123 11.0791708,6.03448887 C11.1971984,6.1525186 11.2562126,6.29831836 11.256214,6.47188882" id="path4030"></path>
                </g>
            </g>
        </g>
    </g>
</svg>