<?xml version="1.0" encoding="UTF-8" standalone="no"?>
<svg width="40px" height="40px" viewBox="0 0 40 40" version="1.1" xmlns="http://www.w3.org/2000/svg" xmlns:xlink="http://www.w3.org/1999/xlink">
    <!-- Generator: Sketch 3.8.3 (29802) - http://www.bohemiancoding.com/sketch -->
    <title>US-SC-2</title>
    <desc>Created with Sketch.</desc>
    <defs></defs>
    <g id="Icons-{2}" stroke="none" stroke-width="1" fill="none" fill-rule="evenodd">
        <g id="US-SC-2">
            <g>
                <rect id="rect2268" fill="#003882" x="0" y="0.0326883469" width="40" height="40" rx="4"></rect>
                <rect id="rect2270" fill="#FFFFFF" x="1" y="5" width="38" height="34" rx="3.5"></rect>
                <path d="M14.586731,4.99646004 C14.586731,4.99646004 14.399752,5.07976486 14.9554438,5.52642349 C15.5359823,5.81765234 15.5988778,6.50198554 16.1641318,6.76386345 C16.5149387,7.11715206 16.4018387,7.58042646 16.8098692,7.8559665 C17.0450845,8.32505784 17.7167309,8.39782741 17.6998278,9.03111922 C17.9519025,9.39585407 17.6726578,10.0495449 18.2917537,10.197967 C18.7711677,10.5943585 18.2950281,11.4797818 18.69327,11.7260808 C18.7943746,11.4937619 18.8249924,11.4226795 18.8298683,11.4063396 C18.9221021,11.2828904 18.8257077,11.7945123 19.1279009,11.530914 C19.144445,11.5164829 19.2079167,11.4665301 19.2355238,11.4437119 C19.2355238,11.4437119 19.9254879,10.6197018 19.9474907,10.816687 C20.0161481,10.7468972 20.0780926,10.6766526 20.1213431,10.6173678 C20.3634582,10.2854959 20.2413668,10.143647 20.2455233,10.0858499 C20.607323,10.0998043 20.6924557,10.1129552 20.7960559,10.0983074 C21.0003672,10.0694198 21.0460165,9.94448651 21.2431048,9.78271866 C21.3209576,9.70431699 21.4308058,9.7844724 21.619785,9.6747541 C22.008005,9.44936024 21.9218894,9.40169385 21.9095389,9.28442069 C21.8964573,9.1601877 21.8053547,9.12796097 21.8101947,9.11416888 C21.8508543,8.99831925 21.9654605,9.13552819 22.0295799,9.26365827 C22.4017392,9.1960031 22.4119717,8.98532564 22.5345796,8.85256245 C22.6364949,8.74220619 22.5924841,8.60610666 22.7042927,8.50790635 C22.8161039,8.4097063 22.9910438,8.46415512 23.0851122,8.39163682 C23.2732476,8.24660009 23.3533959,8.23598541 23.4907677,8.12172542 C23.7655075,7.89320597 23.6497357,8.03507061 23.7805217,7.86842395 C24.0420963,7.53513025 23.6515636,7.56430433 23.6563414,7.50300544 C23.6699595,7.32827148 24.0933632,6.9316514 24.3476116,6.58945916 C24.7027407,6.0009448 25.622529,5.56794832 25.622529,5.56794832 L25.0816042,4.99646004 L14.586731,4.99646004 Z" id="Abbeville" fill="#003882"></path>
            </g>
        </g>
    </g>
</svg>