<?xml version="1.0" encoding="UTF-8" standalone="no"?>
<svg width="40px" height="40px" viewBox="0 0 40 40" version="1.1" xmlns="http://www.w3.org/2000/svg" xmlns:xlink="http://www.w3.org/1999/xlink">
    <!-- Generator: Sketch 3.8.3 (29802) - http://www.bohemiancoding.com/sketch -->
    <title>US-SC-2</title>
    <desc>Created with Sketch.</desc>
    <defs></defs>
    <g id="Icons-{2}" stroke="none" stroke-width="1" fill="none" fill-rule="evenodd">
        <g id="US-SC-2">
            <g>
                <rect id="rect2268" fill="#003882" x="0" y="0.0326883469" width="40" height="40" rx="4"></rect>
                <rect id="rect2270" fill="#FFFFFF" x="1" y="5" width="38" height="34" rx="3.5"></rect>
                <path d="M14.940219,0.597191516 C14.3685725,0.933331767 13.5710663,1.13219119 12.9282907,1.38030943 C12.6119959,1.64490765 12.3611684,1.99457915 11.993318,2.53729142 C12.0195939,2.98383045 12.1524347,3.22558761 12.3326518,3.41393455 C12.8103835,3.68662858 12.7749037,3.70443243 13.098521,3.94416226 C13.493138,4.23648763 13.3201678,4.02247902 13.5743023,4.34875416 C13.7428523,4.56514943 13.7629463,4.80938506 13.7629463,4.80938506 L26.227326,5.42573408 L22.8846528,1.93721615 L20.2011814,1.90802439 L19.6585222,1.26142975 L19.6775923,0.74215118 L14.940219,0.597191516 L14.940219,0.597191516 Z" id="path4763" fill="#FFFFFF"></path>
                <path d="M15.2286404,1.09572402 C14.7090079,1.40127887 14.1079807,1.55520644 13.5108134,1.70198655 C13.1897065,2.03177556 12.3574442,2.4296831 12.7657317,2.9934088 C13.1436513,3.13314032 13.1679448,3.20326825 13.3038462,3.37958972 C13.4480967,3.56674406 13.7511774,3.62045142 13.9206083,3.71178837 C14.2117398,4.33809577 14.399752,5.07976486 14.9554438,5.52642349 C15.5359823,5.81765234 15.5988778,6.50198554 16.1641318,6.76386345 C16.5149387,7.11715206 16.4018387,7.58042646 16.8098692,7.8559665 C17.0450845,8.32505784 17.7167309,8.39782741 17.6998278,9.03111922 C17.9519025,9.39585407 17.6726578,10.0495449 18.2917537,10.197967 C18.7711677,10.5943585 18.2950281,11.4797818 18.69327,11.7260808 C18.7943746,11.4937619 18.8249924,11.4226795 18.8298683,11.4063396 C18.9221021,11.2828904 18.8257077,11.7945123 19.1279009,11.530914 C19.144445,11.5164829 19.2079167,11.4665301 19.2355238,11.4437119 L19.2355238,10.1356797 C19.2355238,8.63666522 19.2215891,8.49021611 19.0658108,8.29197723 C18.8837539,8.06030189 18.8465488,7.93348572 18.9830239,8.01791334 C19.1014078,8.09114853 19.085016,7.94555251 18.9623272,7.82274664 C18.8864428,7.7467861 18.8884244,7.72308837 18.9623272,7.72308704 C19.0197455,7.72308704 19.0392355,7.66374574 19.00786,7.58190262 C18.9715583,7.48720873 18.9827444,7.46185932 19.0492534,7.50300544 C19.1036583,7.53666115 19.1485963,7.52323102 19.1485976,7.47393806 C19.1485976,7.3339841 18.9706178,7.3683135 18.8464256,7.53207282 C18.7846507,7.61353059 18.7320036,7.63809734 18.730524,7.5860551 C18.7290458,7.53401286 18.5986174,7.61144438 18.4407701,7.76045939 C18.2829214,7.90947706 18.090134,8.03452328 18.0144178,8.03452328 C17.8580037,8.03452328 17.7552844,7.72038162 17.8240081,7.45732813 C17.861131,7.31523082 17.8397972,7.28997575 17.7081065,7.32444867 C17.6182529,7.347967 17.5425341,7.33341936 17.5425328,7.2912288 C17.5425328,7.24903824 17.4971749,7.22561027 17.4390492,7.23724652 C17.3272393,7.2596314 17.3176069,7.11422672 17.4142132,6.83445566 C17.4568385,6.71100799 17.4106262,6.73233514 17.2445001,6.91750532 C17.1128333,7.06426936 17.038043,7.11108146 17.0665084,7.02546988 C17.0939168,6.94304343 17.0738453,6.87598049 17.0209757,6.87598049 C16.9687272,6.87598049 16.9986206,6.79436859 17.0872051,6.69327124 C17.1757897,6.59217654 17.2025504,6.53353684 17.1492953,6.56454426 C17.0960401,6.59555035 17.033746,6.56795793 17.0085576,6.50225701 C16.9833706,6.43655476 17.0162508,6.3618207 17.0830658,6.33615769 C17.1498821,6.31049202 17.2072474,6.22158105 17.2072461,6.14099098 C17.2072461,6.02702426 17.1826749,6.02047463 17.1037625,6.09946615 C16.9602671,6.24310088 16.8411931,6.22208333 16.9009347,6.06624629 C16.9298068,5.99093021 16.9157463,5.95769972 16.86782,5.98734911 C16.8218528,6.01578797 16.7808925,6.00067559 16.7808938,5.95412924 C16.7808938,5.90758157 16.8246304,5.84478274 16.8760987,5.81294482 C16.94165,5.77239134 16.9379133,5.73270157 16.8595413,5.68421784 C16.7966683,5.64532137 16.6980911,5.65756754 16.6360168,5.70913274 C16.549496,5.7810099 16.5393152,5.76392559 16.5863447,5.63854053 C16.6393826,5.49713154 16.6295727,5.49440884 16.5035579,5.5970157 C16.3812479,5.69660354 16.3586809,5.69208431 16.3586809,5.58040577 C16.3586809,5.50876779 16.4611114,5.37689423 16.5863447,5.28557947 C16.8007653,5.12923217 16.8088016,5.10980917 16.6732709,4.97414323 C16.5941134,4.89490721 16.5539823,4.78986733 16.5863447,4.7374517 C16.7286228,4.50701347 16.9031282,4.35062099 16.9713035,4.3927956 C17.0608723,4.44820766 17.3880088,4.08995268 17.3314263,3.99830971 C17.2752743,3.90736435 17.5180133,3.82333138 17.6708524,3.88204018 C17.740604,3.90883399 17.7991707,3.88934589 17.799172,3.83636286 C17.799172,3.77907056 17.9147226,3.74572313 18.088926,3.75746569 C18.422406,3.77994623 18.5711931,3.68723092 18.3869586,3.57060395 C18.2951725,3.51250107 18.2928651,3.49266217 18.3745406,3.49170677 C18.4354108,3.49099453 18.4609012,3.45466928 18.4324914,3.40865711 C18.4014602,3.35839678 18.4403131,3.34523241 18.5318356,3.37958972 C18.6664351,3.43011847 18.6730263,3.42025615 18.5690897,3.29238758 C18.4667665,3.16650821 18.4652697,3.15638412 18.5815077,3.20103295 C18.6645807,3.23294262 18.757343,3.18607205 18.8257289,3.07645846 C18.8923279,2.96971041 19.005183,2.91299267 19.1113435,2.90620665 C19.2175041,2.89942063 19.3169728,2.94256646 19.3555647,3.04323859 C19.4034248,3.16807752 19.4247374,3.1707165 19.492163,3.06400101 C19.561088,2.95490564 19.5714609,2.95697989 19.5749499,3.06815349 C19.5780587,3.16722576 19.6055876,3.15857663 19.6991301,3.03493363 C19.8099546,2.88844332 19.8282498,2.88652853 19.9557694,3.01417121 C20.0316207,3.09009853 20.1373322,3.12774993 20.1917119,3.09722087 C20.2561849,3.06102185 20.2564923,3.0810335 20.1875725,3.15535564 C19.9984794,3.35927777 20.121559,3.45879917 20.3779823,3.30899751 C20.5542269,3.20603586 20.9385896,3.14674106 20.8871214,3.23010033 C20.8586719,3.27617761 20.913992,3.35652716 21.0113017,3.40865711 C21.1470787,3.48139532 21.1663118,3.5291708 21.0940885,3.61628126 C21.034274,3.68842418 21.0331773,3.74982113 21.0858098,3.78238058 C21.1313558,3.81055767 21.1932009,3.79231465 21.2224081,3.74500824 C21.2516166,3.69770182 21.312504,3.6619599 21.3590064,3.66195857 C21.4055061,3.66195857 21.4154498,3.70212139 21.3838425,3.7533132 C21.3438756,3.81804676 21.3821073,3.81661698 21.5080227,3.74916072 C21.748339,3.62042178 21.9124716,3.72486903 21.7108505,3.8778877 C21.6148628,3.95073354 21.6012977,3.992467 21.6694571,3.99415722 C21.7554296,3.99628595 21.7570019,4.03866254 21.6777358,4.18932393 C21.6226381,4.29405553 21.5343503,4.40842887 21.4831867,4.4426254 C21.4320204,4.47682193 21.5708017,4.50420041 21.789498,4.50491264 C22.2622242,4.50645272 22.6173678,4.6520979 22.6173665,4.84126377 C22.6173665,5.01396854 22.1067014,5.29425517 21.921957,5.22329222 C21.8455056,5.19392586 21.7122625,5.21215293 21.6280637,5.26481705 C21.4920482,5.34988781 21.4963081,5.35674705 21.6653177,5.31049436 C21.7762654,5.28013407 21.8557288,5.29518266 21.8557275,5.34786671 C21.8557275,5.39755034 21.9087627,5.43922134 21.9757684,5.43922134 C22.0427781,5.43922134 22.1212137,5.47625617 22.1496208,5.522271 C22.1804493,5.57219913 22.1411991,5.58420745 22.0502766,5.55133838 C21.9546783,5.51677644 21.9904647,5.58526782 22.1496208,5.73820012 C22.364803,5.94496322 22.3836943,5.98654253 22.2572437,6.01226401 C22.1195712,6.04026968 22.1192837,6.0583971 22.2820798,6.26556548 C22.4713424,6.5064095 22.3708273,6.63476441 22.1413421,6.44412225 C22.0293825,6.35111327 22.0134649,6.35786355 22.0378586,6.49810453 C22.0548517,6.59578688 22.0260286,6.65598792 21.9633504,6.64344144 C21.9052234,6.63180518 21.8557288,6.66473936 21.8557275,6.71403365 C21.8557275,6.76332794 21.8194417,6.7801744 21.7729406,6.751406 C21.7264396,6.7226376 21.6860145,6.76106102 21.6860145,6.83860814 C21.6860145,6.93634364 21.6445522,6.96394404 21.5452768,6.92581029 C21.4197481,6.87759232 21.4206833,6.89053079 21.5576948,7.04207982 C21.643674,7.13717766 21.6849111,7.21648411 21.6487604,7.21648411 C21.6126097,7.21648411 21.6255748,7.26900205 21.6818751,7.33690612 C21.8340996,7.52050699 21.4227205,7.60353141 20.9906049,7.47393806 C20.6905192,7.38394279 20.6364163,7.38548817 20.568392,7.50715792 C20.4959449,7.63673799 20.4726428,7.63711403 20.2744987,7.50715792 C20.1201496,7.40592371 20.0350474,7.39455188 19.9681874,7.46148061 C19.9013261,7.52840535 19.9185471,7.55283524 20.0261382,7.55283524 C20.1079356,7.55283524 20.1517649,7.58916182 20.1254824,7.63173242 C20.0991972,7.67430434 20.1250161,7.72845139 20.1834332,7.75215443 C20.2663061,7.78578622 20.2650809,7.81366034 20.1751545,7.87672892 C20.0778515,7.94497315 20.0778502,7.96321617 20.1751545,7.99715093 C20.2645166,8.02831648 20.2524509,8.07802934 20.1213431,8.2255375 C19.9713691,8.39426651 19.9509452,8.56065019 19.926794,9.67890658 C19.9156687,10.1940889 19.9254879,10.6197018 19.9474907,10.816687 C20.0161481,10.7468972 20.0780926,10.6766526 20.1213431,10.6173678 C20.3634582,10.2854959 20.2413668,10.143647 20.2455233,10.0858499 C20.607323,10.0998043 20.6924557,10.1129552 20.7960559,10.0983074 C21.0003672,10.0694198 21.0460165,9.94448651 21.2431048,9.78271866 C21.3209576,9.70431699 21.4308058,9.7844724 21.619785,9.6747541 C22.008005,9.44936024 21.9218894,9.40169385 21.9095389,9.28442069 C21.8964573,9.1601877 21.8053547,9.12796097 21.8101947,9.11416888 C21.8508543,8.99831925 21.9654605,9.13552819 22.0295799,9.26365827 C22.4017392,9.1960031 22.4119717,8.98532564 22.5345796,8.85256245 C22.6364949,8.74220619 22.5924841,8.60610666 22.7042927,8.50790635 C22.8161039,8.4097063 22.9910438,8.46415512 23.0851122,8.39163682 C23.2732476,8.24660009 23.3533959,8.23598541 23.4907677,8.12172542 C23.7655075,7.89320597 23.6497357,8.03507061 23.7805217,7.86842395 C24.0420963,7.53513025 23.6515636,7.56430433 23.6563414,7.50300544 C23.6699595,7.32827148 24.0933632,6.9316514 24.3476116,6.58945916 C24.7027407,6.0009448 25.1357039,5.96124839 25.622529,5.56794832 C24.6575986,4.4985828 23.607268,3.50867242 22.5883911,2.49095834 C21.572721,2.48454106 20.5492305,2.44266211 19.5335564,2.43697606 C19.7745589,1.90845944 19.1522628,1.38959625 18.9457698,1.54003971 C18.8776409,1.31878856 19.0016741,1.22976578 18.6518765,1.20368858 C18.6518765,1.20368853 17.4887213,1.19123113 17.4887213,1.19123113 C17.4887227,1.19123114 15.2286404,1.09572402 15.2286404,1.09572402 L15.2286404,1.09572402 Z M15.8122877,1.97189795 C15.8487457,1.96004511 15.9595913,2.02118029 16.093763,2.14630224 C16.6543041,2.66903941 16.4921306,3.67555879 15.7998697,3.96508984 C15.4806091,4.09861642 15.1881861,4.11480114 15.017534,4.00661467 C14.9313469,3.95197464 14.9701031,3.9160148 15.1624109,3.87373521 C15.9525763,3.70001525 16.3820162,2.67286235 15.8909352,2.12969231 C15.8040766,2.03362046 15.7839322,1.98111713 15.8122877,1.97189795 L15.8122877,1.97189795 Z M25.6609926,5.56379583 C25.627286,5.99727618 26.1852422,5.80199136 25.6609926,5.56379583 L25.6609926,5.56379583 Z" id="Abbeville" fill="#003882"></path>
                <path d="M4.2722372,3.29865229 C4.2722372,3.48841065 4.22264201,3.65085287 4.12345013,3.78598383 C4.02425826,3.92111478 3.8654099,3.98867925 3.64690027,3.98867925 C3.43989115,3.98867925 3.28248032,3.91680216 3.17466307,3.77304582 C3.06684582,3.62928949 3.00862538,3.4438466 3,3.21671159 L3.38382749,3.21671159 C3.38957775,3.47259787 3.4772678,3.60485171 3.64690027,3.61347709 C3.79928198,3.60197658 3.87690924,3.49703603 3.87978437,3.29865229 C3.88553462,3.17214672 3.81868893,3.00539187 3.67924528,2.79838275 C3.53980164,2.59137363 3.41545427,2.42030616 3.30619946,2.2851752 C3.22569591,2.18454577 3.16603793,2.08032399 3.12722372,1.97250674 C3.08840951,1.86468949 3.0690027,1.76621788 3.0690027,1.67708895 C3.0690027,1.50170622 3.12003543,1.34501417 3.22210243,1.20700809 C3.32416942,1.06900201 3.46720483,1 3.65121294,1 C3.80934491,1 3.94878646,1.0618143 4.06954178,1.18544474 C4.1902971,1.30907519 4.2521114,1.47295495 4.25498652,1.67708895 L3.87978437,1.67708895 C3.87115899,1.47295495 3.7992819,1.37232703 3.66415094,1.37520216 C3.53189512,1.37807728 3.46576819,1.47726767 3.46576819,1.67277628 C3.46289307,1.73890419 3.47870603,1.8079062 3.51320755,1.87978437 C3.54770907,1.95166253 3.59658549,2.02353962 3.65983827,2.09541779 C3.8668474,2.33692843 4.02066437,2.55471601 4.1212938,2.74878706 C4.22192323,2.94285811 4.2722372,3.12614469 4.2722372,3.29865229 L4.2722372,3.29865229 Z M5.27708895,1 C5.5301001,1 5.70835528,1.11787843 5.81185984,1.35363881 C5.9153644,1.5893992 5.9671159,1.97034777 5.9671159,2.49649596 C5.9671159,3.00251825 5.9153644,3.37843543 5.81185984,3.62425876 C5.70835528,3.87008209 5.5301001,3.99299191 5.27708895,3.99299191 C5.0240778,3.99299191 4.84582262,3.87008209 4.74231806,3.62425876 C4.6388135,3.37843543 4.58706199,3.00251825 4.58706199,2.49649596 C4.58706199,1.97034777 4.6388135,1.5893992 4.74231806,1.35363881 C4.84582262,1.11787843 5.0240778,1 5.27708895,1 L5.27708895,1 Z M5.26846361,1.40539084 C5.18220981,1.40539084 5.11177026,1.45642357 5.05714286,1.55849057 C5.00251545,1.66055756 4.96945199,1.96891027 4.95795148,2.48355795 C4.96945199,2.99820563 5.00251545,3.30655834 5.05714286,3.40862534 C5.11177026,3.51069233 5.18220981,3.56172507 5.26846361,3.56172507 C5.35759254,3.56172507 5.42946963,3.51069233 5.48409704,3.40862534 C5.53872444,3.30655834 5.5717879,2.99820563 5.58328841,2.48355795 C5.5717879,1.96891027 5.53872444,1.66055756 5.48409704,1.55849057 C5.42946963,1.45642357 5.35759254,1.40539084 5.26846361,1.40539084 L5.26846361,1.40539084 Z M7.64474394,3.2296496 C7.64474394,3.41653283 7.61455556,3.56747472 7.5541779,3.68247978 C7.44492308,3.88661378 7.26954299,3.98867925 7.02803235,3.98867925 C6.74051968,3.98867925 6.54788908,3.8564254 6.45013477,3.59191375 C6.41563325,3.49990969 6.39838275,3.37915618 6.39838275,3.2296496 L6.39838275,1.04743935 L6.7606469,1.04743935 L6.7606469,3.27708895 C6.7606469,3.50134883 6.84977449,3.61347709 7.02803235,3.61347709 C7.19478969,3.61347709 7.27816712,3.50134883 7.27816712,3.27708895 L7.27816712,1.04743935 L7.64474394,1.04743935 L7.64474394,3.2296496 Z M9.14555256,1.42264151 L8.76603774,1.42264151 L8.76603774,3.93692722 L8.39946092,3.93692722 L8.39946092,1.42264151 L8.04150943,1.42264151 L8.04150943,1.04743935 L9.14555256,1.04743935 L9.14555256,1.42264151 Z M10.7714286,3.93692722 L10.4048518,3.93692722 L10.4048518,2.58706199 L9.88733154,2.58706199 L9.88733154,3.93692722 L9.52506739,3.93692722 L9.52506739,1.04743935 L9.88733154,1.04743935 L9.88733154,2.21617251 L10.4048518,2.21617251 L10.4048518,1.04743935 L10.7714286,1.04743935 L10.7714286,3.93692722 Z" id="SOUTH" fill="#FFFFFF"></path>
                <path d="M25.6116456,1.34025316 C25.5387338,1.33755273 25.47865,1.38075905 25.4313924,1.46987342 C25.3841348,1.55898779 25.3524051,1.8722336 25.3362025,2.40962025 C25.3524051,2.91190125 25.3861601,3.20759449 25.4374684,3.29670886 C25.4887766,3.38582323 25.5535861,3.42767935 25.6318987,3.42227848 C25.7507179,3.42227848 25.8182278,3.33451565 25.8344304,3.15898734 L26.1706329,3.15898734 C26.1706329,3.36692087 26.1159499,3.52691927 26.0065823,3.63898734 C25.8972146,3.75105541 25.769621,3.80708861 25.6237975,3.80708861 C25.3969609,3.80708861 25.2376376,3.7024483 25.1458228,3.49316456 C25.054008,3.28388081 25.0054009,2.92135279 25,2.40556962 C25.0054009,1.85198035 25.0594088,1.47932585 25.1620253,1.28759494 C25.2646419,1.09586402 25.4185644,1 25.6237975,1 C25.7588192,1 25.8837125,1.0533328 25.998481,1.16 C26.1132495,1.2666672 26.1706329,1.41721422 26.1706329,1.61164557 L25.8344304,1.61164557 C25.8290295,1.43341683 25.7547686,1.3429536 25.6116456,1.34025316 L25.6116456,1.34025316 Z M27.3331646,2.62835443 L27.1832911,1.74936709 L27.0374684,2.62835443 L27.3331646,2.62835443 Z M27.9164557,3.75848101 L27.5559494,3.75848101 L27.4020253,3.03341772 L26.9564557,3.03341772 L26.8025316,3.75848101 L26.4501266,3.75848101 L27.0131646,1.04455696 L27.3534177,1.04455696 L27.9164557,3.75848101 Z M29.3908861,1.80607595 C29.3881856,2.13552907 29.2828702,2.35561126 29.0749367,2.46632911 L29.3827848,3.75848101 L29.0344304,3.75848101 L28.7508861,2.49063291 L28.5605063,2.49063291 L28.5605063,3.75848101 L28.2202532,3.75848101 L28.2202532,1.04455696 L28.7508861,1.04455696 C28.9318153,1.04455696 29.0843876,1.11071664 29.2086076,1.24303797 C29.3328276,1.37535931 29.3935865,1.56303676 29.3908861,1.80607595 L29.3908861,1.80607595 Z M29.038481,1.79797468 C29.038481,1.66025248 29.010802,1.55898767 28.955443,1.49417722 C28.9000841,1.42936676 28.8264983,1.39696203 28.7346835,1.39696203 L28.5605063,1.39696203 L28.5605063,2.14227848 L28.763038,2.14227848 C28.8494519,2.13417717 28.9169618,2.09907204 28.9655696,2.03696203 C29.0141775,1.97485201 29.038481,1.89519036 29.038481,1.79797468 L29.038481,1.79797468 Z M30.9301266,1.3321519 C31.0273423,1.55358761 31.0759494,1.91138993 31.0759494,2.40556962 C31.0759494,2.88084626 31.0273423,3.2339229 30.9301266,3.46481013 C30.8329109,3.69569736 30.6654864,3.81113924 30.4278481,3.81113924 C30.1902098,3.81113924 30.0227853,3.69569736 29.9255696,3.46481013 C29.8283539,3.2339229 29.7797468,2.88084626 29.7797468,2.40556962 C29.7797468,1.91138993 29.8283539,1.55358761 29.9255696,1.3321519 C30.0227853,1.11071619 30.1902098,1 30.4278481,1 C30.6654864,1 30.8329109,1.11071619 30.9301266,1.3321519 Z M30.4197468,1.38075949 C30.3387338,1.38075949 30.2725741,1.4286915 30.2212658,1.52455696 C30.1699575,1.62042242 30.138903,1.91003978 30.1281013,2.39341772 C30.138903,2.87679567 30.1699575,3.16641302 30.2212658,3.26227848 C30.2725741,3.35814394 30.3387338,3.40607595 30.4197468,3.40607595 C30.5034603,3.40607595 30.5709702,3.35814394 30.6222785,3.26227848 C30.6735868,3.16641302 30.7046413,2.87679567 30.715443,2.39341772 C30.7046413,1.91003978 30.6735868,1.62042242 30.6222785,1.52455696 C30.5709702,1.4286915 30.5034603,1.38075949 30.4197468,1.38075949 L30.4197468,1.38075949 Z M32.4248101,3.75848101 L31.3878481,3.75848101 L31.3878481,1.04455696 L31.7281013,1.04455696 L31.7281013,3.40607595 L32.4248101,3.40607595 L32.4248101,3.75848101 Z M33.1903797,3.75848101 L32.8501266,3.75848101 L32.8501266,1.04455696 L33.1903797,1.04455696 L33.1903797,3.75848101 Z M34.8794937,3.75848101 L34.5635443,3.75848101 L34.0491139,2.15037975 L34.0491139,3.75848101 L33.7088608,3.75848101 L33.7088608,1.04455696 L34.0491139,1.04455696 L34.5351899,2.52303797 L34.5351899,1.04455696 L34.8794937,1.04455696 L34.8794937,3.75848101 Z M36.0825316,2.62835443 L35.9326582,1.74936709 L35.7868354,2.62835443 L36.0825316,2.62835443 Z M36.6658228,3.75848101 L36.3053165,3.75848101 L36.1513924,3.03341772 L35.7058228,3.03341772 L35.5518987,3.75848101 L35.1994937,3.75848101 L35.7625316,1.04455696 L36.1027848,1.04455696 L36.6658228,3.75848101 Z" id="CAROLINA" fill="#FFFFFF"></path>
            </g>
        </g>
    </g>
</svg>