<?xml version="1.0" encoding="UTF-8" standalone="no"?>
<svg width="60px" height="40px" viewBox="0 0 60 40" version="1.1" xmlns="http://www.w3.org/2000/svg" xmlns:xlink="http://www.w3.org/1999/xlink">
    <!-- Generator: Sketch 3.8.3 (29802) - http://www.bohemiancoding.com/sketch -->
    <title>US-SC-3</title>
    <desc>Created with Sketch.</desc>
    <defs></defs>
    <g id="Icons-{3}" stroke="none" stroke-width="1" fill="none" fill-rule="evenodd">
        <g id="US-SC-3">
            <g>
                <rect id="rect2268" fill="#003882" x="0" y="0.0326883469" width="60" height="40" rx="4"></rect>
                <rect id="rect2270" fill="#FFFFFF" x="1" y="5" width="58" height="34" rx="3.5"></rect>
                <path d="M24.9206083,3.71178837 C25.2117398,4.33809577 25.399752,5.07976486 25.9554438,5.52642349 C26.5359823,5.81765234 26.5988778,6.50198554 27.1641318,6.76386345 C27.5149387,7.11715206 27.4018387,7.58042646 27.8098692,7.8559665 C28.0450845,8.32505784 28.7167309,8.39782741 28.6998278,9.03111922 C28.9519025,9.39585407 28.6726578,10.0495449 29.2917537,10.197967 C29.7711677,10.5943585 29.2950281,11.4797818 29.69327,11.7260808 C29.7943746,11.4937619 29.8249924,11.4226795 29.8298683,11.4063396 C29.9221021,11.2828904 29.8257077,11.7945123 30.1279009,11.530914 C30.144445,11.5164829 30.2079167,11.4665301 30.2355238,11.4437119 C30.2355238,11.4437119 30.9254879,10.6197018 30.9474907,10.816687 C31.0161481,10.7468972 31.0780926,10.6766526 31.1213431,10.6173678 C31.3634582,10.2854959 31.2413668,10.143647 31.2455233,10.0858499 C31.607323,10.0998043 31.6924557,10.1129552 31.7960559,10.0983074 C32.0003672,10.0694198 32.0460165,9.94448651 32.2431048,9.78271866 C32.3209576,9.70431699 32.4308058,9.7844724 32.619785,9.6747541 C33.008005,9.44936024 32.9218894,9.40169385 32.9095389,9.28442069 C32.8964573,9.1601877 32.8053547,9.12796097 32.8101947,9.11416888 C32.8508543,8.99831925 32.9654605,9.13552819 33.0295799,9.26365827 C33.4017392,9.1960031 33.4119717,8.98532564 33.5345796,8.85256245 C33.6364949,8.74220619 33.5924841,8.60610666 33.7042927,8.50790635 C33.8161039,8.4097063 33.9910438,8.46415512 34.0851122,8.39163682 C34.2732476,8.24660009 34.3533959,8.23598541 34.4907677,8.12172542 C34.7655075,7.89320597 34.6497357,8.03507061 34.7805217,7.86842395 C35.0420963,7.53513025 34.6515636,7.56430433 34.6563414,7.50300544 C34.6699595,7.32827148 35.0933632,6.9316514 35.3476116,6.58945916 C35.7027407,6.0009448 36.1357039,5.96124839 36.622529,5.56794832 C35.6575986,4.4985828 34.607268,3.50867242 33.5883911,2.49095834 C32.572721,2.48454106 24.7511774,3.62045142 24.9206083,3.71178837 Z" id="Abbeville" fill="#003882"></path>
            </g>
        </g>
    </g>
</svg>