<?xml version="1.0" encoding="UTF-8" standalone="no"?>
<svg width="60px" height="40px" viewBox="0 0 60 40" version="1.1" xmlns="http://www.w3.org/2000/svg" xmlns:xlink="http://www.w3.org/1999/xlink">
    <!-- Generator: Sketch 3.8.3 (29802) - http://www.bohemiancoding.com/sketch -->
    <title>US-SD-3</title>
    <desc>Created with Sketch.</desc>
    <defs></defs>
    <g id="Icons-{3}" stroke="none" stroke-width="1" fill="none" fill-rule="evenodd">
        <g id="US-SD-3">
            <g>
                <rect id="rect3985" fill="#006A4D" x="2.20052243e-08" y="-2.55208761e-08" width="60" height="40" rx="2"></rect>
                <polyline id="path40" stroke="#FFFFFF" stroke-width="2.53412629" fill="#FFFFFF" points="13.700301 5.32374324 13.7612959 5.32578131 14.2535444 5.34084964 14.3264004 5.34305476 14.377728 5.34540838 14.8820326 5.35649153 14.9389699 5.35810639 14.9926462 5.36014446 15.0812656 5.36229389 15.0876129 5.36246058 15.2227441 5.36609309 15.2229382 5.36657569 15.2578425 5.36666831 15.3239824 5.3681718 15.3520327 5.36960105 15.4031663 5.37199179 15.4180931 5.37191773 15.4422807 5.37189917 15.4426689 5.37217759 15.7012073 5.378702 15.7072829 5.37807091 15.8765439 5.38361341 15.9285897 5.3848756 16.6193337 5.40105763 16.7588925 5.4044674 16.8944314 5.4077658 16.8964112 5.40780293 16.9334895 5.40852683 17.0125957 5.41008601 17.0225146 5.41029019 17.0330934 5.41030875 17.1051924 5.41184936 17.1073858 5.41190486 17.1752532 5.41398005 17.2415096 5.41474108 17.2469252 5.41336752 17.3150236 5.41531463 17.4964163 5.42043022 17.5127989 5.42035597 17.675633 5.42380287 18.0813217 5.43269946 18.0828746 5.43212405 18.0944627 5.43256953 18.1382978 5.43420295 18.1563692 5.43453706 18.2624019 5.4366865 18.3722002 5.43850554 18.8474238 5.44649446 19.0775799 5.45149868 19.2098578 5.45374092 19.2690681 5.45489174 19.4682409 5.45876556 19.4988748 5.45885836 19.6595951 5.46263937 19.6655542 5.46232382 19.6723867 5.46200827 19.710552 5.4620454 19.9026593 5.46627188 19.9476591 5.46855125 20.0459256 5.46862531 20.1016206 5.46923784 20.2274735 5.47059284 20.2358395 5.47178079 20.3902863 5.47361839 20.5857342 5.47741795 20.9376088 5.48296046 21.0329249 5.48442683 21.065925 5.48615306 21.7756585 5.49809004 21.8160365 5.4987397 21.99075 5.50153879 22.3011595 5.50070352 22.3219309 5.50155735 22.3584268 5.50296804 22.5698303 5.50476852 22.6055498 5.50517687 22.708436 5.50636482 22.8839317 5.5088298 22.9895354 5.50905254 23.3094581 5.51409388 23.4352548 5.51648462 23.4455424 5.51666986 23.6117152 5.51830329 23.6346217 5.51772788 23.6658768 5.5182476 23.7184836 5.51915712 23.8341847 5.52092048 23.8576736 5.52116178 24.098391 5.52201561 24.1352752 5.5236676 24.9475067 5.52817251 24.9752659 5.53026626 25.0571886 5.53125002 25.1142618 5.53158413 25.2284081 5.53223379 25.2513147 5.53321756 25.5568715 5.53429413 26.3677404 5.53979951 26.4191845 5.54004081 26.4193786 5.5397067 26.4979995 5.54150718 26.6967881 5.53896795 26.7823968 5.53991459 27.1685157 5.54404827 27.3242067 5.54493923 28.1044029 5.54694017 28.1898195 5.5473114 28.4340329 5.54833229 28.6510674 5.5479425 28.6926101 5.54862928 28.7213418 5.54898195 28.7871497 5.5497801 29.5698712 5.55163626 29.6290815 5.55287989 29.637234 5.55453188 29.6945013 5.55477318 29.7003245 5.55455044 30.4001546 5.5576094 30.5263356 5.55762796 30.5960277 5.55727529 30.8074312 5.55805488 30.819854 5.55779501 30.9835053 5.55818481 31.085617 5.55909433 31.5132767 5.55965118 31.7807848 5.55974398 32.356179 5.55838898 32.6365001 5.56033424 33.2309167 5.55992589 33.236934 5.55970315 33.2380987 5.55988839 33.2479981 5.55983289 33.4485316 5.55868207 33.6174219 5.55706721 33.7591372 5.5549549 34.1683587 5.55135951 34.318999 5.55002307 34.9629187 5.5507841 34.9825254 5.5507841 35.2620701 5.547985 35.5816046 5.54461236 35.6872102 5.54310886 35.7349682 5.5426077 35.9607375 5.54104852 35.9619022 5.54102996 36.1430212 5.53926661 36.281821 5.5385427 36.3713139 5.5371877 36.4231481 5.53661229 36.5479703 5.53625962 36.7867467 5.53316354 36.790823 5.5331266 36.8447905 5.53199435 36.8519724 5.53197578 36.9274877 5.53095489 37.5939295 5.52148289 37.6263492 5.52088892 37.6577984 5.52033207 38.2452253 5.51386334 38.4618716 5.51176959 38.9196255 5.50708092 38.9266134 5.50696974 39.3212769 5.50285463 39.6598338 5.49911075 40.138163 5.493494 40.5547606 5.48826704 40.8053814 5.48498534 40.9742697 5.48353754 41.8092097 5.47564142 41.9320948 5.47437923 42.2252269 5.47126459 42.6459025 5.46262786 43.7662104 5.43814284 43.7728101 5.43799472 43.8425021 5.43626849 44.3237449 5.42410876 44.5409735 5.41849201 44.9604826 5.4081866 45.103941 5.40557312 45.1584908 5.40431093 45.2936046 5.40119629 45.9951798 5.38464488 46.4659389 5.37306057 46.5166065 5.37096681 46.8365312 5.36169899 47.0574478 5.35519314 47.6792355 5.33652812 48.0944762 5.32368347 48.2530769 5.31814097 48.2536592 5.31812241 48.4357526 5.31398873 48.5025311 5.31154231 48.5128187 5.3112082 48.5165068 5.31109683 48.5295119 5.31066991 49.3625089 5.28331211 49.5999305 5.27530462 49.6451612 5.27350415 50.2092973 5.25304143 50.7701277 5.23148507 50.9512505 5.22290403 51.0508369 5.21454572 51.6138083 5.19895767 51.7432911 5.19538084 51.7545492 5.19065505 51.8960666 5.18546522 51.9696408 5.18275893 52.4963084 5.16314894 52.4963084 5.16314894 52.7395493 5.15391824 52.7972048 5.15171312 52.83234 5.15035812 53.0563663 5.14173995 53.0994618 5.13814457 53.0996559 5.138126 53.1479943 5.13408514 53.5409108 5.11825578 53.5954587 5.1160321 53.6138988 5.11527107 53.7548357 5.10950583 53.8938297 5.10452017 54.0336001 5.10007095 54.1737606 5.09636419 54.3135329 5.08959848 54.3884658 5.08735623 54.4538856 5.08539241 54.5220248 5.08224065 54.591911 5.07897751 54.6835371 5.07521507 54.6792667 5.15825257 54.6827606 5.20588784 54.6856722 5.21973296 54.6695614 5.24468109 54.667038 5.25630253 54.6699496 5.27791439 54.6718907 5.29120452 54.6790726 5.30004542 54.6847017 5.30903482 54.6862546 5.3114998 54.6872251 5.3132446 54.6748023 5.34023172 54.6730553 5.34417978 54.6697555 5.35109399 54.6639323 5.3743183 54.6674262 5.41294561 54.6691732 5.4820075 54.6672321 5.51095938 54.6505389 5.52458176 54.6462686 5.61885146 54.6534505 5.66122265 54.6369515 5.70832037 54.6392808 5.72487178 54.6505389 5.75582534 54.6482097 5.92658956 54.6359809 5.95620872 54.6301577 5.97504043 54.6326811 6.01939493 54.6206465 6.08714061 54.6006516 6.14144842 54.5971577 6.14600715 54.5936637 6.15077007 54.5750295 6.17557008 54.5350397 6.20101882 54.5123272 6.22109248 54.4799075 6.27282393 54.444188 6.34142233 54.4391413 6.3487616 54.4210893 6.37439559 54.4133251 6.38544347 54.4100253 6.38837249 54.3929439 6.40358932 54.3764448 6.4181769 54.3294671 6.44913047 54.3139386 6.46533106 54.3036509 6.48447794 54.2976336 6.51289227 54.2593907 6.58327018 54.2469679 6.61637392 54.2459974 6.6267907 54.2425035 6.66056173 54.2407565 6.66736457 54.2296924 6.71208994 54.1658216 6.83525564 54.0994313 6.91301049 54.0382819 6.97033976 54.0375055 6.97115647 54.0340116 6.97428968 53.9385014 7.0373647 53.7804831 7.12116192 53.5580135 7.27778385 53.5236528 7.30495641 53.4807494 7.37887439 53.4572605 7.41155177 53.3009892 7.52513484 53.1996558 7.59877514 53.1922797 7.60483552 53.0317341 7.73493343 53.0297931 7.73651117 53.026105 7.74116271 53.0255227 7.74188662 53.0216406 7.74694652 53.0152351 7.74944863 52.9866975 7.7608102 52.9665085 7.78069843 52.9622381 7.78633374 52.934673 7.82212502 52.9135135 7.87561741 52.8715806 8.06328571 52.8682808 8.10556428 52.8422666 8.15898224 52.8416843 8.16009594 52.835667 8.18873264 52.8647869 8.22126171 52.8946832 8.25108505 52.930985 8.29173243 52.9337025 8.29506795 52.9944637 8.3652233 53.2336303 8.6387462 53.2536252 8.64888456 53.2907035 8.67965288 53.3553487 8.7639134 53.3834961 8.81188222 53.4962837 8.9414799 53.5306464 9.00016213 53.5883019 9.11519096 53.5985896 9.13767411 53.6440144 9.23689252 53.6579901 9.27572364 53.6609017 9.31053283 53.6682778 9.32799375 53.69798 9.37492479 53.7117615 9.43635006 53.7430146 9.50917439 53.75272 9.52459539 53.8035798 9.57354668 53.901031 9.70364478 53.954028 9.78303083 53.9604335 9.79253996 53.9650921 9.79947273 53.9775149 9.81404175 54.021777 9.86555083 54.0330352 9.87874815 54.0625433 9.90282519 54.0792365 9.91650511 54.0951532 9.92946113 54.1180598 9.93824635 54.1520323 9.93941573 54.1869734 9.93493124 54.2421075 9.94673829 54.3391705 9.93235488 54.3851796 9.93806444 54.3888676 9.93852848 54.4527346 9.93571083 54.4610811 9.9363048 54.497383 9.93891828 54.5447489 9.94234661 54.5488251 9.94379442 54.5546483 9.94585105 54.6592815 9.98273616 54.7740121 10.0467194 54.8153627 10.0763755 54.8673891 10.0964675 54.9316461 10.1285519 55.0436573 10.1701446 55.0865607 10.1748333 55.1469337 10.1891981 55.2104124 10.2127005 55.3065049 10.280502 55.3492122 10.3003717 55.4408403 10.3737894 55.4899551 10.471173 55.5148027 10.5311897 55.5817772 10.6490174 55.5899297 10.6634194 55.5951706 10.7035296 55.6009938 10.7212114 55.6110873 10.734186 55.6448658 10.7629153 55.6757326 10.8193918 55.6831087 10.8555352 55.7005783 10.8714203 55.7034899 10.8740523 55.7120306 10.9053025 55.7172714 10.987098 56.5214999 27.435857 55.7781627 27.4655778 55.8444773 27.8400476 56.0202603 28.423603 56.0713142 28.8247013 56.0942207 29.2087489 56.0942207 29.2089345 56.4803454 30.0026113 56.4836453 30.0059523 56.4865569 30.0089222 56.5112103 30.2154018 56.5148984 30.2976985 56.526933 30.3355104 56.5756615 30.4706316 56.5756615 30.4710029 56.5739146 30.5733183 56.6048513 31.2277865 56.400752 32.46909 56.3807571 32.5263638 56.3722164 32.5578722 56.2741809 33.035708 56.200993 33.1797258 56.1485784 33.3773106 56.1015754 33.9832235 56.1053217 34.4606398 56.3616298 34.8473009 56.6302307 35.2008925 56.8993887 35.4174288 57 35.6505573 56.8694943 35.79988 56.6494414 35.8999996 56.0574123 35.823045 55.5510482 35.6925196 55.0951344 35.4218409 54.3045962 35.2968747 53.117044 34.7050909 51.9487646 34.0622033 50.9012914 33.7992109 49.9004716 33.6595941 49.1226708 33.7382007 48.3235259 33.6919507 46.7284312 33.4994109 45.2934532 33.8814761 43.8605521 33.6267938 43.7355338 33.5832371 43.1937297 33.2985054 43.176066 33.2916561 42.6635721 33.1005586 41.4683856 32.7345511 40.3319475 32.6411619 39.7087952 32.6042633 39.3104108 32.5832515 39.006795 32.5877063 38.735791 32.5919755 38.5835959 32.5934604 38.5806843 32.5947597 38.3104587 32.5979152 38.1724353 32.5995857 38.159236 32.6005138 38.0425663 32.6019987 37.7768052 32.6057111 37.7548692 32.6040405 37.6692584 32.6068248 37.5968489 32.6066392 37.4794027 32.6097946 37.3576862 32.6131357 37.0798847 32.6151775 36.9397261 32.6181474 36.8801295 32.6179617 36.7009497 32.6209316 36.6386356 32.6216741 36.2818288 32.6252008 36.1309924 32.6276138 36.1133287 32.6283563 36.0910025 32.6289131 35.9403602 32.62947 35.7965136 32.6315117 35.4041775 32.6368946 35.3816592 32.6361521 35.2667364 32.636709 35.2418888 32.6370802 34.9607913 32.6404213 34.9512801 32.6406069 34.7115331 32.6432056 34.1233279 32.6487741 33.792147 32.6515583 33.7764244 32.6506302 33.651014 32.6524864 33.5972426 32.6528576 33.4815414 32.6536001 33.3019753 32.6528576 33.2856703 32.6530432 33.162401 32.6547138 33.0771784 32.6556419 33.0556307 32.6548994 33.0129233 32.6541569 32.9245931 32.6563843 32.7252262 32.6558275 32.6551459 32.6582405 32.5848716 32.6573124 32.5295473 32.6576836 32.4449071 32.6582405 32.2416522 32.6593542 32.1762324 32.6591686 32.0151084 32.6584261 32.0116145 32.6582405 31.9388167 32.6582405 31.6307365 32.658983 31.6051105 32.658983 31.4674753 32.6591686 31.421078 32.6593542 30.8204479 32.6587973 30.7699744 32.6586117 30.7666746 32.6586117 30.2605881 32.6612103 29.6991695 32.6606535 29.6572386 32.6597254 29.1915244 32.6600966 29.1499817 32.659911 28.6112794 32.6563843 28.3198943 32.6543425 27.903685 32.6558275 27.8842724 32.6560131 27.8157449 32.6578693 27.7512957 32.6584261 27.2397684 32.6580549 27.19512 32.6625097 26.3658071 32.6582405 25.5273712 32.6528576 25.3829403 32.6556419 25.2497696 32.6543425 24.884422 32.6530432 24.8432656 32.6517439 24.5868235 32.6532288 24.5487748 32.6524864 24.5487748 32.6524864 24.2845665 32.6469179 22.9876021 32.6354282 22.9848846 32.6354282 22.9775086 32.635612 22.9683856 32.635612 22.9604272 32.6352408 21.0496278 32.6196676 20.79344 32.6185539 20.4968528 32.6170689 20.4568435 32.6168833 20.1651284 32.6152128 19.5426381 32.6022382 19.5424634 32.6022382 19.541687 32.6022382 18.5772254 32.5610908 18.1944451 32.554223 18.158318 32.5536661 17.3928332 32.5392066 17.2146433 32.5356799 16.9726253 32.5308539 16.9323443 32.5299258 16.9323443 32.5299258 16.9322666 32.5299258 15.0116473 32.4865528 14.6469209 32.4776618 14.4424276 32.4724645 14.4003414 32.4713509 14.0694886 32.4637591 13.595003 32.4509702 13.4581431 32.4472579 12.9000461 32.431499 11.9143446 32.4027693 11.7817946 32.3985002 11.5916466 32.392579 10.4382388 32.3545815 9.51320204 32.3227019 9.50462253 32.3223307 8.03500032 32.2724704 7.99291373 32.2711711 7.58427517 32.2580109 6.87281762 32.2320617 6.86623741 32.231878 6.86336463 32.2316924 6.74160813 32.2272376 6.37016467 32.2131493 6.36562257 32.2137061 6.07318926 32.2033302 5.82899611 32.1872001 5.38941404 32.1742255 4.69082731 32.1430866 4.6792372 32.1434578 4.36279018 32.1321538 3.90622164 32.1152812 3.61431241 32.096005 3.43899587 32.0887845 3 32.0802647 4.32274403 5 5.14044741 5.03454951 5.97931074 5.0688024 6.79557773 5.10097936 6.85830038 5.10338866 6.91009367 5.10539146 6.91009367 5.10548408 7.47314077 5.12628053 7.59668324 5.13228522 8.42999474 5.16112591 8.44653457 5.16149714 8.54305468 5.16611342 8.58824756 5.16698581 8.82937305 5.17979334 8.8719649 5.17799286 9.28947472 5.19243195 9.44409716 5.19769603 9.44421363 5.19771459 9.88626105 5.21200519 9.93848137 5.21362006 10.2707887 5.2237213 10.4074349 5.22861414 10.6972089 5.2378634 10.8277208 5.24173721 10.9245709 5.24459199 11.0343112 5.24779944 11.1804502 5.25259948 11.3870795 5.26027286 11.4237113 5.2609782 11.7457106 5.27182191 11.890782 5.27665907 12.161512 5.28436957 12.5806721 5.29647361 13.341729 5.3177148 13.4164488 5.31906979 13.5490184 5.32146053 13.5598107 5.32203594 13.5987918 5.32249998 13.7002038 5.32389211"></polyline>
            </g>
        </g>
    </g>
</svg>