<?xml version="1.0" encoding="UTF-8" standalone="no"?>
<svg width="40px" height="40px" viewBox="0 0 40 40" version="1.1" xmlns="http://www.w3.org/2000/svg" xmlns:xlink="http://www.w3.org/1999/xlink">
    <!-- Generator: Sketch 3.8.3 (29802) - http://www.bohemiancoding.com/sketch -->
    <title>US-SD-2</title>
    <desc>Created with Sketch.</desc>
    <defs></defs>
    <g id="Icons-{2}" stroke="none" stroke-width="1" fill="none" fill-rule="evenodd">
        <g id="US-SD-2">
            <g>
                <rect id="rect3985" fill="#006A4D" x="2.20052243e-08" y="-2.55208761e-08" width="39.9999995" height="40" rx="2"></rect>
                <polyline id="path40" stroke="#FFFFFF" stroke-width="2.53412629" fill="#FFFFFF" points="9.53990717 5.32374324 9.5771866 5.32578131 9.87804347 5.34084964 9.92257226 5.34305476 9.95394314 5.34540838 10.2621686 5.35649153 10.2969681 5.35810639 10.3297744 5.36014446 10.3839376 5.36229389 10.387817 5.36246058 10.4704078 5.36609309 10.4705264 5.36657569 10.4918595 5.36666831 10.5322835 5.3681718 10.5494276 5.36960105 10.5806798 5.37199179 10.5898029 5.37191773 10.6045861 5.37189917 10.6048234 5.37217759 10.7628392 5.378702 10.7665525 5.37807091 10.870003 5.38361341 10.9018129 5.3848756 11.3239881 5.40105763 11.4092849 5.4044674 11.4921248 5.4077658 11.4933348 5.40780293 11.5159967 5.40852683 11.5643455 5.41008601 11.5704078 5.41029019 11.5768735 5.41030875 11.6209396 5.41184936 11.6222802 5.41190486 11.66376 5.41398005 11.7042552 5.41474108 11.7075651 5.41336752 11.7491861 5.41531463 11.8600513 5.42043022 11.8700642 5.42035597 11.9695867 5.42380287 12.2175392 5.43269946 12.2184883 5.43212405 12.2255708 5.43256953 12.2523624 5.43420295 12.2634074 5.43453706 12.3282134 5.4366865 12.3953209 5.43850554 12.6857724 5.44649446 12.8264413 5.45149868 12.9072881 5.45374092 12.9434768 5.45489174 13.065209 5.45876556 13.0839321 5.45885836 13.1821626 5.46263937 13.1858048 5.46232382 13.1899807 5.46200827 13.2133069 5.4620454 13.3307208 5.46627188 13.3582242 5.46855125 13.4182836 5.46862531 13.4523238 5.46923784 13.5292437 5.47059284 13.5343569 5.47178079 13.6287531 5.47361839 13.7482088 5.47741795 13.9632707 5.48296046 14.0215268 5.48442683 14.0416961 5.48615306 14.4754775 5.49809004 14.5001561 5.4987397 14.606939 5.50153879 14.796658 5.50070352 14.8093532 5.50155735 14.8316591 5.50296804 14.9608666 5.50476852 14.982698 5.50517687 15.0455809 5.50636482 15.152842 5.5088298 15.2173858 5.50905254 15.4129191 5.51409388 15.4898046 5.51648462 15.4960923 5.51666986 15.5976553 5.51830329 15.6116555 5.51772788 15.6307583 5.5182476 15.662911 5.51915712 15.7336262 5.52092048 15.7479824 5.52116178 15.8951063 5.52201561 15.9176494 5.5236676 16.4140765 5.52817251 16.4310426 5.53026626 16.4811129 5.53125002 16.5159954 5.53158413 16.5857604 5.53223379 16.5997606 5.53321756 16.7865136 5.53429413 17.2821078 5.53979951 17.3135499 5.54004081 17.3136685 5.5397067 17.3617208 5.54150718 17.4832181 5.53896795 17.5355413 5.53991459 17.771533 5.54404827 17.8666896 5.54493923 18.343537 5.54694017 18.3957427 5.5473114 18.5450032 5.54833229 18.6776523 5.5479425 18.7030428 5.54862928 18.7206033 5.54898195 18.7608244 5.5497801 19.2392152 5.55163626 19.2754039 5.55287989 19.2803866 5.55453188 19.3153877 5.55477318 19.3189468 5.55455044 19.7466754 5.5576094 19.8237958 5.55762796 19.8663908 5.55727529 19.9955983 5.55805488 20.003191 5.55779501 20.1032129 5.55818481 20.1656225 5.55909433 20.4270034 5.55965118 20.5905014 5.55974398 20.9421761 5.55838898 21.1135053 5.56033424 21.4768063 5.55992589 21.480484 5.55970315 21.4811958 5.55988839 21.4872462 5.55983289 21.6098101 5.55868207 21.713034 5.55706721 21.7996488 5.5549549 22.0497605 5.55135951 22.1418303 5.55002307 22.535387 5.5507841 22.5473704 5.5507841 22.718225 5.547985 22.913521 5.54461236 22.978066 5.54310886 23.0072552 5.5426077 23.1452429 5.54104852 23.1459547 5.54102996 23.2566527 5.53926661 23.3414856 5.5385427 23.3961827 5.5371877 23.4278632 5.53661229 23.5041532 5.53625962 23.6500907 5.53316354 23.6525821 5.5331266 23.6855664 5.53199435 23.6899559 5.53197578 23.73611 5.53095489 24.1434321 5.52148289 24.1632466 5.52088892 24.182468 5.52033207 24.5414969 5.51386334 24.6739088 5.51176959 24.953683 5.50708092 24.9579539 5.50696974 25.1991679 5.50285463 25.4060902 5.49911075 25.6984398 5.493494 25.9530596 5.48826704 26.1062363 5.48498534 26.209459 5.48353754 26.7197653 5.47564142 26.7948713 5.47437923 26.9740304 5.47126459 27.2311428 5.46262786 27.9158627 5.43814284 27.9198964 5.43799472 27.9624914 5.43626849 28.2566217 5.42410876 28.3893895 5.41849201 28.6457889 5.4081866 28.7334691 5.40557312 28.7668093 5.40431093 28.8493894 5.40119629 29.2781845 5.38464488 29.5659073 5.37306057 29.5968748 5.37096681 29.7924093 5.36169899 29.9274311 5.35519314 30.3074609 5.33652812 30.5612515 5.32368347 30.6581865 5.31814097 30.6585424 5.31812241 30.7698359 5.31398873 30.8106502 5.31154231 30.8169379 5.3112082 30.819192 5.31109683 30.8271406 5.31066991 31.3362593 5.28331211 31.4813688 5.27530462 31.5090133 5.27350415 31.8538071 5.25304143 32.1965805 5.23148507 32.3072808 5.22290403 32.3681469 5.21454572 32.7122289 5.19895767 32.7913673 5.19538084 32.7982482 5.19065505 32.8847421 5.18546522 32.9297098 5.18275893 33.2516033 5.16314894 33.2516033 5.16314894 33.4002695 5.15391824 33.4355079 5.15171312 33.4569822 5.15035812 33.5939046 5.14173995 33.6202441 5.13814457 33.6203627 5.138126 33.6499066 5.13408514 33.8900529 5.11825578 33.9233919 5.1160321 33.9346624 5.11527107 34.0208015 5.10950583 34.1057531 5.10452017 34.1911792 5.10007095 34.2768438 5.09636419 34.3622711 5.08959848 34.4080693 5.08735623 34.4480531 5.08539241 34.4896991 5.08224065 34.5324127 5.07897751 34.5884136 5.07521507 34.5858036 5.15825257 34.587939 5.20588784 34.5897186 5.21973296 34.5798718 5.24468109 34.5783295 5.25630253 34.5801091 5.27791439 34.5812954 5.29120452 34.585685 5.30004542 34.5891254 5.30903482 34.5900745 5.3114998 34.5906677 5.3132446 34.583075 5.34023172 34.5820073 5.34417978 34.5799904 5.35109399 34.5764314 5.3743183 34.5785668 5.41294561 34.5796345 5.4820075 34.5784482 5.51095938 34.5682455 5.52458176 34.5656355 5.61885146 34.570025 5.66122265 34.559941 5.70832037 34.5613646 5.72487178 34.5682455 5.75582534 34.5668219 5.92658956 34.5593478 5.95620872 34.5557887 5.97504043 34.557331 6.01939493 34.5499756 6.08714061 34.5377549 6.14144842 34.5356194 6.14600715 34.533484 6.15077007 34.522095 6.17557008 34.4976536 6.20101882 34.483772 6.22109248 34.4639575 6.27282393 34.4421261 6.34142233 34.4390415 6.3487616 34.4280084 6.37439559 34.423263 6.38544347 34.4212462 6.38837249 34.4108062 6.40358932 34.4007222 6.4181769 34.3720099 6.44913047 34.362519 6.46533106 34.3562313 6.48447794 34.3525536 6.51289227 34.32918 6.58327018 34.3215873 6.61637392 34.3209941 6.6267907 34.3188587 6.66056173 34.3177909 6.66736457 34.3110287 6.71208994 34.2719916 6.83525564 34.2314145 6.91301049 34.1940407 6.97033976 34.1935661 6.97115647 34.1914307 6.97428968 34.1330559 7.0373647 34.0364768 7.12116192 33.9005059 7.27778385 33.879505 7.30495641 33.8532829 7.37887439 33.8389268 7.41155177 33.7434154 7.52513484 33.6814816 7.59877514 33.6769734 7.60483552 33.5788497 7.73493343 33.5776633 7.73651117 33.5754092 7.74116271 33.5750533 7.74188662 33.5726806 7.74694652 33.5687656 7.74944863 33.5513238 7.7608102 33.5389845 7.78069843 33.5363745 7.78633374 33.519527 7.82212502 33.5065945 7.87561741 33.4809656 8.06328571 33.4789488 8.10556428 33.4630492 8.15898224 33.4626933 8.16009594 33.4590156 8.18873264 33.4768133 8.22126171 33.4950856 8.25108505 33.5172729 8.29173243 33.5189338 8.29506795 33.5560704 8.3652233 33.7022464 8.6387462 33.7144671 8.64888456 33.7371289 8.67965288 33.7766394 8.7639134 33.7938428 8.81188222 33.8627773 8.9414799 33.8837794 9.00016213 33.9190178 9.11519096 33.9253055 9.13767411 33.9530687 9.23689252 33.9616105 9.27572364 33.96339 9.31053283 33.9678982 9.32799375 33.9860519 9.37492479 33.994475 9.43635006 34.0135766 9.50917439 34.0195084 9.52459539 34.0505933 9.57354668 34.1101545 9.70364478 34.1425456 9.78303083 34.1464606 9.79253996 34.1493079 9.79947273 34.1569005 9.81404175 34.1839531 9.86555083 34.190834 9.87874815 34.208869 9.90282519 34.2190717 9.91650511 34.2287998 9.92946113 34.2428 9.93824635 34.2635637 9.93941573 34.2849193 9.93493124 34.3186167 9.94673829 34.3779405 9.93235488 34.4060608 9.93806444 34.4083149 9.93852848 34.4473496 9.93571083 34.452451 9.9363048 34.4746382 9.93891828 34.5035878 9.94234661 34.5060791 9.94379442 34.5096382 9.94585105 34.5735889 9.98273616 34.643711 10.0467194 34.668984 10.0763755 34.7007819 10.0964675 34.7400551 10.1285519 34.8085152 10.1701446 34.8347372 10.1748333 34.8716366 10.1891981 34.910434 10.2127005 34.9691647 10.280502 34.995267 10.3003717 35.051269 10.3737894 35.0812875 10.471173 35.0964741 10.5311897 35.1374082 10.6490174 35.1423909 10.6634194 35.1455941 10.7035296 35.1491531 10.7212114 35.1553222 10.734186 35.1759672 10.7629153 35.1948327 10.8193918 35.1993408 10.8555352 35.2100181 10.8714203 35.2117976 10.8740523 35.2170176 10.9053025 35.2202208 10.987098 35.7117564 27.435857 35.2574368 27.4655778 35.2979676 27.8400476 35.4054042 28.423603 35.4366078 28.8247013 35.450608 29.2087489 35.450608 29.2089345 35.6866033 30.0026113 35.6886201 30.0059523 35.6903996 30.0089222 35.7054675 30.2154018 35.7077216 30.2976985 35.715077 30.3355104 35.7448594 30.4706316 35.7448594 30.4710029 35.7437917 30.5733183 35.7626999 31.2277865 35.6379566 32.46909 35.6257359 32.5263638 35.620516 32.5578722 35.5605977 33.035708 35.5158661 33.1797258 35.4838308 33.3773106 35.4551032 33.9832235 35.4573928 34.4606398 35.6140456 34.8473009 35.7782115 35.2008925 35.9427179 35.4174288 36.0042104 35.6505573 35.9244468 35.79988 35.7899529 35.8999996 35.4281111 35.823045 35.1186269 35.6925196 34.8399774 35.4218409 34.3568091 35.2968747 33.6309901 34.7050909 32.9169505 34.0622033 32.2767463 33.7992109 31.6650562 33.6595941 31.1896728 33.7382007 30.7012442 33.6919507 29.7263398 33.4994109 28.8492968 33.8814761 27.9735233 33.6267938 27.8971135 33.5832371 27.5659688 33.2985054 27.5551729 33.2916561 27.2419422 33.1005586 26.5114573 32.7345511 25.8168787 32.6411619 25.4360149 32.6042633 25.1925266 32.5832515 25.00696 32.5877063 24.8413253 32.5919755 24.7483053 32.5934604 24.7465258 32.5947597 24.5813669 32.5979152 24.4970085 32.5995857 24.4889412 32.6005138 24.4176339 32.6019987 24.2552036 32.6057111 24.2417966 32.6040405 24.1894723 32.6068248 24.1452163 32.6066392 24.0734345 32.6097946 23.9990427 32.6131357 23.8292534 32.6151775 23.74359 32.6181474 23.7071653 32.6179617 23.5976525 32.6209316 23.5595668 32.6216741 23.3414904 32.6252008 23.2493008 32.6276138 23.238505 32.6283563 23.2248595 32.6289131 23.1327885 32.62947 23.0448711 32.6315117 22.8050795 32.6368946 22.7913166 32.6361521 22.721077 32.636709 22.7058904 32.6370802 22.5340867 32.6404213 22.5282736 32.6406069 22.3817428 32.6432056 22.0222382 32.6487741 21.8198241 32.6515583 21.8102146 32.6506302 21.7335651 32.6524864 21.7007006 32.6528576 21.6299853 32.6536001 21.5202365 32.6528576 21.5102711 32.6530432 21.4349302 32.6547138 21.3828431 32.6556419 21.3696733 32.6548994 21.3435711 32.6541569 21.2895846 32.6563843 21.1677337 32.6558275 21.1249014 32.6582405 21.0819505 32.6573124 21.0481369 32.6576836 20.9964057 32.6582405 20.8721786 32.6593542 20.8321947 32.6591686 20.7337175 32.6584261 20.731582 32.6582405 20.6870888 32.6582405 20.4987935 32.658983 20.4831312 32.658983 20.3990101 32.6591686 20.3706526 32.6593542 20.0035541 32.6587973 19.9727052 32.6586117 19.9706884 32.6586117 19.6613738 32.6612103 19.3182409 32.6606535 19.2926132 32.6597254 19.0079737 32.6600966 18.9825833 32.659911 18.6533344 32.6563843 18.4752429 32.6543425 18.2208604 32.6558275 18.2089956 32.6560131 18.1671124 32.6578693 18.1277217 32.6584261 17.8150818 32.6580549 17.7877932 32.6625097 17.2809262 32.6582405 16.7684833 32.6528576 16.6802088 32.6556419 16.5988162 32.6543425 16.3755198 32.6530432 16.3503655 32.6517439 16.1936309 32.6532288 16.1703759 32.6524864 16.1703759 32.6524864 16.0088947 32.6469179 15.2162042 32.6354282 15.2145433 32.6354282 15.2100351 32.635612 15.2044593 32.635612 15.1995952 32.6352408 14.0317354 32.6196676 13.8751563 32.6185539 13.6938854 32.6170689 13.6694322 32.6168833 13.4911391 32.6152128 13.1106798 32.6022382 13.110573 32.6022382 13.1100985 32.6022382 12.5206301 32.5610908 12.286679 32.554223 12.2645985 32.5536661 11.7967425 32.5392066 11.6878348 32.5356799 11.539916 32.5308539 11.5152967 32.5299258 11.5152967 32.5299258 11.5152493 32.5299258 10.3413877 32.4865528 10.1184709 32.4776618 9.99348685 32.4724645 9.96776422 32.4713509 9.76555057 32.4637591 9.47555018 32.4509702 9.39190288 32.4472579 9.05080009 32.431499 8.44835009 32.4027693 8.36733698 32.3985002 8.25112057 32.392579 7.54617036 32.3545815 6.98079798 32.3227019 6.97555427 32.3223307 6.07733723 32.2724704 6.05161436 32.2711711 5.80185893 32.2580109 5.36702385 32.2320617 5.36300209 32.231878 5.36124628 32.2316924 5.28683004 32.2272376 5.05980785 32.2131493 5.05703177 32.2137061 4.87829972 32.2033302 4.72905153 32.1872001 4.46038377 32.1742255 4.03341519 32.1430866 4.02633144 32.1434578 3.83292248 32.1321538 3.55387277 32.1152812 3.37546104 32.096005 3.26830948 32.0887845 3 32.0802647 3.80844671 5 4.30821809 5.03454951 4.8209222 5.0688024 5.31981567 5.10097936 5.35815107 5.10338866 5.38980656 5.10539146 5.38980656 5.10548408 5.7339348 5.12628053 5.80944261 5.13228522 6.3187535 5.16112591 6.32886246 5.16149714 6.3878545 5.16611342 6.4154759 5.16698581 6.56284917 5.17979334 6.58888084 5.17799286 6.84405828 5.19243195 6.93856183 5.19769603 6.93863301 5.19771459 7.20880757 5.21200519 7.24072406 5.21362006 7.44382664 5.2237213 7.52734333 5.22861414 7.70445006 5.2378634 7.7842175 5.24173721 7.84341122 5.24459199 7.91048331 5.24779944 7.99980188 5.25259948 8.12609142 5.26027286 8.14848038 5.2609782 8.34528281 5.27182191 8.43394888 5.27665907 8.59941613 5.28436957 8.85560222 5.29647361 9.32075185 5.3177148 9.36641978 5.31906979 9.44744487 5.32146053 9.45404103 5.32203594 9.47786584 5.32249998 9.53984774 5.32389211"></polyline>
            </g>
        </g>
    </g>
</svg>