<?xml version="1.0" encoding="UTF-8" standalone="no"?>
<svg width="40px" height="40px" viewBox="0 0 40 40" version="1.1" xmlns="http://www.w3.org/2000/svg" xmlns:xlink="http://www.w3.org/1999/xlink">
    <!-- Generator: Sketch 3.8.3 (29802) - http://www.bohemiancoding.com/sketch -->
    <title>US-TX-2</title>
    <desc>Created with Sketch.</desc>
    <defs></defs>
    <g id="Icons-{2}" stroke="none" stroke-width="1" fill="none" fill-rule="evenodd">
        <g id="US-TX-2">
            <g id="Group">
                <g fill="#000000">
                    <path d="M0,2.5 C0,1.11923218 1.11928304,0 2.5,0 L37.5,0 C38.880717,0 40,1.11923218 40,2.5 L40,37.5 C40,38.880717 38.880717,40 37.5,40 L2.5,40 C1.11928304,40 0,38.880717 0,37.5 L0,2.5 L0,2.5 L0,2.5 Z" id="Shape"></path>
                </g>
                <g transform="translate(2.500000, 2.500000)" fill="#FFFFFF">
                    <polygon id="Shape" points="0 0 35 0 35 35 0 35"></polygon>
                </g>
                <g transform="translate(6.770833, 28.666667)" fill="#000000">
                    <polygon id="Shape" points="2.54358927 1.01826985 2.54358927 6.55141195 1.52537028 6.55141195 1.52537028 1.01826985 0.0556437188 1.01826985 0.0556437188 0.115356448 4.03254191 0.115356448 4.03254191 1.01826985"></polygon>
                    <polygon id="Shape" points="5.3684489 6.55141195 5.3684489 0.115356448 9.16285197 0.115356448 9.16285197 1.13352457 6.38666789 1.13352457 6.38666789 2.70894369 8.2598877 2.70894369 8.2598877 3.7463379 6.38666789 3.7463379 6.38666789 5.51391602 9.36462402 5.51391602 9.36462402 6.55141195"></polygon>
                    <polygon id="Shape" points="13.6013794 6.55141195 12.5639852 4.40917969 11.5264893 6.55141195 10.3737386 6.55141195 11.977946 3.22774251 10.4889933 0.115356448 11.641744 0.115356448 12.5639852 2.03653972 13.4861247 0.115356448 14.6388753 0.115356448 13.1306966 3.22774251 14.75413 6.55141195"></polygon>
                    <path d="M20.0273641,6.55141195 L19.3933105,4.7454834 L17.3856608,4.7454834 L16.751709,6.55141195 L15.6661987,6.55141195 L17.8852336,0.115356448 L18.8938395,0.115356448 L21.1128744,6.55141195 L20.0273641,6.55141195 L20.0273641,6.55141195 Z M18.4039307,1.90205892 L17.7410889,3.70798747 L19.0283203,3.70798747 L18.4039307,1.90205892 L18.4039307,1.90205892 Z" id="Shape"></path>
                    <path d="M26.4026896,4.69746907 C26.4026896,4.99206543 26.3482666,5.26407877 26.2394206,5.51391601 C26.1305745,5.76375325 25.9737142,5.98144531 25.7687378,6.16719564 C25.5893962,6.3273112 25.3796387,6.45060221 25.1394653,6.53696696 C24.8993937,6.62343343 24.6416219,6.66666667 24.3662516,6.66666667 C23.8091024,6.66666667 23.3335368,6.51774089 22.9396566,6.21999105 C22.5458781,5.92224122 22.240092,5.52673341 22.0222982,5.03356934 L22.9925537,4.67814128 C23.1270345,4.98555502 23.3127848,5.22094727 23.549703,5.38431804 C23.7866211,5.54758708 24.0588379,5.62927247 24.3662516,5.62927247 C24.6671549,5.62927247 24.9089559,5.53792319 25.091451,5.35542806 C25.2740479,5.17293295 25.3651937,4.94710286 25.3651937,4.67814128 C25.3651937,4.46685792 25.3092448,4.2940267 25.1971436,4.15944418 C25.0850423,4.0250651 24.9393717,3.91133627 24.7600301,3.8184611 C24.5806885,3.72558594 24.3838501,3.64400228 24.1693115,3.57350668 C23.9547729,3.50301107 23.741862,3.4262085 23.5304769,3.34289551 C23.4344482,3.30454508 23.3159383,3.25012207 23.1750488,3.17962647 C23.0341593,3.10913086 22.8980509,3.01147461 22.7667236,2.88665772 C22.635498,2.76173909 22.5233968,2.60640463 22.4306234,2.42075602 C22.3377482,2.23510742 22.2912598,2.00764974 22.2912598,1.73868815 C22.2912598,1.42496744 22.3425293,1.15753173 22.4449666,0.936584469 C22.547404,0.715738927 22.6867676,0.536295573 22.862854,0.398661292 C23.0389404,0.26102701 23.2503255,0.160115552 23.4969076,0.0960286458 C23.7433879,0.0320434583 24.0108236,0 24.2989095,0 C24.7536214,0 25.1330566,0.118509927 25.4373169,0.355428063 C25.7414754,0.592447917 25.9737142,0.912577313 26.1338298,1.3160197 L25.2307129,1.58508301 C25.1795451,1.48254395 25.1123047,1.38966878 25.0290934,1.30645752 C24.9585978,1.23596192 24.8609416,1.17197673 24.7360229,1.1142985 C24.611206,1.056722 24.4590251,1.02467854 24.2797851,1.01826985 C24.1644287,1.01186117 24.0443929,1.01989746 23.9194743,1.04227702 C23.7946574,1.06465658 23.6841837,1.10473633 23.5881551,1.16231283 C23.4920247,1.21999105 23.4152221,1.29842123 23.3575439,1.39770508 C23.2999674,1.49698894 23.2774861,1.62027996 23.2903035,1.76757814 C23.3031209,1.96604411 23.3895874,2.11812339 23.5497029,2.22381593 C23.7098185,2.32950847 23.905131,2.42075603 24.1356404,2.4975586 C24.3662516,2.57446291 24.6143595,2.65289307 24.8801676,2.73295085 C25.145874,2.81300864 25.3908284,2.92826335 25.6150309,3.07881674 C25.8392334,3.2292684 26.0264079,3.43098959 26.1769613,3.68387859 C26.3275146,3.93697103 26.4026896,4.2746989 26.4026896,4.69746907 L26.4026896,4.69746907 Z" id="Shape"></path>
                </g>
            </g>
        </g>
    </g>
</svg>