<?xml version="1.0" encoding="UTF-8" standalone="no"?>
<svg width="40px" height="32px" viewBox="0 0 40 32" version="1.1" xmlns="http://www.w3.org/2000/svg" xmlns:xlink="http://www.w3.org/1999/xlink">
    <!-- Generator: Sketch 3.8.3 (29802) - http://www.bohemiancoding.com/sketch -->
    <title>US-TN-2</title>
    <desc>Created with Sketch.</desc>
    <defs></defs>
    <g id="Icons-{2}" stroke="none" stroke-width="1" fill="none" fill-rule="evenodd">
        <g id="US-TN-2" transform="translate(0.000000, -4.000000)">
            <g transform="translate(0.000000, 4.000000)">
                <rect id="rect3933" stroke="#000000" stroke-width="0.75" x="0.884366282" y="0.906051487" width="38.0331627" height="30.0722689" rx="2"></rect>
                <polyline id="polyline37" stroke="#000000" stroke-width="0.5" points="5.19322777 24.6536891 5.13815663 24.6175384 4.99135361 24.707797 4.84419038 24.834285 4.84419038 25.2863655 4.73380796 25.3406309 4.47658249 25.3587457 4.29295865 25.4130111 4.31116895 25.4852337 4.47658249 25.6118005 4.5319338 25.7022166 4.31116895 25.6841019 4.09076431 25.7022166 4.03569316 25.8649341 4.20114673 26.0275728 4.36652025 26.208405 4.29295865 26.3530078 3.98038188 26.6062201 3.87031963 26.7146722 3.87031963 26.841239 4.0539835 27.0942151 4.09076431 27.1847887 4.0539835 27.2388966 3.81496834 27.2208606 3.64991499 27.2569326 3.75993722 27.4196501 3.85174913 27.5823675 3.64991499 27.7090131 3.15371438 27.8536159 2.93294953 27.9259172 2.80435681 28.0343693 2.80435681 28.2694669 2.96977035 28.359883 3.13514388 28.4141485 3.09836308 28.4682564 2.85966809 28.5226005 2.71250487 28.5768659 2.91473923 28.8299208 2.84113761 28.8480355 2.63894326 28.7755766 2.47352972 28.7936913 2.4002883 29.0649396 2.45531942 29.1734705 2.45531942 29.4084893 2.17952345 29.4987479 1.92229799 29.7339243 1.79370526 29.9869004 1.92229799 30.0954312 2.10624201 30.2220768 2.16127313 30.4027515 2.16127313 30.5835837 2.0326804 30.7100717 1.75692446 30.8186813 1.84873638 30.7825306 2.0326804 30.7100717 2.16127313 30.5835837 2.16127313 30.4027515 2.10624201 30.2220768 1.92229799 30.0954312 1.79370526 29.9869004 1.92229799 29.7339243 2.17952345 29.4987479 2.45531942 29.4084893 2.45531942 29.1734705 2.4002883 29.0649396 2.47352972 28.7936913 2.56566182 28.7575406 2.76753599 28.8118061 2.91473923 28.8299208 2.71250487 28.5768659 2.78610649 28.5407153 3.02508163 28.4863711 3.11689356 28.4501416 3.13514388 28.4141485 2.96977035 28.359883 2.80435681 28.2694669 2.80435681 28.0343693 3.00655115 27.8898453 3.48446142 27.7631998 3.70494611 27.6908984 3.85174913 27.5823675 3.75993722 27.4196501 3.64991499 27.2569326 3.74172692 27.2208606 3.98038188 27.2388966 4.07251398 27.2388966 4.09076431 27.1847887 4.0539835 27.0942151 3.87031963 26.841239 3.90710044 26.6784428 4.18257623 26.4435027 4.32973945 26.3170146 4.36652025 26.208405 4.20114673 26.0275728 4.03569316 25.8649341 4.09076431 25.7022166 4.31116895 25.6841019 4.5319338 25.7022166 4.51336329 25.6480299 4.36652025 25.5213844 4.29295865 25.4130111 4.40330105 25.3767816 4.66052651 25.3587457 4.84419038 25.2863655 4.84419038 24.834285 5.04634471 24.6536891 5.13815663 24.6175384 5.19322777 24.6536891 10.9636911 24.6536891 10.9636911 24.2196445 38.1606717 24.2196445 38.1421012 24.707797 38.08703 25.1779134 37.9584773 25.2863655 37.4072856 25.2863655 37.2786529 25.3225162 37.0946288 25.575571 36.9292553 26.099953 36.8192731 26.3530078 36.6720698 26.5157253 36.3412427 26.551876 36.0290662 26.5699907 35.9186037 26.7327082 35.8267918 27.0581432 35.6981591 27.3112767 35.3856623 27.3655422 35.0734057 27.4377648 34.9630233 27.7451638 34.8712114 28.0705988 34.669017 28.1248642 34.4668227 28.1971656 34.4118316 28.3960337 34.4668227 28.7394259 34.4668227 28.9021434 34.4118316 29.0468249 34.1545661 29.2457719 33.8788102 29.44464 33.4747417 29.8966418 33.1253441 30.2942994 32.9232298 30.6016984 32.8314178 30.8005666 32.8131675 31.017392"></polyline>
                <path d="M10.8157498,25.7439592 L10.8606519,26.5430546 L10.7417026,26.5430546 C10.7187397,26.4027052 10.6873876,26.3025227 10.6476851,26.2424288 C10.5829716,26.1456336 10.4967924,26.074277 10.3892265,26.0282816 C10.2816597,25.9823651 10.1401419,25.9594461 9.96463186,25.9594461 L9.3662623,25.9594461 L9.3662623,28.5552068 C9.3662623,28.7647079 9.39434501,28.8952914 9.45051122,28.9472726 C9.52967986,29.017684 9.65150414,29.0528103 9.81590581,29.0528103 L9.96274188,29.0528103 L9.96274188,29.1451956 L8.15404229,29.1451956 L8.15404229,29.0528103 L8.3063526,29.0528103 C8.48828205,29.0528103 8.61731463,29.0093352 8.69348898,28.9222268 C8.74004477,28.8685132 8.76332307,28.7461995 8.76332307,28.5552068 L8.76332307,25.9594461 L8.2529436,25.9594461 C8.05458963,25.9594461 7.91366228,25.9711024 7.830122,25.9944941 C7.7215709,26.0262339 7.62865654,26.0871149 7.55141822,26.1772952 C7.47417997,26.2674747 7.4282545,26.3893947 7.41364179,26.5430546 L7.29457432,26.5430546 L7.33947575,25.7439592 L10.8157498,25.7439592 L10.8157498,25.7439592 Z" id="path43" fill="#000000"></path>
                <path d="M11.3020241,27.9968006 C11.3002898,28.268994 11.3832013,28.4824332 11.550794,28.6372746 C11.7183473,28.7920377 11.9152045,28.8694584 12.1413657,28.8694584 C12.2921399,28.8694584 12.42326,28.8365363 12.534647,28.770851 C12.6460728,28.7051657 12.7394997,28.5912791 12.8149263,28.4290341 L12.8921251,28.4692018 C12.856952,28.6546014 12.7548608,28.822596 12.5858894,28.9730274 C12.4168794,29.123458 12.205212,29.1986737 11.9508891,29.1986737 C11.6748245,29.1986737 11.4384616,29.1126679 11.2418803,28.9408142 C11.0452594,28.7688033 10.946949,28.5377227 10.946949,28.2473355 C10.946949,27.9328484 11.0477406,27.6875905 11.2493636,27.5116414 C11.451026,27.3356923 11.704089,27.2477178 12.0085912,27.2477178 C12.2663021,27.2477178 12.4779686,27.3156871 12.643631,27.4515475 C12.8092935,27.587408 12.8921251,27.7691856 12.8921251,27.9968006 L11.3020241,27.9968006 L11.3020241,27.9968006 Z M11.3020241,27.8815753 L12.3672115,27.8815753 C12.3588619,27.7638296 12.3412947,27.6808175 12.314472,27.6326953 C12.2726036,27.5577941 12.2102141,27.4988826 12.1273042,27.4560373 C12.0443548,27.4131921 11.9577029,27.391769 11.8672702,27.391769 C11.7282723,27.391769 11.6039273,27.4349296 11.4942342,27.52125 C11.3845016,27.6075704 11.3204576,27.7276001 11.3020241,27.8815753 L11.3020241,27.8815753 Z" id="path49" fill="#000000"></path>
                <path d="M14.1822525,27.633876 C14.451267,27.3764109 14.7077961,27.2477178 14.9517996,27.2477178 C15.0771296,27.2477178 15.1849327,27.2728419 15.2751685,27.3232481 C15.3654044,27.373497 15.4372858,27.4564309 15.4907739,27.5718135 C15.5275225,27.6523061 15.5459157,27.7758013 15.5459157,27.942299 L15.5459157,28.7294235 C15.5459157,28.8453578 15.5575742,28.92396 15.580892,28.9652302 C15.5992465,28.9984668 15.6288264,29.024457 15.6696308,29.0431234 C15.7104359,29.0617891 15.7858625,29.0710832 15.895871,29.0710832 L15.895871,29.1451956 L14.7586054,29.1451956 L14.7586054,29.0710832 L14.8061848,29.0710832 C14.9129634,29.0710832 14.9876415,29.0581663 15.0302197,29.0321752 C15.0727575,29.006185 15.1023769,28.9679077 15.1190374,28.9172652 C15.125773,28.8973391 15.129081,28.8346467 15.129081,28.7294235 L15.129081,27.9715975 C15.129081,27.8031311 15.102022,27.6808175 15.0479047,27.6047356 C14.993747,27.5286537 14.9025657,27.4905337 14.77436,27.4905337 C14.5761243,27.4905337 14.3787548,27.5779566 14.1822525,27.7528822 L14.1822525,28.7294235 C14.1822525,28.8533913 14.1915088,28.9299458 14.2099811,28.9592443 C14.2335345,28.9978361 14.2658714,29.0261902 14.3070307,29.0441469 C14.3481908,29.0621044 14.4318098,29.0710832 14.5578883,29.0710832 L14.5578883,29.1451956 L13.4155021,29.1451956 L13.4155021,29.0710832 L13.4658386,29.0710832 C13.5833312,29.0710832 13.6626176,29.0474552 13.7037374,29.0001991 C13.744858,28.9528649 13.7654179,28.8626846 13.7654179,28.7294235 L13.7654179,28.0462624 C13.7654179,27.8253413 13.7591583,27.6907407 13.7465907,27.6425402 C13.7340658,27.594339 13.714845,27.561575 13.6889676,27.5440901 C13.6630508,27.5267633 13.6284294,27.5180208 13.5849848,27.5180208 C13.5381927,27.5180208 13.4822241,27.528023 13.417117,27.5481855 L13.3794626,27.4741521 L14.0740162,27.2477178 L14.1822525,27.2477178 L14.1822525,27.633876 L14.1822525,27.633876 Z" id="path55" fill="#000000"></path>
                <path d="M17.0639773,27.633876 C17.3330313,27.3764109 17.5895209,27.2477178 17.8335244,27.2477178 C17.9588543,27.2477178 18.0666566,27.2728419 18.1568933,27.3232481 C18.2471292,27.373497 18.3190105,27.4564309 18.3724987,27.5718135 C18.4092859,27.6523061 18.42768,27.7758013 18.42768,27.942299 L18.42768,28.7294235 C18.42768,28.8453578 18.439299,28.92396 18.4626555,28.9652302 C18.4809713,28.9984668 18.5105503,29.024457 18.5513555,29.0431234 C18.5921607,29.0617891 18.6675873,29.0710832 18.7775958,29.0710832 L18.7775958,29.1451956 L17.6403301,29.1451956 L17.6403301,29.0710832 L17.6879096,29.0710832 C17.7946882,29.0710832 17.8693662,29.0581663 17.9119444,29.0321752 C17.9544823,29.006185 17.9841017,28.9679077 18.0008017,28.9172652 C18.0074969,28.8973391 18.0108453,28.8346467 18.0108453,28.7294235 L18.0108453,27.9715975 C18.0108453,27.8031311 17.9837467,27.6808175 17.9296286,27.6047356 C17.8754718,27.5286537 17.7842905,27.4905337 17.6560848,27.4905337 C17.457849,27.4905337 17.2604796,27.5779566 17.0639773,27.7528822 L17.0639773,28.7294235 C17.0639773,28.8533913 17.0732336,28.9299458 17.0917059,28.9592443 C17.1152592,28.9978361 17.1475962,29.0261902 17.1887555,29.0441469 C17.2299156,29.0621044 17.3135741,29.0710832 17.4396131,29.0710832 L17.4396131,29.1451956 L16.2972268,29.1451956 L16.2972268,29.0710832 L16.3475634,29.0710832 C16.4650552,29.0710832 16.5443811,29.0474552 16.5855017,29.0001991 C16.6265827,28.9528649 16.6471426,28.8626846 16.6471426,28.7294235 L16.6471426,28.0462624 C16.6471426,27.8253413 16.640883,27.6907407 16.6283154,27.6425402 C16.6157906,27.594339 16.5965697,27.561575 16.5706916,27.5440901 C16.5448143,27.5267633 16.5101541,27.5180208 16.4667096,27.5180208 C16.4199175,27.5180208 16.3639489,27.528023 16.2988418,27.5481855 L16.2611873,27.4741521 L16.955741,27.2477178 L17.0639773,27.2477178 L17.0639773,27.633876 L17.0639773,27.633876 Z" id="path61" fill="#000000"></path>
                <path d="M19.657545,27.9968006 C19.6558107,28.268994 19.7387222,28.4824332 19.9062754,28.6372746 C20.0739069,28.7920377 20.2706859,28.8694584 20.4969253,28.8694584 C20.6476995,28.8694584 20.7787801,28.8365363 20.8901671,28.770851 C21.0015541,28.7051657 21.0949811,28.5912791 21.1704464,28.4290341 L21.247646,28.4692018 C21.2125124,28.6546014 21.1104204,28.822596 20.9413708,28.9730274 C20.7724785,29.123458 20.560733,29.1986737 20.3064495,29.1986737 C20.0303446,29.1986737 19.794022,29.1126679 19.5974012,28.9408142 C19.4007803,28.7688033 19.3024699,28.5377227 19.3024699,28.2473355 C19.3024699,27.9328484 19.4032615,27.6875905 19.6048845,27.5116414 C19.8065469,27.3356923 20.0595703,27.2477178 20.3641121,27.2477178 C20.6218617,27.2477178 20.8334499,27.3156871 20.9991915,27.4515475 C21.1647749,27.587408 21.2476452,27.7691856 21.2476452,27.9968006 L19.657545,27.9968006 L19.657545,27.9968006 Z M19.657545,27.8815753 L20.7226929,27.8815753 C20.7143433,27.7638296 20.6968551,27.6808175 20.6699929,27.6326953 C20.628164,27.5577941 20.5657745,27.4988826 20.4828251,27.4560373 C20.3998757,27.4131921 20.3132238,27.391769 20.2227911,27.391769 C20.0838327,27.391769 19.9594482,27.4349296 19.8497156,27.52125 C19.7400217,27.6075704 19.6759785,27.7276001 19.657545,27.8815753 L19.657545,27.8815753 Z" id="path67" fill="#000000"></path>
                <path d="M23.3508433,27.2477178 L23.3508433,27.8733054 L23.2685239,27.8733054 C23.2050317,27.6771939 23.1237367,27.5437756 23.0244809,27.4731278 C22.9250677,27.4024801 22.7987133,27.3670385 22.645182,27.3670385 C22.5283598,27.3670385 22.4341455,27.3918481 22.3623819,27.4413881 C22.2906183,27.4908491 22.2546974,27.5457442 22.2546974,27.6059163 C22.2546974,27.6808957 22.281166,27.745085 22.3340234,27.7986414 C22.3852263,27.8534583 22.4903118,27.9117408 22.6493573,27.9733307 L23.0159731,28.1158068 C23.3558848,28.2483589 23.5258008,28.4232055 23.5258008,28.6401102 C23.5258008,28.8075531 23.4467112,28.9425474 23.2884538,29.0449348 C23.1301963,29.1474796 22.9531109,29.1986737 22.7571991,29.1986737 C22.6165871,29.1986737 22.4557299,29.1791411 22.2748637,29.1400767 C22.2197219,29.1270026 22.1745051,29.1205441 22.1393715,29.1205441 C22.1007725,29.1205441 22.0706805,29.1369257 22.0489388,29.1698478 L21.9665404,29.1698478 L21.9665404,28.5113381 L22.0489388,28.5113381 C22.0958883,28.6993371 22.1855337,28.840947 22.3180323,28.9363252 C22.4503729,29.0317034 22.5987844,29.079353 22.7629497,29.079353 C22.8786692,29.079353 22.9729626,29.0522595 23.0459071,28.9980724 C23.1188524,28.9439644 23.155246,28.8786726 23.155246,28.8023552 C23.155246,28.7101272 23.1144409,28.6325493 23.0328305,28.5696988 C22.9512209,28.5068483 22.7888665,28.427459 22.545848,28.3316082 C22.3027496,28.2357574 22.1437831,28.1488862 22.0687897,28.0709929 C21.9937971,27.9945956 21.9562999,27.8978786 21.9562999,27.7811573 C21.9562999,27.6295443 22.0210529,27.5026627 22.1507154,27.4007478 C22.2803779,27.2986748 22.4480094,27.2477178 22.6537688,27.2477178 C22.7441225,27.2477178 22.8536978,27.2634695 22.9824939,27.295052 C23.0678068,27.3156089 23.1246821,27.3259264 23.1531197,27.3259264 C23.1798239,27.3259264 23.2007782,27.3211197 23.2158238,27.3115127 C23.2308695,27.3019041 23.2484367,27.2806391 23.2685239,27.2477178 L23.3508433,27.2477178 L23.3508433,27.2477178 Z" id="path73" fill="#000000"></path>
                <path d="M25.6644471,27.2477178 L25.6644471,27.8733054 L25.5821276,27.8733054 C25.5187145,27.6771939 25.4373405,27.5437756 25.3380846,27.4731278 C25.2387497,27.4024801 25.1123171,27.3670385 24.9588649,27.3670385 C24.8419636,27.3670385 24.7477493,27.3918481 24.6759857,27.4413881 C24.6042221,27.4908491 24.5683802,27.5457442 24.5683802,27.6059163 C24.5683802,27.6808957 24.5947698,27.745085 24.6477062,27.7986414 C24.69883,27.8534583 24.8039946,27.9117408 24.962961,27.9733307 L25.3296559,28.1158068 C25.6694886,28.2483589 25.8394045,28.4232055 25.8394045,28.6401102 C25.8394045,28.8075531 25.760315,28.9425474 25.6020575,29.0449348 C25.4438001,29.1474796 25.2667147,29.1986737 25.0708819,29.1986737 C24.9301909,29.1986737 24.7694119,29.1791411 24.5885465,29.1400767 C24.5333257,29.1270026 24.4881089,29.1205441 24.4529753,29.1205441 C24.4144545,29.1205441 24.3842842,29.1369257 24.3625426,29.1698478 L24.2801441,29.1698478 L24.2801441,28.5113381 L24.3625426,28.5113381 C24.409492,28.6993371 24.4991374,28.840947 24.6316361,28.9363252 C24.7640557,29.0317034 24.9123881,29.079353 25.0766325,29.079353 C25.192273,29.079353 25.2865663,29.0522595 25.3595109,28.9980724 C25.4324562,28.9439644 25.4689289,28.8786726 25.4689289,28.8023552 C25.4689289,28.7101272 25.4280446,28.6325493 25.3464343,28.5696988 C25.2648247,28.5068483 25.1024703,28.427459 24.8594517,28.3316082 C24.6163533,28.2357574 24.4573869,28.1488862 24.3823934,28.0709929 C24.3074008,27.9945956 24.2699037,27.8978786 24.2699037,27.7811573 C24.2699037,27.6295443 24.334735,27.5026627 24.4643192,27.4007478 C24.5939817,27.2986748 24.7616922,27.2477178 24.9673726,27.2477178 C25.0578053,27.2477178 25.1673016,27.2634695 25.2961768,27.295052 C25.3814106,27.3156089 25.4382859,27.3259264 25.4668017,27.3259264 C25.4935067,27.3259264 25.514382,27.3211197 25.5295067,27.3115127 C25.5444732,27.3019041 25.5621187,27.2806391 25.5821276,27.2477178 L25.6644471,27.2477178 L25.6644471,27.2477178 Z" id="path79" fill="#000000"></path>
                <path d="M26.8768634,27.9968006 C26.8751291,28.268994 26.9580801,28.4824332 27.1256334,28.6372746 C27.2931858,28.7920377 27.4900431,28.8694584 27.7162043,28.8694584 C27.8669792,28.8694584 27.998138,28.8365363 28.1095251,28.770851 C28.2209121,28.7051657 28.3143383,28.5912791 28.3898044,28.4290341 L28.4670032,28.4692018 C28.4317913,28.6546014 28.3296993,28.822596 28.1607288,28.9730274 C27.9917574,29.123458 27.7800909,29.1986737 27.5257284,29.1986737 C27.2496243,29.1986737 27.013301,29.1126679 26.8166801,28.9408142 C26.6200592,28.7688033 26.5217488,28.5377227 26.5217488,28.2473355 C26.5217488,27.9328484 26.62258,27.6875905 26.8242424,27.5116414 C27.0259049,27.3356923 27.2789283,27.2477178 27.58347,27.2477178 C27.8411406,27.2477178 28.0528079,27.3156871 28.2184704,27.4515475 C28.3841328,27.587408 28.4670032,27.7691856 28.4670032,27.9968006 L26.8768634,27.9968006 L26.8768634,27.9968006 Z M26.8768634,27.8815753 L27.9420509,27.8815753 C27.9337004,27.7638296 27.916134,27.6808175 27.8892718,27.6326953 C27.8474429,27.5577941 27.7850534,27.4988826 27.702104,27.4560373 C27.6192337,27.4131921 27.5325817,27.391769 27.4421482,27.391769 C27.3031117,27.391769 27.1787271,27.4349296 27.0690727,27.52125 C26.9594192,27.6075704 26.895297,27.7276001 26.8768634,27.8815753 L26.8768634,27.8815753 Z" id="path85" fill="#000000"></path>
                <path d="M29.4688557,27.9968006 C29.4672021,28.268994 29.5501515,28.4824332 29.7177039,28.6372746 C29.8852572,28.7920377 30.0821144,28.8694584 30.3082756,28.8694584 C30.4590497,28.8694584 30.5901303,28.8365363 30.7015964,28.770851 C30.8129835,28.7051657 30.9064096,28.5912791 30.9817967,28.4290341 L31.0589955,28.4692018 C31.0238627,28.6546014 30.9217707,28.822596 30.7528001,28.9730274 C30.5838288,29.123458 30.3721623,29.1986737 30.1177998,29.1986737 C29.8417739,29.1986737 29.6053723,29.1126679 29.4087514,28.9408142 C29.2122088,28.7688033 29.1138984,28.5377227 29.1138984,28.2473355 C29.1138984,27.9328484 29.2146513,27.6875905 29.4162347,27.5116414 C29.6178972,27.3356923 29.8709997,27.2477178 30.1755414,27.2477178 C30.4332119,27.2477178 30.6448793,27.3156871 30.8105417,27.4515475 C30.9762042,27.587408 31.0589955,27.7691856 31.0589955,27.9968006 L29.4688557,27.9968006 L29.4688557,27.9968006 Z M29.4688557,27.8815753 L30.5341222,27.8815753 C30.5257718,27.7638296 30.5082054,27.6808175 30.4814222,27.6326953 C30.4395143,27.5577941 30.3771248,27.4988826 30.2942544,27.4560373 C30.211226,27.4131921 30.124574,27.391769 30.0341413,27.391769 C29.895183,27.391769 29.7708767,27.4349296 29.6611441,27.52125 C29.5514115,27.6075704 29.4873683,27.7276001 29.4688557,27.8815753 L29.4688557,27.8815753 Z" id="path91" fill="#000000"></path>
            </g>
        </g>
    </g>
</svg>