<?xml version="1.0" encoding="UTF-8" standalone="no"?>
<svg width="40px" height="40px" viewBox="0 0 40 40" version="1.1" xmlns="http://www.w3.org/2000/svg" xmlns:xlink="http://www.w3.org/1999/xlink">
    <!-- Generator: Sketch 3.8.3 (29802) - http://www.bohemiancoding.com/sketch -->
    <title>US-TN-2</title>
    <desc>Created with Sketch.</desc>
    <defs></defs>
    <g id="Icons-{2}" stroke="none" stroke-width="1" fill="none" fill-rule="evenodd">
        <g id="US-TN-2">
            <g>
                <rect id="rect3933" fill="#000000" x="0" y="3.55271368e-15" width="40" height="40" rx="2"></rect>
                <rect id="rect3933" fill="#FFFFFF" x="1" y="1" width="38" height="38" rx="1"></rect>
                <g id="Group-2" transform="translate(1.000000, 31.900000)">
                    <polyline id="polyline37" stroke="#000000" stroke-width="0.5" points="3.65479969 0.722029276 3.59772596 0.682099203 3.44558465 0.781793913 3.29307003 0.921505701 3.29307003 1.42084919 3.1786737 1.48078781 2.91209458 1.50079634 2.72179351 1.56073496 2.740666 1.64050813 2.91209458 1.78030692 2.96945866 1.88017561 2.740666 1.86016707 2.51224664 1.88017561 2.45517291 2.05990447 2.62664298 2.23954634 2.79803008 2.43928374 2.72179351 2.59900405 2.39785031 2.87868861 2.2837858 2.99847885 2.2837858 3.13827763 2.47412836 3.4177012 2.51224664 3.51774389 2.47412836 3.57750852 2.22642173 3.55758698 2.05536645 3.59743007 2.16938948 3.77715893 2.26454001 3.95688779 2.05536645 4.09677356 1.54112218 4.25649389 1.31232952 4.33635404 1.17906069 4.45614429 1.17906069 4.71582031 1.35048927 4.815689 1.52187638 4.87562762 1.4837581 4.93539225 1.23638329 4.99541786 1.08386868 5.05535648 1.29345702 5.33486704 1.21717898 5.35487558 1.00763211 5.27484143 0.836203525 5.29484997 0.760298779 5.59445607 0.817331031 5.7143333 0.817331031 5.97392232 0.531506125 6.07361704 0.264927004 6.33338005 0.131658179 6.61280361 0.264927004 6.73268086 0.4555599 6.87256663 0.512592152 7.07213003 0.512592152 7.27186743 0.379323327 7.41157922 0.0935398923 7.53154345 0.188690431 7.49161337 0.379323327 7.41157922 0.512592152 7.27186743 0.512592152 7.07213003 0.4555599 6.87256663 0.264927004 6.73268086 0.131658179 6.61280361 0.264927004 6.33338005 0.531506125 6.07361704 0.817331031 5.97392232 0.817331031 5.7143333 0.760298779 5.59445607 0.836203525 5.29484997 0.931685891 5.25491989 1.14090093 5.3148585 1.29345702 5.33486704 1.08386868 5.05535648 1.16014673 5.0154264 1.40781187 4.95540079 1.50296241 4.91538371 1.52187638 4.87562762 1.35048927 4.815689 1.17906069 4.71582031 1.17906069 4.45614429 1.38860756 4.29651096 1.88389638 4.15662518 2.1123987 4.07676502 2.26454001 3.95688779 2.16938948 3.77715893 2.05536645 3.59743007 2.15051699 3.55758698 2.39785031 3.57750852 2.49333267 3.57750852 2.51224664 3.51774389 2.47412836 3.4177012 2.2837858 3.13827763 2.32190409 2.95846178 2.60739718 2.69895975 2.75991179 2.55924797 2.79803008 2.43928374 2.62664298 2.23954634 2.45517291 2.05990447 2.51224664 1.88017561 2.740666 1.86016707 2.96945866 1.88017561 2.95021287 1.82032399 2.79803008 1.68043821 2.72179351 1.56073496 2.83614836 1.52071789 3.10272748 1.50079634 3.29307003 1.42084919 3.29307003 0.921505701 3.50257542 0.722029276 3.59772596 0.682099203 3.65479969 0.722029276 9.63509806 0.722029276 9.63509806 0.242607329 37.8210597 0.242607329 37.8018139 0.781793913 37.7447402 1.30105894 37.6115129 1.42084919 37.0402778 1.42084919 36.9069675 1.46077927 36.7162517 1.74028984 36.5448645 2.31949349 36.430883 2.59900405 36.2783269 2.77873292 35.9354697 2.818663 35.6119413 2.83867153 35.497462 3.0184004 35.4023115 3.37785812 35.2690012 3.65745568 34.945141 3.71739429 34.6215296 3.79716747 34.5071333 4.13670364 34.4119827 4.49616136 34.2024358 4.55609998 33.992889 4.63596014 33.9358982 4.85561908 33.992889 5.23491135 33.992889 5.41464021 33.9358982 5.57444753 33.6692776 5.79419346 33.3834942 6.0138524 32.9647323 6.5131089 32.6026293 6.9523398 32.3931654 7.29187597 32.2980149 7.51153491 32.2791009 7.75102841"></polyline>
                    <g id="Group" transform="translate(5.527273, 1.840909)" fill="#000000">
                        <path d="M3.95450433,0.0853730925 L4.00103929,0.968010286 L3.87776448,0.968010286 C3.85396657,0.812988009 3.82147444,0.702331876 3.78032822,0.635955479 C3.71326152,0.529040768 3.6239485,0.450224141 3.51247107,0.399420077 C3.40099281,0.348703314 3.25432888,0.323388137 3.07243665,0.323388137 L2.4523082,0.323388137 L2.4523082,3.19052391 C2.4523082,3.42192733 2.4814121,3.56616273 2.53962072,3.62357842 C2.62166822,3.70135101 2.74792247,3.74014956 2.91830239,3.74014956 L3.07047795,3.74014956 L3.07047795,3.8421933 L1.19600746,3.8421933 L1.19600746,3.74014956 L1.35385633,3.74014956 C1.54240139,3.74014956 1.67612607,3.6921293 1.7550704,3.59591417 C1.80331913,3.536585 1.82744391,3.40148402 1.82744391,3.19052391 L1.82744391,0.323388137 L1.29850518,0.323388137 C1.09293835,0.323388137 0.946886358,0.336263084 0.860308252,0.362100279 C0.747809841,0.397158298 0.651516782,0.464404132 0.571469789,0.564012378 C0.491422879,0.663619734 0.443827388,0.798286001 0.428683315,0.968010286 L0.305286116,0.968010286 L0.351820328,0.0853730925 L3.95450433,0.0853730925 L3.95450433,0.0853730925 Z" id="path43"></path>
                        <path d="M4.45846131,2.57373884 C4.45666395,2.87438886 4.5425904,3.11014212 4.71627747,3.28117145 C4.88992356,3.45211437 5.09393923,3.53762904 5.32832447,3.53762904 C5.4845813,3.53762904 5.62046942,3.50126508 5.73590689,3.42871267 C5.85138449,3.35616025 5.94820882,3.23036739 6.02637819,3.05116038 L6.10638422,3.09552742 C6.06993204,3.30030972 5.96412843,3.48586735 5.78901268,3.6520257 C5.61385679,3.81818317 5.39449249,3.90126234 5.13092143,3.90126234 C4.84481813,3.90126234 4.59986022,3.80626495 4.39613046,3.61644478 C4.19235973,3.42645089 4.09047437,3.17121194 4.09047437,2.85046603 C4.09047437,2.50310078 4.19493121,2.2322022 4.40388587,2.03785846 C4.61288148,1.84351473 4.87514674,1.74634286 5.19072176,1.74634286 C5.45780395,1.74634286 5.67716742,1.82141806 5.84885397,1.97148206 C6.02054053,2.12154606 6.10638422,2.32232772 6.10638422,2.57373884 L4.45846131,2.57373884 L4.45846131,2.57373884 Z M4.45846131,2.44646723 L5.56238285,2.44646723 C5.55372959,2.31641182 5.53552356,2.22472113 5.50772548,2.17156799 C5.46433464,2.08883623 5.39967641,2.02376577 5.31375163,1.97644123 C5.22778588,1.92911669 5.13798297,1.90545397 5.04426181,1.90545397 C4.90020949,1.90545397 4.7713428,1.95312682 4.65766088,2.04847163 C4.54393801,2.14381644 4.47756518,2.27639463 4.45846131,2.44646723 L4.45846131,2.44646723 Z" id="path49"></path>
                        <path d="M7.44342532,2.17287215 C7.72222213,1.88849019 7.9880796,1.74634286 8.24095594,1.74634286 C8.37084337,1.74634286 8.48256658,1.77409352 8.57608376,1.82976945 C8.66960094,1.88527167 8.74409617,1.97687595 8.79952933,2.10432127 C8.83761418,2.19322905 8.85667626,2.32963507 8.85667626,2.51353935 L8.85667626,3.38295418 C8.85667626,3.51100882 8.86875871,3.59782853 8.89292446,3.6434133 C8.9119464,3.68012468 8.94260188,3.70883208 8.98489005,3.72944999 C9.02717906,3.75006701 9.10534844,3.76033276 9.21935722,3.76033276 L9.21935722,3.8421933 L8.04073647,3.8421933 L8.04073647,3.76033276 L8.09004606,3.76033276 C8.20070757,3.76033276 8.27810115,3.74606547 8.32222765,3.71735718 C8.36631235,3.68864978 8.39700879,3.64637081 8.41427517,3.59043387 C8.42125562,3.56842451 8.42468399,3.49917791 8.42468399,3.38295418 L8.42468399,2.54590087 C8.42468399,2.35982212 8.39664096,2.22472113 8.34055573,2.14068522 C8.2844287,2.05664931 8.18993175,2.01454405 8.05706404,2.01454405 C7.85161968,2.01454405 7.64707316,2.11110661 7.44342532,2.3043199 L7.44342532,3.38295418 C7.44342532,3.51988222 7.45301822,3.60444015 7.47216222,3.63680168 C7.49657207,3.67942806 7.53008494,3.71074644 7.57274094,3.73058043 C7.61539778,3.75041532 7.7020574,3.76033276 7.83272062,3.76033276 L7.83272062,3.8421933 L6.64879306,3.8421933 L6.64879306,3.76033276 L6.70096003,3.76033276 C6.82272506,3.76033276 6.90489461,3.73423455 6.94750966,3.68203815 C6.99012553,3.62975533 7.01143306,3.53014708 7.01143306,3.38295418 L7.01143306,2.62837162 C7.01143306,2.38435427 7.00494583,2.23568172 6.99192122,2.18244217 C6.97894092,2.12920173 6.95902113,2.09301237 6.93220282,2.07369951 C6.90534354,2.05456124 6.86946317,2.04490481 6.82443882,2.04490481 C6.77594515,2.04490481 6.71794135,2.05595269 6.65046669,2.07822306 L6.61144303,1.99644982 L7.3312532,1.74634286 L7.44342532,1.74634286 L7.44342532,2.17287215 L7.44342532,2.17287215 Z" id="path55"></path>
                        <path d="M10.4299401,2.17287215 C10.7087779,1.88849019 10.9745944,1.74634286 11.2274707,1.74634286 C11.3573581,1.74634286 11.4690805,1.77409352 11.5625985,1.82976945 C11.6561157,1.88527167 11.7306109,1.97687595 11.7860441,2.10432127 C11.8241691,2.19322905 11.843232,2.32963507 11.843232,2.51353935 L11.843232,3.38295418 C11.843232,3.51100882 11.8552735,3.59782853 11.8794793,3.6434133 C11.8984612,3.68012468 11.9291158,3.70883208 11.9714048,3.72944999 C12.0136938,3.75006701 12.0918632,3.76033276 12.205872,3.76033276 L12.205872,3.8421933 L11.0272512,3.8421933 L11.0272512,3.76033276 L11.0765608,3.76033276 C11.1872223,3.76033276 11.2646159,3.74606547 11.3087424,3.71735718 C11.3528271,3.68864978 11.3835235,3.64637081 11.4008309,3.59043387 C11.4077695,3.56842451 11.4112397,3.49917791 11.4112397,3.38295418 L11.4112397,2.54590087 C11.4112397,2.35982212 11.3831557,2.22472113 11.3270697,2.14068522 C11.2709435,2.05664931 11.1764465,2.01454405 11.0435788,2.01454405 C10.8381344,2.01454405 10.6335879,2.11110661 10.4299401,2.3043199 L10.4299401,3.38295418 C10.4299401,3.51988222 10.439533,3.60444015 10.458677,3.63680168 C10.4830868,3.67942806 10.5165997,3.71074644 10.5592557,3.73058043 C10.6019125,3.75041532 10.6886131,3.76033276 10.8192354,3.76033276 L10.8192354,3.8421933 L9.63530782,3.8421933 L9.63530782,3.76033276 L9.6874748,3.76033276 C9.80923899,3.76033276 9.8914495,3.73423455 9.93406538,3.68203815 C9.9766403,3.62975533 9.99794782,3.53014708 9.99794782,3.38295418 L9.99794782,2.62837162 C9.99794782,2.38435427 9.99146059,2.23568172 9.97843599,2.18244217 C9.96545569,2.12920173 9.9455359,2.09301237 9.91871674,2.07369951 C9.89189842,2.05456124 9.85597793,2.04490481 9.81095359,2.04490481 C9.76245992,2.04490481 9.70445611,2.05595269 9.63698145,2.07822306 L9.59795779,1.99644982 L10.317768,1.74634286 L10.4299401,1.74634286 L10.4299401,2.17287215 L10.4299401,2.17287215 Z" id="path61"></path>
                        <path d="M13.1178193,2.57373884 C13.116022,2.87438886 13.2019484,3.11014212 13.3755945,3.28117145 C13.5493217,3.45211437 13.7532563,3.53762904 13.9877226,3.53762904 C14.1439795,3.53762904 14.2798266,3.50126508 14.3952641,3.42871267 C14.5107016,3.35616025 14.6075259,3.23036739 14.6857354,3.05116038 L14.7657423,3.09552742 C14.729331,3.30030972 14.6235266,3.48586735 14.4483297,3.6520257 C14.2732959,3.81818317 14.0538505,3.90126234 13.7903204,3.90126234 C13.5041753,3.90126234 13.2592592,3.80626495 13.0554885,3.61644478 C12.8517178,3.42645089 12.7498324,3.17121194 12.7498324,2.85046603 C12.7498324,2.50310078 12.8542892,2.2322022 13.0632439,2.03785846 C13.2722395,1.84351473 13.5344638,1.74634286 13.8500798,1.74634286 C14.1172021,1.74634286 14.3364845,1.82141806 14.508253,1.97148206 C14.6798576,2.12154606 14.7657414,2.32232772 14.7657414,2.57373884 L13.1178193,2.57373884 L13.1178193,2.57373884 Z M13.1178193,2.44646723 L14.2216999,2.44646723 C14.2130467,2.31641182 14.1949226,2.22472113 14.1670835,2.17156799 C14.1237336,2.08883623 14.0590754,2.02376577 13.9731097,1.97644123 C13.8871439,1.92911669 13.797341,1.90545397 13.7036198,1.90545397 C13.5596085,1.90545397 13.4307008,1.95312682 13.3169779,2.04847163 C13.2032952,2.14381644 13.1369232,2.27639463 13.1178193,2.44646723 L13.1178193,2.44646723 Z" id="path67"></path>
                        <path d="M16.9454194,1.74634286 L16.9454194,2.43733281 L16.8601066,2.43733281 C16.7943055,2.2207187 16.7100544,2.07335209 16.6071893,1.99531849 C16.5041611,1.91728489 16.373212,1.87813803 16.2140978,1.87813803 C16.0930274,1.87813803 15.9953872,1.90554127 15.921014,1.96026047 C15.8466408,2.01489236 15.8094137,2.07552657 15.8094137,2.14198938 C15.8094137,2.22480754 15.8368448,2.2957075 15.8916242,2.35486295 C15.944689,2.41541075 16.0535958,2.47978638 16.2184248,2.54781524 L16.5983721,2.70518659 C16.9506443,2.85159647 17.126739,3.04472246 17.126739,3.28430356 C17.126739,3.46925187 17.0447734,3.61835914 16.8807612,3.73145076 C16.7167489,3.84471609 16.533224,3.90126234 16.3301881,3.90126234 C16.184463,3.90126234 16.0177564,3.8796877 15.8303133,3.8365393 C15.7731663,3.8220983 15.7263053,3.81496465 15.6898941,3.81496465 C15.6498915,3.81496465 15.6187052,3.83305888 15.596173,3.86942284 L15.5107782,3.86942284 L15.5107782,3.14206893 L15.596173,3.14206893 C15.6448296,3.34972233 15.7377349,3.50613695 15.8750517,3.6114865 C16.0122047,3.71683605 16.1660129,3.76946717 16.3361479,3.76946717 C16.4560754,3.76946717 16.5537976,3.73954114 16.6293946,3.67968907 C16.7049925,3.6199243 16.7427095,3.5478066 16.7427095,3.46351057 C16.7427095,3.36164054 16.7004205,3.27595217 16.6158425,3.20653097 C16.5312653,3.13710976 16.3630071,3.04942062 16.1111515,2.94354905 C15.8592132,2.83767749 15.6944661,2.74172425 15.6167457,2.65568757 C15.539026,2.57130335 15.5001654,2.46447505 15.5001654,2.33555098 C15.5001654,2.16808758 15.567273,2.02794102 15.7016505,1.91537142 C15.836028,1.80262721 16.0097552,1.74634286 16.2229968,1.74634286 C16.316636,1.74634286 16.4301959,1.76374136 16.5636755,1.79862567 C16.6520907,1.82133165 16.7110342,1.83272785 16.7405059,1.83272785 C16.7681811,1.83272785 16.7898974,1.82741859 16.8054901,1.8168072 C16.8210829,1.80619404 16.8392889,1.78270592 16.8601066,1.74634286 L16.9454194,1.74634286 L16.9454194,1.74634286 Z" id="path73"></path>
                        <path d="M19.3431542,1.74634286 L19.3431542,2.43733281 L19.2578414,2.43733281 C19.1921223,2.2207187 19.1077892,2.07335209 19.0049241,1.99531849 C18.901977,1.91728489 18.7709468,1.87813803 18.6119145,1.87813803 C18.4907623,1.87813803 18.393122,1.90554127 18.3187488,1.96026047 C18.2443756,2.01489236 18.2072304,2.07552657 18.2072304,2.14198938 C18.2072304,2.22480754 18.2345796,2.2957075 18.289441,2.35486295 C18.3424239,2.41541075 18.4514126,2.47978638 18.6161596,2.54781524 L18.9961889,2.70518659 C19.3483791,2.85159647 19.5244738,3.04472246 19.5244738,3.28430356 C19.5244738,3.46925187 19.4425082,3.61835914 19.278496,3.73145076 C19.1144838,3.84471609 18.9309589,3.90126234 18.7280049,3.90126234 C18.5821978,3.90126234 18.4155723,3.8796877 18.22813,3.8365393 C18.1709011,3.8220983 18.1240402,3.81496465 18.0876289,3.81496465 C18.0477074,3.81496465 18.01644,3.83305888 17.9939078,3.86942284 L17.908513,3.86942284 L17.908513,3.14206893 L17.9939078,3.14206893 C18.0425645,3.34972233 18.1354697,3.50613695 18.2727865,3.6114865 C18.4100214,3.71683605 18.5637477,3.76946717 18.7339646,3.76946717 C18.8538102,3.76946717 18.9515324,3.73954114 19.0271294,3.67968907 C19.1027273,3.6199243 19.1405263,3.5478066 19.1405263,3.46351057 C19.1405263,3.36164054 19.0981553,3.27595217 19.0135773,3.20653097 C18.9290001,3.13710976 18.760742,3.04942062 18.5088864,2.94354905 C18.256948,2.83767749 18.0922009,2.74172425 18.0144805,2.65568757 C17.9367609,2.57130335 17.8979002,2.46447505 17.8979002,2.33555098 C17.8979002,2.16808758 17.965089,2.02794102 18.0993854,1.91537142 C18.2337629,1.80262721 18.407572,1.74634286 18.6207316,1.74634286 C18.7144528,1.74634286 18.8279307,1.76374136 18.9614923,1.79862567 C19.0498255,1.82133165 19.108769,1.83272785 19.1383218,1.83272785 C19.1659978,1.83272785 19.1876322,1.82741859 19.2033069,1.8168072 C19.2188177,1.80619404 19.2371048,1.78270592 19.2578414,1.74634286 L19.3431542,1.74634286 L19.3431542,1.74634286 Z" id="path79"></path>
                        <path d="M20.5996584,2.57373884 C20.5978611,2.87438886 20.6838285,3.11014212 20.8574746,3.28117145 C21.0311199,3.45211437 21.2351355,3.53762904 21.4695208,3.53762904 C21.6257784,3.53762904 21.7617067,3.50126508 21.8771441,3.42871267 C21.9925816,3.35616025 22.0894051,3.23036739 22.1676155,3.05116038 L22.2476215,3.09552742 C22.2111292,3.30030972 22.1053247,3.48586735 21.9302098,3.6520257 C21.7550941,3.81818317 21.5357306,3.90126234 21.2721186,3.90126234 C20.9859743,3.90126234 20.7410574,3.80626495 20.5372866,3.61644478 C20.3335159,3.42645089 20.2316305,3.17121194 20.2316305,2.85046603 C20.2316305,2.50310078 20.3361283,2.2322022 20.545124,2.03785846 C20.7541196,1.84351473 21.0163439,1.74634286 21.3319599,1.74634286 C21.5990002,1.74634286 21.8183645,1.82141806 21.9900511,1.97148206 C22.1617377,2.12154606 22.2476215,2.32232772 22.2476215,2.57373884 L20.5996584,2.57373884 L20.5996584,2.57373884 Z M20.5996584,2.44646723 L21.70358,2.44646723 C21.6949259,2.31641182 21.6767207,2.22472113 21.6488816,2.17156799 C21.6055318,2.08883623 21.5408735,2.02376577 21.4549078,1.97644123 C21.369024,1.92911669 21.2792211,1.90545397 21.1854991,1.90545397 C21.0414066,1.90545397 20.912499,1.95312682 20.7988572,2.04847163 C20.6852162,2.14381644 20.6187623,2.27639463 20.5996584,2.44646723 L20.5996584,2.44646723 Z" id="path85"></path>
                        <path d="M23.285905,2.57373884 C23.2841913,2.87438886 23.370157,3.11014212 23.5438023,3.28117145 C23.7174484,3.45211437 23.921464,3.53762904 24.1558493,3.53762904 C24.3121061,3.53762904 24.4479533,3.50126508 24.5634727,3.42871267 C24.6789101,3.35616025 24.7757336,3.23036739 24.853862,3.05116038 L24.9338681,3.09552742 C24.8974577,3.30030972 24.7916532,3.48586735 24.6165383,3.6520257 C24.4414226,3.81818317 24.2220591,3.90126234 23.9584471,3.90126234 C23.6723839,3.90126234 23.4273859,3.80626495 23.2236151,3.61644478 C23.0199255,3.42645089 22.9180401,3.17121194 22.9180401,2.85046603 C22.9180401,2.50310078 23.0224568,2.2322022 23.2313705,2.03785846 C23.4403662,1.84351473 23.7026724,1.74634286 24.0182884,1.74634286 C24.2853287,1.74634286 24.5046931,1.82141806 24.6763796,1.97148206 C24.8480662,2.12154606 24.9338681,2.32232772 24.9338681,2.57373884 L23.285905,2.57373884 L23.285905,2.57373884 Z M23.285905,2.44646723 L24.3899085,2.44646723 C24.3812544,2.31641182 24.3630492,2.22472113 24.3352921,2.17156799 C24.2918603,2.08883623 24.227202,2.02376577 24.1413182,1.97644123 C24.0552706,1.92911669 23.9654676,1.90545397 23.8717465,1.90545397 C23.7277351,1.90545397 23.5989086,1.95312682 23.4851857,2.04847163 C23.3714628,2.14381644 23.3050908,2.27639463 23.285905,2.44646723 L23.285905,2.44646723 Z" id="path91"></path>
                    </g>
                </g>
            </g>
        </g>
    </g>
</svg>