<?xml version="1.0" encoding="UTF-8" standalone="no"?>
<svg width="60px" height="40px" viewBox="0 0 60 40" version="1.1" xmlns="http://www.w3.org/2000/svg" xmlns:xlink="http://www.w3.org/1999/xlink">
    <!-- Generator: Sketch 3.8.3 (29802) - http://www.bohemiancoding.com/sketch -->
    <title>US-TN-3</title>
    <desc>Created with Sketch.</desc>
    <defs>
        <rect id="path-1" x="1.18654741e-15" y="-2.00087556e-15" width="60" height="40" rx="2"></rect>
        <mask id="mask-2" maskContentUnits="userSpaceOnUse" maskUnits="objectBoundingBox" x="0" y="0" width="60" height="40" fill="white">
            <use xlink:href="#path-1"></use>
        </mask>
    </defs>
    <g id="Icons-{3}" stroke="none" stroke-width="1" fill="none" fill-rule="evenodd">
        <g id="US-TN-3">
            <g>
                <use id="rect3933" stroke="#000000" mask="url(#mask-2)" stroke-width="1.5" xlink:href="#path-1"></use>
                <g id="Group-2" transform="translate(1.500000, 28.000000)">
                    <polyline id="polyline37" stroke="#000000" stroke-width="0.5" points="5.48219954 1.069673 5.39658894 1.01051734 5.16837698 1.1582132 4.93960505 1.36519363 4.93960505 2.10496176 4.76801055 2.19375972 4.36814187 2.22340199 4.08269026 2.31219995 4.110999 2.43038242 4.36814187 2.63749173 4.45418799 2.78544535 4.110999 2.75580307 3.76836997 2.78544535 3.68275937 3.05171032 3.93996446 3.31784643 4.19704512 3.61375368 4.08269026 3.85037638 3.59677547 4.26472387 3.4256787 4.44219089 3.4256787 4.6493002 3.71119254 5.06326104 3.76836997 5.21147243 3.71119254 5.30001262 3.3396326 5.27049922 3.08304967 5.32952603 3.25408422 5.595791 3.39681001 5.86205598 3.08304967 6.06929416 2.31168327 6.30591687 1.96849427 6.42422821 1.76859104 6.60169524 1.76859104 6.98640045 2.02573391 7.13435407 2.28281458 7.22315203 2.22563715 7.31169222 1.85457494 7.40061905 1.62580302 7.48941701 1.94018553 7.90350673 1.82576847 7.93314901 1.51144816 7.8145799 1.25430529 7.84422218 1.14044817 8.28808306 1.22599655 8.46567896 1.22599655 8.85025529 0.797259188 8.99795117 0.397390506 9.38278525 0.197487269 9.79674609 0.397390506 9.97434201 0.683339851 10.1815802 0.768888228 10.4772297 0.768888228 10.7731369 0.56898499 10.9801174 0.140309838 11.1578421 0.283035646 11.0986865 0.56898499 10.9801174 0.768888228 10.7731369 0.768888228 10.4772297 0.683339851 10.1815802 0.397390506 9.97434201 0.197487269 9.79674609 0.397390506 9.38278525 0.797259188 8.99795117 1.22599655 8.85025529 1.22599655 8.46567896 1.14044817 8.28808306 1.25430529 7.84422218 1.39752884 7.78506651 1.7113514 7.87386445 1.94018553 7.90350673 1.62580302 7.48941701 1.74022009 7.43026133 2.11171781 7.3413345 2.25444362 7.28204994 2.28281458 7.22315203 2.02573391 7.13435407 1.76859104 6.98640045 1.76859104 6.60169524 2.08291134 6.36520142 2.82584458 6.15796323 3.16859805 6.03965188 3.39681001 5.86205598 3.25408422 5.595791 3.08304967 5.32952603 3.22577548 5.27049922 3.59677547 5.30001262 3.73999901 5.30001262 3.76836997 5.21147243 3.71119254 5.06326104 3.4256787 4.6493002 3.48285613 4.38290634 3.91109577 3.9984589 4.13986769 3.79147847 4.19704512 3.61375368 3.93996446 3.31784643 3.68275937 3.05171032 3.76836997 2.78544535 4.110999 2.75580307 4.45418799 2.78544535 4.4253193 2.69677627 4.19704512 2.48953809 4.08269026 2.31219995 4.25422254 2.2529154 4.65409122 2.22340199 4.93960505 2.10496176 4.93960505 1.36519363 5.25386314 1.069673 5.39658894 1.01051734 5.48219954 1.069673 14.4526471 1.069673 14.4526471 0.359418266 56.7315896 0.359418266 56.7027209 1.1582132 56.6171103 1.92749473 56.4172693 2.10496176 55.5604167 2.10496176 55.3604513 2.16411744 55.0743775 2.57820717 54.8172968 3.43628665 54.6463245 3.85037638 54.4174904 4.11664136 53.9032046 4.17579704 53.417912 4.20543931 53.2461931 4.4717043 53.1034672 5.00423425 52.9035018 5.41845286 52.4177114 5.5072508 51.9322944 5.62543328 51.7606999 6.12844984 51.6179741 6.66097979 51.3036538 6.74977775 50.9893335 6.8680891 50.9038473 7.19350975 50.9893335 7.75542423 50.9893335 8.0216892 50.9038473 8.25844078 50.5039164 8.58399032 50.0752413 8.90941097 49.4470984 9.64905023 48.903944 10.2997627 48.5897481 10.8027792 48.4470223 11.1281999 48.4186513 11.483005"></polyline>
                    <g id="Group" transform="translate(8.290909, 2.727273)" fill="#000000">
                        <path d="M5.93175649,0.126478656 L6.00155894,1.43408931 L5.81664672,1.43408931 C5.78094985,1.20442668 5.73221165,1.04049167 5.67049232,0.942156264 C5.56989228,0.783764101 5.43592275,0.666998727 5.26870661,0.591733448 C5.10148922,0.516597503 4.88149332,0.479093536 4.60865498,0.479093536 L3.67846231,0.479093536 L3.67846231,4.72670209 C3.67846231,5.06952197 3.72211815,5.28320404 3.80943108,5.36826433 C3.93250233,5.48348298 4.12188371,5.54096232 4.37745358,5.54096232 L4.60571692,5.54096232 L4.60571692,5.69213822 L1.79401119,5.69213822 L1.79401119,5.54096232 L2.0307845,5.54096232 C2.31360209,5.54096232 2.5141891,5.46982118 2.6326056,5.32728024 C2.7049787,5.23938519 2.74116587,5.03923558 2.74116587,4.72670209 L2.74116587,0.479093536 L1.94775777,0.479093536 C1.63940752,0.479093536 1.42032954,0.498167533 1.29046238,0.536444858 C1.12171476,0.588382664 0.977275173,0.688006121 0.857204683,0.835573894 C0.737134319,0.983140347 0.665741082,1.18264593 0.643024972,1.43408931 L0.457929174,1.43408931 L0.527730492,0.126478656 L5.93175649,0.126478656 L5.93175649,0.126478656 Z" id="path43"></path>
                        <path d="M6.68769196,3.81294643 C6.68499592,4.25835386 6.81388561,4.60761796 7.0744162,4.86099475 C7.33488535,5.11424352 7.64090885,5.24093191 7.99248671,5.24093191 C8.22687195,5.24093191 8.43070412,5.18705938 8.60386034,5.07957432 C8.77707674,4.97208926 8.92231323,4.78572947 9.03956729,4.5202376 L9.15957634,4.58596654 C9.10489807,4.88934773 8.94619265,5.16424793 8.68351901,5.41040845 C8.42078519,5.65656765 8.09173873,5.77964792 7.69638214,5.77964792 C7.2672272,5.77964792 6.89979033,5.63891104 6.59419568,5.35769596 C6.2885396,5.07622354 6.13571155,4.69809176 6.13571155,4.22291263 C6.13571155,3.70829746 6.29239682,3.30696622 6.6058288,3.01904957 C6.91932222,2.73113293 7.31272011,2.5871746 7.78608264,2.5871746 C8.18670592,2.5871746 8.51575113,2.69839713 8.77328096,2.92071417 C9.03081079,3.14303121 9.15957634,3.44048551 9.15957634,3.81294643 L6.68769196,3.81294643 L6.68769196,3.81294643 Z M6.68769196,3.62439589 L8.34357427,3.62439589 C8.33059439,3.43172121 8.30328535,3.29588316 8.26158821,3.21713777 C8.19650196,3.0945722 8.09951462,2.99817151 7.97062744,2.92806108 C7.84167882,2.85795065 7.70697446,2.82289478 7.56639272,2.82289478 C7.35031424,2.82289478 7.15701419,2.89352122 6.98649133,3.03477278 C6.81590701,3.17602435 6.71634777,3.37243649 6.68769196,3.62439589 L6.68769196,3.62439589 Z" id="path49"></path>
                        <path d="M11.165138,3.21906984 C11.5833332,2.79776324 11.9821194,2.5871746 12.3614339,2.5871746 C12.5562651,2.5871746 12.7238499,2.6282867 12.8641256,2.71076956 C13.0044014,2.79299507 13.1161443,2.92870511 13.199294,3.11751299 C13.2564213,3.24922822 13.2850144,3.45131122 13.2850144,3.723762 L13.2850144,5.01178397 C13.2850144,5.20149454 13.3031381,5.33011634 13.3393867,5.39764934 C13.3679196,5.45203656 13.4139028,5.49456604 13.4773351,5.52511109 C13.5407686,5.55565482 13.6580227,5.57086334 13.8290358,5.57086334 L13.8290358,5.69213822 L12.0611047,5.69213822 L12.0611047,5.57086334 L12.1350691,5.57086334 C12.3010613,5.57086334 12.4171517,5.54972662 12.4833415,5.50719582 C12.5494685,5.46466633 12.5955132,5.40203083 12.6214128,5.31916129 C12.6318834,5.28655483 12.637026,5.18396727 12.637026,5.01178397 L12.637026,3.771705 C12.637026,3.49603277 12.5949614,3.29588316 12.5108336,3.17138551 C12.4266431,3.04688787 12.2848976,2.98450971 12.0855961,2.98450971 C11.7774295,2.98450971 11.4706097,3.12756534 11.165138,3.41380726 L11.165138,5.01178397 C11.165138,5.21464033 11.1795273,5.33991134 11.2082433,5.38785434 C11.2448581,5.45100453 11.2951274,5.49740213 11.3591114,5.52678582 C11.4230967,5.55617084 11.5530861,5.57086334 11.7490809,5.57086334 L11.7490809,5.69213822 L9.97318958,5.69213822 L9.97318958,5.57086334 L10.0514401,5.57086334 C10.2340876,5.57086334 10.3573419,5.53219934 10.4212645,5.45487133 C10.4851883,5.37741531 10.5171496,5.22984753 10.5171496,5.01178397 L10.5171496,3.89388389 C10.5171496,3.53237669 10.5074187,3.31212107 10.4878818,3.23324766 C10.4684114,3.15437293 10.4385317,3.10075907 10.3983042,3.07214742 C10.3580153,3.04379443 10.3041948,3.0294886 10.2366582,3.0294886 C10.1639177,3.0294886 10.076912,3.04585584 9.97570004,3.07884899 L9.91716455,2.95770344 L10.9968798,2.5871746 L11.165138,2.5871746 L11.165138,3.21906984 L11.165138,3.21906984 Z" id="path55"></path>
                        <path d="M15.6449101,3.21906984 C16.0631668,2.79776324 16.4618915,2.5871746 16.8412061,2.5871746 C17.0360372,2.5871746 17.2036208,2.6282867 17.3438978,2.71076956 C17.4841735,2.79299507 17.5959164,2.92870511 17.6790661,3.11751299 C17.7362536,3.24922822 17.764848,3.45131122 17.764848,3.723762 L17.764848,5.01178397 C17.764848,5.20149454 17.7829102,5.33011634 17.819219,5.39764934 C17.8476917,5.45203656 17.8936737,5.49456604 17.9571072,5.52511109 C18.0205407,5.55565482 18.1377948,5.57086334 18.308808,5.57086334 L18.308808,5.69213822 L16.5408768,5.69213822 L16.5408768,5.57086334 L16.6148412,5.57086334 C16.7808335,5.57086334 16.8969239,5.54972662 16.9631136,5.50719582 C17.0292407,5.46466633 17.0752853,5.40203083 17.1012463,5.31916129 C17.1116543,5.28655483 17.1168596,5.18396727 17.1168596,5.01178397 L17.1168596,3.771705 C17.1168596,3.49603277 17.0747336,3.29588316 16.9906045,3.17138551 C16.9064152,3.04688787 16.7646698,2.98450971 16.5653682,2.98450971 C16.2572017,2.98450971 15.9503819,3.12756534 15.6449101,3.41380726 L15.6449101,5.01178397 C15.6449101,5.21464033 15.6592995,5.33991134 15.6880155,5.38785434 C15.7246303,5.45100453 15.7748995,5.49740213 15.8388836,5.52678582 C15.9028688,5.55617084 16.0329197,5.57086334 16.2288531,5.57086334 L16.2288531,5.69213822 L14.4529617,5.69213822 L14.4529617,5.57086334 L14.5312122,5.57086334 C14.7138585,5.57086334 14.8371743,5.53219934 14.9010981,5.45487133 C14.9649604,5.37741531 14.9969217,5.22984753 14.9969217,5.01178397 L14.9969217,3.89388389 C14.9969217,3.53237669 14.9871909,3.31212107 14.967654,3.23324766 C14.9481835,3.15437293 14.9183038,3.10075907 14.8780751,3.07214742 C14.8378476,3.04379443 14.7839669,3.0294886 14.7164304,3.0294886 C14.6436899,3.0294886 14.5566842,3.04585584 14.4554722,3.07884899 L14.3969367,2.95770344 L15.4766519,2.5871746 L15.6449101,2.5871746 L15.6449101,3.21906984 L15.6449101,3.21906984 Z" id="path61"></path>
                        <path d="M19.676729,3.81294643 C19.674033,4.25835386 19.8029226,4.60761796 20.0633918,4.86099475 C20.3239826,5.11424352 20.6298844,5.24093191 20.9815839,5.24093191 C21.2159692,5.24093191 21.4197399,5.18705938 21.5928961,5.07957432 C21.7660523,4.97208926 21.9112888,4.78572947 22.0286031,4.5202376 L22.1486134,4.58596654 C22.0939966,4.88934773 21.9352899,5.16424793 21.6724946,5.41040845 C21.4099439,5.65656765 21.0807758,5.77964792 20.6854806,5.77964792 C20.256263,5.77964792 19.8888888,5.63891104 19.5832327,5.35769596 C19.2775766,5.07622354 19.1247486,4.69809176 19.1247486,4.22291263 C19.1247486,3.70829746 19.2814339,3.30696622 19.5948658,3.01904957 C19.9083593,2.73113293 20.3016957,2.5871746 20.7751197,2.5871746 C21.1758032,2.5871746 21.5047267,2.69839713 21.7623794,2.92071417 C22.0197864,3.14303121 22.1486121,3.44048551 22.1486121,3.81294643 L19.676729,3.81294643 L19.676729,3.81294643 Z M19.676729,3.62439589 L21.3325499,3.62439589 C21.31957,3.43172121 21.2923838,3.29588316 21.2506253,3.21713777 C21.1856004,3.0945722 21.0886131,2.99817151 20.9596645,2.92806108 C20.8307159,2.85795065 20.6960115,2.82289478 20.5554298,2.82289478 C20.3394127,2.82289478 20.1460512,2.89352122 19.9754669,3.03477278 C19.8049428,3.17602435 19.7053848,3.37243649 19.676729,3.62439589 L19.676729,3.62439589 Z" id="path67"></path>
                        <path d="M25.4181291,2.5871746 L25.4181291,3.61086342 L25.2901598,3.61086342 C25.1914583,3.28995363 25.0650816,3.07163272 24.9107839,2.95602739 C24.7562417,2.84042205 24.559818,2.78242671 24.3211466,2.78242671 C24.1395412,2.78242671 23.9930808,2.82302411 23.881521,2.90408958 C23.7699612,2.98502572 23.7141205,3.07485418 23.7141205,3.17331759 C23.7141205,3.29601118 23.7552672,3.40104815 23.8374363,3.48868585 C23.9170336,3.57838629 24.0803937,3.67375759 24.3276372,3.77454109 L24.8975582,4.00768384 C25.4259664,4.22458736 25.6901085,4.51069994 25.6901085,4.8656349 C25.6901085,5.1396324 25.5671601,5.36053205 25.3211418,5.5280752 C25.0751234,5.69587568 24.7998361,5.77964792 24.4952822,5.77964792 C24.2766945,5.77964792 24.0266346,5.74768548 23.7454699,5.68376192 C23.6597495,5.66236785 23.589458,5.65179948 23.5348412,5.65179948 C23.4748373,5.65179948 23.4280578,5.67860575 23.3942594,5.73247828 L23.2661673,5.73247828 L23.2661673,4.65491693 L23.3942594,4.65491693 C23.4672445,4.9625516 23.6066023,5.19427696 23.8125775,5.35035037 C24.018307,5.50642378 24.2490193,5.58439581 24.5042218,5.58439581 C24.6841131,5.58439581 24.8306963,5.54006095 24.9440919,5.45139121 C25.0574888,5.36285081 25.1140643,5.25600978 25.1140643,5.13112677 C25.1140643,4.98020821 25.0506308,4.85326247 24.9237638,4.75041625 C24.796898,4.64757002 24.5445107,4.51766018 24.1667273,4.36081341 C23.7888198,4.20396665 23.5416992,4.06181371 23.4251185,3.93435196 C23.3085391,3.8093383 23.2502481,3.65107415 23.2502481,3.46007552 C23.2502481,3.2119816 23.3509096,3.00435707 23.5524758,2.83758728 C23.7540421,2.67055883 24.0146328,2.5871746 24.3344952,2.5871746 C24.474954,2.5871746 24.6452938,2.61295017 24.8455133,2.66463063 C24.9781361,2.69826912 25.0665512,2.71515237 25.1107588,2.71515237 C25.1522716,2.71515237 25.1848461,2.7072868 25.2082352,2.69156623 C25.2316243,2.67584302 25.2589334,2.64104581 25.2901598,2.5871746 L25.4181291,2.5871746 L25.4181291,2.5871746 Z" id="path73"></path>
                        <path d="M29.0147313,2.5871746 L29.0147313,3.61086342 L28.8867621,3.61086342 C28.7881834,3.28995363 28.6616838,3.07163272 28.5073861,2.95602739 C28.3529655,2.84042205 28.1564202,2.78242671 27.9178718,2.78242671 C27.7361434,2.78242671 27.589683,2.82302411 27.4781232,2.90408958 C27.3665635,2.98502572 27.3108457,3.07485418 27.3108457,3.17331759 C27.3108457,3.29601118 27.3518694,3.40104815 27.4341614,3.48868585 C27.5136358,3.57838629 27.6771188,3.67375759 27.9242394,3.77454109 L28.4942833,4.00768384 C29.0225687,4.22458736 29.2867107,4.51069994 29.2867107,4.8656349 C29.2867107,5.1396324 29.1637623,5.36053205 28.917744,5.5280752 C28.6717256,5.69587568 28.3964383,5.77964792 28.0920073,5.77964792 C27.8732968,5.77964792 27.6233585,5.74768548 27.342195,5.68376192 C27.2563517,5.66236785 27.1860602,5.65179948 27.1314434,5.65179948 C27.0715611,5.65179948 27.02466,5.67860575 26.9908617,5.73247828 L26.8627695,5.73247828 L26.8627695,4.65491693 L26.9908617,4.65491693 C27.0638467,4.9625516 27.2032046,5.19427696 27.4091798,5.35035037 C27.6150321,5.50642378 27.8456216,5.58439581 28.1009469,5.58439581 C28.2807153,5.58439581 28.4272986,5.54006095 28.5406942,5.45139121 C28.654091,5.36285081 28.7107894,5.25600978 28.7107894,5.13112677 C28.7107894,4.98020821 28.647233,4.85326247 28.520366,4.75041625 C28.3935002,4.64757002 28.1411129,4.51766018 27.7633295,4.36081341 C27.385422,4.20396665 27.1383014,4.06181371 27.0217207,3.93435196 C26.9051413,3.8093383 26.8468503,3.65107415 26.8468503,3.46007552 C26.8468503,3.2119816 26.9476334,3.00435707 27.149078,2.83758728 C27.3506443,2.67055883 27.6113579,2.5871746 27.9310974,2.5871746 C28.0716792,2.5871746 28.2418961,2.61295017 28.4422384,2.66463063 C28.5747383,2.69826912 28.6631535,2.71515237 28.7074827,2.71515237 C28.7489967,2.71515237 28.7814483,2.7072868 28.8049603,2.69156623 C28.8282266,2.67584302 28.8556572,2.64104581 28.8867621,2.5871746 L29.0147313,2.5871746 L29.0147313,2.5871746 Z" id="path79"></path>
                        <path d="M30.8994877,3.81294643 C30.8967916,4.25835386 31.0257427,4.60761796 31.2862119,4.86099475 C31.5466798,5.11424352 31.8527033,5.24093191 32.2042812,5.24093191 C32.4386676,5.24093191 32.64256,5.18705938 32.8157162,5.07957432 C32.9888724,4.97208926 33.1341077,4.78572947 33.2514232,4.5202376 L33.3714322,4.58596654 C33.3166938,4.88934773 33.1579871,5.16424793 32.8953147,5.41040845 C32.6326411,5.65656765 32.3035959,5.77964792 31.9081778,5.77964792 C31.4789614,5.77964792 31.111586,5.63891104 30.8059299,5.35769596 C30.5002738,5.07622354 30.3474458,4.69809176 30.3474458,4.22291263 C30.3474458,3.70829746 30.5041925,3.30696622 30.8176859,3.01904957 C31.1311794,2.73113293 31.5245158,2.5871746 31.9979398,2.5871746 C32.3985004,2.5871746 32.7275468,2.69839713 32.9850767,2.92071417 C33.2426065,3.14303121 33.3714322,3.44048551 33.3714322,3.81294643 L30.8994877,3.81294643 L30.8994877,3.81294643 Z M30.8994877,3.62439589 L32.55537,3.62439589 C32.5423888,3.43172121 32.515081,3.29588316 32.4733225,3.21713777 C32.4082977,3.0945722 32.3113103,2.99817151 32.1823617,2.92806108 C32.053536,2.85795065 31.9188316,2.82289478 31.7782486,2.82289478 C31.5621099,2.82289478 31.3687484,2.89352122 31.1982858,3.03477278 C31.0278243,3.17602435 30.9281435,3.37243649 30.8994877,3.62439589 L30.8994877,3.62439589 Z" id="path85"></path>
                        <path d="M34.9288575,3.81294643 C34.9262869,4.25835386 35.0552355,4.60761796 35.3157034,4.86099475 C35.5761725,5.11424352 35.8821961,5.24093191 36.2337739,5.24093191 C36.4681592,5.24093191 36.6719299,5.18705938 36.845209,5.07957432 C37.0183652,4.97208926 37.1636004,4.78572947 37.280793,4.5202376 L37.4008021,4.58596654 C37.3461865,4.88934773 37.1874798,5.16424793 36.9248075,5.41040845 C36.6621338,5.65656765 36.3330886,5.77964792 35.9376706,5.77964792 C35.5085758,5.77964792 35.1410788,5.63891104 34.8354227,5.35769596 C34.5298882,5.07622354 34.3770602,4.69809176 34.3770602,4.22291263 C34.3770602,3.70829746 34.5336853,3.30696622 34.8470558,3.01904957 C35.1605492,2.73113293 35.5540086,2.5871746 36.0274325,2.5871746 C36.4279931,2.5871746 36.7570396,2.69839713 37.0145694,2.92071417 C37.2720992,3.14303121 37.4008021,3.44048551 37.4008021,3.81294643 L34.9288575,3.81294643 L34.9288575,3.81294643 Z M34.9288575,3.62439589 L36.5848627,3.62439589 C36.5718816,3.43172121 36.5445738,3.29588316 36.5029381,3.21713777 C36.4377904,3.0945722 36.3408031,2.99817151 36.2119773,2.92806108 C36.0829058,2.85795065 35.9482015,2.82289478 35.8076197,2.82289478 C35.5916027,2.82289478 35.3983628,2.89352122 35.2277785,3.03477278 C35.0571942,3.17602435 34.9576362,3.37243649 34.9288575,3.62439589 L34.9288575,3.62439589 Z" id="path91"></path>
                    </g>
                </g>
            </g>
        </g>
    </g>
</svg>