<?xml version="1.0" encoding="UTF-8" standalone="no"?>
<svg width="60px" height="40px" viewBox="0 0 60 40" version="1.1" xmlns="http://www.w3.org/2000/svg" xmlns:xlink="http://www.w3.org/1999/xlink">
    <!-- Generator: Sketch 3.8.3 (29802) - http://www.bohemiancoding.com/sketch -->
    <title>US-TX-3</title>
    <desc>Created with Sketch.</desc>
    <defs></defs>
    <g id="Icons-{3}" stroke="none" stroke-width="1" fill="none" fill-rule="evenodd">
        <g id="US-TX-3">
            <g>
                <rect id="Rectangle-65" fill="#000000" x="0" y="0" width="60" height="40" rx="2"></rect>
                <polygon id="Shape" fill="#FFFFFF" points="2 2 58 2 58 38 2 38"></polygon>
                <g id="Group" transform="translate(16.000000, 30.000000)" fill="#000000">
                    <polygon id="Shape" points="3.3144226 1.68493652 3.3144226 7.21807861 2.29620361 7.21807861 2.29620361 1.68493652 0.826477052 1.68493652 0.826477052 0.782023115 4.80337524 0.782023115 4.80337524 1.68493652"></polygon>
                    <polygon id="Shape" points="6.13928223 7.21807861 6.13928223 0.782023115 9.9336853 0.782023115 9.9336853 1.80019124 7.15750122 1.80019124 7.15750122 3.37561035 9.03072103 3.37561035 9.03072103 4.41300456 7.15750122 4.41300456 7.15750122 6.18058269 10.1354574 6.18058269 10.1354574 7.21807861"></polygon>
                    <polygon id="Shape" points="14.3722127 7.21807861 13.3348185 5.07584635 12.2973226 7.21807861 11.1445719 7.21807861 12.7487793 3.89440918 11.2598267 0.782023115 12.4125773 0.782023115 13.3348185 2.70320639 14.256958 0.782023115 15.4097087 0.782023115 13.9015299 3.89440918 15.5249634 7.21807861"></polygon>
                    <path d="M20.7981974,7.21807861 L20.1641439,5.41215006 L18.1564941,5.41215006 L17.5225423,7.21807861 L16.4370321,7.21807861 L18.6560669,0.782023115 L19.6646729,0.782023115 L21.8837077,7.21807861 L20.7981974,7.21807861 L20.7981974,7.21807861 Z M19.174764,2.56872558 L18.5119222,4.37465414 L19.7991536,4.37465414 L19.174764,2.56872558 L19.174764,2.56872558 Z" id="Shape"></path>
                    <path d="M27.1735229,5.36413574 C27.1735229,5.65873209 27.1190999,5.93074544 27.0102539,6.18058268 C26.9014079,6.43041992 26.7445475,6.64811198 26.5395711,6.8338623 C26.3602295,6.99397786 26.150472,7.11726888 25.9102987,7.20363363 C25.6702271,7.29010009 25.4124552,7.33333333 25.137085,7.33333333 C24.5799357,7.33333333 24.1043701,7.18440755 23.7104899,6.88665772 C23.3167114,6.58890789 23.0109253,6.19340007 22.7931315,5.70023601 L23.763387,5.34480795 C23.8978678,5.65222169 24.0836182,5.88761394 24.3205363,6.05098471 C24.5574544,6.21425375 24.8296712,6.29593914 25.137085,6.29593914 C25.4379883,6.29593914 25.6797892,6.20458985 25.8622843,6.02209473 C26.0448812,5.83959961 26.136027,5.61376953 26.136027,5.34480795 C26.136027,5.13352458 26.0800781,4.96069336 25.9679769,4.82611084 C25.8558756,4.69173177 25.7102051,4.57800294 25.5308634,4.48512777 C25.3515218,4.3922526 25.1546834,4.31066895 24.9401449,4.24017334 C24.7256063,4.16967774 24.5126953,4.09287517 24.3013102,4.00956218 C24.2052816,3.97121175 24.0867716,3.91678874 23.9458822,3.84629314 C23.8049927,3.77579753 23.6688843,3.67814128 23.537557,3.55332439 C23.4063314,3.42840576 23.2942301,3.27307129 23.2014567,3.08742269 C23.1085815,2.90177408 23.0620931,2.67431641 23.0620931,2.40535481 C23.0620931,2.0916341 23.1133626,1.8241984 23.2158,1.60325114 C23.3182373,1.38240559 23.4576009,1.20296224 23.6336873,1.06532796 C23.8097738,0.927693677 24.0211589,0.826782219 24.2677409,0.762695313 C24.5142212,0.698710125 24.7816569,0.666666667 25.0697428,0.666666667 C25.5244548,0.666666667 25.90389,0.785176594 26.2081502,1.02209473 C26.5123088,1.25911458 26.7445475,1.57924398 26.9046631,1.98268636 L26.0015462,2.25174968 C25.9503784,2.14921061 25.883138,2.05633545 25.7999268,1.97312419 C25.7294311,1.90262858 25.6317749,1.8386434 25.5068563,1.78096517 C25.3820394,1.72338867 25.2298584,1.69134521 25.0506185,1.68493652 C24.935262,1.67852783 24.8152262,1.68656413 24.6903076,1.70894369 C24.5654907,1.73132325 24.4550171,1.771403 24.3589884,1.8289795 C24.2628581,1.88665772 24.1860555,1.9650879 24.1283773,2.06437175 C24.0708008,2.1636556 24.0483195,2.28694663 24.0611369,2.4342448 C24.0739543,2.63271078 24.1604207,2.78479005 24.3205363,2.89048259 C24.4806518,2.99617514 24.6759643,3.0874227 24.9064738,3.16422527 C25.1370849,3.24112957 25.3851929,3.31955974 25.651001,3.39961752 C25.9167073,3.4796753 26.1616618,3.59493002 26.3858642,3.74548341 C26.6100667,3.89593506 26.7972412,4.09765626 26.9477946,4.35054526 C27.098348,4.6036377 27.1735229,4.94136556 27.1735229,5.36413574 L27.1735229,5.36413574 Z" id="Shape"></path>
                </g>
            </g>
        </g>
    </g>
</svg>