<?xml version="1.0" encoding="UTF-8" standalone="no"?>
<svg width="60px" height="40px" viewBox="0 0 60 40" version="1.1" xmlns="http://www.w3.org/2000/svg" xmlns:xlink="http://www.w3.org/1999/xlink">
    <!-- Generator: Sketch 3.8.3 (29802) - http://www.bohemiancoding.com/sketch -->
    <title>US-UT-3</title>
    <desc>Created with Sketch.</desc>
    <defs></defs>
    <g id="Icons-{3}" stroke="none" stroke-width="1" fill="none" fill-rule="evenodd">
        <g id="US-UT-3">
            <g>
                <rect id="Rectangle-61" fill="#000000" x="0" y="0" width="60" height="40" rx="2"></rect>
                <g id="Group" transform="translate(1.000000, 1.000000)" fill="#FFFFFF">
                    <path d="M24.8760622,3.28396731 C25.2343437,1.76530514 26.9444881,0.614530597 29,0.614530597 C31.0555119,0.614530597 32.7656563,1.76530514 33.1239378,3.28396731 C31.9270415,3.73884918 30.5169086,4.00215992 29,4.00215992 C27.4830914,4.00215992 26.0729585,3.73884918 24.8760622,3.28396731 L24.8760622,3.28396731 Z" id="Shape"></path>
                    <path d="M29,29.2211782 C26.1498906,29.2211782 23.839487,31.0187733 23.839487,33.2361463 L23.8413769,33.3451954 C16.8744166,32.9582548 10.5616546,31.7991484 5.42342598,30.102148 C5.23822202,30.041007 5.05451417,29.9791308 4.87238121,29.9165195 C3.87407518,29.4900026 3.19743504,28.6642925 3.19743504,27.7155652 C3.19743504,26.7735768 3.86462599,25.9527677 4.85135678,25.5235553 C4.23007309,25.0662841 3.84249916,24.4186059 3.84249916,23.7005971 C3.84249916,22.5537434 4.83143474,21.5865144 6.1821165,21.2870582 C5.53713112,20.8281942 5.13262741,20.1682632 5.13262741,19.4346935 C5.13262741,18.0487894 6.57661983,16.9253384 8.35794803,16.9253384 C7.95289311,16.5059282 7.7128839,15.9848204 7.7128839,15.4197254 C7.7128839,14.0338214 9.15687633,12.9103703 10.9382045,12.9103703 C11.0908088,12.9103703 11.2408933,12.9186409 11.3879068,12.9346307 C11.1022266,12.5600654 10.9382045,12.1227661 10.9382045,11.6556928 C10.9382045,10.2697888 12.382197,9.14633777 14.1635251,9.14633777 C14.6285824,9.14633777 15.0706466,9.22291722 15.470032,9.3607602 C15.0550554,9.02295299 14.8085893,8.60066332 14.8085893,8.14259575 C14.8085893,7.033848 16.2525817,6.13511171 18.0339099,6.13511171 C18.5222751,6.13511171 18.9851275,6.20262414 19.3999466,6.32355839 L19.6056237,6.38917165 C22.3970695,7.26762972 25.6010507,7.76619249 29,7.76619249 C32.3988706,7.76619249 35.6029305,7.26762972 38.3943763,6.38917165 L38.6000534,6.32355839 C39.0148725,6.20262414 39.4778824,6.13511171 39.9660901,6.13511171 C41.7474183,6.13511171 43.1914107,7.033848 43.1914107,8.14259575 C43.1914107,8.60066332 42.9449446,9.02295299 42.529968,9.3607602 C42.9293534,9.22291722 43.3714176,9.14633777 43.8364749,9.14633777 C45.617803,9.14633777 47.0617955,10.2697888 47.0617955,11.6556928 C47.0617955,12.1227661 46.8976947,12.5600654 46.6120144,12.9346307 C46.7591067,12.9186409 46.9091912,12.9103703 47.0617955,12.9103703 C48.8431237,12.9103703 50.2871161,14.0338214 50.2871161,15.4197254 C50.2871161,15.9848204 50.0471069,16.5059282 49.642052,16.9253384 C51.4233802,16.9253384 52.8673726,18.0487894 52.8673726,19.4346935 C52.8673726,20.1682632 52.4629476,20.8281942 51.8178835,21.2870582 C53.1684865,21.5865144 54.1575008,22.5537434 54.1575008,23.7005971 C54.1575008,24.4186059 53.7699269,25.0662841 53.1486432,25.5235553 C54.1354528,25.9527677 54.802565,26.7735768 54.802565,27.7155652 C54.802565,28.6642925 54.1260036,29.4900026 53.12754,29.9165195 C52.9454858,29.9791308 52.7618567,30.041007 52.5764953,30.1021481 C47.4383454,31.7991484 41.1255047,32.9582548 34.1586231,33.3451954 L34.160513,33.2361463 C34.160513,31.0187733 31.8501881,29.2211782 29,29.2211782 L29,29.2211782 Z" id="Shape"></path>
                    <path d="M29,7.51525699 C28.3765115,7.51525699 27.7601886,7.49834825 27.15237,7.46538846 C24.1982409,7.30518427 21.4452219,6.76465597 19.0416651,5.93245189 C19.3254555,4.34548085 21.0765463,3.12388565 23.1944229,3.12388565 C23.4594724,3.12388565 23.7188525,3.14299988 23.9703582,3.17963548 C24.5427423,3.45630167 25.1746563,3.68665262 25.8510603,3.86211143 C26.8232235,4.11427222 27.8875951,4.25309542 29,4.25309542 C30.1124836,4.25309542 31.1767765,4.11427222 32.1489397,3.86211144 C32.8253436,3.68665263 33.4571789,3.45630168 34.0296418,3.17963549 C34.2811475,3.14299988 34.5405276,3.12388565 34.8055771,3.12388565 C36.9234537,3.12388565 38.6745445,4.34548085 38.9583349,5.93245188 C36.5547781,6.76465596 33.8017591,7.30518427 30.84763,7.46538845 C30.2397326,7.49834825 29.6234885,7.51525699 29,7.51525699 L29,7.51525699 Z" id="Shape"></path>
                    <path d="M0.61717854,37.7529854 L0.61717854,32.7342753 L8.35794803,32.7342753 L1.21263446,32.502699 L5.73485524,30.7434549 C12.17337,32.7836537 20.2714761,33.9889528 29,33.9889528 C37.7285239,33.9889528 45.82663,32.7836537 52.2651448,30.7434549 L56.7873655,32.502699 L49.642052,32.7342753 L57.3828215,32.7342753 L57.3828215,37.7529854 L0.61717854,37.7529854 L0.61717854,37.7529854 Z" id="Shape"></path>
                </g>
            </g>
        </g>
    </g>
</svg>