<?xml version="1.0" encoding="UTF-8" standalone="no"?>
<svg width="40px" height="40px" viewBox="0 0 40 40" version="1.1" xmlns="http://www.w3.org/2000/svg" xmlns:xlink="http://www.w3.org/1999/xlink">
    <!-- Generator: Sketch 3.8.3 (29802) - http://www.bohemiancoding.com/sketch -->
    <title>US-UT-2</title>
    <desc>Created with Sketch.</desc>
    <defs></defs>
    <g id="Icons-{2}" stroke="none" stroke-width="1" fill="none" fill-rule="evenodd">
        <g id="US-UT-2">
            <g id="Shape">
                <path d="M2.12765957,0 L37.8723404,0 C39.047436,0 40,0.952564 40,2.12765957 L40,37.8723404 C40,39.047436 39.047436,40 37.8723404,40 L2.12765957,40 C0.952564,40 0,39.047436 0,37.8723404 L0,2.12765957 C0,0.952564 0.952564,0 2.12765957,0 Z" fill="#000000"></path>
                <path d="M17.2981097,5.76544615 C17.5328459,4.48657275 18.6532853,3.51749945 20,3.51749945 C21.3467147,3.51749945 22.4671541,4.48657275 22.7018903,5.76544615 C21.9177168,6.14850457 20.9938367,6.37023993 20,6.37023993 C19.0061633,6.37023993 18.0822832,6.14850457 17.2981097,5.76544615 L17.2981097,5.76544615 Z" fill="#FFFFFF"></path>
                <path d="M20,27.6073079 C18.132687,27.6073079 16.6189742,29.1210723 16.6189742,30.9883337 L16.6202124,31.0801645 C12.0556522,30.7543198 7.91970477,29.7782302 4.55327909,28.3491773 C4.43193856,28.2976901 4.31157825,28.2455839 4.19224976,28.1928585 C3.53818719,27.8336864 3.09487123,27.1383516 3.09487123,26.3394233 C3.09487123,25.5461699 3.53199634,24.8549623 4.17847513,24.4935203 C3.77142719,24.1084498 3.51749945,23.5630365 3.51749945,22.9583975 C3.51749945,21.992626 4.16542276,21.1781174 5.05035219,20.9259438 C4.62777556,20.539532 4.36275589,19.9838006 4.36275589,19.3660577 C4.36275589,18.1989806 5.30881989,17.2529166 6.47589698,17.2529166 C6.21051617,16.899729 6.05326877,16.4609014 6.05326877,15.9850319 C6.05326877,14.8179548 6.99933277,13.8718908 8.16640986,13.8718908 C8.26639198,13.8718908 8.3647232,13.8788555 8.4610424,13.8923206 C8.27387257,13.5768971 8.16640986,13.2086452 8.16640986,12.8153203 C8.16640986,11.6482432 9.11247386,10.7021792 10.279551,10.7021792 C10.5842436,10.7021792 10.8738719,10.7666671 11.1355382,10.8827454 C10.863657,10.5982762 10.7021792,10.2426639 10.7021792,9.85692274 C10.7021792,8.92324042 11.6482432,8.16640986 12.8153203,8.16640986 C13.1352837,8.16640986 13.4385318,8.22326243 13.7103098,8.3251018 L13.8450638,8.38035507 C15.6739421,9.12010924 17.7731022,9.53995157 20,9.53995157 C22.2268462,9.53995157 24.3260579,9.12010924 26.1549362,8.38035507 L26.2896902,8.3251018 C26.5614682,8.22326243 26.8648195,8.16640986 27.1846797,8.16640986 C28.3517568,8.16640986 29.2978208,8.92324042 29.2978208,9.85692274 C29.2978208,10.2426639 29.136343,10.5982762 28.8644618,10.8827454 C29.1261281,10.7666671 29.4157564,10.7021792 29.720449,10.7021792 C30.8875261,10.7021792 31.8335901,11.6482432 31.8335901,12.8153203 C31.8335901,13.2086452 31.7260758,13.5768971 31.538906,13.8923206 C31.6352768,13.8788555 31.733608,13.8718908 31.8335901,13.8718908 C33.0006672,13.8718908 33.9467312,14.8179548 33.9467312,15.9850319 C33.9467312,16.4609014 33.7894838,16.899729 33.524103,17.2529166 C34.6911801,17.2529166 35.6372441,18.1989806 35.6372441,19.3660577 C35.6372441,19.9838006 35.372276,20.539532 34.9496478,20.9259438 C35.8345256,21.1781174 36.4825006,21.992626 36.4825006,22.9583975 C36.4825006,23.5630365 36.2285728,24.1084498 35.8215249,24.4935203 C36.4680553,24.8549623 36.9051288,25.5461699 36.9051288,26.3394233 C36.9051288,27.1383516 36.4618644,27.8336864 35.8076987,28.1928585 C35.6884217,28.2455839 35.568113,28.2976901 35.4466693,28.3491773 C32.0802952,29.7782302 27.9442962,30.7543198 23.3797876,31.0801645 L23.3810258,30.9883337 C23.3810258,29.1210723 21.8673646,27.6073079 20,27.6073079 L20,27.6073079 Z" fill="#FFFFFF"></path>
                <path d="M20,9.32863746 C19.5915075,9.32863746 19.1877098,9.31439853 18.7894838,9.28664292 C16.8540199,9.15173412 15.0503178,8.6965524 13.4755737,7.99574896 C13.6615053,6.6593523 14.8087717,5.63064055 16.196346,5.63064055 C16.3699992,5.63064055 16.5399378,5.64673674 16.7047174,5.67758777 C17.0797277,5.91056983 17.4937404,6.10454958 17.9369016,6.25230436 C18.5738361,6.46465029 19.271183,6.58155404 20,6.58155404 C20.7288686,6.58155404 21.4261639,6.46465029 22.0630984,6.25230437 C22.5062596,6.10454959 22.9202207,5.91056984 23.2952826,5.67758778 C23.4600622,5.64673674 23.6300008,5.63064055 23.803654,5.63064055 C25.1912283,5.63064055 26.3384947,6.6593523 26.5244263,7.99574895 C24.9496822,8.69655239 23.1459801,9.15173412 21.2105162,9.28664291 C20.8122386,9.31439853 20.4084925,9.32863746 20,9.32863746 L20,9.32863746 Z" fill="#FFFFFF"></path>
                <path d="M1.40435835,34.7919877 L1.40435835,30.5657055 L6.47589698,30.5657055 L1.79448465,30.3706939 L4.75731895,28.8892252 C8.97565623,30.6072873 14.2813119,31.622276 20,31.622276 C25.7186881,31.622276 31.0243438,30.6072873 35.242681,28.8892252 L38.2055154,30.3706939 L33.524103,30.5657055 L38.5956416,30.5657055 L38.5956416,34.7919877 L1.40435835,34.7919877 L1.40435835,34.7919877 Z" fill="#FFFFFF"></path>
            </g>
        </g>
    </g>
</svg>