<?xml version="1.0" encoding="UTF-8" standalone="no"?>
<svg width="60px" height="40px" viewBox="0 0 60 40" version="1.1" xmlns="http://www.w3.org/2000/svg" xmlns:xlink="http://www.w3.org/1999/xlink">
    <!-- Generator: Sketch 3.8.3 (29802) - http://www.bohemiancoding.com/sketch -->
    <title>US-VT-3</title>
    <desc>Created with Sketch.</desc>
    <defs></defs>
    <g id="Icons-{3}" stroke="none" stroke-width="1" fill="none" fill-rule="evenodd">
        <g id="US-VT-3">
            <g>
                <rect id="Rectangle-55" fill="#006B54" x="0" y="0" width="60" height="40" rx="2"></rect>
                <path d="M6.19047037,14.1666667 C3.57267253,17.3364766 2,21.4011637 2,25.8333333 C2,30.2655029 3.57267253,34.3302409 6.19047037,37.5 L53.8061962,37.5033334 C56.4239941,34.3335743 57.9966666,30.2688363 57.9966666,25.8366667 C57.9966666,21.4044971 56.4239941,17.3398101 53.8061962,14.1700001 L6.19047037,14.1666667 Z" id="Combined-Shape" fill="#FFFFFF"></path>
                <rect id="Rectangle-56" fill="#FFFFFF" x="2" y="2" width="56" height="11" rx="2"></rect>
                <g id="Text" transform="translate(14.000000, 4.000000)" fill="#006B54">
                    <polygon id="Shape" points="3.15778605 6.71807861 2.45654297 6.71807861 0.833109542 0.28197225 1.76491293 0.28197225 2.82158406 4.4606425 3.88786825 0.28197225 4.81005859 0.28197225"></polygon>
                    <polygon id="Shape" points="5.7033081 6.71807861 5.7033081 0.28197225 8.7292277 0.28197225 8.7292277 1.18493652 6.62544759 1.18493652 6.62544759 2.80836996 7.96074422 2.80836996 7.96074422 3.69215902 6.62544759 3.69215902 6.62544759 5.81511434 8.97896322 5.81511434 8.97896322 6.71807861"></polygon>
                    <path d="M12.7348633,6.71807861 L11.8799133,3.69215902 L10.9961751,3.69215902 L10.9961751,6.71807861 L10.0739339,6.71807861 L10.0739339,0.28197225 L11.9951681,0.28197225 C12.2449544,0.28197225 12.4738871,0.323577885 12.682017,0.40684001 C12.8901469,0.490102135 13.0694885,0.605356854 13.2199911,0.752655031 C13.3704427,0.899953208 13.4857483,1.08087158 13.5658061,1.29541016 C13.645813,1.50994873 13.6858419,1.74529013 13.6858927,2.00143432 C13.6858927,2.38570149 13.6089884,2.7123413 13.4553324,2.9813029 C13.3016256,3.25026449 13.0710653,3.44237264 12.7636515,3.55762735 L13.6858927,6.7180786 L12.7348633,6.7180786 L12.7348633,6.71807861 Z M12.7828776,2.00143432 C12.7828776,1.75169881 12.706075,1.55318196 12.5523682,1.40588378 C12.3986613,1.2585856 12.1969401,1.18493651 11.9471537,1.18493651 L10.9961751,1.18493651 L10.9961751,2.80836994 L11.9471537,2.80836994 C12.2161153,2.80836994 12.4226685,2.7395528 12.5667623,2.60181679 C12.7108561,2.46413168 12.7828776,2.26403808 12.7828776,2.00143432 L12.7828776,2.00143432 Z" id="Shape"></path>
                    <polygon id="Shape" points="18.0949707 6.71807861 18.0949707 3.10611979 16.9038188 6.71807861 15.7030538 3.10611979 15.7030538 6.71807861 14.7808634 6.71807861 14.7808634 0.28197225 15.7030538 0.28197225 16.9038188 3.89382934 18.0949707 0.28197225 19.0267741 0.28197225 19.0267741 6.71807861"></polygon>
                    <path d="M24.0843506,3.49038696 C24.0843506,3.98355102 24.0570882,4.40301514 24.0027669,4.74883016 C23.9482422,5.09464518 23.8538411,5.42123413 23.7193604,5.72864786 C23.5592448,6.11291503 23.3590495,6.39306641 23.1189779,6.56915283 C22.8788045,6.74529013 22.5761719,6.83333333 22.2111816,6.83333333 C21.8268636,6.83333333 21.5147705,6.74529013 21.2745972,6.56915283 C21.0344238,6.39306641 20.8342285,6.11291504 20.674113,5.72864786 C20.5396322,5.41482544 20.4452311,5.08660889 20.3908081,4.74399821 C20.3363851,4.40138753 20.3091227,3.98355102 20.3091227,3.49038696 C20.3091227,3.00368245 20.3363851,2.58584594 20.3908081,2.23682657 C20.4452311,1.88780721 20.5396322,1.55959066 20.674113,1.25217692 C20.8407389,0.86790975 21.043986,0.590911865 21.2841594,0.421234125 C21.5243327,0.251556385 21.833374,0.166666667 22.2111816,0.166666667 C22.5826823,0.166666667 22.8868408,0.251556396 23.123759,0.421234135 C23.3606771,0.590911875 23.5592448,0.874318448 23.7193604,1.271403 C23.7833455,1.43151856 23.8393962,1.59158326 23.8874105,1.75169881 C23.9354248,1.91181436 23.973877,2.0798645 24.0027669,2.25600179 C24.0315552,2.43213908 24.0524089,2.62099203 24.0651245,2.82276408 C24.0779419,3.02453614 24.0843506,3.24706014 24.0843506,3.49038696 L24.0843506,3.49038696 Z M23.2005615,3.49038696 C23.2005615,3.31109619 23.1957804,3.14777628 23.1862183,3.0004781 C23.1765544,2.85317993 23.163737,2.7171224 23.1477661,2.59225464 C23.1317952,2.46733601 23.1109416,2.34730021 23.0853068,2.23199463 C23.0597738,2.11673991 23.0308838,2.00143432 22.9988403,1.8861796 C22.9156291,1.59799194 22.8115641,1.38986206 22.6866455,1.26173909 C22.5617269,1.13371785 22.4032389,1.0696818 22.2111816,1.0696818 C21.8140462,1.0696818 21.5419312,1.33543904 21.394633,1.86695353 C21.3178304,2.11028035 21.2649333,2.35528565 21.236145,2.60181681 C21.2073568,2.84839884 21.1929118,3.15098064 21.1929118,3.50961304 C21.1929118,3.68254599 21.1976929,3.84103394 21.2073568,3.98512777 C21.2169189,4.1292216 21.2297363,4.2637024 21.2458089,4.38857016 C21.2617798,4.51348878 21.2826335,4.63672893 21.3081665,4.75844321 C21.3338013,4.88010663 21.3625895,5.00497438 21.394633,5.13304648 C21.5419311,5.66461182 21.8140462,5.93036907 22.2111816,5.93036907 C22.4032389,5.93036907 22.5617269,5.86633302 22.6866455,5.73826092 C22.8115641,5.61018881 22.9156291,5.40846763 22.9988403,5.13304648 C23.0372925,5.00497438 23.0693359,4.88168336 23.0949707,4.76322429 C23.1206055,4.64476522 23.1413574,4.52142334 23.15743,4.3934021 C23.1734009,4.26533 23.1845907,4.1292216 23.1909993,3.98512777 C23.197408,3.84103394 23.2005615,3.67613729 23.2005615,3.49038696 L23.2005615,3.49038696 Z" id="Shape"></path>
                    <polygon id="Shape" points="28.2822469 6.71807861 26.2938232 2.40487671 26.2938232 6.71807861 25.371582 6.71807861 25.371582 0.28197225 26.2938232 0.28197225 28.0612996 4.14361572 28.0612996 0.28197225 28.9834391 0.28197225 28.9834391 6.71807861"></polygon>
                    <polygon id="Shape" points="31.9949137 1.1369222 31.9949137 6.71807861 31.0631104 6.71807861 31.0631104 1.1369222 29.8912354 1.1369222 29.8912354 0.28197225 33.1668905 0.28197225 33.1668905 1.1369222"></polygon>
                </g>
            </g>
        </g>
    </g>
</svg>