<?xml version="1.0" encoding="UTF-8" standalone="no"?>
<svg width="40px" height="40px" viewBox="0 0 40 40" version="1.1" xmlns="http://www.w3.org/2000/svg" xmlns:xlink="http://www.w3.org/1999/xlink">
    <!-- Generator: Sketch 3.8.3 (29802) - http://www.bohemiancoding.com/sketch -->
    <title>US-VT-2</title>
    <desc>Created with Sketch.</desc>
    <defs></defs>
    <g id="Icons-{2}" stroke="none" stroke-width="1" fill="none" fill-rule="evenodd">
        <g id="US-VT-2">
            <g>
                <g id="Group" fill="#006B54">
                    <path d="M0,2.5 C0,1.11923218 1.11928304,0 2.5,0 L37.5,0 C38.880717,0 40,1.11923218 40,2.5 L40,37.5 C40,38.880717 38.880717,40 37.5,40 L2.5,40 C1.11928304,40 0,38.880717 0,37.5 L0,2.5 L0,2.5 L0,2.5 Z" id="Shape"></path>
                </g>
                <path d="M1.66666667,25.8333333 C1.66666667,21.4011637 3.2393392,17.3364766 5.85713704,14.1666667 L34.142863,14.1666667 C36.7606608,17.3364766 38.3333333,21.4011637 38.3333333,25.8333333 C38.3333333,30.2655029 36.7606608,34.3302409 34.142863,37.5 L5.85713704,37.5 C3.2393392,34.3302409 1.66666667,30.2655029 1.66666667,25.8333333 L1.66666667,25.8333333 Z" id="Shape" fill="#FFFFFF"></path>
                <g id="Group" transform="translate(1.666667, 2.500000)" fill="#FFFFFF">
                    <path d="M0,1.66666667 C0,0.746205646 0.746154781,0 1.66666667,0 L35,0 C35.9205119,0 36.6666667,0.746205646 36.6666667,1.66666667 L36.6666667,8.33333333 C36.6666667,9.25384522 35.9205119,10 35,10 L1.66666667,10 C0.746154781,10 0,9.25384522 0,8.33333333 L0,1.66666667 L0,1.66666667 L0,1.66666667 Z" id="Shape"></path>
                </g>
                <g id="Group" transform="translate(3.750000, 4.166667)" fill="#006B54">
                    <polygon id="Shape" points="2.40778605 6.55141195 1.70654297 6.55141195 0.0831095417 0.115305583 1.01491293 0.115305583 2.07158406 4.29397583 3.13786825 0.115305583 4.06005859 0.115305583"></polygon>
                    <polygon id="Shape" points="4.9533081 6.55141195 4.9533081 0.115305583 7.9792277 0.115305583 7.9792277 1.01826985 5.87544759 1.01826985 5.87544759 2.64170329 7.21074422 2.64170329 7.21074422 3.52549235 5.87544759 3.52549235 5.87544759 5.64844768 8.22896322 5.64844768 8.22896322 6.55141195"></polygon>
                    <path d="M11.9848633,6.55141195 L11.1299133,3.52549235 L10.2461751,3.52549235 L10.2461751,6.55141195 L9.32393393,6.55141195 L9.32393393,0.115305583 L11.2451681,0.115305583 C11.4949544,0.115305583 11.7238871,0.156911219 11.932017,0.240173344 C12.1401469,0.323435469 12.3194885,0.438690188 12.4699911,0.585988365 C12.6204427,0.733286542 12.7357483,0.914204917 12.8158061,1.12874349 C12.895813,1.34328206 12.9358419,1.57862346 12.9358927,1.83476766 C12.9358927,2.21903482 12.8589884,2.54567464 12.7053324,2.81463623 C12.5516256,3.08359782 12.3210653,3.27570597 12.0136515,3.39096069 L12.9358927,6.55141194 L11.9848633,6.55141194 L11.9848633,6.55141195 Z M12.0328776,1.83476766 C12.0328776,1.58503215 11.956075,1.38651529 11.8023682,1.23921711 C11.6486613,1.09191894 11.4469401,1.01826984 11.1971537,1.01826984 L10.2461751,1.01826984 L10.2461751,2.64170327 L11.1971537,2.64170327 C11.4661153,2.64170327 11.6726685,2.57288614 11.8167623,2.43515012 C11.9608561,2.29746501 12.0328776,2.09737142 12.0328776,1.83476766 L12.0328776,1.83476766 Z" id="Shape"></path>
                    <polygon id="Shape" points="17.3449707 6.55141195 17.3449707 2.93945313 16.1538188 6.55141195 14.9530538 2.93945313 14.9530538 6.55141195 14.0308634 6.55141195 14.0308634 0.115305583 14.9530538 0.115305583 16.1538188 3.72716268 17.3449707 0.115305583 18.2767741 0.115305583 18.2767741 6.55141195"></polygon>
                    <path d="M23.3343506,3.32372029 C23.3343506,3.81688435 23.3070882,4.23634847 23.2527669,4.58216349 C23.1982422,4.92797851 23.1038411,5.25456746 22.9693604,5.5619812 C22.8092448,5.94624836 22.6090495,6.22639974 22.3689779,6.40248617 C22.1288045,6.57862346 21.8261719,6.66666667 21.4611816,6.66666667 C21.0768636,6.66666667 20.7647705,6.57862346 20.5245972,6.40248617 C20.2844238,6.22639974 20.0842285,5.94624837 19.924113,5.5619812 C19.7896322,5.24815877 19.6952311,4.91994222 19.6408081,4.57733154 C19.5863851,4.23472086 19.5591227,3.81688435 19.5591227,3.32372029 C19.5591227,2.83701578 19.5863851,2.41917927 19.6408081,2.07015991 C19.6952311,1.72114054 19.7896322,1.39292399 19.924113,1.08551025 C20.0907389,0.701243083 20.293986,0.424245198 20.5341594,0.254567458 C20.7743327,0.0848897188 21.083374,0 21.4611816,0 C21.8326823,0 22.1368408,0.0848897292 22.373759,0.254567469 C22.6106771,0.424245208 22.8092448,0.707651781 22.9693604,1.10473633 C23.0333455,1.2648519 23.0893962,1.42491659 23.1374105,1.58503215 C23.1854248,1.7451477 23.223877,1.91319783 23.2527669,2.08933512 C23.2815552,2.26547242 23.3024089,2.45432536 23.3151245,2.65609742 C23.3279419,2.85786947 23.3343506,3.08039347 23.3343506,3.32372029 L23.3343506,3.32372029 Z M22.4505615,3.32372029 C22.4505615,3.14442952 22.4457804,2.98110961 22.4362183,2.83381144 C22.4265544,2.68651326 22.413737,2.55045573 22.3977661,2.42558797 C22.3817952,2.30066934 22.3609416,2.18063354 22.3353068,2.06532796 C22.3097738,1.95007324 22.2808838,1.83476766 22.2488403,1.71951294 C22.1656291,1.43132527 22.0615641,1.2231954 21.9366455,1.09507243 C21.8117269,0.967051187 21.6532389,0.903015135 21.4611816,0.903015135 C21.0640462,0.903015135 20.7919312,1.16877237 20.644633,1.70028686 C20.5678304,1.94361369 20.5149333,2.18861898 20.486145,2.43515015 C20.4573568,2.68173218 20.4429118,2.98431397 20.4429118,3.34294637 C20.4429118,3.51587932 20.4476929,3.67436727 20.4573568,3.8184611 C20.4669189,3.96255494 20.4797363,4.09703573 20.4958089,4.22190349 C20.5117798,4.34682211 20.5326335,4.47006226 20.5581665,4.59177654 C20.5838013,4.71343996 20.6125895,4.83830771 20.644633,4.96637981 C20.7919311,5.49794516 21.0640462,5.76370241 21.4611816,5.76370241 C21.6532389,5.76370241 21.8117269,5.69966635 21.9366455,5.57159425 C22.0615641,5.44352215 22.1656291,5.24180096 22.2488403,4.96637981 C22.2872925,4.83830771 22.3193359,4.7150167 22.3449707,4.59655762 C22.3706055,4.47809855 22.3913574,4.35475668 22.40743,4.22673544 C22.4234009,4.09866333 22.4345907,3.96255494 22.4409993,3.8184611 C22.447408,3.67436727 22.4505615,3.50947062 22.4505615,3.32372029 L22.4505615,3.32372029 Z" id="Shape"></path>
                    <polygon id="Shape" points="27.5322469 6.55141195 25.5438232 2.23821004 25.5438232 6.55141195 24.621582 6.55141195 24.621582 0.115305583 25.5438232 0.115305583 27.3112996 3.97694905 27.3112996 0.115305583 28.2334391 0.115305583 28.2334391 6.55141195"></polygon>
                    <polygon id="Shape" points="31.2449137 0.970255531 31.2449137 6.55141195 30.3131104 6.55141195 30.3131104 0.970255531 29.1412354 0.970255531 29.1412354 0.115305583 32.4168905 0.115305583 32.4168905 0.970255531"></polygon>
                </g>
            </g>
        </g>
    </g>
</svg>