<?xml version="1.0" encoding="UTF-8" standalone="no"?>
<svg width="60px" height="40px" viewBox="0 0 60 40" version="1.1" xmlns="http://www.w3.org/2000/svg" xmlns:xlink="http://www.w3.org/1999/xlink">
    <!-- Generator: Sketch 3.8.3 (29802) - http://www.bohemiancoding.com/sketch -->
    <title>US-WA-3</title>
    <desc>Created with Sketch.</desc>
    <defs></defs>
    <g id="Icons-{3}" stroke="none" stroke-width="1" fill="none" fill-rule="evenodd">
        <g id="US-WA-3">
            <g>
                <rect id="Rectangle-60" fill="#000000" x="0" y="0" width="60" height="40" rx="2"></rect>
                <path d="M4.72695831,20.1801271 C3.52151145,20.1057081 1.56619352,20.5774254 1.02748347,19.733613 C0.694946408,19.21268 3.46209816,14.9860771 4.89322684,14.1769936 C5.68300237,13.7304796 4.39187179,12.644822 5.01792824,11.9444234 C7.47981097,9.18972931 7.69252385,8.61845591 9.71368412,6.52327966 C10.0325872,6.19285926 11.6627947,5.42498738 12.2671254,4.93626948 C12.7987413,4.36473148 14.1097133,3.00117678 14.9940402,2.81569153 C19.7138496,1.82535643 23.9693264,1 30.3521536,1 C37.6930202,1 44.5282087,2.5907146 48.1366792,5.92481852 C51.5731172,9.10002959 51.5731172,11.2167047 53.0143328,13.7304796 C53.7404829,14.996595 56.8365139,16.8527705 57.6698517,18.0963948 C58.7778652,19.7500844 57.5380562,22.517347 56.6722406,23.1239446 C54.1223463,24.9100009 49.2349383,26.453815 48.4692163,27.2914092 C47.8041421,28.0189294 48.4660017,30.0689251 50.0214993,30.4666202 C52.4603261,30.0038332 52.7921981,29.2759161 54.8984879,29.4743668 C53.679407,30.8635216 54.1262259,31.4328767 53.9008767,31.8557751 C53.1247352,33.3108156 52.1537269,32.9693481 52.2381913,33.7739995 C52.3492587,34.8325355 58.7778652,35.8906746 59,39 L4.79612602,39 C9.45164492,34.8325355 12.8747815,35.002277 16.3241884,31.3263086 C17.7364733,29.8212586 16.324521,28.7751588 13.5807576,28.3662181 C10.295624,27.8767064 4.39442125,28.1429611 3.89561565,26.4809365 C3.65330698,25.673573 4.97636111,24.9181373 5.01792824,24.0003029 C5.04386613,23.4293603 4.26971985,22.7847924 4.26971985,22.7847924 C4.26971985,22.7847924 4.93479397,20.9739298 4.72695831,20.1801271 L4.72695831,20.1801271 Z" id="Head_1_" fill="#FFFFFF"></path>
            </g>
        </g>
    </g>
</svg>