<?xml version="1.0" encoding="UTF-8" standalone="no"?>
<svg width="40px" height="40px" viewBox="0 0 40 40" version="1.1" xmlns="http://www.w3.org/2000/svg" xmlns:xlink="http://www.w3.org/1999/xlink">
    <!-- Generator: Sketch 3.8.3 (29802) - http://www.bohemiancoding.com/sketch -->
    <title>US-WY-2</title>
    <desc>Created with Sketch.</desc>
    <defs></defs>
    <g id="Icons-{2}" stroke="none" stroke-width="1" fill="none" fill-rule="evenodd">
        <g id="US-WY-2" transform="translate(0.000000, -10.000000)">
            <g>
                <rect id="Rectangle-31" x="0" y="0" width="40" height="50"></rect>
                <g id="Group" transform="translate(0.000000, 10.000000)">
                    <rect id="Rectangle-29" fill="#000000" x="0" y="0" width="40" height="40" rx="2"></rect>
                    <rect id="Rectangle-29" fill="#FFCA08" x="2" y="2" width="36" height="36" rx="1"></rect>
                    <path d="M18.4088557,25.7855189 C18.4088557,25.7855189 18.6311724,25.4594545 19.1795535,25.4298122 L19.5352602,25 C19.5352602,25 20.0539991,25.1630322 20.0539991,25.4446333 C20.0539991,25.4446333 19.9354302,25.66695 20.7950547,25.3408856 L20.9432658,25.4298122 L20.5430958,25.8596245 C20.5430958,25.8596245 19.5649024,25.93373 19.2240168,26.3635423 C19.2240168,26.3635423 18.9275946,26.5265745 18.853489,26.9267445 L19.4315124,27.4306623 L19.7723979,26.852639 L20.0688202,27.2231667 L20.2022102,27.252809 C20.2022102,27.252809 20.4689902,26.6451434 20.8543391,26.7044278 C20.8543391,26.7044278 21.506468,27.0008501 21.506468,27.3565568 C21.506468,27.3565568 21.0025502,27.4899468 20.9877291,27.7122634 L20.6616646,27.8308323 L20.5282746,27.8604745 L20.4541691,27.8160112 L20.4541691,27.9938646 L20.5579169,28.0383279 C20.5579169,28.0383279 20.839518,27.9642223 21.3286147,29.9798935 L21.6546791,29.7723979 L21.9214591,29.8316824 C21.9214591,29.8316824 22.1437758,29.7575768 22.1437758,29.5797235 C22.1437758,29.5797235 22.2919869,29.5352602 22.2771658,29.6686502 C22.2623447,29.8020402 22.2327025,29.905788 22.0252069,30.0243568 C21.8177114,30.1429257 21.8325325,29.8761457 21.7287847,29.9206091 C21.6102158,29.9650724 21.5361102,30.0095357 21.5361102,30.0688202 C21.5361102,30.1281046 21.8918169,30.2022102 21.9807436,30.3800635 C22.0696703,30.5579169 21.9362802,30.5282746 21.9214591,30.4986324 C21.906638,30.4689902 21.6991425,30.4541691 21.6843213,30.4838113 C21.6695002,30.5134535 21.3286147,30.6468435 21.4175413,30.7802335 C21.4916469,30.9136235 21.6695002,31.0618347 21.8325325,31.0321924 C21.9955647,31.0025502 22.0252069,30.8988024 22.1289547,30.9284447 C22.2327025,30.9580869 22.2475236,31.1211191 22.2475236,31.1211191 L22.3809136,31.1507613 L22.3957347,31.0618347 C22.3957347,31.0618347 22.6773358,31.1804036 22.5587669,31.506468 C22.440198,31.8325325 23.0626847,31.4620047 23.0330425,31.4175413 C23.0034003,31.373078 23.1071481,31.6102158 23.0330425,31.6843213 C22.958937,31.7584269 23.4628547,31.906638 23.492497,31.9807436 C23.5221392,32.0548491 23.5517814,32.1437758 23.4628547,32.1289547 C23.359107,32.1141336 23.1219692,31.9807436 23.1071481,32.040028 C23.092327,32.0993125 23.1219692,32.1585969 23.3887492,32.2919869 L23.6851714,32.1437758 C23.6851714,32.1437758 23.759277,32.1437758 23.759277,32.2327025 C23.759277,32.3364503 23.3887492,32.4105558 23.5814236,32.573588 C23.7740981,32.7366203 23.9815937,32.6625147 23.9815937,32.6625147 C23.9815937,32.6625147 23.9964148,32.7959047 23.9964148,32.9292947 C23.9964148,33.0626847 24.1742681,33.0626847 24.1742681,33.0626847 L23.9519514,33.2998225 L24.159447,33.2405381 C24.159447,33.2405381 24.3669426,33.759277 24.2483737,34.026057 L24.5299748,34.1298048 L24.5151537,34.6485437 L24.2631948,34.6040803 L24.2483737,34.8708604 L24.6040803,35.1969248 L24.5003326,35.3154937 L24.1298048,35.2710304 C24.1298048,35.2710304 24.0112359,35.2562093 23.9667725,35.5674526 C23.9667725,35.5674526 22.5439458,36.3529715 22.4253769,36.6049304 C22.2919869,36.8420682 21.8473536,36.6197515 21.8473536,36.6197515 L21.8473536,36.3974349 L21.9807436,36.2492237 L21.8621747,36.1602971 L21.6991425,36.1751182 L21.6695002,36.278866 L21.6102158,36.2640448 C21.6102158,36.2640448 21.5805736,35.8194115 21.9807436,35.6563793 C21.9807436,35.6563793 22.0252069,35.4192415 21.8325325,35.1672826 C21.639858,34.9301448 21.6102158,33.8037403 21.6102158,33.8037403 C21.6102158,33.8037403 21.3878991,33.625887 21.3137936,33.7444559 C21.239688,33.8630248 21.1211191,33.8778459 21.1211191,34.3076581 C21.1211191,34.7374703 21.239688,36.545646 21.239688,36.545646 C21.239688,36.545646 21.5509313,37.2274171 21.6695002,37.1977749 C21.7880691,37.1681327 21.6546791,37.479376 21.5805736,37.5683027 C21.506468,37.6572293 21.373078,37.7313349 20.9432658,37.4052704 C20.5134535,37.0940271 20.6616646,35.7897693 20.6616646,35.7897693 C20.6616646,35.7897693 19.9947146,34.6189015 20.0095357,33.6703503 L19.5500813,33.4480336 L19.4018702,33.5369603 C19.4018702,33.5369603 19.0313424,33.5073181 18.7793835,33.0478636 L18.5126035,33.0626847 L18.5570668,32.4253769 C18.5570668,32.4253769 18.4384979,32.3512714 18.3792135,32.4253769 C18.319929,32.4994825 17.7715479,33.2701803 17.7715479,33.3442859 C17.7715479,33.4183914 17.8011901,33.5221392 18.053149,33.5221392 C18.3051079,33.5073181 18.5126035,33.9074881 18.5274246,33.9667725 C18.5422457,34.026057 18.5718879,34.2483737 18.5718879,34.2483737 L18.4088557,34.3076581 C18.4088557,34.3076581 18.0679701,34.292837 17.7419057,33.9519514 C17.7419057,33.9519514 17.3417356,34.0556992 17.5640523,34.1298048 C17.786369,34.2187314 17.9345801,34.5151537 18.186539,34.5744381 C18.4384979,34.6189015 18.4088557,34.9005026 18.4384979,34.9746081 C18.4681401,35.0487137 19.0017001,35.4192415 18.9127735,35.8935171 L18.1272546,35.5970948 L18.0976123,35.3006726 L17.9494012,35.2413881 L17.919759,35.0190715 C17.919759,35.0190715 17.2231667,34.292837 16.5413956,34.0408781 L16.7785334,33.6703503 C16.7785334,33.6703503 15.9781934,33.492497 15.7262345,33.2108958 C15.4742756,32.9292947 16.20051,32.5439458 16.20051,32.5439458 L16.3339,31.773248 L16.0226567,31.2100458 C16.0226567,31.2100458 16.0522989,29.9947146 16.7785334,29.8465035 C16.7785334,29.8465035 16.3635423,28.9720579 16.0967623,29.8168613 C15.8299823,30.6616646 15.93373,31.5953947 15.13339,31.4027202 C15.13339,31.4027202 15.4298122,30.8691602 15.3705278,30.6320224 L15.1185689,30.6468435 C15.1185689,30.6468435 15.2371378,30.439348 15.2816011,30.4097057 C15.3260645,30.3652424 15.2816011,30.1577469 15.2816011,30.1577469 L15,30.172568 C15,30.172568 15.2519589,30.0095357 15.2519589,29.8761457 C15.2519589,29.7427557 15.3705278,29.5797235 15.3705278,29.5797235 L15.2223167,29.4018702 C15.2223167,29.4018702 15.40017,28.1272546 15.9189089,28.0976123 C16.4376478,28.0679701 16.9119234,28.8683101 16.8081756,29.1647324 C16.719249,29.4611546 17.0897767,29.6241868 17.1638823,29.6538291 C17.2379879,29.6834713 17.6085156,29.6390079 18.6904568,30.0095357 L18.8090257,29.6241868 C18.8090257,29.6241868 19.0165213,29.5797235 19.0906268,29.7427557 C19.1647324,29.905788 19.2091957,29.5204391 19.2091957,29.5204391 L19.0461635,29.4315124 L19.0313424,27.9938646 C19.0313424,27.9938646 18.2458234,27.386199 18.2161812,27.0897767 C18.186539,26.7933545 18.6756357,26.2746156 18.7052779,26.2449734 C18.7349201,26.2153312 18.7497412,26.06712 18.7497412,26.06712 L18.319929,25.8448034 L18.4088557,25.7855189 L18.4088557,25.7855189 Z" id="path2393" fill="#260D0D"></path>
                </g>
            </g>
        </g>
    </g>
</svg>