<?xml version="1.0" encoding="UTF-8" standalone="no"?>
<svg width="40px" height="40px" viewBox="0 0 40 40" version="1.1" xmlns="http://www.w3.org/2000/svg" xmlns:xlink="http://www.w3.org/1999/xlink">
    <!-- Generator: Sketch 3.8.3 (29802) - http://www.bohemiancoding.com/sketch -->
    <title>US-WI-2</title>
    <desc>Created with Sketch.</desc>
    <defs></defs>
    <g id="Icons-{2}" stroke="none" stroke-width="1" fill="none" fill-rule="evenodd">
        <g id="US-WI-2">
            <g id="Shape">
                <path d="M0,2.5 C0,1.11928304 1.11928304,0 2.5,0 L37.5,0 C38.880717,0 40,1.11928304 40,2.5 L40,37.5 C40,38.880717 38.880717,40 37.5,40 L2.5,40 C1.11928304,40 0,38.880717 0,37.5 L0,2.5 L0,2.5 L0,2.5 Z" fill="#000000"></path>
                <path d="M34.9945652,4 L32.9719203,7.67753623 L34.0751812,7.67753623 C35.5984497,7.67753623 36.8333333,8.91241986 36.8333333,10.4356884 L36.8333333,30.6621377 C36.8333333,32.1854062 35.5984497,33.4202899 34.0751812,33.4202899 L21.3876812,33.4202899 L19.9166667,36.178442 L18.4456522,33.4202899 L5.75815217,33.4202899 C4.23483873,33.4202899 3,32.1854062 3,30.6621377 L3,10.4356884 C3,8.91241986 4.23483873,7.67753623 5.75815217,7.67753623 L6.86141304,7.67753623 L4.83876812,4 L34.9945652,4 L34.9945652,4 Z" fill="#FFFFFF"></path>
            </g>
        </g>
    </g>
</svg>