<?xml version="1.0" encoding="UTF-8" standalone="no"?>
<svg width="60px" height="40px" viewBox="0 0 60 40" version="1.1" xmlns="http://www.w3.org/2000/svg" xmlns:xlink="http://www.w3.org/1999/xlink">
    <!-- Generator: Sketch 3.8.3 (29802) - http://www.bohemiancoding.com/sketch -->
    <title>US-WY-3</title>
    <desc>Created with Sketch.</desc>
    <defs></defs>
    <g id="Icons-{3}" stroke="none" stroke-width="1" fill="none" fill-rule="evenodd">
        <g id="US-WY-3">
            <g>
                <rect id="Rectangle-57" fill="#000000" x="0" y="0" width="60" height="40" rx="2"></rect>
                <rect id="Rectangle-57" fill="#FFCA08" x="1" y="1" width="58" height="38" rx="2"></rect>
                <g id="Text" transform="translate(12.000000, 3.000000)" fill="#260D0D">
                    <polygon id="polygon2379" points="4.55885827 7.26649312 3.6920028 7.26649312 3.02358412 3.57974635 2.35516544 7.26649312 1.45697785 7.26649312 0.349909412 0.206320842 1.33164934 0.206320842 1.93740377 3.9661759 2.61626649 0.206320842 3.42045771 0.206320842 4.08887639 3.9661759 4.70507486 0.206320842 5.69725883 0.206320842"></polygon>
                    <polygon id="polygon2381" points="8.87224755 4.07061632 8.87224755 7.26649312 7.85917549 7.26649312 7.85917549 4.07061632 6.1150205 0.206320842 7.18031277 0.206320842 8.37093354 2.75466705 9.54066622 0.206320842 10.6268466 0.206320842"></polygon>
                    <path d="M15.6190986,3.72596294 C15.6190986,4.26905311 15.5877664,4.72859095 15.5251022,5.10457646 C15.4624379,5.48056197 15.3579975,5.84610343 15.2117809,6.18031277 C15.0342322,6.59807444 14.8149073,6.9113957 14.5538063,7.09938845 C14.2927053,7.2873812 13.9584959,7.39182162 13.5616223,7.39182162 C13.1438607,7.39182162 12.7992073,7.29782524 12.5276622,7.09938845 C12.2665611,6.90095166 12.0472363,6.59807444 11.8696876,6.18031277 C11.723471,5.83565939 11.6190305,5.47011792 11.5563663,5.09413242 C11.493702,4.71814691 11.4623699,4.25860907 11.4623699,3.7155189 C11.4623699,3.18287276 11.493702,2.72333492 11.5563663,2.33690538 C11.6190305,1.95047583 11.723471,1.59537841 11.8696876,1.26116907 C12.0576803,0.843407394 12.2770052,0.530086139 12.5381062,0.352537428 C12.7992073,0.164544675 13.1438607,0.0705482981 13.5616223,0.0705482981 C13.96894,0.0705482981 14.3031493,0.164544675 14.5642503,0.352537428 C14.8253514,0.54053018 15.0446763,0.853851435 15.222225,1.28205715 C15.2953333,1.45960586 15.3579975,1.63715457 15.4102177,1.80425924 C15.4624379,1.98180795 15.5042141,2.16980071 15.5355462,2.35779346 C15.5668784,2.54578621 15.5877664,2.75466705 15.6086545,2.98443597 C15.6086545,3.21420489 15.6190986,3.45441785 15.6190986,3.72596294 L15.6190986,3.72596294 Z M14.6478027,3.72596294 C14.6478027,3.52752614 14.6373586,3.34997743 14.6269146,3.18287276 C14.6164706,3.02621214 14.6060265,2.86955151 14.5851384,2.73377896 C14.5642503,2.59800642 14.5433623,2.46223388 14.5120301,2.33690538 C14.480698,2.21157687 14.4493659,2.08624837 14.4180338,1.96091987 C14.3240374,1.64759861 14.2091529,1.41782969 14.0733804,1.27161311 C13.9376078,1.13584056 13.7600591,1.06273227 13.5511783,1.06273227 C13.1125285,1.06273227 12.8096513,1.35516544 12.6529907,1.94003179 C12.5694384,2.21157687 12.5067741,2.47267792 12.475442,2.74422301 C12.4441099,3.01576809 12.4232218,3.34997743 12.4232218,3.73640698 C12.4232218,3.92439973 12.4232218,4.10194844 12.4336658,4.25860907 C12.4441099,4.4152697 12.4545539,4.56148629 12.475442,4.69725883 C12.4963301,4.83303137 12.5172181,4.96880392 12.5485503,5.10457646 C12.5798824,5.240349 12.6112145,5.37612155 12.6425466,5.51189409 C12.8096513,6.09676043 13.1020845,6.38919361 13.5407342,6.38919361 C13.7496151,6.38919361 13.9271638,6.31608531 14.0629363,6.18031277 C14.1987089,6.04454023 14.3135933,5.8147713 14.4075897,5.51189409 C14.4493659,5.36567751 14.480698,5.240349 14.5120301,5.10457646 C14.5433623,4.97924796 14.5642503,4.84347541 14.5851384,4.69725883 C14.6060265,4.56148629 14.6164706,4.40482566 14.6164706,4.24816503 C14.6478027,4.11239249 14.6478027,3.92439973 14.6478027,3.72596294 L14.6478027,3.72596294 Z" id="path2383"></path>
                    <polygon id="polygon2385" points="20.6531267 7.26649312 20.6531267 3.30820127 19.3580655 7.26649312 18.0421163 3.30820127 18.0421163 7.26649312 17.0290442 7.26649312 17.0290442 0.206320842 18.0421163 0.206320842 19.3580655 4.1646127 20.6531267 0.206320842 21.6870869 0.206320842 21.6870869 7.26649312"></polygon>
                    <rect id="rect2387" x="23.222361" y="0.206320946" width="0.992183974" height="7.06017207"></rect>
                    <polygon id="polygon2389" points="28.966584 7.26649312 26.7837793 2.53534217 26.7837793 7.26649312 25.7707072 7.26649312 25.7707072 0.206320842 26.7837793 0.206320842 28.7263711 4.44660182 28.7263711 0.206320842 29.7394431 0.206320842 29.7394431 7.26649312"></polygon>
                    <path d="M35.0450164,5.92965576 C35.0136842,6.09676043 34.961464,6.25342106 34.8883557,6.41008169 C34.7525832,6.72340294 34.5437024,6.96361591 34.2721573,7.14116462 C34.0006122,7.31871333 33.6872909,7.40226566 33.3321935,7.40226566 C32.9144318,7.40226566 32.5488904,7.29782524 32.2460132,7.09938845 C31.9431359,6.90095166 31.702923,6.59807444 31.5253743,6.19075681 C31.4104898,5.91921172 31.3269375,5.5641143 31.2538292,5.1150205 C31.1911649,4.6659267 31.1493888,4.2168329 31.1493888,3.74685102 C31.1493888,3.24553701 31.1702769,2.80688726 31.2224971,2.43090175 C31.2642732,2.05491625 31.3582696,1.69981882 31.4835981,1.35516544 C31.5462624,1.16717269 31.6402587,1.00006802 31.7551432,0.843407394 C31.8700277,0.686746766 32.0058002,0.550974222 32.1624608,0.436089762 C32.3191215,0.321205302 32.4862261,0.227208926 32.6742189,0.164544675 C32.8622116,0.101880424 33.0606484,0.0705482981 33.2590852,0.0705482981 C33.5097422,0.0705482981 33.7499552,0.112324465 33.9692801,0.206320842 C34.1886049,0.300317218 34.3765977,0.415201678 34.5332583,0.571862306 C34.6899189,0.728522933 34.8256915,0.916515686 34.9196879,1.13584056 C35.0136842,1.35516544 35.0763485,1.59537841 35.0867925,1.85647945 L34.0737205,1.85647945 C34.0632764,1.61626649 33.9797241,1.42827374 33.8230635,1.28205715 C33.6768469,1.13584056 33.4784101,1.06273227 33.2277531,1.06273227 C32.8726557,1.06273227 32.6115546,1.24028098 32.4235619,1.58493436 C32.3295655,1.76248307 32.2460132,2.03402816 32.193793,2.38912558 C32.1415727,2.75466705 32.1102406,3.1410966 32.1102406,3.56930231 C32.1102406,3.86173548 32.1206847,4.1646127 32.1415727,4.46748991 C32.1624608,4.77036712 32.204237,5.06280029 32.2564572,5.33434538 C32.3295655,5.67899876 32.454894,5.94009981 32.6324427,6.12809256 C32.8099914,6.31608531 33.0293163,6.39963765 33.3008614,6.39963765 C33.8126194,6.39963765 34.0737205,6.03409618 34.0737205,5.30301326 L34.0737205,4.84347541 L33.2695293,4.84347541 L33.2695293,3.85129144 L35.0867925,3.85129144 L35.0867925,5.30301326 C35.0867925,5.55367026 35.0763485,5.7625511 35.0450164,5.92965576 L35.0450164,5.92965576 Z" id="path2391"></path>
                </g>
                <path d="M29.4021296,29.5535342 C29.4021296,29.5535342 29.5587902,29.3237653 29.9452198,29.3028772 L30.1958768,29 C30.1958768,29 30.5614183,29.1148845 30.5614183,29.3133213 C30.5614183,29.3133213 30.4778659,29.4699819 31.0836204,29.240213 L31.1880608,29.3028772 L30.9060716,29.6057544 C30.9060716,29.6057544 30.2167649,29.6579746 29.9765519,29.9608518 C29.9765519,29.9608518 29.7676711,30.0757363 29.7154509,30.3577254 L30.1227685,30.7128229 L30.3629815,30.3055052 L30.5718623,30.5666063 L30.6658587,30.5874944 C30.6658587,30.5874944 30.8538514,30.1592886 31.1253965,30.2010648 C31.1253965,30.2010648 31.5849344,30.4099456 31.5849344,30.6606027 C31.5849344,30.6606027 31.2298369,30.754599 31.2193929,30.9112597 L30.989624,30.994812 L30.8956276,31.0157001 L30.8434074,30.9843679 L30.8434074,31.1096964 L30.9165157,31.1410286 C30.9165157,31.1410286 31.1149525,31.0888084 31.4596059,32.5091981 L31.6893748,32.3629815 L31.8773675,32.4047576 C31.8773675,32.4047576 32.0340282,32.3525374 32.0340282,32.2272089 C32.0340282,32.2272089 32.1384686,32.1958768 32.1280245,32.2898732 C32.1175805,32.3838696 32.0966924,32.4569778 31.9504758,32.5405302 C31.8042592,32.6240825 31.8147033,32.4360898 31.741595,32.4674219 C31.6580427,32.498754 31.6058224,32.5300861 31.6058224,32.5718623 C31.6058224,32.6136385 31.8564795,32.6658587 31.9191437,32.7911872 C31.981808,32.9165157 31.8878116,32.8956276 31.8773675,32.8747395 C31.8669235,32.8538514 31.7207069,32.8434074 31.7102629,32.8642955 C31.6998188,32.8851836 31.4596059,32.9791799 31.5222701,33.0731763 C31.5744903,33.1671727 31.6998188,33.2716131 31.8147033,33.250725 C31.9295877,33.2298369 31.9504758,33.1567286 32.0235841,33.1776167 C32.0966924,33.1985048 32.1071365,33.3133893 32.1071365,33.3133893 L32.2011328,33.3342774 L32.2115769,33.2716131 C32.2115769,33.2716131 32.4100137,33.3551654 32.3264613,33.5849344 C32.242909,33.8147033 32.6815588,33.5536022 32.6606707,33.5222701 C32.6397826,33.490938 32.7128909,33.6580427 32.6606707,33.7102629 C32.6084505,33.7624831 32.9635479,33.8669235 32.984436,33.9191437 C33.0053241,33.9713639 33.0262121,34.0340282 32.9635479,34.0235841 C32.8904396,34.0131401 32.7233349,33.9191437 32.7128909,33.9609199 C32.7024468,34.002696 32.7233349,34.0444722 32.9113277,34.1384686 L33.1202085,34.0340282 C33.1202085,34.0340282 33.1724287,34.0340282 33.1724287,34.0966924 C33.1724287,34.1698007 32.9113277,34.2220209 33.0471002,34.3369054 C33.1828728,34.4517898 33.3290893,34.3995696 33.3290893,34.3995696 C33.3290893,34.3995696 33.3395334,34.493566 33.3395334,34.5875624 C33.3395334,34.6815588 33.4648619,34.6815588 33.4648619,34.6815588 L33.3082013,34.8486634 L33.4544179,34.8068873 C33.4544179,34.8068873 33.6006344,35.1724287 33.5170821,35.3604215 L33.7155189,35.4335298 L33.7050749,35.7990712 L33.5275261,35.7677391 L33.5170821,35.9557319 L33.7677391,36.1855008 L33.6946308,36.2690531 L33.4335298,36.237721 C33.4335298,36.237721 33.3499774,36.2272769 33.3186453,36.4466018 C33.3186453,36.4466018 32.3160173,37.000136 32.232465,37.1776848 C32.1384686,37.3447894 31.8251473,37.1881288 31.8251473,37.1881288 L31.8251473,37.0314682 L31.9191437,36.9270277 L31.8355914,36.8643635 L31.7207069,36.8748075 L31.6998188,36.9479158 L31.6580427,36.9374718 C31.6580427,36.9374718 31.6371546,36.6241505 31.9191437,36.5092661 C31.9191437,36.5092661 31.9504758,36.3421614 31.8147033,36.1646127 C31.6789307,35.997508 31.6580427,35.2037608 31.6580427,35.2037608 C31.6580427,35.2037608 31.501382,35.0784323 31.4491618,35.1619847 C31.3969416,35.245537 31.3133893,35.2559811 31.3133893,35.5588583 C31.3133893,35.8617355 31.3969416,37.1359086 31.3969416,37.1359086 C31.3969416,37.1359086 31.6162665,37.6163345 31.6998188,37.5954464 C31.7833712,37.5745583 31.6893748,37.7938832 31.6371546,37.8565475 C31.5849344,37.9192117 31.490938,37.9714319 31.1880608,37.741663 C30.8851836,37.5223381 30.989624,36.6032625 30.989624,36.6032625 C30.989624,36.6032625 30.5196421,35.7781831 30.5300861,35.1097645 L30.2063208,34.9531038 L30.1018804,35.0157681 C30.1018804,35.0157681 29.8407794,34.99488 29.6632307,34.6711147 L29.4752379,34.6815588 L29.50657,34.232465 C29.50657,34.232465 29.4230177,34.1802447 29.3812415,34.232465 C29.3394654,34.2846852 28.9530358,34.8277753 28.9530358,34.8799956 C28.9530358,34.9322158 28.9739239,35.0053241 29.1514726,35.0053241 C29.3290213,34.99488 29.4752379,35.2768691 29.485682,35.3186453 C29.496126,35.3604215 29.5170141,35.5170821 29.5170141,35.5170821 L29.4021296,35.5588583 C29.4021296,35.5588583 29.1619167,35.5484142 28.9321477,35.3082013 C28.9321477,35.3082013 28.6501586,35.3813096 28.8068192,35.4335298 C28.9634799,35.496194 29.0679203,35.7050749 29.245469,35.746851 C29.4230177,35.7781831 29.4021296,35.9766199 29.4230177,36.0288402 C29.4439058,36.0810604 29.8198913,36.3421614 29.757227,36.6763707 L29.2036928,36.4674899 L29.1828047,36.2586091 L29.0783643,36.2168329 L29.0574762,36.0601723 C29.0574762,36.0601723 28.5666063,35.5484142 28.0861804,35.3708655 L28.253285,35.1097645 C28.253285,35.1097645 27.6893068,34.984436 27.511758,34.7859992 C27.3342093,34.5875624 27.8459674,34.3160173 27.8459674,34.3160173 L27.9399638,33.7729271 L27.7206389,33.3760535 C27.7206389,33.3760535 27.741527,32.5196421 28.253285,32.4152017 C28.253285,32.4152017 27.9608518,31.7990032 27.7728591,32.3943136 C27.5848663,32.989624 27.6579746,33.6475986 27.0939964,33.5118261 C27.0939964,33.5118261 27.3028772,33.1358406 27.261101,32.9687359 L27.0835523,32.9791799 C27.0835523,32.9791799 27.1671047,32.8329634 27.1984368,32.8120753 C27.2297689,32.7807431 27.1984368,32.6345266 27.1984368,32.6345266 L27,32.6449706 C27,32.6449706 27.1775487,32.5300861 27.1775487,32.4360898 C27.1775487,32.3420934 27.261101,32.2272089 27.261101,32.2272089 L27.1566606,32.1018804 C27.1566606,32.1018804 27.2819891,31.2036928 27.6475306,31.1828047 C28.0130721,31.1619167 28.3472814,31.7258949 28.2741731,31.9347758 C28.2115089,32.1436566 28.4726099,32.2585411 28.5248301,32.2794291 C28.5770503,32.3003172 28.8381514,32.2689851 29.6005664,32.5300861 L29.6841188,32.2585411 C29.6841188,32.2585411 29.8303353,32.2272089 29.8825555,32.3420934 C29.9347758,32.4569778 29.9661079,32.1854328 29.9661079,32.1854328 L29.8512234,32.1227685 L29.8407794,31.1096964 C29.8407794,31.1096964 29.2872452,30.6814907 29.2663571,30.4726099 C29.245469,30.2637291 29.5901224,29.8981876 29.6110105,29.8772995 C29.6318985,29.8564114 29.6423426,29.751971 29.6423426,29.751971 L29.3394654,29.5953104 L29.4021296,29.5535342 L29.4021296,29.5535342 Z" id="path2393" fill="#260D0D"></path>
                <polygon id="polygon2395" fill="#FFCA08" points="20.7983568 32.9300639 20.6165386 33.2538292 20.9006295 33.5358183 21.0369931 33.5253743 21.1165386 33.452266 21.0029022 33.1285007 20.9006295 32.9300639"></polygon>
                <polygon id="polygon2397" fill="#FFCA08" points="18.4501916 35.3217495 18.0890805 35.7661939 18.5335249 35.8217495 18.5890805 35.4884161"></polygon>
            </g>
        </g>
    </g>
</svg>