<?xml version="1.0" encoding="UTF-8" standalone="no"?>
<svg width="40px" height="40px" viewBox="0 0 40 40" version="1.1" xmlns="http://www.w3.org/2000/svg" xmlns:xlink="http://www.w3.org/1999/xlink">
    <!-- Generator: Sketch 3.8.3 (29802) - http://www.bohemiancoding.com/sketch -->
    <title>US-WY-2</title>
    <desc>Created with Sketch.</desc>
    <defs></defs>
    <g id="Icons-{2}" stroke="none" stroke-width="1" fill="none" fill-rule="evenodd">
        <g id="US-WY-2">
            <g id="svg2374">
                <g>
                    <path d="M37.9014278,40.2304491 L2.05747624,40.2304491 C0.919075681,40.2304491 0,39.3218175 0,38.193861 L0,2.03658816 C0,0.908631639 0.919075681,0 2.05747624,0 L37.9118718,0 C39.0502724,0 39.9693481,0.908631639 39.9693481,2.03658816 L39.958904,38.193861 C39.958904,39.3218175 39.0398284,40.2304491 37.9014278,40.2304491 Z" id="path2377" stroke="#260D0D" stroke-width="2" fill="#FFCA08"></path>
                    <polygon id="polygon2379" fill="#260D0D" points="6.55885827 10.2664931 5.6920028 10.2664931 5.02358412 6.57974635 4.35516544 10.2664931 3.45697785 10.2664931 2.34990941 3.20632084 3.33164934 3.20632084 3.93740377 6.9661759 4.61626649 3.20632084 5.42045771 3.20632084 6.08887639 6.9661759 6.70507486 3.20632084 7.69725883 3.20632084"></polygon>
                    <polygon id="polygon2381" fill="#260D0D" points="10.8722475 7.07061632 10.8722475 10.2664931 9.85917549 10.2664931 9.85917549 7.07061632 8.1150205 3.20632084 9.18031277 3.20632084 10.3709335 5.75466705 11.5406662 3.20632084 12.6268466 3.20632084"></polygon>
                    <path d="M17.6190986,6.72596294 C17.6190986,7.26905311 17.5877664,7.72859095 17.5251022,8.10457646 C17.4624379,8.48056197 17.3579975,8.84610343 17.2117809,9.18031277 C17.0342322,9.59807444 16.8149073,9.9113957 16.5538063,10.0993884 C16.2927053,10.2873812 15.9584959,10.3918216 15.5616223,10.3918216 C15.1438607,10.3918216 14.7992073,10.2978252 14.5276622,10.0993884 C14.2665611,9.90095166 14.0472363,9.59807444 13.8696876,9.18031277 C13.723471,8.83565939 13.6190305,8.47011792 13.5563663,8.09413242 C13.493702,7.71814691 13.4623699,7.25860907 13.4623699,6.7155189 C13.4623699,6.18287276 13.493702,5.72333492 13.5563663,5.33690538 C13.6190305,4.95047583 13.723471,4.59537841 13.8696876,4.26116907 C14.0576803,3.84340739 14.2770052,3.53008614 14.5381062,3.35253743 C14.7992073,3.16454467 15.1438607,3.0705483 15.5616223,3.0705483 C15.96894,3.0705483 16.3031493,3.16454467 16.5642503,3.35253743 C16.8253514,3.54053018 17.0446763,3.85385144 17.222225,4.28205715 C17.2953333,4.45960586 17.3579975,4.63715457 17.4102177,4.80425924 C17.4624379,4.98180795 17.5042141,5.16980071 17.5355462,5.35779346 C17.5668784,5.54578621 17.5877664,5.75466705 17.6086545,5.98443597 C17.6086545,6.21420489 17.6190986,6.45441785 17.6190986,6.72596294 L17.6190986,6.72596294 Z M16.6478027,6.72596294 C16.6478027,6.52752614 16.6373586,6.34997743 16.6269146,6.18287276 C16.6164706,6.02621214 16.6060265,5.86955151 16.5851384,5.73377896 C16.5642503,5.59800642 16.5433623,5.46223388 16.5120301,5.33690538 C16.480698,5.21157687 16.4493659,5.08624837 16.4180338,4.96091987 C16.3240374,4.64759861 16.2091529,4.41782969 16.0733804,4.27161311 C15.9376078,4.13584056 15.7600591,4.06273227 15.5511783,4.06273227 C15.1125285,4.06273227 14.8096513,4.35516544 14.6529907,4.94003179 C14.5694384,5.21157687 14.5067741,5.47267792 14.475442,5.74422301 C14.4441099,6.01576809 14.4232218,6.34997743 14.4232218,6.73640698 C14.4232218,6.92439973 14.4232218,7.10194844 14.4336658,7.25860907 C14.4441099,7.4152697 14.4545539,7.56148629 14.475442,7.69725883 C14.4963301,7.83303137 14.5172181,7.96880392 14.5485503,8.10457646 C14.5798824,8.240349 14.6112145,8.37612155 14.6425466,8.51189409 C14.8096513,9.09676043 15.1020845,9.38919361 15.5407342,9.38919361 C15.7496151,9.38919361 15.9271638,9.31608531 16.0629363,9.18031277 C16.1987089,9.04454023 16.3135933,8.8147713 16.4075897,8.51189409 C16.4493659,8.36567751 16.480698,8.240349 16.5120301,8.10457646 C16.5433623,7.97924796 16.5642503,7.84347541 16.5851384,7.69725883 C16.6060265,7.56148629 16.6164706,7.40482566 16.6164706,7.24816503 C16.6478027,7.11239249 16.6478027,6.92439973 16.6478027,6.72596294 L16.6478027,6.72596294 Z" id="path2383" fill="#260D0D"></path>
                    <polygon id="polygon2385" fill="#260D0D" points="22.6531267 10.2664931 22.6531267 6.30820127 21.3580655 10.2664931 20.0421163 6.30820127 20.0421163 10.2664931 19.0290442 10.2664931 19.0290442 3.20632084 20.0421163 3.20632084 21.3580655 7.1646127 22.6531267 3.20632084 23.6870869 3.20632084 23.6870869 10.2664931"></polygon>
                    <rect id="rect2387" fill="#260D0D" x="25.222361" y="3.20632095" width="0.992183974" height="7.06017207"></rect>
                    <polygon id="polygon2389" fill="#260D0D" points="30.966584 10.2664931 28.7837793 5.53534217 28.7837793 10.2664931 27.7707072 10.2664931 27.7707072 3.20632084 28.7837793 3.20632084 30.7263711 7.44660182 30.7263711 3.20632084 31.7394431 3.20632084 31.7394431 10.2664931"></polygon>
                    <path d="M37.0450164,8.92965576 C37.0136842,9.09676043 36.961464,9.25342106 36.8883557,9.41008169 C36.7525832,9.72340294 36.5437024,9.96361591 36.2721573,10.1411646 C36.0006122,10.3187133 35.6872909,10.4022657 35.3321935,10.4022657 C34.9144318,10.4022657 34.5488904,10.2978252 34.2460132,10.0993884 C33.9431359,9.90095166 33.702923,9.59807444 33.5253743,9.19075681 C33.4104898,8.91921172 33.3269375,8.5641143 33.2538292,8.1150205 C33.1911649,7.6659267 33.1493888,7.2168329 33.1493888,6.74685102 C33.1493888,6.24553701 33.1702769,5.80688726 33.2224971,5.43090175 C33.2642732,5.05491625 33.3582696,4.69981882 33.4835981,4.35516544 C33.5462624,4.16717269 33.6402587,4.00006802 33.7551432,3.84340739 C33.8700277,3.68674677 34.0058002,3.55097422 34.1624608,3.43608976 C34.3191215,3.3212053 34.4862261,3.22720893 34.6742189,3.16454467 C34.8622116,3.10188042 35.0606484,3.0705483 35.2590852,3.0705483 C35.5097422,3.0705483 35.7499552,3.11232447 35.9692801,3.20632084 C36.1886049,3.30031722 36.3765977,3.41520168 36.5332583,3.57186231 C36.6899189,3.72852293 36.8256915,3.91651569 36.9196879,4.13584056 C37.0136842,4.35516544 37.0763485,4.59537841 37.0867925,4.85647945 L36.0737205,4.85647945 C36.0632764,4.61626649 35.9797241,4.42827374 35.8230635,4.28205715 C35.6768469,4.13584056 35.4784101,4.06273227 35.2277531,4.06273227 C34.8726557,4.06273227 34.6115546,4.24028098 34.4235619,4.58493436 C34.3295655,4.76248307 34.2460132,5.03402816 34.193793,5.38912558 C34.1415727,5.75466705 34.1102406,6.1410966 34.1102406,6.56930231 C34.1102406,6.86173548 34.1206847,7.1646127 34.1415727,7.46748991 C34.1624608,7.77036712 34.204237,8.06280029 34.2564572,8.33434538 C34.3295655,8.67899876 34.454894,8.94009981 34.6324427,9.12809256 C34.8099914,9.31608531 35.0293163,9.39963765 35.3008614,9.39963765 C35.8126194,9.39963765 36.0737205,9.03409618 36.0737205,8.30301326 L36.0737205,7.84347541 L35.2695293,7.84347541 L35.2695293,6.85129144 L37.0867925,6.85129144 L37.0867925,8.30301326 C37.0867925,8.55367026 37.0763485,8.7625511 37.0450164,8.92965576 L37.0450164,8.92965576 Z" id="path2391" fill="#260D0D"></path>
                    <path d="M19.3214774,30.2877213 C19.3214774,30.2877213 19.478138,30.0579524 19.8645676,30.0370643 L20.1152246,29.7341871 C20.1152246,29.7341871 20.480766,29.8490716 20.480766,30.0475083 C20.480766,30.0475083 20.3972137,30.204169 21.0029681,29.9744001 L21.1074085,30.0370643 L20.8254194,30.3399415 C20.8254194,30.3399415 20.1361126,30.3921617 19.8958997,30.6950389 C19.8958997,30.6950389 19.6870189,30.8099234 19.6347986,31.0919125 L20.0421163,31.44701 L20.2823292,31.0396923 L20.4912101,31.3007934 L20.5852064,31.3216814 C20.5852064,31.3216814 20.7731992,30.8934757 21.0447443,30.9352519 C21.0447443,30.9352519 21.5042821,31.1441327 21.5042821,31.3947897 C21.5042821,31.3947897 21.1491847,31.4887861 21.1387407,31.6454467 L20.9089717,31.7289991 L20.8149754,31.7498872 L20.7627552,31.718555 L20.7627552,31.8438835 L20.8358635,31.8752157 C20.8358635,31.8752157 21.0343002,31.8229955 21.3789536,33.2433851 L21.6087225,33.0971686 L21.7967153,33.1389447 C21.7967153,33.1389447 21.9533759,33.0867245 21.9533759,32.961396 C21.9533759,32.961396 22.0578163,32.9300639 22.0473723,33.0240603 C22.0369283,33.1180566 22.0160402,33.1911649 21.8698236,33.2747173 C21.723607,33.3582696 21.734051,33.1702769 21.6609428,33.201609 C21.5773904,33.2329411 21.5251702,33.2642732 21.5251702,33.3060494 C21.5251702,33.3478256 21.7758272,33.4000458 21.8384915,33.5253743 C21.9011557,33.6507028 21.8071593,33.6298147 21.7967153,33.6089266 C21.7862713,33.5880385 21.6400547,33.5775945 21.6296106,33.5984826 C21.6191666,33.6193707 21.3789536,33.713367 21.4416179,33.8073634 C21.4938381,33.9013598 21.6191666,34.0058002 21.734051,33.9849121 C21.8489355,33.964024 21.8698236,33.8909157 21.9429319,33.9118038 C22.0160402,33.9326919 22.0264842,34.0475764 22.0264842,34.0475764 L22.1204806,34.0684645 L22.1309246,34.0058002 C22.1309246,34.0058002 22.3293614,34.0893525 22.2458091,34.3191215 C22.1622568,34.5488904 22.6009065,34.2877893 22.5800184,34.2564572 C22.5591304,34.2251251 22.6322386,34.3922297 22.5800184,34.44445 C22.5277982,34.4966702 22.8828957,34.6011106 22.9037837,34.6533308 C22.9246718,34.705551 22.9455599,34.7682153 22.8828957,34.7577712 C22.8097874,34.7473272 22.6426827,34.6533308 22.6322386,34.695107 C22.6217946,34.7368831 22.6426827,34.7786593 22.8306754,34.8726557 L23.0395563,34.7682153 C23.0395563,34.7682153 23.0917765,34.7682153 23.0917765,34.8308795 C23.0917765,34.9039878 22.8306754,34.956208 22.966448,35.0710925 C23.1022205,35.1859769 23.2484371,35.1337567 23.2484371,35.1337567 C23.2484371,35.1337567 23.2588812,35.2277531 23.2588812,35.3217495 C23.2588812,35.4157458 23.3842097,35.4157458 23.3842097,35.4157458 L23.227549,35.5828505 L23.3737656,35.5410743 C23.3737656,35.5410743 23.5199822,35.9066158 23.4364299,36.0946086 L23.6348667,36.1677169 L23.6244226,36.5332583 L23.4468739,36.5019262 L23.4364299,36.6899189 L23.6870869,36.9196879 L23.6139786,37.0032402 L23.3528775,36.9719081 C23.3528775,36.9719081 23.2693252,36.961464 23.2379931,37.1807889 C23.2379931,37.1807889 22.2353651,37.7343231 22.1518127,37.9118718 C22.0578163,38.0789765 21.7444951,37.9223159 21.7444951,37.9223159 L21.7444951,37.7656553 L21.8384915,37.6612148 L21.7549391,37.5985506 L21.6400547,37.6089946 L21.6191666,37.6821029 L21.5773904,37.6716589 C21.5773904,37.6716589 21.5565023,37.3583376 21.8384915,37.2434532 C21.8384915,37.2434532 21.8698236,37.0763485 21.734051,36.8987998 C21.5982785,36.7316951 21.5773904,35.9379479 21.5773904,35.9379479 C21.5773904,35.9379479 21.4207298,35.8126194 21.3685096,35.8961718 C21.3162894,35.9797241 21.232737,35.9901681 21.232737,36.2930454 C21.232737,36.5959226 21.3162894,37.8700957 21.3162894,37.8700957 C21.3162894,37.8700957 21.5356143,38.3505216 21.6191666,38.3296335 C21.7027189,38.3087454 21.6087225,38.5280703 21.5565023,38.5907346 C21.5042821,38.6533988 21.4102858,38.705619 21.1074085,38.4758501 C20.8045313,38.2565252 20.9089717,37.3374495 20.9089717,37.3374495 C20.9089717,37.3374495 20.4389899,36.5123702 20.4494339,35.8439516 L20.1256686,35.6872909 L20.0212282,35.7499552 C20.0212282,35.7499552 19.7601271,35.7290671 19.5825784,35.4053018 L19.3945857,35.4157458 L19.4259178,34.966652 C19.4259178,34.966652 19.3423655,34.9144318 19.3005893,34.966652 C19.2588131,35.0188723 18.8723836,35.5619624 18.8723836,35.6141826 C18.8723836,35.6664029 18.8932717,35.7395111 19.0708204,35.7395111 C19.2483691,35.7290671 19.3945857,36.0110562 19.4050297,36.0528324 C19.4154738,36.0946086 19.4363618,36.2512692 19.4363618,36.2512692 L19.3214774,36.2930454 C19.3214774,36.2930454 19.0812644,36.2826013 18.8514955,36.0423884 C18.8514955,36.0423884 18.5695064,36.1154966 18.726167,36.1677169 C18.8828276,36.2303811 18.987268,36.4392619 19.1648168,36.4810381 C19.3423655,36.5123702 19.3214774,36.710807 19.3423655,36.7630272 C19.3632536,36.8152475 19.7392391,37.0763485 19.6765748,37.4105578 L19.1230406,37.201677 L19.1021525,36.9927962 L18.9977121,36.95102 L18.976824,36.7943594 C18.976824,36.7943594 18.485954,36.2826013 18.0055281,36.1050526 L18.1726328,35.8439516 C18.1726328,35.8439516 17.6086545,35.7186231 17.4311058,35.5201863 C17.2535571,35.3217495 17.7653152,35.0502044 17.7653152,35.0502044 L17.8593115,34.5071142 L17.6399867,34.1102406 C17.6399867,34.1102406 17.6608747,33.2538292 18.1726328,33.1493888 C18.1726328,33.1493888 17.8801996,32.5331903 17.6922069,33.1285007 C17.5042141,33.7238111 17.5773224,34.3817857 17.0133441,34.2460132 C17.0133441,34.2460132 17.222225,33.8700277 17.1804488,33.702923 L17.0029001,33.713367 C17.0029001,33.713367 17.0864524,33.5671504 17.1177846,33.5462624 C17.1491167,33.5149302 17.1177846,33.3687136 17.1177846,33.3687136 L16.9193478,33.3791577 C16.9193478,33.3791577 17.0968965,33.2642732 17.0968965,33.1702769 C17.0968965,33.0762805 17.1804488,32.961396 17.1804488,32.961396 L17.0760084,32.8360675 C17.0760084,32.8360675 17.2013369,31.9378799 17.5668784,31.9169918 C17.9324198,31.8961037 18.2666292,32.460082 18.1935209,32.6689628 C18.1308566,32.8778437 18.3919577,32.9927281 18.4441779,33.0136162 C18.4963981,33.0345043 18.7574991,33.0031722 19.5199142,33.2642732 L19.6034665,32.9927281 C19.6034665,32.9927281 19.7496831,32.961396 19.8019033,33.0762805 C19.8541235,33.1911649 19.8854556,32.9196198 19.8854556,32.9196198 L19.7705712,32.8569556 L19.7601271,31.8438835 C19.7601271,31.8438835 19.2065929,31.4156778 19.1857048,31.206797 C19.1648168,30.9979162 19.5094701,30.6323747 19.5303582,30.6114866 C19.5512463,30.5905985 19.5616903,30.4861581 19.5616903,30.4861581 L19.2588131,30.3294975 L19.3214774,30.2877213 L19.3214774,30.2877213 Z" id="path2393" fill="#260D0D"></path>
                    <polygon id="polygon2395" fill="#FFCA08" points="20.7983568 32.9300639 20.6165386 33.2538292 20.9006295 33.5358183 21.0369931 33.5253743 21.1165386 33.452266 21.0029022 33.1285007 20.9006295 32.9300639"></polygon>
                    <polygon id="polygon2397" fill="#FFCA08" points="18.4501916 35.3217495 18.0890805 35.7661939 18.5335249 35.8217495 18.5890805 35.4884161"></polygon>
                </g>
            </g>
        </g>
    </g>
</svg>