<?xml version="1.0" encoding="UTF-8" standalone="no"?>
<svg width="40px" height="40px" viewBox="0 0 40 40" version="1.1" xmlns="http://www.w3.org/2000/svg" xmlns:xlink="http://www.w3.org/1999/xlink">
    <!-- Generator: Sketch 3.8.3 (29802) - http://www.bohemiancoding.com/sketch -->
    <title>US-WV-2</title>
    <desc>Created with Sketch.</desc>
    <defs></defs>
    <g id="Icons-{2}" stroke="none" stroke-width="1" fill="none" fill-rule="evenodd">
        <g id="US-WV-2">
            <g id="Shape">
                <path d="M0.0332778702,2.78730851 C0.0332778702,1.26630499 1.26627137,0.0332778702 2.78730851,0.0332778702 L37.2126915,0.0332778702 C38.7337286,0.0332778702 39.9667221,1.26630499 39.9667221,2.78730851 L39.9667221,37.2126915 C39.9667221,38.7337286 38.7337286,39.9667221 37.2126915,39.9667221 L2.78730851,39.9667221 C1.26627137,39.9667221 0.0332778702,38.7337286 0.0332778702,37.2126915 L0.0332778702,2.78730851 L0.0332778702,2.78730851 L0.0332778702,2.78730851 Z" fill="#000000"></path>
                <path d="M3.33333333,4.84848485 C3.33333333,4.01168916 4.01165956,3.33333333 4.84848485,3.33333333 L35.1515152,3.33333333 C35.9883404,3.33333333 36.6666667,4.01168916 36.6666667,4.84848485 L36.6666667,35.1515152 C36.6666667,35.9883404 35.9883404,36.6666667 35.1515152,36.6666667 L4.84848485,36.6666667 C4.01165956,36.6666667 3.33333333,35.9883404 3.33333333,35.1515152 L3.33333333,4.84848485 L3.33333333,4.84848485 L3.33333333,4.84848485 Z" fill="#FFFFFF"></path>
            </g>
        </g>
    </g>
</svg>