<?xml version="1.0" encoding="UTF-8" standalone="no"?>
<svg width="40px" height="40px" viewBox="0 0 40 40" version="1.1" xmlns="http://www.w3.org/2000/svg" xmlns:xlink="http://www.w3.org/1999/xlink">
    <!-- Generator: Sketch 3.8.3 (29802) - http://www.bohemiancoding.com/sketch -->
    <title>US-WA-2</title>
    <desc>Created with Sketch.</desc>
    <defs></defs>
    <g id="Icons-{2}" stroke="none" stroke-width="1" fill="none" fill-rule="evenodd">
        <g id="US-WA-2">
            <g id="Layer_1">
                <g>
                    <g id="Shield_202_">
                        <path d="M40,36.1484667 C40,38.275 38.275,40 36.1484667,40 L3.85213333,40 C1.7246,40 0,38.275 0,36.1484667 L0,3.85213333 C0,1.7246 1.7246,0 3.85213333,0 L36.1484,0 C38.275,0 40,1.7246 40,3.85213333 L40,36.1484667 L40,36.1484667 Z" id="Background_1_" fill="#000000"></path>
                        <path d="M4.625,20.3 C3.9,20.225 2.724,20.7004 2.4,19.85 C2.2,19.325 3.86426667,15.0654 4.725,14.25 C5.2,13.8 4.42346667,12.7058667 4.8,12 C6.28066667,9.2238 6.4086,8.64806667 7.6242,6.53653333 C7.816,6.20353333 8.79646667,5.42966667 9.15993333,4.93713333 C9.47966667,4.36113333 10.2681333,2.98693333 10.8,2.8 C13.6386667,1.80193333 16.1980667,0.970133333 20.0369333,0.970133333 C24.452,0.970133333 28.5629333,2.57326667 30.7332,5.9334 C32.8,9.1334 32.8,11.2666 33.6668,13.8 C34.1035333,15.076 35.9656,16.9466667 36.4668,18.2 C37.1332,19.8666 36.3875333,22.6554667 35.8668,23.2668 C34.3332,25.0668 31.3937333,26.6226667 30.9332,27.4668 C30.5332,28.2 30.9312667,30.266 31.8668,30.6668 C33.3336,30.2004 33.5332,29.4668 34.8,29.6668 C34.0668,31.0668 34.3355333,31.6406 34.2,32.0668 C33.7332,33.5332 33.1492,33.1890667 33.2,34 C33.2668,35.0668 37.1332,36.1332 37.2668,39.2668 L4.6666,39.2668 C7.4666,35.0668 9.5254,35.2378667 11.6,31.5332 C12.4494,30.0164 11.6002,28.9621333 9.95,28.55 C7.9742,28.0566667 4.425,28.325 4.125,26.65 C3.97926667,25.8363333 4.775,25.075 4.8,24.15 C4.8156,23.5746 4.35,22.925 4.35,22.925 C4.35,22.925 4.75,21.1 4.625,20.3 L4.625,20.3 Z" id="Head_1_" fill="#FFFFFF"></path>
                    </g>
                </g>
            </g>
        </g>
    </g>
</svg>