<?xml version="1.0" encoding="UTF-8" standalone="no"?>
<!-- Created with Inkscape (http://www.inkscape.org/) -->
<svg
   xmlns:dc="http://purl.org/dc/elements/1.1/"
   xmlns:cc="http://web.resource.org/cc/"
   xmlns:rdf="http://www.w3.org/1999/02/22-rdf-syntax-ns#"
   xmlns:svg="http://www.w3.org/2000/svg"
   xmlns="http://www.w3.org/2000/svg"
   xmlns:sodipodi="http://sodipodi.sourceforge.net/DTD/sodipodi-0.dtd"
   xmlns:inkscape="http://www.inkscape.org/namespaces/inkscape"
   width="600"
   height="600"
   id="svg2"
   sodipodi:version="0.32"
   inkscape:version="0.44"
   version="1.0"
   sodipodi:docbase="C:\Documents and Settings\ltljltlj\Desktop\Signs\State Route Shields\Alabama\Done"
   sodipodi:docname="Alabama 3.svg">
  <defs
     id="defs4" />
  <sodipodi:namedview
     id="base"
     pagecolor="#ffffff"
     bordercolor="#666666"
     borderopacity="1.0"
     inkscape:pageopacity="0.0"
     inkscape:pageshadow="2"
     inkscape:zoom="1.28"
     inkscape:cx="300.00001"
     inkscape:cy="300"
     inkscape:document-units="px"
     inkscape:current-layer="g4165"
     inkscape:window-width="1016"
     inkscape:window-height="964"
     inkscape:window-x="261"
     inkscape:window-y="-2" />
  <metadata
     id="metadata7">
    <rdf:RDF>
      <cc:Work
         rdf:about="">
        <dc:format>image/svg+xml</dc:format>
        <dc:type
           rdf:resource="http://purl.org/dc/dcmitype/StillImage" />
      </cc:Work>
    </rdf:RDF>
  </metadata>
  <g
     inkscape:label="Layer 1"
     inkscape:groupmode="layer"
     id="layer1">
    <g
       style="overflow:visible"
       id="g1366"
       transform="translate(205.7143,95.21933)">
      <path
         style="color:black;fill:black;fill-opacity:1;fill-rule:nonzero;stroke:none;stroke-width:0.8735441;stroke-linecap:butt;stroke-linejoin:miter;stroke-miterlimit:4;stroke-dashoffset:0;stroke-opacity:1;marker:none;marker-start:none;marker-mid:none;marker-end:none;visibility:visible;display:inline;overflow:visible"
         d="M -168.21429,-95.21933 L 356.78571,-95.21933 C 377.56071,-95.21933 394.28571,-78.49433 394.28571,-57.71933 L 394.28571,467.28067 C 394.28571,488.05567 377.56071,504.78067 356.78571,504.78067 L -168.21429,504.78067 C -188.98929,504.78067 -205.71429,488.05567 -205.71429,467.28067 L -205.71429,-57.71933 C -205.71429,-78.49433 -188.98929,-95.21933 -168.21429,-95.21933 z "
         id="rect1877" />
      <path
         id="path7"
         d="" />
      <path
         style="fill:white;fill-opacity:1;stroke:none;stroke-opacity:1"
         d="M -90.052379,490.53704 C -92.292867,488.71294 -92.409535,488.26506 -91.224338,486.03841 C -89.016934,481.89142 -84.749302,480.24553 -70.72671,478.13297 C -56.804303,476.03566 -52.742691,474.89282 -52.742691,473.07298 C -52.742691,471.28256 -65.821343,453.57061 -70.500924,449.02371 C -74.420453,445.21526 -75.08048,443.88795 -76.506511,436.94654 C -80.602026,417.01099 -88.808246,405.5021 -98.76666,405.72765 C -110.93394,406.00332 -120.15703,424.48375 -121.87882,452.03791 C -122.66011,464.54105 -123.24668,467.97767 -125.45684,473.00126 C -127.79769,478.32202 -128.79375,479.12865 -133.04889,479.14975 C -135.27637,479.16081 -137.29874,478.11025 -140.02258,475.52742 C -145.14019,470.67462 -147.20018,470.02439 -157.71898,469.94194 C -164.95552,469.88525 -167.14044,469.49791 -169.13808,467.91804 C -170.49676,466.84346 -173.68845,465.67771 -176.23075,465.32729 C -178.77305,464.97697 -180.89094,464.18181 -180.93716,463.56039 C -180.9834,462.93887 -181.1534,461.28942 -181.31492,459.89486 C -181.47646,458.50029 -181.93087,451.95474 -182.32476,445.34925 C -182.71863,438.74365 -183.18073,432.12578 -183.35167,430.64288 C -183.5226,429.15988 -183.96311,422.46969 -184.33055,415.77576 C -184.69802,409.08182 -185.18472,401.32295 -185.4121,398.53382 C -185.63948,395.74467 -186.06852,389.69732 -186.36553,385.09525 C -186.66255,380.49316 -187.14859,372.9625 -187.44561,368.36041 C -187.74261,363.75833 -188.17431,357.71098 -188.40495,354.92184 C -188.63556,352.1327 -189.09051,345.51483 -189.41592,340.21548 C -189.74134,334.91611 -190.20214,328.29824 -190.43995,325.50911 C -190.67774,322.71996 -191.15582,315.46121 -191.50235,309.37856 C -191.84888,303.296 -192.45419,293.93971 -192.84745,288.58679 C -193.62191,278.04599 -194.33159,283.15518 -181.98641,210.39377 C -179.19438,193.93784 -174.59815,166.78179 -171.77259,150.04695 C -168.947,133.31213 -161.41924,88.812686 -155.0442,51.159316 C -148.66919,13.505951 -141.19065,-30.765283 -138.42526,-47.221209 C -135.65985,-63.677125 -133.14433,-78.396167 -132.8352,-79.930192 L -132.27312,-82.719331 L 92.512931,-82.719331 L 317.29899,-82.719331 L 318.43766,-77.394613 C 319.06387,-74.466019 325.25464,-44.913831 332.19478,-11.723076 C 339.13504,21.46767 352.31005,84.451488 361.47276,128.24096 C 370.63539,172.03043 378.74628,211.05302 379.4969,214.95781 C 382.85016,232.40037 382.51625,243.33633 378.51225,247.21373 C 375.91938,249.72456 373.29392,257.09265 372.29729,264.65518 C 371.9297,267.44432 370.79074,271.31696 369.76614,273.26114 C 367.2459,278.04355 367.43808,282.42797 370.58939,292.03945 C 372.8883,299.05114 373.3129,302.35764 373.71488,316.38101 C 374.09679,329.6989 373.84379,334.15452 372.30394,341.2297 C 370.79537,348.16127 370.48841,353.17726 370.73767,366.82588 C 371.04745,383.79063 371.04604,383.80259 368.51258,386.34984 C 367.11355,387.75638 364.71386,388.94617 363.15767,389.0048 C 361.60672,389.06322 277.15432,389.0267 175.4856,388.92356 L -9.3667199,388.73612 L -9.4924418,391.09938 C -10.251836,405.37451 -8.0912001,411.55565 1.7672202,423.3109 C 11.751585,435.21636 12.681114,448.91103 4.1167469,457.92623 C 2.1542588,459.99192 -0.54424946,464.76053 -2.1926602,469.07559 L -5.0729555,476.6154 L -25.125034,484.00813 L -45.177116,491.40076 L -66.370645,491.98181 C -86.517816,492.53417 -87.687027,492.46277 -90.052379,490.53704 z "
         id="path1483" />
      <g
         style="overflow:visible"
         id="g4165"
         transform="matrix(1,0,0,1.00064,-1117.941,-617.729)">
        <path
           transform="scale(0.999513,1.000488)"
           style="font-size:431.78942871px;font-style:normal;font-variant:normal;font-weight:normal;font-stretch:normal;text-align:center;line-height:125%;writing-mode:lr-tb;text-anchor:middle;font-family:Roadgeek 2005 Series D"
           d="M 1308.2856,814.30618 C 1308.2854,828.98563 1305.8388,842.51417 1300.9459,854.89186 C 1296.0526,867.26965 1289.2158,877.84871 1280.4357,886.62907 C 1271.6551,895.40947 1261.1485,902.31869 1248.9159,907.35675 C 1236.6829,912.39482 1223.2269,914.91385 1208.5476,914.91386 C 1196.7408,914.91385 1185.7291,913.0427 1175.5125,909.30038 C 1165.2957,905.55807 1155.9399,900.37725 1147.4451,893.75791 C 1138.9502,887.13861 1131.6808,879.07858 1125.6369,869.57781 C 1119.5929,860.07712 1115.1303,849.42779 1112.2489,837.62977 L 1157.1567,824.67661 C 1160.6178,838.77625 1166.9538,849.56834 1176.1647,857.05291 C 1185.3755,864.53759 1196.8901,868.2799 1210.7087,868.27986 C 1218.4743,868.2799 1225.5241,866.98415 1231.858,864.3926 C 1238.1917,861.80113 1243.5899,858.27625 1248.0528,853.81792 C 1252.5153,849.3597 1256.0424,844.03613 1258.634,837.84719 C 1261.2254,831.65839 1262.5211,824.82165 1262.5213,817.33693 C 1262.5211,809.8524 1261.0804,802.79823 1258.1992,796.1744 C 1255.3176,789.5508 1251.2898,784.36778 1246.1157,780.62534 C 1244.385,779.47467 1242.8718,778.53909 1241.5762,777.8186 C 1240.2803,777.09839 1238.6968,776.59546 1236.8258,776.30982 C 1234.9545,776.02445 1232.508,775.73675 1229.4861,775.44671 C 1226.464,775.15695 1222.2166,774.87145 1216.7438,774.5902 L 1211.5652,774.5902 L 1211.5652,727.9562 L 1211.5652,729.24756 L 1212.8566,729.24756 L 1213.7262,729.24756 L 1222.7921,729.24756 C 1232.0072,729.24775 1239.0614,726.80119 1243.9547,721.90788 C 1248.8476,717.01495 1251.2942,709.96078 1251.2944,700.74535 C 1251.2942,689.51862 1247.3367,680.23532 1239.4217,672.89541 C 1231.5065,665.55597 1221.6456,661.88613 1209.839,661.88588 C 1190.5563,661.88613 1176.0175,671.38686 1166.2226,690.3881 L 1123.4758,674.40419 C 1130.9604,655.98277 1142.2598,641.51864 1157.3741,631.01178 C 1172.4882,620.50547 1189.546,615.25218 1208.5476,615.25189 C 1220.6353,615.25218 1232.0775,617.55599 1242.8741,622.16331 C 1253.6705,626.77121 1263.0987,633.10503 1271.1589,641.16479 C 1279.2188,649.22508 1285.5504,658.65114 1290.1538,669.44299 C 1294.7568,680.23532 1297.0584,691.67968 1297.0587,703.7761 C 1297.0584,712.41173 1295.9076,720.18406 1293.6062,727.0931 C 1291.3044,734.0025 1286.9867,742.06033 1280.6531,751.26661 C 1286.1258,756.15989 1290.5885,760.83778 1294.0411,765.3003 C 1297.4933,769.7631 1300.3,774.44099 1302.4613,779.33398 C 1304.6221,784.22723 1306.1331,789.48052 1306.9942,795.09387 C 1307.8549,800.70745 1308.2854,807.11155 1308.2856,814.30618 L 1308.2856,814.30618 z "
           id="text1343" />
      </g>
    </g>
  </g>
</svg>
