<?xml version="1.0" encoding="UTF-8" standalone="no"?>
<!-- Created with Inkscape (http://www.inkscape.org/) -->
<svg
   xmlns:dc="http://purl.org/dc/elements/1.1/"
   xmlns:cc="http://web.resource.org/cc/"
   xmlns:rdf="http://www.w3.org/1999/02/22-rdf-syntax-ns#"
   xmlns:svg="http://www.w3.org/2000/svg"
   xmlns="http://www.w3.org/2000/svg"
   xmlns:sodipodi="http://inkscape.sourceforge.net/DTD/sodipodi-0.dtd"
   xmlns:inkscape="http://www.inkscape.org/namespaces/inkscape"
   width="600"
   height="600"
   id="svg2"
   sodipodi:version="0.32"
   inkscape:version="0.43"
   version="1.0"
   sodipodi:docbase="C:\Documents and Settings\ltljltlj\Desktop\State Route Shields\Arizona"
   sodipodi:docname="Arizona 87.svg">
  <defs
     id="defs4" />
  <sodipodi:namedview
     id="base"
     pagecolor="#ffffff"
     bordercolor="#666666"
     borderopacity="1.0"
     inkscape:pageopacity="0.0"
     inkscape:pageshadow="2"
     inkscape:zoom="1.325"
     inkscape:cx="300"
     inkscape:cy="300"
     inkscape:document-units="px"
     inkscape:current-layer="layer1"
     inkscape:window-width="909"
     inkscape:window-height="962"
     inkscape:window-x="88"
     inkscape:window-y="28" />
  <metadata
     id="metadata7">
    <rdf:RDF>
      <cc:Work
         rdf:about="">
        <dc:format>image/svg+xml</dc:format>
        <dc:type
           rdf:resource="http://purl.org/dc/dcmitype/StillImage" />
      </cc:Work>
    </rdf:RDF>
  </metadata>
  <g
     inkscape:label="Layer 1"
     inkscape:groupmode="layer"
     id="layer1">
    <path
       id="path5"
       d="M 0,50 C 0,22.38574 22.38525,0 50,0 L 550,0 C 577.61426,0 600,22.38574 600,50 L 600,550 C 600,577.61523 577.61426,600 550,600 L 50,600 C 22.38525,600 0,577.61523 0,550 L 0,50 L 0,50 z " />
    <path
       d=""
       id="path7" />
    <path
       style="fill:none;stroke:#000000;stroke-opacity:1"
       d="M 374.59802,580.5461 C 374.55036,580.43395 294.60686,562.09322 196.94588,539.78895 L 19.380464,499.23573 L 19.315122,299.55292 L 19.24978,99.870091 L 66.12814,99.936511 L 113.0066,100.00293 L 113.0066,59.626405 L 113.0066,19.249888 L 346.81312,19.249888 L 580.61974,19.249888 L 580.68498,299.99999 L 580.75022,580.75011 L 477.71748,580.75011 C 421.04945,580.75011 374.64567,580.65825 374.59802,580.5461 z "
       id="path3281" />
    <path
       style="fill:#ffffff;fill-opacity:1;stroke:none;stroke-opacity:1"
       d="M 374.73081,581.04563 C 374.68307,580.93328 294.59726,562.55989 196.76243,540.2159 L 18.880917,499.59048 L 18.815459,299.55212 L 18.75,99.513752 L 65.711811,99.58029 L 112.67372,99.646829 L 112.67372,59.198409 L 112.67372,18.75 L 346.89645,18.75 L 581.11928,18.75 L 581.18464,299.99999 L 581.25,581.25 L 478.03384,581.25 C 421.26494,581.25 374.77855,581.15798 374.73081,581.04563 z "
       id="path4166" />
    <path
       transform="scale(1.015655,0.984586)"
       style="font-size:94.96376801px;font-style:normal;font-variant:normal;font-weight:normal;font-stretch:normal;text-align:center;line-height:100%;writing-mode:lr-tb;text-anchor:middle;font-family:Roadgeek 2005 Series D"
       d="M 206.18562,113.12165 L 199.91801,95.268462 L 180.07058,95.268462 L 173.80297,113.12165 L 163.07207,113.12165 L 185.0087,49.495926 L 194.97989,49.495926 L 216.91652,113.12165 L 206.18562,113.12165 M 190.13674,67.159187 L 183.58424,85.012375 L 196.30939,85.012375 L 190.13674,67.159187 M 258.92612,113.12165 L 248.67003,85.39223 L 236.60963,85.39223 L 236.60963,113.12165 L 226.54347,113.12165 L 226.54347,49.495926 L 247.53047,49.495926 C 249.99949,49.49599 252.12035,49.654263 253.89304,49.970745 C 255.66566,50.224045 257.34335,50.730518 258.92612,51.490165 C 260.31888,52.186627 261.58506,53.104609 262.72467,54.244115 C 263.9275,55.320428 264.94044,56.586611 265.76351,58.042665 C 266.64979,59.435521 267.31454,60.95494 267.75775,62.600926 C 268.26417,64.183705 268.51741,65.766432 268.51746,67.349115 C 268.51741,69.058506 268.26417,70.736198 267.75775,72.382194 C 267.31454,73.964963 266.64979,75.484382 265.76351,76.940455 C 264.94044,78.333292 263.89584,79.599474 262.62971,80.739006 C 261.42679,81.878602 260.0973,82.76493 258.64123,83.397991 L 269.84695,113.12165 L 258.92612,113.12165 M 258.4513,67.349115 C 258.45126,66.019669 258.10306,64.753487 257.4067,63.550564 C 256.71026,62.34774 255.72897,61.398103 254.46282,60.701651 C 253.63977,60.258539 252.88006,59.973648 252.18369,59.846977 C 251.48726,59.657103 250.31604,59.562139 248.67003,59.562086 L 236.60963,59.562086 L 236.60963,75.136143 L 248.67003,75.136143 C 250.25273,75.136181 251.39229,75.072872 252.08873,74.946216 C 252.8484,74.819636 253.63977,74.534745 254.46282,74.091542 C 255.72897,73.395181 256.71026,72.445544 257.4067,71.242629 C 258.10306,69.976489 258.45126,68.678652 258.4513,67.349115 M 280.51702,113.12165 L 280.51702,49.495926 L 290.77311,49.495926 L 290.77311,113.12165 L 280.51702,113.12165 M 301.46395,113.12165 L 301.46395,104.66988 L 330.52286,59.562086 L 303.93301,59.562086 L 303.93301,49.495926 L 344.76743,49.495926 L 344.76743,55.478644 L 315.32866,102.86556 L 344.76743,102.86556 L 344.76743,113.12165 L 301.46395,113.12165 M 399.22767,81.403752 C 399.22762,86.468513 398.62618,91.31166 397.42336,95.933209 C 396.22044,100.55479 394.51109,104.29003 392.29532,107.13893 C 388.74996,111.88712 383.62192,114.26121 376.91118,114.26122 C 372.41621,114.26121 368.71263,113.34323 365.80042,111.50727 C 362.88819,109.6713 360.48244,106.79074 358.58318,102.86556 C 357.25368,100.14328 356.17742,96.851208 355.35441,92.989332 C 354.53138,89.064187 354.11987,85.202331 354.11988,81.403752 C 354.11987,76.149127 354.72131,71.274325 355.92419,66.779332 C 357.19037,62.284431 358.89971,58.517539 361.05224,55.478644 C 362.9515,53.072955 365.19897,51.3003 367.79466,50.160673 C 370.45363,48.957862 373.61908,48.356426 377.29104,48.356361 C 381.34279,48.356426 384.79314,49.274408 387.64209,51.11031 C 390.49096,52.946337 392.92836,55.826901 394.9543,59.752013 C 396.28374,62.600977 397.32835,65.924705 398.0881,69.723209 C 398.84776,73.521799 399.22762,77.41531 399.22767,81.403752 M 389.16151,81.403752 C 389.16147,77.795164 388.84492,74.471436 388.21187,71.432557 C 387.57874,68.330452 386.6291,65.703123 385.36296,63.550564 C 384.34998,61.904576 383.17876,60.701703 381.8493,59.941941 C 380.58308,59.182284 379.00036,58.739121 377.10111,58.612448 C 374.63203,58.485884 372.57448,59.055666 370.92847,60.321796 C 369.28241,61.588031 367.92126,63.645577 366.84503,66.494441 C 366.02199,68.393761 365.3889,70.704543 364.94575,73.426796 C 364.56588,76.085818 364.37595,78.744801 364.37597,81.403752 C 364.37595,84.822476 364.6925,88.11455 365.32561,91.279984 C 365.95868,94.445462 366.90832,97.041135 368.17452,99.067013 C 369.18744,100.71306 370.39032,101.94759 371.78314,102.7706 C 373.17592,103.59363 374.88526,104.00514 376.91118,104.00513 C 379.25359,104.00514 381.18452,103.37205 382.70397,102.10585 C 384.28667,100.83968 385.61616,98.782136 386.69245,95.933209 C 387.00896,95.110207 387.32551,94.128916 387.64209,92.989332 C 387.9586,91.786479 388.21183,90.551951 388.4018,89.285745 C 388.655,87.956277 388.84492,86.626786 388.97158,85.297267 C 389.09816,83.967803 389.16147,82.669966 389.16151,81.403752 M 447.6948,113.12165 L 423.38408,70.0081 L 423.38408,113.12165 L 413.31792,113.12165 L 413.31792,49.495926 L 423.38408,49.495926 L 446.55524,90.140419 L 446.55524,49.495926 L 456.6214,49.495926 L 456.6214,113.12165 L 447.6948,113.12165 M 509.25358,113.12165 L 502.98597,95.268462 L 483.13854,95.268462 L 476.87093,113.12165 L 466.14003,113.12165 L 488.07666,49.495926 L 498.04785,49.495926 L 519.98449,113.12165 L 509.25358,113.12165 M 493.2047,67.159187 L 486.6522,85.012375 L 499.37735,85.012375 L 493.2047,67.159187"
       id="text5049" />
    <path
       transform="scale(0.99852,1.001482)"
       style="font-size:431.63696289px;font-style:normal;font-variant:normal;font-weight:normal;font-stretch:normal;text-align:center;line-height:125%;writing-mode:lr-tb;text-anchor:middle;font-family:Roadgeek 2005 Series D"
       d="M 280.94658,376.74709 C 280.94636,389.98404 278.21266,402.5015 272.74548,414.29951 C 267.56562,426.09763 260.37168,436.4569 251.16363,445.37737 C 242.24295,454.29788 231.88367,461.34794 220.08577,466.52758 C 208.28754,471.70722 195.77008,474.29704 182.53335,474.29704 C 169.29637,474.29704 156.77891,471.70722 144.98094,466.52758 C 133.18278,461.34794 122.67963,454.29788 113.47144,445.37737 C 104.55089,436.4569 97.356951,426.09763 91.889591,414.29951 C 86.709917,402.5015 84.120097,389.98404 84.120126,376.74709 C 84.120097,362.93481 86.997674,350.56123 92.752865,339.62631 C 98.507982,328.40389 106.70908,318.47625 117.35617,309.84336 C 103.25598,294.88012 96.20592,277.3269 96.205961,257.18365 C 96.20592,245.96131 98.507982,235.45816 103.11215,225.67415 C 107.71623,215.60288 113.90302,206.82627 121.67254,199.3443 C 129.72969,191.57511 138.93794,185.5322 149.29731,181.21555 C 159.65649,176.89947 170.73516,174.74129 182.53335,174.74099 C 194.04353,174.74129 205.1222,176.89947 215.7694,181.21555 C 226.41627,185.5322 235.62452,191.57511 243.39417,199.3443 C 251.45119,206.82627 257.78186,215.60288 262.38619,225.67415 C 267.27787,235.45816 269.72381,245.96131 269.72402,257.18365 C 269.72381,267.25538 267.7095,276.75139 263.6811,285.67169 C 259.94004,294.30461 254.47265,302.36182 247.2789,309.84336 C 258.50126,318.47625 266.84623,328.54777 272.31384,340.05795 C 278.06878,351.28063 280.94636,363.51033 280.94658,376.74709 M 223.10723,255.88874 C 223.10706,246.39295 219.07845,238.33574 211.02139,231.71707 C 203.25178,224.81112 193.75578,221.35803 182.53335,221.35778 C 171.31068,221.35803 161.67079,224.81112 153.61368,231.71707 C 145.84412,238.33574 141.95939,246.39295 141.95948,255.88874 C 141.95939,264.52169 145.84412,272.00339 153.61368,278.33386 C 161.67079,284.37697 171.31068,287.39842 182.53335,287.39824 C 193.75578,287.39842 203.25178,284.37697 211.02139,278.33386 C 219.07845,272.00339 223.10706,264.52169 223.10723,255.88874 M 235.19306,377.61036 C 235.19288,371.56755 233.75409,365.95627 230.87669,360.77652 C 227.99894,355.30924 224.11421,350.70511 219.2225,346.96414 C 214.61821,342.93566 209.15081,339.77032 202.82029,337.46813 C 196.48947,335.1662 189.72717,334.01517 182.53335,334.01503 C 175.33928,334.01517 168.57698,335.1662 162.24642,337.46813 C 156.2034,339.77032 150.736,342.93566 145.84421,346.96414 C 141.24,350.70511 137.49915,355.30924 134.62165,360.77652 C 132.03175,365.95627 130.73684,371.56755 130.73692,377.61036 C 130.73684,384.51664 132.03175,390.99119 134.62165,397.03403 C 137.49915,403.07701 141.24,408.40053 145.84421,413.0046 C 150.736,417.60878 156.2034,421.20575 162.24642,423.79552 C 168.57698,426.38538 175.33928,427.68029 182.53335,427.68025 C 189.72717,427.68029 196.48947,426.38538 202.82029,423.79552 C 209.43857,421.20575 215.04985,417.60878 219.65413,413.0046 C 224.54585,408.40053 228.2867,403.07701 230.87669,397.03403 C 233.75409,390.99119 235.19288,384.51664 235.19306,377.61036 M 525.63753,225.67415 C 523.04749,228.83973 520.60155,231.71731 518.2997,234.30689 C 516.28519,236.89695 514.27089,239.48677 512.25678,242.07636 C 510.53004,244.6664 508.65961,247.4001 506.6455,250.27746 C 504.631,253.15526 502.47282,256.46447 500.17095,260.20511 C 487.22166,281.49939 476.14299,303.94449 466.9349,327.54048 C 458.01426,351.13675 451.10807,374.589 446.21633,397.8973 C 445.35292,403.94028 444.48965,409.83932 443.62651,415.59442 C 442.7631,421.06187 442.04371,426.67314 441.46832,432.42826 C 441.18043,437.89569 440.89267,443.65085 440.60505,449.69374 C 440.31716,455.44891 440.17328,461.92346 440.17341,469.1174 L 393.55662,469.1174 C 393.84429,452.42746 394.85144,436.31302 396.57808,420.77406 C 398.30454,405.23519 400.75048,389.98404 403.91591,375.02054 C 407.3689,360.05724 411.68527,345.23772 416.86502,330.56194 C 422.04455,315.59867 428.23134,300.4914 435.4254,285.24005 C 440.31716,274.30545 445.64068,263.65841 451.39597,253.29892 C 457.15098,242.93986 462.61838,233.73161 467.79818,225.67415 L 329.67435,225.67415 L 329.67435,179.92064 L 525.63753,179.92064 L 525.63753,225.67415 L 525.63753,225.67415"
       id="text1343" />
  </g>
</svg>
