<?xml version="1.0" encoding="UTF-8" standalone="no"?>
<!-- Created with Inkscape (http://www.inkscape.org/) -->

<svg
   xmlns:dc="http://purl.org/dc/elements/1.1/"
   xmlns:cc="http://creativecommons.org/ns#"
   xmlns:rdf="http://www.w3.org/1999/02/22-rdf-syntax-ns#"
   xmlns:svg="http://www.w3.org/2000/svg"
   xmlns="http://www.w3.org/2000/svg"
   version="1.1"
   width="601"
   height="601"
   id="svg2993">
  <defs
     id="defs2995" />
  <metadata
     id="metadata2998">
    <rdf:RDF>
      <cc:Work
         rdf:about="">
        <dc:format>image/svg+xml</dc:format>
        <dc:type
           rdf:resource="http://purl.org/dc/dcmitype/StillImage" />
        <dc:title></dc:title>
      </cc:Work>
    </rdf:RDF>
  </metadata>
  <g
     transform="translate(0.5,-451.875)"
     id="layer1">
    <g
       id="g3873">
      <rect
         width="600"
         height="600"
         rx="37.5"
         ry="37.5"
         x="0"
         y="452.36218"
         id="rect3001"
         style="color:#000000;fill:#ffffff;fill-opacity:1;fill-rule:nonzero;stroke:#000000;stroke-width:1;stroke-miterlimit:4;stroke-opacity:1;stroke-dasharray:none;marker:none;visibility:visible;display:inline;overflow:visible;enable-background:accumulate" />
      <rect
         width="581.25"
         height="581.25"
         rx="28.125"
         ry="28.125"
         x="9.375"
         y="461.73718"
         id="rect3771"
         style="color:#000000;fill:#000000;fill-opacity:1;fill-rule:nonzero;stroke:none;stroke-width:3;marker:none;visibility:visible;display:inline;overflow:visible;enable-background:accumulate" />
      <path
         d="m 37.5,477.36218 525,0 c 6.925,0 12.5,5.575 12.5,12.5 l 0,254.6875 c 0,-0.01 0,0 0,0 l -550,0 0,0 0,-254.6875 c 0,-6.925 5.575,-12.5 12.5,-12.5 z"
         id="rect4"
         style="fill:#002868" />
      <path
         d="m 25,566.42468 550,0 0,89.0625 -550,0 z"
         id="rect6"
         style="fill:#ffffff" />
      <path
         d="m 276.82422,644.35438 a 89.0625,89.0625 0 1 1 0,-66.7969 l -82.60547,33.3985"
         id="path8"
         style="fill:#bf0a30" />
      <path
         d="m 238.75,610.95593 c 0,24.59393 -19.93732,44.53125 -44.53125,44.53125 -24.59393,0 -44.53125,-19.93732 -44.53125,-44.53125 0,-24.59393 19.93732,-44.53125 44.53125,-44.53125 24.59393,0 44.53125,19.93732 44.53125,44.53125 z"
         id="circle10"
         style="fill:#ffd700" />
      <path
         d="m 37.5,1027.375 525,0 c 6.925,0 12.5,-5.575 12.5,-12.5 l 0,-254.68752 c 0,0.01 0,0 0,0 l -550,0 0,0 0,254.68752 c 0,6.925 5.575,12.5 12.5,12.5 z"
         id="path3817"
         style="fill:#ffffff;fill-opacity:1" />
    </g>
    <g
       id="text3889"
       style="font-size:298.50747681px;font-style:normal;font-variant:normal;font-weight:normal;font-stretch:normal;text-align:center;line-height:100%;letter-spacing:0px;word-spacing:0px;writing-mode:lr-tb;text-anchor:middle;fill:#000000;fill-opacity:1;stroke:none;font-family:Roadgeek 2005 Series C;-inkscape-font-specification:Roadgeek 2005 Series C">
      <path
         d="m 183.95987,990.375 0.89553,-149.55225 -25.37314,0 -0.59702,-28.65671 c 7.76117,-1.79087 13.93032,-4.27843 18.50747,-7.46269 4.77608,-3.18389 9.15418,-7.96001 13.13433,-14.32836 l 28.65672,0 0,200.00001 -35.22389,0"
         id="path4207"
         style="fill:#000000;font-family:Roadgeek 2005 Series E;-inkscape-font-specification:Roadgeek 2005 Series E" />
      <path
         d="m 411.56249,949.77798 0,40.59702 -34.92537,0 0,-40.59702 -123.5821,0 0,-32.2388 123.5821,-127.16419 34.92537,0 0,127.16419 29.55224,0 0,32.2388 -29.55224,0 m -34.92537,-112.23881 -77.91045,80.00001 77.91045,0 0,-80.00001"
         id="path4209"
         style="fill:#000000;font-family:Roadgeek 2005 Series E;-inkscape-font-specification:Roadgeek 2005 Series E" />
    </g>
  </g>
</svg>
