<?xml version="1.0" encoding="UTF-8" standalone="no"?>
<!-- Created with Inkscape (http://www.inkscape.org/) -->

<svg
   xmlns:dc="http://purl.org/dc/elements/1.1/"
   xmlns:cc="http://creativecommons.org/ns#"
   xmlns:rdf="http://www.w3.org/1999/02/22-rdf-syntax-ns#"
   xmlns:svg="http://www.w3.org/2000/svg"
   xmlns="http://www.w3.org/2000/svg"
   xmlns:sodipodi="http://sodipodi.sourceforge.net/DTD/sodipodi-0.dtd"
   xmlns:inkscape="http://www.inkscape.org/namespaces/inkscape"
   id="svg2"
   sodipodi:version="0.32"
   inkscape:version="0.48.1 "
   width="200"
   height="200"
   version="1.0"
   sodipodi:docname="Connecticut_Highway_x[1].svg"
   inkscape:output_extension="org.inkscape.output.svg.inkscape">
  <metadata
     id="metadata7">
    <rdf:RDF>
      <cc:Work
         rdf:about="">
        <dc:format>image/svg+xml</dc:format>
        <dc:type
           rdf:resource="http://purl.org/dc/dcmitype/StillImage" />
        <dc:title></dc:title>
      </cc:Work>
    </rdf:RDF>
  </metadata>
  <defs
     id="defs5" />
  <sodipodi:namedview
     inkscape:window-height="746"
     inkscape:window-width="1024"
     inkscape:pageshadow="2"
     inkscape:pageopacity="0.0"
     guidetolerance="10.0"
     gridtolerance="10.0"
     objecttolerance="10.0"
     borderopacity="1.0"
     bordercolor="#666666"
     pagecolor="#ffffff"
     id="base"
     width="2160px"
     height="2160px"
     units="px"
     inkscape:zoom="4.01"
     inkscape:cx="96.203049"
     inkscape:cy="91.818722"
     inkscape:window-x="-8"
     inkscape:window-y="-8"
     inkscape:current-layer="g6057"
     showgrid="false"
     inkscape:window-maximized="0" />
  <g
     id="g6057"
     transform="matrix(9.2592593e-2,0,0,9.2592593e-2,0,5.6514033e-6)">
    <rect
       rx="135"
       ry="135"
       y="-6.1035156e-005"
       x="0"
       height="2160"
       width="2160"
       id="rect2161"
       style="opacity:1;color:#000000;fill:#000000;fill-opacity:1;fill-rule:nonzero;stroke:none;stroke-width:1;stroke-linecap:butt;stroke-linejoin:miter;marker:none;marker-start:none;marker-mid:none;marker-end:none;stroke-miterlimit:4;stroke-dasharray:none;stroke-dashoffset:0;stroke-opacity:1;visibility:visible;display:inline;overflow:visible;enable-background:accumulate" />
    <rect
       style="opacity:1;color:#000000;fill:#ffffff;fill-opacity:1;fill-rule:nonzero;stroke:none;stroke-width:1;stroke-linecap:butt;stroke-linejoin:miter;marker:none;marker-start:none;marker-mid:none;marker-end:none;stroke-miterlimit:4;stroke-dasharray:none;stroke-dashoffset:0;stroke-opacity:1;visibility:visible;display:inline;overflow:visible;enable-background:accumulate"
       id="rect3134"
       width="1890"
       height="1890"
       x="135"
       y="134.99994" />
    <g
       style="font-size:1611.90795898px;font-style:normal;font-weight:normal;writing-mode:lr-tb;fill:#000000;fill-opacity:1;stroke:none;font-family:Bitstream Vera Sans"
       id="text4105">
      <path
         d="m 814.80928,1629.6661 0,-1079.96439 -103.16078,0 c -11.08194,22.70179 -26.39486,40.56686 -45.93881,53.59525 -19.54429,13.03044 -44.52851,20.41825 -74.95273,22.16345 l 0,117.66776 67.69926,0 0,886.53793 z"
         style="font-variant:normal;font-stretch:normal;text-align:center;text-anchor:middle;font-family:Roadgeek 2005 Series C;-inkscape-font-specification:Roadgeek 2005 Series C"
         id="path3059" />
      <path
         d="m 1603.6575,1250.8726 c -1.3775,-103.9327 -28.8467,-187.0119 -82.4078,-249.2381 -53.5622,-62.22481 -124.9553,-94.1267 -214.1795,-95.70572 -19.343,-0.26794 -37.8797,1.07529 -55.6101,4.0297 -17.7311,2.95584 -39.4915,9.13474 -65.2814,18.53672 l 11.2832,-227.27609 364.2865,0 0,-151.5174 -507.7445,0 0,538.37029 120.8916,19.3427 c 19.1745,-17.7302 39.2559,-31.0283 60.2442,-39.8942 20.9878,-8.8649 43.8901,-13.2976 68.7068,-13.2981 45.6697,0.5043 81.6685,17.2276 107.9964,50.17 26.327,32.9434 39.7594,79.0837 40.2972,138.4208 -1.0416,75.4904 -19.9141,136.4734 -56.6176,182.9492 -36.7044,46.4762 -84.9938,70.3859 -144.8683,71.729 -26.1263,0.1009 -50.8419,-4.1303 -74.1468,-12.6936 -23.3055,-8.563 -48.0211,-22.0626 -74.1468,-40.4987 l -101.5489,109.6083 c 39.6926,30.7603 82.0046,54.2669 126.9361,70.5201 44.9311,16.2532 91.2728,24.4469 139.0252,24.5813 97.9554,-2.3843 178.0795,-40.3308 240.3727,-113.8396 62.2921,-73.5086 94.4626,-168.274 96.5118,-284.2966 z"
         style="font-variant:normal;font-stretch:normal;text-align:center;text-anchor:middle;font-family:Roadgeek 2005 Series C;-inkscape-font-specification:Roadgeek 2005 Series C"
         id="path3061" />
    </g>
  </g>
</svg>
