<?xml version="1.0" encoding="utf-8"?>
<!-- Generator: Adobe Illustrator 12.0.0, SVG Export Plug-In . SVG Version: 6.00 Build 51448)  -->
<!DOCTYPE svg PUBLIC "-//W3C//DTD SVG 1.1//EN" "http://www.w3.org/Graphics/SVG/1.1/DTD/svg11.dtd" [
	<!ENTITY ns_svg "http://www.w3.org/2000/svg">
	<!ENTITY ns_xlink "http://www.w3.org/1999/xlink">
]>
<svg  version="1.1" id="Layer_1" xmlns="&ns_svg;" xmlns:xlink="&ns_xlink;" width="385" height="385" viewBox="0 0 385 385"
	 overflow="visible" enable-background="new 0 0 385 385" xml:space="preserve">
<g>
	<g>
		<g>
			<path fill="#FFFFFF" d="M0.5,28.5c0-15.4638672,12.5356445-28,28-28h328c15.4638672,0,28,12.5361328,28,28v328
				c0,15.4648438-12.5361328,28-28,28h-328c-15.4643555,0-28-12.5351563-28-28V28.5L0.5,28.5z"/>
			<path fill="#FFFFFF" d="M192.5,192.5"/>
		</g>
		<g>
			<path fill="none" stroke="#000000" stroke-linecap="round" stroke-linejoin="round" stroke-miterlimit="3.863693" d="M0.5,28.5
				c0-15.4638672,12.5356445-28,28-28h328c15.4638672,0,28,12.5361328,28,28v328c0,15.4648438-12.5361328,28-28,28h-328
				c-15.4643555,0-28-12.5351563-28-28V28.5L0.5,28.5z"/>
			<path fill="none" stroke="#000000" stroke-linecap="round" stroke-linejoin="round" stroke-miterlimit="3.863693" d="
				M192.5,192.5"/>
		</g>
	</g>
	<g>
		<g>
			<path d="M6.5,28.5c0-12.1503906,9.8496094-22,22-22h328c12.1503906,0,22,9.8496094,22,22v328c0,12.1503906-9.8496094,22-22,22
				h-328c-12.1503906,0-22-9.8496094-22-22V28.5L6.5,28.5z"/>
			<path d="M192.5,192.5"/>
		</g>
	</g>
	<g>
		<g>
			<path fill="#FFFFFF" d="M14.5,28.5c0-7.7319336,6.2675781-14,14-14h328c7.7324219,0,14,6.2680664,14,14v328
				c0,7.7324219-6.2675781,14-14,14h-328c-7.7324219,0-14-6.2675781-14-14V28.5L14.5,28.5z"/>
			<path fill="#FFFFFF" d="M192.5,192.5"/>
		</g>
	</g>
	<g>
		<polygon fill-rule="evenodd" clip-rule="evenodd" points="203.3105469,117.1225586 187.9921875,108.8989258 
			141.1367188,118.9516602 97.8828125,86.0576172 74.456543,80.5776367 70.8525391,84.2314453 37.5126953,81.4921875 28.5,28.5 
			142.0385742,28.5 143.8388672,31.2402344 145.6430664,38.5488281 262.7861328,39.4638672 266.390625,31.2402344 
			302.4326172,32.1547852 333.9726563,140.878418 327.6621094,179.2519531 336.6748047,230.4179688 351.0917969,258.7402344 
			356.5,287.9765625 356.5,323.609375 321.3554688,356.5 299.7304688,356.5 276.3007813,345.5371094 283.0820313,331.0449219 
			303.2890625,340.5 315.0371094,340.5 340.5,316.6699219 340.5,289.4433594 335.78125,263.9316406 321.3320313,235.546875 
			311.4326172,179.3442383 317.5966797,141.8569336 290.3271484,47.8525391 276.7304688,47.5078125 273.2070313,55.5458984 
			133.5249023,54.4545898 130.7080078,44.5 47.4506836,44.5 51.203125,66.5634766 64.7114258,67.6733398 69.3652344,62.9550781 
			104.8505859,71.2553711 144.9697266,101.7646484 190.3818359,92.0214844 210.8789063,103.0253906 		"/>
	</g>
</g>
<path fill-rule="evenodd" clip-rule="evenodd" d="M213.0644531,244.7890625c0,8.6064453-1.6523438,16.5214844-4.9570313,23.7460938
	c-3.3037109,7.2236328-7.953125,13.5253906-13.9472656,18.9042969c-5.9946289,5.3789063-13.1030273,9.5683594-21.3261719,12.5644531
	C164.6113281,303.0019531,155.581543,304.5,145.7451172,304.5c-6.7626953,0-13.4101563-0.7675781-19.9423828-2.3046875
	s-12.4882813-3.6894531-17.8676758-6.4560547l11.9887695-21.6708984c3.2275391,1.6904297,7.4541016,3.0351563,12.6796875,4.0341797
	s10.6821289,1.4990234,16.3691406,1.4990234c5.5332031,0,10.7207031-0.8847656,15.5615234-2.6523438
	c4.8417969-1.7675781,9.0683594-4.1875,12.6806641-7.2617188c3.6113281-3.0742188,6.4169922-6.7246094,8.4150391-10.9511719
	s2.9970703-8.8759766,2.9970703-13.9472656c0-3.84375-0.7304688-7.3789063-2.1904297-10.6054688
	c-1.4599609-3.2285156-3.4580078-6.0722656-5.9941406-8.53125s-5.4560547-4.3798828-8.7607422-5.7636719
	c-3.3046875-1.3828125-6.8779297-2.0742188-10.7207031-2.0742188c-2.7666016,0-5.1875,0.2304688-7.262207,0.6914063
	s-4.034668,1.3066406-5.8789063,2.5361328s-3.6889648,2.8818359-5.5332031,4.9560547
	c-1.8442383,2.0761719-3.9194336,4.7265625-6.2246094,7.9550781l-24.4379883-6.9169922l3.9189453-79.7695313h88.7617188v24.4384766
	h-65.0151367l-1.6137695,25.359375c5.6865234-1.6894531,10.144043-2.8427734,13.371582-3.4570313
	c3.2280273-0.6152344,6.7631836-0.9228516,10.6049805-0.9228516c7.0703125,0,13.7177734,1.3837891,19.9423828,4.1494141
	c6.2250977,2.7675781,11.6816406,6.5332031,16.3691406,11.296875c4.6875,4.765625,8.3759766,10.2978516,11.0664063,16.5996094
	C211.7197266,231.0322266,213.0644531,237.71875,213.0644531,244.7890625z"/>
</svg>
