<?xml version="1.0" encoding="UTF-8" standalone="no"?>
<!-- Created with Inkscape (http://www.inkscape.org/) -->
<svg
   xmlns:svg="http://www.w3.org/2000/svg"
   xmlns="http://www.w3.org/2000/svg"
   version="1.0"
   width="600"
   height="600"
   id="svg2">
  <defs
     id="defs4" />
  <g
     id="layer1">
    <g
       id="g1917">
      <rect
         width="600"
         height="600"
         rx="37.5"
         ry="37.5"
         x="0"
         y="0"
         style="opacity:1;fill:black;fill-opacity:1;stroke:none;stroke-width:22.5;stroke-miterlimit:4;stroke-dasharray:none;stroke-opacity:1"
         id="rect1935" />
      <path
         d="M 301.70394,37.5033 C 273.05069,36.8245 245.27536,49.5903 226.88712,71.7013 C 207.33977,86.4617 192.95545,107.0648 175.24628,123.3324 C 157.43563,147.1353 137.69025,169.3703 122.64098,195.1868 C 107.88339,212.9187 100.64092,234.6041 88.178403,253.208 C 77.167075,272.5669 69.063108,294.0301 58.806931,313.5541 C 49.491228,341.3774 35.032169,368.5169 37.500006,398.8867 C 36.970139,423.4541 41.574894,447.6818 52.497333,469.4388 C 72.804519,505.3028 106.8304,534.332 147.86136,542.7283 C 179.30504,551.7526 211.57907,558.5217 244.61048,559.2064 C 272.34738,564.2146 301.17644,563.0695 329.14753,560.6365 C 354.13694,557.9818 379.05714,555.1534 403.671,549.7857 C 427.21597,544.4109 451.12086,537.6386 473.73006,527.9871 C 505.14264,513.5703 530.32375,486.9147 546.98208,457.0945 C 556.24664,434.6553 564.38408,410.9654 562.35061,386.2024 C 563.7185,359.4952 554.51356,334.2067 544.66394,310.1079 C 534.19686,286.7982 525.97003,262.1644 511.17158,240.9623 C 497.06733,208.7883 473.98153,181.8938 454.59717,152.9709 C 440.99447,139.9027 430.01333,123.0092 415.80058,109.8191 C 400.40828,91.3851 381.57056,76.1195 363.25178,60.2293 C 345.60953,46.507 324.83169,36.6858 301.70394,37.5033 L 301.70394,37.5033 z "
         style="opacity:1;fill:white;fill-opacity:1;stroke:none;stroke-width:22.5;stroke-miterlimit:4;stroke-dasharray:none;stroke-opacity:1"
         id="rect1955" />
      <path
         d="M 239.09634,496.5437 L 239.09634,340.05982 L 221.51576,340.05982 L 221.51576,315.56662 L 223.52974,315.56662 C 227.56355,315.5668 231.59737,314.50997 235.63123,312.39613 C 239.66503,310.28266 243.02752,307.30273 245.71874,303.45633 L 270.21195,303.45633 L 270.21195,496.5437 L 239.09634,496.5437 z M 329.7168,496.5437 L 329.7168,340.05982 L 312.13622,340.05982 L 312.13622,315.56662 L 314.1502,315.56662 C 318.18401,315.5668 322.21783,314.50997 326.25169,312.39613 C 330.28549,310.28266 333.64799,307.30273 336.3392,303.45633 L 360.83241,303.45633 L 360.83241,496.5437 L 329.7168,496.5437 z "
         style="font-size:288.18432617px;font-style:normal;font-variant:normal;font-weight:bold;font-stretch:normal;text-align:center;line-height:125%;writing-mode:lr-tb;text-anchor:middle;fill:black;fill-opacity:1;stroke:none;stroke-width:1px;stroke-linecap:butt;stroke-linejoin:miter;stroke-opacity:1;font-family:Segoe Media Center Semibold"
         id="text1964" />
    </g>
  </g>
</svg>
