<?xml version="1.0" encoding="utf-8"?>
<!-- Generator: Adobe Illustrator 12.0.0, SVG Export Plug-In . SVG Version: 6.00 Build 51448)  -->
<!DOCTYPE svg PUBLIC "-//W3C//DTD SVG 1.1//EN" "http://www.w3.org/Graphics/SVG/1.1/DTD/svg11.dtd" [
	<!ENTITY ns_svg "http://www.w3.org/2000/svg">
	<!ENTITY ns_xlink "http://www.w3.org/1999/xlink">
]>
<svg  version="1.1" id="Layer_1" xmlns="&ns_svg;" xmlns:xlink="&ns_xlink;" width="192" height="192" viewBox="0 0 192 192"
	 overflow="visible" enable-background="new 0 0 192 192" xml:space="preserve">
<g>
	<path d="M0,12C0,5.3725586,5.3725586,0,12,0h168c6.6269531,0,12,5.3725586,12,12v168c0,6.6269531-5.3730469,12-12,12H12
		c-6.6274414,0-12-5.3730469-12-12V12L0,12z"/>
	<path d="M96,96"/>
</g>
<g>
	<circle fill="#FFFFFF" cx="96" cy="96" r="92"/>
	<path fill="#FFFFFF" d="M96,96"/>
</g>
<path fill-rule="evenodd" clip-rule="evenodd" d="M128.6875,112.5c0,9.8867188-3.0957031,17.9511719-9.2871094,24.1914063
	c-6.1923828,6.2402344-14.1845703,9.359375-23.9765625,9.359375c-7.7758789,0-14.5678711-2.3515625-20.3759766-7.0556641
	c-5.8076172-4.7041016-9.7197266-10.9443359-11.7358398-18.7197266l14.8320313-4.3203125
	c2.4960938,9.6962891,8.4960938,14.5449219,18,14.5449219c5.0883789,0,9.2397461-1.6083984,12.4555664-4.8242188
	c3.2167969-3.2167969,4.8242188-7.2724609,4.8242188-12.1679688c0-5.5683594-1.8242188-9.6005859-5.4716797-12.0966797
	c-1.5361328-1.1513672-4.7998047-1.8720703-9.7919922-2.1591797c0,0-0.5761719,0-1.7280273,0V84.1313477h3.7436523
	c6.3359375,0,9.5039063-3.1679688,9.5039063-9.5043945c0-3.7436523-1.34375-6.8154297-4.03125-9.2158203
	c-2.6884766-2.3999023-5.9521484-3.5996094-9.7924805-3.5996094c-6.4321289,0-11.2797852,3.1196289-14.5439453,9.3598633
	l-14.2558594-5.328125c2.4956055-6.144043,6.2875977-10.9438477,11.3759766-14.3999023
	c5.0878906-3.4560547,10.7519531-5.184082,16.9916992-5.184082c8.1601563,0,15.1201172,2.855957,20.8798828,8.5678711
	c5.7607422,5.7119141,8.640625,12.6484375,8.640625,20.8081055c0,5.184082-1.8242188,10.4638672-5.4716797,15.840332
	c3.5507813,3.2636719,5.9755859,6.3837891,7.2714844,9.3603516C128.0400391,103.8115234,128.6875,107.6992188,128.6875,112.5z"/>
</svg>
