<?xml version="1.0" encoding="iso-8859-1"?>
<!-- Generator: Adobe Illustrator 11.0, SVG Export Plug-In . SVG Version: 6.0.0 Build 78)  -->
<!DOCTYPE svg PUBLIC "-//W3C//DTD SVG 1.0//EN"    "http://www.w3.org/TR/2001/REC-SVG-20010904/DTD/svg10.dtd" [
	<!ENTITY ns_flows "http://ns.adobe.com/Flows/1.0/">
	<!ENTITY ns_svg "http://www.w3.org/2000/svg">
	<!ENTITY ns_xlink "http://www.w3.org/1999/xlink">
]>
<svg  xmlns="&ns_svg;" xmlns:xlink="&ns_xlink;" xmlns:a="http://ns.adobe.com/AdobeSVGViewerExtensions/3.0/"
	 width="249.669" height="251.646" viewBox="0 0 249.669 251.646"
	 style="overflow:visible;enable-background:new 0 0 249.669 251.646" xml:space="preserve">
	<g id="Layer_1">
		<g id="Shield_47_">
			<path id="White_1_" style="fill:#FFFFFF;" d="M248.169,238.146c0,6.627-5.373,12-12,12H13.5c-6.627,0-12-5.373-12-12V13.5
				c0-6.627,5.373-12,12-12h222.669c6.627,0,12,5.373,12,12V238.146z"/>
			<path id="Background_1_" d="M241.846,236.763c0,3.898-3.145,7.059-7.023,7.059H14.058c-3.879,0-7.023-3.16-7.023-7.059V14.488
				c0-3.899,3.145-7.059,7.023-7.059h220.765c3.879,0,7.023,3.16,7.023,7.059V236.763z"/>
			<polygon id="State_Mask_1_" points="0.954,14.931 151.954,14.931 151.954,250.437 14.549,250.437 4.336,246.853 0.954,236.641 
				"/>
			<polygon id="State_Outline_1_" style="fill:#FFFFFF;" points="2.966,21.212 25.598,21.212 25.598,53.052 28.889,56.471 
				32.181,61.598 33.827,63.309 33.827,69.931 35.473,73.353 36.912,76.768 41.85,78.479 45.143,81.686 48.435,85.104 
				51.727,88.523 51.727,90.234 56.458,95.361 58.104,95.361 59.75,96.856 63.041,96.856 64.687,98.568 64.687,100.275 
				63.041,103.694 63.041,107.113 61.396,113.738 63.041,117.157 63.041,122.287 61.396,125.702 61.396,134.035 66.333,135.746 
				67.773,135.746 71.064,130.62 72.71,128.908 76.005,130.62 77.649,132.327 79.293,137.457 79.293,139.165 82.588,145.79 
				85.672,149.209 85.672,154.339 88.964,157.543 90.612,157.543 93.9,159.25 95.547,162.673 97.195,166.088 98.635,171.005 
				100.279,171.005 103.571,167.799 111.801,167.799 113.449,166.088 116.533,164.38 116.533,166.088 119.825,166.088 
				121.472,164.38 124.76,166.088 129.495,164.38 131.14,164.38 132.783,162.673 132.783,159.25 136.078,159.25 141.015,166.088 
				142.662,167.799 145.749,248.569 15.929,248.569 8.687,248.567 2.984,243.004 2.966,191.303 4.612,184.681 4.612,179.55 
				1.32,177.843 1.32,162.673 4.612,160.961 7.698,154.339 7.698,152.628 10.989,145.79 10.989,142.368 12.635,137.457 
				14.283,134.035 15.929,134.035 15.929,130.62 14.283,128.908 10.989,125.702 7.698,123.995 4.612,115.446 6.258,112.027 
				2.966,107.113 "/>
			<path id="Border_2_" style="fill:none;stroke:#000000;stroke-width:3;" d="M248.169,238.146c0,6.627-5.373,12-12,12H13.5
				c-6.627,0-12-5.373-12-12V13.5c0-6.627,5.373-12,12-12h222.669c6.627,0,12,5.373,12,12V238.146z"/>
			<g>
				<path d="M22.616,222.128v-32.16h4.5v32.16H22.616z"/>
				<path d="M52.294,206.045c0,7.353-1.542,12.228-4.625,14.624c-0.576,0.544-1.248,0.928-2.016,1.151s-1.6,0.335-2.495,0.335
					h-8.927V190.03h8.206c1.376,0,2.448,0.097,3.216,0.288s1.439,0.512,2.016,0.959c0.963,0.672,1.774,1.614,2.433,2.829
					s1.133,2.637,1.422,4.267c0.225,1.184,0.409,2.446,0.554,3.788C52.222,203.504,52.294,204.799,52.294,206.045z M47.794,206.285
					c0-1.823-0.08-3.526-0.24-5.11c-0.16-1.583-0.385-2.71-0.673-3.382c-0.737-2.175-2.131-3.263-4.181-3.263h-3.844v23.125h3.844
					c0.673,0,1.273-0.128,1.802-0.384s0.984-0.591,1.369-1.007s0.697-0.903,0.938-1.464c0.24-0.56,0.424-1.144,0.553-1.751
					c0.096-1.023,0.192-2.103,0.288-3.238S47.794,207.5,47.794,206.285z"/>
				<path d="M72.06,222.127l-2.256-8.784h-6.912l-2.112,8.784h-4.656l8.017-32.159h4.512l8.016,32.159H72.06z M66.299,199.579
					l-2.256,9.264h4.608L66.299,199.579z"/>
				<path d="M94.516,222.137v-14.544h-8.813v14.544h-4.625v-32.169h4.625v13.125h8.813v-13.125h4.625v32.169H94.516z"/>
				<path d="M124.447,206.014c0,2.465-0.137,4.561-0.408,6.288c-0.272,1.729-0.745,3.36-1.417,4.896
					c-0.801,1.921-1.801,3.321-3.002,4.201c-1.201,0.879-2.714,1.319-4.538,1.319c-1.922,0-3.482-0.44-4.684-1.319
					c-1.201-0.88-2.201-2.28-3.001-4.201c-0.673-1.567-1.146-3.207-1.417-4.919c-0.272-1.712-0.408-3.8-0.408-6.265
					c0-2.432,0.136-4.52,0.408-6.264c0.271-1.744,0.744-3.384,1.417-4.921c0.832-1.92,1.849-3.304,3.05-4.151
					c1.2-0.848,2.745-1.272,4.635-1.272c1.856,0,3.377,0.425,4.563,1.272c1.185,0.848,2.177,2.264,2.978,4.248
					c0.32,0.8,0.601,1.6,0.841,2.399c0.24,0.801,0.432,1.641,0.576,2.521c0.144,0.88,0.247,1.824,0.312,2.832
					S124.447,204.798,124.447,206.014z M120.009,206.014c0-0.896-0.024-1.714-0.072-2.45s-0.111-1.417-0.191-2.042
					s-0.184-1.226-0.311-1.802c-0.128-0.576-0.271-1.153-0.431-1.73c-0.415-1.441-0.934-2.482-1.556-3.123s-1.411-0.961-2.368-0.961
					c-1.978,0-3.333,1.33-4.066,3.988c-0.383,1.217-0.646,2.442-0.79,3.676s-0.215,2.747-0.215,4.54
					c0,0.865,0.023,1.658,0.071,2.379s0.111,1.394,0.191,2.019s0.184,1.241,0.312,1.85c0.127,0.608,0.271,1.232,0.431,1.873
					c0.733,2.659,2.089,3.988,4.066,3.988c0.957,0,1.746-0.32,2.368-0.961s1.141-1.649,1.556-3.027
					c0.191-0.641,0.351-1.257,0.479-1.85c0.127-0.592,0.23-1.209,0.311-1.85s0.136-1.321,0.168-2.042
					C119.993,207.768,120.009,206.943,120.009,206.014z"/>
			</g>
		</g>
		<g>
			<path style="fill:#FFFFFF;" d="M138.319,59.691c-3.734,6.883-7.094,14.641-10.078,23.281c-2.883,8.215-4.96,16.242-6.242,24.082
				s-2.133,16.613-2.559,26.316h-15v-2.238c0-2.664,0.156-5.758,0.477-9.281c0.32-3.52,0.77-7.172,1.355-10.961
				c0.586-3.785,1.25-7.625,1.996-11.52c0.742-3.891,1.594-7.598,2.555-11.121c1.168-4.266,2.418-8.344,3.75-12.238
				c1.328-3.891,2.82-7.703,4.473-11.438c1.648-3.734,3.488-7.492,5.516-11.281c2.023-3.789,4.371-7.816,7.039-12.082H91.32v-15
				h59.8v15C146.319,46.652,142.054,52.813,138.319,59.691z"/>
			<path style="fill:#FFFFFF;" d="M227.149,95.945c0,5.656-0.852,10.883-2.555,15.68c-1.703,4.801-4.043,8.961-7.02,12.48
				c-2.98,3.52-6.496,6.293-10.547,8.316c-4.055,2.023-8.48,3.039-13.277,3.039c-4.801,0-9.414-0.801-13.84-2.395
				c-4.43-1.594-8.617-3.934-12.563-7.02l10.082-10.863c2.664,1.813,5.117,3.148,7.359,4c2.238,0.852,4.691,1.277,7.359,1.277
				c2.879,0,5.547-0.613,8-1.84s4.559-2.957,6.32-5.199c1.758-2.238,3.145-4.906,4.16-8c1.012-3.094,1.52-6.508,1.52-10.242
				c0-5.863-1.336-10.449-4-13.758c-2.668-3.305-6.242-4.961-10.719-4.961c-4.695,0-8.961,1.762-12.801,5.281l-14.719-1.922
				l2.719-53.609h50.371v15h-36.129l-1.121,22.746c2.664-0.961,4.824-1.578,6.48-1.844c1.652-0.266,3.492-0.402,5.52-0.402
				c4.371,0,8.367,0.828,11.992,2.48c3.625,1.656,6.711,4,9.266,7.039s4.547,6.641,5.984,10.797
				C226.431,86.188,227.149,90.828,227.149,95.945z"/>
		</g>
	</g>
</svg>
