<?xml version="1.0" encoding="UTF-8" standalone="no"?>
<!-- Created with Inkscape (http://www.inkscape.org/) -->

<svg
   xmlns:dc="http://purl.org/dc/elements/1.1/"
   xmlns:cc="http://creativecommons.org/ns#"
   xmlns:rdf="http://www.w3.org/1999/02/22-rdf-syntax-ns#"
   xmlns:svg="http://www.w3.org/2000/svg"
   xmlns="http://www.w3.org/2000/svg"
   version="1.1"
   width="601"
   height="601"
   id="svg3607">
  <metadata
     id="metadata18">
    <rdf:RDF>
      <cc:Work
         rdf:about="">
        <dc:format>image/svg+xml</dc:format>
        <dc:type
           rdf:resource="http://purl.org/dc/dcmitype/StillImage" />
        <dc:title></dc:title>
      </cc:Work>
    </rdf:RDF>
  </metadata>
  <defs
     id="defs3609" />
  <g
     id="g3778">
    <rect
       width="600"
       height="600"
       rx="37.5"
       ry="37.5"
       x="0.50000018"
       y="0.50000179"
       id="rect3617"
       style="fill:#ffffff;fill-opacity:1;stroke:#000000;stroke-opacity:1" />
    <rect
       width="581.25"
       height="581.25"
       rx="28.125"
       ry="28.125"
       x="9.375"
       y="10.375"
       id="rect4130"
       style="fill:#000000;fill-opacity:1;stroke:none" />
    <rect
       width="550"
       height="550"
       rx="12.5"
       ry="12.5"
       x="25"
       y="26"
       id="rect3776"
       style="color:#000000;fill:#ffffff;fill-opacity:1;fill-rule:nonzero;stroke:none;stroke-width:1;marker:none;visibility:visible;display:inline;overflow:visible;enable-background:accumulate" />
  </g>
  <g
     id="text4136"
     style="font-size:447.76119995px;font-style:normal;font-variant:normal;font-weight:normal;font-stretch:normal;text-align:center;line-height:100%;writing-mode:lr-tb;text-anchor:middle;fill:#000000;fill-opacity:1;stroke:none;font-family:Roadgeek 2005 Series D;-inkscape-font-specification:Roadgeek 2005 Series D">
    <path
       d="m 287.49743,526 0,-243.13433 -27.31344,0 0,-38.0597 3.13433,0 c 6.26862,2.8e-4 12.53727,-1.64151 18.80597,-4.92538 6.2686,-3.28329 11.49248,-7.91015 15.67164,-13.88059 l 38.05971,0 0,300 -48.35821,0"
       id="path2999"
       style="fill:#000000" />
  </g>
  <text
     x="299"
     y="93"
     id="text4140"
     xml:space="preserve"
     style="font-size:12px;font-style:normal;font-variant:normal;font-weight:normal;font-stretch:normal;text-align:center;line-height:100%;writing-mode:lr-tb;text-anchor:middle;fill:none;stroke:#000000;stroke-width:1px;stroke-linecap:butt;stroke-linejoin:miter;stroke-opacity:1;font-family:Roadgeek 2005 Series D;-inkscape-font-specification:Roadgeek 2005 Series D"><tspan
       x="299"
       y="93"
       id="tspan4142" /></text>
  <g
     id="text2994"
     style="font-size:110.75949097px;font-style:normal;font-variant:normal;font-weight:normal;font-stretch:normal;text-align:center;line-height:100%;letter-spacing:0px;word-spacing:0px;writing-mode:lr-tb;text-anchor:middle;fill:none;stroke:#000000;stroke-width:0.79113936px;stroke-linecap:butt;stroke-linejoin:miter;stroke-opacity:1;font-family:Roadgeek 2005 Series C;-inkscape-font-specification:Roadgeek 2005 Series C">
    <path
       d="m 141.01152,150.60443 0,-74.208858 10.41139,0 0,74.208858 -10.41139,0"
       id="path3767"
       style="fill:#000000;fill-opacity:1;stroke:none" />
    <path
       d="m 201.39621,150.60443 -22.92721,-49.73101 0,49.73101 -10.63291,0 0,-74.208858 10.63291,0 20.37974,44.525318 0,-44.525318 10.63291,0 0,74.208858 -8.08544,0"
       id="path3769"
       style="fill:#000000;fill-opacity:1;stroke:none" />
    <path
       d="m 267.241,113.38924 c -5e-5,16.98314 -3.54435,28.24368 -10.63291,33.78165 -1.32915,1.25527 -2.87979,2.14135 -4.6519,2.65822 -1.77219,0.51688 -3.69202,0.77532 -5.75949,0.77532 l -20.60127,0 0,-74.208858 18.93987,0 c 3.17508,7.4e-5 5.6487,0.221593 7.42089,0.664557 1.77211,0.443111 3.32275,1.181507 4.6519,2.21519 2.21515,1.550703 4.06114,3.72897 5.53797,6.53481 1.55059,2.805969 2.65818,6.091831 3.32279,9.857595 0.51683,2.732119 0.92294,5.648786 1.21835,8.749996 0.36915,3.10131 0.55375,6.09182 0.5538,8.97152 m -10.41139,0.5538 c -4e-5,-4.20882 -0.18464,-8.12232 -0.5538,-11.74051 -0.36924,-3.691927 -0.88612,-6.313233 -1.55063,-7.86392 -1.69835,-5.021036 -4.91037,-7.531582 -9.63608,-7.531646 l -8.86076,0 0,53.386076 8.86076,0 c 1.5506,1e-5 2.91664,-0.29535 4.0981,-0.88608 1.25524,-0.5907 2.32592,-1.36602 3.21203,-2.32595 0.88604,-0.9599 1.58751,-2.06749 2.10443,-3.32278 0.59068,-1.3291 1.03371,-2.69513 1.32911,-4.0981 0.22148,-2.36285 0.443,-4.83647 0.66456,-7.42089 0.22148,-2.65819 0.33224,-5.39026 0.33228,-8.1962"
       id="path3771"
       style="fill:#000000;fill-opacity:1;stroke:none" />
    <path
       d="m 281.84049,150.60443 0,-74.208858 10.41139,0 0,74.208858 -10.41139,0"
       id="path3773"
       style="fill:#000000;fill-opacity:1;stroke:none" />
    <path
       d="m 339.6777,150.60443 -5.2057,-20.26899 -15.94936,0 -4.87342,20.26899 -10.74367,0 18.49683,-74.208858 10.41139,0 18.49684,74.208858 -10.63291,0 m -13.29114,-52.05696 -5.2057,21.37658 10.63291,0 -5.42721,-21.37658"
       id="path3775"
       style="fill:#000000;fill-opacity:1;stroke:none" />
    <path
       d="m 394.14368,150.60443 -22.92721,-49.73101 0,49.73101 -10.63291,0 0,-74.208858 10.63291,0 20.37975,44.525318 0,-44.525318 10.63291,0 0,74.208858 -8.08545,0"
       id="path3777"
       style="fill:#000000;fill-opacity:1;stroke:none" />
    <path
       d="m 449.35554,150.60443 -5.2057,-20.26899 -15.94936,0 -4.87342,20.26899 -10.74367,0 18.49683,-74.208858 10.4114,0 18.49683,74.208858 -10.63291,0 m -13.29114,-52.05696 -5.2057,21.37658 10.63292,0 -5.42722,-21.37658"
       id="path3779"
       style="fill:#000000;fill-opacity:1;stroke:none" />
  </g>
</svg>
