<?xml version="1.0" encoding="UTF-8" standalone="no"?>
<!-- Created with Inkscape (http://www.inkscape.org/) -->
<svg
   xmlns:dc="http://purl.org/dc/elements/1.1/"
   xmlns:cc="http://web.resource.org/cc/"
   xmlns:rdf="http://www.w3.org/1999/02/22-rdf-syntax-ns#"
   xmlns:svg="http://www.w3.org/2000/svg"
   xmlns="http://www.w3.org/2000/svg"
   xmlns:sodipodi="http://inkscape.sourceforge.net/DTD/sodipodi-0.dtd"
   xmlns:inkscape="http://www.inkscape.org/namespaces/inkscape"
   width="600"
   height="600"
   id="svg2"
   sodipodi:version="0.32"
   inkscape:version="0.43"
   version="1.0"
   sodipodi:docbase="C:\Documents and Settings\Alexander Bito\My Documents\Wikipedia Highways\Elongated circle shields"
   sodipodi:docname="Elongated circle 80.svg">
  <defs
     id="defs4" />
  <sodipodi:namedview
     id="base"
     pagecolor="#ffffff"
     bordercolor="#666666"
     borderopacity="1.0"
     inkscape:pageopacity="0.0"
     inkscape:pageshadow="2"
     inkscape:zoom="0.5"
     inkscape:cx="300"
     inkscape:cy="300"
     inkscape:document-units="px"
     inkscape:current-layer="layer1"
     inkscape:window-width="756"
     inkscape:window-height="540"
     inkscape:window-x="486"
     inkscape:window-y="10" />
  <metadata
     id="metadata7">
    <rdf:RDF>
      <cc:Work
         rdf:about="">
        <dc:format>image/svg+xml</dc:format>
        <dc:type
           rdf:resource="http://purl.org/dc/dcmitype/StillImage" />
      </cc:Work>
    </rdf:RDF>
  </metadata>
  <g
     inkscape:label="Layer 1"
     inkscape:groupmode="layer"
     id="layer1">
    <path
       style=""
       d="M 0,50 C 0,22.38574 22.3853,0 50,0 L 550,0 C 577.6143,0 600,22.38574 600,50 L 600,550 C 600,577.6152 577.6143,600 550,600 L 50,600 C 22.3853,600 0,577.6152 0,550 L 0,50 L 0,50 z "
       id="path5" />
    <path
       style=""
       d=""
       id="path7" />
    <path
       style="fill:#ffffff"
       d="M 587.49999,299.99998 C 587.49999,458.69998 458.69999,587.50001 299.99999,587.50001 C 141.29999,587.50001 12.499987,458.69998 12.499987,299.99998 C 12.499987,141.29998 141.29999,12.499981 299.99999,12.499981 C 458.69999,12.499981 587.49999,141.29998 587.49999,299.99998 z "
       id="circle11" />
    <path
       style="fill:#ffffff"
       d=""
       id="path1446" />
    <path
       style="font-size:450px;font-style:normal;font-variant:normal;font-weight:normal;font-stretch:normal;text-align:center;line-height:100%;writing-mode:lr-tb;text-anchor:middle;font-family:Roadgeek 2005 Series C"
       d="M 268.472,362.1 C 268.47181,376.50007 265.92181,390.30006 260.822,403.5 C 255.72182,416.40003 248.67183,427.20002 239.672,435.9 C 226.47185,449.4 208.17187,456.14999 184.772,456.15 C 169.77191,456.14999 156.87192,453.45 146.072,448.05 C 135.57194,442.65001 126.57195,434.70002 119.072,424.2 C 113.07197,415.80003 108.42197,406.20004 105.122,395.4 C 101.82198,384.60007 100.17198,373.50008 100.172,362.1 C 100.17198,347.1001 102.42198,333.30012 106.922,320.7 C 111.72197,307.80014 118.92196,296.55015 128.522,286.95 C 112.32197,269.25018 104.22198,248.4002 104.222,224.4 C 104.22198,212.70024 106.17197,201.90025 110.072,192 C 113.97197,182.10027 119.37196,173.70028 126.272,166.8 C 133.47195,159.60029 142.02194,154.0503 151.922,150.15 C 161.82192,145.9503 172.77191,143.85031 184.772,143.85 C 196.47188,143.85031 207.12187,145.9503 216.722,150.15 C 226.32185,154.0503 234.57184,159.60029 241.472,166.8 C 248.67183,173.70028 254.22183,182.10027 258.122,192 C 262.02182,201.90025 263.97182,212.70024 263.972,224.4 C 263.97182,236.70021 261.87182,248.2502 257.672,259.05 C 253.77183,269.55018 247.77183,278.85017 239.672,286.95 C 249.27183,295.95015 256.47182,307.05014 261.272,320.25 C 266.07181,333.15012 268.47181,347.1001 268.472,362.1 M 221.672,224.4 C 221.67186,213.30024 218.07186,204.15025 210.872,196.95 C 203.97188,189.75026 195.27188,186.15026 184.772,186.15 C 173.67191,186.15026 164.52191,189.75026 157.322,196.95 C 150.12193,204.15025 146.52193,213.30024 146.522,224.4 C 146.52193,236.70021 150.12193,246.4502 157.322,253.65 C 164.52191,260.85019 173.67191,264.45019 184.772,264.45 C 195.27188,264.45019 203.97188,260.85019 210.872,253.65 C 218.07186,246.4502 221.67186,236.70021 221.672,224.4 M 227.072,362.1 C 227.07185,345.60011 223.17186,332.55012 215.372,322.95 C 207.57187,313.05014 197.37188,308.10014 184.772,308.1 C 172.17191,308.10014 161.97192,313.05014 154.172,322.95 C 146.37193,332.55012 142.47194,345.60011 142.472,362.1 C 142.47194,377.40007 146.37193,389.85006 154.172,399.45 C 161.97192,409.05004 172.17191,413.85004 184.772,413.85 C 197.37188,413.85004 207.57187,409.05004 215.372,399.45 C 223.17186,389.85006 227.07185,377.40007 227.072,362.1 M 490.37825,299.55 C 490.37804,322.65013 489.02804,342.30011 486.32825,358.5 C 483.92805,374.70008 479.57805,390.00006 473.27825,404.4 C 465.77807,422.40003 456.32808,435.60002 444.92825,444 C 433.8281,452.1 419.72811,456.14999 402.62825,456.15 C 384.62815,456.14999 369.92816,452.1 358.52825,444 C 347.42819,435.60002 338.1282,422.40003 330.62825,404.4 C 324.32821,389.70006 319.82821,374.40008 317.12825,358.5 C 314.72822,342.30011 313.52822,322.65013 313.52825,299.55 C 313.52822,276.75017 314.72822,257.25019 317.12825,241.05 C 319.82821,224.55023 324.32821,209.10024 330.62825,194.7 C 338.42819,176.70027 347.87819,163.80029 358.97825,156 C 370.37816,147.9003 384.92815,143.85031 402.62825,143.85 C 420.02811,143.85031 434.2781,147.9003 445.37825,156 C 456.47808,163.80029 465.77807,177.00027 473.27825,195.6 C 476.27806,203.10025 478.82805,210.60024 480.92825,218.1 C 483.32805,225.60023 485.12805,233.55022 486.32825,241.95 C 487.82805,250.0502 488.87804,258.90019 489.47825,268.5 C 490.07804,277.80017 490.37804,288.15016 490.37825,299.55 M 448.97825,299.55 C 448.97808,291.15016 448.67808,283.50017 448.07825,276.6 C 447.77809,269.70018 447.17809,263.40019 446.27825,257.7 C 445.67809,251.7002 444.77809,246.0002 443.57825,240.6 C 442.37809,235.20022 441.02809,229.80022 439.52825,224.4 C 435.6281,210.90024 430.6781,201.15025 424.67825,195.15 C 418.97811,189.15026 411.62812,186.15026 402.62825,186.15 C 384.02815,186.15026 371.27816,198.60025 364.37825,223.5 C 360.77817,234.90022 358.22817,246.4502 356.72825,258.15 C 355.52818,269.55018 354.92818,283.65017 354.92825,300.45 C 354.92818,308.55014 355.07818,316.05013 355.37825,322.95 C 355.97818,329.55012 356.57818,335.85011 357.17825,341.85 C 358.07818,347.5501 359.12817,353.2501 360.32825,358.95 C 361.52817,364.65009 362.87817,370.50008 364.37825,376.5 C 371.27816,401.40005 384.02815,413.85004 402.62825,413.85 C 411.62812,413.85004 418.97811,410.85004 424.67825,404.85 C 430.6781,398.85005 435.6281,389.40006 439.52825,376.5 C 441.32809,370.50008 442.82809,364.80009 444.02825,359.4 C 445.22809,353.7001 446.12809,347.8501 446.72825,341.85 C 447.62809,335.85011 448.22808,329.55012 448.52825,322.95 C 448.82808,316.05013 448.97808,308.25014 448.97825,299.55"
       id="text1327" />
    <path
       style="fill:none;stroke:#000000;stroke-width:0.99826401;stroke-miterlimit:4;stroke-opacity:1"
       d="M 587.00096,299.99995 C 587.00096,458.42445 458.42452,587.00086 300.00002,587.00086 C 141.57555,587.00086 12.999144,458.42445 12.999144,299.99995 C 12.999144,141.57545 141.57555,12.999044 300.00002,12.999044 C 458.42452,12.999044 587.00096,141.57545 587.00096,299.99995 z "
       id="circle1313" />
    <path
       style="fill:none;stroke:#000000;stroke-width:0.99826401;stroke-miterlimit:4;stroke-opacity:1"
       d=""
       id="path1315" />
  </g>
</svg>
