<?xml version="1.0" encoding="utf-8"?>
<!-- Generator: Adobe Illustrator 12.0.0, SVG Export Plug-In . SVG Version: 6.00 Build 51448)  -->
<!DOCTYPE svg PUBLIC "-//W3C//DTD SVG 1.1//EN" "http://www.w3.org/Graphics/SVG/1.1/DTD/svg11.dtd" [
	<!ENTITY ns_svg "http://www.w3.org/2000/svg">
	<!ENTITY ns_xlink "http://www.w3.org/1999/xlink">
]>
<svg  version="1.1" id="Layer_1" xmlns="&ns_svg;" xmlns:xlink="&ns_xlink;" width="601" height="601" viewBox="0 0 601 601"
	 overflow="visible" enable-background="new 0 0 601 601" xml:space="preserve">
<g>
	<g>
		<g>
			<path fill="#FFFFFF" d="M0.5,50.5c0-27.6142578,22.3852539-50,50-50h500c27.6142578,0,50,22.3857422,50,50v500
				c0,27.6152344-22.3857422,50-50,50h-500c-27.6147461,0-50-22.3847656-50-50V50.5L0.5,50.5z"/>
			<path fill="#FFFFFF" d="M300.5,300.5"/>
		</g>
		<g>
			<path fill="none" stroke="#000000" stroke-linecap="round" stroke-linejoin="round" stroke-miterlimit="3.863693" d="M0.5,50.5
				c0-27.6142578,22.3852539-50,50-50h500c27.6142578,0,50,22.3857422,50,50v500c0,27.6152344-22.3857422,50-50,50h-500
				c-27.6147461,0-50-22.3847656-50-50V50.5L0.5,50.5z"/>
			<path fill="none" stroke="#000000" stroke-linecap="round" stroke-linejoin="round" stroke-miterlimit="3.863693" d="
				M300.5,300.5"/>
		</g>
	</g>
	<g>
		<g>
			<path d="M10.5,50.5c0-22.0913086,17.9082031-40,40-40h500c22.0917969,0,40,17.9086914,40,40v500
				c0,22.0917969-17.9082031,40-40,40h-500c-22.0917969,0-40-17.9082031-40-40V50.5L10.5,50.5z"/>
			<path d="M300.5,300.5"/>
		</g>
	</g>
	<g>
		<g>
			<path fill="#FFFFFF" d="M25.5,50.5c0-13.8071289,11.1923828-25,25-25h500c13.8066406,0,25,11.1928711,25,25v500
				c0,13.8076172-11.1933594,25-25,25h-500c-13.8076172,0-25-11.1923828-25-25V50.5L25.5,50.5z"/>
			<path fill="#FFFFFF" d="M300.5,300.5"/>
		</g>
	</g>
</g>
<g>
	<path fill-rule="evenodd" clip-rule="evenodd" d="M75.1259766,445.3125
		c0.5761719-17.0019531,2.7373047-32.5644531,6.4838867-46.6855469s9.6542969-28.0976563,17.7231445-41.9316406
		c6.0522461-10.9511719,13.5454102-21.109375,22.4785156-30.4746094
		c8.9335938-9.3662109,18.4438477-17.7949219,28.5307617-25.2880859c2.5932617-1.440918,4.8984375-2.9541016,6.9160156-4.5390625
		c2.0170898-1.5849609,4.0351563-3.0981445,6.0517578-4.5390625l15.5620117-8.2133789l14.2651367-8.2133789l13.8330078-7.78125
		c5.7636719-3.7456055,10.4462891-8.4287109,14.0488281-14.0488281c3.6025391-5.6191406,5.4033203-11.4545898,5.4033203-17.5068359
		c0-5.4755859-1.440918-10.5908203-4.3227539-15.3461914c-2.8818359-4.7543945-6.7001953-8.8613281-11.4550781-12.3193359
		s-10.3022461-6.1958008-16.6420898-8.2133789c-6.3408203-2.0170898-13.112793-3.0258789-20.3168945-3.0258789
		c-14.6982422,0-26.5859375,3.4580078-35.6635742,10.3745117c-9.0776367,6.9160156-14.7695313,17.0029297-17.074707,30.2592773
		l-45.8212891-9.9423828c4.8994141-24.2070313,16.1381836-43.1552734,33.7172852-56.8442383
		C126.4223633,157.3447266,148.0361328,150.5,173.6855469,150.5c13.8320313,0,26.7285156,2.3056641,38.6879883,6.9165039
		s22.3349609,10.8071289,31.1240234,18.5878906c8.7895508,7.78125,15.777832,16.9311523,20.965332,27.449707
		s7.78125,21.6860352,7.78125,33.5014648c0,11.2392578-2.5219727,22.262207-7.5649414,33.0688477
		c-5.0429688,10.8071289-12.3198242,20.3891602-21.8300781,28.746582c-2.3056641,1.7290039-4.3950195,3.3129883-6.2680664,4.7543945
		c-1.8725586,1.4414063-3.8183594,2.59375-5.8359375,3.4589844l-14.2651367,9.0771484l-15.5615234,8.2138672l-14.2651367,8.2128906
		c-6.9165039,4.0351563-13.0405273,8.2851563-18.3720703,12.7519531s-10.2304688,9.2949219-14.6972656,14.4824219
		c-4.4667969,5.1865234-8.6455078,10.9501953-12.5361328,17.2900391s-7.5649414,13.5449219-11.0224609,21.6142578h142.21875
		V445.3125H75.1259766z"/>
	<path fill-rule="evenodd" clip-rule="evenodd" d="M525.8740234,352.8056641
		c0,13.2558594-2.6660156,25.7919922-7.9970703,37.6083984c-5.3320313,11.8154297-12.5351563,22.1894531-21.6132813,31.1230469
		S476.7382813,437.53125,464.9228516,442.71875S440.5712891,450.5,427.3154297,450.5
		c-13.2568359,0-25.7929688-2.59375-37.6083984-7.78125c-11.8164063-5.1875-22.2626953-12.2480469-31.3398438-21.1816406
		c-9.078125-8.9335938-16.2832031-19.3076172-21.6142578-31.1230469
		c-5.3310547-11.8164063-7.9970703-24.3525391-7.9970703-37.6083984c0-13.8330078,2.8818359-26.296875,8.6455078-37.3916016
		c5.7636719-11.0957031,13.9775391-20.9658203,24.6396484-29.6113281
		c-14.1210938-14.9858398-21.1816406-32.5649414-21.1816406-52.737793c0-11.2392578,2.3056641-21.8300781,6.9160156-31.7724609
		c4.6113281-9.9418945,10.8789063-18.7319336,18.8046875-26.3686523
		c7.9248047-7.6367188,17.0742188-13.6166992,27.4492188-17.9394531S415.5,150.5,427.3154297,150.5
		c11.5263672,0,22.6220703,2.1616211,33.2841797,6.484375c10.6640625,4.3227539,19.9570313,10.3027344,27.8828125,17.9394531
		c7.9248047,7.6367188,14.2646484,16.4267578,19.0195313,26.3686523c4.7558594,9.9423828,7.1328125,20.5332031,7.1328125,31.7724609
		c0,10.0864258-1.9453125,19.5244141-5.8359375,28.3139648c-3.890625,8.7900391-9.4375,16.9311523-16.6425781,24.4238281
		c11.2392578,8.6455078,19.6679688,18.6601563,25.2880859,30.0429688
		C523.0644531,327.2294922,525.8740234,339.5488281,525.8740234,352.8056641z M467.9492188,231.7675781
		c0-9.5097656-3.9628906-17.6508789-11.8886719-24.4228516c-7.9238281-6.7724609-17.5058594-10.1586914-28.7451172-10.1586914
		s-20.8212891,3.3862305-28.7470703,10.1586914c-7.9248047,6.7719727-11.8867188,14.9130859-11.8867188,24.4228516
		c0,8.6459961,3.9619141,16.0668945,11.8867188,22.2626953c7.9257813,6.1962891,17.5078125,9.2939453,28.7470703,9.2939453
		s20.8212891-3.0976563,28.7451172-9.2939453C463.9863281,247.8344727,467.9492188,240.4135742,467.9492188,231.7675781z
		 M480.0527344,353.6699219c0-6.0517578-1.4414063-11.7431641-4.3222656-17.0742188
		c-2.8828125-5.3320313-6.7011719-9.9433594-11.4560547-13.8330078c-4.7548828-3.890625-10.3017578-6.9892578-16.6416016-9.2939453
		c-6.3398438-2.3056641-13.1132813-3.4589844-20.3173828-3.4589844c-7.2050781,0-13.9052734,1.1533203-20.1015625,3.4589844
		c-6.1962891,2.3046875-11.6708984,5.4033203-16.4267578,9.2939453c-4.7548828,3.8896484-8.5009766,8.5009766-11.2382813,13.8330078
		c-2.7382813,5.3310547-4.1074219,11.0224609-4.1074219,17.0742188c0,6.9160156,1.3691406,13.4003906,4.1074219,19.453125
		c2.7373047,6.0507813,6.4833984,11.3828125,11.2382813,15.9941406c4.7558594,4.6113281,10.2304688,8.2128906,16.4267578,10.8066406
		s12.8964844,3.890625,20.1015625,3.890625c7.2041016,0,14.0488281-1.296875,20.5322266-3.890625
		c6.484375-2.59375,12.1035156-6.1953125,16.859375-10.8066406s8.5009766-9.9433594,11.2382813-15.9941406
		C478.6835938,367.0703125,480.0527344,360.5859375,480.0527344,353.6699219z"/>
</g>
</svg>
