<?xml version="1.0" encoding="UTF-8" standalone="no"?>
<!-- Created with Inkscape (http://www.inkscape.org/) -->
<svg
   xmlns:svg="http://www.w3.org/2000/svg"
   xmlns="http://www.w3.org/2000/svg"
   version="1.0"
   width="2400"
   height="2400"
   id="svg2">
  <defs
     id="defs4" />
  <g
     id="layer1" />
  <path
     d="M 0,200 C -1.3526628e-014,89.54305 89.54305,2.0289942e-014 200,0 L 2200,0 C 2310.4569,6.7633141e-015 2400,89.54305 2400,200 L 2400,2200 C 2400,2310.4569 2310.4569,2400 2200,2400 L 200,2400 C 89.54305,2400 1.3526628e-014,2310.4569 0,2200 L 0,200 z "
     style="fill:#ffffff;fill-opacity:1;fill-rule:evenodd;stroke:#000000;stroke-width:1;stroke-linecap:butt;stroke-linejoin:miter;stroke-opacity:1"
     id="path1405" />
  <path
     d="M 50,200 C 50,117.15729 117.15729,50 200,50 L 2200,50 C 2282.8427,50 2350,117.15729 2350,200 L 2350,2200 C 2350,2282.8427 2282.8427,2350 2200,2350 L 200,2350 C 117.15729,2350 50,2282.8427 50,2200 L 50,200 z "
     style="fill:#000000;fill-opacity:1;fill-rule:evenodd;stroke:#000000;stroke-width:1px;stroke-linecap:butt;stroke-linejoin:miter;stroke-opacity:1"
     id="path1341" />
  <path
     d="M 200,100 L 2200,100 C 2255.2285,100 2300,144.77153 2300,200 L 2300,725 L 100,725 L 100,200 C 100,144.77153 144.77153,100 200,100 z "
     style="fill:#ffffff;fill-opacity:1;fill-rule:evenodd;stroke:#000000;stroke-width:1px;stroke-linecap:butt;stroke-linejoin:miter;stroke-opacity:1"
     id="path10350" />
  <path
     d="M 100,850 L 2300,850 L 2300,2200 C 2300,2255.2285 2255.2285,2300 2200,2300 L 200,2300 C 144.77153,2300 100,2255.2285 100,2200 L 100,850 z "
     style="fill:#ffffff;fill-opacity:1;fill-rule:evenodd;stroke:#000000;stroke-width:1px;stroke-linecap:butt;stroke-linejoin:miter;stroke-opacity:1"
     id="path1343" />
  <path
     d="M 789.69844,2175 C 792.09832,2104.2001 801.09831,2039.4001 816.69844,1980.6 C 832.29828,1921.8003 856.89825,1863.6003 890.49844,1806 C 915.69819,1760.4004 946.89816,1718.4005 984.09844,1680 C 1021.2981,1640.4005 1060.898,1605.0006 1102.8984,1573.8 C 1113.698,1567.8006 1123.298,1561.8006 1131.6984,1555.8 C 1140.098,1548.6006 1148.498,1542.0006 1156.8984,1536 L 1221.6984,1501.8 L 1281.0984,1467.6 L 1338.6984,1435.2 C 1362.6977,1419.6008 1381.8977,1400.4008 1396.2984,1377.6 C 1411.8977,1353.6008 1419.6977,1329.0008 1419.6984,1303.8 C 1419.6977,1281.0009 1413.6977,1260.0009 1401.6984,1240.8 C 1389.6977,1220.401 1373.4977,1203.001 1353.0984,1188.6 C 1333.8978,1174.201 1311.0978,1162.801 1284.6984,1154.4 C 1258.2979,1146.001 1230.0979,1141.801 1200.0984,1141.8 C 1138.898,1141.801 1089.098,1156.201 1050.6984,1185 C 1013.4981,1213.801 990.09812,1255.8009 980.49844,1311 L 789.69844,1269.6 C 810.0983,1168.801 856.89825,1090.2011 930.09844,1033.8 C 1003.2981,976.2012 1093.298,947.40123 1200.0984,947.4 C 1257.6979,947.40123 1311.0978,957.00122 1360.2984,976.2 C 1410.6977,995.40118 1453.8977,1021.2012 1489.8984,1053.6 C 1527.0976,1086.0011 1556.4976,1124.4011 1578.0984,1168.8 C 1599.6975,1212.001 1610.4975,1258.2009 1610.4984,1307.4 C 1610.4975,1354.2008 1599.6975,1400.4008 1578.0984,1446 C 1557.6976,1490.4007 1527.6976,1530.0006 1488.0984,1564.8 C 1478.4976,1572.0006 1469.4976,1578.6006 1461.0984,1584.6 C 1453.8977,1590.6006 1446.0977,1595.4006 1437.6984,1599 L 1378.2984,1636.8 L 1313.4984,1671 L 1254.0984,1705.2 C 1225.2979,1722.0005 1199.4979,1740.0004 1176.6984,1759.2 C 1155.098,1777.2004 1134.698,1797.0004 1115.4984,1818.6 C 1097.498,1840.2003 1080.098,1864.2003 1063.2984,1890.6 C 1047.6981,1917.0003 1032.6981,1947.0002 1018.2984,1980.6 L 1610.4984,1980.6 L 1610.4984,2175 L 789.69844,2175"
     style="font-size:1800px;font-style:normal;font-variant:normal;font-weight:normal;font-stretch:normal;text-align:center;line-height:100%;writing-mode:lr-tb;text-anchor:middle;fill:#000000;fill-opacity:1;stroke:none;stroke-width:1px;stroke-linecap:butt;stroke-linejoin:miter;stroke-opacity:1;font-family:Roadgeek 2005 Series D"
     id="text1327" />
  <path
     d="M 333.35625,562.5 L 333.35625,387.9 L 263.60625,562.5 L 193.85625,387.9 L 193.85625,562.5 L 146.15625,562.5 L 146.15625,261 L 193.85625,261 L 263.60625,430.2 L 333.35625,261 L 381.05625,261 L 381.05625,562.5 L 333.35625,562.5 M 630.64453,562.5 L 600.94453,477.9 L 506.89453,477.9 L 477.19453,562.5 L 426.34453,562.5 L 530.29453,261 L 577.54453,261 L 681.49453,562.5 L 630.64453,562.5 M 554.59453,344.7 L 523.54453,429.3 L 583.84453,429.3 L 554.59453,344.7 M 880.56328,562.5 L 831.96328,431.1 L 774.81328,431.1 L 774.81328,562.5 L 727.11328,562.5 L 727.11328,261 L 826.56328,261 C 838.26313,261.0003 848.31312,261.7503 856.71328,263.25 C 865.11311,264.4503 873.0631,266.8503 880.56328,270.45 C 887.16309,273.75029 893.16308,278.10028 898.56328,283.5 C 904.26307,288.60027 909.06306,294.60027 912.96328,301.5 C 917.16306,308.10025 920.31305,315.30025 922.41328,323.1 C 924.81305,330.60023 926.01305,338.10022 926.01328,345.6 C 926.01305,353.70021 924.81305,361.6502 922.41328,369.45 C 920.31305,376.95019 917.16306,384.15018 912.96328,391.05 C 909.06306,397.65016 904.11307,403.65016 898.11328,409.05 C 892.41308,414.45015 886.11309,418.65014 879.21328,421.65 L 932.31328,562.5 L 880.56328,562.5 M 878.31328,345.6 C 878.31309,339.30022 876.6631,333.30023 873.36328,327.6 C 870.0631,321.90024 865.41311,317.40025 859.41328,314.1 C 855.51312,312.00025 851.91312,310.65025 848.61328,310.05 C 845.31313,309.15025 839.76313,308.70025 831.96328,308.7 L 774.81328,308.7 L 774.81328,382.5 L 831.96328,382.5 C 839.46313,382.50018 844.86313,382.20018 848.16328,381.6 C 851.76312,381.00018 855.51312,379.65018 859.41328,377.55 C 865.41311,374.25019 870.0631,369.75019 873.36328,364.05 C 876.6631,358.0502 878.31309,351.90021 878.31328,345.6 M 1115.175,431.1 L 1115.175,562.5 L 1067.475,562.5 L 1067.475,431.1 L 961.725,261 L 1018.875,261 L 1090.875,377.55 L 1163.775,261 L 1220.025,261 L 1115.175,431.1 M 1272.0352,562.5 L 1272.0352,261 L 1319.7352,261 L 1319.7352,517.95 L 1459.2352,517.95 L 1459.2352,562.5 L 1272.0352,562.5 M 1681.8164,562.5 L 1652.1164,477.9 L 1558.0664,477.9 L 1528.3664,562.5 L 1477.5164,562.5 L 1581.4664,261 L 1628.7164,261 L 1732.6664,562.5 L 1681.8164,562.5 M 1605.7664,344.7 L 1574.7164,429.3 L 1635.0164,429.3 L 1605.7664,344.7 M 1941.1852,562.5 L 1825.9852,358.2 L 1825.9852,562.5 L 1778.2852,562.5 L 1778.2852,261 L 1825.9852,261 L 1935.7852,453.6 L 1935.7852,261 L 1983.4852,261 L 1983.4852,562.5 L 1941.1852,562.5 M 2260.3406,411.3 C 2260.3404,441.60012 2255.6904,468.30009 2246.3906,491.4 C 2237.3904,514.20005 2224.3404,532.20003 2207.2406,545.4 C 2201.5404,550.80001 2194.7904,554.85001 2186.9906,557.55 C 2179.4905,560.25 2171.8405,561.9 2164.0406,562.5 L 2146.9406,562.5 L 2055.1406,562.5 L 2055.1406,261 L 2152.3406,261 C 2159.8405,261.0003 2166.2905,261.3003 2171.6906,261.9 C 2177.3905,262.2003 2182.4905,262.9503 2186.9906,264.15 C 2191.4905,265.3503 2195.5404,267.0003 2199.1406,269.1 C 2202.7404,271.20029 2206.6404,273.75029 2210.8406,276.75 C 2226.7404,290.55027 2238.8904,309.00025 2247.2906,332.1 C 2255.9904,354.90021 2260.3404,381.30018 2260.3406,411.3 M 2211.7406,411.3 C 2211.7404,390.90017 2209.4904,372.75019 2204.9906,356.85 C 2200.7904,340.95022 2194.9404,329.10023 2187.4406,321.3 C 2183.5405,317.70024 2179.0405,314.70025 2173.9406,312.3 C 2168.8405,309.90025 2163.1405,308.70025 2156.8406,308.7 L 2102.8406,308.7 L 2102.8406,513.9 L 2150.5406,513.9 C 2158.3405,513.90005 2164.7905,513.00005 2169.8906,511.2 C 2175.2905,509.40005 2180.0905,506.40006 2184.2906,502.2 C 2193.2905,493.20007 2200.0404,480.90008 2204.5406,465.3 C 2209.3404,449.40011 2211.7404,431.40013 2211.7406,411.3"
     style="font-size:450px;font-style:normal;font-variant:normal;font-weight:normal;font-stretch:normal;text-align:center;line-height:125%;writing-mode:lr-tb;text-anchor:middle;fill:#000000;fill-opacity:1;stroke:none;stroke-width:1px;stroke-linecap:butt;stroke-linejoin:miter;stroke-opacity:1;font-family:Roadgeek 2005 Series D"
     id="text2947" />
</svg>
