<?xml version="1.0" encoding="UTF-8" standalone="no"?>
<!-- Created with Inkscape (http://www.inkscape.org/) -->
<svg
   xmlns:svg="http://www.w3.org/2000/svg"
   xmlns="http://www.w3.org/2000/svg"
   version="1.0"
   width="500"
   height="500"
   id="svg1489">
  <defs
     id="defs1492" />
  <rect
     width="500"
     height="500"
     rx="29.017742"
     ry="29.017742"
     x="0"
     y="0"
     style="color:#000000;fill:#000000;fill-opacity:1;fill-rule:nonzero;stroke:none;stroke-width:5.17299986;stroke-linecap:round;stroke-linejoin:miter;marker:none;marker-start:none;marker-mid:none;marker-end:none;stroke-miterlimit:4;stroke-dasharray:none;stroke-dashoffset:0;stroke-opacity:1;visibility:visible;display:inline;overflow:visible"
     id="blank" />
  <path
     d="M 250.00001,495 L 5,250.00001 L 249.99999,5 L 495,249.99999 L 250.00001,495 z "
     style="color:#000000;fill:#ffffff;fill-opacity:1;fill-rule:nonzero;stroke:none;stroke-width:5.17299986;stroke-linecap:round;stroke-linejoin:miter;marker:none;marker-start:none;marker-mid:none;marker-end:none;stroke-miterlimit:4;stroke-dasharray:none;stroke-dashoffset:0;stroke-opacity:1;visibility:visible;display:inline;overflow:visible"
     id="diamond" />
  <path
     d="M 197.17794,136.94239 C 197.6474,137.02651 204.32206,136.94239 204.32206,136.94239 L 204.32206,95.875 L 197.17794,95.875 L 197.17794,78.000001 L 223.13861,78.000001 C 223.13861,78.000001 249.75097,105 249.75097,105 L 276.95938,78.000001 L 302.82206,78.000001 C 302.82206,78.000001 302.82206,95.875 302.82206,95.875 C 302.82206,95.875 295.93302,95.875 295.93302,95.875 C 295.93302,95.875 295.93302,136.94239 295.93302,136.94239 C 295.93302,136.94239 302.82206,136.94239 302.82206,136.94239 L 302.82206,154 L 270.30018,154 C 270.30018,154 270.30018,136.94239 270.30018,136.94239 L 276.95938,136.94239 C 276.95938,136.94239 276.95938,107.66076 276.95938,107.66076 L 249.75097,133.40127 C 249.75097,133.40127 223.13861,107.01389 223.13861,107.01389 C 223.13861,107.01389 223.13861,136.94239 223.13861,136.94239 C 223.13861,136.94239 230.40622,136.94239 230.40622,136.94239 C 230.40622,136.94239 230.35634,154 229.93887,154 L 197.17794,154 C 197.17794,154 197.17794,136.94239 197.17794,136.94239 z "
     style="fill:#000000"
     id="M" />
  <g
     id="g1459">
    <path
       d="M 125.03125,353.67999 C 125.35124,344.24 126.55124,335.60001 128.63125,327.75999 C 130.71123,319.92003 133.99123,312.16003 138.47125,304.47999 C 141.83122,298.40005 145.99122,292.80005 150.95125,287.67999 C 155.91121,282.40006 161.1912,277.68007 166.79125,273.51999 C 168.23119,272.72007 169.51119,271.92007 170.63125,271.11999 C 171.75119,270.16008 172.87119,269.28008 173.99125,268.47999 L 182.63125,263.91999 L 190.55125,259.35999 L 198.23125,255.03999 C 201.43116,252.96009 203.99116,250.4001 205.91125,247.35999 C 207.99115,244.1601 209.03115,240.88011 209.03125,237.51999 C 209.03115,234.48011 208.23115,231.68011 206.63125,229.11999 C 205.03116,226.40012 202.87116,224.08012 200.15125,222.15999 C 197.59117,220.24013 194.55117,218.72013 191.03125,217.59999 C 187.51118,216.48013 183.75118,215.92013 179.75125,215.91999 C 171.59119,215.92013 164.9512,217.84013 159.83125,221.67999 C 154.87121,225.52012 151.75121,231.12012 150.47125,238.47999 L 125.03125,232.95999 C 127.75124,219.52013 133.99123,209.04014 143.75125,201.51999 C 153.51121,193.84015 165.5112,190.00016 179.75125,189.99999 C 187.43118,190.00016 194.55117,191.28016 201.11125,193.83999 C 207.83116,196.40015 213.59115,199.84015 218.39125,204.15999 C 223.35114,208.48014 227.27114,213.60013 230.15125,219.51999 C 233.03113,225.28012 234.47113,231.44011 234.47125,237.99999 C 234.47113,244.2401 233.03113,250.4001 230.15125,256.47999 C 227.43114,262.40008 223.43114,267.68008 218.15125,272.31999 C 216.87115,273.28007 215.67115,274.16007 214.55125,274.95999 C 213.59115,275.76007 212.55115,276.40007 211.43125,276.87999 L 203.51125,281.91999 L 194.87125,286.47999 L 186.95125,291.03999 C 183.11118,293.28005 179.67118,295.68005 176.63125,298.23999 C 173.75119,300.64005 171.03119,303.28004 168.47125,306.15999 C 166.0712,309.04004 163.7512,312.24003 161.51125,315.75999 C 159.4312,319.28003 157.43121,323.28002 155.51125,327.75999 L 234.47125,327.75999 L 234.47125,353.67999 L 125.03125,353.67999 M 375.565,302.31999 C 375.56488,309.68004 374.04488,316.64003 371.005,323.19999 C 368.12489,329.76002 364.12489,335.52001 359.005,340.47999 C 354.0449,345.44 348.28491,349.36 341.725,352.23999 C 335.16492,355.11999 328.20493,356.55999 320.845,356.55999 C 313.48494,356.55999 306.52495,355.11999 299.965,352.23999 C 293.40496,349.36 287.56497,345.44 282.445,340.47999 C 277.48498,335.52001 273.48498,329.76002 270.445,323.19999 C 267.56499,316.64003 266.12499,309.68004 266.125,302.31999 C 266.12499,294.64005 267.72499,287.76006 270.925,281.67999 C 274.12498,275.44007 278.68498,269.92008 284.605,265.11999 C 276.76498,256.80009 272.84498,247.0401 272.845,235.83999 C 272.84498,229.60012 274.12498,223.76012 276.685,218.31999 C 279.24497,212.72013 282.68497,207.84014 287.005,203.67999 C 291.48496,199.36015 296.60496,196.00015 302.365,193.59999 C 308.12495,191.20016 314.28494,190.00016 320.845,189.99999 C 327.24493,190.00016 333.40492,191.20016 339.325,193.59999 C 345.24491,196.00015 350.3649,199.36015 354.685,203.67999 C 359.16489,207.84014 362.68489,212.72013 365.245,218.31999 C 367.96489,223.76012 369.32488,229.60012 369.325,235.83999 C 369.32488,241.4401 368.20489,246.7201 365.965,251.67999 C 363.88489,256.48009 360.84489,260.96009 356.845,265.11999 C 363.08489,269.92008 367.72489,275.52007 370.765,281.91999 C 373.96488,288.16006 375.56488,294.96005 375.565,302.31999 M 343.405,235.11999 C 343.40491,229.84012 341.16491,225.36012 336.685,221.67999 C 332.36492,217.84013 327.08493,215.92013 320.845,215.91999 C 314.60494,215.92013 309.24494,217.84013 304.765,221.67999 C 300.44495,225.36012 298.28496,229.84012 298.285,235.11999 C 298.28496,239.92011 300.44495,244.0801 304.765,247.59999 C 309.24494,250.9601 314.60494,252.64009 320.845,252.63999 C 327.08493,252.64009 332.36492,250.9601 336.685,247.59999 C 341.16491,244.0801 343.40491,239.92011 343.405,235.11999 M 350.125,302.79999 C 350.1249,299.44005 349.3249,296.32005 347.725,293.43999 C 346.12491,290.40006 343.96491,287.84006 341.245,285.75999 C 338.68492,283.52006 335.64492,281.76006 332.125,280.47999 C 328.60493,279.20007 324.84493,278.56007 320.845,278.55999 C 316.84494,278.56007 313.08494,279.20007 309.565,280.47999 C 306.20495,281.76006 303.16495,283.52006 300.445,285.75999 C 297.88496,287.84006 295.80496,290.40006 294.205,293.43999 C 292.76496,296.32005 292.04496,299.44005 292.045,302.79999 C 292.04496,306.64004 292.76496,310.24004 294.205,313.59999 C 295.80496,316.96003 297.88496,319.92003 300.445,322.47999 C 303.16495,325.04002 306.20495,327.04002 309.565,328.47999 C 313.08494,329.92002 316.84494,330.64002 320.845,330.63999 C 324.84493,330.64002 328.60493,329.92002 332.125,328.47999 C 335.80492,327.04002 338.92492,325.04002 341.485,322.47999 C 344.20491,319.92003 346.28491,316.96003 347.725,313.59999 C 349.3249,310.24004 350.1249,306.64004 350.125,302.79999"
       style="font-size:240px;font-style:normal;font-variant:normal;font-weight:normal;font-stretch:normal;text-align:center;line-height:100%;writing-mode:lr-tb;text-anchor:middle;fill-opacity:1;fill-rule:evenodd;stroke:none;font-family:Roadgeek 2005 Series D"
       id="number" />
  </g>
</svg>
