<?xml version="1.0" encoding="UTF-8" standalone="no"?>
<!-- Created with Inkscape (http://www.inkscape.org/) -->
<svg
   xmlns:svg="http://www.w3.org/2000/svg"
   xmlns="http://www.w3.org/2000/svg"
   version="1.0"
   width="2160"
   height="2160"
   id="svg2">
  <defs
     id="defs4" />
  <g
     id="layer1">
    <rect
       width="2160"
       height="2160"
       ry="85.947075"
       x="0"
       y="0"
       style="fill:black;fill-opacity:1;stroke:none;stroke-width:2;stroke-miterlimit:4;stroke-dasharray:none;stroke-dashoffset:0;stroke-opacity:1"
       id="rect1872" />
    <path
       d="M 87.054103,89.256663 L 1582.1451,89.256663 C 1582.1451,89.256663 1640.1636,160.41595 1644.6265,198.36757 C 1649.0894,236.31919 1622.3117,283.7587 1653.5524,312.22241 C 1684.7931,340.68612 1796.367,483.00469 1796.367,530.4442 C 1796.367,577.88372 1818.6818,644.29904 1832.0707,663.27485 C 1845.4596,682.25065 1903.4781,739.17809 1925.7928,791.36155 C 1948.1076,843.54503 1965.9594,1199.3414 1965.9594,1199.3414 C 1965.9594,1199.3414 2140.0147,1607.3213 2108.7741,1683.2245 C 2077.5334,1759.1278 2041.8297,1749.6399 2019.5148,1811.3112 C 1997.2001,1872.9826 1925.7928,1906.1902 1921.3298,1934.654 C 1916.8669,1963.1176 1881.1632,2067.4847 1881.1632,2067.4847 L 1519.6637,2067.4847 C 1519.6637,2067.4847 1608.9228,1929.9101 1617.8487,1896.7024 C 1626.7746,1863.4946 1595.5339,1816.0551 1595.5339,1816.0551 L 305.73902,1816.0551 C 278.93173,1816.0521 278.80389,1811.6075 278.96128,1787.5915 L 278.96128,1033.3031 C 278.96128,1033.3031 247.72058,705.97041 229.86875,582.62767 C 212.01692,459.28493 153.99847,407.10144 140.6096,345.43008 C 127.22072,283.7587 72.932786,149.91098 64.739309,127.20829 C 58.434413,109.73853 73.735066,94.057073 87.054103,89.256663 z "
       style="fill:white;fill-rule:evenodd;stroke:black;stroke-width:1.13876617px;stroke-linecap:butt;stroke-linejoin:miter;stroke-opacity:1"
       id="path2821" />
    <path
       d="M 1411.8962,1112.0669 C 1411.8953,1172.4821 1400.298,1228.0489 1377.1041,1278.7675 C 1353.9087,1329.4865 1321.2732,1373.7193 1279.1975,1411.4661 C 1237.1205,1449.2131 1187.2248,1478.6056 1129.5103,1499.6438 C 1071.7947,1520.682 1008.4168,1531.2011 939.37639,1531.2011 C 891.90021,1531.2011 845.23926,1525.8098 799.3934,1515.0273 C 753.54707,1504.2449 711.74235,1489.1412 673.9791,1469.7162 L 758.13187,1317.6091 C 780.78311,1329.4618 810.44726,1338.8944 847.12441,1345.9069 C 883.80101,1352.9198 922.09114,1356.4262 961.99492,1356.426 C 1000.8444,1356.4262 1037.2578,1350.2283 1071.2355,1337.8324 C 1105.2121,1325.4369 1134.8845,1308.4483 1160.2527,1286.8667 C 1185.6198,1265.2855 1205.3081,1239.6627 1219.3177,1209.9982 C 1233.326,1180.3344 1240.3305,1147.6907 1240.3312,1112.0669 C 1240.3305,1085.1029 1235.2109,1060.295 1224.9723,1037.6431 C 1214.7324,1014.9922 1200.7152,995.03223 1182.9206,977.76327 C 1165.1248,960.49539 1144.6299,947.00495 1121.4358,937.29191 C 1098.2406,927.58003 1073.1446,922.7238 1046.1477,922.72321 C 1026.7552,922.7238 1009.7749,924.34529 995.20662,927.58768 C 980.63751,930.83123 966.87545,936.76571 953.9204,945.39112 C 940.96459,954.01767 928.01739,965.615 915.07876,980.18316 C 902.13945,994.75238 887.57076,1013.3624 871.37266,1036.0134 L 699.85707,987.46751 L 727.36475,427.53552 L 1350.4113,427.53552 L 1350.4113,599.1005 L 894.04057,599.1005 L 882.73131,777.08558 C 922.63438,765.23383 953.91179,757.15109 976.56362,752.83734 C 999.21464,748.52511 1024.039,746.36861 1051.0368,746.36785 C 1100.6522,746.36861 1147.3049,756.07284 1190.9952,775.48056 C 1234.6841,794.88975 1272.9825,821.31916 1305.8904,854.76886 C 1338.7967,888.21988 1364.6911,927.06148 1383.5736,971.29378 C 1402.4545,1015.5272 1411.8953,1062.4515 1411.8962,1112.0669 L 1411.8962,1112.0669 z "
       transform="scale(1.003941,0.996074)"
       style="font-size:680.82678223px;font-style:normal;font-weight:normal;text-align:center;text-anchor:middle;fill:black;fill-opacity:1;stroke:none;stroke-width:1px;stroke-linecap:butt;stroke-linejoin:miter;stroke-opacity:1;font-family:Roadgeek 2005 Series D"
       id="text1928" />
  </g>
</svg>
