<?xml version="1.0" encoding="utf-8"?>
<!-- Generator: Adobe Illustrator 12.0.0, SVG Export Plug-In . SVG Version: 6.00 Build 51448)  -->
<!DOCTYPE svg PUBLIC "-//W3C//DTD SVG 1.1//EN" "http://www.w3.org/Graphics/SVG/1.1/DTD/svg11.dtd" [
	<!ENTITY ns_svg "http://www.w3.org/2000/svg">
	<!ENTITY ns_xlink "http://www.w3.org/1999/xlink">
]>
<svg  version="1.1" id="Layer_1" xmlns="&ns_svg;" xmlns:xlink="&ns_xlink;" width="192" height="192" viewBox="0 0 192 192"
	 overflow="visible" enable-background="new 0 0 192 192" xml:space="preserve">
<g>
	<path d="M0,12C0,5.3725586,5.3725586,0,12,0h168c6.6269531,0,12,5.3725586,12,12v168c0,6.6269531-5.3730469,12-12,12H12
		c-6.6274414,0-12-5.3730469-12-12V12L0,12z"/>
	<path d="M96,96"/>
</g>
<g>
	<circle fill="#FFFFFF" cx="96" cy="96" r="92"/>
	<path fill="#FFFFFF" d="M96,96"/>
</g>
<g>
	<path fill-rule="evenodd" clip-rule="evenodd" d="M64.8671875,144.3232422H49.3154297V66.1313477H40.53125V54.0351563h1.0078125
		c4.512207,0,8.2080078-2.0639648,11.0883789-6.1918945h12.2397461V144.3232422z"/>
	<path fill-rule="evenodd" clip-rule="evenodd" d="M151.46875,108.7558594c0,10.7519531-3.9599609,19.6552734-11.8798828,26.7109375
		c-7.9199219,7.0566406-17.9755859,10.5839844-30.1679688,10.5839844c-8.5439453,0-16.4160156-1.8232422-23.6162109-5.4716797
		l7.34375-13.5361328C97.6601563,129.3476563,103.7568359,130.5,111.4365234,130.5
		c7.0087891,0,12.8876953-2.0644531,17.6396484-6.1923828s7.1289063-9.3125,7.1289063-15.5517578
		c0-4.7050781-1.6806641-8.6884766-5.0410156-11.953125c-3.359375-3.2636719-7.4394531-4.8955078-12.2392578-4.8955078
		c-3.3603516,0-6.0722656,0.671875-8.1357422,2.0161133c-2.0644531,1.34375-4.5361328,4.0317383-7.4160156,8.0639648
		l-15.2646484-4.3193359l2.4482422-49.824707h55.4394531v15.2641602h-40.6074219l-1.0078125,15.8398438
		c6.3359375-1.7280273,11.2792969-2.5917969,14.8320313-2.5917969c8.8320313,0,16.4160156,3.1918945,22.7519531,9.5756836
		C148.3007813,92.3154297,151.46875,99.9238281,151.46875,108.7558594z"/>
</g>
</svg>
