<?xml version="1.0" encoding="UTF-8" standalone="no"?>
<!-- Created with Inkscape (http://www.inkscape.org/) -->

<svg
   xmlns:dc="http://purl.org/dc/elements/1.1/"
   xmlns:cc="http://creativecommons.org/ns#"
   xmlns:rdf="http://www.w3.org/1999/02/22-rdf-syntax-ns#"
   xmlns:svg="http://www.w3.org/2000/svg"
   xmlns="http://www.w3.org/2000/svg"
   version="1.1"
   width="750"
   height="600"
   id="svg2">
  <defs
     id="defs4" />
  <metadata
     id="metadata7">
    <rdf:RDF>
      <cc:Work
         rdf:about="">
        <dc:format>image/svg+xml</dc:format>
        <dc:type
           rdf:resource="http://purl.org/dc/dcmitype/StillImage" />
        <dc:title></dc:title>
      </cc:Work>
    </rdf:RDF>
  </metadata>
  <g
     transform="translate(0,-452.36218)"
     id="layer1">
    <rect
       width="750"
       height="600"
       rx="37.5"
       ry="37.5"
       x="0"
       y="452.36218"
       id="rect2985"
       style="fill:#000000;fill-opacity:1;fill-rule:nonzero;stroke:none" />
    <rect
       width="675"
       height="525"
       x="37.5"
       y="489.86218"
       id="rect3755"
       style="fill:#ffffff;fill-opacity:1;fill-rule:nonzero;stroke:none" />
    <g
       id="text3757"
       style="font-size:373.13433838px;font-style:normal;font-variant:normal;font-weight:normal;font-stretch:normal;text-align:center;line-height:100%;letter-spacing:0px;word-spacing:0px;writing-mode:lr-tb;text-anchor:middle;fill:#000000;fill-opacity:1;stroke:none;font-family:Roadgeek 2005 Series C;-inkscape-font-specification:Roadgeek 2005 Series C">
      <path
         d="m 59.147209,927.36218 c 0.497487,-14.6766 2.363157,-28.10942 5.597015,-40.29851 3.233797,-12.189 8.333295,-24.25366 15.298508,-36.19403 5.22383,-9.45265 11.691485,-18.15911 19.402985,-26.1194 7.711373,-8.20885 15.920313,-15.54715 24.626863,-22.01493 2.23872,-1.24365 4.22877,-2.48743 5.97015,-3.73134 1.7412,-1.49241 3.48249,-2.86057 5.22388,-4.10448 l 13.43284,-7.08955 12.31343,-7.08955 11.9403,-6.71642 c 4.97498,-3.23367 8.95508,-7.21377 11.9403,-11.9403 3.23368,-4.97495 4.85059,-10.07445 4.85075,-15.29851 -1.6e-4,-4.72618 -1.24394,-9.07941 -3.73135,-13.0597 -2.48771,-4.22866 -5.84591,-7.83562 -10.07462,-10.82089 -3.98024,-2.98487 -8.7066,-5.34805 -14.17911,-7.08956 -5.47276,-1.74108 -11.31852,-2.61172 -17.53731,-2.61194 -12.68667,2.2e-4 -23.01004,2.98529 -30.97015,8.95523 -7.71152,5.97035 -12.56226,14.6768 -14.552241,26.1194 l -39.55224,-8.58209 c 4.228827,-20.89531 13.93031,-37.18883 29.104478,-48.8806 15.174063,-11.94005 33.830763,-17.91019 55.970153,-17.91045 11.94018,2.6e-4 23.00982,1.99031 33.20895,5.97015 10.44761,3.98035 19.40283,9.3286 26.86568,16.04478 7.71126,6.71664 13.80578,14.67683 18.28358,23.8806 4.47742,8.95542 6.71622,18.53253 6.71642,28.73134 -2e-4,9.70166 -2.239,19.27877 -6.71642,28.73135 -4.22904,9.20412 -10.44794,17.41307 -18.65672,24.62686 -1.99022,1.49266 -3.85588,2.86082 -5.59701,4.10448 -1.4927,1.2439 -3.10962,2.23893 -4.85075,2.98507 l -12.31343,7.83583 -13.43284,7.08955 -12.31343,7.08955 c -5.97027,3.48268 -11.31852,7.21402 -16.04478,11.19403 -4.47771,3.73143 -8.70656,7.8359 -12.68657,12.31343 -3.73143,4.47769 -7.33839,9.4528 -10.82089,14.92538 -3.23391,5.47269 -6.34336,11.69159 -9.32836,18.65671 l 122.7612,0 0,40.29851 -170.149261,0"
         id="path5284"
         style="fill:#000000;font-family:Roadgeek 2005 Series D;-inkscape-font-specification:Roadgeek 2005 Series D" />
      <path
         d="m 455.7482,802.73531 c -2e-4,19.90061 -2.36338,38.93044 -7.08955,57.08956 -4.72656,18.15925 -11.44297,32.83585 -20.14925,44.02985 -13.93051,18.65672 -34.07975,27.98507 -60.44777,27.98507 -17.66179,0 -32.21401,-3.60696 -43.65671,-10.82089 -11.44285,-7.21392 -20.89558,-18.53232 -28.35821,-33.95523 -5.22392,-10.69646 -9.45277,-23.63177 -12.68657,-38.80597 -3.23386,-15.42279 -4.85077,-30.5969 -4.85075,-45.52239 -2e-5,-20.64662 2.36316,-39.80083 7.08955,-57.46268 4.97509,-17.6615 11.6915,-32.46248 20.14926,-44.40299 7.46263,-9.4525 16.29346,-16.41767 26.49254,-20.89552 10.44767,-4.72612 22.88547,-7.0893 37.31343,-7.08956 15.92027,2.6e-4 29.47747,3.60722 40.67164,10.8209 11.19387,7.21417 20.77097,18.53256 28.73135,33.95522 5.22369,11.19423 9.32816,24.25392 12.31343,39.17911 2.98487,14.92553 4.47741,30.22402 4.47761,45.89552 m -39.55224,0 c -1.6e-4,-14.17896 -1.24394,-27.23865 -3.73134,-39.1791 -2.48772,-12.18888 -6.21906,-22.51225 -11.19403,-30.97015 -3.98024,-6.46746 -8.58223,-11.19383 -13.80597,-14.17911 -4.97525,-2.98486 -11.19415,-4.72615 -18.65672,-5.22388 -9.7016,-0.4973 -17.78617,1.74151 -24.25373,6.71642 -6.46775,4.97533 -11.816,13.0599 -16.04478,24.25373 -3.2339,7.46286 -5.72146,16.54246 -7.46268,27.23881 -1.49261,10.44791 -2.23887,20.89566 -2.23881,31.34328 -6e-5,13.43295 1.24371,26.36826 3.73134,38.80597 2.48749,12.43789 6.21883,22.63688 11.19403,30.59702 3.98002,6.46771 8.70638,11.31845 14.17911,14.55224 5.47254,3.23387 12.18895,4.85078 20.14925,4.85075 9.20386,3e-5 16.79092,-2.48753 22.7612,-7.46269 6.21876,-4.97508 11.44264,-13.05965 15.67164,-24.25373 1.24363,-3.23376 2.48741,-7.08948 3.73134,-11.56717 1.24363,-4.72628 2.23865,-9.57702 2.98508,-14.55224 0.99486,-5.22378 1.74113,-10.44765 2.2388,-15.67164 0.49735,-5.22376 0.74611,-10.32326 0.74627,-15.29851"
         id="path5286"
         style="fill:#000000;font-family:Roadgeek 2005 Series D;-inkscape-font-specification:Roadgeek 2005 Series D" />
      <path
         d="m 683.12693,802.73531 c -2.1e-4,19.90061 -2.36339,38.93044 -7.08956,57.08956 -4.72656,18.15925 -11.44297,32.83585 -20.14925,44.02985 -13.93051,18.65672 -34.07974,27.98507 -60.44776,27.98507 -17.66179,0 -32.21402,-3.60696 -43.65672,-10.82089 -11.44285,-7.21392 -20.89557,-18.53232 -28.35821,-33.95523 -5.22392,-10.69646 -9.45277,-23.63177 -12.68657,-38.80597 -3.23386,-15.42279 -4.85077,-30.5969 -4.85075,-45.52239 -2e-5,-20.64662 2.36316,-39.80083 7.08956,-57.46268 4.97508,-17.6615 11.6915,-32.46248 20.14925,-44.40299 7.46263,-9.4525 16.29347,-16.41767 26.49254,-20.89552 10.44767,-4.72612 22.88547,-7.0893 37.31343,-7.08956 15.92027,2.6e-4 29.47747,3.60722 40.67165,10.8209 11.19386,7.21417 20.77096,18.53256 28.73134,33.95522 5.22369,11.19423 9.32816,24.25392 12.31343,39.17911 2.98488,14.92553 4.47741,30.22402 4.47762,45.89552 m -39.55224,0 c -1.7e-4,-14.17896 -1.24395,-27.23865 -3.73135,-39.1791 -2.48772,-12.18888 -6.21906,-22.51225 -11.19403,-30.97015 -3.98024,-6.46746 -8.58223,-11.19383 -13.80597,-14.17911 -4.97525,-2.98486 -11.19415,-4.72615 -18.65672,-5.22388 -9.70159,-0.4973 -17.78616,1.74151 -24.25373,6.71642 -6.46774,4.97533 -11.816,13.0599 -16.04477,24.25373 -3.23391,7.46286 -5.72147,16.54246 -7.46269,27.23881 -1.4926,10.44791 -2.23887,20.89566 -2.23881,31.34328 -6e-5,13.43295 1.24372,26.36826 3.73135,38.80597 2.48749,12.43789 6.21883,22.63688 11.19403,30.59702 3.98001,6.46771 8.70638,11.31845 14.1791,14.55224 5.47254,3.23387 12.18895,4.85078 20.14926,4.85075 9.20385,3e-5 16.79091,-2.48753 22.76119,-7.46269 6.21876,-4.97508 11.44264,-13.05965 15.67164,-24.25373 1.24363,-3.23376 2.48741,-7.08948 3.73135,-11.56717 1.24362,-4.72628 2.23864,-9.57702 2.98507,-14.55224 0.99487,-5.22378 1.74113,-10.44765 2.23881,-15.67164 0.49735,-5.22376 0.7461,-10.32326 0.74627,-15.29851"
         id="path5288"
         style="fill:#000000;font-family:Roadgeek 2005 Series D;-inkscape-font-specification:Roadgeek 2005 Series D" />
    </g>
    <g
       transform="translate(72,0)"
       id="text3761"
       style="font-size:111.60713959px;font-style:normal;font-variant:normal;font-weight:normal;font-stretch:normal;text-align:center;line-height:100%;letter-spacing:0px;word-spacing:0px;writing-mode:lr-tb;text-anchor:middle;fill:#000000;fill-opacity:1;stroke:none;font-family:Roadgeek 2005 Series C;-inkscape-font-specification:Roadgeek 2005 Series C">
      <path
         d="m 153.6657,614.86218 0,-41.96428 -13.83929,41.96428 -13.95089,-41.96428 0,41.96428 -10.71429,0 0,-74.77678 10.71429,0 13.95089,41.96428 13.83929,-41.96428 10.82589,0 0,74.77678 -10.82589,0"
         id="path3800" />
      <path
         d="m 223.29635,577.36218 c -5e-5,5.7292 -0.33487,10.60271 -1.00447,14.62054 -0.59528,4.01787 -1.67415,7.81251 -3.2366,11.38393 -1.86017,4.46429 -4.20392,7.7381 -7.03125,9.82143 -2.75302,2.00892 -6.25004,3.01339 -10.49107,3.01339 -4.46431,0 -8.11014,-1.00447 -10.9375,-3.01339 -2.753,-2.08333 -5.05954,-5.35714 -6.91965,-9.82143 -1.56251,-3.64582 -2.67858,-7.44046 -3.34821,-11.38393 -0.59525,-4.01783 -0.89287,-8.89134 -0.89286,-14.62054 -1e-5,-5.65471 0.29761,-10.49102 0.89286,-14.50892 0.66963,-4.09221 1.7857,-7.92405 3.34821,-11.49554 1.93451,-4.46422 4.27826,-7.66362 7.03125,-9.59821 2.82736,-2.00886 6.43599,-3.01332 10.8259,-3.0134 4.31544,8e-5 7.84966,1.00454 10.60267,3.0134 2.75294,1.93459 5.05948,5.2084 6.91965,9.82142 0.744,1.86018 1.37644,3.7203 1.89732,5.58036 0.59519,1.86018 1.04161,3.8319 1.33928,5.91518 0.37198,2.00898 0.63239,4.20392 0.78125,6.58482 0.14876,2.30659 0.22317,4.87355 0.22322,7.70089 m -10.26786,0 c -4e-5,-2.08329 -0.0744,-3.98061 -0.22321,-5.69196 -0.0745,-1.71126 -0.22326,-3.27376 -0.44643,-4.6875 -0.14885,-1.48805 -0.37207,-2.90174 -0.66965,-4.24107 -0.29765,-1.33923 -0.63247,-2.67852 -1.00446,-4.01786 -0.9673,-3.34815 -2.19498,-5.76631 -3.68304,-7.25446 -1.41372,-1.48803 -3.23663,-2.23208 -5.46874,-2.23215 -4.61312,7e-5 -7.77532,3.08786 -9.48661,9.2634 -0.89288,2.82743 -1.52532,5.69201 -1.89732,8.59375 -0.29764,2.82742 -0.44645,6.32444 -0.44643,10.49107 -2e-5,2.00896 0.0372,3.86908 0.11161,5.58035 0.14879,1.63694 0.2976,3.19944 0.44642,4.6875 0.2232,1.41372 0.48362,2.82741 0.78125,4.24108 0.2976,1.41371 0.63243,2.8646 1.00447,4.35267 1.71129,6.17561 4.87349,9.26341 9.48661,9.2634 2.23211,10e-6 4.05502,-0.74404 5.46874,-2.23215 1.48806,-1.48808 2.71574,-3.83183 3.68304,-7.03125 0.44639,-1.48807 0.81841,-2.90176 1.11607,-4.24107 0.29758,-1.41366 0.5208,-2.86455 0.66964,-4.35268 0.22318,-1.48806 0.37199,-3.05056 0.44643,-4.6875 0.0744,-1.71127 0.11157,-3.64579 0.11161,-5.80357"
         id="path3802" />
      <path
         d="m 272.13842,614.86218 -23.10268,-50.1116 0,50.1116 -10.71428,0 0,-74.77678 10.71428,0 20.53572,44.86607 0,-44.86607 10.71428,0 0,74.77678 -8.14732,0"
         id="path3804" />
      <path
         d="m 315.16123,550.01843 0,64.84375 -10.82589,0 0,-64.84375 -13.61607,0 0,-9.93303 38.05803,0 0,9.93303 -13.61607,0"
         id="path3806" />
      <path
         d="m 370.27946,614.86218 -5.24554,-20.4241 -16.07143,0 -4.91071,20.4241 -10.82589,0 18.63839,-74.77678 10.49107,0 18.63839,74.77678 -10.71428,0 m -13.39286,-52.45535 -5.24553,21.54017 10.71428,0 -5.46875,-21.54017"
         id="path3808" />
      <path
         d="m 425.16228,614.86218 -23.10268,-50.1116 0,50.1116 -10.71428,0 0,-74.77678 10.71428,0 20.53572,44.86607 0,-44.86607 10.71428,0 0,74.77678 -8.14732,0"
         id="path3810" />
      <path
         d="m 480.79667,614.86218 -5.24554,-20.4241 -16.07142,0 -4.91072,20.4241 -10.82589,0 18.63839,-74.77678 10.49107,0 18.6384,74.77678 -10.71429,0 m -13.39286,-52.45535 -5.24553,21.54017 10.71428,0 -5.46875,-21.54017"
         id="path3812" />
    </g>
  </g>
</svg>
