<?xml version="1.0" encoding="UTF-8" standalone="no"?>
<!-- Created with Inkscape (http://www.inkscape.org/) -->
<svg
   xmlns:svg="http://www.w3.org/2000/svg"
   xmlns="http://www.w3.org/2000/svg"
   version="1.0"
   width="600"
   height="600"
   id="svg1873">
  <defs
     id="defs1875" />
  <g
     id="layer1">
    <g
       id="g1876">
      <path
         d="M 37.50003,-0.00048 L 562.50045,-0.00048 C 583.27547,-0.00048 600.00048,16.724533 600.00048,37.49955 L 600.00048,562.49997 C 600.00048,583.27499 583.27547,600 562.50045,600 L 37.50003,600 C 16.725013,600 0,583.27499 0,562.49997 L 0,37.49955 C 0,16.724533 16.725013,-0.00048 37.50003,-0.00048 z "
         style="fill:black;fill-opacity:1;fill-rule:nonzero;stroke:none;stroke-width:10;stroke-linecap:square;stroke-linejoin:bevel;stroke-miterlimit:4;stroke-dashoffset:0;stroke-opacity:1"
         id="rect1899" />
      <path
         d="M 326.51728,24.227931 L 575.77298,273.48364 C 590.46316,288.17382 590.46316,311.82659 575.77298,326.51677 L 326.51727,575.77248 C 311.8271,590.46266 288.17432,590.46266 273.48414,575.77248 L 24.228435,326.51677 C 9.5382579,311.8266 9.5382579,288.17382 24.228435,273.48364 L 273.48415,24.227931 C 288.17432,9.5377543 311.8271,9.5377543 326.51728,24.227931 z "
         style="fill:white;fill-opacity:1;fill-rule:nonzero;stroke:none;stroke-width:10;stroke-linecap:square;stroke-linejoin:bevel;stroke-miterlimit:4;stroke-dashoffset:0;stroke-opacity:1"
         id="rect2789" />
      <path
         d="M 147.51076,422.69833 C 147.98658,414.54333 148.52463,407.46626 149.12493,401.46711 C 149.72519,395.46801 150.44443,390.07099 151.28264,385.27604 C 152.12081,380.48117 153.20058,375.86378 154.52195,371.42387 C 155.84327,366.98405 157.46293,362.12509 159.38092,356.84696 C 169.21961,331.66461 182.17318,311.63579 198.24168,296.76047 C 199.68375,295.56004 201.18445,294.30092 202.74378,292.9831 C 204.30297,291.66555 206.22093,290.16668 208.49767,288.4865 C 210.77426,286.80658 213.53225,284.76783 216.77164,282.37024 C 220.01087,279.97292 224.02798,277.09415 228.82298,273.7339 C 236.74364,268.21442 242.08209,263.53663 244.83836,259.70054 C 247.59441,255.86478 248.97249,250.94908 248.9726,244.95344 C 248.97249,240.39296 248.0739,236.07388 246.27684,231.99619 C 244.47955,227.91888 242.08209,224.32087 239.08446,221.20214 C 236.08663,218.08382 232.48861,215.62415 228.29042,213.8231 C 224.09203,212.02247 219.71256,211.12206 215.15199,211.12184 C 210.357,211.12206 205.92079,212.02247 201.84336,213.8231 C 197.76579,215.62415 194.22634,218.08382 191.225,221.20214 C 188.22355,224.32087 185.82427,227.91888 184.02714,231.99619 C 182.22991,236.07388 181.33133,240.39296 181.33137,244.95344 L 147.51076,244.95344 C 147.745,235.59805 149.60257,226.78238 153.08348,218.50638 C 156.56434,210.23079 161.30252,203.03293 167.29802,196.91279 C 173.29345,190.79311 180.36868,185.99454 188.52375,182.51707 C 196.6787,179.04009 205.55477,177.30148 215.15199,177.30123 C 224.50747,177.30148 233.20419,179.10048 241.24218,182.69825 C 249.27995,186.29651 256.35701,191.15364 262.4734,197.26967 C 268.58952,203.38615 273.38626,210.52361 276.86363,218.68207 C 280.34071,226.84094 282.07932,235.59805 282.07947,244.95344 C 282.07932,264.14057 275.242,279.97109 261.56749,292.44505 C 260.3668,293.40416 259.10768,294.30275 257.79012,295.14081 C 256.47231,295.97914 255.21319,296.99851 254.01275,298.19894 L 245.73329,304.3152 L 237.10244,310.08008 L 227.74687,316.91009 C 223.91085,319.78714 220.13349,323.2058 216.41477,327.16608 C 212.69589,331.12655 209.09788,335.44563 205.62072,340.12333 C 202.14343,344.80119 199.0853,349.71872 196.44633,354.87592 C 193.80724,360.03326 191.64587,365.13014 189.96222,370.16658 C 188.52735,373.28515 187.5098,376.10353 186.90958,378.62173 C 186.30925,381.14001 185.52962,384.55868 184.57069,388.87772 L 282.07947,388.87772 L 282.07947,422.69833 L 147.51076,422.69833 z M 438.2802,364.41268 L 438.2802,422.69833 L 403.74584,422.69833 L 403.74584,364.41268 L 303.71149,364.41268 L 303.71149,339.93666 L 403.74584,181.61665 L 438.2802,181.61665 L 438.2802,332.01956 L 452.67592,332.01956 L 452.67592,364.41268 L 438.2802,364.41268 z M 403.74584,241.71413 L 346.17393,332.01956 L 403.74584,332.01956 L 403.74584,241.71413 z "
         style="font-size:359.81619263px"
         id="text2799" />
    </g>
  </g>
</svg>
