<?xml version="1.0" encoding="UTF-8" standalone="no"?>
<!-- Created with Inkscape (http://www.inkscape.org/) -->

<svg
   xmlns:dc="http://purl.org/dc/elements/1.1/"
   xmlns:cc="http://creativecommons.org/ns#"
   xmlns:rdf="http://www.w3.org/1999/02/22-rdf-syntax-ns#"
   xmlns:svg="http://www.w3.org/2000/svg"
   xmlns="http://www.w3.org/2000/svg"
   version="1.1"
   width="600"
   height="600"
   id="svg3096">
  <metadata
     id="metadata3102">
    <rdf:RDF>
      <cc:Work
         rdf:about="">
        <dc:format>image/svg+xml</dc:format>
        <dc:type
           rdf:resource="http://purl.org/dc/dcmitype/StillImage" />
        <dc:title></dc:title>
      </cc:Work>
    </rdf:RDF>
  </metadata>
  <defs
     id="defs3100" />
  <path
     d="m 37.5,0 525,0 C 583.275,0 600,16.725 600,37.5 l 0,525 c 0,20.775 -16.725,37.5 -37.5,37.5 l -525,0 C 16.725,600 0,583.275 0,562.5 L 0,37.5 C 0,16.725 16.725,0 37.5,0 z"
     id="rect3751"
     style="fill:#000000;fill-opacity:1;fill-rule:nonzero;stroke:none" />
  <path
     d="m 351.38581,564.93141 c 10.4448,-0.4984 19.8884,-2.2648 38.8891,-7.2739 5.2014,-1.3713 8.4181,-2.0471 11.1972,-2.3526 1.421,-0.1561 3.3624,-0.3848 4.3142,-0.5082 0.9518,-0.1233 5.4574,-0.169 10.0124,-0.1015 l 8.2818,0.1227 1.4977,-0.7128 c 1.7085,-0.8131 3.2135,-2.3922 3.3835,-3.5501 0.1441,-0.9819 -0.2333,-7.4213 -0.5764,-9.8367 -0.6161,-4.3359 -0.7041,-5.1365 -0.7066,-6.4277 0,-1.6794 0.5744,-3.0012 1.9103,-4.3703 1.2059,-1.236 2.1197,-1.4371 5.7389,-1.2628 2.0272,0.098 2.5958,0.2198 3.4977,0.7519 1.1331,0.6684 4.957,3.6684 8.8797,6.9665 4.4942,3.7786 11.2938,7.68 15.683,8.9987 7.1074,2.1352 14.953,2.6352 18.7294,1.1936 4.518,-1.7248 6.522,-4.5183 6.4279,-8.9608 -0.08,-3.7792 -1.1869,-7.4976 -4.1516,-13.9472 -0.7188,-1.5636 -1.7739,-4.0018 -2.3448,-5.4182 -1.0211,-2.5339 -1.0363,-2.6154 -0.9449,-5.0859 0.1709,-4.6169 -0.038,-4.5442 13.4383,-4.6714 12.6979,-0.1199 14.8613,-0.3757 19.7245,-2.3328 4.4841,-1.8045 7.728,-4.3062 8.8382,-6.8159 1.204,-2.722 1.0039,-6.9547 -0.5566,-11.7697 -0.5509,-1.6996 -1.3357,-3.7577 -1.7442,-4.5736 -0.8362,-1.67 -4.7699,-7.7454 -6.7204,-10.379 -5.362,-7.2402 -7.6947,-10.6435 -9.2524,-13.4987 -1.1692,-2.143 -1.2961,-3.4175 -0.5514,-5.5413 0.5297,-1.5107 1.7823,-2.5512 3.8571,-3.2038 1.3114,-0.4125 1.9264,-0.4359 6.5323,-0.2488 2.7965,0.1136 5.6186,0.1866 6.2713,0.1621 1.198,-0.045 3.7386,-0.9334 8.9492,-3.13 1.4956,-0.6305 4.1772,-1.6909 5.9591,-2.3563 4.8093,-1.7962 5.8265,-2.2972 6.7118,-3.3054 0.9725,-1.1076 1.4649,-2.2307 1.9107,-4.3578 0.4406,-2.1025 0.2193,-3.173 -1.0988,-5.3152 -0.5855,-0.9518 -1.4571,-2.3981 -1.9367,-3.2139 -1.7072,-2.9038 -4.015,-5.985 -7.2217,-9.6415 -1.7887,-2.0396 -3.3886,-3.8195 -3.5555,-3.9555 -0.8684,-0.7076 -2.6231,-3.1818 -2.6231,-3.6987 0,-0.7607 1.3369,-2.5078 2.6502,-3.4635 0.566,-0.4119 2.2315,-1.5232 3.7011,-2.4696 1.4697,-0.9464 5.0084,-3.356 7.8638,-5.3545 5.6426,-3.9495 7.6498,-5.1981 11.9901,-7.4589 6.3503,-3.3077 7.8845,-4.5641 8.9052,-7.2921 0.9489,-2.5362 0.9328,-3.5155 -0.092,-5.5895 -1.489,-3.0129 -4.1996,-5.5352 -10.5332,-9.8017 -2.9177,-1.9655 -5.8053,-4.0343 -6.4168,-4.5974 l -1.1118,-1.0238 0.015,-1.6956 c 0.02,-2.3691 0.7755,-4.2133 2.396,-5.8516 0.7017,-0.7094 3.055,-2.8457 5.2296,-4.7474 5.6344,-4.9274 11.2252,-10.4587 12.1926,-12.063 1.8865,-3.1287 2.4985,-6.642 1.653,-9.4892 -0.3006,-1.0122 -0.7136,-1.5751 -2.1723,-2.9607 -2.0422,-1.94 -2.984,-2.5007 -10.4914,-6.246 -5.539,-2.7634 -6.6077,-3.4719 -6.8813,-4.5621 -0.5172,-2.0608 2.5694,-6.8341 8.8042,-13.6153 1.3846,-1.5059 5.4032,-6.3102 6.8605,-8.2019 1.1278,-1.4638 2.1785,-3.6921 2.7872,-5.9109 0.4975,-1.8134 0.506,-2.0056 0.1518,-3.4268 -0.608,-2.4396 -0.7931,-2.738 -2.641,-4.2582 -1.2733,-1.0475 -2.8738,-1.977 -5.7649,-3.3479 -6.2201,-2.9496 -13.0691,-6.6204 -15.1093,-8.0981 -2.1841,-1.5819 -2.6136,-2.393 -2.6136,-4.9363 0,-1.6166 0.082,-1.856 1.7608,-5.1248 0.9685,-1.8859 3.0931,-5.6355 4.7213,-8.3324 3.3085,-5.4798 5.5004,-9.8298 6.6156,-13.1288 1.1494,-3.4006 1.051,-3.9421 -1.1499,-6.3261 -1.9566,-2.1195 -4.4356,-3.6901 -7.3485,-4.656 -2.2604,-0.7496 -2.6826,-0.8045 -7.8819,-1.025 -3.0215,-0.1282 -6.0357,-0.297 -6.6983,-0.3751 -1.8752,-0.2213 -3.5118,-0.9576 -5.4809,-2.4658 -3.3716,-2.5825 -4.0697,-3.7296 -4.0616,-6.6748 0,-1.64 0.3998,-2.6876 1.8195,-4.8208 1.4306,-2.1495 1.8674,-3.2298 2.7335,-6.7606 0.8843,-3.6047 1.3707,-4.6224 3.8115,-7.974 0.865,-1.1878 1.7905,-2.7806 2.0565,-3.5395 0.6735,-1.9207 0.3173,-3.5939 -1.0901,-5.1207 -2.2248,-2.4137 -6.3173,-3.5762 -18.2376,-5.1803 -6.4464,-0.8675 -11.6263,-2.1993 -14.8331,-3.8136 -2.1126,-1.0635 -2.3274,-1.4052 -2.1334,-3.3934 0.2329,-2.3858 0.8007,-4.3165 3.3515,-11.396 3.8062,-10.5637 4.9367,-16.2682 5.0414,-25.4377 0.044,-3.8771 0.04,-3.9064 -0.6971,-5.3817 -1.3614,-2.7227 -3.9353,-3.6385 -8.7404,-3.1098 -4.3041,0.4735 -8.1851,1.2001 -13.4678,2.5212 -4.148,1.0374 -5.4937,1.2699 -8.0078,1.3835 l -3.0219,0.1366 -0.7021,-0.7516 c -1.483,-1.5875 -1.679,-4.061 -0.5258,-6.6352 2.4922,-5.5629 3.1184,-6.8452 4.2473,-8.697 0.6873,-1.1274 2.9856,-4.0754 5.1075,-6.5513 4.2678,-4.9799 6.615,-7.9753 7.4068,-9.4526 0.3758,-0.7013 0.5225,-1.4189 0.5225,-2.5568 0,-3.403197 -1.0814,-4.909897 -4.45,-6.199897 -3.7688,-1.4433 -6.3222,-1.2971 -13.415,0.7679 -10.7832,3.1394 -12.5477,2.6927 -12.2272,-3.0952 0.187,-3.3751 1.6057,-6.3883 5.8361,-12.3951 3.6737,-5.2164 5.4442,-8.0301 5.6104,-8.9161 0.1316,-0.7015 0.033,-1.0486 -0.5255,-1.8549 -1.8101,-2.6119 -3.2675,-3.2902 -8.2654,-3.8467 -5.221,-0.5815 -9.2251,-0.2794 -13.4781,1.0167 -2.6774,0.8159 -9.4309,3.461 -12.6082,4.9382 -0.6798,0.3161 -2.5154,1.1555 -4.0791,1.8653 -6.4351,2.9211 -12.5531,5.8067 -17.0581,8.0457 -6.2702,3.1162 -16.0846,7.7763 -17.6761,8.3929 -0.8159,0.3161 -3.2077,1.3763 -5.3152,2.356 -4.6566,2.1647 -7.9221,3.646 -12.4846,5.6636 -8.0549,3.561997 -10.4055,4.664397 -15.3776,7.211697 -4.0391,2.0692 -5.5475,2.7213 -6.5743,2.842 -1.4501,0.1704 -2.3991,-0.1483 -2.3991,-0.8057 0,-1.4916 4.4036,-6.462897 8.0835,-9.125797 2.267,-1.6403 6.345,-4.3095 6.5843,-4.3095 0.4105,0 8.4455,-5.3494 11.1665,-7.4342 8.8152,-6.7542 17.216,-14.5106 18.4968,-17.078 0.6504,-1.3038 0.6762,-1.467 0.3847,-2.4398 -0.2442,-0.8152 -0.5579,-1.1968 -1.4387,-1.7502 -0.6195,-0.3892 -1.5157,-0.7729 -1.9916,-0.8526 -0.4759,-0.08 -1.8109,-0.3559 -2.9666,-0.6139 -3.2632,-0.7282 -6.7016,-0.9627 -10.5682,-0.7206 -6.4094,0.4012 -8.6304,1.1088 -18.7273,5.9661 -9.0043,4.3317 -11.5674,5.8716 -21.3206,12.8091 -5.409,3.8475 -8.3881,5.6905 -12.7956,7.9159 -5.27957,2.6657 -8.6362,3.951 -10.31868,3.951 -2.53718,0 -3.64229,-0.826 -2.8082,-2.099 0.21312,-0.3253 1.19577,-1.4606 2.18366,-2.5229 0.98788,-1.0622 2.57283,-2.8766 3.5221,-4.0318 5.16842,-6.2896 9.27552,-10.5503 17.18632,-17.829 7.8316,-7.2059 11.3367,-11.1466 15.9272,-17.9071 2.1268,-3.1319 3.2119,-5.3312 3.1808,-6.4466 -0.057,-2.0556 -1.9462,-4.0237 -4.486,-4.6744 -3.4402,-0.8813 -10.2538,-0.8326 -18.1775,0.1301 -5.1866,0.6302 -9.42706,1.5593 -14.61512,3.2023 -10.22977,3.2397 -18.81091,7.4453 -31.5204,15.4479 -8.16779,5.1429 -12.94878,8.8039 -21.10601,16.1616 -8.29115,7.4786 -7.61041,7.152 -25.00029,11.9955 -12.03994,3.3534 -15.42684,5.472 -30.70122,19.203797 -5.03735,4.5286 -5.81123,5.1581 -8.76667,7.1313 -2.46065,1.6429 -8.53928,4.8075 -15.04386,7.8319 -6.61953,3.0779 -9.32337,4.7931 -14.97206,9.4976 -1.2153,1.0122 -7.6141,7.2421 -14.21955,13.8442 -13.3163,13.3098 -16.90113,17.3554 -22.84084,25.7771 -5.0584,7.1721 -14.56897,20.011 -17.54167,23.6805 -2.32917,2.8752 -7.20705,8.2305 -13.12056,14.4048 -7.018207,7.3277 -9.163397,9.713 -11.603297,12.9018 -2.98718,3.904 -3.32832,4.4182 -6.93424,10.4525 -1.68718,2.8234 -3.602,6.019 -4.25515,7.1015 -0.65314,1.0824 -3.12431,4.8649 -5.49148,8.4054 -4.54142,6.7926 -5.32996,8.1719 -6.15356,10.7637 -1.03588,3.2599 -0.93717,6.3691 0.47045,14.818 0.7826,4.6974 0.29132,8.9592 -1.76084,15.2753 -1.51651,4.6674 -2.66658,7.0572 -8.12272,16.8783 -5.33584,9.6045 -8.22582,15.895 -15.95779,34.7342 -1.45092,3.5353 -2.80443,6.8033 -3.0078,7.2624 -1.92575,4.3472 -6.82972,18.1972 -8.7643,24.7525 -1.31278,4.4483 -1.65469,7.6126 -1.23938,11.47 0.43392,4.0302 0.90243,5.0514 3.50194,7.6332 2.26434,2.249 3.22271,2.8218 5.86835,3.5074 2.88685,0.748 5.18957,0.9224 11.84611,0.8969 8.04601,-0.031 8.05094,-0.03 9.13084,2.1315 l 0.73153,1.464 -0.45096,3.5684 c -0.24803,1.9626 -0.68185,4.6808 -0.96405,6.0405 -1.096,5.2809 -1.10568,5.3882 -0.60526,6.7067 0.25139,0.6624 1.29266,2.7618 2.31393,4.6654 1.73223,3.2288 1.85609,3.5606 1.84529,4.9444 -0.008,1.0648 -0.26479,2.1808 -0.9091,3.9555 -0.49363,1.3597 -0.89755,2.8675 -0.89759,3.3507 -4e-5,0.4832 0.38576,2.0241 0.85733,3.4244 1.66196,4.9351 1.63375,5.914 -0.35334,12.2607 -0.68113,2.1756 -1.42755,5.1106 -1.6587,6.5225 -0.48813,2.9813 -0.32295,5.0173 0.77543,9.558 0.8813,3.6433 2.25086,5.679 5.44876,8.099 5.78526,4.3778 13.23329,6.4281 23.36061,6.4305 6.30121,0 12.682327,-1.0258 25.216317,-4.0596 2.78739,-0.6747 5.51298,-1.3325 6.05686,-1.4619 5.74395,-1.3663 12.28538,-1.8451 15.43106,-1.1297 2.252,0.5122 3.21612,0.9099 4.87469,2.0108 1.88166,1.249 5.14266,4.6782 6.02754,6.3383 0.98475,1.8476 1.1877,3.1602 1.48367,9.5957 0.40481,8.8023 0.1496,7.8336 4.75434,18.047 3.54373,7.8601 4.80704,12.2624 5.24973,18.2942 0.65473,8.9206 0.90863,10.9963 1.61444,13.1981 0.72539,2.2629 2.32344,5.1602 3.75472,6.8075 1.27736,1.4701 3.63959,3.424 6.33175,5.2372 2.62247,1.7663 5.7758,3.0495 10.87346,4.425 l 1.9748,0.5329 3.36693,-0.6315 c 4.61879,-0.8662 7.00547,-1.7372 13.65883,-4.9842 3.14862,-1.5366 6.15233,-2.9125 6.67491,-3.0576 4.27478,-1.187 13.47709,1.6271 27.40727,8.3813 5.1532,2.4986 11.00276,5.1178 14.21036,6.3629 3.13763,1.2178 3.11061,1.2137 13.34982,2.0535 3.33127,0.2733 7.44746,0.613 9.14709,0.7551 1.69963,0.1421 8.43016,0.3516 14.95674,0.4656 11.69048,0.2042 14.41993,0.369 24.59827,1.4848 3.8775,0.4251 7.57985,0.7966 13.34984,1.3394 1.8871,0.1775 22.5572,-0.083 28.2941,-0.3572 z"
     id="path3108"
     style="fill:#ffffff;fill-opacity:1" />
  <g
     id="text3753"
     style="font-size:110.75949097px;font-style:normal;font-variant:normal;font-weight:normal;font-stretch:normal;text-align:center;line-height:100%;letter-spacing:0px;word-spacing:0px;writing-mode:lr-tb;text-anchor:middle;fill:none;stroke:#000000;stroke-width:0.7911393px;stroke-linecap:butt;stroke-linejoin:miter;stroke-opacity:1;font-family:Roadgeek 2005 Series D;-inkscape-font-specification:Roadgeek 2005 Series D">
    <path
       d="m 65.490507,99.604431 -28.35443,-50.284809 0,50.284809 -11.740506,0 0,-74.208859 11.740506,0 27.025316,47.405062 0,-47.405062 11.740506,0 0,74.208859 -10.411392,0"
       id="path3763"
       style="fill:#ffffff;fill-opacity:1;font-family:Roadgeek 2005 Series D;-inkscape-font-specification:Roadgeek 2005 Series D" />
  </g>
  <g
     id="text3757"
     style="font-size:110.75949097px;font-style:normal;font-variant:normal;font-weight:normal;font-stretch:normal;text-align:center;line-height:100%;letter-spacing:0px;word-spacing:0px;writing-mode:lr-tb;text-anchor:middle;fill:none;stroke:#000000;stroke-width:0.7911393px;stroke-linecap:butt;stroke-linejoin:miter;stroke-opacity:1;font-family:Roadgeek 2005 Series D;-inkscape-font-specification:Roadgeek 2005 Series D">
    <path
       d="m 574.60489,62.389242 c -6e-5,7.457836 -1.14457,14.029559 -3.43354,19.71519 -2.21524,5.611826 -5.42727,10.042201 -9.63608,13.291138 -1.40299,1.329117 -3.06439,2.325952 -4.98417,2.990507 -1.84603,0.664557 -3.72894,1.070675 -5.64874,1.218354 l -4.20886,0 -22.59493,0 0,-74.208859 23.92405,0 c 1.84595,7.4e-5 3.4335,0.07391 4.76265,0.221519 1.40292,0.07391 2.65819,0.258513 3.76583,0.553798 1.10755,0.295431 2.10438,0.701549 2.9905,1.218354 0.88603,0.516949 1.84595,1.144586 2.87975,1.882911 3.91345,3.396692 6.90395,7.937826 8.97152,13.623418 2.14129,5.611865 3.21196,12.109749 3.21202,19.49367 m -11.96202,0 c -5e-5,-5.021055 -0.55385,-9.48835 -1.66139,-13.401898 -1.0338,-3.913448 -2.47368,-6.830111 -4.31962,-8.75 -0.95996,-0.886016 -2.06755,-1.624412 -3.32279,-2.21519 -1.25531,-0.590655 -2.65826,-0.886013 -4.20886,-0.886076 l -13.29114,0 0,50.506328 11.74051,0 c 1.9198,1.2e-5 3.50735,-0.221507 4.76266,-0.664557 1.32907,-0.443025 2.51051,-1.181421 3.5443,-2.21519 2.21515,-2.215172 3.87654,-5.242595 4.98418,-9.082278 1.18138,-3.913474 1.7721,-8.343849 1.77215,-13.291139"
       id="path3766"
       style="fill:#ffffff;fill-opacity:1;font-family:Roadgeek 2005 Series D;-inkscape-font-specification:Roadgeek 2005 Series D" />
  </g>
  <g
     id="text3776"
     style="font-size:372.02380371px;font-style:normal;font-variant:normal;font-weight:normal;font-stretch:normal;text-align:center;line-height:100%;letter-spacing:0px;word-spacing:0px;writing-mode:lr-tb;text-anchor:middle;fill:#000000;fill-opacity:1;stroke:none;font-family:Roadgeek 2005 Series C;-inkscape-font-specification:Roadgeek 2005 Series C">
    <path
       d="m 379.08738,348.11012 c -2e-4,13.88897 -2.72837,26.66177 -8.18453,38.31845 -5.20851,11.65679 -12.64898,21.82543 -22.32142,30.50595 -9.67278,8.68057 -21.2055,15.501 -34.59822,20.46131 -13.14495,4.7123 -27.65387,7.06845 -43.52678,7.06846 -10.91278,-1e-5 -21.70146,-1.24009 -32.36607,-3.72024 -10.41671,-2.48016 -19.96531,-5.95238 -28.64584,-10.41667 l 19.34524,-34.97024 c 5.20829,2.72822 12.02871,4.96036 20.46131,6.69643 8.43247,1.48813 17.23702,2.23218 26.41369,2.23214 8.92847,4e-5 17.237,-1.36405 24.9256,-4.09226 7.93638,-2.97614 14.75681,-6.94439 20.4613,-11.90476 5.95224,-4.96026 10.54053,-10.78863 13.76489,-17.48512 3.22405,-6.94437 4.83615,-14.50884 4.8363,-22.69345 -1.5e-4,-6.2003 -1.24023,-11.90466 -3.72023,-17.11309 -2.2323,-5.20822 -5.4565,-9.79651 -9.67262,-13.76489 -3.96839,-3.96812 -8.68069,-7.06832 -14.13691,-9.30059 -5.20845,-2.23201 -10.91281,-3.34808 -17.11309,-3.34821 -4.46439,1.3e-4 -8.43264,0.37215 -11.90476,1.11607 -3.2243,0.74418 -6.3245,2.10826 -9.3006,4.09226 -2.97628,1.98425 -5.95246,4.71243 -8.92857,8.18452 -2.97627,3.22433 -6.32448,7.44059 -10.04464,12.64881 l -39.43453,-11.16071 6.32441,-128.72024 143.22916,0 0,39.43452 -104.91071,0 -2.60417,40.92262 c 9.17651,-2.728 16.36896,-4.58812 21.57738,-5.58035 5.20824,-0.99189 10.9126,-1.48792 17.1131,-1.4881 11.40861,1.8e-4 22.07328,2.23232 31.99405,6.69643 10.16849,4.46445 18.97305,10.54083 26.41369,18.22917 7.68831,7.68863 13.64069,16.61719 17.85714,26.78571 4.46409,10.16876 6.69623,20.95744 6.69643,32.36607"
       id="path3981"
       style="letter-spacing:-10.98901081;font-family:Roadgeek 2005 Series D;-inkscape-font-specification:Roadgeek 2005 Series D" />
  </g>
</svg>
