<?xml version="1.0" encoding="utf-8"?>
<!-- Generator: Adobe Illustrator 12.0.0, SVG Export Plug-In . SVG Version: 6.00 Build 51448)  -->
<!DOCTYPE svg PUBLIC "-//W3C//DTD SVG 1.1//EN" "http://www.w3.org/Graphics/SVG/1.1/DTD/svg11.dtd" [
	<!ENTITY ns_svg "http://www.w3.org/2000/svg">
	<!ENTITY ns_xlink "http://www.w3.org/1999/xlink">
]>
<svg  version="1.1" id="Layer_1" xmlns="&ns_svg;" xmlns:xlink="&ns_xlink;" width="600" height="600" viewBox="0 0 600 600"
	 overflow="visible" enable-background="new 0 0 600 600" xml:space="preserve">
<g>
	<g>
		<path d="M0,38C0,17.0126953,17.0131836,0,38,0h524c20.9873047,0,38,17.0126953,38,38v524c0,20.9863281-17.0126953,38-38,38H38
			c-20.9868164,0-38-17.0136719-38-38V38L0,38z"/>
		<path d="M300,300"/>
	</g>
	<path fill-rule="evenodd" clip-rule="evenodd" fill="#FFFFFF" d="M61.7910156,587l-7.777832-0.1777344l-4.7719727-1.4140625
		l-4.2431641-3.3574219l-4.0664063-4.0664063l-3.0058594-3.8886719l-3.003418-5.6582031l-2.6518555-6.3632813l-1.4140625-7.0722656
		l-0.1772461-7.6015625l0.8833008-5.8320313l1.9453125-6.5400391l1.5917969-5.1289063l15.3789063-36.0615234l14.3183594-27.2246094
		l2.2978516-4.2412109l1.9453125-3.8896484l1.2373047-5.6572266l1.4145508-6.5400391l0.1772461-3.3613281v-4.2402344
		l-0.1772461-3.359375l0.1772461-2.8300781l-0.1772461-3.8886719l0.7060547-4.0664063l0.1772461-4.0654297l1.2373047-3.3583984
		l2.4746094-3.8886719l2.8286133-4.4199219l1.5913086-3.8886719l3.1831055-5.1269531l2.4746094-5.8339844l1.7661133-5.1269531
		l1.0605469-3.7119141l0.53125-3.1806641l4.065918-33.9433594l-52.5024414,0.1777344l-3.1835938-1.765625l-2.6513672-1.5917969
		l-1.9433594-0.8867188L31.5625,341.8085938l-1.4150391-2.6523438l-1.4140625-3.7119141l-0.3544922-4.0654297l8.1323242-48.4370117
		l16.2646484-10.6069336l-13.2583008-11.6669922l0.53125-3.8916016l0.1743164-2.8261719l1.9458008-2.4746094l1.0600586-3.3603516
		l0.8857422-4.065918l1.7661133-3.0058594l1.7685547-4.9492188v-2.2973633l-7.9550781-1.9458008l-9.9003906-0.5288086
		l-5.6552734-1.4145508l-5.4804688-1.5917969l-2.300293-0.1767578l-0.7055664-1.2373047l-0.7089844-1.5917969v-1.7661133
		l0.1772461-2.4746094l0.8852539-2.2998047V212.40625l1.9433594-5.480957l4.0664063-6.8945313l1.7685547-3.8891602
		l3.1806641-6.5405273l1.9453125-4.4179688l3.8891602-7.6010742l3.003418-8.1318359l4.0688477-8.1328125l1.4116211-12.5522461
		l-17.1474609-2.8261719l-3.1806641-8.3095703l-1.4140625-6.0117188l-1.5917969-6.7177734l-0.3540039-4.4179688l2.4746094-5.8344727
		v-0.7060547l-2.4746094-4.4204102l-1.7661133-3.0058594l-0.8857422-3.003418l-1.5913086-3.7148438v-2.6513672l-0.1743164-5.1264648
		L13,89.015625v-2.2998047l0.7060547-4.2407227l1.7685547-2.4770508l0.5292969-1.4121094l2.2998047-1.0625l1.9433594-1.5888672
		l2.2973633-4.7749023L25.1962891,67.625l3.5371094-3.8886719l3.1806641-3.5375977l5.3032227-3.534668l3.3598633-3.0058594
		l5.8325195-0.3515625l4.597168-1.2373047l7.7783203-1.7685547l4.7719727-1.5917969l5.1264648-0.8828125l6.5405273-2.1230469
		l1.0629883-1.2373047l3.8886719,1.0625l4.0664063,1.2373047l4.5947266,0.8828125l3.534668,0.3544922l9.7236328-0.3544922
		l7.0722656-1.9453125l4.4179688-1.5888672l4.2431641-2.1230469l5.4804688-3.8891602l4.2431641-3.1801758l11.4897461,2.8261719
		l3.3579102,0.1767578l3.7143555-0.1767578l4.4179688-0.1748047l4.065918-1.0625l3.5371094-0.5292969l2.8266602-1.0595703
		l2.1225586-2.1230469l3.7119141-3.1806641l4.0664063-2.8291016l7.246582-0.3540039l3.0058594-0.3540039l3.534668,0.1767578
		l2.8291016,0.1772461l5.1259766-2.1206055l2.2998047-1.5913086l3.3579102-1.4145508l3.7119141-3.1826172l3.8886719-1.5893555
		l3.7148438-3.5371094L562,13c13.8076172,0,25,11.1923828,25,25v524c0,13.8066406-11.1923828,25-25,25H61.7910156z"/>
</g>
<g>
	<path fill-rule="evenodd" clip-rule="evenodd" d="M200.387207,444.8125V210.0864258h-26.3691406v-36.7436523h3.0258789
		c6.0522461,0,12.1040039-1.5849609,18.1557617-4.7548828c6.0517578-3.1704102,11.0952148-7.637207,15.1298828-13.4008789
		h36.7431641V444.8125H200.387207z"/>
	<path fill-rule="evenodd" clip-rule="evenodd" d="M506.7695313,361.3828125
		c0,12.3925781-2.5214844,23.9921875-7.5644531,34.7988281s-11.9589844,20.1728516-20.7490234,28.0976563
		c-8.7900391,7.9257813-19.2363281,14.1933594-31.3398438,18.8046875C435.0117188,447.6943359,422.0439453,450,408.2109375,450
		c-13.8320313,0-26.8007813-2.3779297-38.9042969-7.1328125s-22.5507813-11.3105469-31.3398438-19.6679688
		c-8.7900391-8.3574219-15.7070313-18.15625-20.75-29.3955078s-7.5644531-23.3427734-7.5644531-36.3115234
		c0-20.171875,2.6660156-40.2011719,7.9970703-60.0859375s12.8955078-38.9047852,22.6943359-57.0605469
		s21.5419922-34.9423828,35.2304688-50.3603516c13.6894531-15.4179688,28.890625-28.746582,45.6054688-39.9853516
		l23.3427734,38.9047852c-8.9335938,6.9165039-16.7861328,13.6166992-23.5595703,20.1005859
		c-6.7714844,6.484375-12.9677734,13.1845703-18.5878906,20.1010742
		c-5.6191406,6.9165039-10.734375,14.1928711-15.3457031,21.8300781c-4.6113281,7.6367188-9.078125,16.065918-13.4003906,25.2880859
		c8.3574219-1.440918,14.7695313-2.3056641,19.2363281-2.59375s9.5820313-0.4321289,15.3457031-0.4321289
		c13.2568359,0,25.8652344,2.3051758,37.8242188,6.9165039c11.9599609,4.6108398,22.4785156,10.8789063,31.5566406,18.8037109
		s16.2099609,17.2910156,21.3974609,28.0986328C504.1767578,337.8242188,506.7695313,349.2792969,506.7695313,361.3828125z
		 M460.9492188,360.5185547c0-5.4755859-1.3691406-10.8076172-4.1074219-15.9941406
		c-2.7373047-5.1875-6.484375-9.6542969-11.2382813-13.4013672c-4.7558594-3.7460938-10.375-6.7714844-16.859375-9.0771484
		s-13.328125-3.4580078-20.5332031-3.4580078c-7.2041016,0-13.9042969,1.1523438-20.1005859,3.4580078
		s-11.6708984,5.3310547-16.4267578,9.0771484c-4.7548828,3.7470703-8.5019531,8.2138672-11.2392578,13.4013672
		c-2.7373047,5.1865234-4.1064453,10.5185547-4.1064453,15.9941406c0,5.7636719,1.3691406,11.2392578,4.1064453,16.4267578
		s6.484375,9.7265625,11.2392578,13.6162109c4.7558594,3.890625,10.2304688,6.9892578,16.4267578,9.2939453
		c6.1962891,2.3056641,12.8964844,3.4589844,20.1005859,3.4589844c7.2050781,0,13.9765625-1.1533203,20.3173828-3.4589844
		c6.3398438-2.3046875,11.8876953-5.4033203,16.6425781-9.2939453c4.7548828-3.8896484,8.5732422-8.4287109,11.4550781-13.6162109
		S460.9492188,366.2822266,460.9492188,360.5185547z"/>
</g>
</svg>
