<?xml version="1.0" encoding="UTF-8" standalone="no"?>
<!-- Created with Inkscape (http://www.inkscape.org/) -->
<svg
   xmlns:dc="http://purl.org/dc/elements/1.1/"
   xmlns:cc="http://web.resource.org/cc/"
   xmlns:rdf="http://www.w3.org/1999/02/22-rdf-syntax-ns#"
   xmlns:svg="http://www.w3.org/2000/svg"
   xmlns="http://www.w3.org/2000/svg"
   xmlns:sodipodi="http://sodipodi.sourceforge.net/DTD/sodipodi-0.dtd"
   xmlns:inkscape="http://www.inkscape.org/namespaces/inkscape"
   width="600"
   height="600"
   id="svg2"
   sodipodi:version="0.32"
   inkscape:version="0.44"
   version="1.0"
   sodipodi:docbase="C:\Documents and Settings\Geoffrey\My Documents\Nevada shields"
   sodipodi:docname="Nevada 318.svg">
  <defs
     id="defs4" />
  <sodipodi:namedview
     id="base"
     pagecolor="#ffffff"
     bordercolor="#666666"
     borderopacity="1.0"
     gridtolerance="10000"
     guidetolerance="10"
     objecttolerance="10"
     inkscape:pageopacity="0.0"
     inkscape:pageshadow="2"
     inkscape:zoom="0.84666667"
     inkscape:cx="300"
     inkscape:cy="300"
     inkscape:document-units="px"
     inkscape:current-layer="layer4"
     width="600px"
     height="600px"
     showgrid="true"
     units="px"
     gridspacingx="16.66px"
     gridspacingy="16.66px"
     grid_units="px"
     gridempspacing="3"
     inkscape:window-width="997"
     inkscape:window-height="704"
     inkscape:window-x="275"
     inkscape:window-y="0"
     inkscape:grid-points="true"
     showguides="true"
     inkscape:object-nodes="false"
     inkscape:object-points="false" />
  <metadata
     id="metadata7">
    <rdf:RDF>
      <cc:Work
         rdf:about="">
        <dc:format>image/svg+xml</dc:format>
        <dc:type
           rdf:resource="http://purl.org/dc/dcmitype/StillImage" />
        <cc:license
           rdf:resource="" />
      </cc:Work>
    </rdf:RDF>
  </metadata>
  <g
     inkscape:label="Background"
     inkscape:groupmode="layer"
     id="layer1"
     transform="translate(-765.0002,-539.9991)">
    <path
       style="fill:black;fill-opacity:1;fill-rule:evenodd;stroke:black;stroke-width:0.19601439px;stroke-linecap:butt;stroke-linejoin:miter;stroke-opacity:1"
       d="M 765.09821,593.02099 C 765.09821,540.09709 818.02209,540.09709 818.02209,540.09709 C 818.02209,540.09709 1259.0544,540.09709 1311.9783,540.09709 C 1364.9022,540.09709 1364.9022,593.02099 1364.9022,593.02099 C 1364.9022,593.02099 1364.9022,1034.0533 1364.9022,1086.9773 C 1364.9022,1139.9011 1311.9783,1139.9011 1311.9783,1139.9011 C 1311.9783,1139.9011 870.94597,1139.9011 818.02209,1139.9011 C 765.09821,1139.9011 765.09821,1086.9773 765.09821,1086.9773 L 765.09821,593.02099 z "
       id="path1888" />
  </g>
  <g
     inkscape:groupmode="layer"
     id="layer2"
     inkscape:label="Nevada shape"
     transform="translate(-765.0002,-539.9991)">
    <path
       style="opacity:1;fill:white;fill-opacity:1"
       d="M 1262.4285,1106.6791 C 1263.9325,1102.7233 1261.8099,1097.5929 1256.4957,1092.3396 C 1245.9376,1081.9022 1244.3737,1079.5799 1244.3737,1074.3391 C 1244.3737,1070.6947 1243.7825,1068.7685 1242.0139,1066.6499 C 1240.417,1064.7371 1239.4913,1062.0918 1239.1506,1058.4682 C 1238.6992,1053.667 1238.2026,1052.7303 1234.3483,1049.4108 C 1230.3004,1045.9245 1230.086,1045.4783 1230.6748,1041.7658 C 1231.0894,1039.1521 1232.1899,1037.149 1233.9397,1035.8232 C 1235.3914,1034.7232 1238.2638,1032.0991 1240.3226,1029.9919 C 1243.222,1027.0245 1244.6986,1026.2353 1246.8714,1026.4919 C 1249.261,1026.7741 1249.8791,1027.5205 1251.0425,1031.5285 C 1252.3315,1035.9697 1255.3355,1039.3232 1258.0248,1039.3232 C 1260.1156,1039.3232 1262.3737,1036.2862 1262.3737,1033.4742 C 1262.3737,1031.9859 1263.0852,1029.7524 1263.9547,1028.511 C 1265.0968,1026.8804 1265.947,1023.145 1265.9255,1015.0385 L 1264.8002,590.2191 L 864.9602,590.2191 L 864.9602,806.7991 L 960.5202,882.0791 L 864.9602,881.7691 L 864.9602,990.0591 L 1106.5302,990.0591 L 1254.2458,1105.5375 C 1259.8378,1109.9091 1261.1032,1110.1647 1262.4285,1106.6791 z "
       id="path2226"
       sodipodi:nodetypes="csssssssssssssscccccccsc" />
  </g>
  <g
     inkscape:groupmode="layer"
     id="layer3"
     inkscape:label="NEVADA text"
     transform="translate(-765.0002,-539.9991)"
     style="opacity:1">
    <path
       style="font-size:144px;opacity:1;font-family:Roadgeek 2005 Series D"
       d="M 929.42752,973.5991 L 902.2802,927.8391 L 902.2802,973.5991 L 889.8002,973.5991 L 889.8002,898.7191 L 902.2802,898.7191 L 927.2402,940.3191 L 927.2402,898.7191 L 939.7202,898.7191 L 939.7202,973.5991 L 929.42752,973.5991 z "
       id="path3274"
       sodipodi:nodetypes="ccccccccccc" />
    <path
       style="font-size:144px;opacity:1;font-family:Roadgeek 2005 Series D"
       d="M 953.8365,973.5991 L 953.8365,898.7191 L 997.9602,898.7191 L 997.9602,911.1991 L 968.8402,911.1991 L 968.8402,927.8391 L 989.6402,927.8391 L 989.6402,940.3191 L 968.8402,940.3191 L 968.8402,961.1191 L 1002.1202,961.52902 L 1002.1202,973.5991 L 953.8365,973.5991 z "
       id="path3272"
       sodipodi:nodetypes="ccccccccccccc" />
    <path
       style="font-size:144px;opacity:1;font-family:Roadgeek 2005 Series D"
       d="M 1041.6233,973.5991 L 1032.9261,973.5991 L 1010.4402,898.7191 L 1022.2125,898.7191 L 1037.3798,948.67773 L 1052.3338,898.7191 L 1064.3194,898.7191 L 1041.6233,973.5991 z "
       id="path3270" />
    <path
       id="path3268"
       style="font-size:144px;font-family:Roadgeek 2005 Series D"
       d="M 1110.7744,973.5991 L 1103.7733,952.58971 L 1081.6078,952.58971 L 1074.6067,973.5991 L 1062.621,973.5991 L 1087.1233,898.7191 L 1098.2579,898.7191 L 1122.7602,973.5991 L 1110.7744,973.5991 z M 1092.8491,919.50682 L 1085.5307,940.51964 L 1099.7436,940.51964 L 1092.8491,919.50682 z " />
    <path
       id="path3264"
       style="font-size:144px;font-family:Roadgeek 2005 Series D"
       d="M 1181.0002,936.0483 C 1181.0002,943.57445 1179.9216,950.18697 1177.765,955.88607 C 1175.6081,961.58527 1172.5143,966.07411 1168.4834,969.35287 C 1167.1392,970.69441 1165.5656,971.6999 1163.7627,972.36951 C 1161.9597,973.0392 1160.1392,973.44904 1158.3007,973.5991 L 1154.2709,973.5991 L 1132.6331,973.5991 L 1132.6331,898.7191 L 1155.543,898.7191 C 1157.3124,898.7192 1158.8508,898.77545 1160.1585,898.88794 C 1161.4662,899.00061 1162.6503,899.20586 1163.711,899.50364 C 1164.7715,899.80151 1165.7257,900.21135 1166.5739,900.73313 C 1167.4219,901.25501 1168.3411,901.88769 1169.3316,902.63108 C 1173.0798,906.05998 1175.9614,910.62393 1177.977,916.32296 C 1179.9924,922.02216 1181.0002,928.59719 1181.0002,936.0483 L 1181.0002,936.0483 z M 1169.5453,936.0483 C 1169.5452,930.98242 1169.0322,926.47478 1168.0062,922.52516 C 1166.98,918.57573 1165.5834,915.63241 1163.8161,913.69512 C 1162.8968,912.8016 1161.8362,912.05686 1160.6344,911.46112 C 1159.4324,910.86546 1158.0892,910.56759 1156.6046,910.5675 L 1143.8775,910.5675 L 1143.8775,961.52902 L 1155.119,961.52902 C 1156.9573,961.52902 1158.4953,961.30564 1159.733,960.85879 C 1160.9705,960.41202 1162.0844,959.66676 1163.0749,958.62317 C 1165.196,956.38801 1166.8048,953.31448 1167.9009,949.40242 C 1168.9971,945.49063 1169.5452,941.03917 1169.5453,936.0483 L 1169.5453,936.0483 z " />
    <path
       id="path3260"
       style="font-size:144px;font-family:Roadgeek 2005 Series D"
       d="M 1235.5744,973.5991 L 1228.5733,952.58971 L 1206.4079,952.58971 L 1199.4066,973.5991 L 1187.4209,973.5991 L 1211.9233,898.7191 L 1223.0577,898.7191 L 1247.5602,973.5991 L 1235.5744,973.5991 z M 1217.6492,919.50682 L 1210.3308,940.51964 L 1224.5435,940.51964 L 1217.6492,919.50682 z " />
  </g>
  <g
     inkscape:groupmode="layer"
     id="layer4"
     inkscape:label="Route number">
    <path
       transform="matrix(2.668367,0,0,2.668367,-501.8844,-268.9826)"
       style="font-size:72px;font-weight:normal;text-align:center;text-anchor:middle"
       d="M 283.94287,184.24405 C 283.94283,186.69182 283.53488,188.94767 282.71899,191.01163 C 281.90304,193.0756 280.76303,194.83964 279.29895,196.30374 C 277.83481,197.76786 276.08286,198.91995 274.04309,199.76004 C 272.00327,200.60013 269.7595,201.02017 267.31177,201.02017 C 265.343,201.02017 263.50682,200.70816 261.80322,200.08414 C 260.0996,199.46012 258.53954,198.59622 257.12305,197.49246 C 255.70653,196.38871 254.49438,195.04471 253.48657,193.46048 C 252.47875,191.87626 251.73461,190.10051 251.25415,188.13321 L 258.74243,185.9733 C 259.31957,188.32438 260.37609,190.12394 261.91199,191.37198 C 263.44786,192.62003 265.3679,193.24406 267.67212,193.24405 C 268.96702,193.24406 270.14256,193.02799 271.19873,192.59586 C 272.25486,192.16374 273.155,191.57597 273.89917,190.83255 C 274.64328,190.08915 275.23142,189.20146 275.66357,188.16947 C 276.09567,187.1375 276.31174,185.99748 276.31177,184.74942 C 276.31174,183.50139 276.0715,182.32512 275.59106,181.22061 C 275.11057,180.11614 274.43894,179.25188 273.57617,178.62784 C 273.28757,178.43597 273.03525,178.27996 272.81921,178.15982 C 272.60312,178.03973 272.33909,177.95586 272.0271,177.90824 C 271.71506,177.86065 271.3071,177.81268 270.80322,177.76431 C 270.29929,177.716 269.59104,177.66839 268.67847,177.62149 L 267.81494,177.62149 L 267.81494,169.84537 L 267.81494,170.0607 L 268.03027,170.0607 L 268.17529,170.0607 L 269.68701,170.0607 C 271.22361,170.06073 272.39988,169.65277 273.21582,168.83682 C 274.03171,168.02094 274.43967,166.84467 274.4397,165.30802 C 274.43967,163.43598 273.77976,161.88801 272.45996,160.66409 C 271.14011,159.44026 269.49583,158.82832 267.5271,158.82828 C 264.31175,158.82832 261.88744,160.41255 260.25415,163.58096 L 253.12622,160.91568 C 254.37426,157.84395 256.25841,155.43208 258.77869,153.68009 C 261.29894,151.92818 264.14329,151.05221 267.31177,151.05216 C 269.32737,151.05221 271.23533,151.43636 273.03564,152.20462 C 274.83591,152.97298 276.40805,154.02913 277.75208,155.37308 C 279.09604,156.71712 280.15182,158.28889 280.91943,160.08841 C 281.68698,161.88801 282.07077,163.79633 282.0708,165.81339 C 282.07077,167.25336 281.87887,168.54938 281.49512,169.70145 C 281.11129,170.85358 280.39132,172.1972 279.33521,173.73233 C 280.24777,174.54828 280.99191,175.3283 281.56763,176.07242 C 282.14328,176.81658 282.61129,177.59661 282.97168,178.41251 C 283.332,179.22845 283.58395,180.10442 283.72754,181.04044 C 283.87106,181.97649 283.94283,183.04436 283.94287,184.24405 L 283.94287,184.24405 z M 297.99658,200.15665 L 297.99658,161.0607 L 293.60425,161.0607 L 293.60425,154.94132 L 294.10742,154.94132 C 295.11523,154.94136 296.12304,154.67732 297.13086,154.1492 C 298.13866,153.62117 298.97875,152.87667 299.65112,151.91568 L 305.77051,151.91568 L 305.77051,200.15665 L 297.99658,200.15665 z M 349.07642,184.74942 C 349.07638,186.95695 348.63217,189.04472 347.74377,191.01273 C 346.85531,192.98075 345.65524,194.7089 344.14355,196.19718 C 342.6318,197.68546 340.89194,198.86136 338.92395,199.72489 C 336.95591,200.58841 334.86814,201.02017 332.66064,201.02017 C 330.45164,201.02017 328.36314,200.58841 326.39514,199.72489 C 324.42711,198.86136 322.68724,197.68546 321.17554,196.19718 C 319.66381,194.7089 318.4641,192.98075 317.57642,191.01273 C 316.68872,189.04472 316.24487,186.95695 316.24487,184.74942 C 316.24487,182.44524 316.7246,180.36919 317.68408,178.52127 C 318.64355,176.6734 320.01171,175.02948 321.78857,173.58951 C 319.43603,171.09344 318.25976,168.16523 318.25977,164.80484 C 318.25976,162.93281 318.64391,161.16877 319.41223,159.51273 C 320.18053,157.85676 321.2246,156.39265 322.54443,155.12039 C 323.86425,153.84822 325.38805,152.85213 327.11584,152.13211 C 328.84361,151.41219 330.69188,151.05221 332.66064,151.05216 C 334.58103,151.05221 336.42893,151.41219 338.20435,152.13211 C 339.97971,152.85213 341.52768,153.84822 342.84827,155.12039 C 344.16879,156.39265 345.22494,157.85676 346.01672,159.51273 C 346.80844,161.16877 347.20431,162.93281 347.20435,164.80484 C 347.20431,166.48505 346.88021,168.05719 346.23206,169.52127 C 345.58383,170.98541 344.65988,172.34149 343.46021,173.58951 C 345.33224,175.02948 346.73629,176.6972 347.67236,178.59268 C 348.60836,180.48821 349.07638,182.54045 349.07642,184.74942 L 349.07642,184.74942 z M 339.42822,164.58951 C 339.42819,163.00459 338.76828,161.64814 337.44849,160.52017 C 336.12864,159.39228 334.53269,158.82832 332.66064,158.82828 C 330.78855,158.82832 329.19261,159.39228 327.8728,160.52017 C 326.55296,161.64814 325.89305,163.00459 325.89307,164.58951 C 325.89305,166.02948 326.55296,167.26545 327.8728,168.2974 C 329.19261,169.32941 330.78855,169.8454 332.66064,169.84537 C 334.53269,169.8454 336.12864,169.32941 337.44849,168.2974 C 338.76828,167.26545 339.42819,166.02948 339.42822,164.58951 L 339.42822,164.58951 z M 341.44312,184.89224 C 341.44309,183.88445 341.20322,182.93669 340.72351,182.04898 C 340.24375,181.16131 339.608,180.39336 338.81628,179.74515 C 338.02451,179.09698 337.10056,178.58099 336.04443,178.19718 C 334.98826,177.81341 333.86033,177.62151 332.66064,177.62149 C 331.46092,177.62151 330.34507,177.81341 329.31311,178.19718 C 328.28111,178.58099 327.36888,179.09698 326.57642,179.74515 C 325.78392,180.39336 325.1599,181.16131 324.70435,182.04898 C 324.24877,182.93669 324.02098,183.88445 324.021,184.89224 C 324.02098,186.04509 324.24877,187.12541 324.70435,188.13321 C 325.1599,189.14103 325.78392,190.02873 326.57642,190.7963 C 327.36888,191.56388 328.28111,192.16374 329.31311,192.59586 C 330.34507,193.02799 331.46092,193.24406 332.66064,193.24405 C 333.86033,193.24406 335.00034,193.02799 336.08069,192.59586 C 337.16099,192.16374 338.09702,191.56388 338.88879,190.7963 C 339.68051,190.02873 340.30417,189.14103 340.75977,188.13321 C 341.2153,187.12541 341.44309,186.04509 341.44312,184.89224 L 341.44312,184.89224 z "
       id="flowRoot2198" />
  </g>
</svg>
