<?xml version="1.0" encoding="UTF-8" standalone="no"?>
<!-- Created with Inkscape (http://www.inkscape.org/) -->
<svg
   xmlns:svg="http://www.w3.org/2000/svg"
   xmlns="http://www.w3.org/2000/svg"
   version="1.0"
   width="600.00006"
   height="599.99994"
   id="svg3882">
  <defs
     id="defs3884" />
  <g
     id="g2480">
    <path
       d="M 37.499975,-2e-12 L 562.49999,-2e-12 C 583.27507,-2e-12 600.00005,16.724987 600.00005,37.499972 L 600.00005,562.49997 C 600.00005,583.27497 583.27507,599.99995 562.49999,599.99995 L 37.499975,599.99995 C 16.724974,599.99995 0,583.27497 0,562.49997 L 0,37.499972 C 0,16.724987 16.724974,-2e-12 37.499975,-2e-12 z"
       id="rect1873"
       style="fill:#000000" />
    <g
       transform="matrix(0.277778,0,0,0.277778,-619.88596,2.9629065)"
       id="g2448">
      <path
         d="M 3311.5869,101.83257 C 3097.0554,101.83257 2984.8848,145.58308 2850.998,244.15739 C 2706.7787,350.33899 2540.6385,418.07141 2344.0869,418.41436 L 2344.0869,1559.4099 C 2344.0869,1660.764 2344.2308,1660.7821 2396.2385,1712.043 C 2487.1109,1801.6108 3311.5869,2036.8326 3311.5869,2036.8326 C 3311.5869,2036.8326 4136.0629,1801.6108 4226.9353,1712.043 C 4278.943,1660.7821 4279.0869,1660.764 4279.0869,1559.4099 L 4279.0869,418.41438 C 4082.5353,418.07143 3914.951,352.50396 3772.1758,244.15741 C 3644.7748,147.47774 3526.1184,101.83257 3311.5869,101.83257 z"
         id="path2452"
         style="fill:#ffffff;fill-opacity:1;stroke:none;stroke-width:22.5;stroke-linecap:square;stroke-linejoin:round;stroke-miterlimit:2;stroke-dasharray:none;stroke-dashoffset:0;stroke-opacity:1" />
    </g>
    <path
       d="M 168.29076,444.81546 L 168.29076,210.08961 L 141.91988,210.08961 L 141.91988,173.3498 L 144.94086,173.3498 C 150.99156,173.35007 157.0423,171.76483 163.09309,168.59407 C 169.14378,165.42386 174.18753,160.95397 178.22436,155.18437 L 214.96417,155.18437 L 214.96417,444.81546 L 168.29076,444.81546 z M 465.88983,201.01349 C 463.29519,204.17982 460.91623,207.06008 458.75294,209.65427 C 456.58924,212.24894 454.57086,214.84337 452.6978,217.43757 C 450.82433,220.03223 448.88071,222.76957 446.86692,225.64961 C 444.85274,228.53009 442.68925,231.84349 440.37644,235.58981 C 427.41289,256.91712 416.39316,279.39632 407.31721,303.02749 C 398.24094,326.65893 391.24917,350.14513 386.34187,373.48614 C 385.47986,379.53695 384.61798,385.37222 383.75623,390.99196 C 382.89422,396.61182 382.24561,402.23162 381.81041,407.85138 C 381.37494,413.47122 381.01436,419.23613 380.72866,425.14614 C 380.4427,431.05618 380.29979,437.61262 380.29992,444.81546 L 333.61332,444.81546 C 333.90346,428.09677 334.91265,411.95854 336.64089,396.4007 C 338.36895,380.84296 340.88863,365.57099 344.19992,350.58477 C 347.51102,335.59872 351.76105,320.68515 356.95002,305.84398 C 362.13878,291.0031 368.33463,275.94441 375.5376,260.66787 C 380.43611,249.71867 385.76788,239.05512 391.53294,228.67719 C 397.29771,218.29968 402.7746,209.07846 407.96362,201.01349 L 269.63195,201.01349 L 269.63195,155.18437 L 465.88983,155.18437 L 465.88983,201.01349 L 465.88983,201.01349 z"
       id="text1421"
       style="font-size:6.48414803px;font-style:normal;font-weight:normal;line-height:125%;fill:#000000;fill-opacity:1;stroke:none;stroke-width:1px;stroke-linecap:butt;stroke-linejoin:miter;stroke-opacity:1;font-family:Bitstream Vera Sans" />
  </g>
</svg>
