<?xml version="1.0" encoding="UTF-8" standalone="no"?>
<!-- Created with Inkscape (http://www.inkscape.org/) -->
<svg
   xmlns:dc="http://purl.org/dc/elements/1.1/"
   xmlns:cc="http://web.resource.org/cc/"
   xmlns:rdf="http://www.w3.org/1999/02/22-rdf-syntax-ns#"
   xmlns:svg="http://www.w3.org/2000/svg"
   xmlns="http://www.w3.org/2000/svg"
   xmlns:sodipodi="http://sodipodi.sourceforge.net/DTD/sodipodi-0.dtd"
   xmlns:inkscape="http://www.inkscape.org/namespaces/inkscape"
   width="384.9978"
   height="384.99805"
   id="svg17053"
   sodipodi:version="0.32"
   inkscape:version="0.44"
   version="1.0"
   sodipodi:docbase="/home/scott/roadgeek/ok/shields"
   sodipodi:docname="Oklahoma_State_Highway_3.svg">
  <defs
     id="defs17055" />
  <sodipodi:namedview
     id="base"
     pagecolor="#ffffff"
     bordercolor="#666666"
     borderopacity="1.0"
     gridtolerance="10000"
     guidetolerance="10"
     objecttolerance="10"
     inkscape:pageopacity="0.0"
     inkscape:pageshadow="2"
     inkscape:zoom="0.35"
     inkscape:cx="375"
     inkscape:cy="520"
     inkscape:document-units="px"
     inkscape:current-layer="layer1"
     inkscape:window-width="860"
     inkscape:window-height="620"
     inkscape:window-x="0"
     inkscape:window-y="120" />
  <metadata
     id="metadata17058">
    <rdf:RDF>
      <cc:Work
         rdf:about="">
        <dc:format>image/svg+xml</dc:format>
        <dc:type
           rdf:resource="http://purl.org/dc/dcmitype/StillImage" />
      </cc:Work>
    </rdf:RDF>
  </metadata>
  <g
     inkscape:label="Layer 1"
     inkscape:groupmode="layer"
     id="layer1"
     transform="translate(-44.644,-357.006)">
    <g
       id="g11308"
       transform="translate(-1455.356,357.006)">
		<g
   id="g11310">
			<g
   id="g11312">
				<g
   id="g11314">
					<path
   style="fill:white"
   id="path11316"
   d="M 1500.5,24.5 C 1500.5,11.245117 1511.2449,0.5 1524.5,0.5 L 1860.4978,0.5 C 1873.7529,0.5 1884.4978,11.245117 1884.4978,24.5 L 1884.4978,360.49805 C 1884.4978,373.75293 1873.7529,384.49805 1860.4978,384.49805 L 1524.5,384.49805 C 1511.2449,384.49805 1500.5,373.75293 1500.5,360.49805 L 1500.5,24.5 L 1500.5,24.5 z " />

					<path
   style="fill:white"
   id="path11318"
   d="" />

				</g>

				<g
   id="g11320">
					<path
   style="fill:none;stroke:black;stroke-linecap:round;stroke-linejoin:round;stroke-miterlimit:3.863693"
   id="path11322"
   d="M 1500.5,24.5 C 1500.5,11.245117 1511.2449,0.5 1524.5,0.5 L 1860.4978,0.5 C 1873.7529,0.5 1884.4978,11.245117 1884.4978,24.5 L 1884.4978,360.49805 C 1884.4978,373.75293 1873.7529,384.49805 1860.4978,384.49805 L 1524.5,384.49805 C 1511.2449,384.49805 1500.5,373.75293 1500.5,360.49805 L 1500.5,24.5 L 1500.5,24.5 z "
   stroke-miterlimit="3.863693" />

					<path
   style="fill:none;stroke:black;stroke-linecap:round;stroke-linejoin:round;stroke-miterlimit:3.863693"
   id="path11324"
   stroke-miterlimit="3.863693"
   d="" />

				</g>

			</g>

			<g
   id="g11326">
				<g
   id="g11328">
					<path
   id="path11330"
   d="M 1504.5,24.5 C 1504.5,13.454102 1513.4541,4.5 1524.4998,4.5 L 1860.4978,4.5 C 1871.5437,4.5 1880.4978,13.454102 1880.4978,24.5 L 1880.4978,360.49756 C 1880.4978,371.54395 1871.5437,380.49805 1860.4978,380.49805 L 1524.4998,380.49805 C 1513.4541,380.49805 1504.5,371.54395 1504.5,360.49756 L 1504.5,24.5 L 1504.5,24.5 z " />

					<path
   id="path11332"
   d="" />

				</g>

			</g>

			<g
   id="g11334">
				<g
   id="g11336">
					<path
   style="fill:white"
   id="path11338"
   d="M 1510.5,24.5 C 1510.5,16.768066 1516.7678,10.5 1524.4995,10.5 L 1860.498,10.5 C 1868.23,10.5 1874.4978,16.768066 1874.4978,24.5 L 1874.4978,360.49805 C 1874.4978,368.22998 1868.23,374.49805 1860.498,374.49805 L 1524.4995,374.49805 C 1516.7678,374.49805 1510.5,368.22998 1510.5,360.49805 L 1510.5,24.5 L 1510.5,24.5 z " />

					<path
   style="fill:white"
   id="path11340"
   d="" />

				</g>

			</g>

		</g>

		<g
   id="g11342">
			
				<polygon
   style="fill:none;fill-rule:evenodd;stroke:black;stroke-width:8;stroke-miterlimit:3.863693"
   id="polygon11344"
   points="1692.499,198.89893 1687.6987,189.29883 1682.8989,192.49902 1671.6992,189.29883 1668.499,186.09912 1663.6992,190.89893 1647.6992,181.29883 1646.0991,174.89893 1646.0991,77.299805 1527.6997,77.299805 1527.6997,50.099609 1838.0981,50.099609 1838.0981,70.899902 1855.6982,133.29932 1855.6982,219.69873 1828.498,210.09912 1810.8982,214.89893 1801.2983,221.29883 1778.8984,210.09912 1764.4985,218.09912 1748.4985,208.49902 1738.8984,211.69873 1730.8987,206.89893 1721.2988,211.69873 1692.499,198.89893 "
   stroke-miterlimit="3.863693"
   clip-rule="evenodd" />

		</g>

	</g>
    <path
       style="fill:white;fill-rule:evenodd"
       id="path13279"
       d="M 299.70426,656.81412 C 296.34516,665.3107 291.61566,672.65542 285.49356,678.77798 C 279.39126,684.88003 272.11666,689.64859 263.73116,693.10171 C 255.25236,696.59292 246.00066,698.30484 236.03606,698.30484 C 227.95886,698.30484 220.34076,697.02261 213.22156,694.41519 C 206.21066,691.84781 199.77676,688.28628 193.93816,683.73404 C 188.04536,679.13931 183.02286,673.5607 178.86886,667.03287 C 174.69226,660.46988 171.63766,653.15249 169.67866,645.12076 L 168.58776,640.64761 L 206.58736,629.68619 L 207.77626,634.54214 C 209.79776,642.79556 213.39196,648.70865 218.31386,652.70767 C 223.22356,656.69693 229.47916,658.82583 237.41936,658.82583 C 241.86026,658.82583 245.75066,658.08755 249.15816,656.69351 C 252.67616,655.25406 255.58486,653.33511 257.95596,650.96402 C 260.34606,648.57388 262.26626,645.69449 263.70056,642.26822 C 265.08776,638.95425 265.81826,635.21304 265.81826,630.98062 C 265.81826,626.819 265.02186,622.95425 263.44966,619.33853 C 261.91736,615.81412 259.86736,613.23355 257.36446,611.4064 C 256.41616,610.77652 255.58536,610.2604 254.86926,609.86246 C 254.65276,609.74234 254.21276,609.56314 253.42716,609.44253 C 252.29846,609.26871 250.82216,609.09683 248.99896,608.92349 C 247.13366,608.74576 244.52286,608.569 241.16616,608.39175 L 233.17276,608.39175 L 233.17276,569.74283 L 238.80266,569.74283 L 239.35616,569.74283 L 245.16596,569.74283 C 250.23036,569.74283 253.35976,568.41372 255.32776,566.44546 C 257.29606,564.47769 258.62516,561.3483 258.62516,556.28335 C 258.62516,550.36636 256.60246,545.71353 252.55336,541.95913 C 248.45496,538.15884 243.34026,536.18472 236.86616,536.18472 C 226.53456,536.18472 218.74896,541.05337 213.19086,551.84195 L 211.23816,555.63296 L 175.22986,542.17544 L 177.08806,537.60074 C 182.20406,525.00747 190.00406,514.96841 200.51266,507.66275 C 211.02706,500.35269 222.91736,496.70572 236.03606,496.70572 C 244.41006,496.70572 252.38416,498.30435 259.91396,501.51724 C 267.37736,504.70181 273.93446,509.09976 279.54536,514.71109 C 285.15616,520.32193 289.55456,526.87906 292.73916,534.34244 C 295.95186,541.87222 297.55066,549.84634 297.55066,558.21988 C 297.55066,564.17593 296.75676,569.68033 295.09096,574.6774 C 293.74016,578.72964 291.50086,583.15054 288.48016,587.91372 C 290.83216,590.21011 292.88146,592.47329 294.60926,594.70474 C 297.04826,597.85513 299.05116,601.18619 300.60046,604.69742 C 302.16396,608.24136 303.24456,612.01578 303.85786,616.00308 C 304.44396,619.81265 304.74356,624.15933 304.74356,629.0441 C 304.74356,638.99185 303.08366,648.26675 299.70426,656.81412 z "
       clip-rule="evenodd" />
    <rect
       style="opacity:1;fill:white;fill-opacity:1;stroke:none;stroke-width:1;stroke-linecap:butt;stroke-miterlimit:50;stroke-dasharray:none;stroke-dashoffset:0;stroke-opacity:1"
       id="rect17082"
       width="71.428574"
       height="37.142857"
       x="151.42857"
       y="179.28377"
       transform="translate(44.644,357.006)" />
    <path
       style="fill-rule:evenodd"
       id="path13916"
       d="M 299.94376,629.0441 C 299.94376,638.45035 298.37586,647.1188 295.24066,655.04947 C 292.10486,662.98013 287.72456,669.75845 282.09926,675.38394 C 276.47406,681.00894 269.74206,685.4357 261.90346,688.66324 C 254.06486,691.89078 245.44256,693.50455 236.03606,693.50455 C 228.47426,693.50455 221.41956,692.30581 214.87196,689.90787 C 208.32466,687.5104 202.33046,684.19058 196.88956,679.94839 C 191.44866,675.70669 186.79146,670.54214 182.91836,664.45572 C 179.04536,658.36929 176.18646,651.54507 174.34196,643.98355 L 203.11416,635.68374 C 205.32756,644.72085 209.38516,651.63736 215.28706,656.43277 C 221.18886,661.22818 228.56656,663.62613 237.41936,663.62613 C 242.39936,663.62613 246.91786,662.79605 250.97546,661.13589 C 255.03316,659.47622 258.49136,657.21695 261.35026,654.35806 C 264.20886,651.49869 266.46816,648.08706 268.12836,644.12173 C 269.78826,640.1564 270.61806,635.77603 270.61806,630.98062 C 270.61806,626.18521 269.69616,621.66665 267.85146,617.42447 C 266.00726,613.18228 263.42526,609.86246 260.10536,607.46499 C 258.99846,606.72671 258.03016,606.12759 257.20036,605.66665 C 256.37056,605.20572 255.35586,604.88296 254.15716,604.69839 C 252.95846,604.51382 251.39056,604.32925 249.45406,604.14517 C 247.51746,603.9606 244.79706,603.77603 241.29266,603.59146 L 237.97286,603.59146 L 237.97286,573.71304 L 237.97286,574.54263 L 238.80266,574.54263 L 239.35616,574.54263 L 245.16596,574.54263 C 251.06776,574.54263 255.58636,572.97476 258.72206,569.83951 C 261.85736,566.70425 263.42516,562.1857 263.42516,556.28335 C 263.42516,549.09048 260.88906,543.14224 255.81726,538.43912 C 250.74506,533.73599 244.42816,531.38443 236.86616,531.38443 C 224.50916,531.38443 215.19476,537.47085 208.92376,549.64371 L 181.53506,539.40787 C 186.33046,527.60367 193.56976,518.3356 203.25236,511.60367 C 212.93546,504.87173 223.86346,501.50601 236.03606,501.50552 C 243.78266,501.50552 251.11396,502.98111 258.03016,505.93228 C 264.94666,508.88345 270.98696,512.94107 276.15126,518.10464 C 281.31536,523.26919 285.37296,529.30972 288.32416,536.22622 C 291.27506,543.14224 292.75066,550.47378 292.75066,558.21988 C 292.75066,563.75308 292.01286,568.73306 290.53726,573.15933 C 289.06196,577.58609 286.29536,582.75015 282.23776,588.65201 C 285.74206,591.78775 288.60076,594.78482 290.81386,597.64371 C 293.02726,600.5021 294.82556,603.49966 296.20866,606.63492 C 297.59196,609.77017 298.56046,613.13638 299.11366,616.73306 C 299.66686,620.32925 299.94376,624.43326 299.94376,629.0441 z "
       clip-rule="evenodd" />
  </g>
</svg>
