<?xml version="1.0" encoding="UTF-8" standalone="no"?>
<!-- Created with Inkscape (http://www.inkscape.org/) -->

<svg
   xmlns:dc="http://purl.org/dc/elements/1.1/"
   xmlns:cc="http://creativecommons.org/ns#"
   xmlns:rdf="http://www.w3.org/1999/02/22-rdf-syntax-ns#"
   xmlns:svg="http://www.w3.org/2000/svg"
   xmlns="http://www.w3.org/2000/svg"
   version="1.1"
   width="600"
   height="600"
   id="svg16807">
  <defs
     id="defs16809" />
  <metadata
     id="metadata16812">
    <rdf:RDF>
      <cc:Work
         rdf:about="">
        <dc:format>image/svg+xml</dc:format>
        <dc:type
           rdf:resource="http://purl.org/dc/dcmitype/StillImage" />
        <dc:title></dc:title>
      </cc:Work>
    </rdf:RDF>
  </metadata>
  <g
     transform="translate(0,-452.36218)"
     id="layer1">
    <g
       id="g17602">
      <rect
         width="600"
         height="600"
         rx="37.5"
         ry="37.5"
         x="0"
         y="452.36218"
         id="rect16822"
         style="color:#000000;fill:#000000;fill-opacity:1;fill-rule:nonzero;stroke:none;stroke-width:3;marker:none;visibility:visible;display:inline;overflow:visible;enable-background:accumulate" />
      <path
         d="m 578.39848,601.2848 0,0 0,0 -2.67688,-9.59214 -3.74771,-10.12511 -4.28305,-9.59225 -4.81843,-9.05935 -5.88924,-8.52638 -5.88916,-8.52641 -6.95997,-7.99352 -6.95992,-7.4606 -8.03076,-6.92771 -8.03072,-6.39481 -8.56612,-5.86191 -9.10152,-4.79614 0,0 0,0 0,0 -9.10146,-3.73027 -8.5661,-3.73031 -8.5661,-3.1974 -9.1015,-3.19741 -9.10148,-2.66446 -9.10153,-3.19742 -9.10145,-2.66453 -9.10153,-2.1316 -9.10145,-2.6645 -9.10146,-2.13161 -9.10152,-1.59871 -9.10149,-2.13153 -9.63686,-1.59869 -9.10146,-1.59878 -9.6369,-1.0658 -9.1015,-1.06585 -9.63683,-1.06575 -9.10152,-0.53294 -9.63691,-0.53287 -9.10145,-0.5329 -9.63688,-0.53294 -9.6369,0 -9.10145,0.53294 -9.63688,0 -9.6369,0.5329 -9.10145,0.53287 -9.63688,1.06584 -9.10148,1.06579 -9.63688,1.06577 -9.10144,1.06584 -9.63691,1.59871 -9.10152,1.59868 -9.10146,2.13161 -9.63688,1.59871 -9.10148,2.13156 -9.10149,2.66455 -9.10149,2.66457 -9.10153,2.66444 -8.56607,2.6645 -9.10148,3.1974 -9.10153,3.1974 -8.56607,3.19749 -9.10149,3.73022 -8.566108,3.19741 0,0 0,0 0,0 -9.101485,5.32901 -8.566103,5.86187 -8.030771,6.39485 -8.03065,6.92768 -7.495379,7.46063 -6.424584,7.46058 -6.424635,8.52652 -5.889143,8.52635 -5.35382,9.0593 -4.818398,9.05939 -4.283077,9.59215 -3.212332,9.59221 0,0 0,0 0,0 -2.141488,8.52642 -1.606167,8.52641 -1.070744,9.0593 -1.606065,8.52643 -0.535423,8.5264 -1.070744,8.52642 -0.535422,9.05935 -0.535422,8.52638 0,9.0593 0,8.52642 0,8.52637 0.535422,9.05935 0.535422,8.52642 1.070744,8.52641 1.070744,9.05927 1.606167,8.52653 1.070643,8.52633 1.606167,8.52642 2.141588,8.52641 2.141488,8.52642 2.141588,8.5264 2.676911,8.52642 2.67681,7.9935 2.67701,8.52642 3.212232,7.99352 3.212333,7.9935 3.747654,7.99355 3.747654,7.99345 3.747725,7.99354 4.283016,7.46061 3.747634,7.99354 4.818479,7.46058 4.283046,7.46058 4.818439,7.46065 4.818468,6.9277 5.353781,6.92771 5.35382,7.46062 5.353821,6.39484 5.889194,6.92768 5.35382,6.39484 5.88916,6.39474 6.42462,6.39484 5.8892,6.39481 6.42461,5.86195 6.95993,5.86187 6.42461,5.8619 6.95993,5.32902 6.95996,5.329 6.95996,5.32901 6.95997,5.32898 7.49534,4.79611 7.49535,4.26323 7.49534,4.79611 7.49535,4.26328 7.49533,4.2631 8.03069,3.7304 8.03077,3.7302 8.03073,3.7304 8.03072,3.7304 8.03072,3.1973 8.03069,2.6645 8.56618,3.1974 8.56607,2.6645 8.03076,2.1315 8.56611,2.1316 8.56607,2.1317 0,0 0,0 0,0 8.56611,-2.1317 8.56611,-2.1316 8.56611,-2.1315 8.03072,-2.6645 8.5661,-3.1974 8.03073,-2.6645 8.03076,-3.1973 8.56608,-3.7304 7.49533,-3.1974 8.03074,-3.7304 8.03072,-4.2632 7.49534,-4.2631 7.49534,-4.26328 8.03076,-4.26321 6.95993,-4.79613 7.49535,-4.79611 6.95993,-5.32898 7.49537,-4.79614 6.42458,-5.32897 6.95997,-5.86192 6.95996,-5.32904 6.42458,-5.86187 6.42458,-6.39481 5.88919,-5.86187 6.42459,-6.39485 5.88923,-6.3948 5.88916,-6.39481 5.35382,-6.92772 5.35386,-6.9277 5.35378,-6.92768 5.35382,-6.92779 4.81842,-7.46056 4.81844,-6.92771 4.28306,-7.46062 4.81843,-7.99348 4.28305,-7.46064 3.74768,-7.46058 3.74767,-7.99355 3.74764,-7.9935 3.74774,-7.99352 3.21229,-7.99354 3.21222,-8.52638 2.67695,-7.99355 2.6769,-8.52637 2.67691,-7.99348 2.14156,-8.52648 2.14149,-8.52638 2.14153,-8.52641 1.60615,-8.52642 1.60614,-8.5264 1.07077,-8.52642 1.07075,-9.05935 1.07077,-8.52637 0.53538,-8.52641 0.53542,-9.05932 0,-8.52637 0,-8.52649 0,-9.05928 -0.53542,-8.52641 -0.53538,-9.05935 -1.07077,-8.52638 -0.53537,-8.5264 -1.60615,-8.52643 -1.0708,-9.05927 -1.60615,-8.52641 -2.14148,-8.52649"
         id="path8752"
         style="fill:#ffffff;fill-opacity:1;fill-rule:evenodd;stroke:none" />
    </g>
    <g
       id="text17596"
       style="font-size:447.76119995px;font-style:normal;font-variant:normal;font-weight:normal;font-stretch:normal;text-align:center;line-height:100%;letter-spacing:0px;word-spacing:0px;writing-mode:lr-tb;text-anchor:middle;fill:#000000;fill-opacity:1;stroke:none;font-family:Roadgeek 2005 Series C;-inkscape-font-specification:Roadgeek 2005 Series C">
      <path
         d="m 273.24931,666.95173 c -1.9e-4,37.3136 -9.10466,73.13446 -27.31344,107.46269 -17.91058,34.32842 -43.28369,64.47764 -76.1194,90.44776 l -24.17911,-33.58209 c 6.2686,-4.77608 12.53725,-10.44771 18.80597,-17.01492 6.56709,-6.86562 12.68648,-14.02979 18.35821,-21.49254 5.67155,-7.76111 10.74617,-15.5223 15.22388,-23.28358 4.4775,-7.76109 8.05959,-15.22377 10.74627,-22.38806 -3.5822,0.59713 -6.86578,0.89564 -9.85074,0.89552 -2.68668,1.2e-4 -5.67175,1.2e-4 -8.95523,0 -25.97022,1.2e-4 -46.56722,-8.50734 -61.79104,-25.52239 -14.9254,-17.01477 -22.38808,-40.14907 -22.38806,-69.40298 -2e-5,-14.02963 1.94028,-26.71618 5.82089,-38.05971 3.88057,-11.64153 9.40296,-21.49226 16.56717,-29.55224 7.46264,-8.35792 16.41785,-14.77582 26.86567,-19.25373 10.44768,-4.47731 22.08946,-6.71611 34.92537,-6.71642 27.46256,3.1e-4 48.20881,9.10478 62.23881,27.31344 14.02967,18.20921 21.04459,44.9256 21.04478,80.14925 m -41.19403,-9.40298 c -1.5e-4,-17.0147 -3.88074,-30.59678 -11.6418,-40.74627 -7.76131,-10.149 -17.91056,-15.22362 -30.44776,-15.22388 -13.43292,2.6e-4 -23.88067,4.62712 -31.34328,13.88059 -7.16424,9.25398 -10.74633,21.79128 -10.74627,37.61195 -6e-5,16.4181 3.58203,29.40316 10.74627,38.95522 7.46261,9.25389 17.91036,13.88076 31.34328,13.8806 12.5372,1.6e-4 22.68645,-4.3282 30.44776,-12.98508 7.76106,-8.65653 11.64165,-20.44757 11.6418,-35.37313"
         id="path19557"
         style="letter-spacing:18.07228851;fill:#000000;font-family:Roadgeek 2005 Series C;-inkscape-font-specification:Roadgeek 2005 Series C" />
      <path
         d="m 494.21339,666.95173 c -1.9e-4,37.3136 -9.10466,73.13446 -27.31344,107.46269 -17.91058,34.32842 -43.28369,64.47764 -76.1194,90.44776 l -24.1791,-33.58209 c 6.26859,-4.77608 12.53724,-10.44771 18.80597,-17.01492 6.56708,-6.86562 12.68647,-14.02979 18.3582,-21.49254 5.67155,-7.76111 10.74617,-15.5223 15.22389,-23.28358 4.47749,-7.76109 8.05958,-15.22377 10.74626,-22.38806 -3.5822,0.59713 -6.86578,0.89564 -9.85074,0.89552 -2.68668,1.2e-4 -5.67175,1.2e-4 -8.95523,0 -25.97022,1.2e-4 -46.56722,-8.50734 -61.79104,-25.52239 -14.9254,-17.01477 -22.38808,-40.14907 -22.38806,-69.40298 -2e-5,-14.02963 1.94028,-26.71618 5.82089,-38.05971 3.88057,-11.64153 9.40296,-21.49226 16.56717,-29.55224 7.46264,-8.35792 16.41785,-14.77582 26.86567,-19.25373 10.44768,-4.47731 22.08946,-6.71611 34.92537,-6.71642 27.46256,3.1e-4 48.20881,9.10478 62.23881,27.31344 14.02967,18.20921 21.04459,44.9256 21.04478,80.14925 m -41.19403,-9.40298 c -1.5e-4,-17.0147 -3.88074,-30.59678 -11.64179,-40.74627 -7.76132,-10.149 -17.91057,-15.22362 -30.44777,-15.22388 -13.43292,2.6e-4 -23.88067,4.62712 -31.34328,13.88059 -7.16424,9.25398 -10.74633,21.79128 -10.74627,37.61195 -6e-5,16.4181 3.58203,29.40316 10.74627,38.95522 7.46261,9.25389 17.91036,13.88076 31.34328,13.8806 12.5372,1.6e-4 22.68645,-4.3282 30.44777,-12.98508 7.76105,-8.65653 11.64164,-20.44757 11.64179,-35.37313"
         id="path19559"
         style="letter-spacing:18.07228851;fill:#000000;font-family:Roadgeek 2005 Series C;-inkscape-font-specification:Roadgeek 2005 Series C" />
    </g>
  </g>
</svg>
