<?xml version="1.0" encoding="UTF-8" standalone="no"?>
<!-- Created with Inkscape (http://www.inkscape.org/) -->
<svg
   xmlns:svg="http://www.w3.org/2000/svg"
   xmlns="http://www.w3.org/2000/svg"
   version="1.0"
   width="600"
   height="600"
   id="svg2">
  <defs
     id="defs4" />
  <g
     id="layer1">
    <g
       id="g1876">
      <path
         d="M 37.50003,0 L 562.50045,0 C 583.27547,0 600.00048,16.725013 600.00048,37.50003 L 600.00048,562.50045 C 600.00048,583.27547 583.27547,600.00048 562.50045,600.00048 L 37.50003,600.00048 C 16.725013,600.00048 0,583.27547 0,562.50045 L 0,37.50003 C 0,16.725013 16.725013,0 37.50003,0 z "
         style="fill:black;fill-opacity:1"
         id="rect1884" />
      <path
         d="M 130.71191,25.00002 L 147.5088,125.26052 L 18.750015,125.26052 L 90.824725,575.00046 L 511.10285,575.00046 L 583.17755,125.26052 L 454.41878,125.26052 L 471.21565,25.00002 L 130.71191,25.00002 z "
         style="fill:white;fill-opacity:1;fill-rule:evenodd;stroke:none;stroke-width:1px;stroke-linecap:butt;stroke-linejoin:miter;stroke-opacity:1"
         id="path8224" />
      <path
         d="M 145.92122,458.00037 L 145.92122,219.14657 L 119.08658,219.14657 L 119.08658,181.76065 L 122.16068,181.76065 C 128.3178,181.76092 134.47495,180.1478 140.63215,176.92128 C 146.78925,173.69533 151.9217,169.14682 156.02951,163.27576 L 193.41544,163.27576 L 193.41544,458.00037 L 145.92122,458.00037 z M 480.57782,363.87106 C 480.57759,377.35782 477.8637,390.11287 472.43614,402.13626 C 467.00814,414.15976 459.67639,424.71775 450.44087,433.81026 C 441.20494,442.90282 430.57536,450.08691 418.55208,455.36254 C 406.52847,460.63819 393.77341,463.27601 380.28688,463.27601 C 366.79114,463.27601 354.03161,460.63819 342.00825,455.36254 C 329.98472,450.08691 319.35513,442.90282 310.11947,433.81026 C 300.88368,424.71775 293.55417,414.15976 288.1309,402.13626 C 282.70756,390.11287 279.99591,377.35782 279.99594,363.87106 C 279.99591,349.79383 282.92682,337.11037 288.78868,325.82064 C 294.65046,314.53117 303.00915,304.48777 313.86477,295.6904 C 299.49206,280.44088 292.30574,262.55114 292.30578,242.02112 C 292.30574,230.58408 294.6527,219.80683 299.34668,209.68934 C 304.04056,199.57236 310.41921,190.62749 318.48264,182.85471 C 326.54593,175.08247 335.85549,168.99692 346.41134,164.59802 C 356.96699,160.19971 368.25883,158.00041 380.28688,158.00011 C 392.01934,158.00041 403.30894,160.19971 414.15571,164.59802 C 425.00215,168.99692 434.45937,175.08247 442.5274,182.85471 C 450.59504,190.62749 457.04752,199.57236 461.88485,209.68934 C 466.72176,219.80683 469.14032,230.58408 469.14054,242.02112 C 469.14032,252.28624 467.16028,261.89112 463.20041,270.83581 C 459.24011,279.78087 453.59531,288.06572 446.26599,295.6904 C 457.70306,304.48777 466.28101,314.6766 471.99986,326.25692 C 477.71827,337.83751 480.57759,350.37554 480.57782,363.87106 L 480.57782,363.87106 z M 421.6329,240.70557 C 421.63273,231.02259 417.60105,222.7355 409.53784,215.84426 C 401.47432,208.95351 391.72401,205.50801 380.28688,205.50776 C 368.84949,205.50801 359.09917,208.95351 351.03591,215.84426 C 342.97245,222.7355 338.94077,231.02259 338.94086,240.70557 C 338.94077,249.50299 342.97245,257.054 351.03591,263.35862 C 359.09917,269.66363 368.84949,272.81604 380.28688,272.81585 C 391.72401,272.81604 401.47432,269.66363 409.53784,263.35862 C 417.60105,257.054 421.63273,249.50299 421.6329,240.70557 L 421.6329,240.70557 z M 433.94273,364.74362 C 433.94255,358.58656 432.47709,352.79634 429.54636,347.37292 C 426.61527,341.94973 422.73126,337.25804 417.8943,333.29783 C 413.05702,329.33787 407.41222,326.18546 400.95989,323.8406 C 394.50726,321.496 387.61626,320.32364 380.28688,320.3235 C 372.95724,320.32364 366.14007,321.496 359.83537,323.8406 C 353.53044,326.18546 347.95724,329.33787 343.11574,333.29783 C 338.27405,337.25804 334.46163,341.94973 331.67846,347.37292 C 328.89513,352.79634 327.50351,358.58656 327.50359,364.74362 C 327.50351,371.78685 328.89513,378.38699 331.67846,384.54407 C 334.46163,390.70129 338.27405,396.12459 343.11574,400.81399 C 347.95724,405.50351 353.53044,409.16826 359.83537,411.80827 C 366.14007,414.44838 372.95724,415.76841 380.28688,415.76836 C 387.61626,415.76841 394.58109,414.44838 401.18138,411.80827 C 407.78138,409.16826 413.50001,405.50351 418.3373,400.81399 C 423.17425,396.12459 426.98443,390.70129 429.76786,384.54407 C 432.55093,378.38699 433.94255,371.78685 433.94273,364.74362 L 433.94273,364.74362 z "
         style="font-size:439.87866211px"
         id="text1880" />
    </g>
  </g>
</svg>
