<?xml version="1.0" encoding="UTF-8" standalone="no"?>
<!-- Created with Inkscape (http://www.inkscape.org/) -->

<svg
   xmlns:dc="http://purl.org/dc/elements/1.1/"
   xmlns:cc="http://creativecommons.org/ns#"
   xmlns:rdf="http://www.w3.org/1999/02/22-rdf-syntax-ns#"
   xmlns:svg="http://www.w3.org/2000/svg"
   xmlns="http://www.w3.org/2000/svg"
   version="1.1"
   width="601"
   height="601"
   id="svg2">
  <defs
     id="defs4" />
  <metadata
     id="metadata7">
    <rdf:RDF>
      <cc:Work
         rdf:about="">
        <dc:format>image/svg+xml</dc:format>
        <dc:type
           rdf:resource="http://purl.org/dc/dcmitype/StillImage" />
        <dc:title></dc:title>
      </cc:Work>
    </rdf:RDF>
  </metadata>
  <g
     transform="translate(-170.875,-445.8125)"
     id="layer1">
    <rect
       width="600"
       height="600"
       rx="37.5"
       ry="37.5"
       x="171.375"
       y="446.3125"
       id="rect2985"
       style="fill:#ffffff;fill-opacity:1;stroke:#999999;stroke-width:1;stroke-linejoin:round;stroke-miterlimit:4;stroke-opacity:1;stroke-dasharray:none" />
    <rect
       width="559.375"
       height="559.375"
       rx="21.875"
       ry="21.875"
       x="191.6875"
       y="466.625"
       id="rect3755"
       style="fill:#ffffff;fill-opacity:1;fill-rule:nonzero;stroke:#000000;stroke-width:15.625;stroke-linejoin:round;stroke-miterlimit:4;stroke-opacity:1;stroke-dasharray:none" />
    <g
       id="text3938"
       style="font-size:447.76119995px;font-style:normal;font-variant:normal;font-weight:normal;font-stretch:normal;text-align:center;line-height:125%;letter-spacing:0px;word-spacing:0px;writing-mode:lr-tb;text-anchor:middle;fill:#000000;fill-opacity:1;stroke:none;font-family:Roadgeek 2005 Series D;-inkscape-font-specification:Roadgeek 2005 Series D">
      <path
         d="m 350.45242,966.8125 c -3e-5,-17.91043 1.79102,-33.88056 5.37313,-47.91045 3.88057,-14.32829 10.14922,-28.95515 18.80597,-43.8806 13.43278,-22.08943 29.70142,-39.99986 48.80597,-53.73134 19.10437,-14.02969 42.53718,-24.77595 70.29851,-32.23881 17.01474,-4.77593 28.80578,-9.99981 35.37313,-15.67164 6.56696,-5.96995 9.85054,-13.43263 9.85075,-22.38806 -2.1e-4,-11.04455 -5.07483,-19.552 -15.22388,-25.52239 -10.14944,-6.26841 -24.77629,-9.40273 -43.8806,-9.40298 -19.70162,2.5e-4 -36.86578,2.68681 -51.49254,8.0597 -14.62695,5.07486 -28.35828,13.28381 -41.19403,24.62687 l -36.71641,-40.74627 c 35.52233,-31.04449 77.61184,-46.56686 126.26865,-46.56717 17.61178,3.1e-4 33.58191,2.08986 47.91045,6.26866 14.32815,4.1794 26.41769,10.14954 36.26866,17.91045 10.14901,7.76146 17.9102,17.16444 23.28358,28.20895 5.67138,11.04502 8.5072,23.43307 8.50746,37.16418 -2.6e-4,12.53752 -2.68682,24.47781 -8.0597,35.8209 -5.07487,11.04494 -12.53755,20.89568 -22.38806,29.55224 -5.07485,3.58223 -11.19425,7.16432 -18.35821,10.74627 -6.86588,3.58222 -15.52258,7.01505 -25.97015,10.2985 -10.14943,2.9852 -18.65688,5.67177 -25.52238,8.0597 -6.56732,2.08968 -12.38821,4.32848 -17.46269,6.71642 -5.07477,2.38817 -9.70163,5.07474 -13.8806,8.0597 -3.88072,2.68668 -8.05982,5.97025 -12.53731,9.85075 -6.86579,5.97024 -12.83593,12.08964 -17.91045,18.35821 -4.77622,6.26873 -9.70158,14.47768 -14.77612,24.62687 l 176.86567,0 0,53.73134 -242.2388,0"
         id="path4099"
         style="font-family:Roadgeek 2005 Series E;-inkscape-font-specification:Roadgeek 2005 Series E" />
    </g>
    <text
       x="284.99802"
       y="107.32143"
       transform="translate(170.875,445.8125)"
       id="text3942"
       xml:space="preserve"
       style="font-size:40px;font-style:normal;font-weight:normal;text-align:center;line-height:125%;letter-spacing:0px;word-spacing:0px;text-anchor:middle;fill:#000000;fill-opacity:1;stroke:none;font-family:Bitstream Vera Sans"><tspan
         x="284.99802"
         y="107.32143"
         id="tspan3944"></tspan></text>
    <g
       id="text3946"
       style="font-size:149.2537384px;font-style:normal;font-variant:normal;font-weight:normal;font-stretch:normal;text-align:center;line-height:125%;letter-spacing:0px;word-spacing:0px;writing-mode:lr-tb;text-anchor:middle;fill:#000000;fill-opacity:1;stroke:none;font-family:Roadgeek 2005 Series D;-inkscape-font-specification:Roadgeek 2005 Series D">
      <path
         d="m 451.65353,625.8125 -16.11941,-43.58209 -18.95522,0 0,43.58209 -15.8209,0 0,-100 32.98508,0 c 3.88055,10e-5 7.21388,0.24885 10,0.74626 2.78601,0.39811 5.42282,1.19413 7.91045,2.38806 2.18899,1.09463 4.17903,2.53741 5.97015,4.32836 1.89047,1.69164 3.48251,3.68168 4.77612,5.97015 1.39296,2.18914 2.43773,4.5772 3.13432,7.16418 0.79595,2.48764 1.19396,4.9752 1.19403,7.46269 -7e-5,2.68663 -0.39808,5.32345 -1.19403,7.91045 -0.69659,2.48762 -1.74136,4.87568 -3.13432,7.16418 -1.29361,2.18911 -2.9354,4.17915 -4.92538,5.97015 -1.89061,1.79109 -3.98016,3.18412 -6.26865,4.1791 l 17.61194,46.71642 -17.16418,0 m -0.74627,-71.9403 c -6e-5,-2.08948 -0.54733,-4.07953 -1.64179,-5.97015 -1.09459,-1.89047 -2.63688,-3.383 -4.62687,-4.47761 -1.29359,-0.69644 -2.48761,-1.1442 -3.58209,-1.34329 -1.09458,-0.29842 -2.93537,-0.44767 -5.52239,-0.44776 l -18.95522,0 0,24.47761 18.95522,0 c 2.48752,6e-5 4.27856,-0.0994 5.37314,-0.2985 1.19397,-0.19895 2.43775,-0.64671 3.73134,-1.34329 1.98999,-1.09446 3.53228,-2.587 4.62687,-4.47761 1.09446,-1.98998 1.64173,-4.02978 1.64179,-6.1194"
         id="path4024" />
      <path
         d="m 495.43851,617.7528 c -2e-5,2.48757 -0.8458,4.62687 -2.53732,6.41791 -1.69156,1.79104 -3.78111,2.68657 -6.26865,2.68657 -2.48758,0 -4.62688,-0.89553 -6.41791,-2.68657 -1.79105,-1.79104 -2.68658,-3.93034 -2.68657,-6.41791 -10e-6,-2.48755 0.89552,-4.5771 2.68657,-6.26866 1.79103,-1.69153 3.93033,-2.5373 6.41791,-2.53731 2.48754,10e-6 4.57709,0.84578 6.26865,2.53731 1.69152,1.69156 2.5373,3.78111 2.53732,6.26866"
         id="path4026" />
      <path
         d="m 511.53226,625.8125 0,-100 16.1194,0 0,100 -16.1194,0"
         id="path4028" />
      <path
         d="m 561.32004,617.7528 c -2e-5,2.48757 -0.84579,4.62687 -2.53732,6.41791 -1.69156,1.79104 -3.78111,2.68657 -6.26865,2.68657 -2.48758,0 -4.62688,-0.89553 -6.41791,-2.68657 -1.79105,-1.79104 -2.68657,-3.93034 -2.68657,-6.41791 0,-2.48755 0.89552,-4.5771 2.68657,-6.26866 1.79103,-1.69153 3.93033,-2.5373 6.41791,-2.53731 2.48754,10e-6 4.57709,0.84578 6.26865,2.53731 1.69153,1.69156 2.5373,3.78111 2.53732,6.26866"
         id="path4030" />
    </g>
  </g>
</svg>
