<?xml version="1.0" encoding="UTF-8" standalone="no"?>
<!-- Created with Inkscape (http://www.inkscape.org/) -->
<svg
   xmlns:dc="http://purl.org/dc/elements/1.1/"
   xmlns:cc="http://web.resource.org/cc/"
   xmlns:rdf="http://www.w3.org/1999/02/22-rdf-syntax-ns#"
   xmlns:svg="http://www.w3.org/2000/svg"
   xmlns="http://www.w3.org/2000/svg"
   xmlns:xlink="http://www.w3.org/1999/xlink"
   xmlns:sodipodi="http://sodipodi.sourceforge.net/DTD/sodipodi-0.dtd"
   xmlns:inkscape="http://www.inkscape.org/namespaces/inkscape"
   width="300"
   height="240"
   id="svg2"
   sodipodi:version="0.32"
   inkscape:version="0.45.1"
   version="1.0"
   sodipodi:docbase="C:\Users\Emil\Desktop\Matté's Work\Pix\svg\sc"
   sodipodi:docname="South_Carolina_9.svg"
   inkscape:output_extension="org.inkscape.output.svg.inkscape">
  <defs
     id="defs4" />
  <sodipodi:namedview
     id="base"
     pagecolor="#ffffff"
     bordercolor="#666666"
     borderopacity="1.0"
     gridtolerance="10000"
     guidetolerance="10"
     objecttolerance="10"
     inkscape:pageopacity="0.0"
     inkscape:pageshadow="2"
     inkscape:zoom="3.3416667"
     inkscape:cx="150"
     inkscape:cy="120"
     inkscape:document-units="px"
     inkscape:current-layer="layer1"
     width="300px"
     height="240px"
     inkscape:window-width="1680"
     inkscape:window-height="1000"
     inkscape:window-x="-8"
     inkscape:window-y="-8" />
  <metadata
     id="metadata7">
    <rdf:RDF>
      <cc:Work
         rdf:about="">
        <dc:format>image/svg+xml</dc:format>
        <dc:type
           rdf:resource="http://purl.org/dc/dcmitype/StillImage" />
      </cc:Work>
    </rdf:RDF>
  </metadata>
  <g
     inkscape:label="Layer 1"
     inkscape:groupmode="layer"
     id="layer1">
    <rect
       style="opacity:1;fill:#003882;fill-opacity:1;stroke:none;stroke-width:0.5;stroke-linecap:round;stroke-miterlimit:4;stroke-dasharray:none;stroke-opacity:1"
       id="rect2268"
       width="300"
       height="240"
       x="0"
       y="0"
       rx="15"
       ry="15" />
    <rect
       style="opacity:1;fill:#ffffff;fill-opacity:1;stroke:none;stroke-width:0.5;stroke-linecap:round;stroke-miterlimit:4;stroke-dasharray:none;stroke-opacity:1"
       id="rect2270"
       width="290"
       height="200"
       x="5"
       y="35"
       rx="10"
       ry="10" />
    <path
       style="font-size:144.09216309px;font-style:normal;font-weight:normal;text-align:center;text-anchor:middle;fill:#003882;fill-opacity:1;stroke:none;stroke-width:1px;stroke-linecap:butt;stroke-linejoin:miter;stroke-opacity:1;font-family:Tahoma"
       d="M 183.88374,140.83858 C 183.88366,147.46691 182.99466,154.07098 181.21675,160.65082 C 179.43868,167.23075 176.91681,173.54679 173.65112,179.59897 C 170.38529,185.6512 166.44748,191.27027 161.83765,196.45619 C 157.22772,201.64213 152.13633,206.15673 146.56348,210.00001 L 139.21552,197.03224 C 142.09721,194.72805 144.66672,192.49493 146.92406,190.33289 C 149.18132,188.17088 151.22242,185.93703 153.04736,183.63133 C 154.87221,181.32569 156.55346,178.87637 158.09111,176.28337 C 159.62867,173.69044 161.11717,170.80798 162.55662,167.636 C 159.77158,168.11681 157.63448,168.45321 156.14529,168.64519 C 154.65601,168.83724 152.95131,168.93325 151.03118,168.93321 C 146.51654,168.93325 142.26577,168.16518 138.27888,166.629 C 134.29193,165.09291 130.80924,163.00417 127.83079,160.36279 C 124.85231,157.7215 122.499,154.59939 120.77086,150.99645 C 119.04269,147.39362 118.17861,143.57526 118.17862,139.54137 C 118.17861,135.41087 119.04269,131.54414 120.77086,127.94117 C 122.499,124.33837 124.82812,121.21626 127.75824,118.57483 C 130.68831,115.93359 134.14682,113.84412 138.13377,112.30642 C 142.12066,110.76891 146.41979,110.00011 151.03118,110.00001 C 155.64248,110.00011 159.96506,110.7931 163.99895,112.37897 C 168.03272,113.96504 171.51468,116.12634 174.44484,118.86286 C 177.37486,121.59956 179.68054,124.84113 181.36186,128.58758 C 183.04304,132.3342 183.88366,136.41786 183.88374,140.83858 L 183.88374,140.83858 z M 168.60736,139.54137 C 168.6073,137.71507 168.12726,135.93708 167.16723,134.20739 C 166.20709,132.47784 164.93479,130.98861 163.35034,129.73969 C 161.76578,128.49092 159.91669,127.48246 157.80309,126.71431 C 155.68939,125.94633 153.43208,125.56229 151.03118,125.56221 C 148.63019,125.56229 146.39707,125.92287 144.33183,126.64396 C 142.26651,127.3652 140.44088,128.35021 138.85493,129.59897 C 137.26893,130.84789 136.02009,132.33639 135.1084,134.06447 C 134.19666,135.7927 133.7408,137.61833 133.74082,139.54137 C 133.7408,141.46161 134.19666,143.26232 135.1084,144.9435 C 136.02009,146.62482 137.26893,148.08986 138.85493,149.33865 C 140.44088,150.58755 142.26651,151.57182 144.33183,152.29146 C 146.39707,153.01122 148.63019,153.37107 151.03118,153.37101 C 153.43208,153.37107 155.71357,153.01122 157.87565,152.29146 C 160.03762,151.57182 161.91089,150.58755 163.49545,149.33865 C 165.0799,148.08986 166.32802,146.62482 167.23979,144.9435 C 168.15145,143.26232 168.6073,141.46161 168.60736,139.54137 L 168.60736,139.54137 z "
       id="text2290" />
    <path
       style="font-size:30.61958504px;font-style:normal;font-weight:normal;fill:#ffffff;fill-opacity:1;stroke:none;stroke-width:1px;stroke-linecap:butt;stroke-linejoin:miter;stroke-opacity:1;font-family:Tahoma"
       d="M 28.701509,21.528957 C 28.701496,22.366216 28.553544,23.147091 28.257652,23.871587 C 27.961735,24.596088 27.553543,25.223717 27.033074,25.754474 C 26.512583,26.285235 25.91034,26.708845 25.226343,27.025307 C 24.542328,27.341769 23.802255,27.5 23.006124,27.5 C 22.107814,27.5 21.301552,27.326506 20.587337,26.979519 C 19.873113,26.632533 19.271026,26.163135 18.781073,25.571325 C 18.291116,24.979518 17.913448,24.295667 17.64807,23.519772 C 17.382689,22.743883 17.25,21.937622 17.250001,21.100985 L 20.128062,21.100985 C 20.128058,21.529585 20.184124,21.95304 20.296261,22.37135 C 20.408389,22.78967 20.581882,23.167338 20.816741,23.504353 C 21.051591,23.841376 21.347651,24.111895 21.704922,24.315911 C 22.062182,24.519932 22.495916,24.621941 23.006124,24.621938 C 23.394219,24.621941 23.766903,24.540334 24.124176,24.377116 C 24.481434,24.213904 24.787617,23.989329 25.042726,23.703388 C 25.297818,23.417455 25.501836,23.08573 25.654782,22.708214 C 25.807708,22.330707 25.884176,21.937622 25.884186,21.528957 C 25.884176,20.937154 25.761765,20.41169 25.516952,19.952564 C 25.272121,19.493452 24.843527,19.029038 24.231169,18.55932 C 24.128996,18.457164 24.088192,18.400942 24.108758,18.390655 C 24.129307,18.380385 24.068102,18.324319 23.925141,18.222456 C 23.782165,18.120612 23.480966,17.921577 23.021542,17.625352 C 22.562105,17.329146 21.81191,16.824084 20.770954,16.110165 C 19.934319,15.538302 19.30669,14.869558 18.888066,14.103931 C 18.469437,13.338331 18.260123,12.496405 18.260126,11.578152 C 18.260123,10.843079 18.392813,10.154089 18.658195,9.5111806 C 18.923572,8.8683072 19.2961,8.301884 19.77578,7.8119095 C 20.255453,7.3219736 20.811753,6.9391668 21.444682,6.6634882 C 22.0776,6.3878504 22.761295,6.2500213 23.495768,6.2500004 C 24.230849,6.2500213 24.909716,6.382711 25.532371,6.64807 C 26.155006,6.9134699 26.695888,7.2810142 27.155018,7.750704 C 27.614126,8.2204325 27.981514,8.781872 28.257185,9.4350241 C 28.532831,10.088212 28.680939,10.802587 28.701509,11.578152 L 25.884186,11.578152 C 25.843684,10.863637 25.598862,10.292074 25.149719,9.8634628 C 24.700558,9.434886 24.149242,9.220589 23.495768,9.2205711 C 22.822345,9.220589 22.250938,9.4451648 21.781546,9.8942992 C 21.312143,10.343468 21.077444,10.904752 21.077449,11.578152 C 21.077444,12.088369 21.210134,12.516963 21.475518,12.863935 C 21.740892,13.210936 22.251094,13.598727 23.006124,14.027308 C 24.986495,15.170446 26.43082,16.333973 27.339102,17.517892 C 28.247361,18.70183 28.701496,20.03885 28.701509,21.528957 L 28.701509,21.528957 z M 42.461765,16.844631 C 42.461752,18.41636 42.375005,19.753381 42.201525,20.855696 C 42.028018,21.958023 41.726663,22.999139 41.297459,23.979047 C 40.787245,25.203782 40.149493,26.09679 39.384202,26.658073 C 38.618889,27.219358 37.654397,27.5 36.490722,27.5 C 35.265982,27.5 34.270809,27.219358 33.5052,26.658073 C 32.739582,26.09679 32.101675,25.203782 31.591476,23.979047 C 31.162879,22.978582 30.861836,21.932326 30.688344,20.840278 C 30.514849,19.748241 30.428102,18.41636 30.428104,16.844631 C 30.428102,15.29348 30.514849,13.961599 30.688344,12.848984 C 30.861836,11.736399 31.162879,10.690143 31.591476,9.7102154 C 32.122232,8.4855004 32.770418,7.6026154 33.536037,7.0615577 C 34.301645,6.5205401 35.286539,6.2500213 36.490722,6.2500004 C 37.674331,6.2500213 38.643807,6.5205401 39.399153,7.0615577 C 40.154477,7.6026154 40.787245,8.506058 41.297459,9.7718881 C 41.501776,10.282107 41.680564,10.792308 41.833825,11.302494 C 41.987059,11.812711 42.109625,12.348453 42.201525,12.909723 C 42.293398,13.471021 42.359742,14.073264 42.40056,14.716454 C 42.44135,15.359669 42.461752,16.069061 42.461765,16.844631 L 42.461765,16.844631 z M 39.644442,16.844631 C 39.644431,16.272767 39.629169,15.752131 39.598655,15.282722 C 39.568119,14.813336 39.527315,14.379603 39.476244,13.98152 C 39.42515,13.583464 39.358806,13.200813 39.277209,12.833566 C 39.195591,12.466348 39.103705,12.098959 39.00155,11.7314 C 38.736161,10.812554 38.404436,10.14895 38.006377,9.7405845 C 37.608298,9.332254 37.10308,9.12808 36.490722,9.128062 C 35.224867,9.12808 34.3574,9.9753007 33.888319,11.669727 C 33.642869,12.445323 33.474359,13.226043 33.382789,14.01189 C 33.29121,14.797762 33.245423,15.762254 33.245427,16.905369 C 33.245423,17.456696 33.260685,17.962069 33.291215,18.421491 C 33.321735,18.88093 33.362538,19.30968 33.413626,19.707742 C 33.464703,20.105818 33.531048,20.498748 33.61266,20.886532 C 33.694263,21.274329 33.786149,21.672242 33.888319,22.080274 C 34.3574,23.77472 35.224867,24.621941 36.490722,24.621938 C 37.10308,24.621941 37.608298,24.417767 38.006377,24.009416 C 38.404436,23.601071 38.736161,22.958024 39.00155,22.080274 C 39.123639,21.672242 39.225649,21.279468 39.307578,20.90195 C 39.389486,20.524445 39.455831,20.131515 39.506613,19.72316 C 39.557373,19.314819 39.593037,18.88093 39.613606,18.421491 C 39.634152,17.962069 39.644431,17.43645 39.644442,16.844631 L 39.644442,16.844631 z M 56.757453,21.008476 C 56.757439,21.417141 56.742176,21.784686 56.711665,22.11111 C 56.681127,22.437544 56.635184,22.738588 56.573836,23.014242 C 56.512461,23.289904 56.430698,23.560423 56.328547,23.825799 C 56.226368,24.091182 56.103957,24.356561 55.961313,24.621938 C 55.451099,25.459194 54.751986,26.148184 53.863973,26.68891 C 52.975938,27.229636 52.04197,27.5 51.062068,27.5 C 50.041657,27.5 49.077165,27.23462 48.168588,26.703861 C 47.260001,26.173102 46.550609,25.479129 46.040411,24.621938 C 45.897751,24.356561 45.77534,24.091182 45.673178,23.825799 C 45.57101,23.560423 45.489247,23.289904 45.427888,23.014242 C 45.366525,22.738588 45.320582,22.437544 45.290059,22.11111 C 45.259532,21.784686 45.24427,21.417141 45.244272,21.008476 L 45.244272,6.6172336 L 48.184006,6.6172336 L 48.184006,21.376644 C 48.184001,22.355937 48.44938,23.141641 48.980145,23.733757 C 49.510898,24.325881 50.204872,24.621941 51.062068,24.621938 C 51.858198,24.621941 52.516507,24.325881 53.036997,23.733757 C 53.557467,23.141641 53.817707,22.355937 53.817718,21.376644 L 53.817718,6.6172336 L 56.757453,6.6172336 L 56.757453,21.008476 L 56.757453,21.008476 z M 64.985853,9.3429822 L 64.985853,27.132767 L 62.016216,27.132767 L 62.016216,9.3429822 L 58.280343,9.3429822 L 58.280343,6.6172336 L 68.721726,6.6172336 L 68.721726,9.3429822 L 64.985853,9.3429822 z M 78.768531,27.132767 L 78.768531,17.854756 L 73.134819,17.854756 L 73.134819,27.132767 L 70.195085,27.132767 L 70.195085,6.6172336 L 73.134819,6.6172336 L 73.134819,14.976694 L 78.768531,14.976694 L 78.768531,6.6172336 L 81.708266,6.6172336 L 81.708266,27.132767 L 78.768531,27.132767 z "
       id="text2308" />
    <path
       style="font-size:30.61958504px;font-style:normal;font-weight:normal;fill:#ffffff;fill-opacity:1;stroke:none;stroke-width:1px;stroke-linecap:butt;stroke-linejoin:miter;stroke-opacity:1;font-family:Tahoma"
       d="M 198.34577,12.098633 C 198.03989,10.118269 197.22351,9.12808 195.89662,9.128062 C 195.3048,9.12808 194.79959,9.2557861 194.38096,9.5111806 C 193.96233,9.7666103 193.62547,10.174958 193.37037,10.736226 C 193.11527,11.297526 192.93165,12.037442 192.81952,12.955977 C 192.70739,13.874541 192.65132,14.997264 192.65132,16.32415 C 192.65132,19.283827 192.92168,21.406707 193.46241,22.692796 C 194.00314,23.978894 194.90642,24.621941 196.17228,24.621938 C 196.60086,24.621941 196.95299,24.540334 197.22866,24.377116 C 197.50431,24.213904 197.72888,23.994468 197.90239,23.718806 C 198.07587,23.443152 198.19314,23.12669 198.2542,22.76942 C 198.31524,22.412159 198.34576,22.039786 198.34577,21.652302 L 201.28551,21.652302 C 201.26494,22.509496 201.12197,23.295355 200.8566,24.009883 C 200.59121,24.724417 200.2341,25.341923 199.78527,25.862402 C 199.33642,26.382883 198.80068,26.785936 198.17804,27.071561 C 197.55539,27.357187 196.8868,27.5 196.17228,27.5 C 193.96763,27.5 192.36009,26.601852 191.34966,24.805555 C 190.33922,23.009262 189.834,20.212655 189.834,16.415725 C 189.834,13.067968 190.34436,10.53674 191.36507,8.8220343 C 192.38578,7.1073651 193.91654,6.2500213 195.95736,6.2500004 C 196.7946,6.2500213 197.56022,6.4286541 198.2542,6.7858992 C 198.94816,7.1431851 199.53,7.6585258 199.99973,8.3319229 C 200.38719,8.842766 200.67282,9.3635575 200.8566,9.8942992 C 201.04036,10.425075 201.18333,11.159852 201.28551,12.098633 L 198.34577,12.098633 z M 212.43425,27.132767 L 210.99522,21.528957 L 206.58562,21.528957 L 205.2391,27.132767 L 202.26853,27.132767 L 207.38176,6.6172336 L 210.26076,6.6172336 L 215.37399,27.132767 L 212.43425,27.132767 z M 208.76005,12.741524 L 207.32102,18.650895 L 210.26076,18.650895 L 208.76005,12.741524 z M 225.165,27.132767 L 222.43925,17.487523 L 219.62286,17.487523 L 219.62286,27.132767 L 216.68313,27.132767 L 216.68313,6.6172336 L 222.80742,6.6172336 C 223.60355,6.6172541 224.33334,6.7499438 224.9968,7.0153032 C 225.66024,7.2807027 226.2318,7.648247 226.71149,8.1179371 C 227.19115,8.5876653 227.55854,9.1643672 227.81366,9.8480446 C 228.06874,10.531757 228.19629,11.281952 228.19631,12.098633 C 228.19629,13.32338 227.95132,14.364496 227.46137,15.221984 C 226.9714,16.079495 226.23647,16.691705 225.25657,17.058617 L 228.19631,27.132767 L 225.165,27.132767 z M 225.31825,12.098633 C 225.31823,11.302509 225.07326,10.669741 224.58331,10.200327 C 224.09335,9.7309461 223.4503,9.4962473 222.65417,9.4962296 L 219.62286,9.4962296 L 219.62286,14.670199 L 222.65417,14.670199 C 223.51135,14.670212 224.16966,14.450775 224.6291,14.01189 C 225.08852,13.57303 225.31823,12.935278 225.31825,12.098633 L 225.31825,12.098633 z M 241.76991,16.844631 C 241.7699,18.41636 241.68315,19.753381 241.50967,20.855696 C 241.33616,21.958023 241.03481,22.999139 240.6056,23.979047 C 240.09539,25.203782 239.45764,26.09679 238.69235,26.658073 C 237.92703,27.219358 236.96254,27.5 235.79887,27.5 C 234.57413,27.5 233.57895,27.219358 232.81335,26.658073 C 232.04773,26.09679 231.40982,25.203782 230.89962,23.979047 C 230.47102,22.978582 230.16998,21.932326 229.99649,20.840278 C 229.82299,19.748241 229.73625,18.41636 229.73625,16.844631 C 229.73625,15.29348 229.82299,13.961599 229.99649,12.848984 C 230.16998,11.736399 230.47102,10.690143 230.89962,9.7102154 C 231.43038,8.4855004 232.07856,7.6026154 232.84418,7.0615577 C 233.60979,6.5205401 234.59468,6.2500213 235.79887,6.2500004 C 236.98248,6.2500213 237.95195,6.5205401 238.7073,7.0615577 C 239.46262,7.6026154 240.09539,8.506058 240.6056,9.7718881 C 240.80992,10.282107 240.98871,10.792308 241.14197,11.302494 C 241.2952,11.812711 241.41777,12.348453 241.50967,12.909723 C 241.60154,13.471021 241.66789,14.073264 241.70871,14.716454 C 241.7495,15.359669 241.7699,16.069061 241.76991,16.844631 L 241.76991,16.844631 z M 238.95259,16.844631 C 238.95258,16.272767 238.93731,15.752131 238.9068,15.282722 C 238.87626,14.813336 238.83546,14.379603 238.78439,13.98152 C 238.7333,13.583464 238.66695,13.200813 238.58535,12.833566 C 238.50374,12.466348 238.41185,12.098959 238.3097,11.7314 C 238.04431,10.812554 237.71258,10.14895 237.31452,9.7405845 C 236.91644,9.332254 236.41123,9.12808 235.79887,9.128062 C 234.53301,9.12808 233.66555,9.9753007 233.19646,11.669727 C 232.95101,12.445323 232.7825,13.226043 232.69093,14.01189 C 232.59936,14.797762 232.55357,15.762254 232.55357,16.905369 C 232.55357,17.456696 232.56883,17.962069 232.59936,18.421491 C 232.62988,18.88093 232.67068,19.30968 232.72177,19.707742 C 232.77285,20.105818 232.83919,20.498748 232.92081,20.886532 C 233.00241,21.274329 233.09429,21.672242 233.19646,22.080274 C 233.66555,23.77472 234.53301,24.621941 235.79887,24.621938 C 236.41123,24.621941 236.91644,24.417767 237.31452,24.009416 C 237.71258,23.601071 238.04431,22.958024 238.3097,22.080274 C 238.43179,21.672242 238.53379,21.279468 238.61572,20.90195 C 238.69763,20.524445 238.76398,20.131515 238.81476,19.72316 C 238.86552,19.314819 238.90118,18.88093 238.92175,18.421491 C 238.9423,17.962069 238.95258,17.43645 238.95259,16.844631 L 238.95259,16.844631 z M 244.36109,27.132767 L 244.36109,6.6172336 L 247.30083,6.6172336 L 247.30083,24.407953 L 254.80248,24.407953 L 254.80248,27.132767 L 244.36109,27.132767 z M 256.16675,27.132767 L 256.16675,6.6172336 L 259.04481,6.6172336 L 259.04481,27.132767 L 256.16675,27.132767 z M 271.32982,27.132767 L 264.99155,13.384416 L 264.99155,27.132767 L 262.05181,27.132767 L 262.05181,6.6172336 L 264.99155,6.6172336 L 270.62526,18.926553 L 270.62526,6.6172336 L 273.56499,6.6172336 L 273.56499,27.132767 L 271.32982,27.132767 z M 285.06229,27.132767 L 283.62326,21.528957 L 279.21365,21.528957 L 277.86713,27.132767 L 274.89656,27.132767 L 280.00979,6.6172336 L 282.88879,6.6172336 L 288.00202,27.132767 L 285.06229,27.132767 z M 281.38809,12.741524 L 279.94905,18.650895 L 282.88879,18.650895 L 281.38809,12.741524 z "
       id="text2312" />
    <use
       id="use2473"
       xlink:href="#state_outline"
       style="fill:#ffffff;stroke:#000000;stroke-width:309;stroke-linejoin:round"
       x="0"
       y="0"
       width="300"
       height="240"
       transform="translate(21495.929,-5155)" />
    <path
       style="opacity:1;fill:#ffffff;fill-opacity:1;stroke:none;stroke-width:0.16115817;stroke-linejoin:round"
       d="M 112.79131,4.248235 C 108.47566,6.777898 102.45488,8.274438 97.60224,10.141681 C 95.21437,12.132946 93.320746,14.76444 90.543656,18.848685 C 90.742026,22.209167 91.744909,24.028539 93.105459,25.445966 C 96.712099,27.498157 96.444244,27.632142 98.887395,29.436257 C 101.86656,31.636186 100.56072,30.025639 102.47931,32.481061 C 103.75178,34.109569 103.90348,35.947593 103.90348,35.947593 C 103.90348,35.947593 198.00342,40.586 198.00342,40.586 C 198.00342,40.586 172.76788,14.332748 172.76788,14.332748 C 172.76788,14.332748 152.50899,14.113062 152.50899,14.113062 C 152.50899,14.113062 148.41218,9.247038 148.41218,9.247038 C 148.41218,9.247038 148.55615,5.339146 148.55615,5.339146 C 148.55615,5.339146 112.79131,4.248235 112.79131,4.248235 z "
       id="path4763"
       sodipodi:nodetypes="ccccsscccsccc" />
    <path
       style="opacity:1;fill:#003882;fill-opacity:1;stroke:none;stroke-width:0.16115817;stroke-linejoin:round"
       d="M 114.96875 8 C 111.04578 10.299489 106.50832 11.457889 102 12.5625 C 99.575801 15.044366 93.29263 18.038866 96.375 22.28125 C 99.228107 23.332816 99.411511 23.860572 100.4375 25.1875 C 101.52652 26.595952 103.81463 27.000133 105.09375 27.6875 C 107.29165 32.40085 108.71105 37.982368 112.90625 41.34375 C 117.28903 43.535427 117.76386 48.685457 122.03125 50.65625 C 124.67967 53.314965 123.82582 56.801391 126.90625 58.875 C 128.68201 62.405202 133.75261 62.952838 133.625 67.71875 C 135.52804 70.463605 133.41988 75.383032 138.09375 76.5 C 141.71309 79.483091 138.11847 86.146448 141.125 88 C 141.88829 86.251657 142.11944 85.716718 142.15625 85.59375 C 142.85257 84.664719 142.12484 88.51499 144.40625 86.53125 C 144.53115 86.422647 145.01033 86.046721 145.21875 85.875 L 145.21875 76.03125 C 145.21875 64.75024 145.11355 63.64812 143.9375 62.15625 C 142.56306 60.41275 142.28218 59.45838 143.3125 60.09375 C 144.20624 60.64489 144.08249 59.54919 143.15625 58.625 C 142.58336 58.05335 142.59832 57.87501 143.15625 57.875 C 143.58973 57.875 143.73687 57.42842 143.5 56.8125 C 143.22594 56.09987 143.31039 55.9091 143.8125 56.21875 C 144.22323 56.47203 144.56249 56.37096 144.5625 56 C 144.5625 54.94676 143.21884 55.20511 142.28125 56.4375 C 141.81488 57.05052 141.41742 57.2354 141.40625 56.84375 C 141.39509 56.4521 140.41042 57.03482 139.21875 58.15625 C 138.02707 59.2777 136.57162 60.21875 136 60.21875 C 134.81915 60.21875 134.04367 57.85464 134.5625 55.875 C 134.84276 54.80563 134.6817 54.61557 133.6875 54.875 C 133.00915 55.05199 132.43751 54.94251 132.4375 54.625 C 132.4375 54.30749 132.09507 54.13118 131.65625 54.21875 C 130.81214 54.38721 130.73942 53.29295 131.46875 51.1875 C 131.79055 50.25848 131.44167 50.41898 130.1875 51.8125 C 129.19348 52.91699 128.62885 53.26928 128.84375 52.625 C 129.05067 52.00469 128.89914 51.5 128.5 51.5 C 128.10555 51.5 128.33123 50.88582 129 50.125 C 129.66877 49.3642 129.8708 48.9229 129.46875 49.15625 C 129.0667 49.38959 128.59641 49.18194 128.40625 48.6875 C 128.2161 48.19305 128.46433 47.63063 128.96875 47.4375 C 129.47318 47.24435 129.90626 46.57524 129.90625 45.96875 C 129.90625 45.11108 129.72075 45.06179 129.125 45.65625 C 128.04168 46.73719 127.14273 46.57902 127.59375 45.40625 C 127.81172 44.83945 127.70557 44.58937 127.34375 44.8125 C 126.99672 45.02652 126.68749 44.91279 126.6875 44.5625 C 126.6875 44.2122 127.01769 43.7396 127.40625 43.5 C 127.90113 43.19481 127.87292 42.89612 127.28125 42.53125 C 126.80659 42.23853 126.06238 42.33069 125.59375 42.71875 C 124.94056 43.25967 124.8637 43.1311 125.21875 42.1875 C 125.61916 41.12331 125.5451 41.10282 124.59375 41.875 C 123.67037 42.62446 123.5 42.59045 123.5 41.75 C 123.5 41.21088 124.2733 40.21845 125.21875 39.53125 C 126.83752 38.35464 126.89819 38.20847 125.875 37.1875 C 125.2774 36.5912 124.97443 35.80071 125.21875 35.40625 C 126.29288 33.67206 127.61031 32.49511 128.125 32.8125 C 128.8012 33.22951 131.27092 30.53342 130.84375 29.84375 C 130.41983 29.15933 132.25239 28.52693 133.40625 28.96875 C 133.93284 29.17039 134.37499 29.02373 134.375 28.625 C 134.375 28.19384 135.24735 27.94288 136.5625 28.03125 C 139.08011 28.20043 140.20338 27.50269 138.8125 26.625 C 138.11956 26.18774 138.10214 26.03844 138.71875 26.03125 C 139.17829 26.02589 139.37073 25.75252 139.15625 25.40625 C 138.92198 25.02801 139.2153 24.92894 139.90625 25.1875 C 140.92241 25.56776 140.97217 25.49354 140.1875 24.53125 C 139.41501 23.58393 139.40371 23.50774 140.28125 23.84375 C 140.90841 24.08389 141.60872 23.73116 142.125 22.90625 C 142.62779 22.102905 143.47979 21.676069 144.28125 21.625 C 145.08271 21.573931 145.83365 21.89863 146.125 22.65625 C 146.48632 23.59574 146.64722 23.6156 147.15625 22.8125 C 147.6766 21.99149 147.75491 22.0071 147.78125 22.84375 C 147.80472 23.58933 148.01255 23.52424 148.71875 22.59375 C 149.55542 21.49132 149.69354 21.47691 150.65625 22.4375 C 151.22889 23.0089 152.02696 23.29225 152.4375 23.0625 C 152.92424 22.79008 152.92656 22.94068 152.40625 23.5 C 150.97869 25.03464 151.90788 25.7836 153.84375 24.65625 C 155.17431 23.8814 158.07606 23.43517 157.6875 24.0625 C 157.47272 24.40926 157.89036 25.01394 158.625 25.40625 C 159.65005 25.95365 159.79525 26.31319 159.25 26.96875 C 158.79843 27.51167 158.79015 27.97372 159.1875 28.21875 C 159.53135 28.4308 159.99825 28.29351 160.21875 27.9375 C 160.43926 27.58149 160.89893 27.31251 161.25 27.3125 C 161.60105 27.3125 161.67612 27.61475 161.4375 28 C 161.13577 28.48716 161.4244 28.4764 162.375 27.96875 C 164.18927 26.99991 165.42839 27.78594 163.90625 28.9375 C 163.18159 29.48571 163.07918 29.79978 163.59375 29.8125 C 164.2428 29.82852 164.25467 30.14743 163.65625 31.28125 C 163.24029 32.06942 162.57376 32.93015 162.1875 33.1875 C 161.80122 33.44485 162.84895 33.65089 164.5 33.65625 C 168.06885 33.66784 170.75001 34.76391 170.75 36.1875 C 170.75 37.48721 166.89473 39.59654 165.5 39.0625 C 164.92283 38.8415 163.91691 38.97867 163.28125 39.375 C 162.2544 40.01521 162.28656 40.06683 163.5625 39.71875 C 164.4001 39.49027 165.00001 39.60352 165 40 C 165 40.3739 165.40039 40.6875 165.90625 40.6875 C 166.41214 40.6875 167.00429 40.96621 167.21875 41.3125 C 167.45149 41.68824 167.15517 41.77861 166.46875 41.53125 C 165.74703 41.27115 166.0172 41.78659 167.21875 42.9375 C 168.84327 44.49352 168.98589 44.80643 168.03125 45 C 166.99189 45.21076 166.98972 45.34718 168.21875 46.90625 C 169.64759 48.71875 168.88875 49.6847 167.15625 48.25 C 166.31101 47.55005 166.19084 47.60085 166.375 48.65625 C 166.50329 49.39137 166.28569 49.84442 165.8125 49.75 C 165.37367 49.66243 165.00001 49.91028 165 50.28125 C 165 50.65222 164.72606 50.779 164.375 50.5625 C 164.02394 50.346 163.71875 50.63516 163.71875 51.21875 C 163.71875 51.95427 163.40573 52.16198 162.65625 51.875 C 161.70857 51.51213 161.71563 51.6095 162.75 52.75 C 163.3991 53.46567 163.71042 54.0625 163.4375 54.0625 C 163.16458 54.0625 163.26246 54.45773 163.6875 54.96875 C 164.83672 56.35046 161.73101 56.97527 158.46875 56 C 156.20325 55.32273 155.7948 55.33436 155.28125 56.25 C 154.73431 57.22517 154.55839 57.228 153.0625 56.25 C 151.89724 55.48815 151.25476 55.40257 150.75 55.90625 C 150.24523 56.4099 150.37524 56.59375 151.1875 56.59375 C 151.80503 56.59375 152.13592 56.86713 151.9375 57.1875 C 151.73906 57.50788 151.93398 57.91537 152.375 58.09375 C 153.00065 58.34685 152.9914 58.55662 152.3125 59.03125 C 151.57791 59.54483 151.5779 59.68212 152.3125 59.9375 C 152.98714 60.17204 152.89605 60.54616 151.90625 61.65625 C 150.77402 62.92604 150.61983 64.17818 150.4375 72.59375 C 150.35351 76.470815 150.42764 79.673815 150.59375 81.15625 C 151.11208 80.631039 151.57973 80.102405 151.90625 79.65625 C 153.7341 77.158709 152.81237 76.091209 152.84375 75.65625 C 155.57516 75.761265 156.21787 75.860234 157 75.75 C 158.54245 75.532603 158.88708 74.592403 160.375 73.375 C 160.96275 72.784979 161.79205 73.388198 163.21875 72.5625 C 166.14962 70.866272 165.49949 70.507553 165.40625 69.625 C 165.30749 68.69007 164.61971 68.447544 164.65625 68.34375 C 164.96321 67.47191 165.82843 68.504492 166.3125 69.46875 C 169.12212 68.959603 169.19937 67.374125 170.125 66.375 C 170.89441 65.544501 170.56215 64.520268 171.40625 63.78125 C 172.25037 63.042234 173.57108 63.451995 174.28125 62.90625 C 175.70158 61.814759 176.30666 61.734877 177.34375 60.875 C 179.4179 59.15525 178.54388 60.222869 179.53125 58.96875 C 181.50601 56.460509 178.55768 56.680062 178.59375 56.21875 C 178.69656 54.903769 181.89305 51.918958 183.8125 49.34375 C 186.49355 44.914816 189.76221 44.616076 193.4375 41.65625 C 186.15275 33.608614 178.22327 26.158927 170.53125 18.5 C 162.86344 18.451706 155.13659 18.136541 147.46875 18.09375 C 149.2882 14.116336 144.59017 10.21157 143.03125 11.34375 C 142.51691 9.6786984 143.4533 9.008747 140.8125 8.8125 C 140.8125 8.8124996 132.03125 8.71875 132.03125 8.71875 C 132.03126 8.7187501 114.96875 8 114.96875 8 z M 119.375 14.59375 C 119.65024 14.50455 120.48707 14.96463 121.5 15.90625 C 125.73181 19.84017 124.50748 27.41485 119.28125 29.59375 C 116.87099 30.59862 114.66334 30.72042 113.375 29.90625 C 112.72433 29.49505 113.01692 29.22443 114.46875 28.90625 C 120.43411 27.5989 123.67617 19.86894 119.96875 15.78125 C 119.31301 15.05825 119.16093 14.66313 119.375 14.59375 z M 193.71875 41.625 C 193.67205 42.22368 194.44509 41.953972 193.71875 41.625 z "
       id="Abbeville" />
  </g>
</svg>
