<?xml version="1.0" encoding="utf-8"?>
<!-- Generator: Adobe Illustrator 12.0.0, SVG Export Plug-In . SVG Version: 6.00 Build 51448)  -->
<!DOCTYPE svg PUBLIC "-//W3C//DTD SVG 1.1//EN" "http://www.w3.org/Graphics/SVG/1.1/DTD/svg11.dtd" [
	<!ENTITY ns_svg "http://www.w3.org/2000/svg">
	<!ENTITY ns_xlink "http://www.w3.org/1999/xlink">
]>
<svg  version="1.1" id="Layer_1" xmlns="&ns_svg;" xmlns:xlink="&ns_xlink;" width="384" height="384" viewBox="0 0 384 384"
	 overflow="visible" enable-background="new 0 0 384 384" xml:space="preserve">
<g>
	<g>
		<path d="M0,24C0,10.7446289,10.7451172,0,24,0h336c13.2548828,0,24,10.7446289,24,24v336c0,13.2548828-10.7451172,24-24,24H24
			c-13.2548828,0-24-10.7451172-24-24V24L0,24z"/>
		<path d="M192,192"/>
	</g>
	<g>
		<polygon fill="#FFFFFF" points="24,24 360,24 360,360 24,360 24,24 		"/>
		<path fill="#FFFFFF" d="M192,192"/>
	</g>
	<g>
		<polygon fill-rule="evenodd" clip-rule="evenodd" points="89.418457,265.7753906 89.418457,318.8935547 79.6435547,318.8935547 
			79.6435547,265.7753906 65.5341797,265.7753906 65.5341797,257.1074219 103.7124023,257.1074219 103.7124023,265.7753906 		"/>
		<polygon fill-rule="evenodd" clip-rule="evenodd" points="116.5371094,318.8935547 116.5371094,257.1074219 
			152.9633789,257.1074219 152.9633789,266.8818359 126.3120117,266.8818359 126.3120117,282.0058594 144.2949219,282.0058594 
			144.2949219,291.9648438 126.3120117,291.9648438 126.3120117,308.9335938 154.9003906,308.9335938 154.9003906,318.8935547 		"/>
		<polygon fill-rule="evenodd" clip-rule="evenodd" points="195.5732422,318.8935547 185.6142578,298.328125 
			175.6542969,318.8935547 164.5878906,318.8935547 179.9882813,286.9863281 165.6943359,257.1074219 176.7607422,257.1074219 
			185.6142578,275.5507813 194.4667969,257.1074219 205.5332031,257.1074219 191.0546875,286.9863281 206.6396484,318.8935547 		"/>
		<path fill-rule="evenodd" clip-rule="evenodd" d="M257.2626953,318.8935547l-6.0869141-17.3369141h-19.2734375
			l-6.0859375,17.3369141h-10.4208984l21.3027344-61.7861328h9.6826172l21.3027344,61.7861328H257.2626953z
			 M241.6777344,274.2597656l-6.3632813,17.3369141h12.3574219L241.6777344,274.2597656z"/>
		<path fill-rule="evenodd" clip-rule="evenodd" d="M318.4658203,301.0957031c0,2.828125-0.5224609,5.4394531-1.5673828,7.8378906
			s-2.5507813,4.4882813-4.5185547,6.2714844c-1.7216797,1.5371094-3.7353516,2.7207031-6.0410156,3.5498047
			C304.0341797,319.5849609,301.5595703,320,298.9160156,320c-5.3486328,0-9.9140625-1.4296875-13.6953125-4.2880859
			c-3.7802734-2.8583984-6.7158203-6.6552734-8.8066406-11.3896484l9.3144531-3.4121094
			c1.2910156,2.9511719,3.0742188,5.2109375,5.3486328,6.7792969c2.2744141,1.5673828,4.8876953,2.3515625,7.8388672,2.3515625
			c2.8886719,0,5.2099609-0.8769531,6.9619141-2.6289063c1.7529297-1.7519531,2.6279297-3.9199219,2.6279297-6.5019531
			c0-2.0283203-0.5371094-3.6875-1.6132813-4.9794922c-1.0761719-1.2900391-2.4746094-2.3818359-4.1962891-3.2734375
			s-3.6113281-1.6748047-5.6708984-2.3515625s-4.1035156-1.4140625-6.1328125-2.2138672
			c-0.921875-0.3681641-2.0595703-0.890625-3.4121094-1.5673828s-2.6591797-1.6142578-3.9199219-2.8125
			c-1.2597656-1.1992188-2.3359375-2.6904297-3.2265625-4.4726563c-0.8916016-1.7822266-1.3378906-3.9658203-1.3378906-6.5478516
			c0-3.0117188,0.4921875-5.5791016,1.4755859-7.7001953c0.9833984-2.1201172,2.3212891-3.8427734,4.0117188-5.1640625
			s3.7197266-2.2900391,6.0869141-2.9052734C292.9365234,256.3076172,295.5039063,256,298.2695313,256
			c4.3652344,0,8.0078125,1.1376953,10.9287109,3.4121094c2.9199219,2.2753906,5.1494141,5.3486328,6.6865234,9.2216797
			l-8.6699219,2.5830078c-0.4912109-0.984375-1.1367188-1.8759766-1.9355469-2.6748047
			c-0.6767578-0.6767578-1.6142578-1.2910156-2.8134766-1.8447266c-1.1982422-0.5527344-2.6591797-0.8603516-4.3798828-0.921875
			c-1.1074219-0.0615234-2.2597656,0.015625-3.4589844,0.2304688c-1.1982422,0.2148438-2.2587891,0.5996094-3.1806641,1.1523438
			c-0.9228516,0.5537109-1.6601563,1.3066406-2.2138672,2.2597656c-0.5527344,0.953125-0.7685547,2.1367188-0.6455078,3.5507813
			c0.1230469,1.9052734,0.953125,3.3652344,2.4902344,4.3798828s3.4121094,1.890625,5.625,2.6279297
			c2.2138672,0.7382813,4.5957031,1.4912109,7.1474609,2.2597656c2.5507813,0.7685547,4.9023438,1.875,7.0546875,3.3203125
			c2.1523438,1.4443359,3.9492188,3.3808594,5.3945313,5.8085938
			C317.7441406,293.7949219,318.4658203,297.0371094,318.4658203,301.0957031z"/>
	</g>
</g>
<g>
	<path fill-rule="evenodd" clip-rule="evenodd" d="M124.796875,205.5097656V92.8417969h-12.6572266v-17.637207h1.4521484
		c2.9052734,0,5.8095703-0.7607422,8.7148438-2.2822266c2.9047852-1.5214844,5.3256836-3.6655273,7.262207-6.4321289h17.637207
		v139.0195313H124.796875z"/>
	<path fill-rule="evenodd" clip-rule="evenodd" d="M271.8603516,165.4638672c0,5.9482422-1.2099609,11.5161133-3.6308594,16.703125
		c-2.4208984,5.1875-5.7412109,9.6831055-9.9599609,13.4873047c-4.21875,3.8046875-9.2333984,6.8125-15.0429688,9.0253906
		C237.4160156,206.8935547,231.1914063,208,224.5517578,208s-12.8642578-1.140625-18.6738281-3.4238281
		c-5.8095703-2.2822266-10.8242188-5.4296875-15.043457-9.4404297c-4.2192383-4.0117188-7.5385742-8.7148438-9.9594727-14.1098633
		c-2.4208984-5.3945313-3.6313477-11.2045898-3.6313477-17.4291992c0-9.6831055,1.2797852-19.296875,3.8383789-28.8417969
		c2.5595703-9.5444336,6.1904297-18.6738281,10.8935547-27.3891602c4.703125-8.7143555,10.3398438-16.7719727,16.9111328-24.1723633
		C215.4570313,75.7924805,222.7539063,69.3950195,230.7773438,64l11.2041016,18.6743164
		c-4.2880859,3.3198242-8.0576172,6.5361328-11.3085938,9.6484375s-6.2246094,6.3286133-8.921875,9.6484375
		s-5.1533203,6.8125-7.3662109,10.4785156c-2.2128906,3.6655273-4.3574219,7.7119141-6.4316406,12.1381836
		c4.0107422-0.6914063,7.0888672-1.1064453,9.2324219-1.2451172c2.1445313-0.1381836,4.5996094-0.2070313,7.3662109-0.2070313
		c6.3632813,0,12.4150391,1.1064453,18.15625,3.3198242c5.7402344,2.2133789,10.7890625,5.2216797,15.1464844,9.0258789
		s7.78125,8.2993164,10.2705078,13.4868164C270.6152344,154.1557617,271.8603516,159.6542969,271.8603516,165.4638672z
		 M249.8662109,165.0488281c0-2.6279297-0.6572266-5.1870117-1.9716797-7.6772461
		c-1.3134766-2.4897461-3.1113281-4.6337891-5.3945313-6.4321289c-2.2822266-1.7983398-4.9794922-3.2504883-8.0917969-4.3574219
		c-3.1123047-1.1064453-6.3984375-1.659668-9.8564453-1.659668s-6.6738281,0.5532227-9.6484375,1.659668
		c-2.9736328,1.1069336-5.6025391,2.559082-7.8837891,4.3574219c-2.2832031,1.7983398-4.0810547,3.9423828-5.3955078,6.4321289
		c-1.3134766,2.4902344-1.9707031,5.0493164-1.9707031,7.6772461c0,2.7666016,0.6572266,5.3950195,1.9707031,7.8847656
		c1.3144531,2.4902344,3.1123047,4.6689453,5.3955078,6.5361328c2.28125,1.8676758,4.9101563,3.3544922,7.8837891,4.4614258
		c2.9746094,1.1064453,6.1904297,1.659668,9.6484375,1.659668s6.7089844-0.5532227,9.7529297-1.659668
		c3.0429688-1.1069336,5.7050781-2.59375,7.9882813-4.4614258c2.2822266-1.8671875,4.1152344-4.0458984,5.4980469-6.5361328
		C249.1748047,170.4438477,249.8662109,167.8154297,249.8662109,165.0488281z"/>
</g>
</svg>
