<?xml version="1.0" encoding="utf-8"?>
<!-- Generator: Adobe Illustrator 12.0.0, SVG Export Plug-In . SVG Version: 6.00 Build 51448)  -->
<!DOCTYPE svg PUBLIC "-//W3C//DTD SVG 1.1//EN" "http://www.w3.org/Graphics/SVG/1.1/DTD/svg11.dtd" [
	<!ENTITY ns_svg "http://www.w3.org/2000/svg">
	<!ENTITY ns_xlink "http://www.w3.org/1999/xlink">
]>
<svg  version="1.1" id="Layer_1" xmlns="&ns_svg;" xmlns:xlink="&ns_xlink;" width="385" height="385" viewBox="0 0 385 385"
	 overflow="visible" enable-background="new 0 0 385 385" xml:space="preserve">
<g>
	<g>
		<g>
			<path fill="#FFFFFF" d="M0.5,24.5c0-13.2548828,10.7451172-24,24-24h336c13.2548828,0,24,10.7451172,24,24v336
				c0,13.2548828-10.7451172,24-24,24h-336c-13.2548828,0-24-10.7451172-24-24V24.5L0.5,24.5z"/>
			<path fill="#FFFFFF" d="M192.5,192.5"/>
		</g>
		<g>
			<path fill="none" stroke="#000000" stroke-linecap="round" stroke-linejoin="round" stroke-miterlimit="3.863693" d="M0.5,24.5
				c0-13.2548828,10.7451172-24,24-24h336c13.2548828,0,24,10.7451172,24,24v336c0,13.2548828-10.7451172,24-24,24h-336
				c-13.2548828,0-24-10.7451172-24-24V24.5L0.5,24.5z"/>
			<path fill="none" stroke="#000000" stroke-linecap="round" stroke-linejoin="round" stroke-miterlimit="3.863693" d="
				M192.5,192.5"/>
		</g>
	</g>
	<g>
		<g>
			<path d="M4.5,24.5c0-11.0458984,8.9541016-20,20-20h336c11.0458984,0,20,8.9541016,20,20v336c0,11.0458984-8.9541016,20-20,20
				h-336c-11.0458984,0-20-8.9541016-20-20V24.5L4.5,24.5z"/>
			<path d="M192.5,192.5"/>
		</g>
	</g>
	<g>
		<path fill="#FFFFFF" d="M166.9277344,57.7758789C169.1494141,45.671875,179.7539063,36.5,192.5,36.5
			s23.3505859,9.171875,25.5722656,21.2758789C210.6503906,61.4013672,201.90625,63.5,192.5,63.5
			S174.3496094,61.4013672,166.9277344,57.7758789z"/>
	</g>
	<g>
		<path fill-rule="evenodd" clip-rule="evenodd" fill="#FFFFFF" d="M192.5,264.5c-17.6733398,0-32,14.3271484-32,32
			l0.0117188,0.8691406c-43.2016602-3.0839844-82.3466797-12.3222656-114.2084961-25.8476563
			c-1.1484375-0.4873047-2.2875977-0.9804688-3.4169922-1.4794922C36.6958008,266.6425781,32.5,260.0615234,32.5,252.5
			c0-7.5078125,4.137207-14.0498047,10.2558594-17.4707031C38.9033203,231.3847656,36.5,226.2226563,36.5,220.5
			c0-9.140625,6.1323242-16.8496094,14.5078125-19.2363281C47.0083008,197.6064453,44.5,192.3466797,44.5,186.5
			c0-11.0458984,8.9541016-20,20-20c-2.5117188-3.3427734-4-7.4960938-4-12c0-11.0458984,8.9541016-20,20-20
			c0.9462891,0,1.8769531,0.065918,2.7885742,0.1933594C81.5170898,131.7080078,80.5,128.2226563,80.5,124.5
			c0-11.0458984,8.9541016-20,20-20c2.8837891,0,5.625,0.6103516,8.1015625,1.7089844
			C106.0283203,103.5166016,104.5,100.1508789,104.5,96.5c0-8.8369141,8.9541016-16,20-16
			c3.0283203,0,5.8984375,0.5380859,8.4707031,1.5019531l1.2753906,0.5229492C151.5556641,89.5263672,171.4233398,93.5,192.5,93.5
			c21.0761719,0,40.9443359-3.9736328,58.2539063-10.9750977l1.2753906-0.5229492
			C254.6015625,81.0380859,257.4726563,80.5,260.5,80.5c11.0458984,0,20,7.1630859,20,16
			c0,3.6508789-1.5283203,7.0166016-4.1015625,9.7089844C278.875,105.1103516,281.6162109,104.5,284.5,104.5
			c11.0458984,0,20,8.9541016,20,20c0,3.7226563-1.0175781,7.2080078-2.7890625,10.1933594
			C302.6230469,134.565918,303.5537109,134.5,304.5,134.5c11.0458984,0,20,8.9541016,20,20c0,4.5039063-1.4882813,8.6572266-4,12
			c11.0458984,0,20,8.9541016,20,20c0,5.8466797-2.5078125,11.1064453-6.5078125,14.7636719
			C342.3671875,203.6503906,348.5,211.359375,348.5,220.5c0,5.7226563-2.4033203,10.8847656-6.2558594,14.5292969
			C348.3632813,238.4501953,352.5,244.9921875,352.5,252.5c0,7.5615234-4.1953125,14.1425781-10.3867188,17.5419922
			c-1.1289063,0.4990234-2.2675781,0.9921875-3.4169922,1.4794922
			c-31.8613281,13.5253906-71.0068359,22.7636719-114.2080078,25.8476563L224.5,296.5
			C224.5,278.8271484,210.1738281,264.5,192.5,264.5z"/>
	</g>
	<g>
		<path fill-rule="evenodd" clip-rule="evenodd" fill="#FFFFFF" d="M192.5,91.5
			c-3.8662109,0-7.6879883-0.1347656-11.4570313-0.3974609c-18.3183594-1.2768555-35.3896484-5.5849609-50.2939453-12.2177734
			C132.5087891,66.2363281,143.3671875,56.5,156.5,56.5c1.6435547,0,3.2519531,0.1523438,4.8115234,0.4443359
			c3.5493164,2.2050781,7.4677734,4.0410156,11.6621094,5.4394531C179.0019531,64.3935547,185.6020508,65.5,192.5,65.5
			c6.8984375,0,13.4980469-1.1064453,19.5263672-3.1162109c4.1943359-1.3984375,8.1123047-3.234375,11.6621094-5.4394531
			C225.2480469,56.6523438,226.8564453,56.5,228.5,56.5c13.1328125,0,23.9912109,9.7363281,25.7509766,22.3847656
			c-14.9042969,6.6328125-31.9755859,10.940918-50.2939453,12.2177734C200.1875,91.3652344,196.3662109,91.5,192.5,91.5z"/>
	</g>
	<g>
		<path fill-rule="evenodd" clip-rule="evenodd" fill="#FFFFFF" d="M16.5,332.5v-40h48l-44.3076172-1.8457031l28.0419922-14.0214844
			C88.1591797,292.8935547,138.375,302.5,192.5,302.5s104.3408203-9.6064453,144.265625-25.8671875l28.0419922,14.0214844
			L320.5,292.5h48v40H16.5z"/>
	</g>
</g>
<g>
	<path fill-rule="evenodd" clip-rule="evenodd" d="M96.9858398,250.2871094
		c0.2456055-7.2548828,1.168457-13.8945313,2.7666016-19.9199219c1.5986328-6.0244141,4.1191406-11.9882813,7.5620117-17.890625
		c2.5820313-4.671875,5.7792969-9.0058594,9.5908203-13.0019531s7.8691406-7.5927734,12.1728516-10.7900391
		c1.1064453-0.6147461,2.090332-1.2602539,2.9511719-1.9365234c0.8603516-0.6762695,1.7211914-1.3217773,2.5820313-1.9365234
		l6.6396484-3.5048828l6.0864258-3.5039063l5.9018555-3.3198242c2.4594727-1.5986328,4.4575195-3.5966797,5.9941406-5.9946289
		c1.5371094-2.3974609,2.3056641-4.887207,2.3056641-7.4697266c0-2.3359375-0.6147461-4.5185547-1.8442383-6.5473633
		s-2.8588867-3.7807617-4.8876953-5.2563477s-4.3959961-2.6435547-7.1010742-3.5043945s-5.5942383-1.2910156-8.6679688-1.2910156
		c-6.2714844,0-11.3432617,1.4750977-15.2167969,4.4262695c-3.8730469,2.9511719-6.3012695,7.2548828-7.2851563,12.9111328
		l-19.550293-4.2421875c2.090332-10.3286133,6.8857422-18.4130859,14.3862305-24.2539063
		C118.8725586,127.4204102,128.0947266,124.5,139.0380859,124.5c5.9013672,0,11.4042969,0.9838867,16.5068359,2.9511719
		s9.5292969,4.6103516,13.2792969,7.9306641c3.7504883,3.3203125,6.7324219,7.2236328,8.9453125,11.7119141
		c2.2138672,4.4882813,3.3203125,9.2529297,3.3203125,14.2939453c0,4.7949219-1.0761719,9.4985352-3.2275391,14.109375
		c-2.1523438,4.6113281-5.2568359,8.6992188-9.3144531,12.265625c-0.9833984,0.7373047-1.875,1.4140625-2.6743164,2.0283203
		c-0.7993164,0.6152344-1.6293945,1.1064453-2.4897461,1.4755859l-6.0869141,3.8730469l-6.6396484,3.5048828l-6.0864258,3.5039063
		c-2.9506836,1.7216797-5.5639648,3.5351563-7.8383789,5.4414063c-2.2749023,1.9052734-4.3652344,3.9648438-6.2709961,6.1777344
		c-1.9057617,2.2138672-3.6889648,4.6728516-5.3491211,7.3779297c-1.659668,2.7050781-3.2275391,5.7792969-4.703125,9.2216797
		h60.6806641v19.9199219H96.9858398z"/>
	<path fill-rule="evenodd" clip-rule="evenodd" d="M276.2099609,219.4853516v30.8017578H256.84375v-30.8017578h-61.2333984
		v-11.6201172l61.2333984-81.1518555h19.3662109v75.065918h11.8037109v17.7060547H276.2099609z M256.84375,155.3012695
		l-35.2275391,46.4780273H256.84375V155.3012695z"/>
</g>
</svg>
