<?xml version="1.0" encoding="UTF-8" standalone="no"?>
<!-- Created with Inkscape (http://www.inkscape.org/) -->

<svg
   xmlns:dc="http://purl.org/dc/elements/1.1/"
   xmlns:cc="http://creativecommons.org/ns#"
   xmlns:rdf="http://www.w3.org/1999/02/22-rdf-syntax-ns#"
   xmlns:svg="http://www.w3.org/2000/svg"
   xmlns="http://www.w3.org/2000/svg"
   xmlns:inkscape="http://www.inkscape.org/namespaces/inkscape"
   version="1.1"
   width="600"
   height="600"
   id="svg2">
  <defs
     id="defs12" />
  <metadata
     id="metadata7">
    <rdf:RDF>
      <cc:Work
         rdf:about="">
        <dc:format>image/svg+xml</dc:format>
        <dc:type
           rdf:resource="http://purl.org/dc/dcmitype/StillImage" />
        <dc:title />
      </cc:Work>
    </rdf:RDF>
  </metadata>
  <g
     transform="translate(0,-452.36)"
     id="layer1">
    <rect
       width="600"
       height="600"
       rx="37.5"
       ry="37.5"
       x="0"
       y="452.35999"
       id="rect7" />
    <path
       d="M 91.656,464.87 C 47.624,465.98 12.5,501.81 12.5,546.12 V 684.88 C 12.63,859.26 135.88,1005.1 300,1039.6 464.22,1005 587.5,859.37 587.5,684.88 V 546.12 c 0,-45.012 -36.238,-81.25 -81.25,-81.25 H 93.75 c -0.70332,0 -1.3948,-0.0176 -2.0938,0 z"
       inkscape:connector-curvature="0"
       id="path9"
       style="fill:#ffffff" />
    <g
       id="routenum">
      <path
         d="m 245.15,780.04 v 72.321 H 202.293 V 780.04 H 78.183 v -30.357 l 124.11,-196.43 h 42.857 v 186.61 h 17.857 v 40.179 H 245.15 m -42.857,-152.23 -71.429,112.05 h 71.429 v -112.05"
         inkscape:connector-curvature="0"
         id="path2990" />
      <path
         d="m 503.96,702.36 c -2e-4,22.917 -1.3395,42.411 -4.0178,58.482 -2.3812,16.072 -6.6966,31.25 -12.946,45.536 -7.4407,17.857 -16.816,30.952 -28.125,39.286 -11.012,8.0357 -25,12.054 -41.964,12.054 -17.857,-10e-6 -32.441,-4.0179 -43.75,-12.054 -11.012,-8.3333 -20.238,-21.429 -27.679,-39.286 -6.25,-14.583 -10.714,-29.762 -13.393,-45.536 -2.381,-16.071 -3.5715,-35.565 -3.5714,-58.482 -3e-5,-22.619 1.1904,-41.964 3.5714,-58.036 2.6785,-16.369 7.1428,-31.696 13.393,-45.982 7.738,-17.857 17.113,-30.654 28.125,-38.393 11.309,-8.0354 25.744,-12.053 43.304,-12.054 17.262,3e-4 31.399,4.0182 42.411,12.054 11.012,7.7384 20.238,20.834 27.679,39.286 2.976,7.4407 5.5058,14.881 7.5893,22.321 2.3808,7.4407 4.1665,15.328 5.3572,23.661 1.4879,8.0359 2.5296,16.816 3.125,26.339 0.59503,9.2264 0.89265,19.494 0.89285,30.804 m -41.071,0 c -1.7e-4,-8.3332 -0.29778,-15.922 -0.89286,-22.768 -0.29778,-6.8451 -0.89302,-13.095 -1.7857,-18.75 -0.59539,-5.9522 -1.4882,-11.607 -2.6786,-16.964 -1.1906,-5.3569 -2.5299,-10.714 -4.0178,-16.071 -3.8692,-13.393 -8.7799,-23.065 -14.732,-29.018 -5.6549,-5.9521 -12.947,-8.9283 -21.875,-8.9286 -18.452,2.6e-4 -31.101,12.351 -37.946,37.054 -3.5715,11.31 -6.1013,22.768 -7.5893,34.375 -1.1905,11.31 -1.7858,25.298 -1.7857,41.964 -7e-5,8.0359 0.14874,15.476 0.44643,22.321 0.59516,6.5477 1.1904,12.798 1.7857,18.75 0.89279,5.6549 1.9344,11.31 3.125,16.964 1.1904,5.6548 2.5297,11.458 4.0179,17.411 6.8452,24.702 19.494,37.054 37.946,37.054 8.9284,4e-5 16.22,-2.9762 21.875,-8.9286 5.9522,-5.9523 10.863,-15.327 14.732,-28.125 1.7856,-5.9523 3.2736,-11.607 4.4643,-16.964 1.1903,-5.6547 2.0832,-11.458 2.6786,-17.411 0.8927,-5.9523 1.4879,-12.202 1.7857,-18.75 0.29745,-6.8451 0.44626,-14.583 0.44643,-23.214"
         inkscape:connector-curvature="0"
         id="path2992" />
    </g>
  </g>
</svg>
