<?xml version="1.0" encoding="utf-8"?>
<!-- Generator: Adobe Illustrator 12.0.0, SVG Export Plug-In . SVG Version: 6.00 Build 51448)  -->
<!DOCTYPE svg PUBLIC "-//W3C//DTD SVG 1.1//EN" "http://www.w3.org/Graphics/SVG/1.1/DTD/svg11.dtd" [
	<!ENTITY ns_svg "http://www.w3.org/2000/svg">
	<!ENTITY ns_xlink "http://www.w3.org/1999/xlink">
]>
<svg  version="1.1" id="Layer_1" xmlns="&ns_svg;" xmlns:xlink="&ns_xlink;" width="384" height="384" viewBox="0 0 384 384"
	 overflow="visible" enable-background="new 0 0 384 384" xml:space="preserve">
<g>
	<g>
		<path fill="#006B54" d="M0,24C0,10.7446289,10.7451172,0,24,0h336c13.2548828,0,24,10.7446289,24,24v336
			c0,13.2548828-10.7451172,24-24,24H24c-13.2548828,0-24-10.7451172-24-24V24L0,24z"/>
		<path fill="#006B54" d="M192,192"/>
	</g>
	<path fill="#FFFFFF" d="M16,248c0-42.5488281,15.0976563-81.5698242,40.2285156-112h271.5429688
		C352.9023438,166.4301758,368,205.4511719,368,248s-15.0976563,81.5703125-40.2285156,112H56.2285156
		C31.0976563,329.5703125,16,290.5488281,16,248z"/>
	<g>
		<path fill="#FFFFFF" d="M16,40c0-8.8364258,7.1630859-16,16-16h320c8.8369141,0,16,7.1635742,16,16v64
			c0,8.8369141-7.1630859,16-16,16H32c-8.8369141,0-16-7.1630859-16-16V40L16,40z"/>
		<path fill="#FFFFFF" d="M192,72"/>
	</g>
	<g>
		<polygon fill-rule="evenodd" clip-rule="evenodd" fill="#006B54" points="59.1147461,102.8935547 52.3828125,102.8935547 
			36.7978516,41.1069336 45.7431641,41.1069336 55.887207,81.222168 66.1235352,41.1069336 74.9765625,41.1069336 		"/>
		<polygon fill-rule="evenodd" clip-rule="evenodd" fill="#006B54" points="83.5517578,102.8935547 83.5517578,41.1069336 
			112.6005859,41.1069336 112.6005859,49.7753906 92.4042969,49.7753906 92.4042969,65.3603516 105.2231445,65.3603516 
			105.2231445,73.8447266 92.4042969,73.8447266 92.4042969,94.2250977 114.9980469,94.2250977 114.9980469,102.8935547 		"/>
		<path fill-rule="evenodd" clip-rule="evenodd" fill="#006B54" d="M151.0546875,102.8935547l-8.2075195-29.0488281h-8.4838867
			v29.0488281h-8.8535156V41.1069336h18.4438477c2.3979492,0,4.5957031,0.3994141,6.59375,1.1987305
			s3.7197266,1.9057617,5.1645508,3.3198242c1.4443359,1.4140625,2.5512695,3.1508789,3.3198242,5.2104492
			c0.7680664,2.0595703,1.1523438,4.3188477,1.152832,6.777832c0,3.6889648-0.7382813,6.824707-2.2133789,9.4067383
			c-1.4755859,2.5820313-3.6889648,4.4262695-6.6401367,5.5327148l8.8535156,30.340332H151.0546875z M151.515625,57.6137695
			c0-2.3974609-0.7373047-4.3032227-2.2128906-5.7172852s-3.4121094-2.1210938-5.8100586-2.1210938h-9.1293945v15.5849609h9.1293945
			c2.5820313,0,4.5649414-0.6606445,5.9482422-1.9829102C150.8242188,62.0556641,151.515625,60.1347656,151.515625,57.6137695z"/>
		<polygon fill-rule="evenodd" clip-rule="evenodd" fill="#006B54" points="202.5117188,102.8935547 202.5117188,68.21875 
			191.0766602,102.8935547 179.5493164,68.21875 179.5493164,102.8935547 170.6962891,102.8935547 170.6962891,41.1069336 
			179.5493164,41.1069336 191.0766602,75.7807617 202.5117188,41.1069336 211.4570313,41.1069336 211.4570313,102.8935547 		"/>
		<path fill-rule="evenodd" clip-rule="evenodd" fill="#006B54" d="M260.0097656,71.9077148
			c0,4.734375-0.2617188,8.7612305-0.7832031,12.0810547c-0.5234375,3.3198242-1.4296875,6.4550781-2.7207031,9.40625
			c-1.5371094,3.6889648-3.4589844,6.378418-5.7636719,8.0688477C248.4365234,103.1547852,245.53125,104,242.0273438,104
			c-3.6894531,0-6.6855469-0.8452148-8.9912109-2.5361328c-2.3056641-1.6904297-4.2275391-4.3798828-5.7646484-8.0688477
			c-1.2910156-3.0126953-2.1972656-6.1635742-2.7197266-9.4526367s-0.7841797-7.300293-0.7841797-12.034668
			c0-4.6723633,0.2617188-8.6835938,0.7841797-12.0341797s1.4287109-6.5014648,2.7197266-9.4526367
			c1.5996094-3.6889648,3.5507813-6.3481445,5.8564453-7.9770508S238.4003906,40,242.0273438,40
			c3.5664063,0,6.4863281,0.8149414,8.7607422,2.4438477s4.1806641,4.3496094,5.7177734,8.1616211
			c0.6142578,1.5371094,1.1523438,3.0737305,1.6132813,4.6108398s0.8300781,3.1503906,1.1074219,4.8413086
			c0.2763672,1.690918,0.4765625,3.5039063,0.5986328,5.440918
			C259.9482422,67.4355469,260.0097656,69.5717773,260.0097656,71.9077148z M251.5253906,71.9077148
			c0-1.7211914-0.0458984-3.2890625-0.1376953-4.703125c-0.0927734-1.4140625-0.2158203-2.7202148-0.3691406-3.9189453
			c-0.1533203-1.1992188-0.3535156-2.3515625-0.5996094-3.4584961c-0.2451172-1.1064453-0.5224609-2.2133789-0.8300781-3.3198242
			c-0.7988281-2.7666016-1.7978516-4.7646484-2.9970703-5.9946289c-1.1992188-1.2290039-2.7207031-1.84375-4.5644531-1.84375
			c-3.8125,0-6.4248047,2.5512695-7.8388672,7.6538086c-0.7373047,2.3359375-1.2451172,4.6879883-1.5214844,7.0546875
			c-0.2763672,2.3671875-0.4150391,5.2719727-0.4150391,8.7148438c0,1.6601563,0.0458984,3.1816406,0.1386719,4.5649414
			c0.0917969,1.3833008,0.2148438,2.6743164,0.3691406,3.8730469c0.1533203,1.1992188,0.3535156,2.3823242,0.5986328,3.5507813
			c0.2460938,1.1679688,0.5224609,2.3666992,0.8300781,3.5961914c1.4140625,5.1030273,4.0263672,7.6542969,7.8388672,7.6542969
			c1.84375,0,3.3652344-0.6147461,4.5644531-1.8442383s2.1982422-3.1660156,2.9970703-5.8100586
			c0.3691406-1.2294922,0.6767578-2.4130859,0.9228516-3.550293s0.4453125-2.3212891,0.5996094-3.550293
			c0.1533203-1.2294922,0.2607422-2.5361328,0.3222656-3.9194336S251.5253906,73.690918,251.5253906,71.9077148z"/>
		<polygon fill-rule="evenodd" clip-rule="evenodd" fill="#006B54" points="300.3095703,102.8935547 281.2207031,61.4868164 
			281.2207031,102.8935547 272.3671875,102.8935547 272.3671875,41.1069336 281.2207031,41.1069336 298.1884766,78.1787109 
			298.1884766,41.1069336 307.0410156,41.1069336 307.0410156,102.8935547 		"/>
		<polygon fill-rule="evenodd" clip-rule="evenodd" fill="#006B54" points="335.9511719,49.3144531 335.9511719,102.8935547 
			327.0058594,102.8935547 327.0058594,49.3144531 315.7558594,49.3144531 315.7558594,41.1069336 347.2021484,41.1069336 
			347.2021484,49.3144531 		"/>
	</g>
</g>
<g>
	<path fill-rule="evenodd" clip-rule="evenodd" fill="#006B54" d="M170.4868164,279.5390625
		c0,9.40625-1.5678711,18.0751953-4.703125,26.0058594c-3.1357422,7.9306641-7.5161133,14.7089844-13.1411133,20.3339844
		c-5.6254883,5.6259766-12.3574219,10.0527344-20.1962891,13.2792969C124.6079102,342.3867188,115.9853516,344,106.5791016,344
		c-7.5620117,0-14.6166992-1.1982422-21.1645508-3.5957031c-6.5473633-2.3984375-12.5415039-5.7177734-17.9824219-9.9599609
		s-10.0981445-9.40625-13.9711914-15.4931641c-3.8735352-6.0859375-6.7324219-12.9101563-8.5766602-20.4726563l28.7724609-8.2988281
		c2.2133789,9.0371094,6.2709961,15.953125,12.1728516,20.7490234s13.2797852,7.1923828,22.1328125,7.1923828
		c4.9794922,0,9.4985352-0.8300781,13.5561523-2.4892578c4.0576172-1.6601563,7.515625-3.9189453,10.3745117-6.7783203
		s5.1181641-6.2714844,6.777832-10.2363281c1.6601563-3.9648438,2.4902344-8.3457031,2.4902344-13.1416016
		c0-4.7949219-0.9223633-9.3134766-2.7666016-13.5556641s-4.4262695-7.5625-7.746582-9.9589844
		c-1.1064453-0.7382813-2.074707-1.3378906-2.9047852-1.7988281s-1.8442383-0.7841797-3.0429688-0.96875
		c-1.1992188-0.1835938-2.7666016-0.3691406-4.7036133-0.5527344c-1.9365234-0.1845703-4.6567383-0.3691406-8.1611328-0.5537109
		h-3.3198242v-29.8789063v0.8300781h0.8300781h0.5532227h5.8095703c5.9023438,0,10.4208984-1.5673828,13.5561523-4.703125
		c3.1357422-3.1357422,4.7036133-7.6542969,4.7036133-13.5556641c0-7.1933594-2.5361328-13.1425781-7.6083984-17.8447266
		c-5.0717773-4.7036133-11.3891602-7.0551758-18.9506836-7.0551758c-12.3574219,0-21.671875,6.0864258-27.9423828,18.2592773
		L52.0776367,189.902832c4.7954102-11.8041992,12.034668-21.0722656,21.7172852-27.8041992
		c9.6831055-6.7319336,20.6113281-10.0981445,32.7841797-10.0981445c7.7460938,0,15.0776367,1.4750977,21.9941406,4.4262695
		c6.9160156,2.9511719,12.956543,7.0087891,18.1210938,12.1733398c5.1640625,5.1640625,9.2216797,11.2045898,12.1728516,18.1210938
		c2.9511719,6.9155273,4.4267578,14.2475586,4.4267578,21.9936523c0,5.5332031-0.7382813,10.5136719-2.2138672,14.9394531
		c-1.4750977,4.4267578-4.2416992,9.5917969-8.2993164,15.4931641c3.5043945,3.1357422,6.362793,6.1328125,8.5761719,8.9912109
		c2.2133789,2.859375,4.0117188,5.8554688,5.3950195,8.9921875c1.3833008,3.1347656,2.3515625,6.5009766,2.9047852,10.0976563
		C170.2099609,270.8242188,170.4868164,274.9287109,170.4868164,279.5390625z"/>
	<path fill-rule="evenodd" clip-rule="evenodd" fill="#006B54" d="M339.1152344,248.2773438
		c0,14.7548828-1.7519531,28.8642578-5.2558594,42.328125c-3.5048828,13.4648438-8.484375,24.3457031-14.9394531,32.6464844
		C308.5908203,337.0839844,293.6513672,344,274.1015625,344c-13.0957031,0-23.8847656-2.6738281-32.3691406-8.0224609
		s-15.4931641-13.7412109-21.0263672-25.1757813c-3.8730469-7.9306641-7.0087891-17.5673828-9.40625-28.9111328
		c-2.3974609-11.3427734-3.5966797-22.546875-3.5966797-33.6132813c0-15.3085938,1.7988281-29.5107422,5.3945313-42.6054688
		c3.5976563-13.0947266,8.53125-24.0688477,14.8017578-32.921875c5.5332031-7.0087891,12.1269531-12.2192383,19.7802734-15.6313477
		c7.6542969-3.4121094,16.8300781-5.1181641,27.5283203-5.1181641c11.8037109,0,21.8554688,2.6743164,30.1552734,8.0229492
		c8.2998047,5.3491211,15.4003906,13.7407227,21.3027344,25.1757813c3.8730469,8.2988281,6.9160156,17.9824219,9.1298828,29.0488281
		C338.0087891,225.3144531,339.1152344,236.6582031,339.1152344,248.2773438z M309.7900391,248.2773438
		c0-10.5136719-0.9228516-20.2421875-2.7666016-29.1875c-1.8447266-8.9453125-4.6113281-16.5527344-8.2998047-22.8242188
		c-2.9511719-4.7954102-6.3173828-8.2998047-10.0986328-10.5126953c-3.7802734-2.2133789-8.4375-3.5043945-13.9707031-3.8735352
		c-7.1933594-0.3686523-13.1875,1.2910156-17.9824219,4.9799805c-4.7958984,3.6884766-8.7607422,9.6835938-11.8964844,17.9824219
		c-2.3974609,5.5332031-4.1953125,12.21875-5.3945313,20.0585938c-1.1992188,7.8378906-1.7988281,15.6308594-1.7988281,23.3769531
		c0,9.9589844,0.921875,19.5507813,2.7675781,28.7714844c1.84375,9.2226563,4.6103516,16.7851563,8.2988281,22.6865234
		c2.9511719,4.7958984,6.4550781,8.3916016,10.5136719,10.7900391c4.0566406,2.3974609,9.0371094,3.5957031,14.9394531,3.5957031
		c6.8242188,0,12.4951172-1.84375,17.0136719-5.5332031c4.5195313-3.6875,8.3457031-9.6826172,11.4814453-17.9824219
		c0.9228516-2.3974609,1.8447266-5.3027344,2.7666016-8.7148438s1.7060547-7.0078125,2.3515625-10.7890625
		s1.1523438-7.6074219,1.5214844-11.4814453C309.6054688,255.7470703,309.7900391,251.9658203,309.7900391,248.2773438z"/>
</g>
</svg>
