<?xml version="1.0" encoding="iso-8859-1"?>
<!-- Generator: Adobe Illustrator 11.0, SVG Export Plug-In . SVG Version: 6.0.0 Build 78)  -->
<!DOCTYPE svg PUBLIC "-//W3C//DTD SVG 1.0//EN"    "http://www.w3.org/TR/2001/REC-SVG-20010904/DTD/svg10.dtd" [
	<!ENTITY ns_flows "http://ns.adobe.com/Flows/1.0/">
	<!ENTITY ns_svg "http://www.w3.org/2000/svg">
	<!ENTITY ns_xlink "http://www.w3.org/1999/xlink">
]>
<svg  xmlns="&ns_svg;" xmlns:xlink="&ns_xlink;" xmlns:a="http://ns.adobe.com/AdobeSVGViewerExtensions/3.0/"
	 width="600" height="600" viewBox="0 0 600 600" style="overflow:visible;enable-background:new 0 0 600 600" xml:space="preserve"
	>
	<g id="Layer_1">
		<g id="Shield_202_">
			<path id="Background_1_" d="M600,542.227C600,574.125,574.125,600,542.227,600H57.782C25.869,600,0,574.125,0,542.227V57.782
				C0,25.869,25.869,0,57.782,0h484.444C574.125,0,600,25.869,600,57.782V542.227z"/>
			<path id="Head_1_" style="fill:#FFFFFF;" d="M69.375,304.5C58.5,303.375,40.86,310.506,36,297.75
				c-3-7.875,21.964-71.769,34.875-84C78,207,66.352,190.588,72,180c22.21-41.643,24.129-50.279,42.363-81.952
				c2.877-4.995,17.584-16.603,23.036-23.991C142.195,65.417,154.022,44.804,162,42c42.58-14.971,80.971-27.448,138.554-27.448
				c66.226,0,127.89,24.047,160.444,74.449C492,137.001,492,168.999,505.002,207c6.551,19.14,34.482,47.2,42,66
				c9.996,24.999-1.189,66.832-9,76.002c-23.004,27-67.096,50.338-74.004,63c-6,10.998-0.029,41.988,14.004,48
				c22.002-6.996,24.996-18,43.998-15c-10.998,21-6.967,29.607-9,36c-7.002,21.996-15.762,16.834-15,28.998
				c1.002,16.002,58.998,31.998,61.002,79.002H69.999c42-63,72.882-60.434,104.001-116.004c12.741-22.752,0.003-38.566-24.75-44.748
				c-29.637-7.4-82.875-3.375-87.375-28.5c-2.186-12.205,9.75-23.625,10.125-37.5c0.234-8.631-6.75-18.375-6.75-18.375
				S71.25,316.5,69.375,304.5z"/>
		</g>
		<g>
			<path d="M123.815,403.059c0.445-13.207,2.121-25.295,5.033-36.264s7.506-21.832,13.781-32.578
				c4.699-8.502,10.523-16.395,17.473-23.672c6.943-7.277,14.338-13.822,22.178-19.646c2.016-1.113,3.803-2.291,5.373-3.521
				c1.567-1.23,3.138-2.408,4.708-3.527l12.094-6.381l11.086-6.381l10.758-6.041c4.477-2.906,8.109-6.545,10.91-10.916
				c2.801-4.365,4.207-8.9,4.207-13.6c0-4.254-1.125-8.227-3.363-11.918s-5.215-6.885-8.906-9.574
				c-3.691-2.684-8.004-4.811-12.938-6.381c-4.922-1.564-10.184-2.35-15.785-2.35c-11.426,0-20.669,2.689-27.724,8.063
				c-7.055,5.379-11.479,13.219-13.271,23.52l-35.613-7.729c3.809-18.82,12.545-33.563,26.209-44.227s30.463-16.002,50.399-16.002
				c10.746,0,20.777,1.793,30.07,5.373c9.293,3.586,17.355,8.396,24.188,14.443s12.27,13.154,16.301,21.322
				s6.059,16.846,6.059,26.021c0,8.73-1.969,17.297-5.883,25.688c-3.926,8.396-9.574,15.838-16.969,22.33
				c-1.793,1.348-3.422,2.578-4.875,3.697s-2.965,2.016-4.535,2.684l-11.086,7.055l-12.094,6.381l-11.098,6.381
				c-5.379,3.135-10.137,6.439-14.273,9.908c-4.148,3.469-7.96,7.219-11.429,11.25s-6.715,8.508-9.738,13.43
				s-5.883,10.518-8.572,16.787h110.552v36.375H123.815z"/>
			<path d="M480.982,290.893c0,17.93-2.133,35.068-6.393,51.428s-10.313,29.578-18.158,39.656
				c-12.557,16.805-30.721,25.207-54.486,25.207c-15.92,0-29.033-3.252-39.346-9.744c-10.313-6.498-18.832-16.693-25.559-30.586
				c-4.711-9.633-8.525-21.34-11.438-35.121c-2.918-13.781-4.371-27.393-4.371-40.84c0-18.598,2.186-35.848,6.557-51.756
				s10.371-29.238,17.994-39.996c6.727-8.514,14.742-14.842,24.047-18.99c9.305-4.143,20.455-6.217,33.463-6.217
				c14.35,0,26.566,3.252,36.656,9.75s18.721,16.693,25.898,30.58c4.705,10.084,8.402,21.85,11.098,35.291
				C479.635,263.002,480.982,276.783,480.982,290.893z M445.357,290.893c0-12.756-1.125-24.563-3.363-35.42
				c-2.244-10.857-5.607-20.092-10.084-27.703c-3.586-5.818-7.682-10.072-12.275-12.756s-10.254-4.254-16.975-4.705
				c-8.742-0.445-16.031,1.57-21.855,6.047c-5.83,4.477-10.646,11.754-14.455,21.82c-2.918,6.721-5.104,14.836-6.557,24.346
				c-1.459,9.516-2.186,18.973-2.186,28.371c0,12.094,1.119,23.73,3.363,34.922c2.238,11.191,5.602,20.373,10.084,27.533
				c3.586,5.824,7.84,10.189,12.773,13.096c4.934,2.912,10.986,4.365,18.158,4.365c8.291,0,15.182-2.238,20.678-6.715
				c5.49-4.477,10.143-11.748,13.951-21.826c1.119-2.906,2.238-6.434,3.363-10.576c1.119-4.137,2.068-8.502,2.854-13.096
				c0.785-4.588,1.4-9.234,1.852-13.934C445.129,299.963,445.357,295.369,445.357,290.893z"/>
		</g>
	</g>
</svg>
