<?xml version="1.0" encoding="utf-8"?>
<!-- Generator: Adobe Illustrator 12.0.0, SVG Export Plug-In . SVG Version: 6.00 Build 51448)  -->
<!DOCTYPE svg PUBLIC "-//W3C//DTD SVG 1.1//EN" "http://www.w3.org/Graphics/SVG/1.1/DTD/svg11.dtd" [
	<!ENTITY ns_svg "http://www.w3.org/2000/svg">
	<!ENTITY ns_xlink "http://www.w3.org/1999/xlink">
]>
<svg  version="1.1" id="Layer_1" xmlns="&ns_svg;" xmlns:xlink="&ns_xlink;" width="384" height="384" viewBox="0 0 384 384"
	 overflow="visible" enable-background="new 0 0 384 384" xml:space="preserve">
<g>
	<g>
		<path d="M0,24C0,10.7451172,10.7451172,0,24,0h336c13.2548828,0,24,10.7451172,24,24v336c0,13.2548828-10.7451172,24-24,24H24
			c-13.2548828,0-24-10.7451172-24-24V24L0,24z"/>
		<path d="M192,192"/>
	</g>
	<path fill="#FFFFFF" d="M356,22l-22,40h12c16.5683594,0,30,13.4316406,30,30v220c0,16.5683594-13.4316406,30-30,30H208l-16,30
		l-16-30H38c-16.5688477,0-30-13.4316406-30-30V92c0-16.5683594,13.4311523-30,30-30h12L28,22H356z"/>
</g>
<g>
	<path fill-rule="evenodd" clip-rule="evenodd" d="M173.1582031,215.4462891
		c0,19.0244141-5.9560547,34.5390625-17.8701172,46.5449219C143.375,273.9970703,127.9985352,280,109.1582031,280
		c-14.9609375,0-28.0283203-4.5253906-39.203125-13.5761719C58.7802734,257.3740234,51.2539063,245.3681641,47.375,230.4072266
		l28.5371094-8.3115234C80.7138672,240.75,92.2578125,250.078125,110.5439453,250.078125
		c9.7890625,0,17.7773438-3.09375,23.965332-9.28125c6.1875-6.1875,9.28125-13.9921875,9.28125-23.4111328
		c0-10.7128906-3.5092773-18.4707031-10.527832-23.2734375c-2.9555664-2.2158203-9.2353516-3.6015625-18.8398438-4.1552734
		c0,0-1.1083984,0-3.324707,0v-29.0908203h7.2036133c12.1904297,0,18.2851563-6.0957031,18.2851563-18.2861328
		c0-7.203125-2.5859375-13.1137695-7.7573242-17.7314453c-5.171875-4.6176758-11.4516602-6.9267578-18.8398438-6.9267578
		c-12.3754883,0-21.7026367,6.0029297-27.9829102,18.0087891l-27.4282227-10.2509766
		c4.8022461-11.8212891,12.0981445-21.0561523,21.887207-27.7060547C86.2548828,91.324707,97.152832,88,109.1582031,88
		c15.7001953,0,29.0913086,5.4951172,40.1738281,16.4848633c11.0820313,10.9897461,16.6230469,24.3344727,16.6230469,40.034668
		c0,9.9741211-3.5092773,20.1328125-10.527832,30.4765625c6.8334961,6.2792969,11.4975586,12.2822266,13.9907227,18.0078125
		C171.9121094,198.7304688,173.1582031,206.2109375,173.1582031,215.4462891z"/>
	<path fill-rule="evenodd" clip-rule="evenodd" d="M336.625,208.2421875c0,20.6875-7.6191406,37.8183594-22.8574219,51.3945313
		C298.5292969,273.2119141,279.1816406,280,255.7246094,280c-16.4394531,0-31.5839844-3.5097656-45.4375-10.5283203
		l14.1298828-26.0429688c8.6806641,4.4326172,20.4101563,6.6494141,35.1865234,6.6494141
		c13.4833984,0,24.7958984-3.9707031,33.9394531-11.9140625c9.1425781-7.9414063,13.7138672-17.9160156,13.7138672-29.921875
		c0-9.0507813-3.2324219-16.715332-9.6962891-22.9951172c-6.4648438-6.2802734-14.3154297-9.4199219-23.5507813-9.4199219
		c-6.4648438,0-11.6816406,1.2929688-15.6533203,3.8789063c-3.9716797,2.5854492-8.7275391,7.7573242-14.2685547,15.5146484
		l-29.3671875-8.3115234l4.7089844-95.8613281h106.6669922v29.3681641h-78.1298828l-1.9394531,30.4755859
		c12.1904297-3.3242188,21.703125-4.9868164,28.5371094-4.9868164c16.9921875,0,31.5839844,6.1416016,43.7744141,18.4243164
		S336.625,191.25,336.625,208.2421875z"/>
</g>
</svg>
