<?xml version="1.0" encoding="UTF-8" standalone="no"?>
<!-- Created with Inkscape (http://www.inkscape.org/) -->
<svg
   xmlns:svg="http://www.w3.org/2000/svg"
   xmlns="http://www.w3.org/2000/svg"
   version="1.0"
   width="600"
   height="600"
   id="svg2">
  <defs
     id="defs4" />
  <g
     id="layer1">
    <g
       id="g1876">
      <path
         d="M 37.50003,0 L 562.50045,0 C 583.27547,0 600.00048,16.725013 600.00048,37.50003 L 600.00048,562.50045 C 600.00048,583.27547 583.27547,600.00048 562.50045,600.00048 L 37.50003,600.00048 C 16.725013,600.00048 0,583.27547 0,562.50045 L 0,37.50003 C 0,16.725013 16.725013,0 37.50003,0 z "
         style="fill:black;fill-opacity:1;stroke:none"
         id="rect5533" />
      <path
         d="M 87.50007,50.00004 L 512.50041,50.00004 C 533.27543,50.00004 550.00044,66.725053 550.00044,87.50007 L 550.00044,512.50041 C 550.00044,533.27543 533.27543,550.00044 512.50041,550.00044 L 87.50007,550.00044 C 66.725053,550.00044 50.00004,533.27543 50.00004,512.50041 L 50.00004,87.50007 C 50.00004,66.725053 66.725053,50.00004 87.50007,50.00004 z "
         style="fill:white;fill-opacity:1;stroke:none"
         id="rect5535" />
      <path
         d="M 69.732881,444.81589 C 70.304507,427.81576 72.463602,412.25356 76.210174,398.12925 C 79.956675,384.00503 85.866704,370.03027 93.940279,356.20494 C 99.990971,345.24685 107.48184,335.08459 116.41292,325.71813 C 125.34385,316.3519 134.85311,307.9222 144.94072,300.42898 C 147.53505,298.99559 149.84145,297.4851 151.85994,295.89751 C 153.87821,294.31022 155.89439,292.79534 157.90849,291.35285 L 173.4751,283.1474 L 187.7357,274.92876 L 201.57416,267.14546 C 207.33451,263.3991 212.01549,258.71593 215.61709,253.09593 C 219.21833,247.47632 221.01905,241.64104 221.01923,235.59009 C 221.01905,230.12 219.57892,225.00589 216.69883,220.24774 C 213.8184,215.49004 210.0015,211.38293 205.24814,207.92638 C 200.49445,204.4703 194.9472,201.73296 188.60638,199.71433 C 182.26526,197.69619 175.49335,196.687 168.29063,196.68676 C 153.59458,196.687 141.70637,200.14551 132.62594,207.0623 C 123.54534,213.97956 117.85298,224.06486 115.54885,237.31825 L 69.732881,227.38464 C 74.631493,203.17309 85.868903,184.22274 103.44515,170.53353 C 121.02126,156.84488 142.6364,150.00041 168.29063,150.00012 C 182.12455,150.00041 195.01976,152.30682 206.9763,156.91934 C 218.93251,161.53244 229.30584,167.7283 238.09633,175.50693 C 246.88642,183.2861 253.876,192.43477 259.06508,202.95298 C 264.25372,213.47166 266.84816,224.64091 266.84838,236.46076 C 266.84816,247.70058 264.32628,258.72252 259.28275,269.52662 C 254.23878,280.33107 246.96337,289.91508 237.45651,298.27868 C 235.15211,300.00258 233.06337,301.58563 231.19029,303.02781 C 229.31683,304.47028 227.36881,305.62239 225.34622,306.48413 L 211.08562,315.56025 L 195.51901,323.7789 L 181.25841,331.99754 C 174.33685,336.02562 168.21135,340.27345 162.88189,344.74105 C 157.55219,349.20885 152.65355,354.03714 148.18596,359.22591 C 143.71815,364.41486 139.53848,370.17978 135.64692,376.52068 C 131.75518,382.86172 128.0812,390.06457 124.62497,398.12925 L 266.84838,398.12925 L 266.84838,444.81589 L 69.732881,444.81589 z M 529.18535,300.42898 C 529.18512,323.48879 526.44777,345.53707 520.9733,366.57388 C 515.49838,387.61085 507.71729,404.61538 497.62998,417.58751 C 481.49153,439.19608 458.15043,450.00036 427.60662,450.00036 C 407.14125,450.00036 390.28184,445.82288 377.02833,437.46792 C 363.77465,429.11297 352.82527,416.0001 344.18014,398.12925 C 338.12935,385.73758 333.23071,370.68108 329.48421,352.95969 C 325.73764,335.23849 323.86437,317.72827 323.8644,300.42898 C 323.86437,276.51637 326.67427,254.32958 332.29411,233.86853 C 337.91388,213.4079 345.62242,196.26046 355.41976,182.42616 C 364.06488,171.47704 374.36785,163.33535 386.32872,158.00109 C 398.2894,152.6674 412.62474,150.00041 429.33478,150.00012 C 447.7771,150.00041 463.48221,154.18009 476.45016,162.53915 C 489.41774,170.89879 500.51444,184.00946 509.74028,201.87123 C 515.79081,214.84363 520.54434,229.97489 524.00088,247.26505 C 527.45696,264.5556 529.18512,282.27689 529.18535,300.42898 L 529.18535,300.42898 z M 483.36938,300.42898 C 483.3692,284.00944 481.92907,268.81003 479.04899,254.83068 C 476.16855,240.85172 471.84376,228.9635 466.07462,219.166 C 461.46603,211.67315 456.20901,206.19846 450.30353,202.7419 C 444.39774,199.28583 437.12234,197.26745 428.4773,196.68676 C 417.23755,196.11535 407.87121,198.70978 400.37824,204.47006 C 392.88507,210.23082 386.68921,219.59716 381.79066,232.56911 C 378.04403,241.2145 375.23413,251.66039 373.36094,263.90681 C 371.48759,276.15359 370.55096,288.32764 370.55104,300.42898 C 370.55096,315.99572 371.99109,330.98406 374.87143,345.39406 C 377.75161,359.80425 382.072,371.61771 387.83261,380.83448 C 392.44973,388.32762 397.92662,393.94742 404.2633,397.69391 C 410.59976,401.44049 418.38086,403.31376 427.60662,403.31372 C 438.26565,403.31376 447.12629,400.4335 454.18859,394.67293 C 461.25056,388.91246 467.23095,379.54612 472.12976,366.57388 C 473.57192,362.82742 475.01424,358.28937 476.45675,352.95969 C 477.8989,347.63021 479.12356,342.0104 480.13074,336.10026 C 481.13755,330.19034 481.92907,324.20996 482.50531,318.15909 C 483.08117,312.10847 483.3692,306.19844 483.36938,300.42898 L 483.36938,300.42898 z "
         style="font-size:432.27685547px;font-style:normal;font-weight:normal;text-align:center;text-anchor:middle;fill:black;fill-opacity:1;stroke:none;stroke-width:1px;stroke-linecap:butt;stroke-linejoin:miter;stroke-opacity:1;font-family:Roadgeek 2005 Series C"
         id="text1873" />
    </g>
  </g>
</svg>
